0
SECTION
2
HEADER
9
$INSUNITS
70
4
9
$ACADVER
1
AC1014
9
$HANDSEED
5
FFFF
0
ENDSEC
0
SECTION
2
TABLES
0
TABLE
2
VPORT
5
8
100
AcDbSymbolTable
0
ENDTAB
0
TABLE
2
LTYPE
5
5
100
AcDbSymbolTable
0
LTYPE
5
14
100
AcDbSymbolTableRecord
100
AcDbLinetypeTableRecord
2
BYBLOCK
70
0
0
LTYPE
5
15
100
AcDbSymbolTableRecord
100
AcDbLinetypeTableRecord
2
BYLAYER
70
0
0
ENDTAB
0
TABLE
2
LAYER
5
2
100
AcDbSymbolTable
70
2
0
LAYER
5
50
100
AcDbSymbolTableRecord
100
AcDbLayerTableRecord
2
0
70
0
6
CONTINUOUS
0
ENDTAB
0
TABLE
2
STYLE
5
3
100
AcDbSymbolTable
70
1
0
STYLE
5
11
100
AcDbSymbolTableRecord
100
AcDbTextStyleTableRecord
2
STANDARD
70
0
0
ENDTAB
0
TABLE
2
VIEW
5
6
100
AcDbSymbolTable
70
0
0
ENDTAB
0
TABLE
2
UCS
5
7
100
AcDbSymbolTable
70
0
0
ENDTAB
0
TABLE
2
APPID
5
9
100
AcDbSymbolTable
70
2
0
APPID
5
12
100
AcDbSymbolTableRecord
100
AcDbRegAppTableRecord
2
ACAD
70
0
0
ENDTAB
0
TABLE
2
DIMSTYLE
5
A
100
AcDbSymbolTable
70
1
0
ENDTAB
0
TABLE
2
BLOCK_RECORD
5
1
100
AcDbSymbolTable
70
1
0
BLOCK_RECORD
5
1F
100
AcDbSymbolTableRecord
100
AcDbBlockTableRecord
2
*MODEL_SPACE
0
BLOCK_RECORD
5
1B
100
AcDbSymbolTableRecord
100
AcDbBlockTableRecord
2
*PAPER_SPACE
0
ENDTAB
0
ENDSEC
0
SECTION
2
BLOCKS
0
BLOCK
5
20
100
AcDbEntity
100
AcDbBlockBegin
2
*MODEL_SPACE
0
ENDBLK
5
21
100
AcDbEntity
100
AcDbBlockEnd
0
BLOCK
5
1C
100
AcDbEntity
100
AcDbBlockBegin
2
*PAPER_SPACE
0
ENDBLK
5
1D
100
AcDbEntity
100
AcDbBlockEnd
0
ENDSEC
0
SECTION
2
ENTITIES
0
LWPOLYLINE
5
100
100
AcDbEntity
8
0
100
AcDbPolyline
90
8
70
1
43
0.0
10
254.92069987234282
20
-38.482308339673992
10
254.92069987234282
20
-50.982308339673992
42
0.41421356237306733
10
255.67069987234279
20
-51.732308339674013
10
261.37069987234281
20
-51.732308339673992
42
0.41421356237307422
10
262.12069987234281
20
-50.982308339673992
10
262.12069987234281
20
-38.482308339673978
42
0.41421356237308982
10
261.37069987234281
20
-37.732308339673992
10
255.67069987234279
20
-37.732308339673992
42
0.41421356237308982
0
LWPOLYLINE
5
101
100
AcDbEntity
8
0
100
AcDbPolyline
90
8
70
1
43
0.0
10
285.92069987234282
20
-50.982308339673992
42
-0.41421356237307422
10
285.17069987234282
20
-51.732308339673992
10
279.47069987234283
20
-51.732308339673985
42
-0.41421356237306733
10
278.72069987234283
20
-50.982308339673992
10
278.72069987234283
20
-38.482308339673985
42
-0.41421356237309159
10
279.47069987234283
20
-37.732308339673992
10
285.17069987234282
20
-37.732308339673999
42
-0.41421356237308982
10
285.92069987234282
20
-38.482308339673978
0
LWPOLYLINE
5
102
100
AcDbEntity
8
0
100
AcDbPolyline
90
8
70
1
43
0.0
10
260.25194987234278
20
-17.682308339673927
10
247.25194987234275
20
-17.682308339673924
42
0.4142135623730287
10
246.75194987234278
20
-18.182308339673995
10
246.75194987234275
20
-31.182308339673934
42
0.41421356237310025
10
247.25194987234275
20
-31.682308339674002
10
260.25194987234278
20
-31.682308339673931
42
0.41421356237307422
10
260.75194987234278
20
-31.182308339673945
10
260.75194987234278
20
-18.182308339673995
42
0.41421356237313406
0
LWPOLYLINE
5
103
100
AcDbEntity
8
0
100
AcDbPolyline
90
24
70
1
43
0.0
10
258.05194987234279
20
-13.63230833967393
10
263.75194987234283
20
-13.632308339673928
42
0.41421356237309592
10
264.50194987234278
20
-12.882308339673926
10
264.50194987234278
20
-12.732308339673926
42
-0.41421356237279588
10
264.6019498723428
20
-12.632308339673934
10
281.00194987234283
20
-12.632308339673946
42
-0.41421356237278933
10
281.10194987234286
20
-12.732308339673928
10
281.10194987234286
20
-12.882308339673916
42
0.41421356237309681
10
281.85194987234286
20
-13.632308339673925
10
287.55194987234285
20
-13.632308339673923
42
0.41421356237309681
10
288.30194987234285
20
-12.882308339673916
10
288.30194987234285
20
-12.732308339673931
42
-0.41421356237280887
10
288.40194987234281
20
-12.632308339673941
10
288.57694987234282
20
-12.632308339673939
42
0.41421356237309681
10
289.32694987234282
20
-11.882308339673937
10
289.32694987234282
20
0.6176916603260747
42
0.41421356237309664
10
288.57694987234282
20
1.3676916603260769
10
257.02694987234281
20
1.3676916603260811
42
0.41421356237309725
10
256.27694987234281
20
0.61769166032607625
10
256.27694987234281
20
-11.882308339673926
42
0.41421356237309764
10
257.02694987234281
20
-12.632308339673926
10
257.20194987234277
20
-12.632308339673939
42
-0.41421356237280238
10
257.30194987234279
20
-12.732308339673926
10
257.30194987234279
20
-12.88230833967393
42
0.41421356237309681
0
LWPOLYLINE
5
104
100
AcDbEntity
8
0
100
AcDbPolyline
90
8
70
1
43
0.0
10
271.31444987234283
20
-31.68230833967398
10
283.81444987234283
20
-31.682308339673988
42
0.41421356237309681
10
284.56444987234283
20
-30.932308339673984
10
284.56444987234283
20
-18.432308339673977
42
0.41421356237309764
10
283.81444987234283
20
-17.682308339673977
10
271.31444987234283
20
-17.682308339673977
42
0.41421356237310025
10
270.56444987234283
20
-18.432308339673984
10
270.56444987234283
20
-30.932308339673988
42
0.41421356237309681
0
LWPOLYLINE
5
105
100
AcDbEntity
8
0
100
AcDbPolyline
90
8
70
1
43
0.0
10
192.48319987234277
20
-88.832308339673858
10
228.36444987234273
20
-88.832308339673872
42
0.41421356237304302
10
228.86444987234273
20
-88.332308339673929
10
228.86444987234273
20
-75.332308339673887
42
0.41421356237310542
10
228.36444987234273
20
-74.832308339673915
10
192.48319987234279
20
-74.832308339673958
42
0.41421356237307944
10
191.98319987234274
20
-75.332308339673972
10
191.98319987234274
20
-88.332308339673915
42
0.4142135623730534
0
LWPOLYLINE
5
106
100
AcDbEntity
8
0
100
AcDbPolyline
90
8
70
1
43
0.0
10
181.1519498723425
20
-87.082308339674057
10
181.1519498723425
20
-74.58280022469927
42
0.41401566384967015
10
180.40245665862477
20
-73.832800395920145
10
174.70245665862478
20
-73.828948819296315
42
0.41441148859340249
10
173.95194987234251
20
-74.578948648074729
10
173.95194987234251
20
-87.082308339674057
42
0.41421356237308815
10
174.70194987234251
20
-87.832308339674057
10
180.40194987234253
20
-87.832308339674029
42
0.41421356237308815
0
LWPOLYLINE
5
107
100
AcDbEntity
8
0
100
AcDbPolyline
90
8
70
1
43
0.0
10
190.6769498723425
20
-87.082308339673972
10
190.6769498723425
20
-74.582308339673943
42
0.41421356237309503
10
189.9269498723425
20
-73.832308339673958
10
184.22694061218402
20
-73.832308339673943
42
0.41421356237310542
10
183.47694061218402
20
-74.582308339673972
10
183.47694061218402
20
-87.082308339673972
42
0.41421356237309503
10
184.22694061218402
20
-87.832308339673943
10
189.9269498723425
20
-87.832308339673972
42
0.41421356237310197
0
LWPOLYLINE
5
108
100
AcDbEntity
8
0
100
AcDbPolyline
90
8
70
1
43
0.0
10
79.451949872342581
20
-87.832308339674256
10
89.926949872342576
20
-87.832308339673872
42
0.41421356237307422
10
90.676949872342547
20
-87.082308339673901
10
90.676949872342533
20
-74.58230833967383
42
0.41421356237309503
10
89.926949872342533
20
-73.832308339673844
10
79.451949872342567
20
-73.832308339673858
42
0.41421356237309159
10
78.701949872342567
20
-74.582308339673844
10
78.701949872342553
20
-87.082308339674256
42
0.41421356237310542
0
LWPOLYLINE
5
109
100
AcDbEntity
8
0
100
AcDbPolyline
90
8
70
1
43
0.0
10
71.039449872342459
20
-69.782308339673946
10
84.039449872342558
20
-69.782308339673946
42
0.41421356237305862
10
84.539449872342459
20
-69.282308339673889
10
84.539449872342459
20
-56.282308339673925
42
0.41421356237310542
10
84.039449872342459
20
-55.782308339673861
10
71.039449872342459
20
-55.782308339673918
42
0.41421356237311063
10
70.539449872342459
20
-56.282308339673939
10
70.539449872342473
20
-69.282308339673889
42
0.41421356237310025
0
LWPOLYLINE
5
110
100
AcDbEntity
8
0
100
AcDbPolyline
90
15
70
1
43
0.0
10
75.65194987234247
20
-73.83272512214576
10
75.65194987234247
20
-73.832308339673929
10
69.926949872342504
20
-73.832308339673986
42
0.31783724519559925
10
69.219843091156818
20
-74.332308339673844
42
-0.31783724519563111
10
68.512736309969739
20
-74.832308339673943
10
31.489449872342455
20
-74.832308339673915
42
0.41421356237308721
10
30.989449872342458
20
-75.332308339673915
10
30.989449872342455
20
-88.332308339673844
42
0.41421356237308204
10
31.489449872342448
20
-88.832308339673801
10
72.173148739504555
20
-88.832308339673915
42
0.39396068272471713
10
72.638357216191892
20
-88.333520258515605
42
-0.41421356237314183
10
73.138357216191835
20
-87.833520258515534
10
75.626949872342536
20
-87.833520258515534
42
0.41421356237308815
10
76.376949872342536
20
-87.083520258515549
10
76.376949872342536
20
-74.582308339674
42
0.40448201821029944
0
LWPOLYLINE
5
111
100
AcDbEntity
8
0
100
AcDbPolyline
90
19
70
1
43
0.0
10
11.608432631307977
20
-69.767202735837742
42
-0.26902255235188427
10
12.170932631307974
20
-70.267202735837785
42
0.32370577713019322
10
12.883199872342455
20
-70.782308339674074
10
18.383199872342452
20
-70.78230833967406
42
0.31783724519580292
10
19.090306653529048
20
-70.282308339674003
42
-0.31783724519580364
10
19.797413434715594
20
-69.782308339673961
10
35.268986309969321
20
-69.782308339673932
42
-0.31783724519580903
10
35.976093091155889
20
-70.282308339674017
42
0.31783724519578732
10
36.683199872342456
20
-70.782308339674088
10
42.183199872342456
20
-70.78230833967406
42
0.31783724519579315
10
42.890306653529024
20
-70.282308339674017
42
-0.31783724519580975
10
43.597413434715584
20
-69.782308339673961
10
45.689449872342458
20
-69.782308339673975
42
0.41421356237309159
10
46.439449872342458
20
-69.032308339673961
10
46.439449872342458
20
-56.532308339673953
42
0.41421356237308815
10
45.689449872342458
20
-55.782308339673968
10
11.758199872342452
20
-55.782308339673961
42
0.41421356237309681
10
11.008199872342452
20
-56.532308339673975
10
11.008199872342455
20
-69.032308339673975
42
0.35648320250324289
0
LWPOLYLINE
5
112
100
AcDbEntity
8
0
100
AcDbPolyline
90
8
70
1
43
0.0
10
264.17069987234282
20
-50.732308339674013
10
276.67069987234282
20
-50.732308339673999
42
0.41421356237304302
10
277.42069987234282
20
-49.982308339673992
10
277.42069987234282
20
-37.482308339673985
42
0.41421356237308982
10
276.67069987234282
20
-36.732308339673999
10
264.17069987234282
20
-36.732308339673978
42
0.41421356237309331
10
263.42069987234282
20
-37.482308339673985
10
263.42069987234282
20
-49.982308339673992
42
0.41421356237307078
0
LWPOLYLINE
5
113
100
AcDbEntity
8
0
100
AcDbPolyline
90
8
70
1
43
0.0
10
123.42694987234276
20
-88.832308339673858
10
145.95094987232676
20
-88.832308339673858
42
0.41421356237309503
10
146.45094987232676
20
-88.332308339673887
10
146.45094987232679
20
-75.33230833967383
42
0.41421356237309503
10
145.95094987232676
20
-74.832308339665531
10
123.42694987234276
20
-74.83230833967383
42
0.41421356237312101
10
122.92694987234277
20
-75.332308339673858
10
122.92694987234276
20
-88.332308339673901
42
0.4142135623730846
0
LWPOLYLINE
5
114
100
AcDbEntity
8
0
100
AcDbPolyline
90
20
70
1
43
0.0
10
361.05194987234279
20
-18.394308339673952
42
-0.4142135623731939
10
360.55194987234279
20
-18.894308339673952
42
0.41421356237319129
10
360.05194987234279
20
-19.394308339673962
10
360.05194987234285
20
-25.144308339674005
42
0.41421356237301699
10
360.55194987234279
20
-25.644308339673941
42
-0.41421356237319129
10
361.05194987234279
20
-26.144308339673934
10
361.05194987234285
20
-42.27030833967396
42
-0.41421356237318868
10
360.55194987234279
20
-42.770308339673981
42
0.41421356237319906
10
360.05194987234279
20
-43.270308339673988
10
360.05194987234285
20
-49.020308339674024
42
0.41421356237301177
10
360.55194987234279
20
-49.520308339673953
42
-0.41421356237318868
10
361.05194987234279
20
-50.020308339673946
10
361.05194987234279
20
-50.23230833967397
42
0.41421356237301177
10
361.55194987234273
20
-50.732308339673935
10
374.55194987234279
20
-50.732308339673963
42
0.41421356237310025
10
375.05194987234279
20
-50.232308339673978
10
375.05194987234279
20
-18.18230833967403
42
0.41421356237311324
10
374.55194987234279
20
-17.682308339673959
10
361.55194987234273
20
-17.682308339674016
42
0.41421356237319906
10
361.05194987234279
20
-18.18230833967403
0
LWPOLYLINE
5
115
100
AcDbEntity
8
0
100
AcDbPolyline
90
8
70
1
43
0.0
10
146.73944987234276
20
-56.282308339673961
10
146.73944987234276
20
-69.282308339673918
42
0.4142135623730846
10
147.23944987234273
20
-69.782308339673875
10
160.23944987234273
20
-69.782308339673904
42
0.4142135623730534
10
160.73944987234279
20
-69.282308339673918
10
160.73944987234279
20
-56.282308339673946
42
0.41421356237311585
10
160.23944987234276
20
-55.782308339673875
10
147.23944987234276
20
-55.782308339673932
42
0.41421356237311585
0
LWPOLYLINE
5
116
100
AcDbEntity
8
0
100
AcDbPolyline
90
8
70
1
43
0.0
10
61.01444987234246
20
-37.232308339673928
10
61.01444987234246
20
-50.232308339673885
42
0.41421356237310025
10
61.514449872342468
20
-50.732308339673942
10
74.514449872342468
20
-50.732308339673978
42
0.41421356237313145
10
75.014449872342468
20
-50.232308339673885
10
75.014449872342468
20
-37.232308339673928
42
0.41421356237309243
10
74.514449872342468
20
-36.732308339673956
10
61.514449872342468
20
-36.732308339673921
42
0.41421356237309503
0
LWPOLYLINE
5
117
100
AcDbEntity
8
0
100
AcDbPolyline
90
8
70
1
43
0.0
10
112.61444987234277
20
-36.732308339673978
10
99.614449872342462
20
-36.73230833967397
42
0.41421356237308721
10
99.114449872342476
20
-37.232308339673949
10
99.114449872342462
20
-50.232308339673899
42
0.41421356237316265
10
99.614449872342462
20
-50.732308339673949
10
112.61444987234277
20
-50.732308339673992
42
0.41421356237315227
10
113.11444987234276
20
-50.232308339673899
10
113.11444987234279
20
-37.232308339673949
42
0.41421356237312362
0
LWPOLYLINE
5
118
100
AcDbEntity
8
0
100
AcDbPolyline
90
8
70
1
43
0.0
10
151.50194987234278
20
-18.182308339673952
10
151.50194987234278
20
-31.182308339673913
42
0.41421356237305862
10
152.00194987234278
20
-31.68230833967398
10
165.00194987234278
20
-31.682308339673902
42
0.414213562373069
10
165.50194987234275
20
-31.182308339673916
10
165.50194987234278
20
-18.182308339673959
42
0.41421356237311324
10
165.00194987234281
20
-17.682308339673895
10
152.00194987234278
20
-17.682308339673956
42
0.41421356237308721
0
LWPOLYLINE
5
119
100
AcDbEntity
8
0
100
AcDbPolyline
90
8
70
1
43
0.0
10
75.301949872342476
20
-18.182308339673948
10
75.301949872342476
20
-31.182308339673895
42
0.41421356237310281
10
75.80194987234249
20
-31.682308339673956
10
88.801949872342476
20
-31.682308339673884
42
0.41421356237310802
10
89.301949872342476
20
-31.182308339673888
10
89.301949872342476
20
-18.182308339673945
42
0.41421356237311846
10
88.801949872342476
20
-17.682308339673874
10
75.801949872342476
20
-17.682308339673934
42
0.4142135623730937
0
LWPOLYLINE
5
120
100
AcDbEntity
8
0
100
AcDbPolyline
90
8
70
1
43
0.0
10
7.7894498723424981
20
-18.182308339673913
10
7.7894498723424945
20
-31.182308339673956
42
0.41421356237303647
10
8.2894498723424945
20
-31.682308339673941
10
9.2894498723425034
20
-31.682308339673867
42
0.41421356237303064
10
9.7894498723424626
20
-31.18230833967397
10
9.7894498723424963
20
-18.182308339673927
42
0.4142135623731048
10
9.2894498723424963
20
-17.682308339673948
10
8.2894498723424963
20
-17.682308339673916
42
0.41421356237309115
0
LWPOLYLINE
5
121
100
AcDbEntity
8
0
100
AcDbPolyline
90
8
70
1
43
0.0
10
194.36444987234279
20
-37.232308339673963
10
194.36444987234279
20
-50.232308339673921
42
0.41421356237312101
10
194.86444987234279
20
-50.732308339673978
10
207.86444987234276
20
-50.732308339673921
42
0.41421356237304818
10
208.36444987234276
20
-50.232308339673928
10
208.36444987234276
20
-37.232308339673978
42
0.41421356237310802
10
207.86444987234276
20
-36.732308339673899
10
194.86444987234279
20
-36.732308339673963
42
0.41421356237302481
0
LWPOLYLINE
5
122
100
AcDbEntity
8
0
100
AcDbPolyline
90
8
70
1
43
0.0
10
289.6644498723428
20
-17.682308339673931
10
288.6644498723428
20
-17.682308339673931
42
0.4142135623730781
10
288.16444987234274
20
-18.182308339673995
10
288.16444987234274
20
-31.182308339673945
42
0.41421356237313145
10
288.6644498723428
20
-31.682308339674016
10
289.6644498723428
20
-31.682308339673941
42
0.41421356237307683
10
290.1644498723428
20
-31.182308339673945
10
290.1644498723428
20
-18.182308339673995
42
0.41421356237313406
0
LWPOLYLINE
5
123
100
AcDbEntity
8
0
100
AcDbPolyline
90
8
70
1
43
0.0
10
213.41444987234274
20
-37.232308339673978
10
213.41444987234274
20
-50.232308339673928
42
0.41421356237313145
10
213.91444987234277
20
-50.732308339673992
10
226.91444987234277
20
-50.732308339673921
42
0.41421356237304302
10
227.41444987234274
20
-50.232308339673935
10
227.41444987234277
20
-37.232308339673978
42
0.41421356237310281
10
226.91444987234277
20
-36.732308339673907
10
213.91444987234277
20
-36.732308339673963
42
0.41421356237307944
0
LWPOLYLINE
5
124
100
AcDbEntity
8
0
100
AcDbPolyline
90
8
70
1
43
0.0
10
232.46444987234273
20
-75.332308339673872
10
232.46444987234273
20
-88.332308339673915
42
0.4142135623730534
10
232.96444987234275
20
-88.832308339673872
10
248.34569987234272
20
-88.832308339673901
42
0.41421356237307422
10
248.84569987234272
20
-88.332308339673929
10
248.84569987234272
20
-75.332308339673887
42
0.41421356237311585
10
248.34569987234272
20
-74.832308339673915
10
232.96444987234278
20
-74.832308339673858
42
0.4142135623730846
0
LWPOLYLINE
5
125
100
AcDbEntity
8
0
100
AcDbPolyline
90
8
70
1
43
0.0
10
280.08944987234275
20
-61.044808339673992
10
280.08944987234275
20
-74.044808339673935
42
0.41421356237304302
10
280.58944987234275
20
-74.544808339673907
10
293.58944987234275
20
-74.544808339673921
42
0.414213562373069
10
294.08944987234281
20
-74.044808339673949
10
294.08944987234281
20
-61.044808339674006
42
0.41421356237310542
10
293.58944987234281
20
-60.544808339673935
10
280.58944987234281
20
-60.544808339673999
42
0.41421356237307422
0
LWPOLYLINE
5
126
100
AcDbEntity
8
0
100
AcDbPolyline
90
8
70
1
43
0.0
10
303.90194987234275
20
-56.282308339673996
10
303.90194987234275
20
-69.282308339673961
42
0.41421356237313667
10
304.40194987234275
20
-69.782308339673932
10
317.40194987234275
20
-69.782308339673961
42
0.4142135623730534
10
317.90194987234281
20
-69.282308339673961
10
317.90194987234281
20
-56.282308339674003
42
0.41421356237311585
10
317.40194987234281
20
-55.782308339673918
10
304.40194987234281
20
-55.782308339673975
42
0.4142135623730378
0
LWPOLYLINE
5
127
100
AcDbEntity
8
0
100
AcDbPolyline
90
8
70
1
43
0.0
10
322.95194987234277
20
-37.232308339674006
10
322.95194987234277
20
-50.232308339673963
42
0.41421356237301699
10
323.45194987234271
20
-50.732308339674013
10
336.45194987234277
20
-50.732308339673949
42
0.41421356237310025
10
336.95194987234277
20
-50.23230833967397
10
336.95194987234277
20
-37.232308339674006
42
0.41421356237311585
10
336.45194987234277
20
-36.732308339673942
10
323.45194987234271
20
-36.732308339674006
42
0.41421356237319906
0
LWPOLYLINE
5
128
100
AcDbEntity
8
0
100
AcDbPolyline
90
8
70
1
43
0.0
10
342.00194987234278
20
-18.182308339674027
10
342.00194987234278
20
-31.182308339673973
42
0.41421356237301699
10
342.50194987234272
20
-31.682308339673941
10
355.50194987234278
20
-31.682308339673966
42
0.41421356237311063
10
356.00194987234272
20
-31.18230833967397
10
356.00194987234272
20
-18.182308339674023
42
0.41421356237311324
10
355.50194987234278
20
-17.682308339673952
10
342.50194987234272
20
-17.682308339674012
42
0.41421356237319906
0
LWPOLYLINE
5
129
100
AcDbEntity
8
0
100
AcDbPolyline
90
8
70
1
43
0.0
10
303.90194987234281
20
0.86769166032604206
10
303.90194987234281
20
-12.13230833967395
42
0.41421356237312362
10
304.40194987234281
20
-12.632308339673921
10
317.40194987234281
20
-12.632308339673955
42
0.41421356237307422
10
317.90194987234281
20
-12.132308339673957
10
317.90194987234281
20
0.86769166032603595
42
0.41421356237313295
10
317.40194987234281
20
1.3676916603260367
10
304.40194987234281
20
1.3676916603260405
42
0.41421356237302426
0
LWPOLYLINE
5
130
100
AcDbEntity
8
0
100
AcDbPolyline
90
8
70
1
43
0.0
10
212.62694987234278
20
1.3676916603260678
10
199.62694987234275
20
1.3676916603260616
42
0.41421356237307566
10
199.12694987234275
20
0.86769166032605982
10
199.12694987234275
20
-12.132308339673919
42
0.41421356237313406
10
199.62694987234275
20
-12.632308339673891
10
212.62694987234278
20
-12.632308339673923
42
0.41421356237302348
10
213.12694987234278
20
-12.132308339673923
10
213.12694987234278
20
0.86769166032605627
42
0.41421356237310175
0
LWPOLYLINE
5
131
100
AcDbEntity
8
0
100
AcDbPolyline
90
8
70
1
43
0.0
10
122.92694987234279
20
0.86769166032607536
10
122.92694987234279
20
-12.132308339673894
42
0.41421356237309503
10
123.42694987234279
20
-12.632308339673962
10
136.42694987234279
20
-12.632308339673896
42
0.41421356237309115
10
136.92694987234279
20
-12.132308339673898
10
136.92694987234279
20
0.8676916603260707
42
0.41421356237309437
10
136.42694987234279
20
1.3676916603260718
10
123.42694987234279
20
1.3676916603260649
42
0.41421356237310281
0
LWPOLYLINE
5
132
100
AcDbEntity
8
0
100
AcDbPolyline
90
8
70
1
43
0.0
10
46.72694987234248
20
0.86769166032609091
10
46.72694987234248
20
-12.13230833967387
42
0.41421356237309503
10
47.22694987234248
20
-12.632308339673944
10
60.226949872342473
20
-12.632308339673875
42
0.41421356237309503
10
60.726949872342487
20
-12.132308339673877
10
60.726949872342473
20
0.86769166032608402
42
0.41421356237309709
10
60.226949872342473
20
1.3676916603260842
10
47.22694987234248
20
1.3676916603260882
42
0.41421356237309276
0
LWPOLYLINE
5
133
100
AcDbEntity
8
0
100
AcDbPolyline
90
8
70
1
43
0.0
10
227.70194987234277
20
-18.182308339673991
10
227.70194987234277
20
-31.182308339673931
42
0.41421356237313406
10
228.20194987234277
20
-31.682308339673998
10
241.20194987234277
20
-31.682308339673927
42
0.41421356237304818
10
241.70194987234279
20
-31.182308339673934
10
241.70194987234279
20
-18.182308339673988
42
0.41421356237310281
10
241.20194987234277
20
-17.682308339673916
10
228.20194987234277
20
-17.68230833967398
42
0.41421356237308071
0
LWPOLYLINE
5
134
100
AcDbEntity
8
0
100
AcDbPolyline
90
8
70
1
43
0.0
10
65.77694987234247
20
0.86769166032608647
10
65.77694987234247
20
-12.132308339673873
42
0.41421356237309764
10
66.276949872342485
20
-12.632308339673948
10
79.276949872342485
20
-12.632308339673884
42
0.4142135623730937
10
79.77694987234247
20
-12.132308339673884
10
79.776949872342485
20
0.86769166032607814
42
0.41421356237309809
10
79.276949872342485
20
1.3676916603260894
10
66.276949872342485
20
1.3676916603260827
42
0.4142135623730947
0
LWPOLYLINE
5
135
100
AcDbEntity
8
0
100
AcDbPolyline
90
8
70
1
43
0.0
10
141.97694987234277
20
0.86769166032607092
10
141.97694987234277
20
-12.132308339673898
42
0.41421356237307422
10
142.47694987234277
20
-12.632308339673969
10
155.47694987234277
20
-12.632308339673905
42
0.41421356237309243
10
155.97694987234277
20
-12.132308339673905
10
155.97694987234277
20
0.86769166032607314
42
0.41421356237309265
10
155.47694987234277
20
1.3676916603260667
10
142.47694987234277
20
1.3676916603260691
42
0.41421356237307311
0
LWPOLYLINE
5
136
100
AcDbEntity
8
0
100
AcDbPolyline
90
8
70
1
43
0.0
10
218.17694987234276
20
0.86769166032605538
10
218.17694987234276
20
-12.132308339673923
42
0.41421356237313406
10
218.67694987234276
20
-12.632308339673994
10
231.67694987234279
20
-12.632308339673932
42
0.41421356237302481
10
232.17694987234279
20
-12.13230833967393
10
232.17694987234279
20
0.8676916603260626
42
0.41421356237312024
10
231.67694987234279
20
1.3676916603260629
10
218.67694987234276
20
1.3676916603260549
42
0.41421356237307683
0
LWPOLYLINE
5
137
100
AcDbEntity
8
0
100
AcDbPolyline
90
8
70
1
43
0.0
10
322.95194987234277
20
0.86769166032603318
10
322.95194987234277
20
-12.132308339673958
42
0.41421356237301959
10
323.45194987234271
20
-12.632308339673926
10
336.45194987234277
20
-12.632308339673962
42
0.41421356237310936
10
336.95194987234277
20
-12.13230833967396
10
336.95194987234277
20
0.86769166032604006
42
0.41421356237301749
10
336.45194987234277
20
1.3676916603260012
10
323.45194987234271
20
1.3676916603260358
42
0.41421356237319451
0
LWPOLYLINE
5
138
100
AcDbEntity
8
0
100
AcDbPolyline
90
8
70
1
43
0.0
10
322.95194987234277
20
-18.182308339674002
10
322.95194987234277
20
-31.182308339673959
42
0.41421356237301699
10
323.45194987234271
20
-31.682308339673938
10
336.45194987234277
20
-31.682308339673963
42
0.41421356237311324
10
336.95194987234277
20
-31.182308339673959
10
336.95194987234277
20
-18.182308339674019
42
0.41421356237311324
10
336.45194987234277
20
-17.682308339673948
10
323.45194987234271
20
-17.682308339674009
42
0.41421356237319129
0
LWPOLYLINE
5
139
100
AcDbEntity
8
0
100
AcDbPolyline
90
8
70
1
43
0.0
10
342.00194987234278
20
-37.232308339674006
10
342.00194987234278
20
-50.232308339673963
42
0.41421356237301699
10
342.50194987234272
20
-50.732308339673935
10
355.50194987234278
20
-50.732308339673963
42
0.41421356237310542
10
356.00194987234272
20
-50.23230833967397
10
356.00194987234272
20
-37.232308339674006
42
0.41421356237311324
10
355.50194987234278
20
-36.732308339673942
10
342.50194987234272
20
-36.732308339673999
42
0.41421356237319651
0
LWPOLYLINE
5
140
100
AcDbEntity
8
0
100
AcDbPolyline
90
8
70
1
43
0.0
10
299.13944987234271
20
-80.094808339673904
10
299.13944987234271
20
-93.094808339674344
42
0.4142135623730534
10
299.63944987234271
20
-93.594808339674216
10
312.63944987234271
20
-93.59480833967433
42
0.4142135623730846
10
313.13944987234271
20
-93.094808339674344
10
313.13944987234271
20
-80.094808339673904
42
0.41421356237311585
10
312.63944987234271
20
-79.594808339673961
10
299.63944987234271
20
-79.594808339673889
42
0.41421356237310542
0
LWPOLYLINE
5
141
100
AcDbEntity
8
0
100
AcDbPolyline
90
8
70
1
43
0.0
10
249.13319987234271
20
-56.282308339673989
10
249.13319987234271
20
-69.282308339673946
42
0.41421356237312101
10
249.63319987234271
20
-69.782308339673904
10
262.63319987234274
20
-69.782308339673932
42
0.4142135623730534
10
263.1331998723428
20
-69.282308339673932
10
263.1331998723428
20
-56.282308339673975
42
0.41421356237311063
10
262.6331998723428
20
-55.782308339673904
10
249.63319987234274
20
-55.782308339673968
42
0.4142135623730846
0
LWPOLYLINE
5
142
100
AcDbEntity
8
0
100
AcDbPolyline
90
8
70
1
43
0.0
10
250.06444987234272
20
-75.332308339673872
10
250.06444987234272
20
-88.332308339673915
42
0.4142135623730534
10
250.56444987234272
20
-88.832308339673872
10
251.56444987234272
20
-88.832308339673901
42
0.41421356237304302
10
252.06444987234275
20
-88.332308339673929
10
252.06444987234275
20
-75.332308339673887
42
0.41421356237310542
10
251.56444987234272
20
-74.832308339673915
10
250.56444987234275
20
-74.832308339673858
42
0.414213562373069
0
LWPOLYLINE
5
143
100
AcDbEntity
8
0
100
AcDbPolyline
90
8
70
1
43
0.0
10
232.46444987234275
20
-37.232308339673985
10
232.46444987234275
20
-50.232308339673935
42
0.41421356237313145
10
232.96444987234278
20
-50.732308339673999
10
245.96444987234278
20
-50.732308339673935
42
0.4142135623730534
10
246.46444987234275
20
-50.232308339673935
10
246.46444987234278
20
-37.232308339673985
42
0.41421356237310802
10
245.96444987234278
20
-36.732308339673907
10
232.96444987234278
20
-36.73230833967397
42
0.41421356237308204
0
LWPOLYLINE
5
144
100
AcDbEntity
8
0
100
AcDbPolyline
90
8
70
1
43
0.0
10
264.96444987234281
20
-18.182308339674002
10
264.96444987234281
20
-31.182308339673948
42
0.41421356237312101
10
265.46444987234281
20
-31.682308339674012
10
266.46444987234281
20
-31.682308339673938
42
0.414213562373069
10
266.96444987234281
20
-31.182308339673952
10
266.96444987234281
20
-18.182308339673998
42
0.41421356237313406
10
266.46444987234281
20
-17.682308339673927
10
265.46444987234281
20
-17.682308339673991
42
0.4142135623730287
0
LWPOLYLINE
5
145
100
AcDbEntity
8
0
100
AcDbPolyline
90
8
70
1
43
0.0
10
175.81444987234275
20
-50.732308339673921
42
-0.41421356237313145
10
175.31444987234272
20
-50.232308339673921
10
175.31444987234269
20
-37.232308339673963
42
-0.41421356237307944
10
175.81444987234275
20
-36.732308339673956
10
188.81444987234275
20
-36.732308339673935
42
-0.41421356237310802
10
189.31444987234275
20
-37.232308339673963
10
189.31444987234275
20
-50.232308339673921
42
-0.41421356237304818
10
188.81444987234275
20
-50.732308339673907
0
LWPOLYLINE
5
146
100
AcDbEntity
8
0
100
AcDbPolyline
90
8
70
1
43
0.0
10
31.489449872342465
20
-31.68230833967387
42
-0.41421356237309503
10
30.989449872342469
20
-31.182308339673881
10
30.989449872342473
20
-18.182308339673938
42
-0.41421356237310936
10
31.489449872342469
20
-17.682308339673924
10
32.489449872342469
20
-17.682308339673924
42
-0.41421356237310025
10
32.989449872342469
20
-18.182308339673931
10
32.989449872342462
20
-31.182308339673874
42
-0.41421356237309503
10
32.489449872342469
20
-31.68230833967387
0
LWPOLYLINE
5
147
100
AcDbEntity
8
0
100
AcDbPolyline
90
8
70
1
43
0.0
10
94.351949872342473
20
-18.182308339673938
10
94.351949872342473
20
-31.182308339673884
42
0.41421356237309503
10
94.851949872342487
20
-31.682308339673959
10
107.85194987234277
20
-31.682308339673888
42
0.41421356237312623
10
108.35194987234277
20
-31.182308339673899
10
108.3519498723428
20
-18.182308339673941
42
0.41421356237307555
10
107.85194987234279
20
-17.682308339673877
10
94.851949872342487
20
-17.682308339673938
42
0.41421356237311452
0
LWPOLYLINE
5
148
100
AcDbEntity
8
0
100
AcDbPolyline
90
8
70
1
43
0.0
10
156.26444987234277
20
-37.232308339673956
10
156.26444987234277
20
-50.232308339673907
42
0.41421356237310542
10
156.76444987234277
20
-50.73230833967397
10
169.76444987234277
20
-50.732308339673907
42
0.41421356237307944
10
170.26444987234277
20
-50.232308339673921
10
170.26444987234277
20
-37.232308339673963
42
0.41421356237313406
10
169.76444987234277
20
-36.732308339673892
10
156.76444987234277
20
-36.732308339673956
42
0.41421356237310025
0
LWPOLYLINE
5
149
100
AcDbEntity
8
0
100
AcDbPolyline
90
8
70
1
43
0.0
10
10.17069987234246
20
-37.232308339673914
10
10.170699872342459
20
-50.232308339673963
42
0.41421356237310281
10
10.67069987234246
20
-50.732308339673928
10
29.270699872342462
20
-50.732308339673963
42
0.41421356237308721
10
29.770699872342462
20
-50.23230833967397
10
29.770699872342465
20
-37.232308339673921
42
0.41421356237309764
10
29.270699872342469
20
-36.732308339673942
10
10.670699872342464
20
-36.732308339673907
42
0.41421356237309631
0
LWPOLYLINE
5
150
100
AcDbEntity
8
0
100
AcDbPolyline
90
8
70
1
43
0.0
10
80.06444987234245
20
-37.232308339673935
10
80.06444987234245
20
-50.232308339673992
42
0.414213562373069
10
80.564449872342564
20
-50.732308339673949
10
93.564449872342465
20
-50.732308339673992
42
0.41421356237316787
10
94.06444987234245
20
-50.232308339673899
10
94.064449872342465
20
-37.232308339673942
42
0.41421356237304818
10
93.56444987234255
20
-36.732308339673864
10
80.564449872342564
20
-36.732308339673921
42
0.41421356237309243
0
LWPOLYLINE
5
151
100
AcDbEntity
8
0
100
AcDbPolyline
90
8
70
1
43
0.0
10
89.589449872342456
20
-56.282308339673939
10
89.589449872342456
20
-69.282308339673904
42
0.41421356237306384
10
90.089449872342456
20
-69.782308339673961
10
103.08944987234275
20
-69.782308339673889
42
0.41421356237313667
10
103.58944987234275
20
-69.282308339673889
10
103.58944987234278
20
-56.282308339673932
42
0.41421356237312101
10
103.08944987234277
20
-55.782308339673861
10
90.089449872342456
20
-55.782308339673918
42
0.41421356237310025
0
LWPOLYLINE
5
152
100
AcDbEntity
8
0
100
AcDbPolyline
90
8
70
1
43
0.0
10
11.008199872342455
20
-75.332308339673915
10
11.008199872342452
20
-88.332308339673844
42
0.4142135623730599
10
11.50819987234245
20
-88.832308339673801
10
26.889449872342453
20
-88.83230833967383
42
0.41421356237308204
10
27.389449872342453
20
-88.332308339673887
10
27.389449872342453
20
-75.332308339673943
42
0.41421356237310281
10
26.889449872342457
20
-74.832308339673858
10
11.508199872342452
20
-74.832308339673915
42
0.41421356237308854
0
LWPOLYLINE
5
153
100
AcDbEntity
8
0
100
AcDbPolyline
90
8
70
1
43
0.0
10
185.3394498723427
20
-69.782308339673904
42
-0.41421356237312101
10
184.8394498723427
20
-69.282308339673932
10
184.8394498723427
20
-56.282308339673968
42
-0.4142135623730846
10
185.33944987234275
20
-55.782308339673953
10
198.33944987234275
20
-55.782308339673946
42
-0.41421356237310025
10
198.83944987234275
20
-56.282308339673961
10
198.83944987234273
20
-69.282308339673932
42
-0.41421356237307944
10
198.33944987234273
20
-69.782308339673918
0
LWPOLYLINE
5
154
100
AcDbEntity
8
0
100
AcDbPolyline
90
8
70
1
43
0.0
10
127.68944987234276
20
-56.282308339673961
10
127.68944987234276
20
-69.282308339673918
42
0.4142135623730846
10
128.18944987234275
20
-69.782308339673875
10
141.18944987234275
20
-69.782308339673904
42
0.41421356237314183
10
141.68944987234278
20
-69.282308339673904
10
141.68944987234278
20
-56.282308339673939
42
0.41421356237310542
10
141.18944987234275
20
-55.782308339673875
10
128.18944987234275
20
-55.782308339673932
42
0.41421356237311585
0
LWPOLYLINE
5
155
100
AcDbEntity
8
0
100
AcDbPolyline
90
8
70
1
43
0.0
10
51.989449872342455
20
-69.782308339673875
42
-0.41421356237308982
10
51.489449872342455
20
-69.282308339673889
10
51.489449872342462
20
-56.282308339673932
42
-0.41421356237311585
10
51.989449872342455
20
-55.782308339673904
10
64.989449872342462
20
-55.782308339673918
42
-0.41421356237310025
10
65.489449872342462
20
-56.282308339673925
10
65.489449872342462
20
-69.282308339673889
42
-0.41421356237310542
10
64.989449872342462
20
-69.782308339673889
0
LWPOLYLINE
5
156
100
AcDbEntity
8
0
100
AcDbPolyline
90
8
70
1
43
0.0
10
41.96444987234247
20
-37.232308339673921
10
41.96444987234247
20
-50.23230833967397
42
0.41421356237310025
10
42.46444987234247
20
-50.732308339673942
10
55.464449872342463
20
-50.732308339673871
42
0.41421356237310025
10
55.96444987234247
20
-50.232308339673885
10
55.964449872342463
20
-37.232308339673928
42
0.41421356237309243
10
55.464449872342463
20
-36.732308339673949
10
42.46444987234247
20
-36.732308339673914
42
0.41421356237309243
0
LWPOLYLINE
5
157
100
AcDbEntity
8
0
100
AcDbPolyline
90
8
70
1
43
0.0
10
118.16444987234277
20
-37.232308339673949
10
118.16444987234277
20
-50.232308339673999
42
0.4142135623730378
10
118.66444987234276
20
-50.732308339673963
10
131.66444987234274
20
-50.732308339673899
42
0.41421356237311063
10
132.16444987234274
20
-50.232308339673907
10
132.16444987234274
20
-37.232308339673949
42
0.41421356237311846
10
131.66444987234274
20
-36.732308339673885
10
118.66444987234276
20
-36.732308339673942
42
0.4142135623730846
0
LWPOLYLINE
5
158
100
AcDbEntity
8
0
100
AcDbPolyline
90
8
70
1
43
0.0
10
145.95194987234279
20
-17.682308339673888
10
132.95194987234279
20
-17.682308339673881
42
0.41421356237311452
10
132.45194987234279
20
-18.182308339673948
10
132.45194987234277
20
-31.182308339673895
42
0.41421356237309503
10
132.95194987234279
20
-31.682308339673966
10
145.95194987234279
20
-31.682308339673895
42
0.41421356237311585
10
146.45194987234279
20
-31.182308339673899
10
146.45194987234279
20
-18.182308339673952
42
0.41421356237309631
0
LWPOLYLINE
5
159
100
AcDbEntity
8
0
100
AcDbPolyline
90
8
70
1
43
0.0
10
56.251949872342465
20
-18.182308339673938
10
56.251949872342465
20
-31.182308339673877
42
0.41421356237309503
10
56.751949872342465
20
-31.682308339673952
10
69.751949872342465
20
-31.682308339673881
42
0.41421356237310281
10
70.251949872342465
20
-31.182308339673888
10
70.251949872342465
20
-18.182308339673941
42
0.41421356237309243
10
69.751949872342465
20
-17.682308339673966
10
56.751949872342465
20
-17.682308339673931
42
0.41421356237309764
0
LWPOLYLINE
5
160
100
AcDbEntity
8
0
100
AcDbPolyline
90
8
70
1
43
0.0
10
13.389449872342468
20
-18.182308339673924
10
13.389449872342464
20
-31.18230833967397
42
0.41421356237304041
10
13.889449872342466
20
-31.682308339673938
10
26.889449872342468
20
-31.682308339673867
42
0.41421356237309243
10
27.389449872342468
20
-31.182308339673874
10
27.389449872342468
20
-18.182308339673927
42
0.41421356237310542
10
26.889449872342471
20
-17.682308339673959
10
13.889449872342469
20
-17.68230833967392
42
0.41421356237309764
0
LWPOLYLINE
5
161
100
AcDbEntity
8
0
100
AcDbPolyline
90
8
70
1
43
0.0
10
189.60194987234274
20
-18.182308339673977
10
189.60194987234274
20
-31.182308339673924
42
0.41421356237313406
10
190.10194987234274
20
-31.682308339673991
10
203.10194987234274
20
-31.68230833967392
42
0.41421356237304302
10
203.60194987234277
20
-31.182308339673924
10
203.60194987234277
20
-18.182308339673977
42
0.41421356237310281
10
203.10194987234274
20
-17.682308339673909
10
190.10194987234274
20
-17.68230833967397
42
0.41421356237308071
0
LWPOLYLINE
5
162
100
AcDbEntity
8
0
100
AcDbPolyline
90
8
70
1
43
0.0
10
217.38944987234277
20
-55.782308339673897
10
204.38944987234279
20
-55.782308339673897
42
0.4142135623730378
10
203.88944987234277
20
-56.282308339673975
10
203.88944987234277
20
-69.282308339673932
42
0.41421356237313145
10
204.38944987234277
20
-69.782308339673889
10
217.38944987234274
20
-69.782308339673932
42
0.4142135623730846
10
217.88944987234277
20
-69.282308339673932
10
217.88944987234277
20
-56.282308339673968
42
0.41421356237310542
0
LWPOLYLINE
5
163
100
AcDbEntity
8
0
100
AcDbPolyline
90
8
70
1
43
0.0
10
243.53319987234272
20
-56.282308339673989
10
243.53319987234272
20
-69.282308339673946
42
0.41421356237313145
10
244.03319987234272
20
-69.782308339673904
10
245.03319987234275
20
-69.782308339673932
42
0.4142135623730846
10
245.53319987234275
20
-69.282308339673932
10
245.53319987234278
20
-56.282308339673975
42
0.41421356237310025
10
245.03319987234278
20
-55.782308339673904
10
244.03319987234278
20
-55.782308339673968
42
0.41421356237303258
0
LWPOLYLINE
5
164
100
AcDbEntity
8
0
100
AcDbPolyline
90
8
70
1
43
0.0
10
261.03944987234274
20
-80.094808339673904
10
261.03944987234274
20
-93.094808339674344
42
0.4142135623730534
10
261.53944987234274
20
-93.594808339674216
10
274.53944987234274
20
-93.59480833967433
42
0.4142135623730846
10
275.03944987234274
20
-93.094808339674344
10
275.03944987234274
20
-80.094808339673904
42
0.41421356237311585
10
274.53944987234274
20
-79.594808339673961
10
261.5394498723428
20
-79.594808339673889
42
0.4142135623730846
0
LWPOLYLINE
5
165
100
AcDbEntity
8
0
100
AcDbPolyline
90
8
70
1
43
0.0
10
342.00194987234278
20
-75.332308339673915
10
342.00194987234278
20
-88.332308339673943
42
0.41421356237300139
10
342.50194987234272
20
-88.832308339673901
10
355.50194987234278
20
-88.832308339673943
42
0.4142135623730846
10
356.00194987234272
20
-88.332308339673986
10
356.00194987234272
20
-75.332308339673929
42
0.41421356237311585
10
355.50194987234278
20
-74.832308339673958
10
342.50194987234272
20
-74.832308339673901
42
0.4142135623731939
0
LWPOLYLINE
5
166
100
AcDbEntity
8
0
100
AcDbPolyline
90
8
70
1
43
0.0
10
322.95194987234277
20
-56.282308339674003
10
322.95194987234277
20
-69.282308339673961
42
0.4142135623730222
10
323.45194987234271
20
-69.782308339673932
10
336.45194987234277
20
-69.782308339673961
42
0.41421356237311063
10
336.95194987234277
20
-69.282308339673961
10
336.95194987234277
20
-56.282308339674003
42
0.41421356237311585
10
336.45194987234277
20
-55.782308339674039
10
323.45194987234271
20
-55.782308339673996
42
0.41421356237319906
0
LWPOLYLINE
5
167
100
AcDbEntity
8
0
100
AcDbPolyline
90
8
70
1
43
0.0
10
304.40194987234281
20
-50.732308339673935
42
-0.41421356237312101
10
303.90194987234275
20
-50.232308339673956
10
303.90194987234281
20
-37.232308339673999
42
-0.41421356237302481
10
304.40194987234281
20
-36.732308339673999
10
317.40194987234281
20
-36.732308339673999
42
-0.41421356237313928
10
317.90194987234281
20
-37.232308339674006
10
317.90194987234281
20
-50.232308339673963
42
-0.41421356237307944
10
317.40194987234281
20
-50.732308339673949
0
LWPOLYLINE
5
168
100
AcDbEntity
8
0
100
AcDbPolyline
90
8
70
1
43
0.0
10
361.55194987234273
20
-12.632308339673951
42
-0.41421356237301959
10
361.05194987234279
20
-12.132308339673967
10
361.05194987234279
20
0.86769166032603318
42
-0.41421356237319062
10
361.55194987234273
20
1.3676916603260239
10
374.55194987234279
20
1.3676916603260134
42
-0.41421356237301959
10
375.05194987234279
20
0.86769166032602874
10
375.05194987234279
20
-12.132308339673973
42
-0.41421356237310802
10
374.55194987234279
20
-12.632308339673969
0
LWPOLYLINE
5
169
100
AcDbEntity
8
0
100
AcDbPolyline
90
8
70
1
43
0.0
10
180.07694987234277
20
0.86769166032606648
10
180.07694987234277
20
-12.132308339673912
42
0.41421356237312235
10
180.57694987234277
20
-12.63230833967398
10
193.57694987234279
20
-12.632308339673914
42
0.41421356237307422
10
194.07694987234279
20
-12.132308339673916
10
194.07694987234279
20
0.86769166032606204
42
0.41421356237313106
10
193.57694987234279
20
1.3676916603260638
10
180.57694987234277
20
1.3676916603260578
42
0.41421356237304396
0
LWPOLYLINE
5
170
100
AcDbEntity
8
0
100
AcDbPolyline
90
8
70
1
43
0.0
10
103.87694987234278
20
0.86769166032607981
10
103.87694987234278
20
-12.132308339673889
42
0.41421356237309503
10
104.37694987234278
20
-12.632308339673957
10
117.37694987234278
20
-12.632308339673893
42
0.41421356237309243
10
117.87694987234276
20
-12.132308339673891
10
117.87694987234278
20
0.86769166032607592
42
0.41421356237309209
10
117.37694987234278
20
1.3676916603260778
10
104.37694987234278
20
1.3676916603260714
42
0.41421356237310381
0
LWPOLYLINE
5
171
100
AcDbEntity
8
0
100
AcDbPolyline
90
8
70
1
43
0.0
10
27.676949872342473
20
0.86769166032609535
10
27.676949872342469
20
-12.132308339673866
42
0.41421356237309892
10
28.176949872342476
20
-12.632308339673937
10
41.176949872342476
20
-12.63230833967387
42
0.41421356237309243
10
41.676949872342476
20
-12.132308339673871
10
41.676949872342476
20
0.86769166032608958
42
0.41421356237309459
10
41.176949872342476
20
1.3676916603260789
10
28.176949872342476
20
1.3676916603260834
42
0.41421356237309465
0
LWPOLYLINE
5
172
100
AcDbEntity
8
0
100
AcDbPolyline
90
8
70
1
43
0.0
10
8.6269498723425038
20
0.86769166032609979
42
-0.41421356237308854
10
9.1269498723425038
20
1.3676916603260889
10
22.126949872342472
20
1.3676916603260805
42
-0.41421356237309265
10
22.626949872342472
20
0.86769166032609535
10
22.626949872342461
20
-12.132308339673866
42
-0.41421356237309115
10
22.126949872342468
20
-12.632308339673862
10
9.1269498723425002
20
-12.632308339673861
42
-0.41421356237309243
10
8.6269498723425002
20
-12.132308339673861
0
LWPOLYLINE
5
173
100
AcDbEntity
8
0
100
AcDbPolyline
90
8
70
1
43
0.0
10
84.826949872342468
20
0.86769166032608647
10
84.826949872342468
20
-12.132308339673884
42
0.41421356237309631
10
85.326949872342482
20
-12.632308339673951
10
98.326949872342482
20
-12.632308339673887
42
0.41421356237309243
10
98.826949872342468
20
-12.132308339673887
10
98.826949872342482
20
0.86769166032608225
42
0.41421356237309209
10
98.326949872342482
20
1.3676916603260836
10
85.326949872342482
20
1.3676916603260769
42
0.41421356237310303
0
LWPOLYLINE
5
174
100
AcDbEntity
8
0
100
AcDbPolyline
90
8
70
1
43
0.0
10
161.02694987234275
20
0.86769166032607092
10
161.02694987234275
20
-12.132308339673907
42
0.41421356237312235
10
161.52694987234275
20
-12.632308339673974
10
174.52694987234278
20
-12.63230833967391
42
0.41421356237307555
10
175.02694987234275
20
-12.132308339673909
10
175.02694987234278
20
0.86769166032606759
42
0.41421356237313106
10
174.52694987234278
20
1.3676916603260696
10
161.52694987234275
20
1.3676916603260634
42
0.4142135623730448
0
LWPOLYLINE
5
175
100
AcDbEntity
8
0
100
AcDbPolyline
90
8
70
1
43
0.0
10
237.22694987234277
20
0.86769166032605982
10
237.22694987234277
20
-12.132308339673932
42
0.41421356237312362
10
237.72694987234274
20
-12.632308339673999
10
250.72694987234274
20
-12.632308339673937
42
0.41421356237307683
10
251.22694987234274
20
-12.132308339673934
10
251.22694987234274
20
0.86769166032605671
42
0.41421356237313067
10
250.72694987234274
20
1.3676916603260472
10
237.72694987234274
20
1.3676916603260492
42
0.41421356237304352
0
LWPOLYLINE
5
176
100
AcDbEntity
8
0
100
AcDbPolyline
90
8
70
1
43
0.0
10
342.00194987234278
20
0.86769166032603762
10
342.00194987234278
20
-12.132308339673962
42
0.41421356237301959
10
342.50194987234272
20
-12.63230833967393
10
355.50194987234278
20
-12.632308339673965
42
0.41421356237310936
10
356.00194987234272
20
-12.132308339673965
10
356.00194987234272
20
0.86769166032603373
42
0.41421356237301749
10
355.50194987234278
20
1.3676916603260341
10
342.50194987234272
20
1.3676916603260303
42
0.41421356237319173
0
LWPOLYLINE
5
177
100
AcDbEntity
8
0
100
AcDbPolyline
90
8
70
1
43
0.0
10
303.90194987234281
20
-18.182308339673998
10
303.90194987234281
20
-31.182308339673956
42
0.41421356237312101
10
304.40194987234281
20
-31.682308339674023
10
317.40194987234281
20
-31.682308339673952
42
0.41421356237307161
10
317.90194987234281
20
-31.182308339673966
10
317.90194987234281
20
-18.182308339674009
42
0.41421356237313406
10
317.40194987234281
20
-17.682308339673941
10
304.40194987234281
20
-17.682308339674002
42
0.41421356237304563
0
LWPOLYLINE
5
178
100
AcDbEntity
8
0
100
AcDbPolyline
90
8
70
1
43
0.0
10
342.00194987234278
20
-56.282308339674003
10
342.00194987234278
20
-69.282308339673961
42
0.4142135623730222
10
342.50194987234272
20
-69.782308339673932
10
355.50194987234278
20
-69.782308339673975
42
0.41421356237311063
10
356.00194987234272
20
-69.282308339673975
10
356.00194987234272
20
-56.282308339673918
42
0.41421356237303258
10
355.50194987234278
20
-55.782308339673946
10
342.50194987234272
20
-55.782308339673996
42
0.41421356237319906
0
LWPOLYLINE
5
179
100
AcDbEntity
8
0
100
AcDbPolyline
90
8
70
1
43
0.0
10
336.45194987234277
20
-74.832308339673958
10
323.45194987234271
20
-74.832308339673958
42
0.41421356237318346
10
322.95194987234277
20
-75.332308339673887
10
322.95194987234277
20
-88.332308339673929
42
0.4142135623730222
10
323.45194987234271
20
-88.832308339673901
10
336.45194987234277
20
-88.832308339673943
42
0.41421356237309503
10
336.95194987234277
20
-88.332308339673972
10
336.95194987234277
20
-75.332308339673929
42
0.41421356237311063
0
LWPOLYLINE
5
180
100
AcDbEntity
8
0
100
AcDbPolyline
90
8
70
1
43
0.0
10
280.08944987234275
20
-80.094808339673904
10
280.08944987234275
20
-93.094808339674344
42
0.4142135623730534
10
280.58944987234275
20
-93.594808339674216
10
293.58944987234275
20
-93.59480833967433
42
0.4142135623730846
10
294.08944987234275
20
-93.094808339674344
10
294.08944987234281
20
-80.094808339673904
42
0.41421356237311585
10
293.58944987234275
20
-79.594808339673961
10
280.58944987234275
20
-79.594808339673889
42
0.41421356237310542
0
LWPOLYLINE
5
181
100
AcDbEntity
8
0
100
AcDbPolyline
90
8
70
1
43
0.0
10
266.73319987234271
20
-56.282308339673989
10
266.73319987234271
20
-69.282308339673946
42
0.41421356237313145
10
267.23319987234271
20
-69.782308339673904
10
268.23319987234271
20
-69.782308339673932
42
0.4142135623730534
10
268.73319987234277
20
-69.282308339673932
10
268.73319987234277
20
-56.282308339673975
42
0.41421356237311063
10
268.23319987234277
20
-55.782308339673904
10
267.23319987234277
20
-55.782308339673968
42
0.41421356237303258
0
LWPOLYLINE
5
182
100
AcDbEntity
8
0
100
AcDbPolyline
90
8
70
1
43
0.0
10
236.43944987234278
20
-55.782308339673897
10
223.43944987234278
20
-55.782308339673897
42
0.41421356237308982
10
222.93944987234272
20
-56.282308339673975
10
222.93944987234272
20
-69.282308339673932
42
0.41421356237312101
10
223.43944987234272
20
-69.782308339673904
10
236.43944987234275
20
-69.782308339673932
42
0.4142135623730846
10
236.93944987234275
20
-69.282308339673932
10
236.93944987234278
20
-56.282308339673975
42
0.41421356237310025
0
LWPOLYLINE
5
183
100
AcDbEntity
8
0
100
AcDbPolyline
90
8
70
1
43
0.0
10
208.65194987234275
20
-18.182308339673988
10
208.65194987234275
20
-31.182308339673924
42
0.41421356237313145
10
209.15194987234275
20
-31.682308339673995
10
222.15194987234275
20
-31.682308339673924
42
0.41421356237304302
10
222.65194987234278
20
-31.182308339673934
10
222.65194987234278
20
-18.18230833967398
42
0.41421356237310281
10
222.15194987234275
20
-17.682308339673913
10
209.15194987234275
20
-17.682308339673973
42
0.41421356237308332
0
LWPOLYLINE
5
184
100
AcDbEntity
8
0
100
AcDbPolyline
90
8
70
1
43
0.0
10
171.05194987234279
20
-31.682308339673931
42
-0.41421356237310281
10
170.55194987234276
20
-31.182308339673913
10
170.55194987234276
20
-18.182308339673966
42
-0.41421356237304952
10
171.05194987234279
20
-17.682308339673959
10
184.05194987234279
20
-17.68230833967397
42
-0.41421356237313406
10
184.55194987234279
20
-18.182308339673973
10
184.55194987234282
20
-31.182308339673916
42
-0.41421356237307683
10
184.05194987234279
20
-31.682308339673916
0
LWPOLYLINE
5
185
100
AcDbEntity
8
0
100
AcDbPolyline
90
8
70
1
43
0.0
10
37.201949872342468
20
-18.182308339673934
10
37.201949872342468
20
-31.182308339673874
42
0.41421356237309503
10
37.701949872342468
20
-31.682308339673945
10
50.70194987234246
20
-31.682308339673874
42
0.41421356237310025
10
51.201949872342468
20
-31.182308339673881
10
51.20194987234246
20
-18.182308339673938
42
0.4142135623730846
10
50.701949872342468
20
-17.682308339673963
10
37.701949872342468
20
-17.682308339673924
42
0.41421356237310675
0
LWPOLYLINE
5
186
100
AcDbEntity
8
0
100
AcDbPolyline
90
8
70
1
43
0.0
10
113.90194987234278
20
-31.682308339673892
42
-0.41421356237309243
10
113.40194987234277
20
-31.182308339673888
10
113.40194987234277
20
-18.182308339673941
42
-0.41421356237311452
10
113.90194987234278
20
-17.682308339673941
10
126.90194987234278
20
-17.682308339673934
42
-0.41421356237309631
10
127.40194987234278
20
-18.182308339673945
10
127.40194987234278
20
-31.182308339673888
42
-0.41421356237311324
10
126.90194987234278
20
-31.682308339673892
0
LWPOLYLINE
5
187
100
AcDbEntity
8
0
100
AcDbPolyline
90
8
70
1
43
0.0
10
150.71444987234275
20
-36.732308339673885
10
137.71444987234275
20
-36.732308339673885
42
0.41421356237310281
10
137.21444987234275
20
-37.232308339673956
10
137.21444987234275
20
-50.232308339673907
42
0.41421356237310542
10
137.71444987234275
20
-50.732308339673963
10
150.71444987234275
20
-50.732308339673899
42
0.41421356237311063
10
151.21444987234275
20
-50.232308339673907
10
151.21444987234275
20
-37.232308339673956
42
0.41421356237312362
0
LWPOLYLINE
5
188
100
AcDbEntity
8
0
100
AcDbPolyline
90
8
70
1
43
0.0
10
34.87069987234247
20
-36.732308339673942
10
33.87069987234247
20
-36.732308339673942
42
0.41421356237309764
10
33.37069987234247
20
-37.232308339673921
10
33.370699872342463
20
-50.23230833967397
42
0.41421356237308721
10
33.870699872342463
20
-50.732308339673935
10
34.870699872342463
20
-50.732308339673963
42
0.41421356237308982
10
35.370699872342463
20
-50.23230833967397
10
35.370699872342463
20
-37.232308339673921
42
0.41421356237310281
0
LWPOLYLINE
5
189
100
AcDbEntity
8
0
100
AcDbPolyline
90
8
70
1
43
0.0
10
108.63944987234277
20
-56.282308339673946
10
108.63944987234277
20
-69.282308339673918
42
0.414213562373069
10
109.13944987234275
20
-69.782308339673961
10
122.13944987234274
20
-69.782308339673889
42
0.41421356237313667
10
122.63944987234275
20
-69.282308339673889
10
122.63944987234277
20
-56.282308339673932
42
0.41421356237312101
10
122.13944987234277
20
-55.782308339673861
10
109.13944987234275
20
-55.782308339673925
42
0.41421356237310025
0
LWPOLYLINE
5
190
100
AcDbEntity
8
0
100
AcDbPolyline
90
8
70
1
43
0.0
10
165.78944987234274
20
-56.282308339673968
10
165.78944987234274
20
-69.282308339673932
42
0.41421356237312101
10
166.28944987234269
20
-69.782308339673989
10
179.28944987234271
20
-69.782308339673918
42
0.4142135623730846
10
179.78944987234274
20
-69.282308339673918
10
179.78944987234274
20
-56.282308339673961
42
0.41421356237310025
10
179.28944987234274
20
-55.782308339673889
10
166.28944987234274
20
-55.782308339673953
42
0.4142135623730846
0
LWPOLYLINE
5
191
100
AcDbEntity
8
0
100
AcDbPolyline
90
8
70
1
43
0.0
10
7.7894498723424839
20
-75.332308339673915
10
7.789449872342491
20
-88.332308339673844
42
0.41421356237305929
10
8.289449872342491
20
-88.832308339673801
10
9.289449872342491
20
-88.83230833967383
42
0.41421356237308266
10
9.7894498723424501
20
-88.332308339673887
10
9.7894498723424945
20
-75.332308339673929
42
0.4142135623730957
10
9.2894498723424945
20
-74.832308339673858
10
8.2894498723424945
20
-74.832308339673915
42
0.41421356237309048
0
LWPOLYLINE
5
192
100
AcDbEntity
8
0
100
AcDbPolyline
90
20
70
1
43
0.0
10
361.05194987234285
20
-80.370308339673954
42
-0.4142135623731783
10
360.55194987234279
20
-80.870308339673969
42
0.41421356237318868
10
360.05194987234279
20
-81.370308339673954
10
360.05194987234285
20
-87.120308339674011
42
0.41421356237300139
10
360.55194987234279
20
-87.620308339673954
42
-0.4142135623731783
10
361.05194987234279
20
-88.120308339673926
10
361.05194987234279
20
-88.332308339673943
42
0.41421356237300139
10
361.55194987234273
20
-88.832308339673901
10
374.55194987234279
20
-88.832308339673943
42
0.41421356237310542
10
375.05194987234279
20
-88.332308339673943
10
375.05194987234279
20
-56.28230833967401
42
0.41421356237312101
10
374.55194987234279
20
-55.782308339673946
10
361.55194987234273
20
-55.782308339674003
42
0.41421356237299617
10
361.05194987234279
20
-56.282308339673925
10
361.05194987234279
20
-56.49430833967395
42
-0.41421356237318868
10
360.55194987234279
20
-56.994308339673964
42
0.41421356237320428
10
360.05194987234279
20
-57.494308339673978
10
360.05194987234285
20
-63.244308339674006
42
0.41421356237301177
10
360.55194987234279
20
-63.744308339673935
42
-0.41421356237318868
10
361.05194987234279
20
-64.244308339673921
0
LWPOLYLINE
5
193
100
AcDbEntity
8
0
100
AcDbPolyline
90
8
70
1
43
0.0
10
95.96759487234246
20
-79.082558339673852
10
95.96759487234246
20
-84.582058339673836
42
0.41421356237309503
10
96.467594872342474
20
-85.082058339673893
10
116.90505487234276
20
-85.082058339673864
42
0.41421356237309503
10
117.40505487234276
20
-84.58205833967385
10
117.40505487234276
20
-79.082558339673866
42
0.41421356237309503
10
116.90505487234276
20
-78.582558339673895
10
96.467594872342474
20
-78.582558339673838
42
0.41421356237309503
0
CIRCLE
5
194
100
AcDbEntity
8
0
100
AcDbCircle
10
15.125606757964473
20
7.0373608354772887
30
-4.4408920985006262e-15
40
1.1000000000000005
210
1.0330972241546464e-32
220
1.387778780781446e-17
230
1
0
CIRCLE
5
195
100
AcDbEntity
8
0
100
AcDbCircle
10
249.25552215796475
20
7.037360835477199
30
0
40
1.1000000000000005
210
1.0330972241546464e-32
220
1.387778780781446e-17
230
1
0
CIRCLE
5
196
100
AcDbEntity
8
0
100
AcDbCircle
10
368.0754488235558
20
-99.254776273983623
30
-4.4408920985006262e-15
40
1.1000000000000005
210
1.0330972241546464e-32
220
1.387778780781446e-17
230
1
0
CIRCLE
5
197
100
AcDbEntity
8
0
100
AcDbCircle
10
82.945383692745168
20
-99.25471276452302
30
-4.4408920985006262e-15
40
1.1000000000000005
210
1.0330972241546464e-32
220
1.387778780781446e-17
230
1
0
CIRCLE
5
198
100
AcDbEntity
8
0
100
AcDbCircle
10
15.125533423555451
20
-99.254776273983509
30
-4.4408920985006262e-15
40
1.1000000000000005
210
1.0330972241546464e-32
220
1.387778780781446e-17
230
1
0
CIRCLE
5
199
100
AcDbEntity
8
0
100
AcDbCircle
10
249.25552215796472
20
-99.254712764523063
30
-4.4408920985006262e-15
40
1.1000000000000005
210
1.0330972241546464e-32
220
1.387778780781446e-17
230
1
0
CIRCLE
5
200
100
AcDbEntity
8
0
100
AcDbCircle
10
368.07552215796477
20
7.0373608354771831
30
0
40
1.1000000000000005
210
1.0330972241546464e-32
220
1.387778780781446e-17
230
1
0
CIRCLE
5
201
100
AcDbEntity
8
0
100
AcDbCircle
10
133.94560675796478
20
7.0373608354772337
30
0
40
1.1000000000000005
210
1.0330972241546464e-32
220
1.387778780781446e-17
230
1
0
LWPOLYLINE
5
202
100
AcDbEntity
8
0
100
AcDbPolyline
90
8
70
1
43
0.0
10
151.57178320565976
20
-85.082308339673716
42
-0.41421356237310542
10
151.07178320565976
20
-84.582308339673716
10
151.07178320565973
20
-79.082308339673702
42
-0.41421356237303258
10
151.57178320565976
20
-78.582308339673787
10
169.12694987232379
20
-78.582308339673673
42
-0.41421356237309503
10
169.62694987232373
20
-79.082308339673716
10
169.6269498723247
20
-84.582308339673745
42
-0.41421356237372975
10
169.12694987232373
20
-85.082308339673801
0
LWPOLYLINE
5
203
100
AcDbEntity
8
0
100
AcDbPolyline
90
8
70
1
43
0.0
10
294.8768552716457
20
-50.732308339673999
10
298.31711653900879
20
-50.732308339673999
42
0.4142135623730846
10
298.81711653900879
20
-50.232308339674063
10
298.81711653900879
20
0.86769166032606915
42
0.41421356237309387
10
298.31711653900879
20
1.3676916603260449
10
294.8768552716457
20
1.3676916603260347
42
0.41421356237309265
10
294.37685527164575
20
0.86769166032606648
10
294.37685527164575
20
-50.232308339674042
42
0.41421356237309503
0
LWPOLYLINE
5
204
100
AcDbEntity
8
0
100
AcDbPolyline
90
72
70
1
43
0.0
10
254.33257602752576
20
5.3723608354772256
10
362.99802215796478
20
5.3723608354771937
42
0.26794919243113013
10
364.73007296553374
20
6.3723608354771741
10
365.49794882355582
20
7.7023608354771147
42
-0.26794919243112891
10
367.22999963112477
20
8.7023608354771866
10
368.92059855436577
20
8.7023608354772737
42
-0.26794919243112597
10
370.65264936193478
20
7.7023608354771822
10
371.42052521995686
20
6.3723608354772576
42
0.26794919243113535
10
373.15257602752581
20
5.372360835477191
10
376.55229909274476
20
5.3723608354771413
42
-0.4142135623730781
10
377.55229909274476
20
4.3723608354771848
10
377.55229909274556
20
-96.589712764522602
42
-0.41421356237307422
10
376.55229909274476
20
-97.589712764523298
10
373.15264936193478
20
-97.589712764522787
42
0.26794919243115878
10
371.42059855436577
20
-98.589712764523014
10
370.65264936193438
20
-99.919839783444928
42
-0.26794919243115878
10
368.92059855436577
20
-100.91983978344493
10
367.22999963112477
20
-100.91983978344544
42
-0.26794919243116699
10
365.49794882355576
20
-99.919839783445184
10
364.72999963112477
20
-98.589712764523014
42
0.26794919243116838
10
362.9979488235557
20
-97.589712764523298
10
254.33257602752573
20
-97.589712764522744
42
0.26794919243115678
10
252.60052521995672
20
-98.589712764522957
10
251.83264936193467
20
-99.919712764523169
42
-0.26794919243105264
10
250.10059855436572
20
-100.91971276452287
10
248.40999963112472
20
-100.91971276452287
42
-0.26794919243104953
10
246.67794882355577
20
-99.919712764523183
10
245.91007296553374
20
-98.589712764522943
42
0.26794919243115201
10
244.17802215796479
20
-97.589712764523256
10
88.022660627525852
20
-97.589712764522687
42
0.26794919243115378
10
86.290609819956956
20
-98.589712764522929
10
85.522733961934776
20
-99.919712764523155
42
-0.26794919243104454
10
83.790683154365851
20
-100.91971276452284
10
82.100084231124356
20
-100.91971276452283
42
-0.26794919243104481
10
80.368033423555431
20
-99.919712764523155
10
79.600157565533337
20
-98.589712764522872
42
0.26794919243113752
10
77.868106757964441
20
-97.589712764523213
10
20.202733961934744
20
-97.589712764522687
42
0.26794919243115117
10
18.470683154365847
20
-98.589712764522915
10
17.702733961934396
20
-99.919839783444857
42
-0.26794919243115523
10
15.970683154365846
20
-100.9198397834448
10
14.28008423112435
20
-100.91983978344513
42
-0.26794919243114984
10
12.548033423555548
20
-99.91983978344507
10
11.780084231124444
20
-98.589712764522872
42
0.26794919243115389
10
10.048033423555447
20
-97.589712764523199
10
7.1273836927451582
20
-97.589712764522488
42
-0.41421356237309764
10
6.1273836927451573
20
-96.589712764522488
10
6.1273836927451919
20
4.3723608354772887
42
-0.41421356237309503
10
7.1273836927452034
20
5.3723608354773011
10
10.048106757964474
20
5.3723608354772923
42
0.26794919243111737
10
11.780157565533276
20
6.3723608354772914
10
12.548033423555495
20
7.702360835477279
42
-0.26794919243112558
10
14.280084231124377
20
8.7023608354772897
10
15.97068315436587
20
8.7023608354773074
42
-0.26794919243112453
10
17.702733961934772
20
7.7023608354772888
10
18.470609819956913
20
6.372360835477263
42
0.26794919243111903
10
20.202660627525777
20
5.3723608354772967
10
128.8681067579648
20
5.3723608354772541
42
0.26794919243112914
10
130.60015756553378
20
6.3723608354772452
10
131.36803342355589
20
7.7023608354771742
42
-0.26794919243113191
10
133.10008423112478
20
8.7023608354772328
10
134.79068315436578
20
8.7023608354773483
42
-0.26794919243113191
10
136.52273396193479
20
7.7023608354772319
10
137.2906098199569
20
6.3723608354773038
42
0.26794919243112797
10
139.02266062752577
20
5.3723608354772612
10
244.17802215796479
20
5.3723608354772212
42
0.26794919243112902
10
245.91007296553374
20
6.3723608354772203
10
246.67794882355588
20
7.7023608354771316
42
-0.26794919243112975
10
248.40999963112478
20
8.702360835477176
10
250.10059855436577
20
8.7023608354773145
42
-0.26794919243113879
10
251.83264936193478
20
7.702360835477168
10
252.60052521995686
20
6.3723608354772656
42
0.26794919243112986
0
ENDSEC
0
SECTION
2
OBJECTS
0
DICTIONARY
5
C
100
AcDbDictionary
3
ACAD_GROUP
350
D
3
ACAD_MLINESTYLE
350
17
0
DICTIONARY
5
D
100
AcDbDictionary
0
DICTIONARY
5
1A
330
C
100
AcDbDictionary
0
DICTIONARY
5
17
100
AcDbDictionary
0
ENDSEC
0
EOF
