0
SECTION
2
HEADER
9
$INSUNITS
70
4
9
$ACADVER
1
AC1014
9
$HANDSEED
5
FFFF
0
ENDSEC
0
SECTION
2
TABLES
0
TABLE
2
VPORT
5
8
100
AcDbSymbolTable
0
ENDTAB
0
TABLE
2
LTYPE
5
5
100
AcDbSymbolTable
0
LTYPE
5
14
100
AcDbSymbolTableRecord
100
AcDbLinetypeTableRecord
2
BYBLOCK
70
0
0
LTYPE
5
15
100
AcDbSymbolTableRecord
100
AcDbLinetypeTableRecord
2
BYLAYER
70
0
0
ENDTAB
0
TABLE
2
LAYER
5
2
100
AcDbSymbolTable
70
2
0
LAYER
5
50
100
AcDbSymbolTableRecord
100
AcDbLayerTableRecord
2
0
70
0
6
CONTINUOUS
0
ENDTAB
0
TABLE
2
STYLE
5
3
100
AcDbSymbolTable
70
1
0
STYLE
5
11
100
AcDbSymbolTableRecord
100
AcDbTextStyleTableRecord
2
STANDARD
70
0
0
ENDTAB
0
TABLE
2
VIEW
5
6
100
AcDbSymbolTable
70
0
0
ENDTAB
0
TABLE
2
UCS
5
7
100
AcDbSymbolTable
70
0
0
ENDTAB
0
TABLE
2
APPID
5
9
100
AcDbSymbolTable
70
2
0
APPID
5
12
100
AcDbSymbolTableRecord
100
AcDbRegAppTableRecord
2
ACAD
70
0
0
ENDTAB
0
TABLE
2
DIMSTYLE
5
A
100
AcDbSymbolTable
70
1
0
ENDTAB
0
TABLE
2
BLOCK_RECORD
5
1
100
AcDbSymbolTable
70
1
0
BLOCK_RECORD
5
1F
100
AcDbSymbolTableRecord
100
AcDbBlockTableRecord
2
*MODEL_SPACE
0
BLOCK_RECORD
5
1B
100
AcDbSymbolTableRecord
100
AcDbBlockTableRecord
2
*PAPER_SPACE
0
ENDTAB
0
ENDSEC
0
SECTION
2
BLOCKS
0
BLOCK
5
20
100
AcDbEntity
100
AcDbBlockBegin
2
*MODEL_SPACE
0
ENDBLK
5
21
100
AcDbEntity
100
AcDbBlockEnd
0
BLOCK
5
1C
100
AcDbEntity
100
AcDbBlockBegin
2
*PAPER_SPACE
0
ENDBLK
5
1D
100
AcDbEntity
100
AcDbBlockEnd
0
ENDSEC
0
SECTION
2
ENTITIES
0
LWPOLYLINE
5
100
100
AcDbEntity
8
0
100
AcDbPolyline
90
24
70
1
43
0.0
10
248.9894498723429
20
-34.957308339673922
42
-0.41421356237310719
10
249.73944987234287
20
-34.207308339673915
10
262.52694987234349
20
-34.207308339673126
42
0.41421356237309853
10
263.27694987234344
20
-33.457308339673084
10
263.2769498723423
20
-15.431682197289057
42
0.41421356237307422
10
262.5269498723423
20
-14.681682197289117
10
34.95194987234256
20
-14.681682197289126
42
0.41421356237309243
10
34.201949872342553
20
-15.431682197289129
10
34.201949872342553
20
-33.932308339673881
42
0.41421356237309337
10
34.951949872342553
20
-34.682308339673881
10
38.214579682026404
20
-34.682308339673881
42
-0.41421356237309337
10
38.964579682026425
20
-35.432308339673867
10
38.964579682026411
20
-52.982308339673871
42
0.41421356237309337
10
39.714579682026411
20
-53.732308339673878
10
48.240579682026407
20
-53.732308339673871
42
-0.41421356237309503
10
48.990579682026414
20
-54.482308339673878
10
48.990579682026521
20
-72.032308339673904
42
0.4142135623730846
10
49.740579682026507
20
-72.782308339673904
10
239.18894987234398
20
-72.782308339673918
42
0.41421356237312978
10
239.93894987234401
20
-72.032308339673904
10
239.93894987234412
20
-53.532308339673868
42
-0.41421356237309853
10
240.6889498723441
20
-52.782308339673889
10
248.23944987234285
20
-52.782308339673904
42
0.41421356237309159
10
248.98944987234287
20
-52.032308339673904
0
LWPOLYLINE
5
101
100
AcDbEntity
8
0
100
AcDbPolyline
90
8
70
1
43
0.0
10
270.56444987234289
20
-18.432308339673916
10
270.56444987234289
20
-30.932308339673927
42
0.41421356237309681
10
271.31444987234289
20
-31.682308339673924
10
283.81444987234289
20
-31.682308339673924
42
0.41421356237309159
10
284.56444987234289
20
-30.932308339673934
10
284.56444987234289
20
-18.432308339673924
42
0.41421356237309681
10
283.81444987234289
20
-17.682308339673916
10
271.31444987234289
20
-17.68230833967392
42
0.41421356237309503
0
LWPOLYLINE
5
102
100
AcDbEntity
8
0
100
AcDbPolyline
90
8
70
1
43
0.0
10
279.57069987234286
20
-51.732308339673935
10
285.07069987234286
20
-51.732308339673935
42
0.41421356237301532
10
285.82069987234286
20
-50.982308339673949
10
285.82069987234286
20
-37.482308339673949
42
0.41421356237309681
10
285.07069987234286
20
-36.732308339673935
10
279.57069987234286
20
-36.732308339673956
42
0.41421356237309853
10
278.82069987234286
20
-37.482308339673949
10
278.82069987234286
20
-50.982308339673935
42
0.41421356237307771
0
LWPOLYLINE
5
103
100
AcDbEntity
8
0
100
AcDbPolyline
90
8
70
1
43
0.0
10
264.17069987234288
20
-50.73230833967397
10
276.67069987234288
20
-50.732308339673949
42
0.41421356237303258
10
277.42069987234288
20
-49.982308339673963
10
277.42069987234288
20
-37.482308339673949
42
0.41421356237308982
10
276.67069987234288
20
-36.732308339673935
10
264.17069987234288
20
-36.732308339673949
42
0.4142135623730846
10
263.42069987234288
20
-37.482308339673935
10
263.42069987234288
20
-49.982308339673942
42
0.41421356237307078
0
LWPOLYLINE
5
104
100
AcDbEntity
8
0
100
AcDbPolyline
90
8
70
1
43
0.0
10
255.77069987234282
20
-51.732308339673949
42
-0.41421356237306034
10
255.02069987234285
20
-50.982308339673935
10
255.02069987234282
20
-37.482308339673942
42
-0.41421356237308982
10
255.77069987234285
20
-36.732308339673942
10
261.2706998723429
20
-36.732308339673963
42
-0.41421356237308982
10
262.0206998723429
20
-37.482308339673949
10
262.0206998723429
20
-50.982308339673949
42
-0.41421356237306733
10
261.2706998723429
20
-51.732308339673949
0
LWPOLYLINE
5
105
100
AcDbEntity
8
0
100
AcDbPolyline
90
8
70
1
43
0.0
10
183.70194987234282
20
-74.582308339673958
10
183.70194987234282
20
-87.332308339673986
42
0.41421356237309503
10
184.20194987234282
20
-87.832308339673929
10
189.9456998723428
20
-87.832308339674
42
0.41421356237310542
10
190.4456998723428
20
-87.332308339673972
10
190.4456998723428
20
-74.332308339673915
42
0.41421356237309503
10
189.9456998723428
20
-73.832308339673943
10
184.45194987234282
20
-73.832308339673943
42
0.41421356237310197
0
LWPOLYLINE
5
106
100
AcDbEntity
8
0
100
AcDbPolyline
90
8
70
1
43
0.0
10
59.383199872342509
20
-88.83230833967383
42
-0.41421356237308815
10
58.633199872342516
20
-88.082308339673858
10
58.633199872342502
20
-75.582308339673844
42
-0.41421356237308815
10
59.383199872342509
20
-74.832308339673858
10
71.883199872342502
20
-74.832308339673858
42
-0.41421356237309853
10
72.633199872342516
20
-75.582308339673858
10
72.63319987234253
20
-88.082308339673858
42
-0.41421356237308815
10
71.883199872342516
20
-88.832308339673858
0
LWPOLYLINE
5
107
100
AcDbEntity
8
0
100
AcDbPolyline
90
8
70
1
43
0.0
10
130.82069987234254
20
-88.83230833967383
10
143.32069987234254
20
-88.83230833967383
42
0.41421356237308815
10
144.07069987234254
20
-88.082308339673858
10
144.07069987234254
20
-75.582308339673858
42
0.41421356237309503
10
143.32069987234254
20
-74.832308339673858
10
130.82069987234254
20
-74.832308339673844
42
0.41421356237309503
10
130.07069987234254
20
-75.582308339673858
10
130.07069987234254
20
-88.082308339673844
42
0.41421356237309503
0
LWPOLYLINE
5
108
100
AcDbEntity
8
0
100
AcDbPolyline
90
20
70
1
43
0.0
10
361.05194987234285
20
-18.39430833967387
42
-0.41421356237311063
10
360.5519498723429
20
-18.89430833967387
42
0.41421356237310675
10
360.05194987234285
20
-19.394308339673888
10
360.0519498723429
20
-25.144308339673923
42
0.41421356237301699
10
360.5519498723429
20
-25.644308339673856
42
-0.41421356237311324
10
361.05194987234285
20
-26.144308339673859
10
361.05194987234285
20
-42.270308339673889
42
-0.41421356237310542
10
360.5519498723429
20
-42.77030833967391
42
0.41421356237312101
10
360.05194987234285
20
-43.270308339673925
10
360.0519498723429
20
-49.02030833967396
42
0.41421356237301699
10
360.5519498723429
20
-49.520308339673875
42
-0.41421356237311585
10
361.05194987234285
20
-50.020308339673882
10
361.05194987234285
20
-50.232308339673907
42
0.41421356237301699
10
361.55194987234279
20
-50.732308339673878
10
374.55194987234285
20
-50.732308339673899
42
0.41421356237318868
10
375.05194987234285
20
-50.232308339673907
10
375.05194987234285
20
-18.182308339673948
42
0.41421356237323809
10
374.55194987234285
20
-17.68230833967387
10
361.55194987234279
20
-17.682308339673941
42
0.41421356237311063
10
361.05194987234285
20
-18.182308339673948
0
LWPOLYLINE
5
109
100
AcDbEntity
8
0
100
AcDbPolyline
90
8
70
1
43
0.0
10
7.7894498723425052
20
-18.182308339673913
10
7.7894498723425052
20
-31.182308339673959
42
0.41421356237304169
10
8.2894498723425052
20
-31.682308339673927
10
9.2894498723425158
20
-31.682308339673856
42
0.41421356237302803
10
9.7894498723424732
20
-31.182308339673966
10
9.7894498723425034
20
-18.182308339673916
42
0.41421356237310281
10
9.2894498723425052
20
-17.682308339673945
10
8.2894498723425052
20
-17.682308339673909
42
0.41421356237309503
0
LWPOLYLINE
5
110
100
AcDbEntity
8
0
100
AcDbPolyline
90
8
70
1
43
0.0
10
289.66444987234286
20
-17.682308339673867
10
288.66444987234286
20
-17.682308339673867
42
0.41421356237307683
10
288.16444987234286
20
-18.182308339673938
10
288.16444987234286
20
-31.182308339673884
42
0.41421356237313406
10
288.66444987234286
20
-31.682308339673956
10
289.66444987234286
20
-31.682308339673884
42
0.41421356237308204
10
290.16444987234286
20
-31.182308339673884
10
290.16444987234286
20
-18.182308339673938
42
0.41421356237313406
0
LWPOLYLINE
5
111
100
AcDbEntity
8
0
100
AcDbPolyline
90
8
70
1
43
0.0
10
232.46444987234281
20
-75.332308339673858
10
232.46444987234281
20
-88.332308339673901
42
0.41421356237306384
10
232.96444987234284
20
-88.832308339673858
10
245.71444987234258
20
-88.83230833967383
42
0.41421356237308815
10
246.46444987234258
20
-88.082308339673858
10
246.46444987234258
20
-75.582308339673858
42
0.41421356237310897
10
245.71444987234256
20
-74.832308339673858
10
232.96444987234281
20
-74.832308339673844
42
0.41421356237310025
0
LWPOLYLINE
5
112
100
AcDbEntity
8
0
100
AcDbPolyline
90
8
70
1
43
0.0
10
280.08944987234287
20
-61.04480833967397
10
280.08944987234287
20
-74.044808339673907
42
0.41421356237307944
10
280.58944987234287
20
-74.544808339673878
10
293.58944987234287
20
-74.544808339673907
42
0.41421356237305862
10
294.08944987234287
20
-74.044808339673892
10
294.08944987234287
20
-61.044808339673949
42
0.41421356237310542
10
293.58944987234287
20
-60.544808339673892
10
280.58944987234287
20
-60.544808339673949
42
0.41421356237308982
0
LWPOLYLINE
5
113
100
AcDbEntity
8
0
100
AcDbPolyline
90
8
70
1
43
0.0
10
303.90194987234287
20
-56.282308339673946
10
303.90194987234287
20
-69.282308339673918
42
0.41421356237312101
10
304.40194987234287
20
-69.782308339673875
10
317.40194987234287
20
-69.782308339673904
42
0.41421356237307944
10
317.90194987234287
20
-69.282308339673918
10
317.90194987234287
20
-56.282308339673946
42
0.41421356237311585
10
317.40194987234287
20
-55.782308339673889
10
304.40194987234287
20
-55.782308339673946
42
0.41421356237303258
0
LWPOLYLINE
5
114
100
AcDbEntity
8
0
100
AcDbPolyline
90
8
70
1
43
0.0
10
322.95194987234282
20
-37.232308339673942
10
322.95194987234282
20
-50.232308339673899
42
0.41421356237301177
10
323.45194987234277
20
-50.732308339673963
10
336.45194987234282
20
-50.732308339673892
42
0.41421356237318346
10
336.95194987234282
20
-50.232308339673907
10
336.95194987234282
20
-37.232308339673949
42
0.41421356237323809
10
336.45194987234282
20
-36.732308339673871
10
323.45194987234277
20
-36.732308339673942
42
0.41421356237311063
0
LWPOLYLINE
5
115
100
AcDbEntity
8
0
100
AcDbPolyline
90
8
70
1
43
0.0
10
342.00194987234283
20
-18.182308339673948
10
342.00194987234283
20
-31.182308339673899
42
0.41421356237301699
10
342.50194987234283
20
-31.68230833967386
10
355.50194987234283
20
-31.682308339673888
42
0.4142135623731939
10
356.00194987234283
20
-31.182308339673888
10
356.00194987234283
20
-18.182308339673948
42
0.41421356237323809
10
355.50194987234283
20
-17.68230833967387
10
342.50194987234283
20
-17.682308339673941
42
0.41421356237311191
0
LWPOLYLINE
5
116
100
AcDbEntity
8
0
100
AcDbPolyline
90
8
70
1
43
0.0
10
303.90194987234287
20
0.86769166032611089
10
303.90194987234287
20
-12.132308339673884
42
0.41421356237312362
10
304.40194987234287
20
-12.632308339673852
10
317.40194987234287
20
-12.632308339673884
42
0.41421356237307422
10
317.90194987234287
20
-12.132308339673886
10
317.90194987234287
20
0.86769166032610934
42
0.41421356237313323
10
317.40194987234287
20
1.3676916603261109
10
304.40194987234287
20
1.3676916603261109
42
0.41421356237302509
0
LWPOLYLINE
5
117
100
AcDbEntity
8
0
100
AcDbPolyline
90
8
70
1
43
0.0
10
212.62694987234281
20
1.3676916603261193
10
199.62694987234278
20
1.3676916603261104
42
0.4142135623730453
10
199.12694987234278
20
0.86769166032610645
10
199.12694987234278
20
-12.132308339673873
42
0.41421356237312362
10
199.62694987234278
20
-12.632308339673845
10
212.62694987234281
20
-12.632308339673875
42
0.41421356237307549
10
213.12694987234281
20
-12.132308339673873
10
213.12694987234281
20
0.86769166032610767
42
0.41421356237313323
0
LWPOLYLINE
5
118
100
AcDbEntity
8
0
100
AcDbPolyline
90
8
70
1
43
0.0
10
122.92694987234283
20
0.86769166032610423
10
122.92694987234283
20
-12.132308339673868
42
0.41421356237309503
10
123.42694987234282
20
-12.632308339673937
10
136.42694987234282
20
-12.632308339673868
42
0.41421356237309503
10
136.92694987234282
20
-12.132308339673868
10
136.92694987234285
20
0.86769166032610467
42
0.41421356237309453
10
136.42694987234282
20
1.3676916603261065
10
123.42694987234282
20
1.3676916603260962
42
0.41421356237310381
0
LWPOLYLINE
5
119
100
AcDbEntity
8
0
100
AcDbPolyline
90
8
70
1
43
0.0
10
46.726949872342487
20
0.86769166032610201
10
46.726949872342487
20
-12.132308339673861
42
0.41421356237310281
10
47.226949872342495
20
-12.63230833967393
10
60.226949872342495
20
-12.632308339673861
42
0.41421356237309631
10
60.726949872342502
20
-12.132308339673861
10
60.726949872342495
20
0.86769166032610134
42
0.41421356237310231
10
60.226949872342487
20
1.3676916603261025
10
47.226949872342487
20
1.3676916603261029
42
0.41421356237309698
0
LWPOLYLINE
5
120
100
AcDbEntity
8
0
100
AcDbPolyline
90
8
70
1
43
0.0
10
65.776949872342499
20
0.86769166032609979
10
65.776949872342499
20
-12.132308339673862
42
0.41421356237309764
10
66.276949872342499
20
-12.63230833967393
10
79.276949872342499
20
-12.632308339673862
42
0.4142135623730937
10
79.776949872342499
20
-12.132308339673862
10
79.776949872342499
20
0.86769166032609968
42
0.4142135623730982
10
79.276949872342499
20
1.3676916603261118
10
66.276949872342499
20
1.3676916603261013
42
0.41421356237309731
0
LWPOLYLINE
5
121
100
AcDbEntity
8
0
100
AcDbPolyline
90
8
70
1
43
0.0
10
141.9769498723428
20
0.86769166032610201
10
141.9769498723428
20
-12.13230833967387
42
0.41421356237307549
10
142.4769498723428
20
-12.632308339673939
10
155.4769498723428
20
-12.63230833967387
42
0.41421356237309243
10
155.9769498723428
20
-12.13230833967387
10
155.9769498723428
20
0.86769166032611189
42
0.41421356237309254
10
155.4769498723428
20
1.3676916603261049
10
142.4769498723428
20
1.3676916603261047
42
0.41421356237307522
0
LWPOLYLINE
5
122
100
AcDbEntity
8
0
100
AcDbPolyline
90
8
70
1
43
0.0
10
218.17694987234279
20
0.86769166032610423
10
218.17694987234279
20
-12.132308339673877
42
0.41421356237312235
10
218.67694987234279
20
-12.632308339673944
10
231.67694987234282
20
-12.632308339673877
42
0.41421356237307549
10
232.17694987234282
20
-12.132308339673878
10
232.17694987234282
20
0.86769166032611711
42
0.4142135623731304
10
231.67694987234282
20
1.3676916603261178
10
218.67694987234279
20
1.3676916603261073
42
0.41421356237302709
0
LWPOLYLINE
5
123
100
AcDbEntity
8
0
100
AcDbPolyline
90
8
70
1
43
0.0
10
322.95194987234282
20
0.86769166032610867
10
322.95194987234282
20
-12.132308339673886
42
0.41421356237302087
10
323.45194987234277
20
-12.632308339673855
10
336.45194987234282
20
-12.632308339673886
42
0.41421356237319129
10
336.95194987234282
20
-12.132308339673887
10
336.95194987234282
20
0.86769166032611655
42
0.41421356237301743
10
336.45194987234282
20
1.3676916603260789
10
323.45194987234277
20
1.3676916603261091
42
0.41421356237310991
0
LWPOLYLINE
5
124
100
AcDbEntity
8
0
100
AcDbPolyline
90
8
70
1
43
0.0
10
322.95194987234282
20
-18.182308339673934
10
322.95194987234282
20
-31.182308339673895
42
0.41421356237301699
10
323.45194987234277
20
-31.68230833967386
10
336.45194987234282
20
-31.682308339673888
42
0.4142135623731939
10
336.95194987234282
20
-31.182308339673888
10
336.95194987234282
20
-18.182308339673948
42
0.41421356237323809
10
336.45194987234282
20
-17.682308339673867
10
323.45194987234277
20
-17.682308339673938
42
0.41421356237310802
0
LWPOLYLINE
5
125
100
AcDbEntity
8
0
100
AcDbPolyline
90
8
70
1
43
0.0
10
342.00194987234283
20
-37.232308339673942
10
342.00194987234283
20
-50.232308339673899
42
0.41421356237301177
10
342.50194987234283
20
-50.732308339673871
10
355.50194987234283
20
-50.732308339673892
42
0.41421356237318346
10
356.00194987234283
20
-50.232308339673907
10
356.00194987234283
20
-37.232308339673949
42
0.41421356237323809
10
355.50194987234283
20
-36.732308339673871
10
342.50194987234283
20
-36.732308339673942
42
0.41421356237311063
0
LWPOLYLINE
5
126
100
AcDbEntity
8
0
100
AcDbPolyline
90
8
70
1
43
0.0
10
299.13944987234282
20
-80.094808339673861
10
299.13944987234282
20
-93.094808339674287
42
0.41421356237307422
10
299.63944987234282
20
-93.594808339674159
10
312.63944987234282
20
-93.594808339674302
42
0.4142135623730534
10
313.13944987234282
20
-93.094808339674302
10
313.13944987234282
20
-80.094808339673875
42
0.41421356237310542
10
312.63944987234282
20
-79.594808339673889
10
299.63944987234282
20
-79.594808339673833
42
0.41421356237311585
0
LWPOLYLINE
5
127
100
AcDbEntity
8
0
100
AcDbPolyline
90
8
70
1
43
0.0
10
249.1331998723428
20
-56.282308339673946
10
249.1331998723428
20
-69.282308339673918
42
0.41421356237313145
10
249.63319987234283
20
-69.782308339673875
10
262.63319987234286
20
-69.782308339673904
42
0.41421356237307944
10
263.13319987234286
20
-69.282308339673918
10
263.13319987234286
20
-56.282308339673946
42
0.41421356237311585
10
262.63319987234286
20
-55.782308339673882
10
249.63319987234283
20
-55.782308339673932
42
0.4142135623730846
0
LWPOLYLINE
5
128
100
AcDbEntity
8
0
100
AcDbPolyline
90
8
70
1
43
0.0
10
250.06444987234283
20
-75.332308339673858
10
250.06444987234283
20
-88.332308339673901
42
0.41421356237307422
10
250.56444987234283
20
-88.832308339673858
10
251.56444987234283
20
-88.832308339673887
42
0.41421356237307422
10
252.06444987234283
20
-88.332308339673901
10
252.06444987234283
20
-75.332308339673858
42
0.41421356237311585
10
251.56444987234283
20
-74.832308339673887
10
250.56444987234283
20
-74.832308339673844
42
0.41421356237311063
0
LWPOLYLINE
5
129
100
AcDbEntity
8
0
100
AcDbPolyline
90
8
70
1
43
0.0
10
264.96444987234287
20
-18.182308339673941
10
264.96444987234287
20
-31.182308339673888
42
0.41421356237312101
10
265.46444987234287
20
-31.682308339673952
10
266.46444987234287
20
-31.682308339673881
42
0.41421356237307422
10
266.96444987234287
20
-31.182308339673888
10
266.96444987234287
20
-18.182308339673941
42
0.41421356237313406
10
266.46444987234287
20
-17.682308339673863
10
265.46444987234287
20
-17.682308339673934
42
0.41421356237302737
0
LWPOLYLINE
5
130
100
AcDbEntity
8
0
100
AcDbPolyline
90
8
70
1
43
0.0
10
31.489449872342483
20
-31.68230833967386
42
-0.41421356237309503
10
30.989449872342483
20
-31.182308339673874
10
30.98944987234249
20
-18.182308339673924
42
-0.41421356237310542
10
31.489449872342487
20
-17.682308339673916
10
32.48944987234249
20
-17.682308339673916
42
-0.41421356237310025
10
32.98944987234249
20
-18.182308339673924
10
32.989449872342483
20
-31.182308339673863
42
-0.41421356237309503
10
32.489449872342483
20
-31.68230833967386
0
LWPOLYLINE
5
131
100
AcDbEntity
8
0
100
AcDbPolyline
90
8
70
1
43
0.0
10
10.170699872342475
20
-37.232308339673914
10
10.170699872342475
20
-50.23230833967397
42
0.41421356237310281
10
10.670699872342478
20
-50.732308339673935
10
29.27069987234248
20
-50.732308339673963
42
0.41421356237308204
10
29.770699872342483
20
-50.232308339673978
10
29.77069987234248
20
-37.232308339673921
42
0.41421356237310281
10
29.27069987234248
20
-36.732308339673942
10
10.670699872342473
20
-36.732308339673907
42
0.41421356237309892
0
LWPOLYLINE
5
132
100
AcDbEntity
8
0
100
AcDbPolyline
90
8
70
1
43
0.0
10
11.008199872342477
20
-75.332308339673943
10
11.008199872342477
20
-88.332308339673887
42
0.41421356237306123
10
11.508199872342475
20
-88.83230833967383
10
24.258199872342502
20
-88.83230833967383
42
0.41421356237308815
10
25.008199872342495
20
-88.082308339673858
10
25.008199872342498
20
-75.582308339673858
42
0.41421356237309503
10
24.258199872342495
20
-74.832308339673844
10
11.508199872342484
20
-74.832308339673929
42
0.41421356237311713
0
LWPOLYLINE
5
133
100
AcDbEntity
8
0
100
AcDbPolyline
90
8
70
1
43
0.0
10
13.389449872342476
20
-18.182308339673913
10
13.389449872342476
20
-31.182308339673959
42
0.41421356237304169
10
13.889449872342476
20
-31.682308339673931
10
26.889449872342478
20
-31.68230833967386
42
0.41421356237309503
10
27.389449872342485
20
-31.182308339673863
10
27.389449872342482
20
-18.182308339673924
42
0.41421356237310542
10
26.889449872342475
20
-17.682308339673945
10
13.889449872342475
20
-17.682308339673909
42
0.41421356237309631
0
LWPOLYLINE
5
134
100
AcDbEntity
8
0
100
AcDbPolyline
90
8
70
1
43
0.0
10
243.53319987234283
20
-56.282308339673946
10
243.53319987234283
20
-69.282308339673918
42
0.41421356237312101
10
244.03319987234283
20
-69.782308339673861
10
245.03319987234283
20
-69.782308339673904
42
0.4142135623730534
10
245.53319987234283
20
-69.282308339673904
10
245.53319987234286
20
-56.282308339673939
42
0.41421356237310025
10
245.03319987234283
20
-55.782308339673882
10
244.03319987234283
20
-55.782308339673932
42
0.41421356237303258
0
LWPOLYLINE
5
135
100
AcDbEntity
8
0
100
AcDbPolyline
90
8
70
1
43
0.0
10
261.03944987234286
20
-80.094808339673861
10
261.03944987234286
20
-93.094808339674287
42
0.41421356237307422
10
261.53944987234286
20
-93.594808339674131
10
274.53944987234286
20
-93.594808339674273
42
0.41421356237304302
10
275.03944987234286
20
-93.094808339674287
10
275.03944987234286
20
-80.094808339673861
42
0.41421356237310542
10
274.53944987234286
20
-79.594808339673889
10
261.53944987234286
20
-79.594808339673833
42
0.41421356237311585
0
LWPOLYLINE
5
136
100
AcDbEntity
8
0
100
AcDbPolyline
90
8
70
1
43
0.0
10
342.00194987234283
20
-75.332308339673872
10
342.00194987234283
20
-88.332308339673915
42
0.41421356237300139
10
342.50194987234283
20
-88.832308339673872
10
355.50194987234283
20
-88.832308339673901
42
0.41421356237313667
10
356.00194987234283
20
-88.332308339673915
10
356.00194987234283
20
-75.332308339673872
42
0.4142135623731939
10
355.50194987234283
20
-74.832308339673901
10
342.50194987234283
20
-74.832308339673844
42
0.41421356237302737
0
LWPOLYLINE
5
137
100
AcDbEntity
8
0
100
AcDbPolyline
90
8
70
1
43
0.0
10
322.95194987234282
20
-56.282308339673946
10
322.95194987234282
20
-69.282308339673918
42
0.41421356237301699
10
323.45194987234277
20
-69.782308339673875
10
336.45194987234282
20
-69.782308339673904
42
0.41421356237318868
10
336.95194987234282
20
-69.282308339673918
10
336.95194987234282
20
-56.282308339673946
42
0.4142135623732407
10
336.45194987234282
20
-55.782308339673989
10
323.45194987234277
20
-55.782308339673946
42
0.41421356237311585
0
LWPOLYLINE
5
138
100
AcDbEntity
8
0
100
AcDbPolyline
90
8
70
1
43
0.0
10
304.40194987234287
20
-50.732308339673878
42
-0.41421356237312101
10
303.90194987234287
20
-50.232308339673899
10
303.90194987234287
20
-37.232308339673942
42
-0.41421356237302481
10
304.40194987234287
20
-36.732308339673942
10
317.40194987234287
20
-36.732308339673935
42
-0.41421356237313928
10
317.90194987234287
20
-37.232308339673949
10
317.90194987234287
20
-50.232308339673907
42
-0.41421356237307422
10
317.40194987234287
20
-50.732308339673892
0
LWPOLYLINE
5
139
100
AcDbEntity
8
0
100
AcDbPolyline
90
8
70
1
43
0.0
10
361.55194987234279
20
-12.632308339673875
42
-0.41421356237302087
10
361.05194987234285
20
-12.132308339673887
10
361.05194987234285
20
0.86769166032611522
42
-0.41421356237310725
10
361.55194987234279
20
1.3676916603261058
10
374.55194987234285
20
1.3676916603260976
42
-0.41421356237301948
10
375.05194987234285
20
0.86769166032611311
10
375.05194987234285
20
-12.132308339673889
42
-0.41421356237319257
10
374.55194987234285
20
-12.632308339673891
0
LWPOLYLINE
5
140
100
AcDbEntity
8
0
100
AcDbPolyline
90
8
70
1
43
0.0
10
180.07694987234282
20
0.86769166032610867
10
180.07694987234282
20
-12.132308339673871
42
0.41421356237313273
10
180.57694987234282
20
-12.632308339673941
10
193.57694987234282
20
-12.632308339673875
42
0.41421356237302481
10
194.07694987234282
20
-12.132308339673871
10
194.07694987234282
20
0.86769166032610912
42
0.41421356237312068
10
193.57694987234282
20
1.3676916603261111
10
180.57694987234282
20
1.367691660326102
42
0.41421356237307616
0
LWPOLYLINE
5
141
100
AcDbEntity
8
0
100
AcDbPolyline
90
8
70
1
43
0.0
10
103.87694987234281
20
0.86769166032610645
10
103.87694987234281
20
-12.132308339673866
42
0.41421356237307549
10
104.37694987234279
20
-12.632308339673937
10
117.37694987234279
20
-12.632308339673868
42
0.41421356237307549
10
117.87694987234278
20
-12.132308339673866
10
117.87694987234281
20
0.86769166032610634
42
0.41421356237307144
10
117.37694987234279
20
1.367691660326108
10
104.37694987234279
20
1.367691660326098
42
0.41421356237307227
0
LWPOLYLINE
5
142
100
AcDbEntity
8
0
100
AcDbPolyline
90
8
70
1
43
0.0
10
27.676949872342483
20
0.86769166032610423
10
27.676949872342483
20
-12.132308339673859
42
0.41421356237309631
10
28.176949872342483
20
-12.63230833967393
10
41.176949872342483
20
-12.632308339673861
42
0.41421356237309631
10
41.676949872342483
20
-12.132308339673861
10
41.676949872342483
20
0.86769166032610301
42
0.41421356237309709
10
41.176949872342483
20
1.3676916603260931
10
28.17694987234248
20
1.3676916603260931
42
0.41421356237308449
0
LWPOLYLINE
5
143
100
AcDbEntity
8
0
100
AcDbPolyline
90
8
70
1
43
0.0
10
8.6269498723425055
20
0.86769166032610556
42
-0.41421356237308832
10
9.1269498723425038
20
1.3676916603260947
10
22.126949872342475
20
1.3676916603260936
42
-0.41421356237308476
10
22.626949872342475
20
0.86769166032610423
10
22.626949872342479
20
-12.132308339673859
42
-0.41421356237309243
10
22.126949872342479
20
-12.632308339673859
10
9.1269498723425109
20
-12.632308339673857
42
-0.41421356237309825
10
8.6269498723425055
20
-12.132308339673855
0
LWPOLYLINE
5
144
100
AcDbEntity
8
0
100
AcDbPolyline
90
8
70
1
43
0.0
10
84.826949872342482
20
0.86769166032610867
10
84.826949872342482
20
-12.132308339673862
42
0.41421356237307422
10
85.326949872342496
20
-12.632308339673934
10
98.326949872342496
20
-12.632308339673866
42
0.41421356237307294
10
98.826949872342482
20
-12.132308339673862
10
98.82694987234251
20
0.86769166032610801
42
0.41421356237307144
10
98.326949872342496
20
1.3676916603261102
10
85.326949872342496
20
1.3676916603260998
42
0.41421356237307194
0
LWPOLYLINE
5
145
100
AcDbEntity
8
0
100
AcDbPolyline
90
8
70
1
43
0.0
10
161.02694987234281
20
0.86769166032611089
10
161.02694987234281
20
-12.13230833967387
42
0.41421356237313406
10
161.52694987234281
20
-12.632308339673941
10
174.52694987234281
20
-12.632308339673873
42
0.41421356237302609
10
175.02694987234278
20
-12.13230833967387
10
175.02694987234281
20
0.86769166032611078
42
0.41421356237312068
10
174.52694987234281
20
1.3676916603261127
10
161.52694987234281
20
1.3676916603261036
42
0.41421356237307583
0
LWPOLYLINE
5
146
100
AcDbEntity
8
0
100
AcDbPolyline
90
8
70
1
43
0.0
10
237.2269498723428
20
0.86769166032611755
10
237.2269498723428
20
-12.132308339673877
42
0.41421356237315354
10
237.7269498723428
20
-12.632308339673944
10
250.72694987234283
20
-12.632308339673878
42
0.41421356237307549
10
251.22694987234283
20
-12.132308339673878
10
251.22694987234283
20
0.86769166032611544
42
0.41421356237315121
10
250.7269498723428
20
1.367691660326106
10
237.72694987234277
20
1.3676916603261058
42
0.41421356237307411
0
LWPOLYLINE
5
147
100
AcDbEntity
8
0
100
AcDbPolyline
90
8
70
1
43
0.0
10
342.00194987234283
20
0.86769166032611755
10
342.00194987234283
20
-12.132308339673886
42
0.41421356237302087
10
342.50194987234283
20
-12.632308339673857
10
355.50194987234283
20
-12.632308339673887
42
0.4142135623731939
10
356.00194987234283
20
-12.132308339673887
10
356.00194987234283
20
0.86769166032611489
42
0.41421356237301743
10
355.50194987234283
20
1.3676916603261158
10
342.50194987234283
20
1.3676916603261073
42
0.41421356237310691
0
LWPOLYLINE
5
148
100
AcDbEntity
8
0
100
AcDbPolyline
90
8
70
1
43
0.0
10
303.90194987234287
20
-18.182308339673934
10
303.90194987234287
20
-31.182308339673895
42
0.41421356237312101
10
304.40194987234287
20
-31.682308339673956
10
317.40194987234287
20
-31.682308339673884
42
0.414213562373069
10
317.90194987234287
20
-31.182308339673899
10
317.90194987234287
20
-18.182308339673938
42
0.41421356237313406
10
317.40194987234287
20
-17.682308339673867
10
304.40194987234287
20
-17.682308339673938
42
0.4142135623730443
0
LWPOLYLINE
5
149
100
AcDbEntity
8
0
100
AcDbPolyline
90
8
70
1
43
0.0
10
342.00194987234283
20
-56.282308339673946
10
342.00194987234283
20
-69.282308339673918
42
0.41421356237301699
10
342.50194987234283
20
-69.782308339673875
10
355.50194987234283
20
-69.782308339673904
42
0.4142135623731939
10
356.00194987234283
20
-69.282308339673918
10
356.00194987234283
20
-56.282308339673854
42
0.41421356237304302
10
355.50194987234283
20
-55.782308339673889
10
342.50194987234283
20
-55.782308339673946
42
0.41421356237311585
0
LWPOLYLINE
5
150
100
AcDbEntity
8
0
100
AcDbPolyline
90
8
70
1
43
0.0
10
336.45194987234282
20
-74.832308339673901
10
323.45194987234277
20
-74.832308339673901
42
0.41421356237302737
10
322.95194987234282
20
-75.332308339673872
10
322.95194987234282
20
-88.332308339673915
42
0.41421356237300139
10
323.45194987234277
20
-88.832308339673872
10
336.45194987234282
20
-88.832308339673901
42
0.41421356237313667
10
336.95194987234282
20
-88.332308339673915
10
336.95194987234282
20
-75.332308339673872
42
0.4142135623731939
0
LWPOLYLINE
5
151
100
AcDbEntity
8
0
100
AcDbPolyline
90
8
70
1
43
0.0
10
280.08944987234287
20
-80.094808339673861
10
280.08944987234287
20
-93.094808339674287
42
0.41421356237307422
10
280.58944987234287
20
-93.594808339674131
10
293.58944987234287
20
-93.594808339674273
42
0.41421356237304302
10
294.08944987234287
20
-93.094808339674287
10
294.08944987234287
20
-80.094808339673861
42
0.41421356237310542
10
293.58944987234287
20
-79.594808339673889
10
280.58944987234287
20
-79.594808339673833
42
0.41421356237311585
0
LWPOLYLINE
5
152
100
AcDbEntity
8
0
100
AcDbPolyline
90
8
70
1
43
0.0
10
266.73319987234282
20
-56.282308339673946
10
266.73319987234282
20
-69.282308339673918
42
0.41421356237312101
10
267.23319987234282
20
-69.782308339673875
10
268.23319987234282
20
-69.782308339673904
42
0.41421356237307944
10
268.73319987234282
20
-69.282308339673918
10
268.73319987234282
20
-56.282308339673946
42
0.41421356237311585
10
268.23319987234282
20
-55.782308339673889
10
267.23319987234282
20
-55.782308339673946
42
0.41421356237303258
0
LWPOLYLINE
5
153
100
AcDbEntity
8
0
100
AcDbPolyline
90
8
70
1
43
0.0
10
34.870699872342485
20
-36.732308339673942
10
33.870699872342485
20
-36.732308339673942
42
0.41421356237309503
10
33.370699872342485
20
-37.232308339673914
10
33.370699872342485
20
-50.23230833967397
42
0.41421356237309243
10
33.870699872342492
20
-50.732308339673935
10
34.870699872342485
20
-50.732308339673963
42
0.41421356237308204
10
35.370699872342485
20
-50.232308339673978
10
35.370699872342485
20
-37.232308339673921
42
0.41421356237310281
0
LWPOLYLINE
5
154
100
AcDbEntity
8
0
100
AcDbPolyline
90
8
70
1
43
0.0
10
227.61444987234253
20
-88.83230833967383
42
-0.41421356237309503
10
226.86444987234253
20
-88.082308339673844
10
226.86444987234253
20
-75.582308339673844
42
-0.41421356237308815
10
227.61444987234253
20
-74.832308339673858
10
228.36444987234279
20
-74.832308339673844
42
-0.41421356237310542
10
228.86444987234282
20
-75.332308339673858
10
228.86444987234282
20
-88.332308339673901
42
-0.41421356237304302
10
228.36444987234279
20
-88.832308339673887
0
LWPOLYLINE
5
155
100
AcDbEntity
8
0
100
AcDbPolyline
90
20
70
1
43
0.0
10
256.98894987234286
20
-12.632308339673903
42
-0.41421356237313534
10
257.48894987234286
20
-13.132308339673909
42
0.41421356237312101
10
257.98894987234286
20
-13.632308339673871
10
263.73894987234286
20
-13.632308339673898
42
0.4142135623730443
10
264.2389498723428
20
-13.132308339673909
42
-0.41421356237313534
10
264.73894987234286
20
-12.632308339673848
10
280.86494987234283
20
-12.632308339673923
42
-0.41421356237312495
10
281.36494987234283
20
-13.13230833967391
42
0.41421356237312101
10
281.86494987234283
20
-13.632308339673873
10
287.61494987234283
20
-13.6323083396739
42
0.41421356237307683
10
288.11494987234278
20
-13.13230833967391
42
-0.41421356237313534
10
288.61494987234283
20
-12.63230833967385
10
288.82694987234282
20
-12.63230833967388
42
0.41421356237302348
10
289.32694987234282
20
-12.132308339673884
10
289.32694987234282
20
0.86769166032611156
42
0.41421356237310197
10
288.82694987234282
20
1.3676916603261215
10
256.77694987234287
20
1.3676916603261042
42
0.41421356237307444
10
256.27694987234287
20
0.86769166032611533
10
256.27694987234287
20
-12.132308339673878
42
0.41421356237313406
10
256.77694987234287
20
-12.632308339673848
0
LWPOLYLINE
5
156
100
AcDbEntity
8
0
100
AcDbPolyline
90
20
70
1
43
0.0
10
361.05194987234285
20
-80.370308339673912
42
-0.4142135623730534
10
360.5519498723429
20
-80.870308339673912
42
0.41421356237309503
10
360.05194987234285
20
-81.370308339673926
10
360.0519498723429
20
-87.120308339673969
42
0.41421356237300139
10
360.5519498723429
20
-87.620308339673841
42
-0.41421356237306384
10
361.05194987234285
20
-88.120308339673898
10
361.05194987234285
20
-88.332308339673915
42
0.41421356237300139
10
361.55194987234279
20
-88.832308339673872
10
374.55194987234285
20
-88.832308339673901
42
0.41421356237313667
10
375.05194987234285
20
-88.332308339673915
10
375.05194987234285
20
-56.282308339673961
42
0.41421356237324591
10
374.55194987234285
20
-55.782308339673897
10
361.55194987234279
20
-55.782308339673953
42
0.41421356237299095
10
361.05194987234285
20
-56.282308339673861
10
361.05194987234285
20
-56.494308339673893
42
-0.41421356237311585
10
360.5519498723429
20
-56.994308339673907
42
0.41421356237311585
10
360.05194987234285
20
-57.494308339673914
10
360.0519498723429
20
-63.244308339673935
42
0.41421356237301177
10
360.5519498723429
20
-63.744308339673879
42
-0.41421356237310542
10
361.05194987234285
20
-64.244308339673864
0
LWPOLYLINE
5
157
100
AcDbEntity
8
0
100
AcDbPolyline
90
8
70
1
43
0.0
10
95.967594872342517
20
-79.082558339673866
10
95.967594872342517
20
-84.58205833967385
42
0.41421356237309503
10
96.467594872342517
20
-85.082058339673921
10
116.90505487234282
20
-85.082058339673878
42
0.41421356237310542
10
117.40505487234282
20
-84.58205833967385
10
117.40505487234282
20
-79.082558339673852
42
0.41421356237309503
10
116.90505487234282
20
-78.582558339673881
10
96.467594872342517
20
-78.582558339673824
42
0.41421356237311063
0
CIRCLE
5
158
100
AcDbEntity
8
0
100
AcDbCircle
10
15.125606757964476
20
7.0373608354772994
30
-4.4408920985006262e-15
40
1.1000000000000008
210
-3.0814879110195774e-33
220
-7.7635280922780884e-50
230
1
0
CIRCLE
5
159
100
AcDbEntity
8
0
100
AcDbCircle
10
249.25552215796483
20
7.0373608354772603
30
-4.4408920985006262e-15
40
1.1000000000000008
210
-3.0814879110195774e-33
220
-7.7635280922780884e-50
230
1
0
CIRCLE
5
160
100
AcDbEntity
8
0
100
AcDbCircle
10
368.07544882355586
20
-99.254776273983566
30
-4.4408920985006262e-15
40
1.1000000000000008
210
-3.0814879110195774e-33
220
-7.7635280922780884e-50
230
1
0
CIRCLE
5
161
100
AcDbEntity
8
0
100
AcDbCircle
10
82.94538369274521
20
-99.254712764523049
30
-4.4408920985006262e-15
40
1.1000000000000008
210
-3.0814879110195774e-33
220
-7.7635280922780884e-50
230
1
0
CIRCLE
5
162
100
AcDbEntity
8
0
100
AcDbCircle
10
15.125533423555479
20
-99.254776273983524
30
-4.4408920985006262e-15
40
1.1000000000000008
210
-3.0814879110195774e-33
220
-7.7635280922780884e-50
230
1
0
CIRCLE
5
163
100
AcDbEntity
8
0
100
AcDbCircle
10
249.25552215796483
20
-99.254712764523063
30
-4.4408920985006262e-15
40
1.1000000000000008
210
-3.0814879110195774e-33
220
-7.7635280922780884e-50
230
1
0
CIRCLE
5
164
100
AcDbEntity
8
0
100
AcDbCircle
10
368.07552215796483
20
7.0373608354772692
30
-4.4408920985006262e-15
40
1.1000000000000008
210
-3.0814879110195774e-33
220
-7.7635280922780884e-50
230
1
0
CIRCLE
5
165
100
AcDbEntity
8
0
100
AcDbCircle
10
133.94560675796481
20
7.0373608354772692
30
-4.4408920985006262e-15
40
1.1000000000000008
210
-3.0814879110195774e-33
220
-7.7635280922780884e-50
230
1
0
LWPOLYLINE
5
166
100
AcDbEntity
8
0
100
AcDbPolyline
90
8
70
1
43
0.0
10
89.945699872342516
20
-73.832308339673844
10
84.320699872342516
20
-73.832308339673844
42
0.41421356237309503
10
83.57069987234253
20
-74.582308339673844
10
83.57069987234253
20
-87.08230833967383
42
0.41421356237310897
10
84.320699872342516
20
-87.83230833967383
10
89.945699872342601
20
-87.832308339673887
42
0.41421356237304302
10
90.445699872342615
20
-87.332308339673972
10
90.44569987234253
20
-74.332308339673901
42
0.41421356237309503
0
LWPOLYLINE
5
167
100
AcDbEntity
8
0
100
AcDbPolyline
90
8
70
1
43
0.0
10
151.57178320565981
20
-85.08230833967373
42
-0.41421356237312623
10
151.07178320565981
20
-84.582308339673745
10
151.07178320565981
20
-79.082308339673716
42
-0.41421356237304302
10
151.57178320565981
20
-78.582308339673787
10
169.12694987232385
20
-78.582308339673673
42
-0.41421356237309503
10
169.62694987232382
20
-79.082308339673716
10
169.62694987232479
20
-84.582308339673745
42
-0.41421356237372975
10
169.12694987232382
20
-85.082308339673801
0
LWPOLYLINE
5
168
100
AcDbEntity
8
0
100
AcDbPolyline
90
72
70
1
43
0.0
10
6.1273836927452034
20
4.3723608354772967
42
-0.4142135623730937
10
7.1273836927452034
20
5.3723608354772967
10
10.048106757964474
20
5.3723608354773003
42
0.26794919243111709
10
11.780157565533273
20
6.3723608354772985
10
12.548033423555493
20
7.7023608354772897
42
-0.26794919243112525
10
14.280084231124377
20
8.7023608354773003
10
15.970683154365874
20
8.7023608354773216
42
-0.26794919243112331
10
17.702733961934776
20
7.7023608354772986
10
18.470609819956913
20
6.3723608354772736
42
0.26794919243112103
10
20.202660627525795
20
5.3723608354773074
10
128.86810675796482
20
5.3723608354772896
42
0.26794919243112886
10
130.60015756553381
20
6.3723608354772789
10
131.36803342355591
20
7.7023608354772151
42
-0.26794919243113141
10
133.10008423112481
20
8.7023608354772684
10
134.79068315436581
20
8.702360835477382
42
-0.26794919243113141
10
136.52273396193482
20
7.7023608354772684
10
137.29060981995693
20
6.372360835477342
42
0.2679491924311303
10
139.02266062752582
20
5.3723608354772985
10
244.17802215796485
20
5.3723608354772807
42
0.26794919243112869
10
245.91007296553383
20
6.3723608354772789
10
246.67794882355594
20
7.7023608354771937
42
-0.26794919243112902
10
248.40999963112483
20
8.7023608354772364
10
250.10059855436583
20
8.7023608354773767
42
-0.26794919243113879
10
251.83264936193484
20
7.7023608354772302
10
252.60052521995692
20
6.3723608354773278
42
0.26794919243112986
10
254.33257602752582
20
5.3723608354772878
10
362.99802215796484
20
5.3723608354772701
42
0.26794919243113008
10
364.73007296553385
20
6.3723608354772585
10
365.49794882355582
20
7.7023608354771609
42
-0.26794919243111798
10
367.22999963112488
20
8.7023608354772737
10
368.92059855436582
20
8.7023608354773714
42
-0.26794919243110926
10
370.65264936193489
20
7.7023608354772684
10
371.42052521995697
20
6.3723608354773456
42
0.26794919243113535
10
373.15257602752587
20
5.3723608354772781
10
376.55229909274482
20
5.3723608354772656
42
-0.41421356237304691
10
377.55229909274482
20
4.3723608354772736
10
377.55229909274544
20
-96.589712764522517
42
-0.4142135623730222
10
376.55229909274482
20
-97.589712764523256
10
373.15264936193489
20
-97.58971276452273
42
0.26794919243116089
10
371.42059855436582
20
-98.589712764522972
10
370.65264936193438
20
-99.9198397834449
42
-0.26794919243114307
10
368.92059855436582
20
-100.91983978344487
10
367.22999963112488
20
-100.91983978344541
42
-0.26794919243115201
10
365.49794882355582
20
-99.919839783445127
10
364.72999963112488
20
-98.589712764522957
42
0.26794919243115878
10
362.99794882355582
20
-97.589712764523256
10
254.33257602752582
20
-97.589712764522716
42
0.26794919243115878
10
252.60052521995681
20
-98.589712764522943
10
251.83264936193481
20
-99.919712764523155
42
-0.26794919243104814
10
250.10059855436583
20
-100.91971276452287
10
248.40999963112483
20
-100.9197127645229
42
-0.2679491924310386
10
246.67794882355588
20
-99.919712764523169
10
245.91007296553386
20
-98.589712764522929
42
0.26794919243115678
10
244.17802215796485
20
-97.589712764523227
10
88.02266062752588
20
-97.589712764522687
42
0.26794919243115378
10
86.290609819956998
20
-98.589712764522929
10
85.522733961934847
20
-99.919712764523169
42
-0.26794919243104287
10
83.790683154365894
20
-100.91971276452286
10
82.100084231124413
20
-100.91971276452283
42
-0.26794919243104159
10
80.368033423555488
20
-99.919712764523155
10
79.60015756553338
20
-98.589712764522872
42
0.26794919243113308
10
77.868106757964483
20
-97.589712764523213
10
20.202733961934779
20
-97.589712764522702
42
0.26794919243115373
10
18.470683154365876
20
-98.589712764522943
10
17.702733961934435
20
-99.9198397834449
42
-0.26794919243115711
10
15.970683154365874
20
-100.91983978344484
10
14.280084231124377
20
-100.91983978344516
42
-0.26794919243114951
10
12.548033423555577
20
-99.919839783445084
10
11.780084231124469
20
-98.589712764522886
42
0.26794919243115367
10
10.048033423555475
20
-97.589712764523213
10
7.1273836927451857
20
-97.589712764522488
42
-0.41421356237309148
10
6.1273836927451857
20
-96.589712764522503
0
LWPOLYLINE
5
169
100
AcDbEntity
8
0
100
AcDbPolyline
90
8
70
1
43
0.0
10
294.87685527164581
20
-50.732308339673963
10
298.31711653900885
20
-50.732308339673963
42
0.41421356237309503
10
298.81711653900885
20
-50.232308339673992
10
298.81711653900885
20
0.86769166032613887
42
0.41421356237309342
10
298.31711653900891
20
1.3676916603261144
10
294.87685527164581
20
1.3676916603261033
42
0.41421356237309631
10
294.37685527164581
20
0.86769166032612866
10
294.37685527164581
20
-50.232308339673992
42
0.41421356237309503
0
LWPOLYLINE
5
170
100
AcDbEntity
8
0
100
AcDbPolyline
90
8
70
1
43
0.0
10
21.283199872342486
20
-69.782308339673961
10
33.783199872342486
20
-69.782308339673961
42
0.41421356237309159
10
34.533199872342493
20
-69.032308339673932
10
34.533199872342486
20
-56.532308339673946
42
0.41421356237308815
10
33.783199872342486
20
-55.782308339673946
10
21.283199872342479
20
-55.782308339673932
42
0.41421356237308815
10
20.533199872342479
20
-56.532308339673932
10
20.533199872342482
20
-69.032308339673946
42
0.41421356237308815
0
LWPOLYLINE
5
171
100
AcDbEntity
8
0
100
AcDbPolyline
90
8
70
1
43
0.0
10
12.883199872342473
20
-70.782308339674074
42
-0.41421356237309681
10
12.133199872342473
20
-70.03230833967406
10
12.13319987234247
20
-56.53230833967406
42
-0.41421356237308815
10
12.883199872342473
20
-55.78230833967406
10
18.38319987234247
20
-55.78230833967406
42
-0.41421356237308898
10
19.133199872342473
20
-56.53230833967406
10
19.133199872342477
20
-70.03230833967406
42
-0.41421356237309503
10
18.383199872342473
20
-70.782308339674074
0
LWPOLYLINE
5
172
100
AcDbEntity
8
0
100
AcDbPolyline
90
8
70
1
43
0.0
10
42.933199872342485
20
-70.032308339674088
42
-0.41421356237308116
10
42.183199872342485
20
-70.782308339674074
10
36.683199872342485
20
-70.782308339674088
42
-0.41421356237307771
10
35.933199872342485
20
-70.032308339674074
10
35.933199872342485
20
-56.532308339674074
42
-0.41421356237308815
10
36.683199872342485
20
-55.782308339674074
10
42.183199872342492
20
-55.78230833967406
42
-0.4142135623730846
10
42.933199872342485
20
-56.53230833967406
0
LWPOLYLINE
5
173
100
AcDbEntity
8
0
100
AcDbPolyline
90
8
70
1
43
0.0
10
199.03944987234252
20
-88.832308339673872
10
199.53944987234249
20
-88.83230833967383
42
0.41421356237308815
10
200.28944987234246
20
-88.082308339673858
10
200.28944987234252
20
-75.582308339673858
42
0.41421356237309503
10
199.53944987234249
20
-74.832308339673816
10
199.03944987234252
20
-74.832308339673858
42
0.41421356237308815
10
198.28944987234252
20
-75.582308339673844
10
198.28944987234249
20
-88.082308339673844
42
0.41421356237309503
0
LWPOLYLINE
5
174
100
AcDbEntity
8
0
100
AcDbPolyline
90
8
70
1
43
0.0
10
35.570699872342509
20
-88.83230833967383
10
48.070699872342516
20
-88.83230833967383
42
0.4142135623730846
10
48.820699872342502
20
-88.082308339673858
10
48.820699872342516
20
-75.582308339673858
42
0.41421356237309159
10
48.070699872342516
20
-74.832308339673844
10
35.570699872342509
20
-74.832308339673858
42
0.41421356237308815
10
34.820699872342502
20
-75.582308339673844
10
34.820699872342509
20
-88.082308339673844
42
0.41421356237309503
0
LWPOLYLINE
5
175
100
AcDbEntity
8
0
100
AcDbPolyline
90
8
70
1
43
0.0
10
204.63944987234254
20
-88.832308339673872
10
217.13944987234254
20
-88.832308339673858
42
0.41421356237308815
10
217.88944987234257
20
-88.082308339673858
10
217.88944987234248
20
-75.582308339673858
42
0.41421356237309503
10
217.13944987234254
20
-74.832308339673887
10
204.63944987234254
20
-74.832308339673858
42
0.41421356237308815
10
203.88944987234254
20
-75.582308339673844
10
203.88944987234251
20
-88.082308339673844
42
0.41421356237309503
0
LWPOLYLINE
5
176
100
AcDbEntity
8
0
100
AcDbPolyline
90
8
70
1
43
0.0
10
222.2394498723425
20
-88.83230833967383
10
222.73944987234248
20
-88.832308339673858
42
0.41421356237308815
10
223.4894498723425
20
-88.082308339673858
10
223.4894498723425
20
-75.582308339673858
42
0.41421356237308116
10
222.7394498723425
20
-74.832308339673816
10
222.2394498723425
20
-74.832308339673858
42
0.41421356237308815
10
221.4894498723425
20
-75.582308339673844
10
221.4894498723425
20
-88.082308339673844
42
0.41421356237309503
0
ENDSEC
0
SECTION
2
OBJECTS
0
DICTIONARY
5
C
100
AcDbDictionary
3
ACAD_GROUP
350
D
3
ACAD_MLINESTYLE
350
17
0
DICTIONARY
5
D
100
AcDbDictionary
0
DICTIONARY
5
1A
330
C
100
AcDbDictionary
0
DICTIONARY
5
17
100
AcDbDictionary
0
ENDSEC
0
EOF
