0
SECTION
2
HEADER
9
$INSUNITS
70
4
9
$ACADVER
1
AC1014
9
$HANDSEED
5
FFFF
0
ENDSEC
0
SECTION
2
TABLES
0
TABLE
2
VPORT
5
8
100
AcDbSymbolTable
0
ENDTAB
0
TABLE
2
LTYPE
5
5
100
AcDbSymbolTable
0
LTYPE
5
14
100
AcDbSymbolTableRecord
100
AcDbLinetypeTableRecord
2
BYBLOCK
70
0
0
LTYPE
5
15
100
AcDbSymbolTableRecord
100
AcDbLinetypeTableRecord
2
BYLAYER
70
0
0
ENDTAB
0
TABLE
2
LAYER
5
2
100
AcDbSymbolTable
70
2
0
LAYER
5
50
100
AcDbSymbolTableRecord
100
AcDbLayerTableRecord
2
0
70
0
6
CONTINUOUS
0
ENDTAB
0
TABLE
2
STYLE
5
3
100
AcDbSymbolTable
70
1
0
STYLE
5
11
100
AcDbSymbolTableRecord
100
AcDbTextStyleTableRecord
2
STANDARD
70
0
0
ENDTAB
0
TABLE
2
VIEW
5
6
100
AcDbSymbolTable
70
0
0
ENDTAB
0
TABLE
2
UCS
5
7
100
AcDbSymbolTable
70
0
0
ENDTAB
0
TABLE
2
APPID
5
9
100
AcDbSymbolTable
70
2
0
APPID
5
12
100
AcDbSymbolTableRecord
100
AcDbRegAppTableRecord
2
ACAD
70
0
0
ENDTAB
0
TABLE
2
DIMSTYLE
5
A
100
AcDbSymbolTable
70
1
0
ENDTAB
0
TABLE
2
BLOCK_RECORD
5
1
100
AcDbSymbolTable
70
1
0
BLOCK_RECORD
5
1F
100
AcDbSymbolTableRecord
100
AcDbBlockTableRecord
2
*MODEL_SPACE
0
BLOCK_RECORD
5
1B
100
AcDbSymbolTableRecord
100
AcDbBlockTableRecord
2
*PAPER_SPACE
0
ENDTAB
0
ENDSEC
0
SECTION
2
BLOCKS
0
BLOCK
5
20
100
AcDbEntity
100
AcDbBlockBegin
2
*MODEL_SPACE
0
ENDBLK
5
21
100
AcDbEntity
100
AcDbBlockEnd
0
BLOCK
5
1C
100
AcDbEntity
100
AcDbBlockBegin
2
*PAPER_SPACE
0
ENDBLK
5
1D
100
AcDbEntity
100
AcDbBlockEnd
0
ENDSEC
0
SECTION
2
ENTITIES
0
LWPOLYLINE
5
100
100
AcDbEntity
8
0
100
AcDbPolyline
90
8
70
1
43
0.0
10
19.233199872342446
20
-70.032308339673918
42
-0.41421356237308293
10
18.483199872342475
20
-70.782308339673918
10
12.78319987234247
20
-70.782308339673932
42
-0.41421356237307771
10
12.033199872342475
20
-70.032308339673904
10
12.033199872342477
20
-57.532308339673897
42
-0.41421356237309243
10
12.783199872342472
20
-56.782308339673911
10
18.483199872342478
20
-56.782308339673918
42
-0.41421356237309243
10
19.233199872342468
20
-57.532308339673904
0
LWPOLYLINE
5
101
100
AcDbEntity
8
0
100
AcDbPolyline
90
8
70
1
43
0.0
10
43.033199872342479
20
-70.032308339673918
42
-0.41421356237307078
10
42.283199872342514
20
-70.782308339673918
10
36.583199872342497
20
-70.782308339673932
42
-0.41421356237307944
10
35.833199872342504
20
-70.032308339673918
10
35.833199872342497
20
-57.532308339673918
42
-0.41421356237309853
10
36.583199872342497
20
-56.782308339673918
10
42.283199872342514
20
-56.782308339673918
42
-0.41421356237309853
10
43.0331998723425
20
-57.532308339673918
0
LWPOLYLINE
5
102
100
AcDbEntity
8
0
100
AcDbPolyline
90
8
70
1
43
0.0
10
37.951949872342496
20
-31.682308339673845
10
50.451949872342496
20
-31.68230833967386
42
0.41421356237310197
10
51.201949872342496
20
-30.932308339673853
10
51.201949872342489
20
-18.432308339673845
42
0.41421356237308637
10
50.451949872342496
20
-17.68230833967386
10
37.951949872342496
20
-17.682308339673853
42
0.41421356237309331
10
37.201949872342503
20
-18.432308339673842
10
37.201949872342496
20
-30.932308339673842
42
0.41421356237309331
0
LWPOLYLINE
5
103
100
AcDbEntity
8
0
100
AcDbPolyline
90
72
70
1
43
0.0
10
20.202660627525795
20
5.3723608354773305
10
128.86810675796482
20
5.3723608354773065
42
0.26794919243112902
10
130.60015756553381
20
6.372360835477286
10
131.36803342355591
20
7.7023608354772151
42
-0.26794919243113213
10
133.10008423112481
20
8.7023608354772737
10
134.79068315436581
20
8.7023608354773909
42
-0.26794919243113191
10
136.52273396193482
20
7.7023608354772746
10
137.29060981995693
20
6.3723608354773473
42
0.26794919243113519
10
139.02266062752585
20
5.3723608354773047
10
244.17802215796488
20
5.3723608354772736
42
0.26794919243112886
10
245.91007296553386
20
6.3723608354772709
10
246.67794882355597
20
7.7023608354771778
42
-0.26794919243112192
10
248.40999963112489
20
8.7023608354772275
10
250.10059855436589
20
8.7023608354773287
42
-0.26794919243114917
10
251.8326493619349
20
7.7023608354772204
10
252.60052521995698
20
6.3723608354773189
42
0.26794919243112514
10
254.33257602752582
20
5.3723608354772781
10
362.99802215796484
20
5.372360835477247
42
0.26794919243113036
10
364.73007296553385
20
6.3723608354772363
10
365.49794882355582
20
7.7023608354771378
42
-0.26794919243111714
10
367.22999963112488
20
8.702360835477247
10
368.92059855436582
20
8.7023608354773465
42
-0.26794919243110987
10
370.65264936193489
20
7.7023608354772444
10
371.42052521995697
20
6.372360835477318
42
0.26794919243113524
10
373.15257602752587
20
5.3723608354772532
10
376.55229909274482
20
5.3723608354773109
42
-0.41421356237302903
10
377.55229909274482
20
4.3723608354772381
10
377.55229909274544
20
-96.589712764522545
42
-0.4142135623730222
10
376.55229909274482
20
-97.589712764523256
10
373.15264936193489
20
-97.58971276452273
42
0.26794919243116089
10
371.42059855436582
20
-98.589712764522972
10
370.65264936193438
20
-99.919839783444871
42
-0.26794919243114307
10
368.92059855436582
20
-100.91983978344486
10
367.22999963112488
20
-100.91983978344538
42
-0.267949192431154
10
365.49794882355582
20
-99.919839783445099
10
364.72999963112488
20
-98.589712764522957
42
0.26794919243115878
10
362.99794882355582
20
-97.589712764523227
10
254.33257602752582
20
-97.589712764522702
42
0.26794919243115878
10
252.60052521995681
20
-98.589712764522929
10
251.83264936193484
20
-99.919712764523098
42
-0.26794919243104576
10
250.10059855436583
20
-100.91971276452287
10
248.40999963112483
20
-100.91971276452286
42
-0.26794919243104076
10
246.67794882355588
20
-99.919712764523126
10
245.91007296553386
20
-98.589712764522915
42
0.26794919243116155
10
244.17802215796482
20
-97.589712764523227
10
88.022660627525852
20
-97.589712764522645
42
0.26794919243115378
10
86.290609819956956
20
-98.589712764522886
10
85.522733961934819
20
-99.919712764523155
42
-0.26794919243104171
10
83.790683154365851
20
-100.91971276452283
10
82.100084231124356
20
-100.91971276452273
42
-0.26794919243104764
10
80.368033423555474
20
-99.919712764523098
10
79.600157565533351
20
-98.58971276452283
42
0.26794919243113546
10
77.868106757964455
20
-97.589712764523171
10
20.202733961934754
20
-97.589712764522645
42
0.26794919243115345
10
18.470683154365855
20
-98.589712764522886
10
17.702733961934406
20
-99.919839783444814
42
-0.26794919243115556
10
15.970683154365853
20
-100.91983978344476
10
14.280084231124359
20
-100.91983978344508
42
-0.26794919243114962
10
12.548033423555555
20
-99.919839783445013
10
11.780084231124448
20
-98.58971276452283
42
0.26794919243115367
10
10.048033423555454
20
-97.589712764523156
10
7.1273836927451653
20
-97.589712764522446
42
-0.41421356237309764
10
6.1273836927451626
20
-96.58971276452246
10
6.1273836927451919
20
4.3723608354773198
42
-0.4142135623730937
10
7.1273836927452061
20
5.3723608354773331
10
10.048106757964479
20
5.3723608354773242
42
0.26794919243111709
10
11.780157565533278
20
6.3723608354773216
10
12.548033423555498
20
7.7023608354773101
42
-0.26794919243112558
10
14.280084231124381
20
8.7023608354773216
10
15.970683154365876
20
8.7023608354773394
42
-0.26794919243112358
10
17.702733961934779
20
7.7023608354773199
10
18.470609819956913
20
6.3723608354772949
42
0.26794919243112103
0
LWPOLYLINE
5
104
100
AcDbEntity
8
0
100
AcDbPolyline
90
8
70
1
43
0.0
10
21.876949872342472
20
1.3676916603261309
10
9.3769498723425073
20
1.3676916603261313
42
0.4142135623730937
10
8.6269498723425126
20
0.61769166032612732
10
8.6269498723425038
20
-11.882308339673898
42
0.4142135623730942
10
9.376949872342502
20
-12.632308339673912
10
21.876949872342468
20
-12.632308339673905
42
0.41421356237309681
10
22.626949872342475
20
-11.882308339673905
10
22.626949872342479
20
0.61769166032612088
42
0.41421356237309581
0
LWPOLYLINE
5
105
100
AcDbEntity
8
0
100
AcDbPolyline
90
8
70
1
43
0.0
10
29.02069987234249
20
-36.732308339673871
10
10.920699872342482
20
-36.73230833967385
42
0.41421356237309503
10
10.170699872342471
20
-37.482308339673864
10
10.170699872342482
20
-49.982308339673871
42
0.41421356237308898
10
10.920699872342482
20
-50.732308339673892
10
29.020699872342487
20
-50.732308339673871
42
0.41421356237308637
10
29.77069987234249
20
-49.982308339673878
10
29.77069987234249
20
-37.482308339673864
42
0.41421356237309681
0
LWPOLYLINE
5
106
100
AcDbEntity
8
0
100
AcDbPolyline
90
8
70
1
43
0.0
10
14.139449872342485
20
-31.682308339673874
10
26.639449872342492
20
-31.682308339673856
42
0.41421356237309331
10
27.389449872342485
20
-30.932308339673853
10
27.389449872342485
20
-18.432308339673849
42
0.41421356237309764
10
26.639449872342489
20
-17.682308339673849
10
14.139449872342485
20
-17.68230833967387
42
0.41421356237309764
10
13.38944987234248
20
-18.43230833967386
10
13.389449872342482
20
-30.932308339673867
42
0.41421356237309936
0
CIRCLE
5
107
100
AcDbEntity
8
0
100
AcDbCircle
10
15.125606757964478
20
7.0373608354773225
30
-4.4408920985006262e-15
40
1.1000000000000008
210
3.0296217893165602e-33
220
1.387778780781446e-17
230
1
0
LWPOLYLINE
5
108
100
AcDbEntity
8
0
100
AcDbPolyline
90
8
70
1
43
0.0
10
40.926949872342497
20
1.3676916603261449
10
28.42694987234249
20
1.3676916603261464
42
0.41421356237309159
10
27.676949872342487
20
0.61769166032615619
10
27.676949872342483
20
-11.882308339673852
42
0.41421356237309936
10
28.42694987234249
20
-12.632308339673845
10
40.926949872342497
20
-12.632308339673845
42
0.41421356237309681
10
41.676949872342497
20
-11.882308339673855
10
41.676949872342497
20
0.6176916603261513
42
0.41421356237308909
0
LWPOLYLINE
5
109
100
AcDbEntity
8
0
100
AcDbPolyline
90
8
70
1
43
0.0
10
254.92069987234288
20
-38.482308339673978
10
254.92069987234288
20
-50.982308339673985
42
0.41421356237307078
10
255.67069987234288
20
-51.732308339674006
10
261.37069987234287
20
-51.732308339673985
42
0.41421356237308116
10
262.12069987234287
20
-50.982308339673978
10
262.12069987234287
20
-38.482308339673949
42
0.41421356237308637
10
261.37069987234287
20
-37.732308339673978
10
255.67069987234288
20
-37.73230833967397
42
0.41421356237309331
0
LWPOLYLINE
5
110
100
AcDbEntity
8
0
100
AcDbPolyline
90
8
70
1
43
0.0
10
285.92069987234288
20
-50.982308339673985
42
-0.41421356237307771
10
285.17069987234288
20
-51.732308339673985
10
279.47069987234289
20
-51.732308339673985
42
-0.41421356237307078
10
278.72069987234289
20
-50.982308339673985
10
278.72069987234289
20
-38.482308339673956
42
-0.41421356237308982
10
279.47069987234289
20
-37.73230833967397
10
285.17069987234288
20
-37.732308339673978
42
-0.41421356237308637
10
285.92069987234288
20
-38.482308339673949
0
LWPOLYLINE
5
111
100
AcDbEntity
8
0
100
AcDbPolyline
90
8
70
1
43
0.0
10
283.81444987234255
20
-17.682308339673906
10
271.31444987234255
20
-17.682308339673902
42
0.41421356237309503
10
270.56444987234255
20
-18.432308339673888
10
270.56444987234255
20
-30.932308339673902
42
0.41421356237309681
10
271.31444987234255
20
-31.682308339673895
10
283.81444987234255
20
-31.682308339673892
42
0.41421356237309681
10
284.56444987234255
20
-30.932308339673895
10
284.56444987234255
20
-18.432308339673892
42
0.41421356237309592
0
LWPOLYLINE
5
112
100
AcDbEntity
8
0
100
AcDbPolyline
90
8
70
1
43
0.0
10
260.00194987234249
20
-17.68230833967386
10
247.50194987234252
20
-17.682308339673895
42
0.41421356237309681
10
246.75194987234252
20
-18.432308339673888
10
246.75194987234255
20
-30.932308339673895
42
0.41421356237304996
10
247.50194987234252
20
-31.682308339673856
10
260.00194987234249
20
-31.682308339673916
42
0.41421356237306212
10
260.75194987234249
20
-30.932308339673899
10
260.75194987234255
20
-18.432308339673888
42
0.41421356237311241
0
LWPOLYLINE
5
113
100
AcDbEntity
8
0
100
AcDbPolyline
90
22
70
1
43
0.0
10
107.40869987234248
20
-74.082308339673872
42
-0.41421356237309853
10
106.65869987234248
20
-74.832308339673872
10
96.045199872342494
20
-74.832308339673887
42
-0.41421356237310897
10
95.295199872342465
20
-74.082308339673858
10
95.295199872342494
20
-73.582308339673858
42
0.41421356237309159
10
94.545199872342494
20
-72.832308339673872
10
84.282699872342477
20
-72.832308339673858
42
0.41421356237306733
10
83.532699872342491
20
-73.582308339673844
10
83.532699872342505
20
-87.08230833967383
42
0.41421356237308116
10
84.282699872342505
20
-87.832308339673801
10
91.306486309969415
20
-87.832308339673858
42
-0.31783724519578704
10
92.013593091155954
20
-88.332308339673858
42
0.31783724519578704
10
92.720699872342493
20
-88.832308339673858
10
109.98319987234251
20
-88.832308339673858
42
0.31783724519579531
10
110.69030665352903
20
-88.332308339673858
42
-0.31783724519578704
10
111.39741343471557
20
-87.832308339673858
10
118.42119987234253
20
-87.832308339673816
42
0.41421356237309503
10
119.1711998723425
20
-87.082308339673844
10
119.17119987234247
20
-73.582308339673844
42
0.41421356237309159
10
118.42119987234248
20
-72.832308339673858
10
108.15869987234248
20
-72.832308339673872
42
0.41421356237309503
10
107.40869987234248
20
-73.582308339673858
0
LWPOLYLINE
5
114
100
AcDbEntity
8
0
100
AcDbPolyline
90
22
70
1
43
0.0
10
162.74398630996942
20
-87.83230833967383
42
-0.317837245195766
10
163.45109309115597
20
-88.332308339673844
42
0.31783724519578443
10
164.15819987234249
20
-88.832308339673901
10
181.42069987234242
20
-88.832308339673887
42
0.3178372451957826
10
182.12780665352903
20
-88.332308339673858
42
-0.31783724519575551
10
182.83491343471553
20
-87.832308339673872
10
189.8586998723425
20
-87.832308339673858
42
0.41421356237306733
10
190.60869987234244
20
-87.082308339673858
10
190.60869987234247
20
-73.582308339673858
42
0.41421356237306733
10
189.8586998723425
20
-72.83230833967383
10
179.59619987234248
20
-72.832308339673872
42
0.41421356237309853
10
178.84619987234248
20
-73.582308339673858
10
178.84619987234242
20
-74.082308339673887
42
-0.41421356237307422
10
178.09619987234245
20
-74.832308339673872
10
167.48269987234244
20
-74.832308339673901
42
-0.41421356237306384
10
166.73269987234249
20
-74.082308339673887
10
166.73269987234249
20
-73.582308339673858
42
0.41421356237308815
10
165.98269987234249
20
-72.832308339673872
10
155.7201998723425
20
-72.832308339673872
42
0.41421356237307771
10
154.9701998723425
20
-73.582308339673816
10
154.9701998723425
20
-87.08230833967383
42
0.41421356237308116
10
155.7201998723425
20
-87.832308339673801
0
LWPOLYLINE
5
115
100
AcDbEntity
8
0
100
AcDbPolyline
90
22
70
1
43
0.0
10
360.35992664090691
20
-49.645308339673903
42
-0.33468323849651954
10
361.08093825662473
20
-50.188808339673926
42
0.33468323849650689
10
361.8019498723425
20
-50.732308339673907
10
374.3019498723425
20
-50.732308339673899
42
0.41421356237308815
10
375.05194987234256
20
-49.982308339673899
10
375.05194987234256
20
-18.432308339673881
42
0.41421356237308898
10
374.3019498723425
20
-17.682308339673853
10
361.8019498723425
20
-17.682308339673888
42
0.33468323849645693
10
361.08093825662473
20
-18.225808339673879
42
-0.33468323849651399
10
360.35992664090691
20
-18.769308339673888
10
359.8019498723425
20
-18.769308339673877
42
0.41421356237309243
10
359.05194987234245
20
-19.519308339673891
10
359.05194987234256
20
-25.019308339673877
42
0.41421356237314538
10
359.8019498723425
20
-25.769308339673845
10
360.30194987234245
20
-25.769308339673877
42
-0.41421356237308815
10
361.0519498723425
20
-26.519308339673884
10
361.0519498723425
20
-41.895308339673861
42
-0.41421356237308815
10
360.30194987234245
20
-42.645308339673889
10
359.8019498723425
20
-42.645308339673875
42
0.41421356237309503
10
359.05194987234245
20
-43.395308339673889
10
359.05194987234245
20
-48.895308339673917
42
0.41421356237308815
10
359.8019498723425
20
-49.645308339673917
0
LWPOLYLINE
5
116
100
AcDbEntity
8
0
100
AcDbPolyline
90
22
70
1
43
0.0
10
361.08093825662473
20
-56.32580833967387
42
-0.33468323849651954
10
360.35992664090691
20
-56.869308339673879
10
359.8019498723425
20
-56.869308339673886
42
0.41421356237309503
10
359.05194987234245
20
-57.619308339673907
10
359.05194987234245
20
-63.119308339673893
42
0.41421356237308815
10
359.8019498723425
20
-63.869308339673907
10
360.30194987234239
20
-63.8693083396739
42
-0.41421356237308116
10
361.0519498723425
20
-64.619308339673893
10
361.0519498723425
20
-79.995308339673898
42
-0.41421356237312623
10
360.30194987234245
20
-80.745308339673883
10
359.8019498723425
20
-80.745308339673841
42
0.41421356237310897
10
359.05194987234245
20
-81.495308339673883
10
359.05194987234245
20
-86.995308339673898
42
0.41421356237309503
10
359.8019498723425
20
-87.745308339673883
10
360.35992664090685
20
-87.745308339673898
42
-0.33468323849647513
10
361.08093825662468
20
-88.28880833967392
42
0.33468323849647608
10
361.8019498723425
20
-88.832308339673958
10
374.3019498723425
20
-88.832308339673915
42
0.41421356237316442
10
375.05194987234245
20
-88.082308339673887
10
375.05194987234256
20
-56.532308339673904
42
0.41421356237308815
10
374.3019498723425
20
-55.782308339673875
10
361.8019498723425
20
-55.782308339673882
42
0.33468323849650372
0
LWPOLYLINE
5
117
100
AcDbEntity
8
0
100
AcDbPolyline
90
8
70
1
43
0.0
10
303.90194987234253
20
-56.532308339673882
10
303.90194987234247
20
-69.032308339673875
42
0.41421356237309503
10
304.65194987234253
20
-69.782308339673904
10
317.15194987234253
20
-69.782308339673875
42
0.41421356237307771
10
317.90194987234253
20
-69.032308339673875
10
317.90194987234258
20
-56.532308339673889
42
0.41421356237310897
10
317.15194987234258
20
-55.782308339673854
10
304.65194987234258
20
-55.782308339673889
42
0.41421356237309503
0
LWPOLYLINE
5
118
100
AcDbEntity
8
0
100
AcDbPolyline
90
8
70
1
43
0.0
10
266.73319987234254
20
-56.532308339673882
10
266.73319987234254
20
-69.032308339673875
42
0.41421356237309503
10
267.48319987234248
20
-69.782308339673847
10
267.98319987234254
20
-69.782308339673861
42
0.41421356237312978
10
268.7331998723426
20
-69.032308339673875
10
268.73319987234254
20
-56.532308339673882
42
0.41421356237310542
10
267.98319987234254
20
-55.782308339673925
10
267.48319987234254
20
-55.782308339673875
42
0.41421356237306733
0
LWPOLYLINE
5
119
100
AcDbEntity
8
0
100
AcDbPolyline
90
8
70
1
43
0.0
10
75.301949872342504
20
-18.432308339673856
10
75.301949872342504
20
-30.93230833967386
42
0.41421356237309159
10
76.05194987234249
20
-31.682308339673849
10
88.55194987234249
20
-31.68230833967387
42
0.41421356237308293
10
89.301949872342504
20
-30.932308339673877
10
89.301949872342504
20
-18.432308339673867
42
0.41421356237309243
10
88.551949872342504
20
-17.682308339673881
10
76.051949872342504
20
-17.68230833967386
42
0.41421356237310197
0
LWPOLYLINE
5
120
100
AcDbEntity
8
0
100
AcDbPolyline
90
8
70
1
43
0.0
10
94.351949872342487
20
-18.432308339673874
10
94.351949872342487
20
-30.932308339673881
42
0.4142135623730846
10
95.101949872342487
20
-31.682308339673881
10
107.60194987234249
20
-31.682308339673895
42
0.41421356237310375
10
108.35194987234252
20
-30.932308339673888
10
108.35194987234252
20
-18.432308339673874
42
0.41421356237308721
10
107.6019498723425
20
-17.682308339673881
10
95.101949872342502
20
-17.682308339673877
42
0.41421356237308637
0
LWPOLYLINE
5
121
100
AcDbEntity
8
0
100
AcDbPolyline
90
8
70
1
43
0.0
10
156.26444987234248
20
-37.482308339673878
10
156.26444987234248
20
-49.982308339673892
42
0.41421356237310542
10
157.01444987234251
20
-50.732308339673878
10
169.51444987234251
20
-50.732308339673878
42
0.41421356237308815
10
170.26444987234248
20
-49.982308339673892
10
170.26444987234254
20
-37.482308339673878
42
0.41421356237311063
10
169.51444987234248
20
-36.73230833967385
10
157.01444987234251
20
-36.732308339673864
42
0.41421356237308982
0
LWPOLYLINE
5
122
100
AcDbEntity
8
0
100
AcDbPolyline
90
8
70
1
43
0.0
10
342.00194987234249
20
-56.532308339673875
10
342.00194987234249
20
-69.032308339673875
42
0.4142135623730846
10
342.75194987234249
20
-69.782308339673918
10
355.25194987234249
20
-69.782308339673875
42
0.41421356237314017
10
356.00194987234249
20
-69.032308339673904
10
356.00194987234255
20
-56.532308339673904
42
0.41421356237308815
10
355.25194987234249
20
-55.782308339673861
10
342.75194987234249
20
-55.782308339673882
42
0.41421356237311935
0
LWPOLYLINE
5
123
100
AcDbEntity
8
0
100
AcDbPolyline
90
8
70
1
43
0.0
10
213.41444987234254
20
-37.482308339673899
10
213.41444987234254
20
-49.982308339673892
42
0.41421356237308815
10
214.16444987234254
20
-50.732308339673892
10
226.66444987234254
20
-50.732308339673878
42
0.41421356237307422
10
227.41444987234252
20
-49.982308339673892
10
227.41444987234252
20
-37.482308339673892
42
0.41421356237308982
10
226.66444987234254
20
-36.732308339673899
10
214.16444987234254
20
-36.732308339673907
42
0.41421356237308637
0
LWPOLYLINE
5
124
100
AcDbEntity
8
0
100
AcDbPolyline
90
8
70
1
43
0.0
10
56.251949872342486
20
-18.432308339673849
10
56.251949872342486
20
-30.932308339673853
42
0.41421356237310197
10
57.001949872342486
20
-31.682308339673849
10
69.501949872342493
20
-31.68230833967387
42
0.41421356237309681
10
70.251949872342493
20
-30.93230833967386
10
70.251949872342493
20
-18.432308339673849
42
0.41421356237309936
10
69.501949872342479
20
-17.682308339673838
10
57.001949872342479
20
-17.682308339673853
42
0.41421356237309936
0
LWPOLYLINE
5
125
100
AcDbEntity
8
0
100
AcDbPolyline
90
8
70
1
43
0.0
10
198.28944987234249
20
-75.582308339673872
10
198.28944987234246
20
-88.082308339673887
42
0.41421356237306034
10
199.03944987234252
20
-88.832308339673943
10
199.53944987234246
20
-88.832308339673887
42
0.41421356237308815
10
200.28944987234243
20
-88.082308339673915
10
200.28944987234246
20
-75.582308339673872
42
0.41421356237311585
10
199.53944987234246
20
-74.832308339673844
10
199.03944987234246
20
-74.832308339673887
42
0.41421356237308815
0
LWPOLYLINE
5
126
100
AcDbEntity
8
0
100
AcDbPolyline
90
8
70
1
43
0.0
10
250.06444987234255
20
-75.582308339673887
10
250.06444987234249
20
-88.082308339673872
42
0.41421356237310197
10
250.81444987234252
20
-88.832308339673915
10
251.31444987234255
20
-88.832308339673872
42
0.41421356237310197
10
252.06444987234249
20
-88.082308339673887
10
252.06444987234252
20
-75.582308339673887
42
0.41421356237307422
10
251.31444987234255
20
-74.832308339673858
10
250.81444987234252
20
-74.832308339673887
42
0.4142135623730569
0
LWPOLYLINE
5
127
100
AcDbEntity
8
0
100
AcDbPolyline
90
8
70
1
43
0.0
10
303.90194987234258
20
-37.482308339673892
10
303.90194987234258
20
-49.982308339673899
42
0.41421356237309853
10
304.65194987234258
20
-50.732308339673921
10
317.15194987234258
20
-50.732308339673907
42
0.41421356237309503
10
317.90194987234253
20
-49.982308339673907
10
317.90194987234258
20
-37.482308339673892
42
0.41421356237311063
10
317.15194987234258
20
-36.732308339673899
10
304.65194987234258
20
-36.732308339673892
42
0.41421356237309331
0
LWPOLYLINE
5
128
100
AcDbEntity
8
0
100
AcDbPolyline
90
8
70
1
43
0.0
10
342.00194987234249
20
-18.432308339673874
10
342.00194987234249
20
-30.932308339673877
42
0.41421356237308982
10
342.75194987234249
20
-31.682308339673874
10
355.25194987234249
20
-31.682308339673881
42
0.41421356237311935
10
356.00194987234255
20
-30.932308339673888
10
356.00194987234255
20
-18.432308339673881
42
0.41421356237308898
10
355.25194987234249
20
-17.682308339673888
10
342.75194987234249
20
-17.682308339673881
42
0.41421356237311757
0
LWPOLYLINE
5
129
100
AcDbEntity
8
0
100
AcDbPolyline
90
8
70
1
43
0.0
10
99.114449872342476
20
-37.482308339673871
10
99.11444987234249
20
-49.982308339673892
42
0.4142135623730846
10
99.864449872342476
20
-50.73230833967385
10
112.36444987234248
20
-50.732308339673871
42
0.4142135623730846
10
113.11444987234248
20
-49.982308339673871
10
113.1144498723425
20
-37.482308339673864
42
0.41421356237310197
10
112.36444987234249
20
-36.732308339673864
10
99.86444987234249
20
-36.732308339673864
42
0.41421356237310375
0
LWPOLYLINE
5
130
100
AcDbEntity
8
0
100
AcDbPolyline
90
8
70
1
43
0.0
10
184.8394498723425
20
-56.532308339673882
10
184.8394498723425
20
-69.032308339673861
42
0.41421356237309503
10
185.58944987234247
20
-69.782308339673889
10
198.08944987234247
20
-69.782308339673861
42
0.41421356237309503
10
198.83944987234253
20
-69.032308339673861
10
198.83944987234253
20
-56.532308339673861
42
0.41421356237308815
10
198.08944987234253
20
-55.782308339673875
10
185.58944987234253
20
-55.782308339673882
42
0.41421356237307422
0
LWPOLYLINE
5
131
100
AcDbEntity
8
0
100
AcDbPolyline
90
8
70
1
43
0.0
10
89.589449872342456
20
-56.532308339673882
10
89.58944987234247
20
-69.032308339673875
42
0.41421356237309159
10
90.33944987234247
20
-69.782308339673889
10
102.83944987234247
20
-69.782308339673861
42
0.41421356237309159
10
103.58944987234246
20
-69.032308339673875
10
103.58944987234247
20
-56.532308339673882
42
0.41421356237308815
10
102.83944987234247
20
-55.782308339673875
10
90.33944987234247
20
-55.782308339673875
42
0.41421356237308815
0
LWPOLYLINE
5
132
100
AcDbEntity
8
0
100
AcDbPolyline
90
8
70
1
43
0.0
10
203.88944987234251
20
-75.582308339673872
10
203.88944987234248
20
-88.082308339673887
42
0.41421356237306034
10
204.63944987234254
20
-88.832308339673943
10
217.13944987234248
20
-88.832308339673887
42
0.41421356237308815
10
217.88944987234248
20
-88.082308339673915
10
217.88944987234245
20
-75.582308339673887
42
0.41421356237306384
10
217.13944987234248
20
-74.832308339673915
10
204.63944987234248
20
-74.832308339673887
42
0.41421356237308815
0
LWPOLYLINE
5
133
100
AcDbEntity
8
0
100
AcDbPolyline
90
8
70
1
43
0.0
10
175.31444987234252
20
-37.482308339673878
10
175.31444987234249
20
-49.982308339673892
42
0.41421356237309853
10
176.06444987234252
20
-50.732308339673907
10
188.56444987234252
20
-50.732308339673899
42
0.41421356237307771
10
189.31444987234249
20
-49.982308339673899
10
189.31444987234255
20
-37.482308339673885
42
0.41421356237309681
10
188.56444987234252
20
-36.732308339673892
10
176.06444987234252
20
-36.732308339673878
42
0.41421356237308982
0
LWPOLYLINE
5
134
100
AcDbEntity
8
0
100
AcDbPolyline
90
8
70
1
43
0.0
10
322.95194987234254
20
-56.532308339673889
10
322.95194987234254
20
-69.032308339673875
42
0.41421356237300139
10
323.70194987234254
20
-69.782308339673889
10
336.20194987234254
20
-69.782308339673875
42
0.41421356237303258
10
336.9519498723426
20
-69.032308339673889
10
336.95194987234254
20
-56.532308339673889
42
0.41421356237310197
10
336.20194987234254
20
-55.782308339673882
10
323.70194987234254
20
-55.782308339673889
42
0.41421356237303258
0
LWPOLYLINE
5
135
100
AcDbEntity
8
0
100
AcDbPolyline
90
8
70
1
43
0.0
10
24.25819987234248
20
-74.832308339673844
10
11.758199872342479
20
-74.832308339673844
42
0.41421356237309681
10
11.00819987234248
20
-75.582308339673844
10
11.008199872342477
20
-88.082308339673887
42
0.41421356237309853
10
11.758199872342473
20
-88.832308339673901
10
24.25819987234248
20
-88.832308339673901
42
0.41421356237309331
10
25.008199872342477
20
-88.082308339673887
10
25.00819987234248
20
-75.582308339673844
42
0.41421356237309853
0
LWPOLYLINE
5
136
100
AcDbEntity
8
0
100
AcDbPolyline
90
8
70
1
43
0.0
10
7.789449872342483
20
-18.432308339673863
10
7.789449872342483
20
-30.932308339673863
42
0.41421356237310025
10
8.5394498723424821
20
-31.68230833967387
10
9.0394498723424839
20
-31.682308339673867
42
0.41421356237309287
10
9.7894498723424803
20
-30.932308339673877
10
9.7894498723424856
20
-18.432308339673863
42
0.41421356237308982
10
9.0394498723424839
20
-17.682308339673874
10
8.5394498723424856
20
-17.682308339673874
42
0.4142135623730942
0
LWPOLYLINE
5
137
100
AcDbEntity
8
0
100
AcDbPolyline
90
8
70
1
43
0.0
10
231.42694987234248
20
1.3676916603261264
10
218.92694987234248
20
1.3676916603261278
42
0.41421356237308782
10
218.17694987234248
20
0.6176916603261362
10
218.1769498723425
20
-11.882308339673866
42
0.41421356237309243
10
218.92694987234248
20
-12.632308339673825
10
231.42694987234248
20
-12.632308339673843
42
0.41421356237308721
10
232.17694987234245
20
-11.882308339673875
10
232.17694987234245
20
0.6176916603261311
42
0.41421356237308854
0
LWPOLYLINE
5
138
100
AcDbEntity
8
0
100
AcDbPolyline
90
8
70
1
43
0.0
10
20.533199872342486
20
-56.532308339673861
10
20.533199872342486
20
-69.032308339673847
42
0.41421356237308815
10
21.283199872342486
20
-69.782308339673861
10
33.783199872342486
20
-69.782308339673847
42
0.41421356237308815
10
34.533199872342486
20
-69.032308339673861
10
34.533199872342493
20
-56.532308339673861
42
0.41421356237309159
10
33.783199872342486
20
-55.782308339673854
10
21.283199872342486
20
-55.782308339673861
42
0.41421356237308982
0
LWPOLYLINE
5
139
100
AcDbEntity
8
0
100
AcDbPolyline
90
8
70
1
43
0.0
10
190.35194987234252
20
-31.682308339673916
42
-0.41421356237309681
10
189.60194987234249
20
-30.932308339673881
10
189.60194987234252
20
-18.432308339673881
42
-0.41421356237308815
10
190.35194987234252
20
-17.682308339673888
10
202.85194987234252
20
-17.682308339673931
42
-0.41421356237309331
10
203.60194987234249
20
-18.432308339673881
10
203.60194987234252
20
-30.932308339673888
42
-0.41421356237308815
10
202.85194987234252
20
-31.682308339673881
0
LWPOLYLINE
5
140
100
AcDbEntity
8
0
100
AcDbPolyline
90
8
70
1
43
0.0
10
170.5519498723425
20
-18.432308339673874
10
170.55194987234248
20
-30.932308339673874
42
0.41421356237309681
10
171.3019498723425
20
-31.682308339673909
10
183.8019498723425
20
-31.682308339673874
42
0.41421356237308637
10
184.5519498723425
20
-30.932308339673888
10
184.55194987234248
20
-18.432308339673877
42
0.41421356237309331
10
183.8019498723425
20
-17.68230833967392
10
171.3019498723425
20
-17.682308339673881
42
0.41421356237308815
0
LWPOLYLINE
5
141
100
AcDbEntity
8
0
100
AcDbPolyline
90
8
70
1
43
0.0
10
221.48944987234248
20
-75.582308339673872
10
221.48944987234248
20
-88.082308339673929
42
0.41421356237309503
10
222.23944987234248
20
-88.832308339673901
10
222.73944987234245
20
-88.832308339673915
42
0.41421356237308815
10
223.48944987234245
20
-88.082308339673943
10
223.48944987234245
20
-75.582308339673887
42
0.41421356237309503
10
222.73944987234245
20
-74.832308339673887
10
222.23944987234248
20
-74.832308339673887
42
0.4142135623730846
0
LWPOLYLINE
5
142
100
AcDbEntity
8
0
100
AcDbPolyline
90
8
70
1
43
0.0
10
58.633199872342487
20
-75.582308339673872
10
58.633199872342495
20
-88.082308339673872
42
0.41421356237311585
10
59.383199872342487
20
-88.832308339673887
10
71.883199872342502
20
-88.832308339673887
42
0.41421356237311935
10
72.633199872342473
20
-88.082308339673872
10
72.633199872342516
20
-75.582308339673858
42
0.41421356237310197
10
71.883199872342502
20
-74.832308339673858
10
59.383199872342502
20
-74.832308339673858
42
0.41421356237309503
0
LWPOLYLINE
5
143
100
AcDbEntity
8
0
100
AcDbPolyline
90
8
70
1
43
0.0
10
322.95194987234254
20
-37.482308339673899
10
322.95194987234254
20
-49.982308339673907
42
0.41421356237300488
10
323.70194987234254
20
-50.732308339673935
10
336.20194987234254
20
-50.732308339673899
42
0.41421356237303608
10
336.95194987234254
20
-49.982308339673907
10
336.95194987234254
20
-37.482308339673892
42
0.41421356237310025
10
336.20194987234254
20
-36.732308339673942
10
323.70194987234254
20
-36.732308339673885
42
0.41421356237303258
0
LWPOLYLINE
5
144
100
AcDbEntity
8
0
100
AcDbPolyline
90
8
70
1
43
0.0
10
299.13944987234254
20
-80.344808339673875
10
299.13944987234254
20
-92.844808339673932
42
0.41421356237309503
10
299.88944987234254
20
-93.594808339673889
10
312.38944987234254
20
-93.594808339673946
42
0.4142135623730534
10
313.13944987234254
20
-92.844808339673932
10
313.13944987234254
20
-80.344808339673904
42
0.41421356237309503
10
312.38944987234254
20
-79.594808339673875
10
299.88944987234254
20
-79.594808339673904
42
0.41421356237308116
0
LWPOLYLINE
5
145
100
AcDbEntity
8
0
100
AcDbPolyline
90
8
70
1
43
0.0
10
151.50194987234252
20
-18.432308339673884
10
151.50194987234249
20
-30.932308339673888
42
0.41421356237311935
10
152.25194987234255
20
-31.682308339673892
10
164.75194987234255
20
-31.682308339673881
42
0.41421356237309503
10
165.50194987234252
20
-30.932308339673888
10
165.50194987234252
20
-18.432308339673877
42
0.41421356237309592
10
164.75194987234255
20
-17.682308339673884
10
152.25194987234255
20
-17.682308339673881
42
0.41421356237308815
0
LWPOLYLINE
5
146
100
AcDbEntity
8
0
100
AcDbPolyline
90
8
70
1
43
0.0
10
244.28319987234249
20
-69.782308339673847
42
-0.41421356237309503
10
243.53319987234255
20
-69.032308339673889
10
243.53319987234255
20
-56.532308339673889
42
-0.41421356237309853
10
244.28319987234255
20
-55.782308339673889
10
244.78319987234258
20
-55.782308339673932
42
-0.41421356237306733
10
245.53319987234255
20
-56.532308339673889
10
245.53319987234255
20
-69.032308339673889
42
-0.41421356237312978
10
244.78319987234249
20
-69.782308339673875
0
LWPOLYLINE
5
147
100
AcDbEntity
8
0
100
AcDbPolyline
90
8
70
1
43
0.0
10
52.23944987234249
20
-69.782308339673875
42
-0.41421356237308815
10
51.48944987234249
20
-69.032308339673875
10
51.48944987234249
20
-56.532308339673875
42
-0.41421356237308815
10
52.23944987234249
20
-55.782308339673875
10
64.73944987234249
20
-55.782308339673875
42
-0.41421356237309853
10
65.489449872342504
20
-56.532308339673875
10
65.48944987234249
20
-69.032308339673875
42
-0.41421356237310197
10
64.739449872342504
20
-69.782308339673861
0
LWPOLYLINE
5
148
100
AcDbEntity
8
0
100
AcDbPolyline
90
8
70
1
43
0.0
10
146.73944987234248
20
-56.532308339673861
10
146.73944987234248
20
-69.032308339673861
42
0.41421356237310897
10
147.48944987234248
20
-69.782308339673875
10
159.98944987234245
20
-69.782308339673847
42
0.41421356237308815
10
160.7394498723425
20
-69.032308339673875
10
160.73944987234245
20
-56.532308339673875
42
0.41421356237309853
10
159.98944987234245
20
-55.782308339673875
10
147.48944987234248
20
-55.782308339673875
42
0.41421356237309159
0
LWPOLYLINE
5
149
100
AcDbEntity
8
0
100
AcDbPolyline
90
8
70
1
43
0.0
10
65.776949872342513
20
0.61769166032615397
10
65.776949872342499
20
-11.88230833967385
42
0.41421356237308982
10
66.526949872342499
20
-12.632308339673848
10
79.026949872342499
20
-12.632308339673848
42
0.41421356237309592
10
79.776949872342499
20
-11.882308339673859
10
79.776949872342499
20
0.61769166032614775
42
0.41421356237309698
10
79.026949872342513
20
1.3676916603261411
10
66.526949872342513
20
1.3676916603261424
42
0.41421356237309931
0
LWPOLYLINE
5
150
100
AcDbEntity
8
0
100
AcDbPolyline
90
8
70
1
43
0.0
10
30.989449872342508
20
-18.432308339673842
10
30.989449872342494
20
-30.932308339673845
42
0.41421356237309853
10
31.739449872342497
20
-31.682308339673838
10
32.239449872342497
20
-31.682308339673856
42
0.41421356237309503
10
32.989449872342497
20
-30.932308339673853
10
32.989449872342497
20
-18.432308339673845
42
0.41421356237309936
10
32.23944987234249
20
-17.682308339673845
10
31.739449872342497
20
-17.682308339673853
42
0.41421356237309159
0
LWPOLYLINE
5
151
100
AcDbEntity
8
0
100
AcDbPolyline
90
8
70
1
43
0.0
10
194.36444987234253
20
-37.482308339673871
10
194.36444987234253
20
-49.982308339673878
42
0.41421356237309159
10
195.11444987234253
20
-50.732308339673871
10
207.61444987234253
20
-50.732308339673878
42
0.41421356237307771
10
208.3644498723425
20
-49.982308339673878
10
208.36444987234248
20
-37.482308339673885
42
0.41421356237308982
10
207.61444987234253
20
-36.732308339673892
10
195.11444987234253
20
-36.732308339673878
42
0.41421356237308637
0
LWPOLYLINE
5
152
100
AcDbEntity
8
0
100
AcDbPolyline
90
8
70
1
43
0.0
10
127.68944987234249
20
-56.532308339673861
10
127.68944987234249
20
-69.032308339673847
42
0.41421356237309159
10
128.43944987234249
20
-69.782308339673861
10
140.93944987234249
20
-69.782308339673847
42
0.41421356237307771
10
141.68944987234249
20
-69.032308339673847
10
141.68944987234249
20
-56.532308339673861
42
0.41421356237308815
10
140.93944987234249
20
-55.782308339673854
10
128.43944987234249
20
-55.782308339673882
42
0.41421356237309159
0
LWPOLYLINE
5
153
100
AcDbEntity
8
0
100
AcDbPolyline
90
8
70
1
43
0.0
10
266.21444987234258
20
-17.682308339673895
10
265.71444987234258
20
-17.682308339673895
42
0.41421356237309681
10
264.96444987234258
20
-18.432308339673888
10
264.96444987234258
20
-30.932308339673899
42
0.41421356237309681
10
265.71444987234258
20
-31.682308339673895
10
266.21444987234258
20
-31.682308339673895
42
0.41421356237309681
10
266.96444987234253
20
-30.932308339673899
10
266.96444987234253
20
-18.432308339673888
42
0.41421356237309592
0
LWPOLYLINE
5
154
100
AcDbEntity
8
0
100
AcDbPolyline
90
8
70
1
43
0.0
10
46.726949872342487
20
0.61769166032615175
10
46.726949872342487
20
-11.882308339673855
42
0.41421356237309243
10
47.476949872342502
20
-12.632308339673845
10
59.976949872342502
20
-12.632308339673823
42
0.41421356237308721
10
60.726949872342473
20
-11.882308339673852
10
60.726949872342509
20
0.61769166032614964
42
0.41421356237310269
10
59.976949872342487
20
1.3676916603261517
10
47.476949872342487
20
1.3676916603261446
42
0.41421356237309737
0
LWPOLYLINE
5
155
100
AcDbEntity
8
0
100
AcDbPolyline
90
8
70
1
43
0.0
10
141.97694987234254
20
0.61769166032614509
10
141.97694987234254
20
-11.882308339673859
42
0.4142135623730846
10
142.72694987234252
20
-12.632308339673855
10
155.22694987234252
20
-12.632308339673857
42
0.41421356237308293
10
155.97694987234252
20
-11.882308339673868
10
155.97694987234252
20
0.61769166032613887
42
0.41421356237309198
10
155.22694987234252
20
1.3676916603261333
10
142.72694987234252
20
1.3676916603261347
42
0.41421356237309037
0
LWPOLYLINE
5
156
100
AcDbEntity
8
0
100
AcDbPolyline
90
8
70
1
43
0.0
10
199.12694987234255
20
0.6176916603261362
10
199.12694987234255
20
-11.882308339673866
42
0.41421356237308721
10
199.87694987234252
20
-12.632308339673861
10
212.37694987234252
20
-12.632308339673843
42
0.41421356237308982
10
213.12694987234252
20
-11.882308339673868
10
213.12694987234249
20
0.61769166032613332
42
0.41421356237309198
10
212.37694987234252
20
1.3676916603260925
10
199.87694987234252
20
1.3676916603261295
42
0.41421356237308848
0
LWPOLYLINE
5
157
100
AcDbEntity
8
0
100
AcDbPolyline
90
8
70
1
43
0.0
10
203.88944987234251
20
-56.532308339673882
10
203.88944987234248
20
-69.032308339673875
42
0.41421356237311241
10
204.63944987234248
20
-69.782308339673932
10
217.13944987234248
20
-69.782308339673875
42
0.41421356237309503
10
217.88944987234254
20
-69.032308339673889
10
217.88944987234248
20
-56.532308339673889
42
0.41421356237309503
10
217.13944987234254
20
-55.782308339673925
10
204.63944987234254
20
-55.782308339673875
42
0.41421356237306733
0
LWPOLYLINE
5
158
100
AcDbEntity
8
0
100
AcDbPolyline
90
8
70
1
43
0.0
10
322.9519498723426
20
-18.432308339673892
10
322.95194987234254
20
-30.932308339673892
42
0.41421356237300488
10
323.70194987234254
20
-31.682308339673924
10
336.20194987234254
20
-31.682308339673888
42
0.41421356237302914
10
336.9519498723426
20
-30.932308339673888
10
336.95194987234254
20
-18.432308339673874
42
0.41421356237310281
10
336.20194987234254
20
-17.682308339673924
10
323.70194987234254
20
-17.682308339673899
42
0.41421356237303519
0
LWPOLYLINE
5
159
100
AcDbEntity
8
0
100
AcDbPolyline
90
8
70
1
43
0.0
10
361.8019498723425
20
-12.632308339673898
42
-0.41421356237308982
10
361.0519498723425
20
-11.882308339673884
10
361.05194987234245
20
0.61769166032611844
42
-0.41421356237311835
10
361.8019498723425
20
1.3676916603261118
10
374.3019498723425
20
1.3676916603261293
42
-0.41421356237308887
10
375.05194987234256
20
0.61769166032611622
10
375.05194987234256
20
-11.882308339673887
42
-0.414213562373141
10
374.3019498723425
20
-12.632308339673859
0
LWPOLYLINE
5
160
100
AcDbEntity
8
0
100
AcDbPolyline
90
8
70
1
43
0.0
10
249.13319987234252
20
-56.532308339673904
10
249.13319987234249
20
-69.032308339673904
42
0.41421356237309853
10
249.88319987234252
20
-69.782308339673932
10
262.38319987234252
20
-69.782308339673889
42
0.41421356237308815
10
263.13319987234257
20
-69.032308339673904
10
263.13319987234252
20
-56.532308339673904
42
0.41421356237306733
10
262.38319987234257
20
-55.782308339673946
10
249.88319987234257
20
-55.782308339673889
42
0.41421356237306733
0
LWPOLYLINE
5
161
100
AcDbEntity
8
0
100
AcDbPolyline
90
8
70
1
43
0.0
10
342.00194987234249
20
-75.582308339673887
10
342.00194987234249
20
-88.082308339673887
42
0.41421356237315748
10
342.75194987234249
20
-88.832308339673943
10
355.25194987234249
20
-88.832308339673915
42
0.41421356237309503
10
356.00194987234255
20
-88.082308339673887
10
356.00194987234255
20
-75.582308339673887
42
0.41421356237308815
10
355.25194987234249
20
-74.832308339673844
10
342.75194987234249
20
-74.832308339673887
42
0.41421356237312279
0
LWPOLYLINE
5
162
100
AcDbEntity
8
0
100
AcDbPolyline
90
8
70
1
43
0.0
10
165.78944987234249
20
-56.532308339673875
10
165.78944987234249
20
-69.032308339673875
42
0.41421356237308815
10
166.53944987234246
20
-69.782308339673861
10
179.03944987234246
20
-69.782308339673847
42
0.41421356237308815
10
179.78944987234252
20
-69.032308339673875
10
179.78944987234254
20
-56.532308339673875
42
0.41421356237309503
10
179.03944987234252
20
-55.782308339673847
10
166.53944987234252
20
-55.782308339673882
42
0.41421356237309159
0
LWPOLYLINE
5
163
100
AcDbEntity
8
0
100
AcDbPolyline
90
8
70
1
43
0.0
10
323.70194987234254
20
-12.632308339673896
42
-0.41421356237303436
10
322.95194987234254
20
-11.882308339673882
10
322.95194987234254
20
0.61769166032612499
42
-0.41421356237303381
10
323.70194987234254
20
1.3676916603261158
10
336.20194987234254
20
1.3676916603260945
42
-0.41421356237310153
10
336.95194987234254
20
0.61769166032612066
10
336.95194987234254
20
-11.882308339673884
42
-0.41421356237310025
10
336.20194987234254
20
-12.632308339673857
0
LWPOLYLINE
5
164
100
AcDbEntity
8
0
100
AcDbPolyline
90
8
70
1
43
0.0
10
80.064449872342493
20
-37.482308339673871
10
80.064449872342493
20
-49.982308339673878
42
0.4142135623730846
10
80.814449872342493
20
-50.732308339673878
10
93.314449872342479
20
-50.732308339673871
42
0.41421356237307422
10
94.064449872342493
20
-49.982308339673892
10
94.064449872342493
20
-37.482308339673878
42
0.41421356237309331
10
93.314449872342493
20
-36.732308339673885
10
80.814449872342493
20
-36.732308339673878
42
0.41421356237308293
0
LWPOLYLINE
5
165
100
AcDbEntity
8
0
100
AcDbPolyline
90
8
70
1
43
0.0
10
61.014449872342482
20
-37.482308339673871
10
61.01444987234251
20
-49.982308339673878
42
0.41421356237308116
10
61.764449872342496
20
-50.732308339673857
10
74.264449872342496
20
-50.732308339673871
42
0.4142135623730846
10
75.014449872342524
20
-49.982308339673878
10
75.014449872342496
20
-37.482308339673864
42
0.41421356237309331
10
74.264449872342496
20
-36.732308339673885
10
61.764449872342496
20
-36.732308339673871
42
0.41421356237309159
0
LWPOLYLINE
5
166
100
AcDbEntity
8
0
100
AcDbPolyline
90
8
70
1
43
0.0
10
180.07694987234254
20
0.61769166032613843
10
180.07694987234248
20
-11.882308339673866
42
0.41421356237309853
10
180.82694987234251
20
-12.632308339673862
10
193.32694987234251
20
-12.632308339673861
42
0.41421356237308721
10
194.07694987234251
20
-11.88230833967387
10
194.07694987234251
20
0.61769166032613532
42
0.41421356237308832
10
193.32694987234251
20
1.3676916603261295
10
180.82694987234251
20
1.3676916603261318
42
0.41421356237308798
0
LWPOLYLINE
5
167
100
AcDbEntity
8
0
100
AcDbPolyline
90
8
70
1
43
0.0
10
83.789449872342487
20
-55.782308339673861
10
71.289449872342502
20
-55.782308339673861
42
0.41421356237309503
10
70.539449872342487
20
-56.532308339673875
10
70.539449872342502
20
-69.032308339673875
42
0.41421356237308815
10
71.289449872342502
20
-69.782308339673889
10
83.789449872342487
20
-69.782308339673889
42
0.41421356237307771
10
84.539449872342502
20
-69.032308339673875
10
84.539449872342502
20
-56.532308339673882
42
0.41421356237308815
0
LWPOLYLINE
5
168
100
AcDbEntity
8
0
100
AcDbPolyline
90
8
70
1
43
0.0
10
126.05819987234253
20
-88.832308339673872
42
-0.41421356237308116
10
125.30819987234253
20
-88.082308339673872
10
125.3081998723425
20
-75.582308339673844
42
-0.41421356237309159
10
126.05819987234253
20
-74.832308339673858
10
148.0831998723425
20
-74.832308339673858
42
-0.41421356237309159
10
148.8331998723425
20
-75.582308339673872
10
148.8331998723425
20
-88.082308339673887
42
-0.41421356237308815
10
148.08319987234253
20
-88.832308339673887
0
LWPOLYLINE
5
169
100
AcDbEntity
8
0
100
AcDbPolyline
90
8
70
1
43
0.0
10
263.4206998723426
20
-37.482308339673892
10
263.42069987234254
20
-49.982308339673907
42
0.41421356237310897
10
264.17069987234254
20
-50.732308339673921
10
276.67069987234254
20
-50.732308339673892
42
0.41421356237309503
10
277.42069987234254
20
-49.982308339673892
10
277.4206998723426
20
-37.482308339673885
42
0.41421356237311063
10
276.67069987234254
20
-36.732308339673864
10
264.17069987234254
20
-36.732308339673878
42
0.41421356237306034
0
LWPOLYLINE
5
170
100
AcDbEntity
8
0
100
AcDbPolyline
90
8
70
1
43
0.0
10
289.41444987234257
20
-17.682308339673902
10
288.91444987234252
20
-17.682308339673902
42
0.41421356237309592
10
288.16444987234252
20
-18.432308339673895
10
288.16444987234252
20
-30.932308339673899
42
0.41421356237309681
10
288.91444987234252
20
-31.682308339673895
10
289.41444987234257
20
-31.682308339673895
42
0.41421356237309853
10
290.16444987234257
20
-30.932308339673895
10
290.16444987234257
20
-18.432308339673895
42
0.41421356237309592
0
LWPOLYLINE
5
171
100
AcDbEntity
8
0
100
AcDbPolyline
90
8
70
1
43
0.0
10
222.93944987234252
20
-56.532308339673889
10
222.93944987234252
20
-69.032308339673889
42
0.41421356237309853
10
223.68944987234249
20
-69.782308339673889
10
236.18944987234249
20
-69.782308339673889
42
0.41421356237309853
10
236.93944987234255
20
-69.032308339673889
10
236.93944987234249
20
-56.532308339673889
42
0.41421356237309503
10
236.18944987234255
20
-55.782308339673882
10
223.68944987234255
20
-55.782308339673889
42
0.41421356237307771
0
LWPOLYLINE
5
172
100
AcDbEntity
8
0
100
AcDbPolyline
90
8
70
1
43
0.0
10
161.02694987234256
20
0.61769166032614065
10
161.02694987234256
20
-11.882308339673866
42
0.41421356237309503
10
161.77694987234253
20
-12.632308339673859
10
174.27694987234253
20
-12.632308339673861
42
0.41421356237310719
10
175.0269498723425
20
-11.88230833967387
10
175.02694987234253
20
0.61769166032613698
42
0.41421356237307994
10
174.27694987234253
20
1.3676916603261668
10
161.77694987234253
20
1.3676916603261335
42
0.4142135623730947
0
LWPOLYLINE
5
173
100
AcDbEntity
8
0
100
AcDbPolyline
90
8
70
1
43
0.0
10
355.25194987234249
20
1.3676916603261131
10
342.75194987234249
20
1.3676916603261144
42
0.41421356237311735
10
342.00194987234249
20
0.61769166032612288
10
342.00194987234249
20
-11.882308339673884
42
0.41421356237308982
10
342.75194987234249
20
-12.632308339673878
10
355.25194987234249
20
-12.632308339673875
42
0.41421356237311757
10
356.00194987234255
20
-11.882308339673884
10
356.00194987234255
20
0.61769166032611866
42
0.41421356237308876
0
LWPOLYLINE
5
174
100
AcDbEntity
8
0
100
AcDbPolyline
90
8
70
1
43
0.0
10
280.08944987234253
20
-80.344808339673861
10
280.08944987234253
20
-92.844808339673918
42
0.41421356237306733
10
280.83944987234247
20
-93.594808339673875
10
293.33944987234253
20
-93.594808339673904
42
0.41421356237306034
10
294.08944987234253
20
-92.844808339673904
10
294.08944987234253
20
-80.344808339673861
42
0.41421356237309503
10
293.33944987234253
20
-79.594808339673847
10
280.83944987234253
20
-79.594808339673875
42
0.41421356237308815
0
LWPOLYLINE
5
175
100
AcDbEntity
8
0
100
AcDbPolyline
90
8
70
1
43
0.0
10
227.70194987234248
20
-18.43230833967387
10
227.70194987234251
20
-30.932308339673874
42
0.41421356237310542
10
228.45194987234251
20
-31.682308339673835
10
240.95194987234251
20
-31.682308339673892
42
0.41421356237309681
10
241.70194987234251
20
-30.932308339673895
10
241.70194987234254
20
-18.432308339673888
42
0.41421356237312623
10
240.95194987234248
20
-17.68230833967386
10
228.45194987234248
20
-17.682308339673874
42
0.41421356237309159
0
LWPOLYLINE
5
176
100
AcDbEntity
8
0
100
AcDbPolyline
90
8
70
1
43
0.0
10
261.03944987234252
20
-80.344808339673904
10
261.03944987234252
20
-92.844808339673875
42
0.41421356237307422
10
261.78944987234252
20
-93.594808339673904
10
274.28944987234252
20
-93.594808339673889
42
0.41421356237306034
10
275.03944987234252
20
-92.844808339673875
10
275.03944987234252
20
-80.344808339673861
42
0.41421356237308815
10
274.28944987234252
20
-79.594808339673889
10
261.78944987234252
20
-79.594808339673889
42
0.41421356237307422
0
LWPOLYLINE
5
177
100
AcDbEntity
8
0
100
AcDbPolyline
90
8
70
1
43
0.0
10
137.21444987234253
20
-37.482308339673871
10
137.2144498723425
20
-49.982308339673878
42
0.41421356237309503
10
137.9644498723425
20
-50.732308339673899
10
150.4644498723425
20
-50.732308339673892
42
0.41421356237307771
10
151.21444987234247
20
-49.982308339673892
10
151.2144498723425
20
-37.482308339673878
42
0.41421356237309331
10
150.4644498723425
20
-36.732308339673878
10
137.9644498723425
20
-36.732308339673878
42
0.41421356237308293
0
LWPOLYLINE
5
178
100
AcDbEntity
8
0
100
AcDbPolyline
90
8
70
1
43
0.0
10
317.15194987234258
20
-17.682308339673906
10
304.65194987234258
20
-17.682308339673906
42
0.41421356237309764
10
303.90194987234258
20
-18.432308339673899
10
303.90194987234258
20
-30.932308339673902
42
0.41421356237309681
10
304.65194987234258
20
-31.682308339673895
10
317.15194987234258
20
-31.682308339673892
42
0.41421356237309331
10
317.90194987234253
20
-30.932308339673902
10
317.90194987234253
20
-18.432308339673892
42
0.41421356237309592
0
LWPOLYLINE
5
179
100
AcDbEntity
8
0
100
AcDbPolyline
90
8
70
1
43
0.0
10
342.00194987234249
20
-37.482308339673899
10
342.00194987234249
20
-49.982308339673907
42
0.41421356237308815
10
342.75194987234249
20
-50.732308339673907
10
355.25194987234249
20
-50.732308339673899
42
0.41421356237308815
10
356.00194987234255
20
-49.982308339673899
10
356.00194987234255
20
-37.482308339673899
42
0.41421356237308815
10
355.25194987234249
20
-36.732308339673907
10
342.75194987234249
20
-36.732308339673907
42
0.41421356237311757
0
LWPOLYLINE
5
180
100
AcDbEntity
8
0
100
AcDbPolyline
90
8
70
1
43
0.0
10
208.65194987234253
20
-18.432308339673884
10
208.6519498723425
20
-30.932308339673888
42
0.41421356237309853
10
209.40194987234253
20
-31.682308339673924
10
221.90194987234253
20
-31.682308339673888
42
0.41421356237306034
10
222.65194987234253
20
-30.932308339673877
10
222.6519498723425
20
-18.432308339673867
42
0.41421356237309331
10
221.90194987234253
20
-17.682308339673909
10
209.40194987234253
20
-17.682308339673874
42
0.41421356237306212
0
LWPOLYLINE
5
181
100
AcDbEntity
8
0
100
AcDbPolyline
90
8
70
1
43
0.0
10
122.9269498723425
20
0.61769166032612732
10
122.92694987234253
20
-11.882308339673875
42
0.41421356237308554
10
123.67694987234252
20
-12.632308339673875
10
136.1769498723425
20
-12.632308339673852
42
0.41421356237308815
10
136.9269498723425
20
-11.88230833967388
10
136.9269498723425
20
0.61769166032612299
42
0.41421356237308482
10
136.1769498723425
20
1.3676916603261176
10
123.67694987234252
20
1.3676916603261369
42
0.41421356237308582
0
LWPOLYLINE
5
182
100
AcDbEntity
8
0
100
AcDbPolyline
90
8
70
1
43
0.0
10
280.08944987234253
20
-61.294808339673892
10
280.08944987234253
20
-73.794808339673892
42
0.41421356237309159
10
280.83944987234253
20
-74.544808339673835
10
293.33944987234253
20
-74.544808339673878
42
0.4142135623730846
10
294.08944987234253
20
-73.794808339673907
10
294.08944987234258
20
-61.294808339673907
42
0.41421356237311241
10
293.33944987234253
20
-60.544808339673864
10
280.83944987234253
20
-60.544808339673899
42
0.41421356237309159
0
LWPOLYLINE
5
183
100
AcDbEntity
8
0
100
AcDbPolyline
90
8
70
1
43
0.0
10
103.87694987234249
20
0.61769166032612954
10
103.87694987234252
20
-11.882308339673875
42
0.41421356237308554
10
104.62694987234251
20
-12.632308339673868
10
117.12694987234251
20
-12.632308339673855
42
0.41421356237310802
10
117.87694987234249
20
-11.882308339673882
10
117.87694987234249
20
0.61769166032612499
42
0.41421356237309198
10
117.12694987234251
20
1.3676916603261193
10
104.62694987234251
20
1.3676916603261384
42
0.41421356237308571
0
LWPOLYLINE
5
184
100
AcDbEntity
8
0
100
AcDbPolyline
90
8
70
1
43
0.0
10
113.40194987234248
20
-18.432308339673874
10
113.40194987234248
20
-30.932308339673888
42
0.41421356237309853
10
114.1519498723425
20
-31.682308339673881
10
126.6519498723425
20
-31.682308339673888
42
0.41421356237309331
10
127.4019498723425
20
-30.932308339673892
10
127.4019498723425
20
-18.432308339673877
42
0.41421356237309936
10
126.6519498723425
20
-17.682308339673884
10
114.1519498723425
20
-17.682308339673877
42
0.41421356237308637
0
LWPOLYLINE
5
185
100
AcDbEntity
8
0
100
AcDbPolyline
90
8
70
1
43
0.0
10
303.90194987234258
20
0.61769166032612954
10
303.90194987234258
20
-11.882308339673877
42
0.41421356237309503
10
304.65194987234258
20
-12.632308339673875
10
317.15194987234258
20
-12.632308339673875
42
0.4142135623730942
10
317.90194987234253
20
-11.882308339673884
10
317.90194987234258
20
0.61769166032612233
42
0.41421356237311252
10
317.15194987234258
20
1.3676916603261515
10
304.65194987234258
20
1.3676916603261184
42
0.41421356237309365
0
LWPOLYLINE
5
186
100
AcDbEntity
8
0
100
AcDbPolyline
90
8
70
1
43
0.0
10
34.820699872342495
20
-75.582308339673872
10
34.82069987234248
20
-88.082308339673872
42
0.41421356237310719
10
35.570699872342487
20
-88.832308339673915
10
48.070699872342495
20
-88.832308339673901
42
0.41421356237310897
10
48.820699872342487
20
-88.082308339673858
10
48.820699872342495
20
-75.582308339673844
42
0.41421356237310542
10
48.070699872342487
20
-74.83230833967383
10
35.570699872342487
20
-74.832308339673858
42
0.41421356237309853
0
LWPOLYLINE
5
187
100
AcDbEntity
8
0
100
AcDbPolyline
90
8
70
1
43
0.0
10
132.45194987234251
20
-18.432308339673881
10
132.45194987234248
20
-30.932308339673881
42
0.41421356237310719
10
133.20194987234251
20
-31.682308339673895
10
145.70194987234251
20
-31.682308339673902
42
0.41421356237310542
10
146.45194987234254
20
-30.932308339673888
10
146.45194987234251
20
-18.432308339673877
42
0.41421356237309243
10
145.70194987234254
20
-17.682308339673884
10
133.20194987234254
20
-17.682308339673877
42
0.41421356237308815
0
LWPOLYLINE
5
188
100
AcDbEntity
8
0
100
AcDbPolyline
90
8
70
1
43
0.0
10
232.46444987234253
20
-75.582308339673887
10
232.46444987234247
20
-88.082308339673872
42
0.41421356237312978
10
233.21444987234256
20
-88.832308339673915
10
245.71444987234256
20
-88.832308339673872
42
0.41421356237306733
10
246.46444987234253
20
-88.082308339673887
10
246.4644498723425
20
-75.582308339673887
42
0.41421356237310542
10
245.71444987234253
20
-74.832308339673915
10
233.21444987234253
20
-74.832308339673887
42
0.41421356237306034
0
LWPOLYLINE
5
189
100
AcDbEntity
8
0
100
AcDbPolyline
90
8
70
1
43
0.0
10
84.82694987234251
20
0.61769166032613398
10
84.826949872342482
20
-11.882308339673873
42
0.41421356237308721
10
85.576949872342496
20
-12.63230833967387
10
98.076949872342496
20
-12.632308339673873
42
0.4142135623730846
10
98.826949872342482
20
-11.88230833967388
10
98.826949872342482
20
0.61769166032612666
42
0.41421356237309198
10
98.076949872342496
20
1.3676916603261211
10
85.576949872342496
20
1.3676916603261229
42
0.41421356237308299
0
LWPOLYLINE
5
190
100
AcDbEntity
8
0
100
AcDbPolyline
90
8
70
1
43
0.0
10
33.370699872342485
20
-37.482308339673871
10
33.370699872342492
20
-49.982308339673878
42
0.41421356237308637
10
34.120699872342492
20
-50.732308339673892
10
34.620699872342492
20
-50.732308339673864
42
0.41421356237309503
10
35.370699872342485
20
-49.982308339673878
10
35.370699872342499
20
-37.482308339673864
42
0.41421356237309681
10
34.620699872342499
20
-36.732308339673864
10
34.120699872342499
20
-36.73230833967385
42
0.41421356237310197
0
LWPOLYLINE
5
191
100
AcDbEntity
8
0
100
AcDbPolyline
90
8
70
1
43
0.0
10
237.97694987234252
20
-12.632308339673866
42
-0.41421356237310197
10
237.22694987234249
20
-11.882308339673891
10
237.22694987234249
20
0.61769166032611833
42
-0.41421356237308626
10
237.97694987234249
20
1.3676916603261065
10
250.47694987234249
20
1.3676916603261056
42
-0.41421356237310897
10
251.22694987234252
20
0.61769166032611178
10
251.22694987234252
20
-11.882308339673898
42
-0.4142135623730942
10
250.47694987234252
20
-12.632308339673887
0
LWPOLYLINE
5
192
100
AcDbEntity
8
0
100
AcDbPolyline
90
8
70
1
43
0.0
10
232.46444987234256
20
-37.482308339673892
10
232.46444987234253
20
-49.982308339673899
42
0.41421356237310897
10
233.21444987234258
20
-50.732308339673907
10
245.71444987234258
20
-50.732308339673878
42
0.41421356237309503
10
246.46444987234258
20
-49.982308339673892
10
246.46444987234253
20
-37.482308339673878
42
0.41421356237307599
10
245.71444987234256
20
-36.732308339673921
10
233.21444987234256
20
-36.732308339673878
42
0.41421356237306034
0
LWPOLYLINE
5
193
100
AcDbEntity
8
0
100
AcDbPolyline
90
8
70
1
43
0.0
10
108.63944987234245
20
-56.532308339673882
10
108.63944987234247
20
-69.032308339673875
42
0.41421356237309853
10
109.38944987234248
20
-69.782308339673889
10
121.88944987234248
20
-69.782308339673847
42
0.41421356237307422
10
122.63944987234248
20
-69.032308339673861
10
122.63944987234248
20
-56.532308339673854
42
0.41421356237309503
10
121.88944987234245
20
-55.782308339673833
10
109.38944987234245
20
-55.782308339673875
42
0.41421356237310542
0
LWPOLYLINE
5
194
100
AcDbEntity
8
0
100
AcDbPolyline
90
8
70
1
43
0.0
10
226.8644498723425
20
-75.582308339673872
10
226.86444987234245
20
-88.082308339673858
42
0.41421356237310897
10
227.6144498723425
20
-88.832308339673943
10
228.1144498723425
20
-88.832308339673887
42
0.41421356237308815
10
228.86444987234245
20
-88.082308339673872
10
228.8644498723425
20
-75.582308339673887
42
0.41421356237307078
10
228.1144498723425
20
-74.832308339673844
10
227.6144498723425
20
-74.832308339673887
42
0.4142135623730534
0
LWPOLYLINE
5
195
100
AcDbEntity
8
0
100
AcDbPolyline
90
8
70
1
43
0.0
10
322.9519498723426
20
-75.582308339673887
10
322.95194987234254
20
-88.082308339673887
42
0.41421356237315748
10
323.70194987234254
20
-88.832308339673943
10
336.20194987234254
20
-88.832308339673915
42
0.41421356237303958
10
336.95194987234254
20
-88.082308339673887
10
336.95194987234254
20
-75.582308339673887
42
0.41421356237309853
10
336.20194987234254
20
-74.832308339673929
10
323.70194987234254
20
-74.832308339673887
42
0.41421356237303258
0
LWPOLYLINE
5
196
100
AcDbEntity
8
0
100
AcDbPolyline
90
8
70
1
43
0.0
10
118.16444987234247
20
-37.482308339673878
10
118.16444987234249
20
-49.982308339673878
42
0.41421356237310542
10
118.9144498723425
20
-50.732308339673857
10
131.41444987234249
20
-50.732308339673878
42
0.41421356237307771
10
132.16444987234249
20
-49.982308339673878
10
132.16444987234252
20
-37.482308339673864
42
0.41421356237310897
10
131.41444987234249
20
-36.732308339673864
10
118.91444987234249
20
-36.732308339673871
42
0.41421356237308637
0
LWPOLYLINE
5
197
100
AcDbEntity
8
0
100
AcDbPolyline
90
8
70
1
43
0.0
10
294.37684931118093
20
0.61769166032609846
10
294.37684931118093
20
-49.982308339673963
42
0.41421356237309503
10
295.12684931118099
20
-50.732308339673949
10
298.06711363667841
20
-50.732308339673963
42
0.41421356237309159
10
298.81711363667841
20
-49.98230833967397
10
298.81711363667841
20
0.61769166032609391
42
0.41421356237309492
10
298.06711363667841
20
1.3676916603261011
10
295.12684931118093
20
1.3676916603260891
42
0.41421356237309115
0
CIRCLE
5
198
100
AcDbEntity
8
0
100
AcDbCircle
10
133.94560675796481
20
7.0373608354772754
30
-4.4408920985006262e-15
40
1.1000000000000008
210
3.0296217893165602e-33
220
1.387778780781446e-17
230
1
0
CIRCLE
5
199
100
AcDbEntity
8
0
100
AcDbCircle
10
368.07552215796483
20
7.0373608354772452
30
-4.4408920985006262e-15
40
1.1000000000000008
210
3.0296217893165602e-33
220
1.387778780781446e-17
230
1
0
CIRCLE
5
200
100
AcDbEntity
8
0
100
AcDbCircle
10
249.25552215796483
20
-99.254712764523049
30
-4.4408920985006262e-15
40
1.1000000000000008
210
3.0296217893165602e-33
220
1.387778780781446e-17
230
1
0
CIRCLE
5
201
100
AcDbEntity
8
0
100
AcDbCircle
10
15.12553342355546
20
-99.254776273983495
30
-4.4408920985006262e-15
40
1.1000000000000008
210
3.0296217893165602e-33
220
1.387778780781446e-17
230
1
0
CIRCLE
5
202
100
AcDbEntity
8
0
100
AcDbCircle
10
82.945383692745168
20
-99.254712764523006
30
-4.4408920985006262e-15
40
1.1000000000000008
210
3.0296217893165602e-33
220
1.387778780781446e-17
230
1
0
CIRCLE
5
203
100
AcDbEntity
8
0
100
AcDbCircle
10
368.07544882355586
20
-99.25477627398358
30
-4.4408920985006262e-15
40
1.1000000000000008
210
3.0296217893165602e-33
220
1.387778780781446e-17
230
1
0
CIRCLE
5
204
100
AcDbEntity
8
0
100
AcDbCircle
10
249.25552215796486
20
7.0373608354772514
30
-4.4408920985006262e-15
40
1.1000000000000008
210
3.0296217893165602e-33
220
1.387778780781446e-17
230
1
0
LWPOLYLINE
5
205
100
AcDbEntity
8
0
100
AcDbPolyline
90
24
70
1
43
0.0
10
264.60194987234286
20
-12.632308339673914
10
281.00194987234289
20
-12.632308339673916
42
-0.41421356237281537
10
281.10194987234291
20
-12.732308339673908
10
281.10194987234291
20
-12.882308339673894
42
0.41421356237309592
10
281.85194987234291
20
-13.6323083396739
10
287.5519498723429
20
-13.632308339673893
42
0.41421356237309592
10
288.3019498723429
20
-12.882308339673894
10
288.3019498723429
20
-12.732308339673907
42
-0.41421356237278933
10
288.40194987234293
20
-12.632308339673919
10
288.57694987234288
20
-12.63230833967391
42
0.41421356237309681
10
289.32694987234288
20
-11.88230833967391
10
289.32694987234288
20
0.61769166032609868
42
0.41421356237309653
10
288.57694987234288
20
1.3676916603261007
10
257.02694987234287
20
1.3676916603261058
42
0.41421356237309398
10
256.27694987234287
20
0.61769166032610956
10
256.27694987234287
20
-11.8823083396739
42
0.41421356237309764
10
257.02694987234287
20
-12.632308339673898
10
257.20194987234288
20
-12.63230833967391
42
-0.41421356237280887
10
257.3019498723429
20
-12.732308339673899
10
257.3019498723429
20
-12.882308339673896
42
0.41421356237309764
10
258.0519498723429
20
-13.632308339673905
10
263.75194987234289
20
-13.632308339673902
42
0.4142135623730942
10
264.50194987234289
20
-12.882308339673907
10
264.50194987234289
20
-12.732308339673903
42
-0.41421356237281537
0
LWPOLYLINE
5
206
100
AcDbEntity
8
0
100
AcDbPolyline
90
8
70
1
43
0.0
10
42.714449872342477
20
-50.732308339673878
10
55.214449872342485
20
-50.732308339673878
42
0.41421356237309853
10
55.964449872342499
20
-49.982308339673871
10
55.964449872342492
20
-37.482308339673878
42
0.41421356237308982
10
55.214449872342485
20
-36.732308339673885
10
42.714449872342485
20
-36.73230833967385
42
0.41421356237311241
10
41.964449872342456
20
-37.482308339673871
10
41.964449872342477
20
-49.982308339673878
42
0.41421356237309503
0
ENDSEC
0
SECTION
2
OBJECTS
0
DICTIONARY
5
C
100
AcDbDictionary
3
ACAD_GROUP
350
D
3
ACAD_MLINESTYLE
350
17
0
DICTIONARY
5
D
100
AcDbDictionary
0
DICTIONARY
5
1A
330
C
100
AcDbDictionary
0
DICTIONARY
5
17
100
AcDbDictionary
0
ENDSEC
0
EOF
