0
SECTION
2
HEADER
9
$INSUNITS
70
4
9
$ACADVER
1
AC1014
9
$HANDSEED
5
FFFF
0
ENDSEC
0
SECTION
2
TABLES
0
TABLE
2
VPORT
5
8
100
AcDbSymbolTable
0
ENDTAB
0
TABLE
2
LTYPE
5
5
100
AcDbSymbolTable
0
LTYPE
5
14
100
AcDbSymbolTableRecord
100
AcDbLinetypeTableRecord
2
BYBLOCK
70
0
0
LTYPE
5
15
100
AcDbSymbolTableRecord
100
AcDbLinetypeTableRecord
2
BYLAYER
70
0
0
ENDTAB
0
TABLE
2
LAYER
5
2
100
AcDbSymbolTable
70
2
0
LAYER
5
50
100
AcDbSymbolTableRecord
100
AcDbLayerTableRecord
2
0
70
0
6
CONTINUOUS
0
ENDTAB
0
TABLE
2
STYLE
5
3
100
AcDbSymbolTable
70
1
0
STYLE
5
11
100
AcDbSymbolTableRecord
100
AcDbTextStyleTableRecord
2
STANDARD
70
0
0
ENDTAB
0
TABLE
2
VIEW
5
6
100
AcDbSymbolTable
70
0
0
ENDTAB
0
TABLE
2
UCS
5
7
100
AcDbSymbolTable
70
0
0
ENDTAB
0
TABLE
2
APPID
5
9
100
AcDbSymbolTable
70
2
0
APPID
5
12
100
AcDbSymbolTableRecord
100
AcDbRegAppTableRecord
2
ACAD
70
0
0
ENDTAB
0
TABLE
2
DIMSTYLE
5
A
100
AcDbSymbolTable
70
1
0
ENDTAB
0
TABLE
2
BLOCK_RECORD
5
1
100
AcDbSymbolTable
70
1
0
BLOCK_RECORD
5
1F
100
AcDbSymbolTableRecord
100
AcDbBlockTableRecord
2
*MODEL_SPACE
0
BLOCK_RECORD
5
1B
100
AcDbSymbolTableRecord
100
AcDbBlockTableRecord
2
*PAPER_SPACE
0
ENDTAB
0
ENDSEC
0
SECTION
2
BLOCKS
0
BLOCK
5
20
100
AcDbEntity
100
AcDbBlockBegin
2
*MODEL_SPACE
0
ENDBLK
5
21
100
AcDbEntity
100
AcDbBlockEnd
0
BLOCK
5
1C
100
AcDbEntity
100
AcDbBlockBegin
2
*PAPER_SPACE
0
ENDBLK
5
1D
100
AcDbEntity
100
AcDbBlockEnd
0
ENDSEC
0
SECTION
2
ENTITIES
0
LWPOLYLINE
5
100
100
AcDbEntity
8
0
100
AcDbPolyline
90
8
70
1
43
0.0
10
19.233199872342446
20
-70.032308339673961
42
-0.41421356237308293
10
18.483199872342478
20
-70.782308339673975
10
12.78319987234247
20
-70.782308339673989
42
-0.41421356237307161
10
12.033199872342477
20
-70.032308339673961
10
12.033199872342472
20
-57.532308339673968
42
-0.41421356237308898
10
12.783199872342468
20
-56.782308339673975
10
18.483199872342478
20
-56.782308339673975
42
-0.41421356237309243
10
19.233199872342468
20
-57.532308339673961
0
LWPOLYLINE
5
101
100
AcDbEntity
8
0
100
AcDbPolyline
90
8
70
1
43
0.0
10
43.033199872342493
20
-70.032308339673975
42
-0.41421356237306733
10
42.283199872342514
20
-70.782308339673975
10
36.583199872342504
20
-70.782308339673989
42
-0.41421356237307599
10
35.833199872342504
20
-70.032308339673989
10
35.833199872342519
20
-57.532308339673989
42
-0.41421356237310542
10
36.583199872342497
20
-56.782308339673975
10
42.283199872342514
20
-56.782308339673982
42
-0.41421356237310197
10
43.033199872342507
20
-57.532308339673975
0
LWPOLYLINE
5
102
100
AcDbEntity
8
0
100
AcDbPolyline
90
72
70
1
43
0.0
10
20.165419288200894
20
5.347139293067837
10
128.83086541863992
20
5.3471392930678245
42
0.26794919243112886
10
130.56291622620893
20
6.3471392930678041
10
131.33079208423101
20
7.6771392930677349
42
-0.26794919243113191
10
133.0628428917999
20
8.6771392930677926
10
134.7534418150409
20
8.6771392930679081
42
-0.26794919243113141
10
136.48549262260991
20
7.6771392930677926
10
137.25336848063202
20
6.3471392930678663
42
0.2679491924311303
10
138.98541928820092
20
5.3471392930678228
10
244.14078081863994
20
5.3471392930678014
42
0.26794919243112869
10
245.87283162620892
20
6.3471392930677997
10
246.64070748423103
20
7.6771392930677091
42
-0.26794919243112131
10
248.37275829179993
20
8.6771392930677589
10
250.06335721504092
20
8.6771392930678601
42
-0.26794919243114929
10
251.79540802260993
20
7.67713929306775
10
252.56328388063201
20
6.3471392930678485
42
0.26794919243113463
10
254.29533468820097
20
5.3471392930678086
10
362.96078081863993
20
5.3471392930677872
42
0.26794919243113008
10
364.692831626209
20
6.3471392930677766
10
365.46070748423108
20
7.6771392930677171
42
-0.26794919243112858
10
367.19275829179998
20
8.6771392930677891
10
368.88335721504097
20
8.6771392930678743
42
-0.26794919243112569
10
370.61540802260998
20
7.6771392930677855
10
371.38328388063206
20
6.3471392930678601
42
0.26794919243113524
10
373.11533468820102
20
5.3471392930677943
10
376.51505775341997
20
5.3471392930677473
42
-0.41421356237307716
10
377.51505775341997
20
4.3471392930677943
10
377.51505775342076
20
-96.614934306932
42
-0.41421356237307422
10
376.51505775341997
20
-97.61493430693271
10
373.11540802260998
20
-97.614934306932213
42
0.26794919243115878
10
371.38335721504097
20
-98.61493430693244
10
370.61540802260959
20
-99.94506132585434
42
-0.26794919243115878
10
368.88335721504097
20
-100.94506132585434
10
367.19275829179998
20
-100.94506132585481
42
-0.26794919243117188
10
365.46070748423097
20
-99.945061325854596
10
364.69275829179998
20
-98.61493430693244
42
0.26794919243115878
10
362.96070748423097
20
-97.61493430693271
10
254.29533468820091
20
-97.614934306932199
42
0.26794919243115878
10
252.5632838806319
20
-98.614934306932426
10
251.79540802260993
20
-99.944934306932609
42
-0.2679491924310573
10
250.0633572150409
20
-100.94493430693234
10
248.37275829179993
20
-100.94493430693234
42
-0.26794919243104554
10
246.64070748423097
20
-99.944934306932652
10
245.87283162620892
20
-98.614934306932412
42
0.26794919243115678
10
244.14078081863991
20
-97.61493430693271
10
87.985419288200973
20
-97.614934306932156
42
0.26794919243115256
10
86.253368480632076
20
-98.614934306932412
10
85.485492622609925
20
-99.944934306932609
42
-0.26794919243104054
10
83.753441815040972
20
-100.94493430693232
10
82.062842891799477
20
-100.94493430693227
42
-0.26794919243103954
10
80.33079208423058
20
-99.944934306932623
10
79.562916226208458
20
-98.614934306932355
42
0.26794919243113691
10
77.830865418639561
20
-97.614934306932653
10
20.165492622609857
20
-97.614934306932184
42
0.26794919243115151
10
18.433441815040958
20
-98.614934306932412
10
17.665492622609516
20
-99.945061325854354
42
-0.2679491924311575
10
15.933441815040954
20
-100.9450613258543
10
14.242842891799459
20
-100.94506132585462
42
-0.26794919243114557
10
12.510792084230655
20
-99.945061325854567
10
11.742842891799549
20
-98.614934306932369
42
0.26794919243115367
10
10.010792084230555
20
-97.614934306932668
10
7.0901423534202648
20
-97.614934306931957
42
-0.41421356237309404
10
6.0901423534202639
20
-96.614934306931971
10
6.0901423534202888
20
4.3471392930678254
42
-0.41421356237309587
10
7.090142353420303
20
5.347139293067837
10
10.010865418639574
20
5.3471392930678299
42
0.26794919243111703
10
11.742916226208372
20
6.3471392930678272
10
12.510792084230591
20
7.6771392930678175
42
-0.26794919243112525
10
14.242842891799476
20
8.6771392930678299
10
15.933441815040974
20
8.6771392930678495
42
-0.26794919243112347
10
17.665492622609875
20
7.6771392930678273
10
18.433368480632012
20
6.3471392930678032
42
0.26794919243112103
0
LWPOLYLINE
5
103
100
AcDbEntity
8
0
100
AcDbPolyline
90
8
70
1
43
0.0
10
22.089708533017571
20
1.3424701179166234
10
9.0897085330176033
20
1.3424701179166252
42
0.41421356237309198
10
8.5897085330176033
20
0.84247011791663162
10
8.5897085330176015
20
-12.157529882083331
42
0.41421356237309243
10
9.0897085330176015
20
-12.657529882083393
10
22.089708533017571
20
-12.657529882083328
42
0.4142135623730937
10
22.589708533017575
20
-12.157529882083329
10
22.589708533017575
20
0.84247011791663429
42
0.41421356237308737
0
LWPOLYLINE
5
104
100
AcDbEntity
8
0
100
AcDbPolyline
90
8
70
1
43
0.0
10
29.233458533017576
20
-36.757529882083411
10
10.633458533017565
20
-36.757529882083411
42
0.41421356237310025
10
10.133458533017565
20
-37.257529882083396
10
10.133458533017563
20
-50.257529882083453
42
0.41421356237310281
10
10.633458533017563
20
-50.757529882083418
10
29.233458533017572
20
-50.757529882083446
42
0.41421356237307683
10
29.733458533017568
20
-50.257529882083453
10
29.733458533017568
20
-37.257529882083396
42
0.41421356237310281
0
LWPOLYLINE
5
105
100
AcDbEntity
8
0
100
AcDbPolyline
90
8
70
1
43
0.0
10
13.852208533017571
20
-31.707529882083403
10
26.852208533017574
20
-31.707529882083403
42
0.41421356237309503
10
27.352208533017574
20
-31.207529882083335
10
27.352208533017574
20
-18.207529882083392
42
0.41421356237310025
10
26.852208533017574
20
-17.707529882083417
10
13.852208533017569
20
-17.707529882083385
42
0.41421356237310153
10
13.352208533017569
20
-18.207529882083399
10
13.352208533017567
20
-31.207529882083442
42
0.41421356237303647
0
CIRCLE
5
106
100
AcDbEntity
8
0
100
AcDbCircle
10
15.088365418639576
20
7.0121392930678272
30
0
40
1.1000000000000008
210
-3.0814879110195774e-33
220
5.3603826824215315e-49
230
1
0
LWPOLYLINE
5
107
100
AcDbEntity
8
0
100
AcDbPolyline
90
8
70
1
43
0.0
10
41.139708533017583
20
1.3424701179166214
10
28.139708533017579
20
1.3424701179166341
42
0.41421356237309359
10
27.639708533017576
20
0.84247011791663606
10
27.639708533017576
20
-12.157529882083328
42
0.41421356237310153
10
28.139708533017583
20
-12.657529882083395
10
41.139708533017583
20
-12.657529882083331
42
0.41421356237309631
10
41.639708533017583
20
-12.157529882083331
10
41.639708533017583
20
0.84247011791663173
42
0.41421356237309709
0
LWPOLYLINE
5
108
100
AcDbEntity
8
0
100
AcDbPolyline
90
15
70
1
43
0.0
10
73.10111587686697
20
-87.858741800925031
10
75.589708533017642
20
-87.858741800925031
42
0.41421356237309503
10
76.339708533017657
20
-87.108741800925031
10
76.339708533017642
20
-74.607529882083469
42
0.40448201821030633
10
75.614708533017577
20
-73.857946664555215
10
75.614708533017577
20
-73.857529882083398
10
69.889708533017625
20
-73.857529882083469
42
0.31783724519559836
10
69.182601751831953
20
-74.357529882083327
42
-0.31783724519561846
10
68.475494970644888
20
-74.857529882083412
10
31.452208533017568
20
-74.857529882083384
42
0.41421356237311585
10
30.952208533017572
20
-75.357529882083426
10
30.952208533017568
20
-88.357529882083355
42
0.41421356237307683
10
31.452208533017565
20
-88.857529882083327
10
72.13590740017969
20
-88.85752988208344
42
0.3939606827247274
10
72.601115876866984
20
-88.358741800925102
42
-0.41421356237312101
0
LWPOLYLINE
5
109
100
AcDbEntity
8
0
100
AcDbPolyline
90
8
70
1
43
0.0
10
264.13345853301797
20
-50.757529882083432
10
276.63345853301797
20
-50.757529882083418
42
0.41421356237300833
10
277.38345853301797
20
-50.007529882083432
10
277.38345853301797
20
-37.507529882083418
42
0.41421356237309681
10
276.63345853301797
20
-36.757529882083411
10
264.13345853301797
20
-36.757529882083425
42
0.41421356237309159
10
263.38345853301797
20
-37.507529882083411
10
263.38345853301797
20
-50.007529882083404
42
0.41421356237307771
0
LWPOLYLINE
5
110
100
AcDbEntity
8
0
100
AcDbPolyline
90
8
70
1
43
0.0
10
123.3897085330179
20
-88.857529882083327
10
145.91370853300191
20
-88.857529882083327
42
0.41421356237309503
10
146.41370853300191
20
-88.357529882083355
10
146.41370853300191
20
-75.357529882083313
42
0.41421356237309503
10
145.91370853300191
20
-74.857529882074999
10
123.3897085330179
20
-74.857529882083298
42
0.41421356237313145
10
122.88970853301791
20
-75.357529882083327
10
122.8897085330179
20
-88.357529882083384
42
0.41421356237309503
0
LWPOLYLINE
5
111
100
AcDbEntity
8
0
100
AcDbPolyline
90
20
70
1
43
0.0
10
361.01470853301799
20
-18.419529882083353
42
-0.41421356237319257
10
360.51470853301799
20
-18.919529882083353
42
0.41421356237319518
10
360.01470853301794
20
-19.419529882083371
10
360.01470853301805
20
-25.16952988208341
42
0.41421356237301699
10
360.51470853301799
20
-25.669529882083339
42
-0.4142135623731939
10
361.01470853301799
20
-26.169529882083339
10
361.01470853301805
20
-42.295529882083365
42
-0.41421356237318868
10
360.51470853301799
20
-42.7955298820834
42
0.41421356237319906
10
360.01470853301794
20
-43.295529882083407
10
360.01470853301805
20
-49.045529882083443
42
0.41421356237305862
10
360.51470853301805
20
-49.545529882083351
42
-0.41421356237316265
10
361.01470853301799
20
-50.045529882083372
10
361.01470853301799
20
-50.257529882083396
42
0.41421356237301177
10
361.51470853301794
20
-50.757529882083361
10
374.51470853301799
20
-50.757529882083389
42
0.41421356237311063
10
375.01470853301794
20
-50.257529882083389
10
375.01470853301794
20
-18.207529882083438
42
0.41421356237311324
10
374.51470853301799
20
-17.707529882083357
10
361.51470853301794
20
-17.707529882083428
42
0.41421356237319518
10
361.01470853301799
20
-18.207529882083435
0
LWPOLYLINE
5
112
100
AcDbEntity
8
0
100
AcDbPolyline
90
8
70
1
43
0.0
10
7.7522085330176003
20
-18.207529882083392
10
7.7522085330175985
20
-31.207529882083442
42
0.41421356237303392
10
8.2522085330175976
20
-31.707529882083399
10
9.2522085330176083
20
-31.707529882083332
42
0.41421356237303064
10
9.7522085330175674
20
-31.207529882083435
10
9.7522085330175994
20
-18.207529882083389
42
0.41421356237310281
10
9.2522085330175994
20
-17.707529882083421
10
8.2522085330175994
20
-17.707529882083382
42
0.41421356237310025
0
LWPOLYLINE
5
113
100
AcDbEntity
8
0
100
AcDbPolyline
90
8
70
1
43
0.0
10
289.62720853301795
20
-17.707529882083342
10
288.62720853301795
20
-17.707529882083342
42
0.41421356237305079
10
288.12720853301795
20
-18.207529882083421
10
288.12720853301795
20
-31.207529882083371
42
0.41421356237310025
10
288.62720853301795
20
-31.707529882083438
10
289.62720853301795
20
-31.707529882083367
42
0.41421356237305079
10
290.12720853301795
20
-31.20752988208336
10
290.12720853301795
20
-18.20752988208341
42
0.41421356237312362
0
LWPOLYLINE
5
114
100
AcDbEntity
8
0
100
AcDbPolyline
90
8
70
1
43
0.0
10
232.4272085330179
20
-75.357529882083327
10
232.4272085330179
20
-88.357529882083384
42
0.41421356237310542
10
232.92720853301796
20
-88.857529882083327
10
248.30845853301793
20
-88.857529882083369
42
0.4142135623730846
10
248.80845853301793
20
-88.357529882083384
10
248.80845853301793
20
-75.357529882083341
42
0.41421356237313667
10
248.30845853301787
20
-74.857529882083384
10
232.92720853301796
20
-74.857529882083313
42
0.4142135623730846
0
LWPOLYLINE
5
115
100
AcDbEntity
8
0
100
AcDbPolyline
90
8
70
1
43
0.0
10
280.05220853301796
20
-61.070029882083432
10
280.05220853301796
20
-74.070029882083375
42
0.41421356237301699
10
280.55220853301796
20
-74.570029882083361
10
293.55220853301796
20
-74.570029882083389
42
0.41421356237308982
10
294.05220853301796
20
-74.070029882083361
10
294.05220853301796
20
-61.070029882083425
42
0.41421356237311063
10
293.55220853301796
20
-60.570029882083361
10
280.55220853301796
20
-60.570029882083404
42
0.41421356237304302
0
LWPOLYLINE
5
116
100
AcDbEntity
8
0
100
AcDbPolyline
90
8
70
1
43
0.0
10
303.86470853301796
20
-56.307529882083429
10
303.86470853301796
20
-69.307529882083401
42
0.41421356237313145
10
304.36470853301796
20
-69.807529882083344
10
317.36470853301796
20
-69.807529882083386
42
0.41421356237304818
10
317.86470853301796
20
-69.307529882083401
10
317.86470853301796
20
-56.307529882083436
42
0.41421356237310025
10
317.36470853301796
20
-55.807529882083358
10
304.36470853301796
20
-55.807529882083429
42
0.41421356237307422
0
LWPOLYLINE
5
117
100
AcDbEntity
8
0
100
AcDbPolyline
90
8
70
1
43
0.0
10
322.91470853301797
20
-37.257529882083432
10
322.91470853301797
20
-50.257529882083389
42
0.41421356237301699
10
323.41470853301792
20
-50.757529882083446
10
336.41470853301797
20
-50.757529882083389
42
0.41421356237311063
10
336.91470853301792
20
-50.257529882083389
10
336.91470853301792
20
-37.257529882083432
42
0.41421356237311585
10
336.41470853301797
20
-36.757529882083354
10
323.41470853301792
20
-36.757529882083425
42
0.4142135623731939
0
LWPOLYLINE
5
118
100
AcDbEntity
8
0
100
AcDbPolyline
90
8
70
1
43
0.0
10
341.96470853301798
20
-18.207529882083428
10
341.96470853301798
20
-31.207529882083378
42
0.41421356237301699
10
342.46470853301793
20
-31.707529882083346
10
355.46470853301798
20
-31.707529882083378
42
0.41421356237311585
10
355.96470853301798
20
-31.207529882083371
10
355.96470853301798
20
-18.207529882083435
42
0.41421356237311324
10
355.46470853301798
20
-17.707529882083353
10
342.46470853301793
20
-17.707529882083421
42
0.41421356237319518
0
LWPOLYLINE
5
119
100
AcDbEntity
8
0
100
AcDbPolyline
90
8
70
1
43
0.0
10
303.86470853301796
20
0.8424701179166294
10
303.86470853301796
20
-12.157529882083365
42
0.41421356237313273
10
304.36470853301796
20
-12.657529882083335
10
317.36470853301796
20
-12.657529882083367
42
0.41421356237302481
10
317.86470853301796
20
-12.157529882083365
10
317.86470853301796
20
0.84247011791662929
42
0.41421356237310197
10
317.36470853301796
20
1.3424701179166298
10
304.36470853301796
20
1.342470117916631
42
0.41421356237307766
0
LWPOLYLINE
5
120
100
AcDbEntity
8
0
100
AcDbPolyline
90
8
70
1
43
0.0
10
212.5897085330179
20
1.3424701179166412
10
199.5897085330179
20
1.342470117916633
42
0.41421356237307566
10
199.08970853301787
20
0.84247011791663162
10
199.08970853301787
20
-12.157529882083349
42
0.41421356237313406
10
199.5897085330179
20
-12.657529882083319
10
212.5897085330179
20
-12.657529882083354
42
0.41421356237302609
10
213.0897085330179
20
-12.157529882083349
10
213.0897085330179
20
0.84247011791663062
42
0.41421356237310197
0
LWPOLYLINE
5
121
100
AcDbEntity
8
0
100
AcDbPolyline
90
8
70
1
43
0.0
10
122.88970853301792
20
0.84247011791663162
10
122.88970853301792
20
-12.15752988208334
42
0.41421356237309631
10
123.38970853301791
20
-12.657529882083409
10
136.38970853301794
20
-12.657529882083345
42
0.41421356237309503
10
136.88970853301791
20
-12.15752988208334
10
136.88970853301794
20
0.84247011791663096
42
0.41421356237309453
10
136.38970853301794
20
1.3424701179166323
10
123.38970853301791
20
1.3424701179166227
42
0.41421356237310342
0
LWPOLYLINE
5
122
100
AcDbEntity
8
0
100
AcDbPolyline
90
8
70
1
43
0.0
10
46.689708533017587
20
0.84247011791663162
10
46.689708533017587
20
-12.157529882083331
42
0.41421356237310281
10
47.189708533017594
20
-12.6575298820834
10
60.189708533017594
20
-12.657529882083336
42
0.41421356237309764
10
60.689708533017601
20
-12.157529882083333
10
60.689708533017594
20
0.84247011791662951
42
0.41421356237310231
10
60.189708533017587
20
1.3424701179166303
10
47.189708533017587
20
1.3424701179166316
42
0.41421356237309631
0
LWPOLYLINE
5
123
100
AcDbEntity
8
0
100
AcDbPolyline
90
8
70
1
43
0.0
10
65.739708533017591
20
0.84247011791662718
10
65.739708533017591
20
-12.157529882083335
42
0.41421356237309764
10
66.239708533017591
20
-12.657529882083402
10
79.239708533017591
20
-12.657529882083336
42
0.4142135623730937
10
79.739708533017591
20
-12.157529882083335
10
79.739708533017605
20
0.84247011791662785
42
0.4142135623730982
10
79.239708533017591
20
1.3424701179166392
10
66.239708533017591
20
1.3424701179166294
42
0.41421356237309764
0
LWPOLYLINE
5
124
100
AcDbEntity
8
0
100
AcDbPolyline
90
8
70
1
43
0.0
10
141.93970853301789
20
0.84247011791662718
10
141.93970853301789
20
-12.157529882083345
42
0.41421356237307555
10
142.43970853301792
20
-12.657529882083411
10
155.43970853301789
20
-12.657529882083345
42
0.4142135623730937
10
155.93970853301789
20
-12.157529882083342
10
155.93970853301789
20
0.84247011791663762
42
0.41421356237309254
10
155.43970853301789
20
1.342470117916629
10
142.43970853301792
20
1.3424701179166303
42
0.41421356237307555
0
LWPOLYLINE
5
125
100
AcDbEntity
8
0
100
AcDbPolyline
90
8
70
1
43
0.0
10
218.13970853301788
20
0.84247011791662718
10
218.13970853301788
20
-12.157529882083352
42
0.41421356237313406
10
218.63970853301791
20
-12.65752988208342
10
231.63970853301791
20
-12.657529882083356
42
0.41421356237302609
10
232.13970853301791
20
-12.157529882083352
10
232.13970853301791
20
0.8424701179166395
42
0.41421356237312001
10
231.63970853301791
20
1.3424701179166389
10
218.63970853301791
20
1.3424701179166298
42
0.41421356237307877
0
LWPOLYLINE
5
126
100
AcDbEntity
8
0
100
AcDbPolyline
90
8
70
1
43
0.0
10
322.91470853301797
20
0.84247011791662718
10
322.91470853301797
20
-12.157529882083367
42
0.41421356237302087
10
323.41470853301792
20
-12.657529882083336
10
336.41470853301797
20
-12.657529882083365
42
0.41421356237310802
10
336.91470853301792
20
-12.157529882083367
10
336.91470853301792
20
0.84247011791663617
42
0.41421356237301743
10
336.41470853301797
20
1.3424701179165979
10
323.41470853301792
20
1.3424701179166287
42
0.41421356237319384
0
LWPOLYLINE
5
127
100
AcDbEntity
8
0
100
AcDbPolyline
90
8
70
1
43
0.0
10
322.91470853301797
20
-18.207529882083417
10
322.91470853301797
20
-31.207529882083378
42
0.41421356237301699
10
323.41470853301792
20
-31.707529882083342
10
336.41470853301797
20
-31.707529882083367
42
0.41421356237311063
10
336.91470853301792
20
-31.207529882083371
10
336.91470853301792
20
-18.207529882083428
42
0.41421356237311324
10
336.41470853301797
20
-17.707529882083353
10
323.41470853301792
20
-17.707529882083421
42
0.41421356237319129
0
LWPOLYLINE
5
128
100
AcDbEntity
8
0
100
AcDbPolyline
90
8
70
1
43
0.0
10
341.96470853301798
20
-37.257529882083439
10
341.96470853301798
20
-50.257529882083396
42
0.41421356237301177
10
342.46470853301793
20
-50.757529882083361
10
355.46470853301798
20
-50.757529882083389
42
0.41421356237311063
10
355.96470853301798
20
-50.257529882083389
10
355.96470853301798
20
-37.257529882083432
42
0.41421356237311324
10
355.46470853301798
20
-36.757529882083354
10
342.46470853301793
20
-36.757529882083425
42
0.41421356237319906
0
LWPOLYLINE
5
129
100
AcDbEntity
8
0
100
AcDbPolyline
90
8
70
1
43
0.0
10
299.10220853301792
20
-80.120029882083358
10
299.10220853301792
20
-93.120029882083784
42
0.41421356237304302
10
299.60220853301792
20
-93.620029882083628
10
312.60220853301792
20
-93.62002988208377
42
0.41421356237307422
10
313.10220853301792
20
-93.120029882083784
10
313.10220853301792
20
-80.120029882083358
42
0.41421356237311585
10
312.60220853301792
20
-79.620029882083386
10
299.60220853301792
20
-79.62002988208333
42
0.41421356237310542
0
LWPOLYLINE
5
130
100
AcDbEntity
8
0
100
AcDbPolyline
90
8
70
1
43
0.0
10
249.09595853301792
20
-56.307529882083429
10
249.09595853301792
20
-69.307529882083386
42
0.41421356237312101
10
249.59595853301792
20
-69.807529882083344
10
262.59595853301795
20
-69.807529882083386
42
0.41421356237304302
10
263.09595853301795
20
-69.307529882083401
10
263.09595853301795
20
-56.307529882083429
42
0.41421356237310542
10
262.59595853301795
20
-55.807529882083351
10
249.59595853301792
20
-55.807529882083422
42
0.41421356237303258
0
LWPOLYLINE
5
131
100
AcDbEntity
8
0
100
AcDbPolyline
90
8
70
1
43
0.0
10
250.02720853301793
20
-75.357529882083327
10
250.02720853301793
20
-88.357529882083384
42
0.4142135623730534
10
250.52720853301793
20
-88.857529882083327
10
251.52720853301793
20
-88.857529882083369
42
0.4142135623730534
10
252.02720853301796
20
-88.357529882083384
10
252.02720853301796
20
-75.357529882083341
42
0.41421356237310542
10
251.52720853301793
20
-74.857529882083384
10
250.52720853301796
20
-74.857529882083313
42
0.4142135623730846
0
LWPOLYLINE
5
132
100
AcDbEntity
8
0
100
AcDbPolyline
90
8
70
1
43
0.0
10
264.92720853301796
20
-18.207529882083428
10
264.92720853301796
20
-31.207529882083378
42
0.41421356237313145
10
265.42720853301796
20
-31.707529882083435
10
266.42720853301796
20
-31.707529882083367
42
0.41421356237305079
10
266.92720853301796
20
-31.207529882083364
10
266.92720853301796
20
-18.207529882083413
42
0.41421356237310281
10
266.42720853301796
20
-17.707529882083335
10
265.42720853301796
20
-17.707529882083406
42
0.41421356237308721
0
LWPOLYLINE
5
133
100
AcDbEntity
8
0
100
AcDbPolyline
90
8
70
1
43
0.0
10
31.452208533017579
20
-31.707529882083332
42
-0.41421356237308982
10
30.952208533017579
20
-31.207529882083342
10
30.952208533017579
20
-18.207529882083392
42
-0.41421356237310542
10
31.452208533017579
20
-17.707529882083385
10
32.452208533017583
20
-17.707529882083385
42
-0.41421356237310025
10
32.952208533017576
20
-18.207529882083392
10
32.952208533017576
20
-31.207529882083335
42
-0.41421356237309503
10
32.452208533017583
20
-31.707529882083332
0
LWPOLYLINE
5
134
100
AcDbEntity
8
0
100
AcDbPolyline
90
8
70
1
43
0.0
10
10.97095853301756
20
-75.357529882083426
10
10.970958533017559
20
-88.357529882083355
42
0.41421356237306511
10
11.470958533017555
20
-88.857529882083313
10
26.85220853301756
20
-88.857529882083355
42
0.41421356237308721
10
27.352208533017563
20
-88.357529882083355
10
27.352208533017563
20
-75.357529882083426
42
0.41421356237310281
10
26.852208533017567
20
-74.857529882083355
10
11.470958533017559
20
-74.857529882083384
42
0.41421356237311063
0
LWPOLYLINE
5
135
100
AcDbEntity
8
0
100
AcDbPolyline
90
8
70
1
43
0.0
10
243.49595853301793
20
-56.307529882083429
10
243.49595853301793
20
-69.307529882083386
42
0.41421356237313145
10
243.99595853301793
20
-69.807529882083344
10
244.99595853301796
20
-69.807529882083386
42
0.41421356237307422
10
245.49595853301793
20
-69.307529882083401
10
245.49595853301796
20
-56.307529882083429
42
0.41421356237311585
10
244.99595853301796
20
-55.807529882083351
10
243.99595853301793
20
-55.807529882083422
42
0.4142135623730846
0
LWPOLYLINE
5
136
100
AcDbEntity
8
0
100
AcDbPolyline
90
8
70
1
43
0.0
10
261.00220853301795
20
-80.120029882083372
10
261.00220853301795
20
-93.120029882083799
42
0.4142135623730534
10
261.50220853301795
20
-93.620029882083657
10
274.50220853301795
20
-93.62002988208377
42
0.41421356237307422
10
275.00220853301795
20
-93.120029882083784
10
275.00220853301801
20
-80.120029882083358
42
0.41421356237311585
10
274.50220853301795
20
-79.620029882083386
10
261.50220853301795
20
-79.62002988208333
42
0.41421356237311585
0
LWPOLYLINE
5
137
100
AcDbEntity
8
0
100
AcDbPolyline
90
8
70
1
43
0.0
10
341.96470853301798
20
-75.357529882083355
10
341.96470853301798
20
-88.357529882083398
42
0.4142135623730222
10
342.46470853301793
20
-88.857529882083355
10
355.46470853301798
20
-88.857529882083384
42
0.41421356237306384
10
355.96470853301798
20
-88.357529882083384
10
355.96470853301798
20
-75.357529882083341
42
0.41421356237311585
10
355.46470853301798
20
-74.857529882083398
10
342.46470853301793
20
-74.857529882083327
42
0.41421356237313145
0
LWPOLYLINE
5
138
100
AcDbEntity
8
0
100
AcDbPolyline
90
8
70
1
43
0.0
10
322.91470853301797
20
-56.307529882083429
10
322.91470853301797
20
-69.307529882083401
42
0.41421356237301699
10
323.41470853301792
20
-69.807529882083358
10
336.41470853301797
20
-69.807529882083401
42
0.41421356237311063
10
336.91470853301792
20
-69.307529882083401
10
336.91470853301792
20
-56.307529882083436
42
0.41421356237312101
10
336.41470853301797
20
-55.807529882083458
10
323.41470853301792
20
-55.807529882083429
42
0.4142135623731939
0
LWPOLYLINE
5
139
100
AcDbEntity
8
0
100
AcDbPolyline
90
8
70
1
43
0.0
10
304.36470853301796
20
-50.757529882083389
42
-0.41421356237313145
10
303.86470853301796
20
-50.257529882083389
10
303.8647085330179
20
-37.257529882083432
42
-0.41421356237308204
10
304.36470853301796
20
-36.757529882083418
10
317.36470853301796
20
-36.757529882083396
42
-0.41421356237310802
10
317.86470853301796
20
-37.257529882083425
10
317.86470853301796
20
-50.257529882083389
42
-0.41421356237304818
10
317.36470853301796
20
-50.757529882083375
0
LWPOLYLINE
5
140
100
AcDbEntity
8
0
100
AcDbPolyline
90
8
70
1
43
0.0
10
361.51470853301794
20
-12.657529882083356
42
-0.41421356237302087
10
361.01470853301799
20
-12.157529882083368
10
361.01470853301799
20
0.84247011791663384
42
-0.41421356237319029
10
361.51470853301794
20
1.3424701179166243
10
374.51470853301799
20
1.3424701179166161
42
-0.41421356237301948
10
375.01470853301794
20
0.84247011791663162
10
375.01470853301794
20
-12.15752988208337
42
-0.41421356237311063
10
374.51470853301799
20
-12.657529882083372
0
LWPOLYLINE
5
141
100
AcDbEntity
8
0
100
AcDbPolyline
90
8
70
1
43
0.0
10
180.03970853301792
20
0.84247011791663606
10
180.03970853301792
20
-12.157529882083345
42
0.41421356237312362
10
180.53970853301792
20
-12.657529882083411
10
193.53970853301792
20
-12.657529882083349
42
0.41421356237307683
10
194.03970853301792
20
-12.157529882083347
10
194.03970853301792
20
0.8424701179166334
42
0.41421356237313106
10
193.53970853301792
20
1.3424701179166334
10
180.53970853301792
20
1.3424701179166258
42
0.41421356237304313
0
LWPOLYLINE
5
142
100
AcDbEntity
8
0
100
AcDbPolyline
90
8
70
1
43
0.0
10
103.8397085330179
20
0.84247011791663606
10
103.8397085330179
20
-12.157529882083335
42
0.41421356237307555
10
104.33970853301788
20
-12.657529882083406
10
117.3397085330179
20
-12.65752988208334
42
0.41421356237307294
10
117.83970853301788
20
-12.157529882083338
10
117.8397085330179
20
0.8424701179166334
42
0.41421356237307144
10
117.3397085330179
20
1.3424701179166345
10
104.33970853301788
20
1.342470117916625
42
0.41421356237308132
0
LWPOLYLINE
5
143
100
AcDbEntity
8
0
100
AcDbPolyline
90
8
70
1
43
0.0
10
84.789708533017588
20
0.84247011791663162
10
84.789708533017588
20
-12.15752988208334
42
0.41421356237307555
10
85.289708533017588
20
-12.657529882083407
10
98.289708533017603
20
-12.657529882083336
42
0.41421356237307161
10
98.789708533017588
20
-12.157529882083335
10
98.789708533017603
20
0.84247011791663562
42
0.41421356237307144
10
98.289708533017603
20
1.342470117916637
10
85.289708533017588
20
1.3424701179166272
42
0.41421356237308521
0
LWPOLYLINE
5
144
100
AcDbEntity
8
0
100
AcDbPolyline
90
8
70
1
43
0.0
10
160.9897085330179
20
0.84247011791663162
10
160.9897085330179
20
-12.157529882083349
42
0.41421356237312362
10
161.4897085330179
20
-12.657529882083416
10
174.4897085330179
20
-12.657529882083349
42
0.4142135623730781
10
174.98970853301788
20
-12.157529882083345
10
174.9897085330179
20
0.84247011791663562
42
0.41421356237313106
10
174.4897085330179
20
1.3424701179166356
10
161.4897085330179
20
1.3424701179166281
42
0.41421356237304702
0
LWPOLYLINE
5
145
100
AcDbEntity
8
0
100
AcDbPolyline
90
8
70
1
43
0.0
10
237.18970853301789
20
0.84247011791663606
10
237.18970853301789
20
-12.157529882083358
42
0.41421356237314444
10
237.68970853301792
20
-12.657529882083425
10
250.68970853301792
20
-12.657529882083359
42
0.41421356237302737
10
251.18970853301792
20
-12.157529882083356
10
251.18970853301792
20
0.84247011791663762
42
0.41421356237314083
10
250.68970853301789
20
1.3424701179166272
10
237.68970853301789
20
1.3424701179166281
42
0.41421356237304513
0
LWPOLYLINE
5
146
100
AcDbEntity
8
0
100
AcDbPolyline
90
8
70
1
43
0.0
10
341.96470853301798
20
0.84247011791663606
10
341.96470853301798
20
-12.157529882083367
42
0.41421356237302087
10
342.46470853301793
20
-12.657529882083338
10
355.46470853301798
20
-12.65752988208337
42
0.41421356237310936
10
355.96470853301798
20
-12.157529882083368
10
355.96470853301798
20
0.84247011791663395
42
0.41421356237301743
10
355.46470853301798
20
1.3424701179166332
10
342.46470853301793
20
1.3424701179166265
42
0.41421356237319029
0
LWPOLYLINE
5
147
100
AcDbEntity
8
0
100
AcDbPolyline
90
8
70
1
43
0.0
10
303.86470853301796
20
-18.207529882083428
10
303.86470853301796
20
-31.207529882083385
42
0.41421356237313145
10
304.36470853301796
20
-31.707529882083442
10
317.36470853301796
20
-31.707529882083367
42
0.41421356237304302
10
317.86470853301796
20
-31.207529882083378
10
317.86470853301796
20
-18.207529882083413
42
0.41421356237312362
10
317.36470853301796
20
-17.70752988208335
10
304.36470853301796
20
-17.707529882083417
42
0.41421356237308332
0
LWPOLYLINE
5
148
100
AcDbEntity
8
0
100
AcDbPolyline
90
8
70
1
43
0.0
10
341.96470853301798
20
-56.307529882083443
10
341.96470853301798
20
-69.307529882083415
42
0.41421356237301177
10
342.46470853301793
20
-69.807529882083344
10
355.46470853301798
20
-69.807529882083386
42
0.41421356237310542
10
355.96470853301798
20
-69.307529882083401
10
355.96470853301798
20
-56.307529882083344
42
0.41421356237303258
10
355.46470853301798
20
-55.807529882083358
10
342.46470853301793
20
-55.807529882083429
42
0.41421356237320428
0
LWPOLYLINE
5
149
100
AcDbEntity
8
0
100
AcDbPolyline
90
8
70
1
43
0.0
10
336.41470853301797
20
-74.857529882083384
10
323.41470853301792
20
-74.857529882083384
42
0.41421356237314705
10
322.91470853301797
20
-75.357529882083355
10
322.91470853301797
20
-88.357529882083398
42
0.4142135623730222
10
323.41470853301792
20
-88.857529882083355
10
336.41470853301797
20
-88.857529882083384
42
0.4142135623730534
10
336.91470853301792
20
-88.357529882083398
10
336.91470853301792
20
-75.357529882083355
42
0.41421356237311063
0
LWPOLYLINE
5
150
100
AcDbEntity
8
0
100
AcDbPolyline
90
8
70
1
43
0.0
10
280.05220853301796
20
-80.120029882083358
10
280.05220853301796
20
-93.120029882083784
42
0.41421356237304302
10
280.55220853301796
20
-93.620029882083628
10
293.55220853301796
20
-93.62002988208377
42
0.41421356237307422
10
294.05220853301796
20
-93.120029882083784
10
294.05220853301796
20
-80.120029882083358
42
0.41421356237311585
10
293.55220853301796
20
-79.620029882083386
10
280.55220853301796
20
-79.62002988208333
42
0.41421356237310542
0
LWPOLYLINE
5
151
100
AcDbEntity
8
0
100
AcDbPolyline
90
8
70
1
43
0.0
10
266.69595853301792
20
-56.307529882083429
10
266.69595853301792
20
-69.307529882083386
42
0.41421356237313145
10
267.19595853301792
20
-69.807529882083344
10
268.19595853301792
20
-69.807529882083386
42
0.41421356237304302
10
268.69595853301792
20
-69.307529882083401
10
268.69595853301792
20
-56.307529882083429
42
0.41421356237310542
10
268.19595853301792
20
-55.807529882083351
10
267.19595853301792
20
-55.807529882083422
42
0.4142135623730846
0
LWPOLYLINE
5
152
100
AcDbEntity
8
0
100
AcDbPolyline
90
8
70
1
43
0.0
10
34.833458533017577
20
-36.757529882083418
10
33.833458533017577
20
-36.757529882083418
42
0.41421356237310542
10
33.333458533017584
20
-37.257529882083404
10
33.333458533017577
20
-50.25752988208346
42
0.41421356237307944
10
33.833458533017577
20
-50.757529882083418
10
34.833458533017577
20
-50.757529882083446
42
0.41421356237307683
10
35.33345853301757
20
-50.257529882083453
10
35.333458533017577
20
-37.257529882083396
42
0.41421356237310542
0
LWPOLYLINE
5
153
100
AcDbEntity
8
0
100
AcDbPolyline
90
8
70
1
43
0.0
10
7.7522085330175905
20
-75.357529882083426
10
7.7522085330175985
20
-88.357529882083355
42
0.41421356237306511
10
8.2522085330175994
20
-88.857529882083313
10
9.2522085330175976
20
-88.857529882083355
42
0.41421356237308854
10
9.7522085330175567
20
-88.357529882083355
10
9.7522085330175994
20
-75.357529882083412
42
0.41421356237309764
10
9.2522085330176012
20
-74.857529882083355
10
8.2522085330176012
20
-74.857529882083384
42
0.4142135623731113
0
LWPOLYLINE
5
154
100
AcDbEntity
8
0
100
AcDbPolyline
90
20
70
1
43
0.0
10
361.01470853301805
20
-80.395529882083409
42
-0.4142135623731783
10
360.51470853301799
20
-80.895529882083409
42
0.41421356237314705
10
360.01470853301794
20
-81.395529882083423
10
360.01470853301805
20
-87.145529882083466
42
0.41421356237300139
10
360.51470853301799
20
-87.645529882083395
42
-0.41421356237318868
10
361.01470853301799
20
-88.145529882083395
10
361.01470853301799
20
-88.357529882083412
42
0.41421356237300139
10
361.51470853301794
20
-88.857529882083369
10
374.51470853301799
20
-88.857529882083398
42
0.4142135623730846
10
375.01470853301794
20
-88.357529882083398
10
375.01470853301794
20
-56.307529882083436
42
0.41421356237312101
10
374.51470853301799
20
-55.807529882083358
10
361.51470853301794
20
-55.807529882083429
42
0.41421356237298057
10
361.01470853301799
20
-56.307529882083323
10
361.01470853301799
20
-56.519529882083354
42
-0.41421356237319906
10
360.51470853301799
20
-57.01952988208339
42
0.41421356237319906
10
360.01470853301794
20
-57.51952988208339
10
360.01470853301805
20
-63.269529882083411
42
0.4142135623730534
10
360.51470853301805
20
-63.769529882083333
42
-0.41421356237317308
10
361.01470853301799
20
-64.269529882083361
0
LWPOLYLINE
5
155
100
AcDbEntity
8
0
100
AcDbPolyline
90
8
70
1
43
0.0
10
95.930353533017581
20
-79.107779882083349
10
95.930353533017581
20
-84.607279882083333
42
0.41421356237309503
10
96.430353533017581
20
-85.10727988208339
10
116.86781353301788
20
-85.107279882083333
42
0.41421356237310542
10
117.36781353301788
20
-84.607279882083319
10
117.36781353301788
20
-79.107779882083321
42
0.41421356237309503
10
116.86781353301788
20
-78.607779882083364
10
96.430353533017581
20
-78.607779882083307
42
0.41421356237311063
0
CIRCLE
5
156
100
AcDbEntity
8
0
100
AcDbCircle
10
249.21828081863993
20
7.0121392930677793
30
0
40
1.1000000000000008
210
-3.0814879110195774e-33
220
5.3603826824215315e-49
230
1
0
CIRCLE
5
157
100
AcDbEntity
8
0
100
AcDbCircle
10
368.03820748423101
20
-99.279997816393035
30
0
40
1.1000000000000008
210
-3.0814879110195774e-33
220
5.3603826824215315e-49
230
1
0
CIRCLE
5
158
100
AcDbEntity
8
0
100
AcDbCircle
10
82.908142353420274
20
-99.279934306932503
30
0
40
1.1000000000000008
210
-3.0814879110195774e-33
220
5.3603826824215315e-49
230
1
0
CIRCLE
5
159
100
AcDbEntity
8
0
100
AcDbCircle
10
15.088292084230559
20
-99.279997816393006
30
0
40
1.1000000000000008
210
-3.0814879110195774e-33
220
5.3603826824215315e-49
230
1
0
CIRCLE
5
160
100
AcDbEntity
8
0
100
AcDbCircle
10
249.21828081863993
20
-99.279934306932518
30
0
40
1.1000000000000008
210
-3.0814879110195774e-33
220
5.3603826824215315e-49
230
1
0
CIRCLE
5
161
100
AcDbEntity
8
0
100
AcDbCircle
10
368.03828081863998
20
7.0121392930677846
30
0
40
1.1000000000000008
210
-3.0814879110195774e-33
220
5.3603826824215315e-49
230
1
0
CIRCLE
5
162
100
AcDbEntity
8
0
100
AcDbCircle
10
133.90836541863993
20
7.0121392930677935
30
0
40
1.1000000000000008
210
-3.0814879110195774e-33
220
5.3603826824215315e-49
230
1
0
LWPOLYLINE
5
163
100
AcDbEntity
8
0
100
AcDbPolyline
90
8
70
1
43
0.0
10
151.53454186633491
20
-85.107529882083213
42
-0.41421356237310542
10
151.03454186633488
20
-84.607529882083213
10
151.03454186633488
20
-79.107529882083199
42
-0.41421356237305862
10
151.53454186633491
20
-78.607529882083242
10
169.08970853299891
20
-78.60752988208317
42
-0.41421356237310542
10
169.58970853299891
20
-79.107529882083185
10
169.58970853299988
20
-84.607529882083199
42
-0.41421356237375057
10
169.08970853299891
20
-85.10752988208327
0
LWPOLYLINE
5
164
100
AcDbEntity
8
0
100
AcDbPolyline
90
8
70
1
43
0.0
10
294.8396139323209
20
-50.757529882083432
10
298.27987519968394
20
-50.757529882083432
42
0.41421356237309503
10
298.77987519968394
20
-50.257529882083467
10
298.77987519968394
20
0.84247011791665893
42
0.41421356237309387
10
298.279875199684
20
1.3424701179166341
10
294.8396139323209
20
1.3424701179166243
42
0.41421356237310175
10
294.3396139323209
20
0.8424701179166405
10
294.3396139323209
20
-50.257529882083467
42
0.41421356237309503
0
LWPOLYLINE
5
165
100
AcDbEntity
8
0
100
AcDbPolyline
90
8
70
1
43
0.0
10
21.245958533017564
20
-69.807529882083429
10
33.745958533017571
20
-69.807529882083429
42
0.41421356237309159
10
34.495958533017578
20
-69.057529882083415
10
34.495958533017571
20
-56.557529882083422
42
0.41421356237308982
10
33.745958533017564
20
-55.807529882083394
10
21.245958533017564
20
-55.807529882083401
42
0.41421356237309159
10
20.495958533017561
20
-56.557529882083415
10
20.495958533017564
20
-69.057529882083429
42
0.41421356237308815
0
LWPOLYLINE
5
166
100
AcDbEntity
8
0
100
AcDbPolyline
90
8
70
1
43
0.0
10
90.639708533017668
20
-87.107529882083341
10
90.639708533017668
20
-74.607529883649434
42
0.41421356237310897
10
89.889708533017625
20
-73.857529883649491
10
79.414708533017645
20
-73.857529883649832
42
0.41421356237308815
10
78.664708533017674
20
-74.607529883649846
10
78.664708533017659
20
-87.107529882083753
42
0.41421356237310542
10
79.414708533017688
20
-87.857529882083782
10
89.889708533017682
20
-87.857529882083355
42
0.41421356237308815
0
LWPOLYLINE
5
167
100
AcDbEntity
8
0
100
AcDbPolyline
90
8
70
1
43
0.0
10
191.94595853301792
20
-75.357529882083455
10
191.94595853301792
20
-88.357529882083398
42
0.41421356237307422
10
192.44595853301792
20
-88.857529882083327
10
228.32720853301791
20
-88.857529882083369
42
0.4142135623730846
10
228.82720853301791
20
-88.357529882083384
10
228.82720853301791
20
-75.357529882083327
42
0.41421356237311585
10
228.32720853301791
20
-74.857529882083369
10
192.44595853301797
20
-74.857529882083412
42
0.41421356237310542
0
LWPOLYLINE
5
168
100
AcDbEntity
8
0
100
AcDbPolyline
90
8
70
1
43
0.0
10
183.43970853301769
20
-74.607529882083426
10
183.43970853301769
20
-87.10752988208344
42
0.41421356237309503
10
184.18970853301769
20
-87.857529882083412
10
189.88970853301768
20
-87.857529882083426
42
0.41421356237309503
10
190.63970853301768
20
-87.107529882083426
10
190.63970853301768
20
-74.607529882083426
42
0.41421356237309503
10
189.88970853301768
20
-73.857529882083412
10
184.18970853301769
20
-73.857529882083412
42
0.41421356237309853
0
LWPOLYLINE
5
169
100
AcDbEntity
8
0
100
AcDbPolyline
90
8
70
1
43
0.0
10
181.11470853301768
20
-87.10752988208354
10
181.11470853301768
20
-74.608021767108752
42
0.41401566384967015
10
180.36521531929995
20
-73.8580219383296
10
174.66521531929996
20
-73.854170361705769
42
0.41441148859341292
10
173.91470853301769
20
-74.604170190484226
10
173.91470853301769
20
-87.107529882083554
42
0.41421356237307422
10
174.66470853301769
20
-87.857529882083554
10
180.36470853301768
20
-87.857529882083554
42
0.41421356237308116
0
LWPOLYLINE
5
170
100
AcDbEntity
8
0
100
AcDbPolyline
90
24
70
1
43
0.0
10
264.60194987234286
20
-12.632308339673919
10
281.00194987234289
20
-12.632308339673921
42
-0.41421356237280887
10
281.10194987234291
20
-12.73230833967391
10
281.10194987234291
20
-12.882308339673896
42
0.41421356237309764
10
281.85194987234291
20
-13.632308339673905
10
287.5519498723429
20
-13.6323083396739
42
0.41421356237309681
10
288.3019498723429
20
-12.882308339673894
10
288.3019498723429
20
-12.73230833967391
42
-0.41421356237280238
10
288.40194987234293
20
-12.632308339673919
10
288.57694987234288
20
-12.632308339673921
42
0.41421356237309853
10
289.32694987234288
20
-11.882308339673916
10
289.32694987234288
20
0.61769166032609735
42
0.41421356237309648
10
288.57694987234288
20
1.3676916603260991
10
257.02694987234287
20
1.3676916603261029
42
0.41421356237309548
10
256.27694987234287
20
0.6176916603261029
10
256.27694987234287
20
-11.882308339673912
42
0.41421356237309764
10
257.02694987234287
20
-12.632308339673909
10
257.20194987234288
20
-12.632308339673921
42
-0.41421356237280887
10
257.3019498723429
20
-12.73230833967391
10
257.3019498723429
20
-12.882308339673912
42
0.41421356237309681
10
258.0519498723429
20
-13.632308339673912
10
263.75194987234289
20
-13.632308339673918
42
0.41421356237310025
10
264.50194987234289
20
-12.882308339673907
10
264.50194987234289
20
-12.732308339673907
42
-0.41421356237280238
0
LWPOLYLINE
5
171
100
AcDbEntity
8
0
100
AcDbPolyline
90
8
70
1
43
0.0
10
283.77720853301798
20
-17.707529882083399
10
271.27720853301798
20
-17.707529882083403
42
0.41421356237309331
10
270.52720853301798
20
-18.457529882083406
10
270.52720853301798
20
-30.957529882083413
42
0.41421356237308982
10
271.27720853301798
20
-31.707529882083406
10
283.77720853301798
20
-31.707529882083406
42
0.41421356237308982
10
284.52720853301798
20
-30.95752988208341
10
284.52720853301798
20
-18.457529882083399
42
0.41421356237309076
0
LWPOLYLINE
5
172
100
AcDbEntity
8
0
100
AcDbPolyline
90
8
70
1
43
0.0
10
285.92069987234288
20
-50.982308339673985
42
-0.41421356237307771
10
285.17069987234288
20
-51.732308339673985
10
279.47069987234289
20
-51.732308339673963
42
-0.41421356237306733
10
278.72069987234289
20
-50.982308339673978
10
278.72069987234289
20
-38.482308339673963
42
-0.41421356237308293
10
279.47069987234289
20
-37.732308339673992
10
285.17069987234288
20
-37.732308339674006
42
-0.41421356237308815
10
285.92069987234288
20
-38.482308339673985
0
LWPOLYLINE
5
173
100
AcDbEntity
8
0
100
AcDbPolyline
90
8
70
1
43
0.0
10
254.92069987234288
20
-38.482308339673985
10
254.92069987234288
20
-50.982308339673992
42
0.41421356237306733
10
255.67069987234288
20
-51.732308339674013
10
261.37069987234287
20
-51.732308339673985
42
0.41421356237307422
10
262.12069987234287
20
-50.982308339673992
10
262.12069987234287
20
-38.482308339673978
42
0.41421356237308815
10
261.37069987234287
20
-37.732308339673992
10
255.67069987234288
20
-37.732308339673992
42
0.41421356237308815
0
LWPOLYLINE
5
174
100
AcDbEntity
8
0
100
AcDbPolyline
90
24
70
1
43
0.0
10
39.677338342701496
20
-53.757529882083361
10
48.203338342701507
20
-53.757529882083347
42
-0.41421356237309159
10
48.953338342701507
20
-54.507529882083361
10
48.953338342701613
20
-72.057529882083386
42
0.41421356237309503
10
49.703338342701606
20
-72.807529882083386
10
239.15170853301908
20
-72.807529882083415
42
0.41421356237309853
10
239.90170853301913
20
-72.057529882083401
10
239.90170853301919
20
-53.557529882083365
42
-0.41421356237309853
10
240.65170853301919
20
-52.807529882083372
10
248.20220853301794
20
-52.807529882083386
42
0.41421356237309503
10
248.95220853301797
20
-52.057529882083386
10
248.95220853301799
20
-34.982529882083398
42
-0.41421356237310719
10
249.70220853301797
20
-34.232529882083405
10
262.48970853301859
20
-34.232529882082609
42
0.41421356237310025
10
263.23970853301853
20
-33.482529882082559
10
263.23970853301739
20
-15.456903739698538
42
0.41421356237307422
10
262.48970853301739
20
-14.706903739698596
10
34.914708533017645
20
-14.706903739698603
42
0.41421356237308554
10
34.164708533017659
20
-15.456903739698591
10
34.164708533017652
20
-33.957529882083342
42
0.41421356237309331
10
34.914708533017645
20
-34.707529882083342
10
38.177338342701496
20
-34.70752988208335
42
-0.41421356237309681
10
38.927338342701518
20
-35.457529882083342
10
38.927338342701496
20
-53.007529882083347
42
0.41421356237310025
0
ENDSEC
0
SECTION
2
OBJECTS
0
DICTIONARY
5
C
100
AcDbDictionary
3
ACAD_GROUP
350
D
3
ACAD_MLINESTYLE
350
17
0
DICTIONARY
5
D
100
AcDbDictionary
0
DICTIONARY
5
1A
330
C
100
AcDbDictionary
0
DICTIONARY
5
17
100
AcDbDictionary
0
ENDSEC
0
EOF
