0
SECTION
2
HEADER
9
$INSUNITS
70
4
9
$ACADVER
1
AC1014
9
$HANDSEED
5
FFFF
0
ENDSEC
0
SECTION
2
TABLES
0
TABLE
2
VPORT
5
8
100
AcDbSymbolTable
0
ENDTAB
0
TABLE
2
LTYPE
5
5
100
AcDbSymbolTable
0
LTYPE
5
14
100
AcDbSymbolTableRecord
100
AcDbLinetypeTableRecord
2
BYBLOCK
70
0
0
LTYPE
5
15
100
AcDbSymbolTableRecord
100
AcDbLinetypeTableRecord
2
BYLAYER
70
0
0
ENDTAB
0
TABLE
2
LAYER
5
2
100
AcDbSymbolTable
70
2
0
LAYER
5
50
100
AcDbSymbolTableRecord
100
AcDbLayerTableRecord
2
0
70
0
6
CONTINUOUS
0
ENDTAB
0
TABLE
2
STYLE
5
3
100
AcDbSymbolTable
70
1
0
STYLE
5
11
100
AcDbSymbolTableRecord
100
AcDbTextStyleTableRecord
2
STANDARD
70
0
0
ENDTAB
0
TABLE
2
VIEW
5
6
100
AcDbSymbolTable
70
0
0
ENDTAB
0
TABLE
2
UCS
5
7
100
AcDbSymbolTable
70
0
0
ENDTAB
0
TABLE
2
APPID
5
9
100
AcDbSymbolTable
70
2
0
APPID
5
12
100
AcDbSymbolTableRecord
100
AcDbRegAppTableRecord
2
ACAD
70
0
0
ENDTAB
0
TABLE
2
DIMSTYLE
5
A
100
AcDbSymbolTable
70
1
0
ENDTAB
0
TABLE
2
BLOCK_RECORD
5
1
100
AcDbSymbolTable
70
1
0
BLOCK_RECORD
5
1F
100
AcDbSymbolTableRecord
100
AcDbBlockTableRecord
2
*MODEL_SPACE
0
BLOCK_RECORD
5
1B
100
AcDbSymbolTableRecord
100
AcDbBlockTableRecord
2
*PAPER_SPACE
0
ENDTAB
0
ENDSEC
0
SECTION
2
BLOCKS
0
BLOCK
5
20
100
AcDbEntity
100
AcDbBlockBegin
2
*MODEL_SPACE
0
ENDBLK
5
21
100
AcDbEntity
100
AcDbBlockEnd
0
BLOCK
5
1C
100
AcDbEntity
100
AcDbBlockBegin
2
*PAPER_SPACE
0
ENDBLK
5
1D
100
AcDbEntity
100
AcDbBlockEnd
0
ENDSEC
0
SECTION
2
ENTITIES
0
LWPOLYLINE
5
100
100
AcDbEntity
8
0
100
AcDbPolyline
90
8
70
1
43
0.0
10
271.94569987234297
20
-19.457308339673904
10
271.94569987234297
20
-25.157308339673911
42
0.41421356237308982
10
272.69569987234297
20
-25.907308339673875
10
285.19569987234297
20
-25.907308339673921
42
0.41421356237306212
10
285.94569987234297
20
-25.157308339673911
10
285.94569987234297
20
-19.457308339673904
42
0.41421356237309592
10
285.19569987234297
20
-18.707308339673915
10
272.69569987234297
20
-18.707308339673919
42
0.4142135623730569
0
LWPOLYLINE
5
101
100
AcDbEntity
8
0
100
AcDbPolyline
90
8
70
1
43
0.0
10
281.85194987234291
20
-13.632308339673839
10
287.5519498723429
20
-13.632308339673839
42
0.41421356237309159
10
288.3019498723429
20
-12.882308339673838
10
288.3019498723429
20
-0.38230833967383238
42
0.41421356237309453
10
287.5519498723429
20
0.36769166032615491
10
281.85194987234291
20
0.3676916603261568
42
0.41421356237309426
10
281.10194987234291
20
-0.38230833967383138
10
281.10194987234291
20
-12.882308339673841
42
0.41421356237307855
0
LWPOLYLINE
5
102
100
AcDbEntity
8
0
100
AcDbPolyline
90
8
70
1
43
0.0
10
271.94569987234297
20
-43.257308339673912
10
271.94569987234297
20
-48.957308339673915
42
0.41421356237309503
10
272.69569987234297
20
-49.70730833967388
10
285.19569987234297
20
-49.707308339673936
42
0.4142135623730569
10
285.94569987234297
20
-48.957308339673929
10
285.94569987234297
20
-43.257308339673926
42
0.41421356237309503
10
285.19569987234297
20
-42.507308339673941
10
272.69569987234297
20
-42.507308339673941
42
0.41421356237304996
0
LWPOLYLINE
5
103
100
AcDbEntity
8
0
100
AcDbPolyline
90
8
70
1
43
0.0
10
258.0519498723429
20
-13.632308339673841
10
263.75194987234289
20
-13.632308339673846
42
0.41421356237307255
10
264.50194987234289
20
-12.882308339673838
10
264.50194987234289
20
-0.3823083396738341
42
0.41421356237308771
10
263.75194987234289
20
0.36769166032615269
10
258.0519498723429
20
0.36769166032615402
42
0.41421356237308876
10
257.3019498723429
20
-0.38230833967383804
10
257.3019498723429
20
-12.882308339673834
42
0.41421356237307161
0
LWPOLYLINE
5
104
100
AcDbEntity
8
0
100
AcDbPolyline
90
72
70
1
43
0.0
10
254.33257602752582
20
5.3723608354773074
10
362.99802215796484
20
5.3723608354773091
42
0.26794919243113008
10
364.73007296553385
20
6.3723608354772887
10
365.49794882355582
20
7.7023608354771911
42
-0.26794919243111798
10
367.22999963112488
20
8.7023608354773039
10
368.92059855436582
20
8.7023608354774016
42
-0.26794919243110926
10
370.65264936193489
20
7.7023608354773003
10
371.42052521995697
20
6.3723608354773749
42
0.26794919243113524
10
373.15257602752587
20
5.3723608354773091
10
376.55229909274482
20
5.3723608354773686
42
-0.41421356237302509
10
377.55229909274482
20
4.3723608354773091
10
377.55229909274544
20
-96.589712764522503
42
-0.4142135623730222
10
376.55229909274482
20
-97.589712764523199
10
373.15264936193489
20
-97.589712764522687
42
0.26794919243115878
10
371.42059855436582
20
-98.589712764522929
10
370.65264936193444
20
-99.919839783444843
42
-0.26794919243115878
10
368.92059855436582
20
-100.91983978344484
10
367.22999963112488
20
-100.91983978344535
42
-0.267949192431154
10
365.49794882355582
20
-99.91983978344507
10
364.72999963112488
20
-98.589712764522929
42
0.26794919243115878
10
362.99794882355582
20
-97.589712764523227
10
254.33257602752587
20
-97.589712764522702
42
0.26794919243115878
10
252.60052521995686
20
-98.589712764522943
10
251.83264936193481
20
-99.919712764523155
42
-0.26794919243105453
10
250.10059855436589
20
-100.91971276452286
10
248.40999963112489
20
-100.91971276452286
42
-0.26794919243105159
10
246.67794882355591
20
-99.919712764523155
10
245.91007296553389
20
-98.589712764522929
42
0.26794919243115678
10
244.17802215796488
20
-97.589712764523199
10
88.022660627525937
20
-97.589712764522687
42
0.26794919243114718
10
86.290609819957055
20
-98.589712764522929
10
85.522733961934875
20
-99.919712764523155
42
-0.26794919243104054
10
83.790683154365951
20
-100.91971276452284
10
82.100084231124441
20
-100.91971276452279
42
-0.26794919243104243
10
80.368033423555545
20
-99.919712764523126
10
79.600157565533436
20
-98.589712764522872
42
0.2679491924311343
10
77.86810675796454
20
-97.589712764523213
10
20.20273396193484
20
-97.589712764522716
42
0.2679491924311514
10
18.47068315436594
20
-98.589712764522943
10
17.702733961934463
20
-99.919839783444914
42
-0.26794919243114046
10
15.970683154365936
20
-100.91983978344484
10
14.280084231124439
20
-100.91983978344516
42
-0.26794919243115189
10
12.548033423555637
20
-99.919839783445084
10
11.780084231124533
20
-98.589712764522915
42
0.26794919243115334
10
10.048033423555541
20
-97.589712764523213
10
7.1273836927452496
20
-97.589712764522503
42
-0.41421356237308982
10
6.1273836927452487
20
-96.589712764522517
10
6.1273836927452638
20
4.3723608354772932
42
-0.41421356237309587
10
7.1273836927452727
20
5.3723608354773047
10
10.048106757964543
20
5.3723608354772967
42
0.26794919243111709
10
11.780157565533342
20
6.3723608354772949
10
12.548033423555562
20
7.7023608354772843
42
-0.26794919243112547
10
14.280084231124446
20
8.7023608354772968
10
15.970683154365943
20
8.7023608354773163
42
-0.26794919243112475
10
17.702733961934843
20
7.702360835477295
10
18.470609819956984
20
6.3723608354772701
42
0.26794919243112131
10
20.202660627525866
20
5.3723608354773056
10
128.86810675796488
20
5.3723608354772976
42
0.26794919243112902
10
130.60015756553386
20
6.3723608354772878
10
131.36803342355597
20
7.7023608354772231
42
-0.26794919243112691
10
133.10008423112487
20
8.7023608354772755
10
134.79068315436587
20
8.7023608354774034
42
-0.26794919243113902
10
136.52273396193488
20
7.7023608354772763
10
137.29060981995698
20
6.37236083547735
42
0.2679491924311303
10
139.02266062752588
20
5.3723608354773056
10
244.17802215796488
20
5.3723608354772976
42
0.26794919243112925
10
245.91007296553386
20
6.3723608354773003
10
246.67794882355597
20
7.7023608354772088
42
-0.26794919243112097
10
248.40999963112489
20
8.7023608354772559
10
250.10059855436589
20
8.7023608354773625
42
-0.26794919243114973
10
251.8326493619349
20
7.7023608354772497
10
252.60052521995698
20
6.3723608354773473
42
0.26794919243112497
0
LWPOLYLINE
5
105
100
AcDbEntity
8
0
100
AcDbPolyline
90
8
70
1
43
0.0
10
191.98319987234285
20
-75.332308339673958
10
191.98319987234285
20
-88.332308339673901
42
0.41421356237307422
10
192.48319987234285
20
-88.83230833967383
10
228.36444987234285
20
-88.832308339673872
42
0.4142135623730846
10
228.86444987234285
20
-88.332308339673887
10
228.86444987234285
20
-75.33230833967383
42
0.41421356237311585
10
228.36444987234285
20
-74.832308339673872
10
192.48319987234285
20
-74.832308339673915
42
0.41421356237312101
0
LWPOLYLINE
5
106
100
AcDbEntity
8
0
100
AcDbPolyline
90
8
70
1
43
0.0
10
13.88944987234254
20
-31.68230833967386
42
-0.41421356237303258
10
13.38944987234254
20
-31.18230833967397
10
13.389449872342546
20
-18.182308339673924
42
-0.41421356237309631
10
13.889449872342542
20
-17.68230833967392
10
26.889449872342546
20
-17.68230833967392
42
-0.41421356237310025
10
27.389449872342546
20
-18.182308339673927
10
27.389449872342546
20
-31.182308339673874
42
-0.41421356237308982
10
26.889449872342546
20
-31.68230833967386
0
LWPOLYLINE
5
107
100
AcDbEntity
8
0
100
AcDbPolyline
90
8
70
1
43
0.0
10
31.489449872342551
20
-31.68230833967386
42
-0.41421356237308982
10
30.989449872342551
20
-31.182308339673874
10
30.989449872342551
20
-18.18230833967392
42
-0.41421356237310153
10
31.489449872342551
20
-17.68230833967392
10
32.489449872342547
20
-17.68230833967392
42
-0.41421356237310025
10
32.989449872342547
20
-18.182308339673927
10
32.989449872342547
20
-31.182308339673874
42
-0.41421356237308982
10
32.489449872342547
20
-31.68230833967386
0
LWPOLYLINE
5
108
100
AcDbEntity
8
0
100
AcDbPolyline
90
8
70
1
43
0.0
10
37.701949872342546
20
-31.68230833967386
42
-0.41421356237309503
10
37.201949872342553
20
-31.182308339673863
10
37.201949872342553
20
-18.18230833967392
42
-0.41421356237310153
10
37.701949872342546
20
-17.68230833967392
10
50.701949872342539
20
-17.68230833967392
42
-0.41421356237309243
10
51.201949872342539
20
-18.182308339673931
10
51.201949872342531
20
-31.182308339673881
42
-0.41421356237309764
10
50.701949872342539
20
-31.68230833967386
0
LWPOLYLINE
5
109
100
AcDbEntity
8
0
100
AcDbPolyline
90
8
70
1
43
0.0
10
56.75194987234255
20
-31.682308339673867
42
-0.41421356237309764
10
56.25194987234255
20
-31.182308339673863
10
56.251949872342557
20
-18.18230833967392
42
-0.41421356237308593
10
56.75194987234255
20
-17.682308339673924
10
69.751949872342536
20
-17.68230833967392
42
-0.41421356237309764
10
70.25194987234255
20
-18.182308339673931
10
70.25194987234255
20
-31.182308339673881
42
-0.41421356237309764
10
69.75194987234255
20
-31.68230833967386
0
LWPOLYLINE
5
110
100
AcDbEntity
8
0
100
AcDbPolyline
90
8
70
1
43
0.0
10
75.801949872342561
20
-31.68230833967386
42
-0.41421356237310025
10
75.301949872342561
20
-31.182308339673874
10
75.301949872342561
20
-18.182308339673931
42
-0.41421356237308854
10
75.801949872342561
20
-17.682308339673924
10
88.801949872342547
20
-17.68230833967392
42
-0.41421356237311846
10
89.301949872342561
20
-18.182308339673931
10
89.301949872342561
20
-31.182308339673874
42
-0.41421356237311063
10
88.801949872342547
20
-31.68230833967386
0
LWPOLYLINE
5
111
100
AcDbEntity
8
0
100
AcDbPolyline
90
8
70
1
43
0.0
10
94.851949872342544
20
-31.682308339673867
42
-0.41421356237309243
10
94.351949872342544
20
-31.182308339673863
10
94.351949872342544
20
-18.182308339673913
42
-0.41421356237310936
10
94.851949872342544
20
-17.68230833967392
10
107.85194987234286
20
-17.682308339673909
42
-0.41421356237307555
10
108.35194987234287
20
-18.182308339673916
10
108.35194987234286
20
-31.182308339673881
42
-0.41421356237309243
10
107.85194987234286
20
-31.68230833967386
0
LWPOLYLINE
5
112
100
AcDbEntity
8
0
100
AcDbPolyline
90
8
70
1
43
0.0
10
113.90194987234284
20
-31.682308339673867
42
-0.41421356237309243
10
113.40194987234284
20
-31.182308339673863
10
113.40194987234284
20
-18.182308339673913
42
-0.41421356237310936
10
113.90194987234284
20
-17.68230833967392
10
126.90194987234285
20
-17.682308339673909
42
-0.41421356237308593
10
127.40194987234288
20
-18.182308339673916
10
127.40194987234287
20
-31.182308339673874
42
-0.41421356237309503
10
126.90194987234287
20
-31.68230833967386
0
LWPOLYLINE
5
113
100
AcDbEntity
8
0
100
AcDbPolyline
90
8
70
1
43
0.0
10
132.95194987234288
20
-31.682308339673867
42
-0.41421356237307161
10
132.45194987234288
20
-31.182308339673863
10
132.45194987234291
20
-18.182308339673913
42
-0.41421356237308332
10
132.95194987234288
20
-17.68230833967392
10
145.95194987234288
20
-17.682308339673913
42
-0.41421356237307555
10
146.45194987234288
20
-18.182308339673924
10
146.45194987234288
20
-31.182308339673874
42
-0.41421356237309503
10
145.95194987234288
20
-31.68230833967386
0
LWPOLYLINE
5
114
100
AcDbEntity
8
0
100
AcDbPolyline
90
8
70
1
43
0.0
10
152.00194987234286
20
-31.682308339673874
42
-0.41421356237309243
10
151.50194987234286
20
-31.182308339673874
10
151.50194987234286
20
-18.182308339673909
42
-0.41421356237310542
10
152.00194987234286
20
-17.682308339673924
10
165.00194987234289
20
-17.68230833967392
42
-0.41421356237311324
10
165.50194987234283
20
-18.182308339673924
10
165.50194987234283
20
-31.182308339673884
42
-0.41421356237306639
10
165.00194987234283
20
-31.68230833967386
0
LWPOLYLINE
5
115
100
AcDbEntity
8
0
100
AcDbPolyline
90
8
70
1
43
0.0
10
171.05194987234285
20
-31.682308339673881
42
-0.41421356237310025
10
170.55194987234285
20
-31.182308339673863
10
170.55194987234285
20
-18.182308339673913
42
-0.41421356237304169
10
171.05194987234285
20
-17.68230833967392
10
184.05194987234285
20
-17.682308339673924
42
-0.41421356237313406
10
184.55194987234285
20
-18.182308339673927
10
184.5519498723429
20
-31.182308339673874
42
-0.41421356237307161
10
184.05194987234285
20
-31.68230833967386
0
LWPOLYLINE
5
116
100
AcDbEntity
8
0
100
AcDbPolyline
90
8
70
1
43
0.0
10
190.10194987234283
20
-31.68230833967387
42
-0.41421356237313145
10
189.6019498723428
20
-31.182308339673874
10
189.60194987234277
20
-18.18230833967392
42
-0.41421356237307555
10
190.10194987234283
20
-17.68230833967392
10
203.10194987234283
20
-17.682308339673906
42
-0.41421356237310281
10
203.60194987234283
20
-18.182308339673927
10
203.60194987234283
20
-31.182308339673881
42
-0.4142135623730378
10
203.10194987234283
20
-31.68230833967386
0
LWPOLYLINE
5
117
100
AcDbEntity
8
0
100
AcDbPolyline
90
8
70
1
43
0.0
10
209.15194987234284
20
-31.68230833967386
42
-0.41421356237313145
10
208.65194987234281
20
-31.182308339673863
10
208.65194987234278
20
-18.18230833967392
42
-0.41421356237307555
10
209.15194987234284
20
-17.68230833967392
10
222.15194987234284
20
-17.682308339673902
42
-0.41421356237310281
10
222.65194987234284
20
-18.182308339673924
10
222.65194987234284
20
-31.182308339673881
42
-0.4142135623730378
10
222.15194987234284
20
-31.68230833967386
0
LWPOLYLINE
5
118
100
AcDbEntity
8
0
100
AcDbPolyline
90
8
70
1
43
0.0
10
228.20194987234285
20
-31.68230833967386
42
-0.41421356237313145
10
227.70194987234282
20
-31.182308339673863
10
227.70194987234279
20
-18.18230833967392
42
-0.41421356237307555
10
228.20194987234285
20
-17.68230833967392
10
241.20194987234285
20
-17.682308339673924
42
-0.41421356237315488
10
241.70194987234288
20
-18.182308339673927
10
241.70194987234294
20
-31.182308339673874
42
-0.41421356237307161
10
241.20194987234288
20
-31.68230833967386
0
LWPOLYLINE
5
119
100
AcDbEntity
8
0
100
AcDbPolyline
90
8
70
1
43
0.0
10
247.25194987234286
20
-31.68230833967386
42
-0.41421356237313145
10
246.75194987234283
20
-31.182308339673863
10
246.75194987234281
20
-18.18230833967392
42
-0.41421356237307555
10
247.25194987234286
20
-17.68230833967392
10
260.25194987234283
20
-17.682308339673902
42
-0.41421356237310281
10
260.75194987234289
20
-18.182308339673924
10
260.75194987234289
20
-31.182308339673881
42
-0.4142135623730378
10
260.25194987234283
20
-31.68230833967386
0
LWPOLYLINE
5
120
100
AcDbEntity
8
0
100
AcDbPolyline
90
8
70
1
43
0.0
10
294.37685527164587
20
0.8676916603261553
10
294.37685527164587
20
-50.23230833967397
42
0.41421356237309503
10
294.87685527164581
20
-50.732308339673935
10
298.31711653900891
20
-50.732308339673942
42
0.41421356237308982
10
298.81711653900891
20
-50.232308339673978
10
298.81711653900891
20
0.86769166032616329
42
0.4142135623730937
10
298.31711653900891
20
1.3676916603261398
10
294.87685527164581
20
1.367691660326128
42
0.41421356237309503
0
LWPOLYLINE
5
121
100
AcDbEntity
8
0
100
AcDbPolyline
90
8
70
1
43
0.0
10
317.40194987234293
20
-36.73230833967385
10
304.40194987234287
20
-36.73230833967385
42
0.41421356237308204
10
303.90194987234293
20
-37.232308339673921
10
303.90194987234287
20
-50.232308339673885
42
0.41421356237313145
10
304.40194987234287
20
-50.732308339673942
10
317.40194987234293
20
-50.732308339673871
42
0.41421356237304818
10
317.90194987234293
20
-50.232308339673885
10
317.90194987234293
20
-37.232308339673914
42
0.41421356237310281
0
LWPOLYLINE
5
122
100
AcDbEntity
8
0
100
AcDbPolyline
90
8
70
1
43
0.0
10
11.008199872342532
20
-56.532308339673989
10
11.008199872342537
20
-69.032308339673989
42
0.41421356237309853
10
11.758199872342541
20
-69.782308339674003
10
24.258199872342541
20
-69.782308339673989
42
0.41421356237307771
10
25.008199872342537
20
-69.032308339673975
10
25.008199872342534
20
-56.532308339673982
42
0.41421356237310025
10
24.25819987234253
20
-55.782308339673961
10
11.758199872342537
20
-55.782308339673968
42
0.41421356237310025
0
LWPOLYLINE
5
123
100
AcDbEntity
8
0
100
AcDbPolyline
90
8
70
1
43
0.0
10
32.439449872342543
20
-56.532308339673982
42
-0.41421356237308815
10
33.189449872342536
20
-55.782308339673968
10
45.689449872342543
20
-55.782308339673961
42
-0.41421356237309503
10
46.43944987234255
20
-56.532308339673961
10
46.43944987234255
20
-69.032308339673975
42
-0.41421356237307771
10
45.689449872342536
20
-69.782308339673975
10
33.189449872342543
20
-69.782308339673989
42
-0.41421356237310025
10
32.439449872342543
20
-69.032308339673975
0
LWPOLYLINE
5
124
100
AcDbEntity
8
0
100
AcDbPolyline
90
8
70
1
43
0.0
10
64.989449872342547
20
-55.782308339673946
10
51.989449872342547
20
-55.782308339673847
42
0.41421356237311063
10
51.489449872342547
20
-56.282308339673925
10
51.489449872342547
20
-69.282308339673889
42
0.41421356237309503
10
51.989449872342554
20
-69.782308339673946
10
64.989449872342561
20
-69.782308339673875
42
0.4142135623730846
10
65.489449872342561
20
-69.282308339673889
10
65.489449872342561
20
-56.282308339673918
42
0.41421356237310542
0
LWPOLYLINE
5
125
100
AcDbEntity
8
0
100
AcDbPolyline
90
8
70
1
43
0.0
10
123.42694987234287
20
-88.83230833967383
10
145.95094987232687
20
-88.83230833967383
42
0.41421356237309503
10
146.45094987232687
20
-88.332308339673858
10
146.45094987232687
20
-75.332308339673816
42
0.41421356237309503
10
145.95094987232687
20
-74.832308339665516
10
123.42694987234287
20
-74.832308339673816
42
0.41421356237311585
10
122.92694987234287
20
-75.33230833967383
10
122.92694987234286
20
-88.332308339673887
42
0.41421356237309503
0
LWPOLYLINE
5
126
100
AcDbEntity
8
0
100
AcDbPolyline
90
20
70
1
43
0.0
10
361.05194987234285
20
-18.394308339673842
42
-0.41421356237311063
10
360.5519498723429
20
-18.894308339673842
42
0.41421356237310802
10
360.05194987234285
20
-19.394308339673859
10
360.0519498723429
20
-25.144308339673902
42
0.41421356237301699
10
360.5519498723429
20
-25.644308339673838
42
-0.41421356237310281
10
361.05194987234285
20
-26.144308339673824
10
361.0519498723429
20
-42.270308339673846
42
-0.41421356237310542
10
360.5519498723429
20
-42.770308339673882
42
0.41421356237311585
10
360.05194987234285
20
-43.270308339673889
10
360.0519498723429
20
-49.020308339673932
42
0.41421356237301699
10
360.5519498723429
20
-49.520308339673861
42
-0.41421356237310542
10
361.05194987234285
20
-50.020308339673853
10
361.05194987234285
20
-50.232308339673885
42
0.41421356237301177
10
361.55194987234279
20
-50.73230833967385
10
374.55194987234285
20
-50.732308339673871
42
0.41421356237318346
10
375.05194987234285
20
-50.232308339673892
10
375.05194987234285
20
-18.182308339673924
42
0.41421356237323809
10
374.55194987234285
20
-17.682308339673849
10
361.55194987234279
20
-17.682308339673916
42
0.41421356237311063
10
361.05194987234285
20
-18.18230833967392
0
LWPOLYLINE
5
127
100
AcDbEntity
8
0
100
AcDbPolyline
90
8
70
1
43
0.0
10
146.73944987234287
20
-56.282308339673925
10
146.73944987234287
20
-69.282308339673889
42
0.414213562373069
10
147.23944987234285
20
-69.782308339673861
10
160.23944987234285
20
-69.782308339673889
42
0.41421356237307944
10
160.73944987234285
20
-69.282308339673889
10
160.73944987234285
20
-56.282308339673925
42
0.41421356237308982
10
160.23944987234287
20
-55.782308339673854
10
147.23944987234287
20
-55.782308339673918
42
0.41421356237310542
0
LWPOLYLINE
5
128
100
AcDbEntity
8
0
100
AcDbPolyline
90
8
70
1
43
0.0
10
232.46444987234284
20
-75.33230833967383
10
232.46444987234284
20
-88.332308339673887
42
0.41421356237310542
10
232.96444987234287
20
-88.83230833967383
10
248.34569987234286
20
-88.832308339673872
42
0.4142135623730846
10
248.84569987234286
20
-88.332308339673887
10
248.84569987234286
20
-75.33230833967383
42
0.41421356237313667
10
248.34569987234283
20
-74.832308339673872
10
232.96444987234287
20
-74.832308339673816
42
0.41421356237307422
0
LWPOLYLINE
5
129
100
AcDbEntity
8
0
100
AcDbPolyline
90
8
70
1
43
0.0
10
280.08944987234293
20
-61.044808339673942
10
280.08944987234293
20
-74.044808339673892
42
0.41421356237301177
10
280.58944987234293
20
-74.54480833967385
10
293.58944987234293
20
-74.544808339673878
42
0.414213562373069
10
294.08944987234287
20
-74.044808339673878
10
294.08944987234293
20
-61.044808339673935
42
0.41421356237311585
10
293.58944987234293
20
-60.544808339673864
10
280.58944987234293
20
-60.544808339673928
42
0.4142135623730378
0
LWPOLYLINE
5
130
100
AcDbEntity
8
0
100
AcDbPolyline
90
8
70
1
43
0.0
10
303.90194987234293
20
-56.282308339673925
10
303.90194987234293
20
-69.282308339673889
42
0.41421356237313145
10
304.40194987234287
20
-69.782308339673861
10
317.40194987234293
20
-69.782308339673889
42
0.41421356237304818
10
317.90194987234293
20
-69.282308339673889
10
317.90194987234293
20
-56.282308339673932
42
0.41421356237310542
10
317.40194987234293
20
-55.782308339673854
10
304.40194987234287
20
-55.782308339673925
42
0.41421356237307944
0
LWPOLYLINE
5
131
100
AcDbEntity
8
0
100
AcDbPolyline
90
8
70
1
43
0.0
10
322.95194987234282
20
-37.232308339673921
10
322.95194987234282
20
-50.232308339673885
42
0.41421356237301177
10
323.45194987234277
20
-50.732308339673942
10
336.45194987234282
20
-50.732308339673871
42
0.41421356237318868
10
336.95194987234282
20
-50.232308339673885
10
336.95194987234282
20
-37.232308339673921
42
0.41421356237323809
10
336.45194987234282
20
-36.73230833967385
10
323.45194987234277
20
-36.732308339673914
42
0.41421356237311324
0
LWPOLYLINE
5
132
100
AcDbEntity
8
0
100
AcDbPolyline
90
8
70
1
43
0.0
10
342.00194987234283
20
-18.18230833967392
10
342.00194987234283
20
-31.182308339673874
42
0.41421356237301699
10
342.50194987234283
20
-31.682308339673838
10
355.50194987234283
20
-31.68230833967386
42
0.41421356237318868
10
356.00194987234283
20
-31.182308339673874
10
356.00194987234283
20
-18.182308339673924
42
0.41421356237323809
10
355.50194987234283
20
-17.682308339673849
10
342.50194987234283
20
-17.682308339673916
42
0.41421356237311063
0
LWPOLYLINE
5
133
100
AcDbEntity
8
0
100
AcDbPolyline
90
8
70
1
43
0.0
10
303.90194987234293
20
0.86769166032613532
10
303.90194987234293
20
-12.132308339673861
42
0.41421356237313406
10
304.40194987234287
20
-12.632308339673834
10
317.40194987234293
20
-12.632308339673861
42
0.41421356237304691
10
317.90194987234293
20
-12.132308339673861
10
317.90194987234293
20
0.86769166032613576
42
0.41421356237310181
10
317.40194987234293
20
1.3676916603261371
10
304.40194987234287
20
1.3676916603261369
42
0.41421356237307777
0
LWPOLYLINE
5
134
100
AcDbEntity
8
0
100
AcDbPolyline
90
8
70
1
43
0.0
10
212.62694987234283
20
1.367691660326136
10
199.62694987234283
20
1.367691660326126
42
0.41421356237307388
10
199.12694987234283
20
0.86769166032612643
10
199.12694987234283
20
-12.132308339673855
42
0.41421356237313406
10
199.62694987234283
20
-12.632308339673834
10
212.62694987234283
20
-12.632308339673861
42
0.41421356237304818
10
213.12694987234283
20
-12.132308339673859
10
213.12694987234283
20
0.86769166032612466
42
0.41421356237310181
0
LWPOLYLINE
5
135
100
AcDbEntity
8
0
100
AcDbPolyline
90
8
70
1
43
0.0
10
122.92694987234287
20
0.86769166032611311
10
122.92694987234287
20
-12.132308339673861
42
0.41421356237307555
10
123.42694987234287
20
-12.632308339673928
10
136.42694987234287
20
-12.632308339673861
42
0.41421356237307555
10
136.92694987234287
20
-12.132308339673861
10
136.92694987234287
20
0.86769166032611411
42
0.41421356237307355
10
136.42694987234287
20
1.3676916603261167
10
123.42694987234287
20
1.3676916603261049
42
0.41421356237307261
0
LWPOLYLINE
5
136
100
AcDbEntity
8
0
100
AcDbPolyline
90
8
70
1
43
0.0
10
46.726949872342551
20
0.86769166032610423
10
46.726949872342551
20
-12.132308339673861
42
0.41421356237310025
10
47.226949872342558
20
-12.63230833967393
10
60.226949872342558
20
-12.632308339673861
42
0.4142135623730937
10
60.726949872342566
20
-12.132308339673861
10
60.726949872342558
20
0.86769166032610301
42
0.41421356237309953
10
60.226949872342544
20
1.3676916603261042
10
47.226949872342551
20
1.3676916603261045
42
0.41421356237309392
0
LWPOLYLINE
5
137
100
AcDbEntity
8
0
100
AcDbPolyline
90
8
70
1
43
0.0
10
65.776949872342556
20
0.86769166032610423
10
65.776949872342556
20
-12.132308339673861
42
0.41421356237309503
10
66.276949872342556
20
-12.632308339673932
10
79.276949872342556
20
-12.632308339673861
42
0.41421356237309631
10
79.776949872342556
20
-12.132308339673861
10
79.77694987234257
20
0.86769166032610323
42
0.41421356237310342
10
79.276949872342556
20
1.3676916603261158
10
66.276949872342556
20
1.3676916603261045
42
0.41421356237309392
0
LWPOLYLINE
5
138
100
AcDbEntity
8
0
100
AcDbPolyline
90
8
70
1
43
0.0
10
141.97694987234286
20
0.86769166032611311
10
141.97694987234286
20
-12.132308339673861
42
0.41421356237309631
10
142.47694987234286
20
-12.632308339673928
10
155.47694987234286
20
-12.632308339673861
42
0.41421356237307683
10
155.97694987234286
20
-12.132308339673859
10
155.97694987234286
20
0.86769166032612433
42
0.41421356237307178
10
155.47694987234286
20
1.3676916603261169
10
142.47694987234286
20
1.3676916603261156
42
0.41421356237310653
0
LWPOLYLINE
5
139
100
AcDbEntity
8
0
100
AcDbPolyline
90
8
70
1
43
0.0
10
218.17694987234285
20
0.86769166032612199
10
218.17694987234285
20
-12.132308339673861
42
0.41421356237313406
10
218.67694987234285
20
-12.632308339673932
10
231.67694987234285
20
-12.632308339673861
42
0.41421356237304691
10
232.17694987234285
20
-12.132308339673861
10
232.17694987234285
20
0.86769166032613576
42
0.41421356237311996
10
231.67694987234285
20
1.367691660326136
10
218.67694987234285
20
1.3676916603261247
42
0.41421356237307844
0
LWPOLYLINE
5
140
100
AcDbEntity
8
0
100
AcDbPolyline
90
8
70
1
43
0.0
10
322.95194987234282
20
0.86769166032613532
10
322.95194987234282
20
-12.132308339673861
42
0.41421356237302087
10
323.45194987234277
20
-12.632308339673827
10
336.45194987234282
20
-12.632308339673857
42
0.41421356237319129
10
336.95194987234282
20
-12.132308339673861
10
336.95194987234282
20
0.86769166032614486
42
0.41421356237301743
10
336.45194987234282
20
1.3676916603261073
10
323.45194987234277
20
1.3676916603261371
42
0.41421356237311052
0
LWPOLYLINE
5
141
100
AcDbEntity
8
0
100
AcDbPolyline
90
8
70
1
43
0.0
10
322.95194987234282
20
-18.182308339673909
10
322.95194987234282
20
-31.182308339673874
42
0.41421356237301699
10
323.45194987234277
20
-31.682308339673838
10
336.45194987234282
20
-31.68230833967386
42
0.41421356237318868
10
336.95194987234282
20
-31.182308339673874
10
336.95194987234282
20
-18.182308339673924
42
0.41421356237323809
10
336.45194987234282
20
-17.682308339673849
10
323.45194987234277
20
-17.68230833967392
42
0.41421356237310542
0
LWPOLYLINE
5
142
100
AcDbEntity
8
0
100
AcDbPolyline
90
8
70
1
43
0.0
10
342.00194987234283
20
-37.232308339673921
10
342.00194987234283
20
-50.232308339673885
42
0.41421356237301177
10
342.50194987234283
20
-50.73230833967385
10
355.50194987234283
20
-50.732308339673871
42
0.41421356237318868
10
356.00194987234283
20
-50.232308339673885
10
356.00194987234283
20
-37.232308339673921
42
0.41421356237323809
10
355.50194987234283
20
-36.73230833967385
10
342.50194987234283
20
-36.732308339673914
42
0.41421356237311324
0
LWPOLYLINE
5
143
100
AcDbEntity
8
0
100
AcDbPolyline
90
8
70
1
43
0.0
10
299.13944987234282
20
-80.094808339673861
10
299.13944987234282
20
-93.094808339674287
42
0.41421356237304302
10
299.63944987234288
20
-93.594808339674159
10
312.63944987234288
20
-93.594808339674273
42
0.41421356237307422
10
313.13944987234288
20
-93.094808339674287
10
313.13944987234288
20
-80.094808339673861
42
0.41421356237311585
10
312.63944987234288
20
-79.594808339673875
10
299.63944987234288
20
-79.594808339673833
42
0.41421356237310542
0
LWPOLYLINE
5
144
100
AcDbEntity
8
0
100
AcDbPolyline
90
8
70
1
43
0.0
10
249.13319987234286
20
-56.282308339673918
10
249.13319987234286
20
-69.282308339673889
42
0.41421356237312101
10
249.63319987234286
20
-69.782308339673847
10
262.63319987234291
20
-69.782308339673875
42
0.41421356237304818
10
263.13319987234291
20
-69.282308339673889
10
263.13319987234291
20
-56.282308339673925
42
0.41421356237310025
10
262.63319987234291
20
-55.782308339673847
10
249.63319987234286
20
-55.782308339673918
42
0.4142135623730222
0
LWPOLYLINE
5
145
100
AcDbEntity
8
0
100
AcDbPolyline
90
8
70
1
43
0.0
10
250.06444987234286
20
-75.33230833967383
10
250.06444987234286
20
-88.332308339673887
42
0.4142135623730534
10
250.56444987234286
20
-88.83230833967383
10
251.56444987234289
20
-88.832308339673872
42
0.4142135623730534
10
252.06444987234289
20
-88.332308339673887
10
252.06444987234289
20
-75.33230833967383
42
0.41421356237310542
10
251.56444987234289
20
-74.832308339673872
10
250.56444987234289
20
-74.832308339673816
42
0.41421356237307422
0
LWPOLYLINE
5
146
100
AcDbEntity
8
0
100
AcDbPolyline
90
8
70
1
43
0.0
10
89.589449872342541
20
-56.282308339673925
10
89.589449872342541
20
-69.282308339673889
42
0.41421356237310025
10
90.089449872342556
20
-69.782308339673961
10
103.08944987234285
20
-69.782308339673889
42
0.41421356237310025
10
103.58944987234284
20
-69.282308339673889
10
103.58944987234287
20
-56.282308339673925
42
0.41421356237310542
10
103.08944987234285
20
-55.782308339673847
10
90.089449872342556
20
-55.782308339673904
42
0.41421356237311063
0
LWPOLYLINE
5
147
100
AcDbEntity
8
0
100
AcDbPolyline
90
8
70
1
43
0.0
10
11.008199872342539
20
-75.332308339673929
10
11.008199872342539
20
-88.332308339673887
42
0.41421356237306123
10
11.508199872342537
20
-88.83230833967383
10
26.889449872342542
20
-88.832308339673872
42
0.41421356237310281
10
27.389449872342546
20
-88.332308339673887
10
27.389449872342539
20
-75.332308339673929
42
0.41421356237309764
10
26.889449872342542
20
-74.832308339673887
10
11.508199872342537
20
-74.832308339673943
42
0.41421356237308854
0
LWPOLYLINE
5
148
100
AcDbEntity
8
0
100
AcDbPolyline
90
8
70
1
43
0.0
10
185.33944987234281
20
-69.782308339673889
42
-0.41421356237313145
10
184.83944987234281
20
-69.282308339673889
10
184.83944987234278
20
-56.282308339673918
42
-0.41421356237307422
10
185.33944987234281
20
-55.782308339673918
10
198.33944987234281
20
-55.782308339673904
42
-0.41421356237310025
10
198.83944987234284
20
-56.282308339673925
10
198.83944987234284
20
-69.282308339673889
42
-0.41421356237304818
10
198.33944987234281
20
-69.782308339673875
0
LWPOLYLINE
5
149
100
AcDbEntity
8
0
100
AcDbPolyline
90
8
70
1
43
0.0
10
127.68944987234286
20
-56.282308339673925
10
127.68944987234286
20
-69.282308339673889
42
0.41421356237308982
10
128.18944987234286
20
-69.782308339673861
10
141.18944987234286
20
-69.782308339673889
42
0.41421356237311585
10
141.68944987234286
20
-69.282308339673889
10
141.68944987234286
20
-56.282308339673925
42
0.41421356237310542
10
141.18944987234286
20
-55.782308339673854
10
128.18944987234286
20
-55.782308339673918
42
0.41421356237310542
0
LWPOLYLINE
5
150
100
AcDbEntity
8
0
100
AcDbPolyline
90
8
70
1
43
0.0
10
217.38944987234282
20
-55.782308339673847
10
204.38944987234288
20
-55.782308339673847
42
0.4142135623730222
10
203.88944987234285
20
-56.282308339673918
10
203.88944987234285
20
-69.282308339673889
42
0.41421356237312101
10
204.38944987234288
20
-69.782308339673847
10
217.38944987234282
20
-69.782308339673875
42
0.41421356237304818
10
217.88944987234285
20
-69.282308339673889
10
217.88944987234285
20
-56.282308339673925
42
0.41421356237310025
0
LWPOLYLINE
5
151
100
AcDbEntity
8
0
100
AcDbPolyline
90
8
70
1
43
0.0
10
243.53319987234286
20
-56.282308339673918
10
243.53319987234286
20
-69.282308339673889
42
0.41421356237313145
10
244.03319987234286
20
-69.782308339673847
10
245.03319987234289
20
-69.782308339673875
42
0.41421356237307944
10
245.53319987234286
20
-69.282308339673889
10
245.53319987234289
20
-56.282308339673925
42
0.41421356237311063
10
245.03319987234289
20
-55.782308339673847
10
244.03319987234286
20
-55.782308339673918
42
0.41421356237307422
0
LWPOLYLINE
5
152
100
AcDbEntity
8
0
100
AcDbPolyline
90
8
70
1
43
0.0
10
261.03944987234291
20
-80.094808339673875
10
261.03944987234291
20
-93.094808339674302
42
0.4142135623730534
10
261.53944987234291
20
-93.594808339674159
10
274.53944987234291
20
-93.594808339674273
42
0.41421356237307422
10
275.03944987234286
20
-93.094808339674287
10
275.03944987234291
20
-80.094808339673861
42
0.41421356237311585
10
274.53944987234291
20
-79.594808339673875
10
261.53944987234291
20
-79.594808339673833
42
0.41421356237311585
0
LWPOLYLINE
5
153
100
AcDbEntity
8
0
100
AcDbPolyline
90
8
70
1
43
0.0
10
342.00194987234283
20
-75.33230833967383
10
342.00194987234283
20
-88.332308339673887
42
0.41421356237300139
10
342.50194987234283
20
-88.83230833967383
10
355.50194987234283
20
-88.832308339673872
42
0.41421356237313667
10
356.00194987234283
20
-88.332308339673887
10
356.00194987234283
20
-75.33230833967383
42
0.41421356237319906
10
355.50194987234283
20
-74.832308339673858
10
342.50194987234283
20
-74.832308339673816
42
0.41421356237310542
0
LWPOLYLINE
5
154
100
AcDbEntity
8
0
100
AcDbPolyline
90
8
70
1
43
0.0
10
322.95194987234282
20
-56.282308339673925
10
322.95194987234282
20
-69.282308339673889
42
0.41421356237301177
10
323.45194987234277
20
-69.782308339673861
10
336.45194987234282
20
-69.782308339673889
42
0.41421356237318868
10
336.95194987234282
20
-69.282308339673889
10
336.95194987234282
20
-56.282308339673925
42
0.41421356237324591
10
336.45194987234282
20
-55.782308339673946
10
323.45194987234277
20
-55.782308339673925
42
0.41421356237311063
0
LWPOLYLINE
5
155
100
AcDbEntity
8
0
100
AcDbPolyline
90
8
70
1
43
0.0
10
361.55194987234279
20
-12.632308339673843
42
-0.41421356237302087
10
361.05194987234285
20
-12.132308339673855
10
361.05194987234285
20
0.86769166032614864
42
-0.41421356237310641
10
361.55194987234279
20
1.3676916603261382
10
374.55194987234285
20
1.3676916603261309
42
-0.41421356237301948
10
375.05194987234285
20
0.86769166032614642
10
375.05194987234285
20
-12.132308339673859
42
-0.41421356237319257
10
374.55194987234285
20
-12.632308339673857
0
LWPOLYLINE
5
156
100
AcDbEntity
8
0
100
AcDbPolyline
90
8
70
1
43
0.0
10
180.07694987234285
20
0.86769166032612643
10
180.07694987234285
20
-12.132308339673855
42
0.41421356237312362
10
180.57694987234285
20
-12.63230833967393
10
193.57694987234285
20
-12.632308339673857
42
0.41421356237307683
10
194.07694987234288
20
-12.132308339673859
10
194.07694987234288
20
0.86769166032612466
42
0.41421356237313101
10
193.57694987234285
20
1.3676916603261258
10
180.57694987234285
20
1.3676916603261158
42
0.41421356237304247
0
LWPOLYLINE
5
157
100
AcDbEntity
8
0
100
AcDbPolyline
90
8
70
1
43
0.0
10
103.87694987234285
20
0.86769166032611755
10
103.87694987234285
20
-12.132308339673855
42
0.41421356237309631
10
104.37694987234283
20
-12.63230833967393
10
117.37694987234285
20
-12.632308339673861
42
0.41421356237310675
10
117.87694987234283
20
-12.132308339673861
10
117.87694987234286
20
0.86769166032611356
42
0.41421356237309209
10
117.37694987234285
20
1.3676916603261167
10
104.37694987234283
20
1.3676916603261049
42
0.4142135623731012
0
LWPOLYLINE
5
158
100
AcDbEntity
8
0
100
AcDbPolyline
90
8
70
1
43
0.0
10
27.676949872342544
20
0.86769166032610423
10
27.676949872342544
20
-12.132308339673861
42
0.41421356237309631
10
28.176949872342547
20
-12.63230833967393
10
41.176949872342547
20
-12.632308339673861
42
0.4142135623730937
10
41.676949872342547
20
-12.132308339673861
10
41.676949872342547
20
0.86769166032610301
42
0.41421356237309431
10
41.176949872342547
20
1.3676916603260931
10
28.176949872342547
20
1.3676916603260934
42
0.41421356237309531
0
LWPOLYLINE
5
159
100
AcDbEntity
8
0
100
AcDbPolyline
90
8
70
1
43
0.0
10
8.6269498723425748
20
0.86769166032610334
42
-0.41421356237308637
10
9.1269498723425748
20
1.3676916603260931
10
22.126949872342543
20
1.3676916603260891
42
-0.41421356237309243
10
22.626949872342543
20
0.86769166032610423
10
22.626949872342543
20
-12.132308339673861
42
-0.41421356237309503
10
22.126949872342543
20
-12.632308339673861
10
9.1269498723425748
20
-12.632308339673861
42
-0.4142135623730957
10
8.6269498723425748
20
-12.132308339673861
0
LWPOLYLINE
5
160
100
AcDbEntity
8
0
100
AcDbPolyline
90
8
70
1
43
0.0
10
84.826949872342539
20
0.86769166032611311
10
84.826949872342539
20
-12.132308339673861
42
0.41421356237309631
10
85.326949872342539
20
-12.632308339673928
10
98.326949872342553
20
-12.632308339673857
42
0.41421356237310414
10
98.826949872342539
20
-12.132308339673861
10
98.826949872342567
20
0.86769166032611356
42
0.41421356237309209
10
98.326949872342553
20
1.367691660326116
10
85.326949872342539
20
1.3676916603261047
42
0.41421356237310369
0
LWPOLYLINE
5
161
100
AcDbEntity
8
0
100
AcDbPolyline
90
8
70
1
43
0.0
10
161.02694987234284
20
0.86769166032612199
10
161.02694987234284
20
-12.132308339673861
42
0.41421356237312362
10
161.52694987234284
20
-12.632308339673926
10
174.52694987234284
20
-12.632308339673857
42
0.41421356237307683
10
175.02694987234281
20
-12.132308339673859
10
175.02694987234287
20
0.86769166032612433
42
0.41421356237313106
10
174.52694987234284
20
1.3676916603261258
10
161.52694987234284
20
1.3676916603261169
42
0.41421356237304574
0
LWPOLYLINE
5
162
100
AcDbEntity
8
0
100
AcDbPolyline
90
8
70
1
43
0.0
10
237.22694987234286
20
0.86769166032613532
10
237.22694987234286
20
-12.132308339673861
42
0.41421356237314444
10
237.72694987234286
20
-12.632308339673934
10
250.72694987234286
20
-12.632308339673857
42
0.4142135623730443
10
251.22694987234286
20
-12.132308339673861
10
251.22694987234286
20
0.86769166032613598
42
0.41421356237314083
10
250.72694987234283
20
1.3676916603261267
10
237.7269498723428
20
1.3676916603261249
42
0.41421356237304352
0
LWPOLYLINE
5
163
100
AcDbEntity
8
0
100
AcDbPolyline
90
8
70
1
43
0.0
10
342.00194987234283
20
0.86769166032614864
10
342.00194987234283
20
-12.132308339673855
42
0.41421356237302087
10
342.50194987234283
20
-12.63230833967383
10
355.50194987234283
20
-12.632308339673857
42
0.41421356237319257
10
356.00194987234283
20
-12.132308339673859
10
356.00194987234283
20
0.86769166032614575
42
0.41421356237301743
10
355.50194987234283
20
1.3676916603261464
10
342.50194987234283
20
1.3676916603261375
42
0.41421356237310597
0
LWPOLYLINE
5
164
100
AcDbEntity
8
0
100
AcDbPolyline
90
8
70
1
43
0.0
10
303.90194987234293
20
-18.182308339673909
10
303.90194987234293
20
-31.182308339673874
42
0.41421356237313145
10
304.40194987234287
20
-31.682308339673931
10
317.40194987234293
20
-31.682308339673853
42
0.41421356237303519
10
317.90194987234293
20
-31.182308339673877
10
317.90194987234293
20
-18.182308339673913
42
0.41421356237312362
10
317.40194987234293
20
-17.682308339673849
10
304.40194987234287
20
-17.682308339673916
42
0.41421356237307422
0
LWPOLYLINE
5
165
100
AcDbEntity
8
0
100
AcDbPolyline
90
8
70
1
43
0.0
10
342.00194987234283
20
-56.282308339673925
10
342.00194987234283
20
-69.282308339673889
42
0.41421356237301177
10
342.50194987234283
20
-69.782308339673847
10
355.50194987234283
20
-69.782308339673875
42
0.41421356237318346
10
356.00194987234283
20
-69.282308339673889
10
356.00194987234283
20
-56.282308339673826
42
0.41421356237303258
10
355.50194987234283
20
-55.782308339673847
10
342.50194987234283
20
-55.782308339673918
42
0.41421356237311585
0
LWPOLYLINE
5
166
100
AcDbEntity
8
0
100
AcDbPolyline
90
8
70
1
43
0.0
10
336.45194987234282
20
-74.832308339673887
10
323.45194987234277
20
-74.832308339673887
42
0.41421356237310542
10
322.95194987234282
20
-75.33230833967383
10
322.95194987234282
20
-88.332308339673887
42
0.41421356237300139
10
323.45194987234277
20
-88.83230833967383
10
336.45194987234282
20
-88.832308339673872
42
0.41421356237312623
10
336.95194987234282
20
-88.332308339673901
10
336.95194987234282
20
-75.332308339673844
42
0.41421356237319906
0
LWPOLYLINE
5
167
100
AcDbEntity
8
0
100
AcDbPolyline
90
8
70
1
43
0.0
10
280.08944987234293
20
-80.094808339673861
10
280.08944987234293
20
-93.094808339674287
42
0.41421356237304302
10
280.58944987234293
20
-93.594808339674159
10
293.58944987234293
20
-93.594808339674273
42
0.41421356237307422
10
294.08944987234287
20
-93.094808339674287
10
294.08944987234293
20
-80.094808339673861
42
0.41421356237311585
10
293.58944987234293
20
-79.594808339673875
10
280.58944987234293
20
-79.594808339673833
42
0.41421356237310542
0
LWPOLYLINE
5
168
100
AcDbEntity
8
0
100
AcDbPolyline
90
8
70
1
43
0.0
10
266.73319987234288
20
-56.282308339673918
10
266.73319987234288
20
-69.282308339673889
42
0.41421356237313145
10
267.23319987234288
20
-69.782308339673847
10
268.23319987234288
20
-69.782308339673875
42
0.41421356237304818
10
268.73319987234288
20
-69.282308339673889
10
268.73319987234288
20
-56.282308339673925
42
0.41421356237310025
10
268.23319987234288
20
-55.782308339673847
10
267.23319987234288
20
-55.782308339673918
42
0.41421356237307422
0
LWPOLYLINE
5
169
100
AcDbEntity
8
0
100
AcDbPolyline
90
8
70
1
43
0.0
10
236.43944987234283
20
-55.782308339673847
10
223.43944987234283
20
-55.782308339673847
42
0.41421356237307422
10
222.93944987234283
20
-56.282308339673918
10
222.93944987234283
20
-69.282308339673889
42
0.41421356237313145
10
223.43944987234283
20
-69.782308339673847
10
236.43944987234283
20
-69.782308339673875
42
0.41421356237304818
10
236.93944987234283
20
-69.282308339673889
10
236.93944987234286
20
-56.282308339673925
42
0.41421356237310025
0
LWPOLYLINE
5
170
100
AcDbEntity
8
0
100
AcDbPolyline
90
8
70
1
43
0.0
10
108.63944987234285
20
-56.282308339673932
10
108.63944987234285
20
-69.282308339673904
42
0.41421356237309503
10
109.13944987234287
20
-69.782308339673961
10
122.13944987234287
20
-69.782308339673889
42
0.41421356237310025
10
122.63944987234285
20
-69.282308339673889
10
122.63944987234288
20
-56.282308339673925
42
0.41421356237311585
10
122.13944987234285
20
-55.782308339673854
10
109.13944987234285
20
-55.782308339673918
42
0.41421356237311063
0
LWPOLYLINE
5
171
100
AcDbEntity
8
0
100
AcDbPolyline
90
8
70
1
43
0.0
10
165.78944987234283
20
-56.282308339673925
10
165.78944987234283
20
-69.282308339673889
42
0.41421356237313145
10
166.2894498723428
20
-69.782308339673961
10
179.2894498723428
20
-69.782308339673889
42
0.4142135623730534
10
179.78944987234283
20
-69.282308339673889
10
179.78944987234283
20
-56.282308339673925
42
0.41421356237310025
10
179.2894498723428
20
-55.782308339673847
10
166.2894498723428
20
-55.782308339673918
42
0.41421356237307944
0
LWPOLYLINE
5
172
100
AcDbEntity
8
0
100
AcDbPolyline
90
8
70
1
43
0.0
10
7.7894498723425718
20
-75.332308339673929
10
7.7894498723425807
20
-88.332308339673887
42
0.4142135623730599
10
8.2894498723425816
20
-88.83230833967383
10
9.2894498723425798
20
-88.832308339673872
42
0.41421356237309309
10
9.7894498723425389
20
-88.332308339673901
10
9.7894498723425816
20
-75.332308339673958
42
0.41421356237310542
10
9.2894498723425816
20
-74.832308339673887
10
8.2894498723425833
20
-74.832308339673943
42
0.41421356237309115
0
LWPOLYLINE
5
173
100
AcDbEntity
8
0
100
AcDbPolyline
90
20
70
1
43
0.0
10
361.05194987234285
20
-80.370308339673898
42
-0.4142135623730534
10
360.5519498723429
20
-80.870308339673898
42
0.41421356237306384
10
360.05194987234285
20
-81.370308339673883
10
360.0519498723429
20
-87.120308339673926
42
0.41421356237300139
10
360.5519498723429
20
-87.620308339673798
42
-0.41421356237306384
10
361.05194987234285
20
-88.120308339673855
10
361.05194987234285
20
-88.332308339673887
42
0.41421356237300139
10
361.55194987234279
20
-88.83230833967383
10
374.55194987234285
20
-88.832308339673872
42
0.41421356237313667
10
375.05194987234285
20
-88.332308339673887
10
375.05194987234285
20
-56.282308339673925
42
0.41421356237324591
10
374.55194987234285
20
-55.782308339673847
10
361.55194987234279
20
-55.782308339673918
42
0.41421356237298579
10
361.05194987234285
20
-56.282308339673818
10
361.05194987234285
20
-56.49430833967385
42
-0.41421356237310542
10
360.5519498723429
20
-56.994308339673871
42
0.41421356237311585
10
360.05194987234285
20
-57.494308339673879
10
360.0519498723429
20
-63.244308339673914
42
0.41421356237301177
10
360.5519498723429
20
-63.744308339673843
42
-0.41421356237311585
10
361.05194987234285
20
-64.24430833967385
0
LWPOLYLINE
5
174
100
AcDbEntity
8
0
100
AcDbPolyline
90
8
70
1
43
0.0
10
95.967594872342545
20
-79.082558339673852
10
95.967594872342545
20
-84.582058339673836
42
0.41421356237309503
10
96.467594872342559
20
-85.082058339673878
10
116.90505487234284
20
-85.082058339673836
42
0.41421356237309503
10
117.40505487234286
20
-84.582058339673836
10
117.40505487234286
20
-79.082558339673838
42
0.41421356237309503
10
116.90505487234284
20
-78.582558339673866
10
96.467594872342559
20
-78.582558339673824
42
0.41421356237310025
0
CIRCLE
5
175
100
AcDbEntity
8
0
100
AcDbCircle
10
15.125606757964544
20
7.0373608354772967
30
0
40
1.1000000000000008
210
2.157904474333878e-33
220
1.3877787807814457e-17
230
1
0
CIRCLE
5
176
100
AcDbEntity
8
0
100
AcDbCircle
10
249.25552215796486
20
7.037360835477279
30
4.4408920985006262e-15
40
1.1000000000000008
210
2.157904474333878e-33
220
1.3877787807814457e-17
230
1
0
CIRCLE
5
177
100
AcDbEntity
8
0
100
AcDbCircle
10
368.07544882355586
20
-99.254776273983524
30
4.4408920985006262e-15
40
1.1000000000000008
210
2.157904474333878e-33
220
1.3877787807814457e-17
230
1
0
CIRCLE
5
178
100
AcDbEntity
8
0
100
AcDbCircle
10
82.945383692745253
20
-99.25471276452302
30
4.4408920985006262e-15
40
1.1000000000000008
210
2.157904474333878e-33
220
1.3877787807814457e-17
230
1
0
CIRCLE
5
179
100
AcDbEntity
8
0
100
AcDbCircle
10
15.125533423555542
20
-99.254776273983538
30
4.4408920985006262e-15
40
1.1000000000000008
210
2.157904474333878e-33
220
1.3877787807814457e-17
230
1
0
CIRCLE
5
180
100
AcDbEntity
8
0
100
AcDbCircle
10
249.25552215796486
20
-99.254712764523049
30
4.4408920985006262e-15
40
1.1000000000000008
210
2.157904474333878e-33
220
1.3877787807814457e-17
230
1
0
CIRCLE
5
181
100
AcDbEntity
8
0
100
AcDbCircle
10
368.07552215796483
20
7.0373608354773012
30
0
40
1.1000000000000008
210
2.157904474333878e-33
220
1.3877787807814457e-17
230
1
0
CIRCLE
5
182
100
AcDbEntity
8
0
100
AcDbCircle
10
133.94560675796487
20
7.0373608354772763
30
4.4408920985006262e-15
40
1.1000000000000008
210
2.157904474333878e-33
220
1.3877787807814457e-17
230
1
0
LWPOLYLINE
5
183
100
AcDbEntity
8
0
100
AcDbPolyline
90
8
70
1
43
0.0
10
151.57178320565987
20
-85.082308339673688
42
-0.41421356237312623
10
151.07178320565987
20
-84.582308339673702
10
151.07178320565984
20
-79.082308339673688
42
-0.41421356237304302
10
151.57178320565987
20
-78.582308339673745
10
169.12694987232385
20
-78.582308339673659
42
-0.4142135623730846
10
169.62694987232385
20
-79.082308339673673
10
169.62694987232481
20
-84.582308339673688
42
-0.41421356237374019
10
169.12694987232385
20
-85.082308339673759
0
LWPOLYLINE
5
184
100
AcDbEntity
8
0
100
AcDbPolyline
90
8
70
1
43
0.0
10
8.2894498723425727
20
-31.682308339673938
10
9.2894498723425833
20
-31.682308339673938
42
0.41421356237302676
10
9.7894498723425407
20
-31.18230833967398
10
9.7894498723425727
20
-18.182308339673931
42
0.41421356237310086
10
9.2894498723425727
20
-17.682308339673952
10
8.2894498723425727
20
-17.682308339673924
42
0.4142135623730937
10
7.7894498723425745
20
-18.182308339673924
10
7.7894498723425718
20
-31.18230833967397
42
0.41421356237303392
0
LWPOLYLINE
5
185
100
AcDbEntity
8
0
100
AcDbPolyline
90
8
70
1
43
0.0
10
29.270699872342547
20
-36.732308339673921
42
-0.41421356237309764
10
29.770699872342547
20
-37.232308339673921
10
29.770699872342547
20
-50.232308339673978
42
-0.41421356237307161
10
29.270699872342544
20
-50.73230833967397
10
10.670699872342537
20
-50.73230833967397
42
-0.41421356237310153
10
10.170699872342539
20
-50.232308339673978
10
10.170699872342539
20
-37.232308339673921
42
-0.41421356237309631
10
10.670699872342539
20
-36.732308339673914
0
LWPOLYLINE
5
186
100
AcDbEntity
8
0
100
AcDbPolyline
90
8
70
1
43
0.0
10
34.870699872342556
20
-36.732308339673921
42
-0.41421356237309764
10
35.370699872342549
20
-37.232308339673921
10
35.370699872342549
20
-50.232308339673978
42
-0.41421356237307161
10
34.870699872342549
20
-50.73230833967397
10
33.870699872342549
20
-50.73230833967397
42
-0.41421356237307944
10
33.370699872342549
20
-50.232308339673978
10
33.370699872342549
20
-37.232308339673921
42
-0.41421356237310281
10
33.870699872342549
20
-36.732308339673914
0
LWPOLYLINE
5
187
100
AcDbEntity
8
0
100
AcDbPolyline
90
8
70
1
43
0.0
10
55.464449872342541
20
-36.732308339673907
42
-0.41421356237309503
10
55.964449872342541
20
-37.232308339673928
10
55.964449872342541
20
-50.232308339673892
42
-0.41421356237309503
10
55.464449872342541
20
-50.732308339673871
10
42.464449872342549
20
-50.732308339673963
42
-0.4142135623730846
10
41.964449872342549
20
-50.232308339673978
10
41.964449872342549
20
-37.232308339673921
42
-0.41421356237308982
10
42.464449872342549
20
-36.732308339673914
0
LWPOLYLINE
5
188
100
AcDbEntity
8
0
100
AcDbPolyline
90
8
70
1
43
0.0
10
74.514449872342553
20
-36.732308339673899
42
-0.41421356237309503
10
75.014449872342553
20
-37.232308339673914
10
75.014449872342553
20
-50.232308339673878
42
-0.41421356237313145
10
74.514449872342553
20
-50.73230833967397
10
61.51444987234256
20
-50.732308339673871
42
-0.41421356237310025
10
61.01444987234256
20
-50.232308339673885
10
61.01444987234256
20
-37.232308339673921
42
-0.41421356237308982
10
61.51444987234256
20
-36.732308339673921
0
LWPOLYLINE
5
189
100
AcDbEntity
8
0
100
AcDbPolyline
90
8
70
1
43
0.0
10
93.564449872342635
20
-36.732308339673907
42
-0.41421356237304302
10
94.06444987234255
20
-37.232308339673914
10
94.064449872342536
20
-50.232308339673878
42
-0.41421356237315748
10
93.56444987234255
20
-50.73230833967397
10
80.564449872342649
20
-50.73230833967397
42
-0.41421356237310542
10
80.064449872342635
20
-50.232308339673978
10
80.064449872342664
20
-37.232308339673921
42
-0.41421356237310542
10
80.564449872342649
20
-36.732308339673907
0
LWPOLYLINE
5
190
100
AcDbEntity
8
0
100
AcDbPolyline
90
8
70
1
43
0.0
10
112.61444987234286
20
-36.732308339673907
42
-0.41421356237311846
10
113.11444987234287
20
-37.232308339673914
10
113.11444987234285
20
-50.232308339673878
42
-0.41421356237317308
10
112.61444987234286
20
-50.73230833967397
10
99.614449872342561
20
-50.732308339673992
42
-0.41421356237313145
10
99.114449872342547
20
-50.232308339673885
10
99.114449872342561
20
-37.232308339673921
42
-0.41421356237310542
10
99.614449872342561
20
-36.732308339673907
0
LWPOLYLINE
5
191
100
AcDbEntity
8
0
100
AcDbPolyline
90
8
70
1
43
0.0
10
131.66444987234286
20
-36.732308339673907
42
-0.41421356237311846
10
132.16444987234286
20
-37.232308339673914
10
132.16444987234286
20
-50.232308339673878
42
-0.41421356237312101
10
131.66444987234286
20
-50.732308339673871
10
118.66444987234287
20
-50.732308339673892
42
-0.41421356237302737
10
118.16444987234284
20
-50.232308339673978
10
118.16444987234286
20
-37.232308339673921
42
-0.41421356237310542
10
118.66444987234286
20
-36.732308339673907
0
LWPOLYLINE
5
192
100
AcDbEntity
8
0
100
AcDbPolyline
90
8
70
1
43
0.0
10
150.71444987234287
20
-36.732308339673899
42
-0.41421356237312362
10
151.21444987234287
20
-37.232308339673921
10
151.21444987234287
20
-50.232308339673885
42
-0.41421356237311585
10
150.71444987234287
20
-50.732308339673871
10
137.71444987234287
20
-50.732308339673878
42
-0.41421356237308982
10
137.21444987234287
20
-50.232308339673885
10
137.21444987234287
20
-37.232308339673921
42
-0.41421356237310281
10
137.71444987234287
20
-36.732308339673914
0
LWPOLYLINE
5
193
100
AcDbEntity
8
0
100
AcDbPolyline
90
8
70
1
43
0.0
10
169.76444987234285
20
-36.732308339673907
42
-0.41421356237313928
10
170.26444987234285
20
-37.232308339673921
10
170.26444987234285
20
-50.232308339673885
42
-0.41421356237307944
10
169.76444987234285
20
-50.732308339673871
10
156.76444987234282
20
-50.732308339673878
42
-0.414213562373069
10
156.26444987234288
20
-50.232308339673885
10
156.26444987234288
20
-37.232308339673921
42
-0.41421356237310281
10
156.76444987234288
20
-36.732308339673914
0
LWPOLYLINE
5
194
100
AcDbEntity
8
0
100
AcDbPolyline
90
8
70
1
43
0.0
10
188.81444987234283
20
-36.732308339673892
42
-0.41421356237310802
10
189.31444987234283
20
-37.232308339673921
10
189.31444987234283
20
-50.232308339673885
42
-0.41421356237304818
10
188.81444987234283
20
-50.732308339673871
10
175.81444987234281
20
-50.732308339673878
42
-0.41421356237313145
10
175.31444987234281
20
-50.232308339673885
10
175.31444987234278
20
-37.232308339673921
42
-0.41421356237307944
10
175.81444987234281
20
-36.732308339673914
0
LWPOLYLINE
5
195
100
AcDbEntity
8
0
100
AcDbPolyline
90
8
70
1
43
0.0
10
207.86444987234285
20
-36.732308339673892
42
-0.41421356237310802
10
208.36444987234285
20
-37.232308339673921
10
208.36444987234285
20
-50.232308339673885
42
-0.41421356237304818
10
207.86444987234285
20
-50.732308339673871
10
194.86444987234285
20
-50.732308339673864
42
-0.41421356237312101
10
194.36444987234285
20
-50.232308339673885
10
194.3644498723429
20
-37.232308339673921
42
-0.41421356237302737
10
194.86444987234285
20
-36.732308339673914
0
LWPOLYLINE
5
196
100
AcDbEntity
8
0
100
AcDbPolyline
90
8
70
1
43
0.0
10
226.91444987234286
20
-36.732308339673892
42
-0.41421356237310802
10
227.41444987234286
20
-37.232308339673921
10
227.41444987234286
20
-50.232308339673892
42
-0.41421356237304302
10
226.91444987234286
20
-50.732308339673871
10
213.91444987234283
20
-50.732308339673878
42
-0.41421356237313145
10
213.41444987234283
20
-50.232308339673885
10
213.4144498723428
20
-37.232308339673921
42
-0.41421356237307944
10
213.91444987234283
20
-36.732308339673914
0
LWPOLYLINE
5
197
100
AcDbEntity
8
0
100
AcDbPolyline
90
8
70
1
43
0.0
10
245.9644498723429
20
-36.732308339673914
42
-0.41421356237313406
10
246.4644498723429
20
-37.232308339673914
10
246.4644498723429
20
-50.232308339673878
42
-0.41421356237307944
10
245.9644498723429
20
-50.732308339673864
10
232.96444987234287
20
-50.732308339673878
42
-0.41421356237315227
10
232.46444987234284
20
-50.232308339673885
10
232.46444987234281
20
-37.232308339673921
42
-0.41421356237308204
10
232.96444987234284
20
-36.732308339673907
0
LWPOLYLINE
5
198
100
AcDbEntity
8
0
100
AcDbPolyline
90
8
70
1
43
0.0
10
251.51444987234296
20
-37.482308339673914
10
251.51444987234296
20
-49.982308339673942
42
0.41421356237306034
10
252.26444987234291
20
-50.732308339673935
10
264.76444987234294
20
-50.732308339673928
42
0.41421356237307771
10
265.51444987234294
20
-49.982308339673921
10
265.51444987234294
20
-37.482308339673899
42
0.41421356237309681
10
264.76444987234294
20
-36.732308339673935
10
252.26444987234294
20
-36.732308339673914
42
0.41421356237309503
0
LWPOLYLINE
5
199
100
AcDbEntity
8
0
100
AcDbPolyline
90
8
70
1
43
0.0
10
273.69569987234297
20
-41.207308339673915
10
286.19569987234297
20
-41.207308339673915
42
0.41421356237308116
10
286.94569987234297
20
-40.457308339673936
10
286.94569987234297
20
-27.957308339673919
42
0.41421356237307771
10
286.19569987234297
20
-27.207308339673911
10
273.69569987234297
20
-27.207308339673922
42
0.4142135623730846
10
272.94569987234297
20
-27.957308339673908
10
272.94569987234297
20
-40.457308339673908
42
0.41421356237309159
0
LWPOLYLINE
5
200
100
AcDbEntity
8
0
100
AcDbPolyline
90
8
70
1
43
0.0
10
266.5519498723429
20
-12.63230833967383
42
-0.41421356237310542
10
265.8019498723429
20
-11.882308339673846
10
265.8019498723429
20
0.61769166032616052
42
-0.41421356237309515
10
266.5519498723429
20
1.3676916603261362
10
279.0519498723429
20
1.3676916603261458
42
-0.41421356237309509
10
279.8019498723429
20
0.61769166032615175
10
279.80194987234296
20
-11.882308339673845
42
-0.41421356237309503
10
279.0519498723429
20
-12.632308339673862
0
LWPOLYLINE
5
201
100
AcDbEntity
8
0
100
AcDbPolyline
90
15
70
1
43
0.0
10
75.651949872342556
20
-73.832725122145746
10
75.651949872342556
20
-73.832308339673915
10
69.926949872342533
20
-73.832308339673972
42
0.31783724519560341
10
69.219843091156832
20
-74.332308339673844
42
-0.31783724519561452
10
68.512736309969767
20
-74.832308339673929
10
31.489449872342547
20
-74.832308339673915
42
0.41421356237310802
10
30.989449872342547
20
-75.332308339673929
10
30.989449872342547
20
-88.332308339673887
42
0.41421356237306123
10
31.489449872342547
20
-88.83230833967383
10
72.173148739504654
20
-88.832308339673943
42
0.3939606827247274
10
72.638357216191977
20
-88.333520258515605
42
-0.41421356237312101
10
73.138357216191935
20
-87.833520258515549
10
75.62694987234255
20
-87.833520258515549
42
0.41421356237310197
10
76.376949872342564
20
-87.083520258515534
10
76.376949872342564
20
-74.582308339674
42
0.40448201821026841
0
LWPOLYLINE
5
202
100
AcDbEntity
8
0
100
AcDbPolyline
90
8
70
1
43
0.0
10
71.039449872342558
20
-69.782308339673946
10
84.039449872342658
20
-69.782308339673946
42
0.41421356237304818
10
84.539449872342544
20
-69.282308339673889
10
84.539449872342544
20
-56.282308339673918
42
0.41421356237312101
10
84.039449872342544
20
-55.782308339673847
10
71.039449872342558
20
-55.782308339673904
42
0.41421356237310542
10
70.539449872342558
20
-56.282308339673925
10
70.539449872342573
20
-69.282308339673889
42
0.41421356237307944
0
LWPOLYLINE
5
203
100
AcDbEntity
8
0
100
AcDbPolyline
90
8
70
1
43
0.0
10
79.451949872342581
20
-87.832308339674256
10
89.92694987234259
20
-87.832308339673872
42
0.41421356237308815
10
90.676949872342561
20
-87.082308339673858
10
90.676949872342547
20
-74.58230833967383
42
0.41421356237309503
10
89.926949872342561
20
-73.832308339673816
10
79.451949872342567
20
-73.832308339673844
42
0.41421356237310197
10
78.701949872342553
20
-74.582308339673858
10
78.701949872342567
20
-87.08230833967427
42
0.41421356237310197
0
LWPOLYLINE
5
204
100
AcDbEntity
8
0
100
AcDbPolyline
90
8
70
1
43
0.0
10
180.40245665863549
20
-73.832800395910169
42
-0.41401566384548061
10
181.15194987234253
20
-74.582800224688583
10
181.15194987234253
20
-87.082308339674043
42
-0.41421356237308116
10
180.40194987234256
20
-87.832308339674057
10
174.7019498723426
20
-87.832308339674071
42
-0.41421356237307422
10
173.95194987234254
20
-87.082308339674057
10
173.95194987234254
20
-74.578948647983026
42
-0.41441148859756888
10
174.70245665863547
20
-73.828948819204612
0
LWPOLYLINE
5
205
100
AcDbEntity
8
0
100
AcDbPolyline
90
8
70
1
43
0.0
10
183.47694987234257
20
-74.582308339673943
10
183.47694987234257
20
-87.082308339673972
42
0.41421356237308815
10
184.22694987234254
20
-87.832308339673915
10
189.92694987234256
20
-87.832308339673943
42
0.41421356237310197
10
190.67694987234256
20
-87.082308339673929
10
190.67694987234256
20
-74.582308339673929
42
0.41421356237309503
10
189.92694987234256
20
-73.832308339673929
10
184.22694987234254
20
-73.832308339673915
42
0.41421356237310542
0
ENDSEC
0
SECTION
2
OBJECTS
0
DICTIONARY
5
C
100
AcDbDictionary
3
ACAD_GROUP
350
D
3
ACAD_MLINESTYLE
350
17
0
DICTIONARY
5
D
100
AcDbDictionary
0
DICTIONARY
5
1A
330
C
100
AcDbDictionary
0
DICTIONARY
5
17
100
AcDbDictionary
0
ENDSEC
0
EOF
