0
SECTION
2
HEADER
9
$INSUNITS
70
4
9
$ACADVER
1
AC1014
9
$HANDSEED
5
FFFF
0
ENDSEC
0
SECTION
2
TABLES
0
TABLE
2
VPORT
5
8
100
AcDbSymbolTable
0
ENDTAB
0
TABLE
2
LTYPE
5
5
100
AcDbSymbolTable
0
LTYPE
5
14
100
AcDbSymbolTableRecord
100
AcDbLinetypeTableRecord
2
BYBLOCK
70
0
0
LTYPE
5
15
100
AcDbSymbolTableRecord
100
AcDbLinetypeTableRecord
2
BYLAYER
70
0
0
ENDTAB
0
TABLE
2
LAYER
5
2
100
AcDbSymbolTable
70
2
0
LAYER
5
50
100
AcDbSymbolTableRecord
100
AcDbLayerTableRecord
2
0
70
0
6
CONTINUOUS
0
ENDTAB
0
TABLE
2
STYLE
5
3
100
AcDbSymbolTable
70
1
0
STYLE
5
11
100
AcDbSymbolTableRecord
100
AcDbTextStyleTableRecord
2
STANDARD
70
0
0
ENDTAB
0
TABLE
2
VIEW
5
6
100
AcDbSymbolTable
70
0
0
ENDTAB
0
TABLE
2
UCS
5
7
100
AcDbSymbolTable
70
0
0
ENDTAB
0
TABLE
2
APPID
5
9
100
AcDbSymbolTable
70
2
0
APPID
5
12
100
AcDbSymbolTableRecord
100
AcDbRegAppTableRecord
2
ACAD
70
0
0
ENDTAB
0
TABLE
2
DIMSTYLE
5
A
100
AcDbSymbolTable
70
1
0
ENDTAB
0
TABLE
2
BLOCK_RECORD
5
1
100
AcDbSymbolTable
70
1
0
BLOCK_RECORD
5
1F
100
AcDbSymbolTableRecord
100
AcDbBlockTableRecord
2
*MODEL_SPACE
0
BLOCK_RECORD
5
1B
100
AcDbSymbolTableRecord
100
AcDbBlockTableRecord
2
*PAPER_SPACE
0
ENDTAB
0
ENDSEC
0
SECTION
2
BLOCKS
0
BLOCK
5
20
100
AcDbEntity
100
AcDbBlockBegin
2
*MODEL_SPACE
0
ENDBLK
5
21
100
AcDbEntity
100
AcDbBlockEnd
0
BLOCK
5
1C
100
AcDbEntity
100
AcDbBlockBegin
2
*PAPER_SPACE
0
ENDBLK
5
1D
100
AcDbEntity
100
AcDbBlockEnd
0
ENDSEC
0
SECTION
2
ENTITIES
0
LWPOLYLINE
5
100
100
AcDbEntity
8
0
100
AcDbPolyline
90
8
70
1
43
0.0
10
151.93892349942843
20
-92.378706577409361
42
-0.41421356237307422
10
151.43892349942843
20
-91.878706577409361
10
151.43892349942843
20
-86.378706577409361
42
-0.41421356237310542
10
151.93892349942845
20
-85.878706577409361
10
169.49409016609246
20
-85.878706577409361
42
-0.41421356237315748
10
169.99409016609249
20
-86.378706577409361
10
169.99409016609249
20
-91.878706577409361
42
-0.41421356237313667
10
169.49409016609249
20
-92.378706577409361
0
LWPOLYLINE
5
101
100
AcDbEntity
8
0
100
AcDbPolyline
90
8
70
1
43
0.0
10
181.29292297734995
20
-94.61999117427446
10
181.29292297734949
20
-81.624214508411626
42
0.41401566384936828
10
180.79326083487146
20
-81.12421462255935
10
175.04326083487143
20
-81.120329260169299
42
0.4144114885937043
10
174.54292297734946
20
-81.620329146021589
10
174.54292297734992
20
-94.619991174274674
42
0.41421356237311585
10
175.04292297734995
20
-95.119991174274674
10
180.79292297734995
20
-95.119991174274489
42
0.4142135623730846
0
LWPOLYLINE
5
102
100
AcDbEntity
8
0
100
AcDbPolyline
90
10
70
1
43
0.0
10
84.062840166110703
20
-81.128706577409488
10
79.793090166100043
20
-81.128706578976022
42
0.41421356237314189
10
79.293090166100058
20
-81.628706578976022
10
79.293090166100541
20
-94.628706577409915
42
0.41421356237308982
10
79.793090166100541
20
-95.128706577409915
10
84.062840166110703
20
-95.128706577409545
10
90.312840166110746
20
-95.128706577409531
42
0.4142135623730846
10
90.812840166110732
20
-94.628706577409531
10
90.812840166110732
20
-81.628706577409517
42
0.41421356237309503
10
90.312840166110732
20
-81.128706577409531
0
CIRCLE
5
103
100
AcDbEntity
8
0
100
AcDbCircle
10
134.31274705173266
20
-0.25903740225841354
30
0
40
1.1000000000000003
0
CIRCLE
5
104
100
AcDbEntity
8
0
100
AcDbCircle
10
368.44266245173282
20
-0.25903740225842464
30
0
40
1.1000000000000003
0
CIRCLE
5
105
100
AcDbEntity
8
0
100
AcDbCircle
10
249.62266245173282
20
-106.55111100225837
30
0
40
1.1000000000000003
0
CIRCLE
5
106
100
AcDbEntity
8
0
100
AcDbCircle
10
15.492673717323735
20
-106.55117451171944
30
0
40
1.1000000000000003
0
CIRCLE
5
107
100
AcDbEntity
8
0
100
AcDbCircle
10
83.312523986513327
20
-106.55111100225835
30
0
40
1.1000000000000003
0
CIRCLE
5
108
100
AcDbEntity
8
0
100
AcDbCircle
10
368.44258911732396
20
-106.55117451171949
30
0
40
1.1000000000000003
0
CIRCLE
5
109
100
AcDbEntity
8
0
100
AcDbCircle
10
249.62266245173282
20
-0.25903740225843408
30
4.4408920985006262e-15
40
1.1000000000000003
0
CIRCLE
5
110
100
AcDbEntity
8
0
100
AcDbCircle
10
15.492747051732664
20
-0.25903740225838467
30
0
40
1.1000000000000003
0
LWPOLYLINE
5
111
100
AcDbEntity
8
0
100
AcDbPolyline
90
8
70
1
43
0.0
10
295.27499556541443
20
-6.4287065774095797
10
295.27499556541443
20
-57.528706577409572
42
0.41421356237313667
10
295.77499556541443
20
-58.028706577409572
10
298.67325683277738
20
-58.028706577409572
42
0.41421356237314189
10
299.17325683277738
20
-57.528706577409572
10
299.17325683277738
20
-6.4287065774095815
42
0.41421356237314122
10
298.67325683277738
20
-5.9287065774095886
10
295.77499556541443
20
-5.9287065774095895
42
0.41421356237313861
0
LWPOLYLINE
5
112
100
AcDbEntity
8
0
100
AcDbPolyline
90
8
70
1
43
0.0
10
96.334735166110704
20
-86.378956577409539
10
96.334735166110704
20
-91.878456577409494
42
0.41421356237310542
10
96.834735166110733
20
-92.378456577409494
10
117.27219516611072
20
-92.378456577409509
42
0.4142135623730846
10
117.77219516611071
20
-91.878456577409523
10
117.77219516611072
20
-86.378956577409539
42
0.41421356237309503
10
117.27219516611072
20
-85.878956577409511
10
96.834735166110733
20
-85.878956577409525
42
0.41421356237309503
0
LWPOLYLINE
5
113
100
AcDbEntity
8
0
100
AcDbPolyline
90
20
70
1
43
0.0
10
361.41909016611066
20
-87.66670657740957
42
-0.41421356237304302
10
360.91909016611078
20
-88.166706577409556
42
0.41421356237312623
10
360.41909016611078
20
-88.666706577409514
10
360.41909016611078
20
-94.416706577409514
42
0.4142135623730222
10
360.91909016611066
20
-94.916706577409542
42
-0.41421356237319906
10
361.41909016611072
20
-95.416706577409542
10
361.41909016611078
20
-95.628706577409517
42
0.41421356237300139
10
361.91909016611078
20
-96.128706577409488
10
374.91909016611078
20
-96.128706577409503
42
0.4142135623730534
10
375.41909016611072
20
-95.628706577409559
10
375.41909016611072
20
-63.578706577409562
42
0.4142135623730222
10
374.91909016611078
20
-63.078706577409591
10
361.91909016611078
20
-63.078706577409555
42
0.41421356237310025
10
361.41909016611078
20
-63.578706577409534
10
361.41909016611089
20
-63.790706577409544
42
-0.4142135623731939
10
360.91909016611078
20
-64.290706577409537
42
0.41421356237319906
10
360.41909016611078
20
-64.790706577409537
10
360.41909016611078
20
-70.540706577409537
42
0.41421356237323553
10
360.91909016611083
20
-71.040706577409466
42
-0.41421356237316265
10
361.41909016611078
20
-71.540706577409566
0
LWPOLYLINE
5
114
100
AcDbEntity
8
0
100
AcDbPolyline
90
20
70
1
43
0.0
10
43.213340166110747
20
-77.578706577409577
42
-0.41421356237310542
10
43.713340166110726
20
-77.078706577409562
10
46.306590166110723
20
-77.078706577409534
42
0.41421356237311063
10
46.80659016611073
20
-76.57870657740952
10
46.80659016611073
20
-63.578706577409541
42
0.41421356237309503
10
46.30659016611073
20
-63.078706577409548
10
11.875340166110735
20
-63.078706577409555
42
0.41421356237309892
10
11.37534016611073
20
-63.578706577409548
10
11.375340166110728
20
-76.578706577409548
42
0.41421356237309631
10
11.875340166110728
20
-77.078706577409534
10
12.087340166110723
20
-77.078706577409562
42
-0.41421356237310542
10
12.587340166110728
20
-77.578706577409562
42
0.4142135623730937
10
13.087340166110728
20
-78.078706577409562
10
18.837340166110728
20
-78.078706577409562
42
0.41421356237311063
10
19.337340166110724
20
-77.578706577409548
42
-0.41421356237310675
10
19.837340166110728
20
-77.078706577409534
10
35.963340166110733
20
-77.078706577409562
42
-0.41421356237311585
10
36.463340166110733
20
-77.578706577409577
42
0.41421356237309503
10
36.963340166110733
20
-78.078706577409577
10
42.713340166110726
20
-78.078706577409577
42
0.41421356237310542
0
LWPOLYLINE
5
115
100
AcDbEntity
8
0
100
AcDbPolyline
90
20
70
1
43
0.0
10
257.35609016611073
20
-19.928706577409582
42
-0.41421356237312623
10
257.85609016611073
20
-20.428706577409571
42
0.41421356237310281
10
258.35609016611073
20
-20.928706577409567
10
264.10609016611073
20
-20.928706577409567
42
0.41421356237308204
10
264.60609016611068
20
-20.428706577409571
42
-0.41421356237307683
10
265.10609016611073
20
-19.928706577409571
10
281.23209016611071
20
-19.92870657740955
42
-0.4142135623730222
10
281.73209016611071
20
-20.428706577409574
42
0.41421356237310025
10
282.23209016611071
20
-20.928706577409582
10
287.98209016611071
20
-20.928706577409567
42
0.41421356237308204
10
288.48209016611071
20
-20.428706577409571
42
-0.41421356237307944
10
288.98209016611071
20
-19.928706577409578
10
289.19409016611075
20
-19.928706577409571
42
0.41421356237304563
10
289.69409016611075
20
-19.428706577409574
10
289.69409016611075
20
-6.4287065774095788
42
0.4142135623731022
10
289.19409016611075
20
-5.9287065774095709
10
257.14409016611074
20
-5.9287065774095797
42
0.41421356237307877
10
256.64409016611074
20
-6.4287065774095815
10
256.64409016611074
20
-19.428706577409571
42
0.41421356237313273
10
257.14409016611074
20
-19.928706577409578
0
LWPOLYLINE
5
116
100
AcDbEntity
8
0
100
AcDbPolyline
90
72
70
1
43
0.0
10
6.4945239865134274
20
-2.9240374022583815
42
-0.41421356237309598
10
7.4945239865134274
20
-1.9240374022583804
10
10.415247051732663
20
-1.9240374022583802
42
0.26794919243112297
10
12.14729785930154
20
-0.92403740225837749
10
12.915173717323738
20
0.40596259774161225
42
-0.2679491924311237
10
14.647224524892614
20
1.4059625977416113
10
16.337823448134113
20
1.4059625977416119
42
-0.26794919243112358
10
18.069874255702988
20
0.40596259774161064
10
18.837750113725164
20
-0.92403740225838105
42
0.26794919243112275
10
20.569800921294039
20
-1.9240374022583819
10
129.23524705173267
20
-1.9240374022583939
42
0.26794919243112164
10
130.96729785930154
20
-0.92403740225840836
10
131.73517371732376
20
0.40596259774158205
42
-0.26794919243112264
10
133.46722452489263
20
1.4059625977415768
10
135.15782344813411
20
1.4059625977415811
42
-0.26794919243111692
10
136.88987425570301
20
0.40596259774158067
10
137.65775011372517
20
-0.92403740225838971
42
0.26794919243112392
10
139.38980092129407
20
-1.9240374022583961
10
244.54516245173284
20
-1.924037402258407
42
0.26794919243112164
10
246.2772132593017
20
-0.9240374022584108
10
247.0450891173239
20
0.40596259774154853
42
-0.2679491924311318
10
248.77713992489277
20
1.4059625977415409
10
250.46773884813427
20
1.4059625977415344
42
-0.26794919243113224
10
252.19978965570311
20
0.40596259774153987
10
252.96766551372531
20
-0.92403740225841846
42
0.26794919243112097
10
254.69971632129418
20
-1.924037402258409
10
363.36516245173289
20
-1.924037402258421
42
0.26794919243111137
10
365.09721325930167
20
-0.92403740225843167
10
365.86508911732381
20
0.40596259774159815
42
-0.26794919243111726
10
367.59713992489264
20
1.4059625977415726
10
369.28773884813427
20
1.4059625977415457
42
-0.26794919243111831
10
371.01978965570311
20
0.40596259774156956
10
371.7876655137253
20
-0.92403740225843567
42
0.26794919243112053
10
373.5197163212942
20
-1.924037402258423
10
376.91943938651349
20
-1.9240374022583573
42
-0.41421356237303031
10
377.91943938651349
20
-2.9240374022584348
10
377.91943938651343
20
-103.88611100225842
42
-0.4142135623730222
10
376.91943938651349
20
-104.8861110022584
10
373.51978965570311
20
-104.88611100225837
42
0.26794919243112453
10
371.78773884813427
20
-105.88611100225839
10
371.01978965570311
20
-107.21623802118057
42
-0.2679491924311157
10
369.28773884813427
20
-108.2162380211806
10
367.59713992489276
20
-108.2162380211806
42
-0.26794919243117593
10
365.86508911732386
20
-107.21623802118062
10
365.09713992489282
20
-105.88611100225839
42
0.26794919243112042
10
363.36508911732392
20
-104.8861110022584
10
254.69971632129418
20
-104.88611100225836
42
0.26794919243111809
10
252.96766551372536
20
-105.88611100225833
10
252.19978965570311
20
-107.21611100225837
42
-0.26794919243110299
10
250.46773884813427
20
-108.21611100225839
10
248.77713992489277
20
-108.21611100225843
42
-0.26794919243109883
10
247.0450891173239
20
-107.21611100225842
10
246.27721325930167
20
-105.88611100225836
42
0.26794919243112042
10
244.54516245173281
20
-104.88611100225839
10
88.389800921294054
20
-104.88611100225837
42
0.26794919243112691
10
86.657750113725186
20
-105.88611100225832
10
85.889874255703006
20
-107.21611100225837
42
-0.26794919243112286
10
84.157823448134067
20
-108.2161110022584
10
82.4672245248926
20
-108.21611100225839
42
-0.26794919243111859
10
80.735173717323704
20
-107.2161110022584
10
79.967297859301539
20
-105.88611100225836
42
0.26794919243113874
10
78.235247051732642
20
-104.88611100225837
10
20.569874255702999
20
-104.88611100225837
42
0.26794919243112353
10
18.837823448134113
20
-105.88611100225836
10
18.069874255702999
20
-107.21623802118054
42
-0.26794919243112914
10
16.33782344813411
20
-108.21623802118056
10
14.647224524892613
20
-108.21623802118054
42
-0.2679491924311343
10
12.915173717323739
20
-107.21623802118057
10
12.147224524892618
20
-105.88611100225836
42
0.26794919243112336
10
10.415173717323736
20
-104.88611100225837
10
7.4945239865133937
20
-104.88611100225836
42
-0.41421356237310902
10
6.4945239865134008
20
-103.88611100225833
0
LWPOLYLINE
5
117
100
AcDbEntity
8
0
100
AcDbPolyline
90
8
70
1
43
0.0
10
8.1565901661107212
20
-82.628706577409531
10
8.1565901661107283
20
-95.628706577409531
42
0.41421356237304885
10
8.6565901661107283
20
-96.128706577409503
10
9.6565901661107194
20
-96.128706577409503
42
0.41421356237306445
10
10.156590166110737
20
-95.628706577409531
10
10.156590166110728
20
-82.628706577409531
42
0.41421356237307422
10
9.6565901661107301
20
-82.128706577409517
10
8.6565901661107354
20
-82.128706577409517
42
0.41421356237306384
0
LWPOLYLINE
5
118
100
AcDbEntity
8
0
100
AcDbPolyline
90
14
70
1
43
0.0
10
228.73159016611072
20
-82.128706577409503
10
227.73159016611072
20
-82.128706577409503
42
0.11722389247593028
10
227.5065901661107
20
-82.182192299922207
42
0.11722389247600318
10
227.28159016611073
20
-82.128706577409503
10
192.8503401661107
20
-82.128706577409517
42
0.4142135623730846
10
192.3503401661107
20
-82.628706577409531
10
192.3503401661107
20
-95.628706577409503
42
0.4142135623730846
10
192.8503401661107
20
-96.128706577409531
10
227.28159016611073
20
-96.128706577409488
42
0.11722389247586168
10
227.50659016611075
20
-96.075220854896784
42
0.11722389247599949
10
227.73159016611066
20
-96.128706577409503
10
228.73159016611072
20
-96.128706577409488
42
0.41421356237312623
10
229.23159016611072
20
-95.628706577409503
10
229.23159016611072
20
-82.628706577409503
42
0.41421356237313667
0
LWPOLYLINE
5
119
100
AcDbEntity
8
0
100
AcDbPolyline
90
8
70
1
43
0.0
10
166.15659016611073
20
-63.578706577409569
10
166.15659016611073
20
-76.578706577409562
42
0.41421356237311585
10
166.65659016611073
20
-77.078706577409548
10
179.65659016611073
20
-77.078706577409562
42
0.41421356237307422
10
180.15659016611073
20
-76.578706577409562
10
180.15659016611073
20
-63.578706577409548
42
0.41421356237313667
10
179.65659016611073
20
-63.078706577409562
10
166.65659016611073
20
-63.078706577409555
42
0.41421356237303258
0
LWPOLYLINE
5
120
100
AcDbEntity
8
0
100
AcDbPolyline
90
8
70
1
43
0.0
10
109.00659016611071
20
-63.578706577409569
10
109.00659016611071
20
-76.578706577409562
42
0.41421356237307944
10
109.50659016611071
20
-77.078706577409562
10
122.5065901661107
20
-77.078706577409534
42
0.41421356237310025
10
123.00659016611073
20
-76.57870657740952
10
123.00659016611073
20
-63.578706577409534
42
0.41421356237307944
10
122.50659016611073
20
-63.078706577409548
10
109.50659016611073
20
-63.078706577409555
42
0.41421356237311585
0
LWPOLYLINE
5
121
100
AcDbEntity
8
0
100
AcDbPolyline
90
8
70
1
43
0.0
10
35.237840166110729
20
-44.028706577409579
10
34.237840166110736
20
-44.028706577409565
42
0.41421356237309764
10
33.737840166110729
20
-44.528706577409579
10
33.737840166110729
20
-57.528706577409558
42
0.41421356237310281
10
34.237840166110729
20
-58.028706577409572
10
35.237840166110729
20
-58.028706577409565
42
0.41421356237308204
10
35.737840166110729
20
-57.528706577409579
10
35.737840166110729
20
-44.528706577409586
42
0.41421356237309503
0
LWPOLYLINE
5
122
100
AcDbEntity
8
0
100
AcDbPolyline
90
8
70
1
43
0.0
10
151.08159016611074
20
-44.028706577409551
10
138.08159016611074
20
-44.028706577409558
42
0.4142135623730846
10
137.58159016611074
20
-44.528706577409558
10
137.58159016611074
20
-57.528706577409551
42
0.41421356237310025
10
138.08159016611074
20
-58.028706577409572
10
151.08159016611074
20
-58.028706577409565
42
0.414213562373069
10
151.58159016611074
20
-57.528706577409565
10
151.58159016611074
20
-44.528706577409565
42
0.41421356237307422
0
LWPOLYLINE
5
123
100
AcDbEntity
8
0
100
AcDbPolyline
90
8
70
1
43
0.0
10
114.26909016611074
20
-38.978706577409575
42
-0.41421356237309503
10
113.76909016611073
20
-38.478706577409568
10
113.76909016611073
20
-25.478706577409579
42
-0.41421356237310802
10
114.26909016611074
20
-24.978706577409575
10
127.26909016611073
20
-24.978706577409572
42
-0.41421356237307161
10
127.76909016611073
20
-25.478706577409575
10
127.76909016611073
20
-38.478706577409561
42
-0.41421356237308982
10
127.26909016611073
20
-38.978706577409568
0
LWPOLYLINE
5
124
100
AcDbEntity
8
0
100
AcDbPolyline
90
8
70
1
43
0.0
10
37.569090166110733
20
-25.478706577409579
10
37.569090166110733
20
-38.478706577409568
42
0.41421356237309243
10
38.069090166110726
20
-38.978706577409561
10
51.069090166110726
20
-38.978706577409568
42
0.41421356237310025
10
51.569090166110733
20
-38.478706577409568
10
51.569090166110733
20
-25.478706577409575
42
0.41421356237309764
10
51.069090166110733
20
-24.978706577409575
10
38.069090166110733
20
-24.978706577409575
42
0.41421356237309764
0
LWPOLYLINE
5
125
100
AcDbEntity
8
0
100
AcDbPolyline
90
8
70
1
43
0.0
10
171.41909016611072
20
-38.978706577409589
42
-0.41421356237310025
10
170.91909016611072
20
-38.478706577409568
10
170.91909016611072
20
-25.478706577409575
42
-0.4142135623730534
10
171.41909016611072
20
-24.978706577409572
10
184.41909016611072
20
-24.978706577409557
42
-0.41421356237310025
10
184.91909016611072
20
-25.478706577409575
10
184.91909016611072
20
-38.478706577409561
42
-0.4142135623730534
10
184.41909016611072
20
-38.978706577409568
0
LWPOLYLINE
5
126
100
AcDbEntity
8
0
100
AcDbPolyline
90
8
70
1
43
0.0
10
209.01909016611074
20
-25.478706577409575
10
209.01909016611074
20
-38.478706577409568
42
0.41421356237310281
10
209.51909016611074
20
-38.978706577409568
10
222.51909016611077
20
-38.978706577409568
42
0.41421356237307683
10
223.01909016611077
20
-38.478706577409575
10
223.01909016611077
20
-25.478706577409575
42
0.41421356237313145
10
222.51909016611077
20
-24.978706577409568
10
209.51909016611074
20
-24.978706577409572
42
0.4142135623730534
0
LWPOLYLINE
5
127
100
AcDbEntity
8
0
100
AcDbPolyline
90
8
70
1
43
0.0
10
247.11909016611074
20
-25.478706577409575
10
247.11909016611074
20
-38.478706577409568
42
0.41421356237313145
10
247.61909016611074
20
-38.978706577409568
10
260.61909016611077
20
-38.978706577409568
42
0.4142135623730534
10
261.11909016611077
20
-38.478706577409561
10
261.11909016611077
20
-25.478706577409575
42
0.41421356237310025
10
260.61909016611077
20
-24.978706577409575
10
247.61909016611074
20
-24.978706577409572
42
0.4142135623730846
0
LWPOLYLINE
5
128
100
AcDbEntity
8
0
100
AcDbPolyline
90
8
70
1
43
0.0
10
236.80659016611074
20
-63.078706577409555
10
223.80659016611074
20
-63.078706577409562
42
0.414213562373069
10
223.30659016611071
20
-63.578706577409548
10
223.30659016611071
20
-76.578706577409548
42
0.41421356237313667
10
223.80659016611074
20
-77.078706577409534
10
236.80659016611074
20
-77.078706577409534
42
0.41421356237304302
10
237.30659016611074
20
-76.578706577409562
10
237.30659016611074
20
-63.578706577409562
42
0.41421356237312101
0
LWPOLYLINE
5
129
100
AcDbEntity
8
0
100
AcDbPolyline
90
8
70
1
43
0.0
10
267.10034016611075
20
-63.578706577409548
10
267.10034016611075
20
-76.578706577409548
42
0.41421356237313145
10
267.60034016611075
20
-77.078706577409548
10
268.60034016611075
20
-77.078706577409548
42
0.41421356237307944
10
269.10034016611075
20
-76.578706577409548
10
269.10034016611075
20
-63.578706577409548
42
0.41421356237313667
10
268.60034016611075
20
-63.078706577409555
10
267.60034016611075
20
-63.078706577409555
42
0.41421356237307422
0
LWPOLYLINE
5
130
100
AcDbEntity
8
0
100
AcDbPolyline
90
8
70
1
43
0.0
10
280.45659016611074
20
-87.39120657740952
10
280.45659016611074
20
-100.39120657740953
42
0.41421356237306384
10
280.95659016611074
20
-100.89120657740951
10
293.95659016611074
20
-100.89120657740951
42
0.41421356237307422
10
294.45659016611074
20
-100.39120657740953
10
294.45659016611074
20
-87.39120657740952
42
0.41421356237313667
10
293.95659016611074
20
-86.891206577409505
10
280.95659016611074
20
-86.891206577409505
42
0.41421356237313667
0
LWPOLYLINE
5
131
100
AcDbEntity
8
0
100
AcDbPolyline
90
8
70
1
43
0.0
10
336.81909016611081
20
-82.128706577409517
10
323.81909016611075
20
-82.128706577409517
42
0.41421356237307422
10
323.31909016611075
20
-82.628706577409531
10
323.31909016611075
20
-95.628706577409517
42
0.41421356237300139
10
323.81909016611075
20
-96.128706577409474
10
336.81909016611081
20
-96.128706577409503
42
0.41421356237312623
10
337.31909016611075
20
-95.628706577409517
10
337.31909016611075
20
-82.628706577409531
42
0.4142135623730222
0
LWPOLYLINE
5
132
100
AcDbEntity
8
0
100
AcDbPolyline
90
8
70
1
43
0.0
10
342.36909016611082
20
-63.578706577409548
10
342.36909016611082
20
-76.578706577409548
42
0.4142135623730222
10
342.86909016611077
20
-77.07870657740952
10
355.86909016611071
20
-77.078706577409534
42
0.41421356237312101
10
356.36909016611071
20
-76.57870657740952
10
356.36909016611071
20
-63.578706577409541
42
0.4142135623730222
10
355.86909016611071
20
-63.078706577409577
10
342.86909016611077
20
-63.078706577409555
42
0.41421356237310542
0
LWPOLYLINE
5
133
100
AcDbEntity
8
0
100
AcDbPolyline
90
8
70
1
43
0.0
10
304.26909016611074
20
-25.478706577409579
10
304.26909016611074
20
-38.478706577409582
42
0.41421356237312101
10
304.76909016611074
20
-38.978706577409575
10
317.76909016611074
20
-38.978706577409568
42
0.41421356237307683
10
318.26909016611074
20
-38.478706577409575
10
318.26909016611074
20
-25.478706577409575
42
0.41421356237313145
10
317.76909016611074
20
-24.978706577409568
10
304.76909016611074
20
-24.978706577409575
42
0.41421356237304818
0
LWPOLYLINE
5
134
100
AcDbEntity
8
0
100
AcDbPolyline
90
8
70
1
43
0.0
10
342.36909016611082
20
-6.4287065774095815
10
342.36909016611082
20
-19.428706577409567
42
0.41421356237301826
10
342.86909016611077
20
-19.928706577409542
10
355.86909016611071
20
-19.928706577409571
42
0.41421356237311324
10
356.36909016611071
20
-19.428706577409564
10
356.36909016611071
20
-6.428706577409578
42
0.41421356237302026
10
355.86909016611071
20
-5.928706577409578
10
342.86909016611077
20
-5.928706577409578
42
0.41421356237311191
0
LWPOLYLINE
5
135
100
AcDbEntity
8
0
100
AcDbPolyline
90
8
70
1
43
0.0
10
237.59409016611073
20
-6.4287065774095815
10
237.59409016611073
20
-19.428706577409574
42
0.41421356237313017
10
238.09409016611073
20
-19.928706577409578
10
251.09409016611073
20
-19.928706577409571
42
0.41421356237304818
10
251.59409016611076
20
-19.428706577409571
10
251.59409016611076
20
-6.4287065774095788
42
0.4142135623731022
10
251.09409016611073
20
-5.9287065774095771
10
238.09409016611073
20
-5.9287065774095797
42
0.41421356237307877
0
LWPOLYLINE
5
136
100
AcDbEntity
8
0
100
AcDbPolyline
90
8
70
1
43
0.0
10
161.39409016611074
20
-6.4287065774095815
10
161.39409016611074
20
-19.428706577409571
42
0.41421356237313406
10
161.89409016611077
20
-19.928706577409571
10
174.89409016611074
20
-19.928706577409571
42
0.41421356237307549
10
175.39409016611074
20
-19.428706577409574
10
175.39409016611074
20
-6.4287065774095762
42
0.4142135623730534
10
174.89409016611077
20
-5.9287065774095709
10
161.89409016611077
20
-5.9287065774095771
42
0.41421356237308005
0
LWPOLYLINE
5
137
100
AcDbEntity
8
0
100
AcDbPolyline
90
8
70
1
43
0.0
10
85.194090166110712
20
-6.4287065774095815
10
85.194090166110712
20
-19.428706577409574
42
0.41421356237309243
10
85.694090166110726
20
-19.928706577409582
10
98.694090166110726
20
-19.928706577409571
42
0.41421356237310542
10
99.194090166110726
20
-19.428706577409571
10
99.194090166110726
20
-6.428706577409578
42
0.41421356237309437
10
98.694090166110726
20
-5.9287065774095726
10
85.694090166110726
20
-5.9287065774095797
42
0.41421356237310675
0
LWPOLYLINE
5
138
100
AcDbEntity
8
0
100
AcDbPolyline
90
8
70
1
43
0.0
10
8.9940901661107269
20
-6.4287065774095797
42
-0.41421356237309631
10
9.4940901661107269
20
-5.9287065774095771
10
22.49409016611073
20
-5.9287065774095815
42
-0.41421356237309437
10
22.994090166110727
20
-6.4287065774095797
10
22.99409016611073
20
-19.428706577409571
42
-0.41421356237309764
10
22.49409016611073
20
-19.928706577409571
10
9.4940901661107269
20
-19.928706577409571
42
-0.41421356237309309
10
8.9940901661107286
20
-19.428706577409574
0
LWPOLYLINE
5
139
100
AcDbEntity
8
0
100
AcDbPolyline
90
8
70
1
43
0.0
10
28.044090166110728
20
-6.4287065774095815
10
28.044090166110728
20
-19.428706577409574
42
0.41421356237309631
10
28.544090166110724
20
-19.928706577409567
10
41.54409016611072
20
-19.928706577409567
42
0.41421356237310414
10
42.044090166110728
20
-19.428706577409571
10
42.044090166110728
20
-6.4287065774095788
42
0.4142135623730957
10
41.544090166110728
20
-5.9287065774095815
10
28.544090166110728
20
-5.9287065774095797
42
0.4142135623730937
0
LWPOLYLINE
5
140
100
AcDbEntity
8
0
100
AcDbPolyline
90
8
70
1
43
0.0
10
104.24409016611072
20
-6.4287065774095815
10
104.24409016611072
20
-19.428706577409571
42
0.41421356237309503
10
104.74409016611074
20
-19.928706577409571
10
117.74409016611074
20
-19.928706577409567
42
0.41421356237309631
10
118.24409016611074
20
-19.428706577409564
10
118.24409016611074
20
-6.428706577409578
42
0.41421356237309437
10
117.74409016611074
20
-5.9287065774095726
10
104.74409016611074
20
-5.9287065774095797
42
0.41421356237310675
0
LWPOLYLINE
5
141
100
AcDbEntity
8
0
100
AcDbPolyline
90
8
70
1
43
0.0
10
180.44409016611073
20
-6.4287065774095815
10
180.44409016611073
20
-19.428706577409571
42
0.41421356237312235
10
180.94409016611075
20
-19.928706577409578
10
193.9440901661107
20
-19.928706577409567
42
0.41421356237304563
10
194.44409016611073
20
-19.428706577409571
10
194.44409016611073
20
-6.4287065774095788
42
0.4142135623731022
10
193.9440901661107
20
-5.9287065774095709
10
180.94409016611075
20
-5.9287065774095797
42
0.41421356237302676
0
LWPOLYLINE
5
142
100
AcDbEntity
8
0
100
AcDbPolyline
90
8
70
1
43
0.0
10
361.91909016611078
20
-19.928706577409553
42
-0.41421356237301959
10
361.41909016611078
20
-19.428706577409571
10
361.41909016611078
20
-6.4287065774095815
42
-0.41421356237311191
10
361.91909016611078
20
-5.928706577409578
10
374.91909016611078
20
-5.9287065774095913
42
-0.41421356237302026
10
375.41909016611072
20
-6.428706577409578
10
375.41909016611072
20
-19.428706577409564
42
-0.41421356237311063
10
374.91909016611078
20
-19.928706577409567
0
LWPOLYLINE
5
143
100
AcDbEntity
8
0
100
AcDbPolyline
90
8
70
1
43
0.0
10
304.76909016611074
20
-58.028706577409572
42
-0.41421356237310025
10
304.26909016611074
20
-57.528706577409558
10
304.2690901661108
20
-44.528706577409579
42
-0.41421356237302737
10
304.76909016611074
20
-44.028706577409565
10
317.76909016611074
20
-44.028706577409565
42
-0.41421356237313145
10
318.26909016611074
20
-44.528706577409565
10
318.2690901661108
20
-57.528706577409565
42
-0.41421356237307422
10
317.76909016611074
20
-58.028706577409565
0
LWPOLYLINE
5
144
100
AcDbEntity
8
0
100
AcDbPolyline
90
8
70
1
43
0.0
10
323.31909016611075
20
-63.578706577409569
10
323.31909016611075
20
-76.578706577409562
42
0.41421356237301699
10
323.81909016611075
20
-77.078706577409534
10
336.81909016611081
20
-77.078706577409562
42
0.41421356237318868
10
337.31909016611075
20
-76.578706577409562
10
337.31909016611075
20
-63.578706577409562
42
0.41421356237307422
10
336.81909016611075
20
-63.078706577409598
10
323.81909016611075
20
-63.078706577409562
42
0.41421356237311585
0
LWPOLYLINE
5
145
100
AcDbEntity
8
0
100
AcDbPolyline
90
8
70
1
43
0.0
10
342.36909016611082
20
-82.628706577409531
10
342.36909016611082
20
-95.628706577409517
42
0.41421356237301177
10
342.86909016611077
20
-96.128706577409531
10
355.86909016611071
20
-96.128706577409503
42
0.41421356237306384
10
356.36909016611071
20
-95.628706577409531
10
356.36909016611071
20
-82.628706577409531
42
0.4142135623730222
10
355.86909016611071
20
-82.128706577409517
10
342.86909016611077
20
-82.128706577409517
42
0.41421356237307422
0
LWPOLYLINE
5
146
100
AcDbEntity
8
0
100
AcDbPolyline
90
8
70
1
43
0.0
10
261.40659016611073
20
-87.391206577409491
10
261.40659016611073
20
-100.39120657740952
42
0.41421356237313667
10
261.90659016611073
20
-100.89120657740951
10
274.90659016611073
20
-100.89120657740951
42
0.41421356237307422
10
275.40659016611073
20
-100.39120657740953
10
275.40659016611073
20
-87.39120657740952
42
0.41421356237313667
10
274.90659016611073
20
-86.891206577409505
10
261.90659016611073
20
-86.891206577409463
42
0.41421356237314705
0
LWPOLYLINE
5
147
100
AcDbEntity
8
0
100
AcDbPolyline
90
8
70
1
43
0.0
10
243.90034016611077
20
-63.578706577409548
10
243.90034016611077
20
-76.578706577409548
42
0.41421356237313667
10
244.40034016611077
20
-77.078706577409548
10
245.40034016611074
20
-77.078706577409548
42
0.41421356237304818
10
245.90034016611074
20
-76.578706577409562
10
245.90034016611074
20
-63.578706577409562
42
0.41421356237312101
10
245.40034016611074
20
-63.078706577409569
10
244.40034016611077
20
-63.078706577409562
42
0.414213562373069
0
LWPOLYLINE
5
148
100
AcDbEntity
8
0
100
AcDbPolyline
90
8
70
1
43
0.0
10
217.75659016611073
20
-63.078706577409555
10
204.75659016611073
20
-63.078706577409555
42
0.41421356237307944
10
204.2565901661107
20
-63.578706577409548
10
204.2565901661107
20
-76.578706577409534
42
0.41421356237311063
10
204.75659016611073
20
-77.078706577409548
10
217.75659016611073
20
-77.078706577409534
42
0.4142135623730222
10
218.25659016611073
20
-76.578706577409548
10
218.25659016611073
20
-63.578706577409562
42
0.41421356237312101
0
LWPOLYLINE
5
149
100
AcDbEntity
8
0
100
AcDbPolyline
90
8
70
1
43
0.0
10
189.96909016611073
20
-25.478706577409579
10
189.96909016611073
20
-38.478706577409575
42
0.41421356237312101
10
190.46909016611073
20
-38.978706577409568
10
203.46909016611076
20
-38.978706577409568
42
0.41421356237307422
10
203.96909016611076
20
-38.478706577409568
10
203.96909016611076
20
-25.478706577409575
42
0.41421356237313145
10
203.46909016611076
20
-24.978706577409568
10
190.46909016611073
20
-24.978706577409575
42
0.41421356237304818
0
LWPOLYLINE
5
150
100
AcDbEntity
8
0
100
AcDbPolyline
90
8
70
1
43
0.0
10
13.756590166110731
20
-25.478706577409579
10
13.75659016611073
20
-38.478706577409582
42
0.41421356237309503
10
14.25659016611073
20
-38.978706577409568
10
27.256590166110737
20
-38.978706577409568
42
0.41421356237310025
10
27.75659016611073
20
-38.478706577409561
10
27.75659016611073
20
-25.478706577409564
42
0.41421356237309243
10
27.256590166110737
20
-24.978706577409568
10
14.25659016611073
20
-24.978706577409575
42
0.41421356237309892
0
LWPOLYLINE
5
151
100
AcDbEntity
8
0
100
AcDbPolyline
90
8
70
1
43
0.0
10
56.61909016611073
20
-25.478706577409579
10
56.61909016611073
20
-38.478706577409568
42
0.41421356237309503
10
57.11909016611073
20
-38.978706577409568
10
70.119090166110723
20
-38.978706577409568
42
0.4142135623730846
10
70.619090166110723
20
-38.478706577409575
10
70.619090166110723
20
-25.478706577409575
42
0.41421356237308982
10
70.119090166110738
20
-24.978706577409575
10
57.119090166110738
20
-24.978706577409572
42
0.41421356237310025
0
LWPOLYLINE
5
152
100
AcDbEntity
8
0
100
AcDbPolyline
90
8
70
1
43
0.0
10
146.31909016611073
20
-24.978706577409575
10
133.31909016611073
20
-24.978706577409575
42
0.41421356237308982
10
132.81909016611075
20
-25.478706577409575
10
132.81909016611073
20
-38.478706577409568
42
0.41421356237307422
10
133.31909016611073
20
-38.978706577409568
10
146.31909016611073
20
-38.978706577409568
42
0.41421356237310802
10
146.81909016611073
20
-38.478706577409568
10
146.81909016611073
20
-25.478706577409575
42
0.41421356237309243
0
LWPOLYLINE
5
153
100
AcDbEntity
8
0
100
AcDbPolyline
90
8
70
1
43
0.0
10
118.53159016611073
20
-44.528706577409579
10
118.53159016611073
20
-57.528706577409572
42
0.41421356237310025
10
119.03159016611073
20
-58.028706577409579
10
132.03159016611073
20
-58.028706577409544
42
0.41421356237306384
10
132.53159016611073
20
-57.528706577409565
10
132.53159016611073
20
-44.528706577409565
42
0.41421356237307422
10
132.03159016611073
20
-44.028706577409551
10
119.03159016611073
20
-44.028706577409579
42
0.41421356237310542
0
LWPOLYLINE
5
154
100
AcDbEntity
8
0
100
AcDbPolyline
90
8
70
1
43
0.0
10
42.331590166110722
20
-44.528706577409579
10
42.331590166110722
20
-57.528706577409572
42
0.41421356237307944
10
42.831590166110722
20
-58.028706577409572
10
55.831590166110729
20
-58.028706577409544
42
0.4142135623730846
10
56.331590166110729
20
-57.528706577409565
10
56.331590166110729
20
-44.528706577409565
42
0.41421356237310025
10
55.831590166110715
20
-44.028706577409558
10
42.831590166110729
20
-44.028706577409579
42
0.41421356237310542
0
LWPOLYLINE
5
155
100
AcDbEntity
8
0
100
AcDbPolyline
90
8
70
1
43
0.0
10
52.356590166110728
20
-77.078706577409534
42
-0.41421356237309503
10
51.856590166110728
20
-76.578706577409534
10
51.85659016611072
20
-63.578706577409548
42
-0.41421356237309503
10
52.356590166110728
20
-63.078706577409548
10
65.356590166110735
20
-63.078706577409562
42
-0.41421356237309503
10
65.856590166110735
20
-63.578706577409562
10
65.856590166110735
20
-76.578706577409548
42
-0.41421356237310542
10
65.35659016611072
20
-77.078706577409534
0
LWPOLYLINE
5
156
100
AcDbEntity
8
0
100
AcDbPolyline
90
8
70
1
43
0.0
10
128.05659016611071
20
-63.578706577409548
10
128.05659016611071
20
-76.578706577409548
42
0.41421356237307944
10
128.55659016611074
20
-77.078706577409534
10
141.55659016611071
20
-77.078706577409534
42
0.41421356237310542
10
142.05659016611074
20
-76.578706577409548
10
142.05659016611074
20
-63.578706577409548
42
0.41421356237307944
10
141.55659016611074
20
-63.078706577409562
10
128.55659016611074
20
-63.078706577409534
42
0.41421356237311585
0
LWPOLYLINE
5
157
100
AcDbEntity
8
0
100
AcDbPolyline
90
8
70
1
43
0.0
10
185.70659016611074
20
-77.078706577409548
42
-0.41421356237312623
10
185.20659016611074
20
-76.578706577409562
10
185.20659016611077
20
-63.578706577409569
42
-0.41421356237303258
10
185.70659016611074
20
-63.078706577409555
10
198.70659016611074
20
-63.078706577409548
42
-0.41421356237313145
10
199.20659016611074
20
-63.578706577409541
10
199.2065901661108
20
-76.57870657740952
42
-0.4142135623730846
10
198.70659016611074
20
-77.078706577409534
0
LWPOLYLINE
5
158
100
AcDbEntity
8
0
100
AcDbPolyline
90
8
70
1
43
0.0
10
11.375340166110728
20
-82.628706577409531
10
11.37534016611073
20
-95.628706577409517
42
0.41421356237306384
10
11.875340166110728
20
-96.128706577409503
10
27.256590166110723
20
-96.128706577409503
42
0.41421356237307161
10
27.75659016611074
20
-95.628706577409531
10
27.75659016611073
20
-82.628706577409531
42
0.4142135623730846
10
27.256590166110733
20
-82.128706577409517
10
11.875340166110735
20
-82.128706577409517
42
0.41421356237307683
0
LWPOLYLINE
5
159
100
AcDbEntity
8
0
100
AcDbPolyline
90
8
70
1
43
0.0
10
89.956590166110701
20
-63.578706577409569
10
89.956590166110701
20
-76.578706577409562
42
0.41421356237309503
10
90.456590166110686
20
-77.078706577409548
10
103.45659016611071
20
-77.078706577409562
42
0.41421356237307422
10
103.95659016611074
20
-76.578706577409562
10
103.95659016611074
20
-63.578706577409548
42
0.41421356237310025
10
103.45659016611073
20
-63.078706577409562
10
90.456590166110715
20
-63.078706577409555
42
0.41421356237311585
0
LWPOLYLINE
5
160
100
AcDbEntity
8
0
100
AcDbPolyline
90
8
70
1
43
0.0
10
80.431590166110738
20
-44.528706577409579
10
80.431590166110738
20
-57.528706577409572
42
0.41421356237309503
10
80.931590166110752
20
-58.028706577409572
10
93.931590166110738
20
-58.028706577409565
42
0.414213562373069
10
94.431590166110738
20
-57.528706577409565
10
94.431590166110752
20
-44.528706577409565
42
0.41421356237310542
10
93.931590166110766
20
-44.028706577409558
10
80.931590166110752
20
-44.028706577409565
42
0.41421356237309503
0
LWPOLYLINE
5
161
100
AcDbEntity
8
0
100
AcDbPolyline
90
8
70
1
43
0.0
10
10.53784016611073
20
-44.528706577409579
10
10.537840166110728
20
-57.528706577409572
42
0.41421356237308982
10
11.037840166110726
20
-58.028706577409572
10
29.637840166110735
20
-58.028706577409565
42
0.41421356237308982
10
30.137840166110728
20
-57.528706577409579
10
30.137840166110728
20
-44.528706577409565
42
0.41421356237309503
10
29.637840166110728
20
-44.028706577409565
10
11.037840166110733
20
-44.028706577409565
42
0.41421356237309892
0
LWPOLYLINE
5
162
100
AcDbEntity
8
0
100
AcDbPolyline
90
8
70
1
43
0.0
10
156.63159016611073
20
-44.528706577409579
10
156.63159016611073
20
-57.528706577409572
42
0.41421356237309503
10
157.13159016611073
20
-58.028706577409572
10
170.13159016611073
20
-58.028706577409565
42
0.41421356237307422
10
170.63159016611075
20
-57.528706577409565
10
170.63159016611075
20
-44.528706577409565
42
0.41421356237313145
10
170.13159016611073
20
-44.028706577409558
10
157.13159016611073
20
-44.028706577409565
42
0.41421356237309503
0
LWPOLYLINE
5
163
100
AcDbEntity
8
0
100
AcDbPolyline
90
8
70
1
43
0.0
10
94.719090166110718
20
-25.478706577409575
10
94.719090166110718
20
-38.478706577409568
42
0.41421356237309243
10
95.219090166110732
20
-38.978706577409568
10
108.21909016611073
20
-38.978706577409568
42
0.41421356237310281
10
108.71909016611073
20
-38.478706577409568
10
108.71909016611073
20
-25.478706577409575
42
0.41421356237309243
10
108.21909016611073
20
-24.978706577409568
10
95.219090166110732
20
-24.978706577409572
42
0.41421356237311063
0
LWPOLYLINE
5
164
100
AcDbEntity
8
0
100
AcDbPolyline
90
8
70
1
43
0.0
10
31.856590166110731
20
-38.978706577409561
42
-0.41421356237308721
10
31.356590166110735
20
-38.478706577409575
10
31.356590166110735
20
-25.478706577409575
42
-0.41421356237309764
10
31.856590166110731
20
-24.978706577409572
10
32.856590166110728
20
-24.978706577409575
42
-0.41421356237309503
10
33.356590166110728
20
-25.478706577409575
10
33.356590166110728
20
-38.478706577409561
42
-0.41421356237310025
10
32.856590166110735
20
-38.978706577409568
0
LWPOLYLINE
5
165
100
AcDbEntity
8
0
100
AcDbPolyline
90
8
70
1
43
0.0
10
176.18159016611074
20
-58.028706577409572
42
-0.41421356237310025
10
175.68159016611074
20
-57.528706577409558
10
175.68159016611077
20
-44.528706577409579
42
-0.41421356237302737
10
176.18159016611074
20
-44.028706577409565
10
189.18159016611074
20
-44.028706577409565
42
-0.41421356237313667
10
189.68159016611077
20
-44.528706577409579
10
189.68159016611079
20
-57.528706577409565
42
-0.414213562373069
10
189.18159016611074
20
-58.028706577409551
0
LWPOLYLINE
5
166
100
AcDbEntity
8
0
100
AcDbPolyline
90
8
70
1
43
0.0
10
265.33159016611074
20
-25.478706577409579
10
265.33159016611074
20
-38.478706577409568
42
0.41421356237313406
10
265.83159016611074
20
-38.978706577409568
10
266.83159016611074
20
-38.978706577409568
42
0.41421356237308204
10
267.33159016611074
20
-38.478706577409568
10
267.33159016611074
20
-25.478706577409575
42
0.41421356237313145
10
266.83159016611074
20
-24.978706577409575
10
265.83159016611074
20
-24.978706577409575
42
0.41421356237307944
0
LWPOLYLINE
5
167
100
AcDbEntity
8
0
100
AcDbPolyline
90
8
70
1
43
0.0
10
232.83159016611074
20
-44.528706577409579
10
232.83159016611074
20
-57.528706577409572
42
0.41421356237313145
10
233.33159016611074
20
-58.028706577409579
10
246.33159016611074
20
-58.028706577409565
42
0.4142135623730222
10
246.83159016611074
20
-57.528706577409565
10
246.83159016611074
20
-44.528706577409565
42
0.41421356237312101
10
246.33159016611074
20
-44.028706577409558
10
233.33159016611074
20
-44.028706577409565
42
0.41421356237307944
0
LWPOLYLINE
5
168
100
AcDbEntity
8
0
100
AcDbPolyline
90
8
70
1
43
0.0
10
250.43159016611074
20
-82.628706577409531
10
250.43159016611074
20
-95.628706577409531
42
0.41421356237304302
10
250.93159016611077
20
-96.128706577409503
10
251.93159016611074
20
-96.128706577409503
42
0.41421356237310542
10
252.43159016611074
20
-95.628706577409503
10
252.43159016611074
20
-82.628706577409503
42
0.41421356237313667
10
251.93159016611074
20
-82.128706577409503
10
250.93159016611077
20
-82.128706577409503
42
0.41421356237311585
0
LWPOLYLINE
5
169
100
AcDbEntity
8
0
100
AcDbPolyline
90
8
70
1
43
0.0
10
249.50034016611073
20
-63.578706577409569
10
249.50034016611073
20
-76.578706577409562
42
0.41421356237312623
10
250.00034016611073
20
-77.078706577409548
10
263.00034016611073
20
-77.078706577409562
42
0.41421356237307422
10
263.50034016611073
20
-76.578706577409562
10
263.50034016611073
20
-63.578706577409562
42
0.41421356237313145
10
263.00034016611073
20
-63.078706577409569
10
250.00034016611073
20
-63.078706577409562
42
0.41421356237302737
0
LWPOLYLINE
5
170
100
AcDbEntity
8
0
100
AcDbPolyline
90
8
70
1
43
0.0
10
299.50659016611075
20
-87.39120657740952
10
299.50659016611075
20
-100.39120657740952
42
0.4142135623730846
10
300.00659016611075
20
-100.89120657740951
10
313.00659016611075
20
-100.89120657740951
42
0.41421356237309503
10
313.50659016611075
20
-100.39120657740952
10
313.50659016611075
20
-87.39120657740952
42
0.41421356237313667
10
313.00659016611075
20
-86.89120657740952
10
300.00659016611075
20
-86.891206577409505
42
0.41421356237313667
0
LWPOLYLINE
5
171
100
AcDbEntity
8
0
100
AcDbPolyline
90
8
70
1
43
0.0
10
342.36909016611082
20
-44.528706577409579
10
342.36909016611082
20
-57.528706577409572
42
0.41421356237301177
10
342.86909016611077
20
-58.028706577409544
10
355.86909016611071
20
-58.028706577409544
42
0.41421356237309503
10
356.36909016611071
20
-57.528706577409565
10
356.36909016611071
20
-44.528706577409565
42
0.4142135623730222
10
355.86909016611071
20
-44.028706577409586
10
342.86909016611077
20
-44.028706577409579
42
0.41421356237310542
0
LWPOLYLINE
5
172
100
AcDbEntity
8
0
100
AcDbPolyline
90
8
70
1
43
0.0
10
323.31909016611075
20
-25.478706577409575
10
323.31909016611075
20
-38.478706577409568
42
0.4142135623730222
10
323.81909016611075
20
-38.97870657740954
10
336.81909016611075
20
-38.978706577409568
42
0.41421356237324852
10
337.31909016611075
20
-38.478706577409561
10
337.31909016611075
20
-25.478706577409575
42
0.4142135623730222
10
336.81909016611081
20
-24.978706577409575
10
323.81909016611075
20
-24.978706577409572
42
0.41421356237311324
0
LWPOLYLINE
5
173
100
AcDbEntity
8
0
100
AcDbPolyline
90
8
70
1
43
0.0
10
323.31909016611075
20
-6.4287065774095815
10
323.31909016611075
20
-19.428706577409571
42
0.41421356237301959
10
323.81909016611075
20
-19.928706577409546
10
336.81909016611075
20
-19.928706577409571
42
0.4142135623732498
10
337.31909016611075
20
-19.428706577409571
10
337.31909016611075
20
-6.428706577409578
42
0.41421356237307549
10
336.81909016611075
20
-5.9287065774096082
10
323.81909016611075
20
-5.928706577409578
42
0.41421356237311191
0
LWPOLYLINE
5
174
100
AcDbEntity
8
0
100
AcDbPolyline
90
8
70
1
43
0.0
10
218.54409016611072
20
-6.4287065774095815
10
218.54409016611072
20
-19.428706577409571
42
0.41421356237313273
10
219.04409016611072
20
-19.928706577409578
10
232.04409016611072
20
-19.928706577409567
42
0.41421356237304563
10
232.54409016611075
20
-19.428706577409571
10
232.54409016611075
20
-6.4287065774095788
42
0.4142135623731022
10
232.04409016611072
20
-5.9287065774095709
10
219.04409016611072
20
-5.9287065774095797
42
0.41421356237307877
0
LWPOLYLINE
5
175
100
AcDbEntity
8
0
100
AcDbPolyline
90
8
70
1
43
0.0
10
142.34409016611073
20
-6.4287065774095815
10
142.34409016611073
20
-19.428706577409571
42
0.41421356237307422
10
142.84409016611073
20
-19.928706577409571
10
155.84409016611073
20
-19.928706577409567
42
0.41421356237309631
10
156.34409016611073
20
-19.428706577409564
10
156.34409016611073
20
-6.4287065774095788
42
0.41421356237309437
10
155.84409016611073
20
-5.9287065774095771
10
142.84409016611073
20
-5.9287065774095797
42
0.41421356237307549
0
LWPOLYLINE
5
176
100
AcDbEntity
8
0
100
AcDbPolyline
90
8
70
1
43
0.0
10
66.144090166110729
20
-6.4287065774095815
10
66.144090166110729
20
-19.428706577409571
42
0.41421356237309764
10
66.644090166110729
20
-19.928706577409567
10
79.644090166110729
20
-19.928706577409567
42
0.41421356237308593
10
80.144090166110743
20
-19.428706577409564
10
80.144090166110743
20
-6.4287065774095788
42
0.41421356237308854
10
79.644090166110729
20
-5.9287065774095726
10
66.644090166110729
20
-5.9287065774095797
42
0.41421356237309764
0
LWPOLYLINE
5
177
100
AcDbEntity
8
0
100
AcDbPolyline
90
8
70
1
43
0.0
10
228.06909016611073
20
-25.478706577409579
10
228.06909016611073
20
-38.478706577409568
42
0.41421356237313145
10
228.56909016611073
20
-38.978706577409575
10
241.56909016611075
20
-38.978706577409568
42
0.41421356237304818
10
242.06909016611075
20
-38.478706577409568
10
242.06909016611075
20
-25.478706577409575
42
0.41421356237310025
10
241.56909016611075
20
-24.978706577409568
10
228.56909016611073
20
-24.978706577409575
42
0.41421356237307944
0
LWPOLYLINE
5
178
100
AcDbEntity
8
0
100
AcDbPolyline
90
8
70
1
43
0.0
10
47.094090166110732
20
-6.4287065774095815
10
47.094090166110732
20
-19.428706577409574
42
0.41421356237309503
10
47.594090166110732
20
-19.928706577409571
10
60.594090166110739
20
-19.928706577409571
42
0.41421356237309764
10
61.094090166110739
20
-19.428706577409571
10
61.094090166110739
20
-6.4287065774095788
42
0.4142135623730957
10
60.594090166110739
20
-5.9287065774095815
10
47.594090166110732
20
-5.9287065774095797
42
0.41421356237309764
0
LWPOLYLINE
5
179
100
AcDbEntity
8
0
100
AcDbPolyline
90
8
70
1
43
0.0
10
123.29409016611073
20
-6.4287065774095815
10
123.29409016611073
20
-19.428706577409571
42
0.41421356237309631
10
123.79409016611075
20
-19.928706577409578
10
136.79409016611072
20
-19.928706577409571
42
0.41421356237310802
10
137.29409016611072
20
-19.428706577409567
10
137.29409016611072
20
-6.428706577409578
42
0.41421356237309437
10
136.79409016611072
20
-5.9287065774095726
10
123.79409016611075
20
-5.9287065774095797
42
0.41421356237310675
0
LWPOLYLINE
5
180
100
AcDbEntity
8
0
100
AcDbPolyline
90
8
70
1
43
0.0
10
212.99409016611077
20
-5.9287065774095709
10
199.99409016611077
20
-5.928706577409578
42
0.41421356237302676
10
199.49409016611074
20
-6.4287065774095815
10
199.49409016611074
20
-19.428706577409571
42
0.41421356237312362
10
199.99409016611077
20
-19.928706577409571
10
212.99409016611077
20
-19.928706577409571
42
0.41421356237307683
10
213.49409016611077
20
-19.428706577409574
10
213.49409016611077
20
-6.4287065774095788
42
0.41421356237313339
0
LWPOLYLINE
5
181
100
AcDbEntity
8
0
100
AcDbPolyline
90
8
70
1
43
0.0
10
304.26909016611074
20
-6.4287065774095815
10
304.26909016611074
20
-19.428706577409567
42
0.41421356237312235
10
304.76909016611074
20
-19.928706577409578
10
317.76909016611074
20
-19.928706577409571
42
0.4142135623730781
10
318.26909016611074
20
-19.428706577409571
10
318.26909016611074
20
-6.428706577409578
42
0.41421356237313273
10
317.76909016611074
20
-5.928706577409578
10
304.76909016611074
20
-5.928706577409578
42
0.41421356237302676
0
LWPOLYLINE
5
182
100
AcDbEntity
8
0
100
AcDbPolyline
90
8
70
1
43
0.0
10
342.36909016611082
20
-25.478706577409579
10
342.36909016611082
20
-38.478706577409575
42
0.41421356237301959
10
342.86909016611077
20
-38.978706577409561
10
355.86909016611071
20
-38.978706577409568
42
0.41421356237311324
10
356.36909016611071
20
-38.478706577409561
10
356.36909016611071
20
-25.478706577409575
42
0.4142135623730222
10
355.86909016611071
20
-24.978706577409575
10
342.86909016611077
20
-24.978706577409575
42
0.41421356237311324
0
LWPOLYLINE
5
183
100
AcDbEntity
8
0
100
AcDbPolyline
90
8
70
1
43
0.0
10
323.31909016611075
20
-44.528706577409579
10
323.31909016611075
20
-57.528706577409565
42
0.41421356237310542
10
323.81909016611075
20
-58.028706577409572
10
336.81909016611081
20
-58.028706577409565
42
0.4142135623731939
10
337.31909016611075
20
-57.528706577409565
10
337.31909016611075
20
-44.528706577409579
42
0.4142135623730222
10
336.81909016611081
20
-44.028706577409565
10
323.81909016611075
20
-44.028706577409565
42
0.41421356237312101
0
LWPOLYLINE
5
184
100
AcDbEntity
8
0
100
AcDbPolyline
90
8
70
1
43
0.0
10
304.26909016611074
20
-63.578706577409548
10
304.26909016611074
20
-76.578706577409548
42
0.41421356237312101
10
304.76909016611074
20
-77.078706577409548
10
317.76909016611074
20
-77.078706577409534
42
0.41421356237307422
10
318.26909016611074
20
-76.578706577409562
10
318.26909016611074
20
-63.578706577409562
42
0.41421356237313145
10
317.76909016611074
20
-63.078706577409562
10
304.76909016611074
20
-63.078706577409562
42
0.41421356237304818
0
LWPOLYLINE
5
185
100
AcDbEntity
8
0
100
AcDbPolyline
90
8
70
1
43
0.0
10
280.45659016611074
20
-68.341206577409565
10
280.45659016611074
20
-81.341206577409537
42
0.41421356237313667
10
280.95659016611074
20
-81.841206577409551
10
293.95659016611074
20
-81.841206577409551
42
0.41421356237314705
10
294.45659016611074
20
-81.341206577409523
10
294.45659016611074
20
-68.341206577409551
42
0.41421356237313667
10
293.95659016611074
20
-67.841206577409551
10
280.95659016611074
20
-67.841206577409551
42
0.4142135623730846
0
LWPOLYLINE
5
186
100
AcDbEntity
8
0
100
AcDbPolyline
90
8
70
1
43
0.0
10
232.83159016611074
20
-82.628706577409531
10
232.83159016611074
20
-95.628706577409531
42
0.41421356237304302
10
233.33159016611074
20
-96.128706577409488
10
248.71284016611074
20
-96.128706577409503
42
0.41421356237310542
10
249.21284016611077
20
-95.628706577409503
10
249.21284016611077
20
-82.628706577409503
42
0.41421356237313667
10
248.71284016611074
20
-82.128706577409503
10
233.33159016611074
20
-82.128706577409503
42
0.41421356237314705
0
LWPOLYLINE
5
187
100
AcDbEntity
8
0
100
AcDbPolyline
90
8
70
1
43
0.0
10
213.78159016611073
20
-44.528706577409558
10
213.78159016611073
20
-57.528706577409558
42
0.41421356237313145
10
214.28159016611073
20
-58.028706577409572
10
227.28159016611073
20
-58.028706577409565
42
0.4142135623730222
10
227.78159016611073
20
-57.528706577409565
10
227.78159016611073
20
-44.528706577409565
42
0.41421356237312101
10
227.28159016611073
20
-44.028706577409551
10
214.28159016611073
20
-44.028706577409565
42
0.414213562373069
0
LWPOLYLINE
5
188
100
AcDbEntity
8
0
100
AcDbPolyline
90
8
70
1
43
0.0
10
290.03159016611073
20
-24.978706577409572
10
289.03159016611073
20
-24.978706577409575
42
0.41421356237308721
10
288.53159016611073
20
-25.478706577409579
10
288.53159016611073
20
-38.478706577409568
42
0.41421356237313145
10
289.03159016611073
20
-38.978706577409568
10
290.03159016611073
20
-38.978706577409568
42
0.41421356237308204
10
290.53159016611073
20
-38.478706577409561
10
290.53159016611073
20
-25.478706577409564
42
0.41421356237313145
0
LWPOLYLINE
5
189
100
AcDbEntity
8
0
100
AcDbPolyline
90
8
70
1
43
0.0
10
194.73159016611072
20
-44.528706577409579
10
194.73159016611072
20
-57.528706577409565
42
0.41421356237312623
10
195.23159016611072
20
-58.028706577409572
10
208.23159016611072
20
-58.028706577409544
42
0.41421356237301177
10
208.73159016611072
20
-57.528706577409565
10
208.73159016611072
20
-44.528706577409565
42
0.41421356237312101
10
208.23159016611072
20
-44.028706577409558
10
195.23159016611072
20
-44.028706577409579
42
0.41421356237307422
0
LWPOLYLINE
5
190
100
AcDbEntity
8
0
100
AcDbPolyline
90
8
70
1
43
0.0
10
8.1565901661107283
20
-25.478706577409579
10
8.1565901661107283
20
-38.478706577409582
42
0.41421356237309048
10
8.6565901661107283
20
-38.978706577409568
10
9.6565901661107318
20
-38.978706577409568
42
0.41421356237308526
10
10.156590166110728
20
-38.478706577409575
10
10.156590166110728
20
-25.478706577409575
42
0.41421356237309176
10
9.6565901661107283
20
-24.978706577409575
10
8.6565901661107301
20
-24.978706577409575
42
0.41421356237309825
0
LWPOLYLINE
5
191
100
AcDbEntity
8
0
100
AcDbPolyline
90
8
70
1
43
0.0
10
75.66909016611072
20
-25.478706577409579
10
75.66909016611072
20
-38.478706577409582
42
0.41421356237308721
10
76.16909016611072
20
-38.978706577409568
10
89.169090166110735
20
-38.978706577409568
42
0.41421356237307683
10
89.669090166110749
20
-38.478706577409568
10
89.669090166110749
20
-25.478706577409575
42
0.41421356237307161
10
89.169090166110735
20
-24.978706577409568
10
76.169090166110735
20
-24.978706577409575
42
0.41421356237310025
0
LWPOLYLINE
5
192
100
AcDbEntity
8
0
100
AcDbPolyline
90
8
70
1
43
0.0
10
151.86909016611077
20
-25.478706577409579
10
151.86909016611074
20
-38.478706577409582
42
0.41421356237307161
10
152.36909016611074
20
-38.978706577409575
10
165.36909016611074
20
-38.978706577409568
42
0.41421356237307683
10
165.86909016611074
20
-38.478706577409575
10
165.86909016611074
20
-25.478706577409575
42
0.41421356237313145
10
165.36909016611074
20
-24.978706577409568
10
152.36909016611074
20
-24.978706577409575
42
0.41421356237307683
0
LWPOLYLINE
5
193
100
AcDbEntity
8
0
100
AcDbPolyline
90
8
70
1
43
0.0
10
112.98159016611073
20
-44.028706577409579
10
99.98159016611072
20
-44.028706577409565
42
0.41421356237309503
10
99.48159016611072
20
-44.528706577409579
10
99.48159016611072
20
-57.528706577409558
42
0.41421356237307944
10
99.981590166110692
20
-58.028706577409594
10
112.98159016611073
20
-58.028706577409565
42
0.41421356237308982
10
113.48159016611075
20
-57.528706577409565
10
113.48159016611075
20
-44.528706577409579
42
0.41421356237310542
0
LWPOLYLINE
5
194
100
AcDbEntity
8
0
100
AcDbPolyline
90
8
70
1
43
0.0
10
61.381590166110733
20
-44.528706577409558
10
61.381590166110733
20
-57.528706577409558
42
0.41421356237308982
10
61.881590166110733
20
-58.028706577409565
10
74.881590166110726
20
-58.028706577409565
42
0.41421356237308982
10
75.381590166110726
20
-57.528706577409565
10
75.381590166110726
20
-44.528706577409565
42
0.41421356237309503
10
74.881590166110726
20
-44.028706577409558
10
61.88159016611074
20
-44.028706577409565
42
0.41421356237309503
0
LWPOLYLINE
5
195
100
AcDbEntity
8
0
100
AcDbPolyline
90
8
70
1
43
0.0
10
147.10659016611069
20
-63.578706577409548
10
147.10659016611069
20
-76.578706577409548
42
0.41421356237308982
10
147.60659016611072
20
-77.078706577409534
10
160.60659016611072
20
-77.078706577409534
42
0.41421356237307422
10
161.10659016611072
20
-76.578706577409548
10
161.10659016611072
20
-63.578706577409548
42
0.41421356237313667
10
160.60659016611072
20
-63.078706577409555
10
147.60659016611072
20
-63.078706577409555
42
0.41421356237310542
0
LWPOLYLINE
5
196
100
AcDbEntity
8
0
100
AcDbPolyline
90
52
70
1
43
0.0
10
254.97484016611071
20
-58.028706577409551
42
-0.41421356237313667
10
255.47484016611071
20
-58.528706577409565
42
0.41421356237313667
10
255.97484016611074
20
-59.028706577409558
10
261.72484016611077
20
-59.028706577409558
42
0.41421356237307422
10
262.22484016611077
20
-58.528706577409565
42
-0.41421356237313667
10
262.72484016611077
20
-58.028706577409572
10
277.28784016611075
20
-58.028706577409544
42
0.414213562373069
10
277.78784016611075
20
-57.528706577409558
10
277.78784016611075
20
-57.316706577409548
42
-0.41421356237307422
10
278.28784016611075
20
-56.816706577409548
10
278.85084016611074
20
-56.816706577409519
42
-0.41421356237302737
10
279.35084016611074
20
-57.316706577409555
10
279.35084016611074
20
-58.528706577409544
42
0.41421356237312623
10
279.85084016611074
20
-59.028706577409558
10
285.60084016611074
20
-59.028706577409544
42
0.41421356237307422
10
286.10084016611074
20
-58.528706577409544
10
286.10084016611074
20
-56.932381816476358
42
-0.16734709800552292
10
286.20684016611074
20
-56.624544196942956
42
0.1673470980055265
10
286.31284016611073
20
-56.316706577409548
10
286.31284016611073
20
-50.566706577409548
42
0.16734709800551431
10
286.20684016611074
20
-50.258868957876153
42
-0.16734709800555408
10
286.10084016611074
20
-49.951031338342737
10
286.10084016611086
20
-49.003706577409567
42
-0.4142135623730222
10
286.6008401661108
20
-48.503706577409567
10
286.81284016611073
20
-48.503706577409567
42
0.41421356237303258
10
287.31284016611073
20
-48.003706577409559
10
287.31284016611073
20
-35.003706577409559
42
0.41421356237310025
10
286.81284016611073
20
-34.503706577409559
10
285.43159016611071
20
-34.503706577409552
42
-0.41421356237304302
10
284.93159016611071
20
-34.003706577409559
10
284.93159016611071
20
-33.440706577409564
42
-0.41421356237305079
10
285.43159016611071
20
-32.940706577409564
10
285.81284016611073
20
-32.940706577409564
42
0.41421356237307683
10
286.31284016611073
20
-32.440706577409564
10
286.31284016611073
20
-26.690706577409578
42
0.41421356237313406
10
285.81284016611073
20
-26.190706577409575
10
285.43159016611077
20
-26.190706577409518
42
-0.41421356237307944
10
284.93159016611077
20
-25.690706577409571
10
284.93159016611071
20
-25.478706577409568
42
0.41421356237313406
10
284.43159016611071
20
-24.978706577409572
10
271.43159016611071
20
-24.978706577409575
42
0.41421356237304818
10
270.93159016611071
20
-25.478706577409579
10
270.93159016611071
20
-38.478706577409582
42
0.41421356237311846
10
271.43159016611071
20
-38.978706577409568
10
272.81284016611073
20
-38.978706577409561
42
-0.41421356237305601
10
273.31284016611073
20
-39.478706577409575
10
273.31284016611073
20
-43.528706577409586
42
-0.4142135623730222
10
272.81284016611073
20
-44.028706577409579
10
252.38159016611075
20
-44.028706577409565
42
0.41421356237307944
10
251.88159016611075
20
-44.528706577409579
10
251.88159016611075
20
-57.528706577409565
42
0.41421356237313667
10
252.38159016611075
20
-58.028706577409572
0
LWPOLYLINE
5
197
100
AcDbEntity
8
0
100
AcDbPolyline
90
20
70
1
43
0.0
10
361.41909016611078
20
-25.690706577409571
42
-0.41421356237323032
10
360.91909016611078
20
-26.190706577409571
42
0.4142135623731939
10
360.41909016611078
20
-26.690706577409578
10
360.41909016611078
20
-32.440706577409564
42
0.4142135623730222
10
360.91909016611078
20
-32.940706577409571
42
-0.41421356237323292
10
361.41909016611078
20
-33.440706577409564
10
361.41909016611078
20
-49.566706577409562
42
-0.41421356237323032
10
360.91909016611078
20
-50.066706577409548
42
0.41421356237319906
10
360.41909016611078
20
-50.566706577409548
10
360.41909016611078
20
-56.316706577409548
42
0.4142135623730222
10
360.91909016611078
20
-56.816706577409562
42
-0.41421356237318346
10
361.41909016611072
20
-57.316706577409548
10
361.41909016611078
20
-57.528706577409551
42
0.4142135623730222
10
361.91909016611078
20
-58.028706577409537
10
374.91909016611078
20
-58.028706577409565
42
0.41421356237311063
10
375.41909016611072
20
-57.528706577409565
10
375.41909016611072
20
-25.478706577409575
42
0.4142135623730222
10
374.91909016611078
20
-24.978706577409575
10
361.91909016611078
20
-24.978706577409572
42
0.41421356237311324
10
361.41909016611078
20
-25.478706577409575
0
LWPOLYLINE
5
198
100
AcDbEntity
8
0
100
AcDbPolyline
90
8
70
1
43
0.0
10
123.79409016611075
20
-96.128706577409503
10
146.31809016609506
20
-96.128706577409503
42
0.41421356237307422
10
146.81809016609509
20
-95.628706577409531
10
146.81809016609509
20
-82.628706577409503
42
0.41421356237309503
10
146.31809016609506
20
-82.128706577401189
10
123.79409016611076
20
-82.128706577409488
42
0.41421356237313667
10
123.29409016611073
20
-82.628706577409503
10
123.29409016611073
20
-95.628706577409517
42
0.41421356237309503
0
LWPOLYLINE
5
199
100
AcDbEntity
8
0
100
AcDbPolyline
90
8
70
1
43
0.0
10
71.406590166110732
20
-77.078706577409534
10
84.406590166110732
20
-77.078706577409534
42
0.41421356237307422
10
84.906590166110746
20
-76.578706577409562
10
84.906590166110746
20
-63.578706577409562
42
0.4142135623730846
10
84.406590166110718
20
-63.078706577409555
10
71.406590166110732
20
-63.078706577409562
42
0.41421356237307944
10
70.906590166110732
20
-63.578706577409548
10
70.906590166110732
20
-76.578706577409548
42
0.41421356237309503
0
LWPOLYLINE
5
200
100
AcDbEntity
8
0
100
AcDbPolyline
90
19
70
1
43
0.0
10
73.00549750996008
20
-95.629918496251207
42
-0.41421356237312101
10
73.50549750996008
20
-95.12991849625115
10
76.019090166110729
20
-95.129918496251165
42
0.4142135623730846
10
76.519090166110729
20
-94.629918496251179
10
76.519090166110729
20
-83.629918496251165
10
76.524247509960077
20
-83.629918496251165
10
76.524247509960063
20
-81.629918496251165
42
0.41421356237310542
10
76.024247509960063
20
-81.129918496251165
10
76.019090166110729
20
-81.129918496251165
10
76.019090166110729
20
-81.128706577409559
10
70.269090166110729
20
-81.128706577409559
10
70.269090166110743
20
-81.129918496251193
42
0.41084923172217558
10
69.774247861206703
20
-81.62929923737849
42
-0.41386643271737616
10
69.274248212452022
20
-82.128706577409531
10
31.856590166110742
20
-82.128706577409517
42
0.41421356237306639
10
31.35659016611072
20
-82.628706577409531
10
31.356590166110728
20
-95.628706577409503
42
0.41421356237310025
10
31.856590166110728
20
-96.128706577409531
10
72.540289033272785
20
-96.128706577409503
42
0.39396068272471707
0
LWPOLYLINE
5
201
100
AcDbEntity
8
0
100
AcDbPolyline
90
7
70
1
43
0.0
10
184.0690901661107
20
-81.128706577409588
10
184.0690901661107
20
-94.628706577409574
42
0.41421356237309503
10
184.5690901661107
20
-95.128706577409588
10
190.31284016611073
20
-95.128706577409588
42
0.41421356237309503
10
190.81284016611073
20
-94.628706577409574
10
190.81284016611073
20
-81.628706577409588
42
0.41421356237309503
10
190.3128401661107
20
-81.128706577409574
0
ENDSEC
0
SECTION
2
OBJECTS
0
DICTIONARY
5
C
100
AcDbDictionary
3
ACAD_GROUP
350
D
3
ACAD_MLINESTYLE
350
17
0
DICTIONARY
5
D
100
AcDbDictionary
0
DICTIONARY
5
1A
330
C
100
AcDbDictionary
0
DICTIONARY
5
17
100
AcDbDictionary
0
ENDSEC
0
EOF
