0
SECTION
2
HEADER
9
$INSUNITS
70
4
9
$ACADVER
1
AC1014
9
$HANDSEED
5
FFFF
0
ENDSEC
0
SECTION
2
TABLES
0
TABLE
2
VPORT
5
8
100
AcDbSymbolTable
0
ENDTAB
0
TABLE
2
LTYPE
5
5
100
AcDbSymbolTable
0
LTYPE
5
14
100
AcDbSymbolTableRecord
100
AcDbLinetypeTableRecord
2
BYBLOCK
70
0
0
LTYPE
5
15
100
AcDbSymbolTableRecord
100
AcDbLinetypeTableRecord
2
BYLAYER
70
0
0
ENDTAB
0
TABLE
2
LAYER
5
2
100
AcDbSymbolTable
70
2
0
LAYER
5
50
100
AcDbSymbolTableRecord
100
AcDbLayerTableRecord
2
0
70
0
6
CONTINUOUS
0
ENDTAB
0
TABLE
2
STYLE
5
3
100
AcDbSymbolTable
70
1
0
STYLE
5
11
100
AcDbSymbolTableRecord
100
AcDbTextStyleTableRecord
2
STANDARD
70
0
0
ENDTAB
0
TABLE
2
VIEW
5
6
100
AcDbSymbolTable
70
0
0
ENDTAB
0
TABLE
2
UCS
5
7
100
AcDbSymbolTable
70
0
0
ENDTAB
0
TABLE
2
APPID
5
9
100
AcDbSymbolTable
70
2
0
APPID
5
12
100
AcDbSymbolTableRecord
100
AcDbRegAppTableRecord
2
ACAD
70
0
0
ENDTAB
0
TABLE
2
DIMSTYLE
5
A
100
AcDbSymbolTable
70
1
0
ENDTAB
0
TABLE
2
BLOCK_RECORD
5
1
100
AcDbSymbolTable
70
1
0
BLOCK_RECORD
5
1F
100
AcDbSymbolTableRecord
100
AcDbBlockTableRecord
2
*MODEL_SPACE
0
BLOCK_RECORD
5
1B
100
AcDbSymbolTableRecord
100
AcDbBlockTableRecord
2
*PAPER_SPACE
0
ENDTAB
0
ENDSEC
0
SECTION
2
BLOCKS
0
BLOCK
5
20
100
AcDbEntity
100
AcDbBlockBegin
2
*MODEL_SPACE
0
ENDBLK
5
21
100
AcDbEntity
100
AcDbBlockEnd
0
BLOCK
5
1C
100
AcDbEntity
100
AcDbBlockBegin
2
*PAPER_SPACE
0
ENDBLK
5
1D
100
AcDbEntity
100
AcDbBlockEnd
0
ENDSEC
0
SECTION
2
ENTITIES
0
LWPOLYLINE
5
100
100
AcDbEntity
8
0
100
AcDbPolyline
90
13
70
1
43
0.0
10
261.07535678118666
20
-107.9874999999999
42
-0.31783724519584122
10
261.78246356237321
20
-107.48749999999987
10
275.80625000000009
20
-107.48749999999995
42
0.41421356237310197
10
276.55625000000009
20
-106.73749999999993
10
276.55625000000003
20
-94.237499999999926
42
0.41421356237308815
10
275.80625000000009
20
-93.487499999999926
10
253.78125000000011
20
-93.487499999999926
42
0.41421356237309503
10
253.03125000000011
20
-94.237499999999912
10
253.03125000000011
20
-106.73749999999993
42
0.34863535271250062
10
253.6110249467458
20
-107.46792688288733
42
-0.26322537718793587
10
254.15452494674568
20
-107.96792688288726
42
0.32543725052828909
10
254.86825000000005
20
-108.4874999999999
10
260.36825000000016
20
-108.4874999999999
42
0.31783724519581952
0
LWPOLYLINE
5
101
100
AcDbEntity
8
0
100
AcDbPolyline
90
54
70
1
43
0.0
10
10.000000000000036
20
-127.81249999999993
10
10.000000000000034
20
-11.249999999999964
42
-0.41421356237309503
10
11.250000000000036
20
-9.9999999999999627
10
23.625000000000107
20
-9.9999999999999609
42
0.41421356237309498
10
26.625000000000114
20
-6.9999999999999609
10
26.625000000000107
20
-5.8629999999999303
42
-0.41421356237309426
10
28.625000000000114
20
-3.8629999999999227
10
129.06250000000006
20
-3.8629999999999578
42
-0.4142135623730957
10
131.06250000000006
20
-5.8629999999999551
10
131.06250000000006
20
-6.9999999999999485
42
0.41421356237309503
10
134.06250000000006
20
-9.9999999999999485
10
209.78750000000014
20
-9.9999999999999432
42
0.4142135623730922
10
212.78750000000016
20
-6.9999999999999707
10
212.78750000000016
20
-5.8619999999999282
42
-0.41421356237309309
10
214.78750000000016
20
-3.8619999999999521
10
338.61250000000013
20
-3.8619999999998988
42
-0.41421356237309437
10
340.61250000000018
20
-5.8619999999999228
10
340.61250000000018
20
-6.9999999999999272
42
0.41421356237309515
10
343.61250000000013
20
-9.9999999999999272
10
356.41250000000014
20
-9.9999999999999094
42
-0.41421356237309553
10
357.66250000000014
20
-11.249999999999911
10
357.66250000000014
20
-127.81249999999991
42
-0.4142135623730992
10
356.41250000000014
20
-129.06249999999994
10
343.61250000000013
20
-129.06249999999991
42
0.41421356237309503
10
340.61250000000018
20
-132.06249999999991
10
340.61250000000018
20
-133.19949999999989
42
-0.41421356237309243
10
338.61250000000013
20
-135.19949999999992
10
220.11875000000018
20
-135.19949999999992
42
-0.41421356237309764
10
218.11875000000018
20
-133.19949999999989
10
218.11875000000018
20
-132.06249999999989
42
0.41421356237309503
10
215.11875000000018
20
-129.06249999999994
10
186.15559015118538
20
-129.06249999999994
42
-0.19147282694242401
10
182.03629485344328
20
-127.42499999999993
42
0.19147282694242437
10
177.91699955570124
20
-125.78749999999994
10
160.62500000000011
20
-125.78749999999994
42
-0.41421356237309503
10
159.87500000000011
20
-125.03749999999995
10
159.87500000000011
20
-113.28749999999997
42
0.41421356237310897
10
159.12500000000009
20
-112.53749999999989
10
146.62500000000011
20
-112.53749999999999
42
0.41421356237310897
10
145.87500000000017
20
-113.28749999999997
10
145.87500000000017
20
-125.03749999999994
42
-0.41421356237310897
10
145.12500000000014
20
-125.78749999999992
10
127.83300044429909
20
-125.78749999999987
42
0.19147282694242962
10
123.713705146557
20
-127.4249999999999
42
-0.19147282694242965
10
119.59440984881488
20
-129.06249999999994
10
90.631000000000057
20
-129.06249999999989
42
0.41421356237308815
10
87.631000000000057
20
-132.06249999999989
10
87.631000000000114
20
-133.19949999999983
42
-0.41421356237309503
10
85.631000000000085
20
-135.19949999999992
10
28.624500000000044
20
-135.19949999999989
42
-0.41421356237309176
10
26.624500000000062
20
-133.19949999999992
10
26.624500000000097
20
-132.06249999999991
42
0.41421356237309681
10
23.624500000000097
20
-129.06249999999994
10
11.250000000000036
20
-129.06249999999994
42
-0.41421356237310181
0
LWPOLYLINE
5
102
100
AcDbEntity
8
0
100
AcDbPolyline
90
8
70
1
43
0.0
10
282.75675000000012
20
-74.187499999999915
10
282.75675000000012
20
-86.687499999999943
42
0.41421356237310197
10
283.50675000000018
20
-87.437499999999972
10
289.00675000000012
20
-87.437499999999972
42
0.41421356237309503
10
289.75675000000018
20
-86.687499999999943
10
289.75675000000018
20
-74.187499999999858
42
0.41421356237309503
10
289.00675000000024
20
-73.437499999999901
10
283.50675000000012
20
-73.437499999999943
42
0.41421356237308815
0
LWPOLYLINE
5
103
100
AcDbEntity
8
0
100
AcDbPolyline
90
8
70
1
43
0.0
10
265.88075000000015
20
-86.687499999999943
10
265.88075000000015
20
-74.187500000000156
42
0.41421356237309503
10
265.13075000000009
20
-73.437500000000057
10
259.63075000000026
20
-73.437500000000099
42
0.41421356237308815
10
258.88075000000021
20
-74.187500000000114
10
258.88075000000021
20
-86.687500000000171
42
0.41421356237309503
10
259.63075000000003
20
-87.437499999999972
10
265.13075000000015
20
-87.437499999999986
42
0.41421356237310197
0
LWPOLYLINE
5
104
100
AcDbEntity
8
0
100
AcDbPolyline
90
8
70
1
43
0.0
10
281.31875000000019
20
-87.687499999999915
10
281.31875000000019
20
-75.187499999999915
42
0.41421356237309503
10
280.56875000000025
20
-74.437499999999929
10
268.06875000000025
20
-74.437499999999929
42
0.41421356237308815
10
267.31875000000025
20
-75.187499999999915
10
267.31874999999997
20
-87.687499999999901
42
0.41421356237306733
10
268.06875000000025
20
-88.437499999999872
10
280.56875000000025
20
-88.437499999999858
42
0.41421356237308815
0
LWPOLYLINE
5
105
100
AcDbEntity
8
0
100
AcDbPolyline
90
8
70
1
43
0.0
10
250.36250000000013
20
-87.687499999999915
10
250.36250000000013
20
-75.187499999999915
42
0.41421356237304652
10
249.61250000000018
20
-74.437499999999829
10
237.11250000000024
20
-74.437499999999929
42
0.41421356237308116
10
236.36250000000024
20
-75.187499999999901
10
236.36250000000007
20
-87.687499999999901
42
0.41421356237310197
10
237.11250000000024
20
-88.437500000000085
10
249.61250000000004
20
-88.437499999999872
42
0.41421356237308815
0
LWPOLYLINE
5
106
100
AcDbEntity
8
0
100
AcDbPolyline
90
8
70
1
43
0.0
10
31.575000000000017
20
-13.274999999999974
10
31.575000000000024
20
-23.774999999999959
42
0.41421356237309853
10
32.325000000000031
20
-24.52499999999997
10
44.82500000000001
20
-24.52499999999997
42
0.41421356237309681
10
45.57500000000001
20
-23.774999999999956
10
45.575000000000017
20
-13.27499999999997
42
0.41421356237308815
10
44.825000000000017
20
-12.524999999999967
10
32.325000000000017
20
-12.524999999999974
42
0.41421356237309159
0
LWPOLYLINE
5
107
100
AcDbEntity
8
0
100
AcDbPolyline
90
8
70
1
43
0.0
10
211.14375000000018
20
-13.274999999999949
10
211.14375000000013
20
-23.774999999999913
42
0.41421356237309503
10
211.89375000000015
20
-24.524999999999949
10
217.68125000000015
20
-24.52499999999992
42
0.41421356237309503
10
218.43125000000015
20
-23.774999999999928
10
218.43125000000015
20
-13.274999999999945
42
0.41421356237308637
10
217.68125000000015
20
-12.524999999999959
10
211.89375000000015
20
-12.524999999999959
42
0.41421356237308721
0
LWPOLYLINE
5
108
100
AcDbEntity
8
0
100
AcDbPolyline
90
8
70
1
43
0.0
10
149.85150000000002
20
-28.978249999999925
10
15.274999999999981
20
-28.978249999999921
42
0.41421356237309592
10
14.52499999999997
20
-29.728249999999925
10
14.524999999999967
20
-33.134249999999916
42
0.41421356237309159
10
15.274999999999963
20
-33.884249999999923
10
149.85150000000002
20
-33.884249999999923
42
0.4142135623730846
10
150.60149999999999
20
-33.134249999999916
10
150.60149999999999
20
-29.728249999999928
42
0.41421356237309337
0
LWPOLYLINE
5
109
100
AcDbEntity
8
0
100
AcDbPolyline
90
8
70
1
43
0.0
10
295.67800000000017
20
-13.274999999999949
10
295.67800000000017
20
-23.774999999999956
42
0.41421356237309337
10
296.42800000000017
20
-24.524999999999949
10
299.83450000000016
20
-24.524999999999935
42
0.41421356237309337
10
300.58450000000016
20
-23.774999999999945
10
300.58450000000016
20
-13.274999999999944
42
0.41421356237309681
10
299.83450000000016
20
-12.524999999999942
10
296.42800000000017
20
-12.524999999999942
42
0.41421356237309853
0
LWPOLYLINE
5
110
100
AcDbEntity
8
0
100
AcDbPolyline
90
9
70
1
43
0.0
10
295.678
20
-39.087499999999849
10
295.67799999999392
20
-126.53743995356594
10
295.67475887538541
20
-127.78548549341009
42
0.41497439741174957
10
296.42475634632228
20
-128.53743320700042
10
299.83500000000015
20
-128.53743320700042
42
0.41421356237307422
10
300.58500000000015
20
-127.78743320700043
10
300.58500000000015
20
-39.087499999999906
42
0.41421356237309853
10
299.83500000000015
20
-38.337499999999899
10
296.428
20
-38.337499999999885
42
0.41421356237308116
0
LWPOLYLINE
5
111
100
AcDbEntity
8
0
100
AcDbPolyline
90
8
70
1
43
0.0
10
352.38750000000005
20
-93.48749999999994
10
341.88750000000022
20
-93.487499999999955
42
0.41421356237310197
10
341.1375000000001
20
-94.23750000000004
10
341.1375000000001
20
-106.73749999999981
42
0.41421356237309503
10
341.88750000000022
20
-107.4874999999999
10
352.38750000000005
20
-107.4874999999999
42
0.41421356237308815
10
353.13750000000016
20
-106.73749999999978
10
353.13750000000016
20
-94.237500000000011
42
0.41421356237308116
0
LWPOLYLINE
5
112
100
AcDbEntity
8
0
100
AcDbPolyline
90
8
70
1
43
0.0
10
305.78750000000008
20
-107.48749999999994
10
316.28750000000019
20
-107.48749999999994
42
0.41421356237308815
10
317.03750000000014
20
-106.73749999999997
10
317.03750000000014
20
-94.237499999999869
42
0.41421356237309503
10
316.28750000000014
20
-93.487499999999926
10
305.78750000000008
20
-93.487499999999883
42
0.41421356237310197
10
305.03750000000014
20
-94.237499999999855
10
305.03750000000014
20
-106.73749999999998
42
0.41421356237309503
0
LWPOLYLINE
5
113
100
AcDbEntity
8
0
100
AcDbPolyline
90
8
70
1
43
0.0
10
341.13749999999993
20
-13.274999999999935
42
-0.41421356237302831
10
341.88749999999999
20
-12.524999999999942
10
354.38750000000027
20
-12.525000000000068
42
-0.41421356237310025
10
355.13750000000016
20
-13.274999999999968
10
355.13750000000027
20
-25.774999999999928
42
-0.41421356237308982
10
354.38750000000016
20
-26.52499999999992
10
341.88749999999999
20
-26.524999999999814
42
-0.41421356237309503
10
341.1375000000001
20
-25.774999999999928
0
LWPOLYLINE
5
114
100
AcDbEntity
8
0
100
AcDbPolyline
90
8
70
1
43
0.0
10
50.625000000000078
20
-13.274999999999967
42
-0.41421356237309764
10
51.375000000000064
20
-12.524999999999974
10
63.875000000000028
20
-12.52499999999991
42
-0.41421356237309337
10
64.625000000000085
20
-13.27499999999997
10
64.624999999999986
20
-25.774999999999963
42
-0.41421356237309681
10
63.875000000000028
20
-26.524999999999924
10
51.375000000000064
20
-26.524999999999991
42
-0.41421356237309503
10
50.625000000000036
20
-25.774999999999963
0
LWPOLYLINE
5
115
100
AcDbEntity
8
0
100
AcDbPolyline
90
8
70
1
43
0.0
10
145.87500000000009
20
-37.08749999999997
42
-0.41421356237309681
10
146.62500000000011
20
-36.337499999999906
10
159.12500000000009
20
-36.337499999999913
42
-0.41421356237310542
10
159.87500000000011
20
-37.087499999999935
10
159.87500000000006
20
-49.587499999999963
42
-0.41421356237311241
10
159.12500000000009
20
-50.337499999999942
10
146.62500000000011
20
-50.33749999999997
42
-0.41421356237309159
10
145.87500000000011
20
-49.587499999999984
0
LWPOLYLINE
5
116
100
AcDbEntity
8
0
100
AcDbPolyline
90
8
70
1
43
0.0
10
341.13749999999993
20
-37.087499999999935
42
-0.41421356237303258
10
341.88749999999999
20
-36.337499999999906
10
354.38750000000016
20
-36.337500000000055
42
-0.41421356237309337
10
355.13750000000016
20
-37.087499999999935
10
355.13750000000027
20
-49.587499999999942
42
-0.41421356237309503
10
354.38750000000016
20
-50.337499999999942
10
341.88749999999999
20
-50.337500000000034
42
-0.41421356237300488
10
341.13749999999993
20
-49.587499999999949
0
LWPOLYLINE
5
117
100
AcDbEntity
8
0
100
AcDbPolyline
90
8
70
1
43
0.0
10
15.31875000000003
20
-74.437499999999886
42
-0.41421356237309337
10
16.068750000000094
20
-75.187499999999957
10
16.068749999999973
20
-87.687499999999915
42
-0.41421356237309681
10
15.31875000000003
20
-88.437499999999858
10
14.818750000000023
20
-88.437499999999872
42
-0.41421356237310458
10
14.068750000000065
20
-87.687499999999901
10
14.068750000000101
20
-75.187499999999943
42
-0.41421356237309853
10
14.818750000000023
20
-74.4375
0
LWPOLYLINE
5
118
100
AcDbEntity
8
0
100
AcDbPolyline
90
8
70
1
43
0.0
10
222.07500000000022
20
-13.274999999999968
10
222.07500000000022
20
-25.774999999999928
42
0.41421356237309503
10
222.8250000000001
20
-26.524999999999924
10
235.32500000000002
20
-26.52499999999992
42
0.41421356237308637
10
236.07500000000002
20
-25.774999999999928
10
236.07500000000019
20
-13.274999999999968
42
0.41421356237310897
10
235.32500000000002
20
-12.524999999999935
10
222.8250000000001
20
-12.524999999999942
42
0.41421356237309681
0
LWPOLYLINE
5
119
100
AcDbEntity
8
0
100
AcDbPolyline
90
8
70
1
43
0.0
10
73.400000000000034
20
-55.387499999999918
42
-0.41421356237310542
10
74.150000000000034
20
-56.137499999999918
10
74.150000000000063
20
-68.637499999999946
42
-0.41421356237308815
10
73.400000000000034
20
-69.387499999999974
10
60.900000000000034
20
-69.387499999999861
42
-0.41421356237310197
10
60.150000000000112
20
-68.637499999999946
10
60.150000000000077
20
-56.137499999999918
42
-0.41421356237310197
10
60.900000000000034
20
-55.38749999999996
0
LWPOLYLINE
5
120
100
AcDbEntity
8
0
100
AcDbPolyline
90
8
70
1
43
0.0
10
212.5500000000001
20
-56.137499999999918
42
-0.41421356237309159
10
213.3000000000001
20
-55.387499999999925
10
225.8000000000001
20
-55.387499999999889
42
-0.41421356237309503
10
226.55000000000013
20
-56.137499999999918
10
226.55000000000013
20
-68.637499999999946
42
-0.4142135623730534
10
225.8000000000001
20
-69.387499999999932
10
213.3000000000001
20
-69.387499999999832
42
-0.41421356237309503
10
212.55000000000021
20
-68.637499999999946
0
LWPOLYLINE
5
121
100
AcDbEntity
8
0
100
AcDbPolyline
90
8
70
1
43
0.0
10
341.13749999999993
20
-56.137499999999903
42
-0.41421356237303608
10
341.88749999999999
20
-55.387499999999918
10
354.38750000000016
20
-55.387500000000031
42
-0.41421356237309503
10
355.13750000000016
20
-56.137499999999918
10
355.13750000000039
20
-68.637499999999903
42
-0.41421356237318868
10
354.38750000000016
20
-69.387499999999932
10
341.88749999999999
20
-69.38749999999979
42
-0.41421356237309503
10
341.1375000000001
20
-68.637499999999903
0
LWPOLYLINE
5
122
100
AcDbEntity
8
0
100
AcDbPolyline
90
8
70
1
43
0.0
10
79.200000000000045
20
-56.137499999999918
42
-0.41421356237310197
10
79.950000000000017
20
-55.38749999999996
10
92.450000000000045
20
-55.387499999999889
42
-0.41421356237309503
10
93.200000000000074
20
-56.137499999999918
10
93.200000000000074
20
-68.637499999999946
42
-0.41421356237309853
10
92.450000000000045
20
-69.387499999999974
10
79.950000000000017
20
-69.387499999999903
42
-0.41421356237310197
10
79.200000000000045
20
-68.637499999999946
0
LWPOLYLINE
5
123
100
AcDbEntity
8
0
100
AcDbPolyline
90
8
70
1
43
0.0
10
198.26250000000013
20
-75.187499999999915
42
-0.41421356237309503
10
199.01250000000007
20
-74.437499999999957
10
211.51250000000022
20
-74.437500000000099
42
-0.41421356237309503
10
212.26250000000005
20
-75.187499999999915
10
212.26250000000024
20
-87.687499999999915
42
-0.41421356237311585
10
211.51250000000016
20
-88.437499999999929
10
199.0125000000001
20
-88.437499999999986
42
-0.41421356237308815
10
198.26249999999999
20
-87.687499999999901
0
LWPOLYLINE
5
124
100
AcDbEntity
8
0
100
AcDbPolyline
90
8
70
1
43
0.0
10
69.675000000000011
20
-37.08749999999997
42
-0.41421356237309337
10
70.42500000000004
20
-36.337499999999942
10
82.925000000000068
20
-36.337499999999935
42
-0.41421356237309853
10
83.675000000000068
20
-37.08749999999997
10
83.675000000000068
20
-49.587499999999977
42
-0.41421356237309503
10
82.925000000000068
20
-50.337499999999977
10
70.42500000000004
20
-50.337499999999942
42
-0.41421356237310197
10
69.675000000000082
20
-49.587499999999984
0
LWPOLYLINE
5
125
100
AcDbEntity
8
0
100
AcDbPolyline
90
8
70
1
43
0.0
10
69.675000000000054
20
-13.27499999999997
42
-0.41421356237309764
10
70.42500000000004
20
-12.524999999999977
10
82.925000000000068
20
-12.524999999999968
42
-0.4142135623730846
10
83.675000000000068
20
-13.27499999999997
10
83.675000000000068
20
-25.774999999999963
42
-0.41421356237309337
10
82.925000000000068
20
-26.52499999999992
10
70.42500000000004
20
-26.52499999999991
42
-0.41421356237311241
10
69.675000000000082
20
-25.774999999999928
0
LWPOLYLINE
5
126
100
AcDbEntity
8
0
100
AcDbPolyline
90
8
70
1
43
0.0
10
274.46250000000009
20
-113.28749999999994
10
274.46249999999998
20
-125.78749999999992
42
0.41421356237310197
10
275.21250000000015
20
-126.53750000000011
10
287.71250000000015
20
-126.53749999999995
42
0.41421356237309503
10
288.46250000000015
20
-125.78749999999994
10
288.46250000000015
20
-113.28749999999997
42
0.41421356237310197
10
287.71250000000015
20
-112.53749999999997
10
275.21250000000015
20
-112.53749999999999
42
0.41421356237308815
0
LWPOLYLINE
5
127
100
AcDbEntity
8
0
100
AcDbPolyline
90
8
70
1
43
0.0
10
12.524999999999974
20
-37.08749999999997
42
-0.41421356237309681
10
13.275000000000006
20
-36.337499999999942
10
25.775000000000006
20
-36.337499999999949
42
-0.41421356237309681
10
26.525000000000034
20
-37.08749999999997
10
26.525000000000002
20
-49.587499999999963
42
-0.41421356237310025
10
25.775000000000006
20
-50.337499999999977
10
13.275000000000006
20
-50.337499999999942
42
-0.41421356237310114
10
12.525000000000048
20
-49.587499999999984
0
LWPOLYLINE
5
128
100
AcDbEntity
8
0
100
AcDbPolyline
90
8
70
1
43
0.0
10
303.03750000000014
20
-13.27499999999997
42
-0.41421356237309764
10
303.78750000000014
20
-12.524999999999942
10
316.28750000000014
20
-12.524999999999935
42
-0.41421356237305601
10
317.03750000000019
20
-13.274999999999935
10
317.03750000000019
20
-25.774999999999928
42
-0.41421356237308637
10
316.28750000000014
20
-26.52499999999992
10
303.78750000000014
20
-26.524999999999746
42
-0.41421356237309681
10
303.03750000000031
20
-25.774999999999928
0
LWPOLYLINE
5
129
100
AcDbEntity
8
0
100
AcDbPolyline
90
8
70
1
43
0.0
10
221.23750000000032
20
-113.28749999999997
42
-0.41421356237309503
10
221.9875000000003
20
-112.53749999999999
10
222.48750000000018
20
-112.53749999999994
42
-0.41421356237303952
10
223.23750000000007
20
-113.28749999999997
10
223.23750000000007
20
-125.78749999999994
42
-0.41421356237303258
10
222.48750000000018
20
-126.53749999999995
10
221.9875000000003
20
-126.53750000000016
42
-0.41421356237306733
10
221.23750000000004
20
-125.78749999999992
0
LWPOLYLINE
5
130
100
AcDbEntity
8
0
100
AcDbPolyline
90
8
70
1
43
0.0
10
98.250000000000099
20
-56.137499999999918
42
-0.41421356237310542
10
99.000000000000057
20
-55.38749999999996
10
111.50000000000006
20
-55.387499999999925
42
-0.41421356237309503
10
112.25000000000006
20
-56.137499999999918
10
112.25000000000006
20
-68.637499999999946
42
-0.41421356237309159
10
111.50000000000006
20
-69.387499999999932
10
99.000000000000057
20
-69.387499999999889
42
-0.41421356237310542
10
98.250000000000099
20
-68.637499999999946
0
LWPOLYLINE
5
131
100
AcDbEntity
8
0
100
AcDbPolyline
90
8
70
1
43
0.0
10
160.16250000000014
20
-75.187499999999915
42
-0.41421356237312279
10
160.91250000000005
20
-74.4375
10
173.41250000000005
20
-74.437499999999758
42
-0.41421356237311935
10
174.16250000000022
20
-75.187499999999915
10
174.16250000000002
20
-87.687499999999915
42
-0.41421356237308815
10
173.41250000000005
20
-88.437499999999858
10
160.91250000000005
20
-88.437499999999858
42
-0.41421356237309503
10
160.16250000000011
20
-87.687499999999901
0
LWPOLYLINE
5
132
100
AcDbEntity
8
0
100
AcDbPolyline
90
8
70
1
43
0.0
10
241.12500000000009
20
-13.274999999999931
42
-0.41421356237305601
10
241.87500000000011
20
-12.524999999999938
10
254.37500000000017
20
-12.525000000000032
42
-0.41421356237308637
10
255.12500000000006
20
-13.274999999999968
10
255.1250000000002
20
-25.774999999999928
42
-0.41421356237308637
10
254.37500000000017
20
-26.52499999999992
10
241.87500000000011
20
-26.524999999999874
42
-0.41421356237309159
10
241.12500000000014
20
-25.774999999999928
0
LWPOLYLINE
5
133
100
AcDbEntity
8
0
100
AcDbPolyline
90
8
70
1
43
0.0
10
31.575000000000021
20
-37.08749999999997
42
-0.41421356237309681
10
32.325000000000053
20
-36.337499999999942
10
44.825000000000088
20
-36.337500000000013
42
-0.41421356237309503
10
45.575000000000045
20
-37.08749999999997
10
45.575000000000081
20
-49.587499999999977
42
-0.41421356237310542
10
44.825000000000088
20
-50.337499999999977
10
32.325000000000053
20
-50.337499999999977
42
-0.41421356237309681
10
31.57500000000006
20
-49.587499999999984
0
LWPOLYLINE
5
134
100
AcDbEntity
8
0
100
AcDbPolyline
90
8
70
1
43
0.0
10
274.46250000000015
20
-56.137499999999918
42
-0.41421356237309159
10
275.21250000000015
20
-55.387499999999925
10
287.71250000000015
20
-55.387499999999889
42
-0.41421356237309503
10
288.46250000000015
20
-56.137499999999918
10
288.46250000000015
20
-68.637499999999903
42
-0.41421356237309853
10
287.71250000000015
20
-69.387499999999932
10
275.21250000000015
20
-69.387499999999946
42
-0.41421356237309853
10
274.46250000000009
20
-68.637499999999903
0
LWPOLYLINE
5
135
100
AcDbEntity
8
0
100
AcDbPolyline
90
8
70
1
43
0.0
10
64.912500000000051
20
-75.187499999999915
42
-0.41421356237310197
10
65.662499999999994
20
-74.437499999999957
10
78.162499999999994
20
-74.437499999999844
42
-0.41421356237311241
10
78.912500000000108
20
-75.187499999999915
10
78.91249999999998
20
-87.687499999999901
42
-0.41421356237309853
10
78.162500000000037
20
-88.437499999999858
10
65.662499999999994
20
-88.437499999999858
42
-0.41421356237310542
10
64.912500000000051
20
-87.687499999999901
0
LWPOLYLINE
5
136
100
AcDbEntity
8
0
100
AcDbPolyline
90
8
70
1
43
0.0
10
107.77500000000011
20
-13.274999999999967
42
-0.4142135623730846
10
108.52500000000009
20
-12.524999999999974
10
121.02500000000013
20
-12.525000000000047
42
-0.41421356237308032
10
121.77500000000006
20
-13.274999999999967
10
121.77500000000012
20
-25.774999999999963
42
-0.41421356237309337
10
121.02500000000013
20
-26.52499999999992
10
108.52500000000009
20
-26.524999999999963
42
-0.41421356237309853
10
107.77500000000011
20
-25.774999999999928
0
LWPOLYLINE
5
137
100
AcDbEntity
8
0
100
AcDbPolyline
90
8
70
1
43
0.0
10
88.725000000000094
20
-13.27499999999997
42
-0.4142135623730846
10
89.47500000000008
20
-12.524999999999977
10
101.97500000000005
20
-12.524999999999968
42
-0.4142135623730846
10
102.72500000000005
20
-13.27499999999997
10
102.72500000000005
20
-25.774999999999963
42
-0.41421356237309337
10
101.97500000000005
20
-26.52499999999992
10
89.47500000000008
20
-26.524999999999999
42
-0.41421356237309681
10
88.725000000000051
20
-25.774999999999931
0
LWPOLYLINE
5
138
100
AcDbEntity
8
0
100
AcDbPolyline
90
8
70
1
43
0.0
10
17.28750000000009
20
-56.13749999999996
42
-0.41421356237311063
10
18.037500000000044
20
-55.38749999999996
10
30.53750000000008
20
-55.38749999999996
42
-0.41421356237310897
10
31.287500000000072
20
-56.137499999999918
10
31.287500000000147
20
-68.637499999999946
42
-0.41421356237311063
10
30.53750000000008
20
-69.387499999999974
10
18.037500000000044
20
-69.387499999999932
42
-0.41421356237309764
10
17.287500000000051
20
-68.637499999999946
0
LWPOLYLINE
5
139
100
AcDbEntity
8
0
100
AcDbPolyline
90
8
70
1
43
0.0
10
32.918750000000045
20
-74.437499999999957
42
-0.41421356237312457
10
33.668750000000038
20
-75.187499999999957
10
33.668750000000117
20
-87.687499999999915
42
-0.41421356237308982
10
32.918750000000045
20
-88.437499999999929
10
20.41875000000001
20
-88.437499999999872
42
-0.41421356237310375
10
19.668750000000053
20
-87.687499999999901
10
19.668750000000092
20
-75.187499999999901
42
-0.41421356237309337
10
20.41875000000001
20
-74.4375
0
LWPOLYLINE
5
140
100
AcDbEntity
8
0
100
AcDbPolyline
90
8
70
1
43
0.0
10
303.03750000000014
20
-113.28749999999997
42
-0.41421356237310197
10
303.78750000000014
20
-112.53749999999994
10
316.28750000000014
20
-112.53749999999991
42
-0.41421356237310197
10
317.03750000000019
20
-113.28749999999997
10
317.03750000000025
20
-125.78749999999994
42
-0.41421356237308815
10
316.28750000000014
20
-126.53749999999995
10
303.78750000000014
20
-126.53749999999974
42
-0.41421356237309503
10
303.03750000000031
20
-125.78749999999992
0
LWPOLYLINE
5
141
100
AcDbEntity
8
0
100
AcDbPolyline
90
8
70
1
43
0.0
10
193.50000000000017
20
-13.274999999999967
42
-0.41421356237308815
10
194.25000000000014
20
-12.524999999999974
10
206.75000000000014
20
-12.524999999999951
42
-0.41421356237309159
10
207.50000000000011
20
-13.27499999999997
10
207.50000000000006
20
-25.774999999999928
42
-0.41421356237308815
10
206.75000000000014
20
-26.52499999999992
10
194.25000000000014
20
-26.524999999999874
42
-0.41421356237309159
10
193.5000000000002
20
-25.774999999999928
0
LWPOLYLINE
5
142
100
AcDbEntity
8
0
100
AcDbPolyline
90
8
70
1
43
0.0
10
292.06250000000006
20
-113.28749999999997
42
-0.41421356237309503
10
292.81250000000006
20
-112.53749999999999
10
293.31250000000011
20
-112.53749999999991
42
-0.41421356237310197
10
294.06250000000017
20
-113.28749999999997
10
294.06250000000011
20
-125.78749999999994
42
-0.41421356237309503
10
293.31250000000017
20
-126.53749999999995
10
292.81250000000006
20
-126.53750000000001
42
-0.41421356237308815
10
292.06249999999994
20
-125.78749999999992
0
LWPOLYLINE
5
143
100
AcDbEntity
8
0
100
AcDbPolyline
90
8
70
1
43
0.0
10
217.3125000000002
20
-75.187499999999915
42
-0.41421356237309503
10
218.06250000000017
20
-74.437499999999957
10
230.56250000000009
20
-74.437499999999957
42
-0.41421356237309503
10
231.31250000000006
20
-75.187499999999915
10
231.31250000000009
20
-87.687499999999915
42
-0.41421356237308815
10
230.56250000000009
20
-88.437499999999872
10
218.0625000000002
20
-88.437499999999972
42
-0.41421356237310197
10
217.31250000000014
20
-87.687499999999915
0
LWPOLYLINE
5
144
100
AcDbEntity
8
0
100
AcDbPolyline
90
8
70
1
43
0.0
10
83.762500000000102
20
-112.53749999999994
42
-0.41421356237306733
10
84.512500000000088
20
-113.28749999999997
10
84.512500000000173
20
-125.78749999999994
42
-0.41421356237308116
10
83.762500000000102
20
-126.53750000000002
10
83.262500000000088
20
-126.53749999999991
42
-0.41421356237308116
10
82.512500000000102
20
-125.78749999999992
10
82.512500000000131
20
-113.28749999999994
42
-0.41421356237310197
10
83.262500000000088
20
-112.53749999999999
0
LWPOLYLINE
5
145
100
AcDbEntity
8
0
100
AcDbPolyline
90
8
70
1
43
0.0
10
168.65000000000006
20
-55.38749999999996
42
-0.41421356237309503
10
169.40000000000001
20
-56.137499999999918
10
169.40000000000009
20
-68.637499999999946
42
-0.41421356237309853
10
168.65000000000006
20
-69.387499999999974
10
156.15000000000009
20
-69.387499999999889
42
-0.41421356237310542
10
155.40000000000015
20
-68.637499999999946
10
155.40000000000015
20
-56.137499999999918
42
-0.41421356237310542
10
156.15000000000009
20
-55.38749999999996
0
LWPOLYLINE
5
146
100
AcDbEntity
8
0
100
AcDbPolyline
90
8
70
1
43
0.0
10
183.97500000000005
20
-37.087499999999935
42
-0.41421356237309853
10
184.72500000000008
20
-36.337499999999906
10
197.22500000000002
20
-36.337499999999856
42
-0.41421356237308815
10
197.97500000000016
20
-37.087499999999935
10
197.97500000000002
20
-49.587499999999963
42
-0.41421356237310197
10
197.22500000000008
20
-50.337499999999942
10
184.72500000000008
20
-50.33750000000002
42
-0.41421356237309853
10
183.97500000000005
20
-49.587499999999984
0
LWPOLYLINE
5
147
100
AcDbEntity
8
0
100
AcDbPolyline
90
8
70
1
43
0.0
10
45.862500000000175
20
-75.187499999999915
42
-0.41421356237310197
10
46.612500000000097
20
-74.4375
10
59.112500000000097
20
-74.437499999999886
42
-0.41421356237308116
10
59.86250000000009
20
-75.187499999999915
10
59.862500000000011
20
-87.687499999999901
42
-0.41421356237309853
10
59.112500000000061
20
-88.437499999999858
10
46.612500000000097
20
-88.437499999999972
42
-0.41421356237309503
10
45.862500000000033
20
-87.687499999999901
0
LWPOLYLINE
5
148
100
AcDbEntity
8
0
100
AcDbPolyline
90
8
70
1
43
0.0
10
64.912500000000051
20
-113.28749999999997
42
-0.41421356237310542
10
65.662499999999994
20
-112.53749999999999
10
78.162500000000037
20
-112.53749999999994
42
-0.41421356237309853
10
78.912500000000065
20
-113.28749999999997
10
78.912500000000151
20
-125.78749999999994
42
-0.41421356237309503
10
78.162499999999994
20
-126.53750000000002
10
65.662499999999994
20
-126.53749999999988
42
-0.41421356237310542
10
64.912500000000051
20
-125.78749999999992
0
LWPOLYLINE
5
149
100
AcDbEntity
8
0
100
AcDbPolyline
90
8
70
1
43
0.0
10
11.687500000000099
20
-113.28749999999994
10
11.687500000000028
20
-125.78749999999992
42
0.41421356237310636
10
12.437500000000057
20
-126.53749999999999
10
12.937500000000028
20
-126.53750000000002
42
0.41421356237309337
10
13.687500000000021
20
-125.78749999999994
10
13.687500000000021
20
-113.28749999999997
42
0.4142135623730846
10
12.937500000000028
20
-112.53749999999997
10
12.437500000000057
20
-112.53749999999999
42
0.41421356237309681
0
LWPOLYLINE
5
150
100
AcDbEntity
8
0
100
AcDbPolyline
90
8
70
1
43
0.0
10
322.08750000000009
20
-37.087499999999935
42
-0.41421356237303258
10
322.83750000000009
20
-36.337499999999906
10
335.33750000000009
20
-36.337499999999835
42
-0.41421356237312279
10
336.08750000000015
20
-37.087499999999935
10
336.08750000000009
20
-49.587499999999942
42
-0.41421356237300833
10
335.33750000000009
20
-50.337499999999977
10
322.83750000000009
20
-50.337500000000077
42
-0.41421356237313323
10
322.08749999999998
20
-49.587499999999949
0
LWPOLYLINE
5
151
100
AcDbEntity
8
0
100
AcDbPolyline
90
8
70
1
43
0.0
10
268.86250000000024
20
-113.28749999999994
10
268.86250000000007
20
-125.78749999999992
42
0.41421356237310197
10
269.61250000000024
20
-126.53750000000011
10
270.11250000000024
20
-126.53749999999995
42
0.41421356237303258
10
270.86250000000013
20
-125.78749999999994
10
270.86250000000013
20
-113.28749999999997
42
0.41421356237310197
10
270.11250000000007
20
-112.53749999999997
10
269.61250000000024
20
-112.53749999999999
42
0.41421356237308815
0
LWPOLYLINE
5
152
100
AcDbEntity
8
0
100
AcDbPolyline
90
8
70
1
43
0.0
10
141.11250000000013
20
-75.187499999999915
42
-0.41421356237310542
10
141.86250000000007
20
-74.437499999999957
10
154.36250000000013
20
-74.437499999999929
42
-0.41421356237309159
10
155.11250000000013
20
-75.187499999999915
10
155.11250000000007
20
-87.687499999999915
42
-0.41421356237310197
10
154.36250000000013
20
-88.437499999999858
10
141.86250000000007
20
-88.437499999999886
42
-0.41421356237308116
10
141.1125000000001
20
-87.687499999999901
0
LWPOLYLINE
5
153
100
AcDbEntity
8
0
100
AcDbPolyline
90
8
70
1
43
0.0
10
279.22500000000008
20
-13.274999999999935
42
-0.41421356237308815
10
279.97500000000008
20
-12.524999999999942
10
292.47500000000008
20
-12.524999999999762
42
-0.41421356237310897
10
293.22500000000025
20
-13.274999999999968
10
293.22500000000008
20
-25.774999999999928
42
-0.41421356237308637
10
292.47500000000008
20
-26.52499999999992
10
279.97500000000008
20
-26.524999999999967
42
-0.41421356237310025
10
279.22500000000002
20
-25.774999999999928
0
LWPOLYLINE
5
154
100
AcDbEntity
8
0
100
AcDbPolyline
90
8
70
1
43
0.0
10
41.100000000000058
20
-56.137499999999953
42
-0.41421356237310542
10
41.850000000000023
20
-55.38749999999996
10
54.350000000000094
20
-55.387499999999974
42
-0.41421356237307771
10
55.100000000000051
20
-56.137499999999903
10
55.100000000000122
20
-68.637499999999946
42
-0.41421356237310897
10
54.350000000000058
20
-69.387499999999974
10
41.850000000000023
20
-69.387499999999932
42
-0.41421356237310197
10
41.10000000000003
20
-68.637499999999946
0
LWPOLYLINE
5
155
100
AcDbEntity
8
0
100
AcDbPolyline
90
8
70
1
43
0.0
10
50.625000000000036
20
-37.08749999999997
42
-0.41421356237309337
10
51.375000000000064
20
-36.337499999999942
10
63.875000000000028
20
-36.337499999999906
42
-0.41421356237308982
10
64.625000000000085
20
-37.08749999999997
10
64.625000000000028
20
-49.587499999999977
42
-0.41421356237310542
10
63.875000000000028
20
-50.337499999999977
10
51.375000000000064
20
-50.337500000000013
42
-0.41421356237308815
10
50.625000000000036
20
-49.587499999999984
0
LWPOLYLINE
5
156
100
AcDbEntity
8
0
100
AcDbPolyline
90
8
70
1
43
0.0
10
107.77500000000006
20
-37.087499999999935
42
-0.41421356237308293
10
108.52500000000009
20
-36.337499999999942
10
121.02500000000013
20
-36.337499999999977
42
-0.41421356237312279
10
121.77500000000009
20
-37.08749999999997
10
121.77500000000012
20
-49.587499999999977
42
-0.41421356237309503
10
121.02500000000013
20
-50.337499999999977
10
108.52500000000009
20
-50.33749999999997
42
-0.41421356237309159
10
107.77500000000011
20
-49.587499999999984
0
LWPOLYLINE
5
157
100
AcDbEntity
8
0
100
AcDbPolyline
90
8
70
1
43
0.0
10
174.45000000000019
20
-56.137499999999918
42
-0.41421356237309503
10
175.20000000000013
20
-55.38749999999996
10
187.70000000000007
20
-55.38749999999996
42
-0.41421356237309503
10
188.45000000000002
20
-56.137499999999918
10
188.4500000000001
20
-68.637499999999946
42
-0.41421356237309853
10
187.70000000000007
20
-69.387499999999974
10
175.20000000000016
20
-69.387500000000017
42
-0.41421356237308815
10
174.45000000000005
20
-68.637499999999946
0
LWPOLYLINE
5
158
100
AcDbEntity
8
0
100
AcDbPolyline
90
8
70
1
43
0.0
10
268.86250000000024
20
-56.137499999999918
42
-0.41421356237309159
10
269.61250000000024
20
-55.387499999999925
10
270.11250000000007
20
-55.387499999999889
42
-0.41421356237309503
10
270.86250000000013
20
-56.137499999999918
10
270.86250000000013
20
-68.637499999999903
42
-0.41421356237306034
10
270.11250000000024
20
-69.387499999999974
10
269.61250000000024
20
-69.387500000000074
42
-0.41421356237311935
10
268.86250000000007
20
-68.637499999999903
0
LWPOLYLINE
5
159
100
AcDbEntity
8
0
100
AcDbPolyline
90
8
70
1
43
0.0
10
136.35000000000008
20
-56.137499999999918
42
-0.41421356237310542
10
137.10000000000005
20
-55.38749999999996
10
149.60000000000008
20
-55.387499999999925
42
-0.41421356237312279
10
150.35000000000011
20
-56.137499999999918
10
150.35000000000014
20
-68.637499999999946
42
-0.41421356237309853
10
149.60000000000011
20
-69.387499999999974
10
137.10000000000005
20
-69.387499999999889
42
-0.41421356237310542
10
136.35000000000008
20
-68.637499999999946
0
LWPOLYLINE
5
160
100
AcDbEntity
8
0
100
AcDbPolyline
90
8
70
1
43
0.0
10
117.30000000000015
20
-56.137499999999918
42
-0.41421356237310542
10
118.0500000000001
20
-55.38749999999996
10
130.5500000000001
20
-55.387499999999967
42
-0.41421356237310542
10
131.30000000000007
20
-56.137499999999918
10
131.30000000000013
20
-68.637499999999946
42
-0.41421356237309853
10
130.5500000000001
20
-69.387499999999974
10
118.0500000000001
20
-69.387500000000003
42
-0.41421356237309503
10
117.30000000000004
20
-68.637499999999946
0
LWPOLYLINE
5
161
100
AcDbEntity
8
0
100
AcDbPolyline
90
8
70
1
43
0.0
10
193.50000000000017
20
-56.137499999999918
42
-0.41421356237309159
10
194.25000000000014
20
-55.387499999999925
10
206.75000000000009
20
-55.387499999999889
42
-0.41421356237309503
10
207.50000000000011
20
-56.137499999999918
10
207.50000000000011
20
-68.637499999999946
42
-0.41421356237309853
10
206.75000000000009
20
-69.387499999999974
10
194.25000000000014
20
-69.387499999999903
42
-0.41421356237309503
10
193.5000000000002
20
-68.637499999999946
0
LWPOLYLINE
5
162
100
AcDbEntity
8
0
100
AcDbPolyline
90
8
70
1
43
0.0
10
354.38750000000027
20
-112.53750000000008
42
-0.41421356237309503
10
355.13750000000016
20
-113.28749999999997
10
355.13750000000044
20
-125.78749999999987
42
-0.41421356237312978
10
354.38750000000016
20
-126.53749999999995
10
341.88749999999999
20
-126.53749999999975
42
-0.41421356237307422
10
341.1375000000001
20
-125.78749999999992
10
341.13749999999993
20
-113.28749999999994
42
-0.41421356237303258
10
341.88749999999999
20
-112.53749999999994
0
LWPOLYLINE
5
163
100
AcDbEntity
8
0
100
AcDbPolyline
90
8
70
1
43
0.0
10
83.962500000000205
20
-75.187499999999915
42
-0.41421356237308116
10
84.712500000000119
20
-74.4375
10
97.212500000000048
20
-74.437499999999929
42
-0.41421356237309159
10
97.962500000000034
20
-75.187499999999915
10
97.962500000000091
20
-87.687499999999915
42
-0.4142135623730534
10
97.212500000000119
20
-88.437499999999929
10
84.712500000000119
20
-88.437499999999886
42
-0.41421356237308116
10
83.962500000000119
20
-87.687499999999901
0
LWPOLYLINE
5
164
100
AcDbEntity
8
0
100
AcDbPolyline
90
8
70
1
43
0.0
10
231.60000000000011
20
-56.137499999999918
42
-0.41421356237309159
10
232.35000000000011
20
-55.387499999999925
10
244.84999999999999
20
-55.387499999999761
42
-0.41421356237311585
10
245.60000000000019
20
-56.137499999999918
10
245.60000000000008
20
-68.637499999999903
42
-0.41421356237311585
10
244.85000000000002
20
-69.387499999999974
10
232.35000000000011
20
-69.387499999999861
42
-0.41421356237309503
10
231.60000000000014
20
-68.637499999999903
0
LWPOLYLINE
5
165
100
AcDbEntity
8
0
100
AcDbPolyline
90
8
70
1
43
0.0
10
155.40000000000009
20
-13.274999999999967
42
-0.4142135623730846
10
156.15000000000009
20
-12.524999999999974
10
168.65000000000006
20
-12.524999999999926
42
-0.41421356237309936
10
169.40000000000009
20
-13.274999999999967
10
169.40000000000009
20
-25.774999999999928
42
-0.41421356237308637
10
168.65000000000006
20
-26.52499999999992
10
156.15000000000009
20
-26.524999999999871
42
-0.41421356237310375
10
155.40000000000015
20
-25.774999999999928
0
LWPOLYLINE
5
166
100
AcDbEntity
8
0
100
AcDbPolyline
90
8
70
1
43
0.0
10
179.21250000000012
20
-75.187499999999915
42
-0.41421356237309503
10
179.96250000000006
20
-74.437499999999957
10
192.46250000000015
20
-74.437499999999957
42
-0.41421356237309503
10
193.21250000000009
20
-75.187499999999915
10
193.21250000000009
20
-87.687499999999915
42
-0.41421356237308815
10
192.46250000000015
20
-88.437499999999858
10
179.96250000000009
20
-88.437499999999943
42
-0.41421356237310197
10
179.21250000000003
20
-87.687499999999901
0
LWPOLYLINE
5
167
100
AcDbEntity
8
0
100
AcDbPolyline
90
8
70
1
43
0.0
10
164.9250000000001
20
-37.087499999999935
42
-0.41421356237309853
10
165.67500000000013
20
-36.337499999999906
10
178.17500000000013
20
-36.337499999999991
42
-0.41421356237308982
10
178.9250000000001
20
-37.087499999999935
10
178.92500000000013
20
-49.587499999999963
42
-0.41421356237309503
10
178.17500000000013
20
-50.337499999999977
10
165.67500000000013
20
-50.337499999999942
42
-0.41421356237309503
10
164.92500000000018
20
-49.587499999999984
0
LWPOLYLINE
5
168
100
AcDbEntity
8
0
100
AcDbPolyline
90
8
70
1
43
0.0
10
88.725000000000051
20
-37.087499999999935
42
-0.41421356237308293
10
89.47500000000008
20
-36.337499999999942
10
101.97500000000005
20
-36.337499999999935
42
-0.41421356237309853
10
102.72500000000005
20
-37.08749999999997
10
102.72500000000001
20
-49.587499999999977
42
-0.41421356237310897
10
101.97500000000005
20
-50.337499999999942
10
89.47500000000008
20
-50.33750000000002
42
-0.41421356237309853
10
88.725000000000051
20
-49.587499999999984
0
LWPOLYLINE
5
169
100
AcDbEntity
8
0
100
AcDbPolyline
90
8
70
1
43
0.0
10
140.0750000000001
20
-36.337499999999999
42
-0.41421356237310197
10
140.82500000000007
20
-37.087499999999935
10
140.82500000000007
20
-49.587499999999963
42
-0.41421356237311241
10
140.0750000000001
20
-50.337499999999942
10
127.57500000000007
20
-50.33749999999997
42
-0.41421356237309159
10
126.82500000000007
20
-49.587499999999984
10
126.82500000000005
20
-37.087499999999984
42
-0.41421356237310197
10
127.57500000000007
20
-36.337499999999906
0
LWPOLYLINE
5
170
100
AcDbEntity
8
0
100
AcDbPolyline
90
8
70
1
43
0.0
10
36.137500000000067
20
-55.387499999999967
42
-0.41421356237309681
10
36.887500000000024
20
-56.137499999999918
10
36.887500000000095
20
-68.637499999999946
42
-0.41421356237309503
10
36.137500000000067
20
-69.387499999999974
10
35.63750000000006
20
-69.387499999999974
42
-0.41421356237309503
10
34.887500000000031
20
-68.637499999999946
10
34.887500000000102
20
-56.137499999999946
42
-0.41421356237309853
10
35.63750000000006
20
-55.38749999999996
0
LWPOLYLINE
5
171
100
AcDbEntity
8
0
100
AcDbPolyline
90
8
70
1
43
0.0
10
322.08750000000009
20
-13.274999999999931
10
322.08749999999998
20
-25.774999999999928
42
0.41421356237312801
10
322.83750000000009
20
-26.525000000000091
10
335.33750000000009
20
-26.52499999999992
42
0.41421356237303436
10
336.08750000000032
20
-25.774999999999928
10
336.08750000000032
20
-13.274999999999933
42
0.41421356237310114
10
335.33750000000009
20
-12.524999999999935
10
322.83750000000009
20
-12.524999999999942
42
0.41421356237302653
0
LWPOLYLINE
5
172
100
AcDbEntity
8
0
100
AcDbPolyline
90
8
70
1
43
0.0
10
226.83750000000029
20
-113.28749999999997
42
-0.41421356237309503
10
227.58750000000023
20
-112.53749999999999
10
240.08750000000023
20
-112.53750000000014
42
-0.41421356237309503
10
240.83750000000006
20
-113.28749999999997
10
240.83750000000023
20
-125.78749999999994
42
-0.41421356237309503
10
240.08750000000023
20
-126.53749999999995
10
227.58750000000026
20
-126.53750000000011
42
-0.41421356237310197
10
226.83750000000006
20
-125.78749999999992
0
LWPOLYLINE
5
173
100
AcDbEntity
8
0
100
AcDbPolyline
90
8
70
1
43
0.0
10
322.08750000000009
20
-94.237499999999926
42
-0.41421356237303952
10
322.83750000000009
20
-93.487499999999898
10
335.33750000000009
20
-93.487499999999841
42
-0.41421356237311585
10
336.08750000000015
20
-94.237499999999926
10
336.08750000000009
20
-106.73749999999993
42
-0.41421356237310197
10
335.33750000000009
20
-107.48749999999988
10
322.83750000000009
20
-107.48749999999995
42
-0.41421356237303952
10
322.08750000000009
20
-106.73749999999993
0
LWPOLYLINE
5
174
100
AcDbEntity
8
0
100
AcDbPolyline
90
8
70
1
43
0.0
10
37.268750000000026
20
-75.187499999999915
42
-0.41421356237309681
10
38.01874999999999
20
-74.437499999999957
10
38.518750000000033
20
-74.437499999999886
42
-0.41421356237309503
10
39.268750000000061
20
-75.187499999999915
10
39.268750000000068
20
-87.687499999999915
42
-0.41421356237308982
10
38.518749999999997
20
-88.437499999999929
10
38.01874999999999
20
-88.437499999999872
42
-0.41421356237310375
10
37.268750000000033
20
-87.687499999999901
0
LWPOLYLINE
5
175
100
AcDbEntity
8
0
100
AcDbPolyline
90
8
70
1
43
0.0
10
303.03750000000014
20
-37.087499999999935
42
-0.41421356237309853
10
303.78750000000014
20
-36.337499999999906
10
316.28750000000014
20
-36.337499999999899
42
-0.41421356237309853
10
317.03750000000019
20
-37.087499999999935
10
317.03750000000019
20
-49.587499999999942
42
-0.41421356237310197
10
316.28750000000014
20
-50.337499999999977
10
303.78750000000014
20
-50.337499999999906
42
-0.41421356237309503
10
303.03750000000019
20
-49.587499999999949
0
LWPOLYLINE
5
176
100
AcDbEntity
8
0
100
AcDbPolyline
90
8
70
1
43
0.0
10
260.17500000000001
20
-13.274999999999935
42
-0.41421356237305601
10
260.92500000000007
20
-12.524999999999942
10
273.42500000000013
20
-12.525000000000119
42
-0.41421356237319046
10
274.17500000000007
20
-13.274999999999967
10
274.17500000000024
20
-25.774999999999928
42
-0.41421356237317308
10
273.42500000000013
20
-26.52499999999992
10
260.92500000000007
20
-26.524999999999814
42
-0.41421356237309503
10
260.17500000000018
20
-25.774999999999928
0
LWPOLYLINE
5
177
100
AcDbEntity
8
0
100
AcDbPolyline
90
8
70
1
43
0.0
10
34.887500000000117
20
-113.28749999999997
42
-0.41421356237310375
10
35.63750000000006
20
-112.53749999999999
10
36.137500000000067
20
-112.53749999999998
42
-0.41421356237310375
10
36.887500000000024
20
-113.28749999999997
10
36.88750000000018
20
-125.78749999999994
42
-0.41421356237309337
10
36.137500000000067
20
-126.53750000000002
10
35.63750000000006
20
-126.53749999999995
42
-0.41421356237310719
10
34.887500000000031
20
-125.78749999999992
0
LWPOLYLINE
5
178
100
AcDbEntity
8
0
100
AcDbPolyline
90
8
70
1
43
0.0
10
322.08750000000009
20
-113.28749999999997
42
-0.41421356237303952
10
322.83750000000009
20
-112.53749999999994
10
335.33750000000009
20
-112.53749999999988
42
-0.41421356237311585
10
336.08750000000015
20
-113.28749999999997
10
336.0875000000002
20
-125.78749999999987
42
-0.41421356237308815
10
335.33750000000009
20
-126.53749999999995
10
322.83750000000009
20
-126.53749999999997
42
-0.41421356237312978
10
322.08749999999998
20
-125.78749999999985
0
LWPOLYLINE
5
179
100
AcDbEntity
8
0
100
AcDbPolyline
90
8
70
1
43
0.0
10
136.35000000000005
20
-13.27499999999997
42
-0.4142135623730846
10
137.10000000000005
20
-12.524999999999977
10
149.60000000000008
20
-12.524999999999977
42
-0.41421356237312101
10
150.35000000000011
20
-13.274999999999967
10
150.35000000000011
20
-25.774999999999928
42
-0.41421356237312101
10
149.60000000000008
20
-26.52499999999992
10
137.10000000000005
20
-26.524999999999871
42
-0.41421356237310375
10
136.35000000000008
20
-25.774999999999928
0
LWPOLYLINE
5
180
100
AcDbEntity
8
0
100
AcDbPolyline
90
8
70
1
43
0.0
10
322.08750000000009
20
-56.137499999999918
42
-0.41421356237303608
10
322.83750000000009
20
-55.387499999999925
10
335.33750000000009
20
-55.387499999999726
42
-0.41421356237310197
10
336.08750000000032
20
-56.137499999999918
10
336.08750000000009
20
-68.637499999999903
42
-0.41421356237300488
10
335.33750000000009
20
-69.387499999999932
10
322.83750000000009
20
-69.387499999999989
42
-0.41421356237300488
10
322.08750000000009
20
-68.637499999999903
0
LWPOLYLINE
5
181
100
AcDbEntity
8
0
100
AcDbPolyline
90
8
70
1
43
0.0
10
263.9000000000002
20
-55.387499999999889
42
-0.41421356237309503
10
264.6500000000002
20
-56.137499999999918
10
264.65000000000026
20
-68.637499999999903
42
-0.41421356237311585
10
263.9000000000002
20
-69.387499999999974
10
251.40000000000018
20
-69.387499999999946
42
-0.41421356237309853
10
250.65000000000015
20
-68.637499999999903
10
250.6500000000002
20
-56.137499999999903
42
-0.41421356237308815
10
251.40000000000018
20
-55.387499999999925
0
LWPOLYLINE
5
182
100
AcDbEntity
8
0
100
AcDbPolyline
90
8
70
1
43
0.0
10
59.312500000000057
20
-113.28749999999994
10
59.312500000000057
20
-125.78749999999992
42
0.41421356237310542
10
60.062500000000014
20
-126.53749999999991
10
60.562500000000057
20
-126.53750000000002
42
0.41421356237309159
10
61.312500000000156
20
-125.78749999999994
10
61.31250000000005
20
-113.28749999999997
42
0.41421356237309159
10
60.562500000000057
20
-112.53749999999997
10
60.062500000000014
20
-112.53749999999999
42
0.41421356237309853
0
LWPOLYLINE
5
183
100
AcDbEntity
8
0
100
AcDbPolyline
90
8
70
1
43
0.0
10
174.45000000000016
20
-13.27499999999997
42
-0.41421356237308815
10
175.20000000000013
20
-12.524999999999977
10
187.70000000000007
20
-12.52500000000002
42
-0.41421356237309243
10
188.45000000000002
20
-13.27499999999997
10
188.4500000000001
20
-25.774999999999928
42
-0.41421356237308637
10
187.70000000000007
20
-26.52499999999992
10
175.20000000000016
20
-26.525000000000006
42
-0.41421356237308815
10
174.45000000000005
20
-25.774999999999928
0
LWPOLYLINE
5
184
100
AcDbEntity
8
0
100
AcDbPolyline
90
8
70
1
43
0.0
10
303.03750000000014
20
-56.137499999999918
42
-0.41421356237309159
10
303.78750000000014
20
-55.387499999999925
10
316.28750000000014
20
-55.387499999999889
42
-0.41421356237309503
10
317.03750000000019
20
-56.137499999999918
10
317.03750000000019
20
-68.637499999999903
42
-0.41421356237309853
10
316.28750000000014
20
-69.387499999999932
10
303.78750000000014
20
-69.387499999999719
42
-0.41421356237309503
10
303.03750000000031
20
-68.637499999999903
0
LWPOLYLINE
5
185
100
AcDbEntity
8
0
100
AcDbPolyline
90
8
70
1
43
0.0
10
122.06250000000014
20
-75.187499999999915
42
-0.41421356237308116
10
122.81250000000007
20
-74.4375
10
135.31250000000011
20
-74.437499999999972
42
-0.41421356237310542
10
136.06250000000006
20
-75.187499999999915
10
136.06250000000014
20
-87.687499999999915
42
-0.41421356237310197
10
135.31250000000011
20
-88.437499999999929
10
122.81250000000007
20
-88.437499999999858
42
-0.41421356237310897
10
122.06250000000011
20
-87.687499999999901
0
LWPOLYLINE
5
186
100
AcDbEntity
8
0
100
AcDbPolyline
90
8
70
1
43
0.0
10
12.524999999999975
20
-13.274999999999968
42
-0.41421356237308032
10
13.275000000000006
20
-12.524999999999975
10
25.775000000000006
20
-12.524999999999981
42
-0.41421356237311063
10
26.524999999999999
20
-13.275000000000006
10
26.524999999999967
20
-25.774999999999963
42
-0.41421356237309159
10
25.775000000000006
20
-26.524999999999924
10
13.275000000000006
20
-26.524999999999892
42
-0.41421356237309764
10
12.525000000000084
20
-25.774999999999967
0
LWPOLYLINE
5
187
100
AcDbEntity
8
0
100
AcDbPolyline
90
8
70
1
43
0.0
10
245.68750000000011
20
-112.53749999999999
42
-0.41421356237309503
10
246.43750000000009
20
-113.28749999999997
10
246.43750000000011
20
-125.78749999999994
42
-0.41421356237309503
10
245.68750000000011
20
-126.53749999999995
10
245.18750000000017
20
-126.53749999999997
42
-0.41421356237310197
10
244.43750000000011
20
-125.78749999999992
10
244.43750000000017
20
-113.28749999999994
42
-0.41421356237309503
10
245.18750000000014
20
-112.53749999999994
0
LWPOLYLINE
5
188
100
AcDbEntity
8
0
100
AcDbPolyline
90
8
70
1
43
0.0
10
17.287500000000101
20
-113.28749999999997
42
-0.41421356237310375
10
18.037500000000044
20
-112.53749999999999
10
30.53750000000008
20
-112.53750000000004
42
-0.41421356237310897
10
31.287500000000037
20
-113.28749999999997
10
31.287500000000229
20
-125.78749999999994
42
-0.41421356237309337
10
30.537500000000115
20
-126.53750000000002
10
18.037500000000044
20
-126.53749999999995
42
-0.41421356237310636
10
17.287500000000016
20
-125.78749999999992
0
LWPOLYLINE
5
189
100
AcDbEntity
8
0
100
AcDbPolyline
90
8
70
1
43
0.0
10
292.06250000000006
20
-56.137499999999918
42
-0.41421356237309159
10
292.81250000000006
20
-55.387499999999925
10
293.31250000000017
20
-55.387499999999889
42
-0.41421356237309503
10
294.06250000000017
20
-56.137499999999918
10
294.06250000000017
20
-68.637499999999903
42
-0.41421356237309853
10
293.31250000000017
20
-69.387499999999932
10
292.81250000000006
20
-69.387499999999861
42
-0.41421356237309503
10
292.06250000000006
20
-68.637499999999903
0
LWPOLYLINE
5
190
100
AcDbEntity
8
0
100
AcDbPolyline
90
8
70
1
43
0.0
10
11.687500000000066
20
-56.137499999999953
42
-0.41421356237310114
10
12.437500000000057
20
-55.38749999999996
10
12.937500000000028
20
-55.387499999999932
42
-0.41421356237310458
10
13.687500000000021
20
-56.137499999999953
10
13.687500000000053
20
-68.637499999999946
42
-0.41421356237309337
10
12.937500000000028
20
-69.387499999999974
10
12.437500000000057
20
-69.387499999999974
42
-0.41421356237309337
10
11.687500000000028
20
-68.637499999999946
0
LWPOLYLINE
5
191
100
AcDbEntity
8
0
100
AcDbPolyline
90
8
70
1
43
0.0
10
103.01250000000017
20
-75.187499999999915
42
-0.41421356237310542
10
103.76250000000013
20
-74.437499999999957
10
116.26250000000006
20
-74.437499999999929
42
-0.41421356237309159
10
117.01250000000005
20
-75.187499999999915
10
117.01250000000009
20
-87.687499999999915
42
-0.41421356237306034
10
116.2625000000001
20
-88.437499999999929
10
103.76250000000013
20
-88.437499999999929
42
-0.41421356237310897
10
103.0125000000001
20
-87.687499999999901
0
LWPOLYLINE
5
192
100
AcDbEntity
8
0
100
AcDbPolyline
90
12
70
1
43
0.0
10
180.6537540262504
20
-117.20416666666664
42
-0.21342176528338416
10
179.34938103937554
20
-117.78749999999995
10
173.31875000000019
20
-117.78749999999995
42
0.99999999999999989
10
173.31875000000019
20
-121.28749999999995
10
179.34938103937554
20
-121.28749999999995
42
-0.21342176528338613
10
180.6537540262504
20
-121.87083333333327
42
0.44721359549996476
10
185.87124597374992
20
-121.87083333333325
42
-0.21342176528338416
10
187.17561896062477
20
-121.28749999999995
10
193.20625000000013
20
-121.28749999999994
42
0.99999999999999989
10
193.20625000000013
20
-117.78749999999991
10
187.17561896062477
20
-117.78749999999994
42
-0.21342176528338613
10
185.87124597374992
20
-117.20416666666662
42
0.44721359549995565
0
LWPOLYLINE
5
193
100
AcDbEntity
8
0
100
AcDbPolyline
90
12
70
1
43
0.0
10
119.87875402625025
20
-117.2041666666665
42
-0.21342176528338788
10
118.57438103937538
20
-117.78749999999982
10
112.54375000000002
20
-117.78749999999982
42
0.99999999999999989
10
112.54375000000002
20
-121.28749999999982
10
118.57438103937538
20
-121.28749999999982
42
-0.21342176528338788
10
119.87875402625025
20
-121.87083333333314
42
0.44721359549995904
10
125.09624597374979
20
-121.87083333333317
42
-0.21342176528338788
10
126.40061896062464
20
-121.28749999999982
10
132.43125000000001
20
-121.28749999999981
42
0.99999999999999989
10
132.43125000000001
20
-117.78749999999982
10
126.40061896062463
20
-117.78749999999982
42
-0.21342176528338519
10
125.09624597374977
20
-117.2041666666665
42
0.44721359549995904
0
LWPOLYLINE
5
194
100
AcDbEntity
8
0
100
AcDbPolyline
90
8
70
1
43
0.0
10
263.90000000000026
20
-112.53749999999981
10
251.40000000000026
20
-112.53749999999981
42
0.41421356237306733
10
250.65000000000026
20
-113.2874999999998
10
250.65000000000026
20
-125.7874999999998
42
0.41421356237307422
10
251.40000000000026
20
-126.5374999999998
10
263.90000000000026
20
-126.5374999999998
42
0.41421356237306733
10
264.65000000000026
20
-125.78749999999982
10
264.65000000000026
20
-113.28749999999982
42
0.41421356237307422
0
LWPOLYLINE
5
195
100
AcDbEntity
8
0
100
AcDbPolyline
90
8
70
1
43
0.0
10
158.35149999999999
20
-33.884249999999923
10
294.47500000000014
20
-33.884249999999923
42
0.41421356237308637
10
295.22500000000014
20
-33.134249999999938
10
295.22500000000014
20
-29.728249999999928
42
0.41421356237313145
10
294.47500000000014
20
-28.978249999999917
10
158.35149999999999
20
-28.978249999999925
42
0.41421356237309853
10
157.60149999999999
20
-29.728249999999925
10
157.60149999999999
20
-33.134249999999923
42
0.41421356237308293
0
LWPOLYLINE
5
196
100
AcDbEntity
8
0
100
AcDbPolyline
90
8
70
1
43
0.0
10
41.100000000000037
20
-113.28749999999984
10
41.100000000000037
20
-125.78749999999987
42
0.4142135623730846
10
41.850000000000037
20
-126.53749999999987
10
54.350000000000037
20
-126.53749999999987
42
0.41421356237307771
10
55.100000000000044
20
-125.78749999999988
10
55.100000000000044
20
-113.28749999999987
42
0.41421356237309853
10
54.350000000000037
20
-112.53749999999984
10
41.850000000000051
20
-112.53749999999985
42
0.41421356237307078
0
LWPOLYLINE
5
197
100
AcDbEntity
8
0
100
AcDbPolyline
90
8
70
1
43
0.0
10
125.41875000000007
20
-13.275000000000043
10
125.41875000000007
20
-23.774999999999864
42
0.41421356237310542
10
126.16875000000009
20
-24.524999999999871
10
131.95625000000004
20
-24.524999999999878
42
0.41421356237310542
10
132.70625000000007
20
-23.774999999999864
10
132.70625000000007
20
-13.275000000000043
42
0.4142135623730846
10
131.95625000000007
20
-12.525000000000048
10
126.16875000000007
20
-12.525000000000048
42
0.4142135623730846
0
LWPOLYLINE
5
198
100
AcDbEntity
8
0
100
AcDbPolyline
90
8
70
1
43
0.0
10
353.13750000000022
20
-33.156249999999801
42
-0.41421356237309503
10
352.3875000000001
20
-33.906249999999922
10
301.78750000000025
20
-33.906249999999908
42
-0.41421356237308815
10
301.03750000000019
20
-33.156249999999929
10
301.03750000000019
20
-29.728249999999932
42
-0.41421356237307771
10
301.78750000000019
20
-28.978249999999921
10
352.38750000000005
20
-28.978249999999864
42
-0.41421356237310025
10
353.13750000000022
20
-29.728250000000045
0
LWPOLYLINE
5
199
100
AcDbEntity
8
0
100
AcDbPolyline
90
8
70
1
43
0.0
10
305.03750000000014
20
-75.187499999999929
10
305.03750000000014
20
-87.687499999999957
42
0.41421356237308815
10
305.78750000000008
20
-88.437499999999929
10
352.38750000000005
20
-88.437499999999915
42
0.41421356237308815
10
353.13750000000016
20
-87.687499999999815
10
353.13750000000016
20
-75.187500000000014
42
0.4142135623730846
10
352.38750000000005
20
-74.437499999999929
10
305.78750000000014
20
-74.437499999999915
42
0.41421356237309853
0
LWPOLYLINE
5
200
100
AcDbEntity
8
0
100
AcDbPolyline
90
8
70
1
43
0.0
10
240.8375000000002
20
-106.73749999999993
10
240.83750000000006
20
-94.237499999999926
42
0.41421356237310197
10
240.08750000000023
20
-93.487500000000111
10
227.58750000000023
20
-93.487499999999883
42
0.41421356237310897
10
226.8375000000002
20
-94.237499999999926
10
226.83750000000006
20
-106.73749999999993
42
0.41421356237309503
10
227.58750000000023
20
-107.4875000000001
10
240.08750000000023
20
-107.48749999999988
42
0.41421356237308815
0
LWPOLYLINE
5
201
100
AcDbEntity
8
0
100
AcDbPolyline
90
8
70
1
43
0.0
10
69.38750000000006
20
-106.73749999999993
10
69.387500000000102
20
-94.237499999999926
42
0.41421356237309853
10
68.637500000000102
20
-93.487499999999969
10
56.137500000000031
20
-93.487499999999955
42
0.41421356237311241
10
55.387500000000074
20
-94.237499999999926
10
55.387500000000074
20
-106.73749999999993
42
0.41421356237309853
10
56.137500000000031
20
-107.48749999999988
10
68.637500000000102
20
-107.48749999999988
42
0.41421356237309853
0
LWPOLYLINE
5
202
100
AcDbEntity
8
0
100
AcDbPolyline
90
8
70
1
43
0.0
10
88.4375
20
-106.73749999999991
10
88.437500000000028
20
-94.237499999999912
42
0.41421356237308116
10
87.687500000000043
20
-93.487499999999969
10
75.187500000000043
20
-93.487499999999969
42
0.41421356237309853
10
74.437500000000057
20
-94.237499999999926
10
74.437500000000085
20
-106.73749999999993
42
0.41421356237309853
10
75.187500000000043
20
-107.48749999999988
10
87.687500000000043
20
-107.48749999999988
42
0.41421356237310897
0
LWPOLYLINE
5
203
100
AcDbEntity
8
0
100
AcDbPolyline
90
8
70
1
43
0.0
10
107.48750000000001
20
-106.73749999999991
10
107.48750000000004
20
-94.237499999999912
42
0.41421356237307422
10
106.73750000000005
20
-93.48749999999994
10
94.237500000000097
20
-93.487499999999969
42
0.41421356237310197
10
93.487500000000097
20
-94.237499999999926
10
93.487500000000097
20
-106.73749999999993
42
0.41421356237308116
10
94.237500000000097
20
-107.48749999999993
10
106.73750000000005
20
-107.48749999999988
42
0.41421356237310897
0
LWPOLYLINE
5
204
100
AcDbEntity
8
0
100
AcDbPolyline
90
8
70
1
43
0.0
10
126.53750000000005
20
-106.73749999999993
10
126.53750000000005
20
-94.237499999999926
42
0.41421356237310197
10
125.78750000000011
20
-93.487499999999969
10
113.28750000000007
20
-93.487499999999955
42
0.41421356237311585
10
112.53750000000011
20
-94.237499999999926
10
112.53750000000008
20
-106.73749999999993
42
0.41421356237308116
10
113.28750000000007
20
-107.48749999999993
10
125.78750000000011
20
-107.48749999999988
42
0.41421356237310197
0
LWPOLYLINE
5
205
100
AcDbEntity
8
0
100
AcDbPolyline
90
8
70
1
43
0.0
10
145.58750000000009
20
-106.73749999999993
10
145.58750000000009
20
-94.237499999999926
42
0.41421356237308116
10
144.83750000000012
20
-93.487499999999898
10
132.33750000000012
20
-93.487499999999883
42
0.41421356237311585
10
131.58750000000009
20
-94.237499999999926
10
131.58750000000003
20
-106.73749999999993
42
0.41421356237308815
10
132.33750000000012
20
-107.4875
10
144.83750000000012
20
-107.48749999999988
42
0.41421356237310197
0
LWPOLYLINE
5
206
100
AcDbEntity
8
0
100
AcDbPolyline
90
8
70
1
43
0.0
10
164.63750000000007
20
-106.73749999999993
10
164.63750000000007
20
-94.237499999999926
42
0.41421356237310197
10
163.8875000000001
20
-93.487499999999926
10
151.38750000000005
20
-93.487499999999883
42
0.41421356237311585
10
150.6375000000001
20
-94.237499999999926
10
150.6375000000001
20
-106.73749999999993
42
0.41421356237310197
10
151.38750000000005
20
-107.48749999999988
10
163.8875000000001
20
-107.48749999999988
42
0.41421356237306034
0
LWPOLYLINE
5
207
100
AcDbEntity
8
0
100
AcDbPolyline
90
8
70
1
43
0.0
10
183.68750000000009
20
-106.73749999999993
10
183.68750000000009
20
-94.237499999999926
42
0.41421356237310197
10
182.9375000000002
20
-93.487499999999926
10
170.43750000000006
20
-93.487499999999898
42
0.41421356237310197
10
169.68750000000003
20
-94.237499999999926
10
169.68750000000017
20
-106.73749999999993
42
0.41421356237309503
10
170.43750000000006
20
-107.48749999999981
10
182.93750000000014
20
-107.48749999999988
42
0.41421356237312279
0
LWPOLYLINE
5
208
100
AcDbEntity
8
0
100
AcDbPolyline
90
8
70
1
43
0.0
10
202.73750000000004
20
-106.73749999999991
10
202.73750000000018
20
-94.237499999999912
42
0.41421356237314361
10
201.98750000000001
20
-93.487499999999841
10
189.48750000000001
20
-93.487499999999898
42
0.41421356237310197
10
188.73750000000004
20
-94.237499999999926
10
188.73750000000013
20
-106.73749999999993
42
0.41421356237309503
10
189.48750000000001
20
-107.48749999999981
10
201.98750000000001
20
-107.48749999999988
42
0.41421356237312978
0
LWPOLYLINE
5
209
100
AcDbEntity
8
0
100
AcDbPolyline
90
8
70
1
43
0.0
10
221.78750000000011
20
-106.73749999999993
10
221.78750000000011
20
-94.237499999999926
42
0.41421356237310197
10
221.03750000000008
20
-93.487499999999898
10
208.53750000000002
20
-93.487499999999883
42
0.41421356237310897
10
207.78750000000014
20
-94.237499999999926
10
207.78750000000005
20
-106.73749999999993
42
0.41421356237308815
10
208.53750000000002
20
-107.48749999999988
10
221.03750000000008
20
-107.48749999999988
42
0.41421356237308815
0
LWPOLYLINE
5
210
100
AcDbEntity
8
0
100
AcDbPolyline
90
8
70
1
43
0.0
10
241.12500000000009
20
-37.087499999999949
10
241.12500000000014
20
-49.587499999999984
42
0.41421356237309503
10
241.87500000000011
20
-50.337499999999878
10
254.37500000000017
20
-50.337499999999977
42
0.41421356237310197
10
255.1250000000002
20
-49.587499999999942
10
255.1250000000002
20
-37.087499999999935
42
0.41421356237309853
10
254.37500000000017
20
-36.337499999999913
10
241.87500000000011
20
-36.337499999999906
42
0.41421356237310375
0
LWPOLYLINE
5
211
100
AcDbEntity
8
0
100
AcDbPolyline
90
8
70
1
43
0.0
10
222.07500000000022
20
-37.087499999999942
10
222.07500000000022
20
-49.587499999999977
42
0.41421356237308815
10
222.8250000000001
20
-50.337499999999913
10
235.32500000000016
20
-50.337499999999977
42
0.4142135623730569
10
236.07500000000002
20
-49.587499999999942
10
236.07500000000005
20
-37.087499999999935
42
0.41421356237309853
10
235.32500000000002
20
-36.337499999999949
10
222.8250000000001
20
-36.337499999999906
42
0.41421356237310025
0
LWPOLYLINE
5
212
100
AcDbEntity
8
0
100
AcDbPolyline
90
8
70
1
43
0.0
10
217.02500000000003
20
-49.587499999999942
10
217.02500000000018
20
-37.087499999999935
42
0.41421356237304474
10
216.27500000000009
20
-36.337499999999771
10
203.77500000000015
20
-36.337499999999942
42
0.41421356237309337
10
203.02500000000012
20
-37.087499999999949
10
203.02500000000012
20
-49.587499999999984
42
0.41421356237309853
10
203.77500000000015
20
-50.337499999999991
10
216.27500000000009
20
-50.337499999999977
42
0.41421356237308116
0
LWPOLYLINE
5
213
100
AcDbEntity
8
0
100
AcDbPolyline
90
18
70
1
43
0.0
10
292.10172505325431
20
-50.817926882887328
42
-0.26322537718799877
10
292.64522505325436
20
-50.317926882887349
42
0.34863535271254681
10
293.22500000000014
20
-49.587499999999935
10
293.22500000000014
20
-37.087499999999906
42
0.41421356237309503
10
292.47500000000014
20
-36.337499999999935
10
260.92500000000018
20
-36.337499999999906
42
0.41421356237309853
10
260.17500000000018
20
-37.08749999999992
10
260.17500000000018
20
-49.587499999999935
42
0.348635352712512
10
260.7547749467459
20
-50.317926882887313
42
-0.263225377187919
10
261.29827494674578
20
-50.817926882887235
42
0.32543725052828154
10
262.01200000000023
20
-51.337499999999913
10
267.51200000000017
20
-51.337499999999906
42
0.3178372451957765
10
268.21910678118667
20
-50.837499999999942
42
-0.31783724519577777
10
268.92621356237322
20
-50.337499999999935
10
284.4737864376271
20
-50.337499999999963
42
-0.31783724519577161
10
285.18089321881359
20
-50.837499999999942
42
0.31783724519577955
10
285.88800000000015
20
-51.337499999999913
10
291.38800000000009
20
-51.337499999999906
42
0.32543725052828948
0
LWPOLYLINE
5
214
100
AcDbEntity
8
0
100
AcDbPolyline
90
8
70
1
43
0.0
10
213.40000000000015
20
-126.78749999999997
10
213.40000000000015
20
-112.28750000000005
42
0.41421356237309503
10
212.65000000000012
20
-111.53750000000001
10
207.4000000000002
20
-111.53750000000001
42
0.41421356237308815
10
206.65000000000018
20
-112.28750000000002
10
206.65000000000018
20
-126.78749999999995
42
0.41421356237308815
10
207.40000000000012
20
-127.53749999999994
10
212.65000000000012
20
-127.53749999999991
42
0.41421356237308116
0
LWPOLYLINE
5
215
100
AcDbEntity
8
0
100
AcDbPolyline
90
8
70
1
43
0.0
10
99.099999999999994
20
-126.78749999999997
10
99.100000000000037
20
-112.28750000000002
42
0.41421356237309503
10
98.350000000000051
20
-111.53750000000001
10
93.100000000000094
20
-111.53750000000001
42
0.41421356237308815
10
92.350000000000065
20
-112.28750000000002
10
92.350000000000065
20
-126.78749999999995
42
0.41421356237311585
10
93.100000000000094
20
-127.53750000000005
10
98.350000000000051
20
-127.53749999999991
42
0.41421356237309503
0
LWPOLYLINE
5
216
100
AcDbEntity
8
0
100
AcDbPolyline
90
19
70
1
43
0.0
10
46.826356781186618
20
-107.98749999999991
42
-0.3178372451957826
10
47.533463562373164
20
-107.48749999999988
10
49.587500000000013
20
-107.4874999999999
42
0.41421356237310197
10
50.337500000000013
20
-106.7374999999999
10
50.33750000000002
20
-94.237499999999983
42
0.41421356237309503
10
49.58750000000002
20
-93.48749999999994
10
15.656250000000007
20
-93.487499999999969
42
0.41421356237309936
10
14.906250000000014
20
-94.237499999999983
10
14.906250000000016
20
-106.7374999999999
42
0.34863535271251789
10
15.486024946745756
20
-107.46792688288723
42
-0.26322537718797695
10
16.029524946745767
20
-107.96792688288727
42
0.32543725052831046
10
16.743250000000032
20
-108.48749999999997
10
22.24325000000011
20
-108.4874999999999
42
0.31783724519579998
10
22.950356781186652
20
-107.9874999999999
42
-0.31783724519577689
10
23.657463562373184
20
-107.4874999999999
10
39.205036437626944
20
-107.48749999999987
42
-0.31783724519579748
10
39.912143218813497
20
-107.98749999999987
42
0.31783724519577505
10
40.619250000000093
20
-108.48749999999997
10
46.1192500000001
20
-108.4874999999999
42
0.31783724519578987
0
LWPOLYLINE
5
217
100
AcDbEntity
8
0
100
AcDbPolyline
90
8
70
1
43
0.0
10
249.43125000000012
20
-106.73749999999991
10
249.43125000000012
20
-94.237499999999926
42
0.41421356237309503
10
248.68125000000015
20
-93.487499999999955
10
248.18125000000009
20
-93.487499999999955
42
0.41421356237309503
10
247.43125000000009
20
-94.237499999999955
10
247.43125000000009
20
-106.73749999999995
42
0.41421356237308815
10
248.18125000000009
20
-107.48749999999994
10
248.68125000000015
20
-107.4874999999999
42
0.41421356237309503
0
LWPOLYLINE
5
218
100
AcDbEntity
8
0
100
AcDbPolyline
90
13
70
1
43
0.0
10
279.2658393614027
20
-93.993386934671236
42
-0.28590312597443879
10
278.65046436140273
20
-94.493386934671207
42
0.37795078909469998
10
277.99424999999997
20
-95.237500000000011
10
277.99424999999997
20
-107.73749999999966
42
0.41421356237309503
10
278.74425000000025
20
-108.4874999999999
10
284.24425000000014
20
-108.4874999999999
42
0.31783724519579426
10
284.95135678118652
20
-107.98749999999993
42
-0.3178372451958062
10
285.65846356237313
20
-107.48749999999994
10
292.47500000000008
20
-107.48749999999993
42
0.41421356237309503
10
293.22500000000008
20
-106.73749999999993
10
293.22500000000008
20
-94.237499999999926
42
0.41421356237309503
10
292.47500000000008
20
-93.487499999999926
10
279.97500000000008
20
-93.487499999999955
42
0.32012702893263656
0
ENDSEC
0
SECTION
2
OBJECTS
0
DICTIONARY
5
C
100
AcDbDictionary
3
ACAD_GROUP
350
D
3
ACAD_MLINESTYLE
350
17
0
DICTIONARY
5
D
100
AcDbDictionary
0
DICTIONARY
5
1A
330
C
100
AcDbDictionary
0
DICTIONARY
5
17
100
AcDbDictionary
0
ENDSEC
0
EOF
