0
SECTION
2
HEADER
9
$INSUNITS
70
4
9
$ACADVER
1
AC1014
9
$HANDSEED
5
FFFF
0
ENDSEC
0
SECTION
2
TABLES
0
TABLE
2
VPORT
5
8
100
AcDbSymbolTable
0
ENDTAB
0
TABLE
2
LTYPE
5
5
100
AcDbSymbolTable
0
LTYPE
5
14
100
AcDbSymbolTableRecord
100
AcDbLinetypeTableRecord
2
BYBLOCK
70
0
0
LTYPE
5
15
100
AcDbSymbolTableRecord
100
AcDbLinetypeTableRecord
2
BYLAYER
70
0
0
ENDTAB
0
TABLE
2
LAYER
5
2
100
AcDbSymbolTable
70
2
0
LAYER
5
50
100
AcDbSymbolTableRecord
100
AcDbLayerTableRecord
2
0
70
0
6
CONTINUOUS
0
ENDTAB
0
TABLE
2
STYLE
5
3
100
AcDbSymbolTable
70
1
0
STYLE
5
11
100
AcDbSymbolTableRecord
100
AcDbTextStyleTableRecord
2
STANDARD
70
0
0
ENDTAB
0
TABLE
2
VIEW
5
6
100
AcDbSymbolTable
70
0
0
ENDTAB
0
TABLE
2
UCS
5
7
100
AcDbSymbolTable
70
0
0
ENDTAB
0
TABLE
2
APPID
5
9
100
AcDbSymbolTable
70
2
0
APPID
5
12
100
AcDbSymbolTableRecord
100
AcDbRegAppTableRecord
2
ACAD
70
0
0
ENDTAB
0
TABLE
2
DIMSTYLE
5
A
100
AcDbSymbolTable
70
1
0
ENDTAB
0
TABLE
2
BLOCK_RECORD
5
1
100
AcDbSymbolTable
70
1
0
BLOCK_RECORD
5
1F
100
AcDbSymbolTableRecord
100
AcDbBlockTableRecord
2
*MODEL_SPACE
0
BLOCK_RECORD
5
1B
100
AcDbSymbolTableRecord
100
AcDbBlockTableRecord
2
*PAPER_SPACE
0
ENDTAB
0
ENDSEC
0
SECTION
2
BLOCKS
0
BLOCK
5
20
100
AcDbEntity
100
AcDbBlockBegin
2
*MODEL_SPACE
0
ENDBLK
5
21
100
AcDbEntity
100
AcDbBlockEnd
0
BLOCK
5
1C
100
AcDbEntity
100
AcDbBlockBegin
2
*PAPER_SPACE
0
ENDBLK
5
1D
100
AcDbEntity
100
AcDbBlockEnd
0
ENDSEC
0
SECTION
2
ENTITIES
0
LWPOLYLINE
5
100
100
AcDbEntity
8
0
100
AcDbPolyline
90
24
70
1
43
0.0
10
36.312500000000043
20
63.432303059326586
42
-0.41421356237309503
10
36.812500000000043
20
62.932303059326593
10
36.812500000000043
20
44.882303059326546
42
0.41421356237309503
10
37.312500000000043
20
44.382303059326553
10
45.837500000000077
20
44.382303059326517
42
-0.41421356237311585
10
46.337500000000055
20
43.882303059326517
10
46.337500000000048
20
25.832300422676564
42
0.41421201785610295
10
46.837497363343168
20
25.332300422683506
10
236.33749736334329
20
25.331301129719527
42
0.41421510689178953
10
236.8375000000002
20
25.831301129712571
10
236.83750000000026
20
43.881298493048746
42
-0.41421356237307422
10
237.33750000000026
20
44.381298493048732
10
245.8625000000003
20
44.381298493048796
42
0.41421356237309503
10
246.3625000000003
20
44.881298493048796
10
246.3625000000003
20
62.931333647238212
42
-0.41419296895173319
10
246.86246484457507
20
63.431333646002301
10
260.15003515542543
20
63.432267906373134
42
0.41419296895172797
10
260.6500000000002
20
63.932267905137238
10
260.6500000000002
20
81.982303059326696
42
0.41421356237306384
10
260.15000000000026
20
82.482303059326682
10
32.550000000000026
20
82.482303059326654
42
0.41421356237310542
10
32.050000000000026
20
81.982303059326625
10
32.050000000000026
20
63.932303059326578
42
0.41421356237309764
10
32.550000000000033
20
63.432303059326578
0
LINE
5
101
100
AcDbEntity
8
0
100
AcDbLine
10
289.60000000000008
20
103.90730305932661
30
0
11
3.0999999999999517
21
103.90730305932652
31
0
0
ARC
5
102
100
AcDbEntity
8
0
100
AcDbCircle
10
3.0999999999999686
20
101.90730305932654
30
-1.3866695599588098e-31
40
1.9999999999999929
100
AcDbArc
50
90.000000000000497
51
180
0
LINE
5
103
100
AcDbEntity
8
0
100
AcDbLine
10
1.0999999999999754
20
101.90730305932654
30
1.2131179173445724e-30
11
1.0999999999999992
21
5.9053058446240847
31
-1.1102230246251565e-15
0
ELLIPSE
5
104
100
AcDbEntity
8
0
100
AcDbEllipse
10
3.1000000000000001
20
5.9053058446240918
30
0
11
4.2619219264850265e-09
21
-2.0000000814057737
31
0.0
40
0.99999995929711583
41
4.712388978253732
42
6.2831853050486259
0
LINE
5
105
100
AcDbEntity
8
0
100
AcDbLine
10
3.100000000000001
20
3.9053057632183172
30
0
11
289.60000000000008
21
3.9053057632183892
31
2.2204460492503131e-15
0
ELLIPSE
5
106
100
AcDbEntity
8
0
100
AcDbEllipse
10
289.60000000000008
20
5.9053058446241655
30
0
11
-4.2619047180280993e-09
21
-2.0000000814057737
31
0.0
40
0.9999999592971156
41
2.130917664544538e-09
42
1.5707963289258471
0
LINE
5
107
100
AcDbEntity
8
0
100
AcDbLine
10
291.60000000000008
20
5.9053058446241611
30
0
11
291.60000000000008
21
101.90730305932661
31
1.1102230246251565e-15
0
ARC
5
108
100
AcDbEntity
8
0
100
AcDbCircle
10
289.60000000000002
20
101.90730305932664
30
-2.2204460492503131e-15
40
2.0000000000000284
100
AcDbArc
50
0
51
89.99999999999838
0
LINE
5
109
100
AcDbEntity
8
0
100
AcDbLine
10
271.73125000000022
20
41.855293926770891
30
4.4408920985006262e-15
11
286.4000000000002
21
41.855293926770891
31
4.4408920985006262e-15
0
ARC
5
110
100
AcDbEntity
8
0
100
AcDbCircle
10
286.40000000000015
20
41.555293926770915
30
0
40
0.30000000000001137
100
AcDbArc
50
0
51
89.999999999989143
0
LINE
5
111
100
AcDbEntity
8
0
100
AcDbLine
10
286.70000000000016
20
41.555293926770915
30
2.4804492734741513e-30
11
286.70000000000016
21
28.155293926770888
31
0
0
ARC
5
112
100
AcDbEntity
8
0
100
AcDbCircle
10
286.40000000000015
20
28.155293926770888
30
0
40
0.30000000000000249
100
AcDbArc
50
-90
51
0
0
LINE
5
113
100
AcDbEntity
8
0
100
AcDbLine
10
286.40000000000015
20
27.855293926770884
30
-4.1633363423443423e-18
11
278.73125000000016
21
27.855293926770891
31
-2.2204460492503131e-15
0
ARC
5
114
100
AcDbEntity
8
0
100
AcDbCircle
10
278.7312500000001
20
27.555293926770869
30
1.9224063307456084e-43
40
0.30000000000002025
100
AcDbArc
50
89.999999999989143
51
180
0
LINE
5
115
100
AcDbEntity
8
0
100
AcDbLine
10
278.43125000000009
20
27.555293926770883
30
-3.0765575303619894e-30
11
278.43125000000009
21
26.656298493048702
31
-2.203098814490545e-15
0
ARC
5
116
100
AcDbEntity
8
0
100
AcDbCircle
10
278.13125000000008
20
26.656298493048705
30
0
40
0.30000000000000249
100
AcDbArc
50
270
51
360
0
LINE
5
117
100
AcDbEntity
8
0
100
AcDbLine
10
278.13125000000008
20
26.356298493048701
30
-8.326672684688683e-18
11
271.73125000000016
21
26.356298493048705
31
0
0
ARC
5
118
100
AcDbEntity
8
0
100
AcDbCircle
10
271.73125000000016
20
26.656298493048705
30
0
40
0.30000000000001137
100
AcDbArc
50
180
51
270
0
LINE
5
119
100
AcDbEntity
8
0
100
AcDbLine
10
271.43125000000015
20
26.656298493048702
30
2.8990638266872189e-30
11
271.43125000000015
21
41.555298493048724
31
-2.2204460492503131e-15
0
ARC
5
120
100
AcDbEntity
8
0
100
AcDbCircle
10
271.73125000000016
20
41.55529849304871
30
-4.4408920985006262e-15
40
0.30000000000000249
100
AcDbArc
50
90
51
180
0
LWPOLYLINE
5
121
100
AcDbEntity
8
0
100
AcDbPolyline
90
8
70
1
43
0.0
10
282.44375000000025
20
60.406298493048723
10
276.94375000000019
20
60.406298493048723
42
0.41421356237308982
10
276.44375000000019
20
59.906298493048752
10
276.44375000000019
20
45.906298493048716
42
0.41421356237315227
10
276.94375000000025
20
45.406298493048716
10
282.44375000000025
20
45.406298493048709
42
0.41421356237313145
10
282.94375000000025
20
45.906298493048709
10
282.94375000000025
20
59.906298493048752
42
0.41421356237311063
0
LWPOLYLINE
5
122
100
AcDbEntity
8
0
100
AcDbPolyline
90
24
70
1
43
0.0
10
43.512500000000045
20
41.857303059326497
10
8.6812500000000234
20
41.857303059326476
42
0.41421356237308637
10
8.3812500000000227
20
41.557303059326486
10
8.3812500000000298
20
28.157303059326448
42
0.41421356237309176
10
8.6812500000000306
20
27.857303059326448
10
9.2062500000000256
20
27.857303059326455
42
-0.41421356237309503
10
9.5062500000000263
20
27.557303059326451
10
9.5062500000000245
20
26.657303059326448
42
0.41421356237309503
10
9.8062500000000252
20
26.357303059326451
10
16.206250000000033
20
26.357303059326448
42
0.41421356237309076
10
16.50625000000003
20
26.657303059326445
10
16.506250000000037
20
27.557303059326447
42
-0.41421356237309936
10
16.806250000000031
20
27.857303059326448
10
33.006250000000044
20
27.857303059326458
42
-0.41421356237309936
10
33.306250000000041
20
27.557303059326458
10
33.306250000000041
20
26.657303059326452
42
0.41421356237309503
10
33.606250000000038
20
26.357303059326455
10
40.006250000000051
20
26.357303059326455
42
0.41421356237308637
10
40.306250000000048
20
26.657303059326448
10
40.306250000000041
20
27.557303059326458
42
-0.41421356237309936
10
40.606250000000045
20
27.857303059326462
10
43.512500000000038
20
27.857303059326462
42
0.41421356237307771
10
43.812500000000043
20
28.157303059326448
10
43.81250000000005
20
41.557303059326493
42
0.41421356237309503
0
LWPOLYLINE
5
123
100
AcDbEntity
8
0
100
AcDbPolyline
90
8
70
1
43
0.0
10
92.850000000000023
20
9.6062984930486355
10
92.850000000000023
20
24.006298493048661
42
0.41421356237309503
10
92.550000000000026
20
24.306298493048644
10
86.15000000000002
20
24.306298493048658
42
0.41421356237309936
10
85.850000000000023
20
24.00629849304865
10
85.850000000000023
20
9.6062984930486213
42
0.41421356237308748
10
86.15000000000002
20
9.3062984930486099
10
92.550000000000026
20
9.3062984930486294
42
0.41421356237309936
0
LWPOLYLINE
5
124
100
AcDbEntity
8
0
100
AcDbPolyline
90
8
70
1
43
0.0
10
199.85000000000008
20
24.006298493048686
10
199.85000000000008
20
9.6062984930486621
42
0.41421356237309725
10
200.15000000000012
20
9.3062984930486436
10
206.55000000000004
20
9.3062984930486579
42
0.41421356237309503
10
206.85000000000005
20
9.6062984930486568
10
206.85000000000005
20
24.006298493048686
42
0.41421356237309503
10
206.55000000000004
20
24.306298493048672
10
200.15000000000012
20
24.306298493048683
42
0.41421356237309076
0
LWPOLYLINE
5
125
100
AcDbEntity
8
0
100
AcDbPolyline
90
8
70
1
43
0.0
10
274.29375000000016
20
60.906298493048737
10
261.29375000000022
20
60.906298493048737
42
0.41421356237313667
10
260.79375000000022
20
60.406298493048745
10
260.79375000000016
20
47.40629849304873
42
0.41421356237311585
10
261.29375000000022
20
46.906298493048723
10
274.29375000000016
20
46.906298493048752
42
0.41421356237313145
10
274.79375000000022
20
47.406298493048766
10
274.79375000000016
20
60.40629849304878
42
0.41421356237312101
0
LWPOLYLINE
5
126
100
AcDbEntity
8
0
100
AcDbPolyline
90
10
70
1
43
0.0
10
281.93750000000017
20
66.456298493048777
10
281.93750000000017
20
79.657303059326608
42
0.41421356237313839
10
281.6375000000001
20
79.957303059326605
10
268.23750000000013
20
79.95730305932662
42
0.41421356237311241
10
267.93750000000011
20
79.657303059326594
10
267.93750000000011
20
66.25730305932656
42
0.41421356237309503
10
268.23750000000013
20
65.957303059326577
10
270.01875000000013
20
65.957303059326591
42
-0.020467536491005776
10
270.04328019798714
20
65.956298493048763
10
281.43750000000017
20
65.956298493048777
42
0.41421356237312101
0
LWPOLYLINE
5
127
100
AcDbEntity
8
0
100
AcDbPolyline
90
8
70
1
43
0.0
10
192.10000000000005
20
11.343798493048677
10
192.10000000000005
20
20.268798493048692
42
0.41421356237309076
10
191.80000000000001
20
20.568798493048671
10
161.40000000000003
20
20.568798493048689
42
0.41421356237309076
10
161.10000000000002
20
20.268798493048692
10
161.10000000000008
20
11.343798493048659
42
0.41421356237309503
10
161.40000000000009
20
11.043798493048648
10
191.80000000000004
20
11.043798493048669
42
0.41421356237310375
0
LWPOLYLINE
5
128
100
AcDbEntity
8
0
100
AcDbPolyline
90
8
70
1
43
0.0
10
100.90000000000003
20
11.043798493048628
10
131.30000000000004
20
11.043798493048637
42
0.41421356237309936
10
131.60000000000002
20
11.343798493048659
10
131.60000000000002
20
20.268798493048671
42
0.41421356237307339
10
131.30000000000007
20
20.568798493048664
10
100.90000000000005
20
20.568798493048661
42
0.41421356237308637
10
100.60000000000005
20
20.268798493048664
10
100.60000000000005
20
11.343798493048645
42
0.41421356237307549
0
LWPOLYLINE
5
129
100
AcDbEntity
8
0
100
AcDbPolyline
90
8
70
1
43
0.0
10
24.762500000000035
20
9.1073030593264157
10
24.762500000000031
20
22.507303059326453
42
0.41421356237309503
10
24.462500000000031
20
22.807303059326447
10
11.06250000000002
20
22.807303059326458
42
0.41421356237309503
10
10.762500000000019
20
22.507303059326453
10
10.762500000000026
20
9.1073030593264299
42
0.41421356237309825
10
11.062500000000021
20
8.8073030593264061
10
24.462500000000031
20
8.8073030593264239
42
0.41421356237308637
0
LWPOLYLINE
5
130
100
AcDbEntity
8
0
100
AcDbPolyline
90
8
70
1
43
0.0
10
234.31250000000009
20
9.1062984930486746
10
234.31250000000009
20
22.506298493048689
42
0.41421356237309503
10
234.01250000000007
20
22.80629849304869
10
220.61250000000013
20
22.80629849304869
42
0.41421356237309076
10
220.31250000000011
20
22.506298493048689
10
220.31250000000011
20
9.1062984930486621
42
0.41421356237308965
10
220.61250000000013
20
8.8062984930486525
10
234.01250000000007
20
8.8062984930486703
42
0.41421356237309936
0
LWPOLYLINE
5
131
100
AcDbEntity
8
0
100
AcDbPolyline
90
8
70
1
43
0.0
10
191.45000000000005
20
85.307303059326614
10
191.45000000000005
20
98.707303059326591
42
0.41421356237309503
10
191.15000000000003
20
99.007303059326603
10
177.75000000000006
20
99.007303059326603
42
0.41421356237309503
10
177.45000000000005
20
98.707303059326605
10
177.45000000000005
20
85.307303059326614
42
0.41421356237311241
10
177.75000000000006
20
85.00730305932656
10
191.15000000000003
20
85.007303059326603
42
0.41421356237311241
0
LWPOLYLINE
5
132
100
AcDbEntity
8
0
100
AcDbPolyline
90
8
70
1
43
0.0
10
39.050000000000018
20
85.307303059326586
10
39.050000000000018
20
98.707303059326534
42
0.41421356237311241
10
38.750000000000014
20
99.007303059326532
10
25.350000000000005
20
99.007303059326546
42
0.41421356237311241
10
25.050000000000008
20
98.707303059326534
10
25.050000000000011
20
85.307303059326557
42
0.41421356237311241
10
25.350000000000009
20
85.00730305932656
10
38.750000000000021
20
85.007303059326574
42
0.41421356237311241
0
LWPOLYLINE
5
133
100
AcDbEntity
8
0
100
AcDbPolyline
90
8
70
1
43
0.0
10
58.10000000000003
20
85.307303059326586
10
58.10000000000003
20
98.707303059326534
42
0.41421356237311241
10
57.800000000000026
20
99.007303059326546
10
44.40000000000002
20
99.00730305932656
42
0.41421356237312978
10
44.100000000000023
20
98.707303059326534
10
44.100000000000023
20
85.307303059326571
42
0.41421356237311241
10
44.40000000000002
20
85.00730305932656
10
57.800000000000026
20
85.007303059326574
42
0.41421356237311241
0
LWPOLYLINE
5
134
100
AcDbEntity
8
0
100
AcDbPolyline
90
8
70
1
43
0.0
10
24.76250000000001
20
66.257303059326503
10
24.762500000000006
20
79.657303059326537
42
0.41421356237309503
10
24.462500000000009
20
79.957303059326534
10
11.062500000000009
20
79.95730305932652
42
0.41421356237309503
10
10.762500000000008
20
79.657303059326523
10
10.762500000000015
20
66.257303059326489
42
0.41421356237310153
10
11.062500000000012
20
65.957303059326506
10
24.462500000000013
20
65.957303059326492
42
0.41421356237310375
0
LWPOLYLINE
5
135
100
AcDbEntity
8
0
100
AcDbPolyline
90
8
70
1
43
0.0
10
134.30000000000001
20
85.307303059326614
10
134.30000000000001
20
98.707303059326549
42
0.41421356237311241
10
134
20
99.00730305932656
10
120.60000000000002
20
99.007303059326574
42
0.41421356237311241
10
120.30000000000004
20
98.707303059326563
10
120.30000000000007
20
85.307303059326586
42
0.41421356237311241
10
120.60000000000005
20
85.007303059326574
10
134.00000000000003
20
85.007303059326603
42
0.41421356237311241
0
LWPOLYLINE
5
136
100
AcDbEntity
8
0
100
AcDbPolyline
90
8
70
1
43
0.0
10
172.40000000000003
20
85.307303059326614
10
172.40000000000003
20
98.707303059326591
42
0.41421356237309503
10
172.10000000000002
20
99.00730305932656
10
158.70000000000002
20
99.00730305932656
42
0.41421356237309503
10
158.40000000000006
20
98.707303059326563
10
158.40000000000006
20
85.307303059326586
42
0.41421356237309503
10
158.70000000000005
20
85.007303059326574
10
172.10000000000002
20
85.007303059326603
42
0.41421356237311241
0
LWPOLYLINE
5
137
100
AcDbEntity
8
0
100
AcDbPolyline
90
8
70
1
43
0.0
10
210.50000000000009
20
85.307303059326614
10
210.50000000000009
20
98.707303059326591
42
0.41421356237312978
10
210.20000000000005
20
99.007303059326574
10
196.80000000000007
20
99.007303059326574
42
0.41421356237311241
10
196.50000000000006
20
98.707303059326563
10
196.50000000000006
20
85.307303059326614
42
0.41421356237314705
10
196.8000000000001
20
85.007303059326574
10
210.20000000000007
20
85.007303059326603
42
0.41421356237311241
0
LWPOLYLINE
5
138
100
AcDbEntity
8
0
100
AcDbPolyline
90
8
70
1
43
0.0
10
72.387500000000031
20
9.1073030593264228
10
72.387500000000031
20
22.50730305932646
42
0.41421356237309503
10
72.087500000000034
20
22.807303059326451
10
58.687500000000021
20
22.807303059326465
42
0.41421356237309503
10
58.387500000000031
20
22.50730305932646
10
58.387500000000031
20
9.1073030593264406
42
0.41421356237310153
10
58.687500000000028
20
8.8073030593264168
10
72.087500000000034
20
8.8073030593264399
42
0.41421356237307988
0
LWPOLYLINE
5
139
100
AcDbEntity
8
0
100
AcDbPolyline
90
8
70
1
43
0.0
10
281.93750000000017
20
9.1052939267708624
10
281.93750000000017
20
22.505293926770896
42
0.4142135623731254
10
281.6375000000001
20
22.805293926770883
10
268.23750000000013
20
22.805293926770894
42
0.41421356237309503
10
267.93750000000011
20
22.505293926770893
10
267.93750000000011
20
9.1052939267708659
42
0.414213562373133
10
268.23750000000018
20
8.8052939267708439
10
281.63750000000016
20
8.8052939267708652
42
0.41421356237309287
0
LWPOLYLINE
5
140
100
AcDbEntity
8
0
100
AcDbPolyline
90
8
70
1
43
0.0
10
248.60000000000011
20
85.307303059326614
10
248.60000000000011
20
98.707303059326591
42
0.41421356237311241
10
248.3000000000001
20
99.007303059326603
10
234.90000000000012
20
99.007303059326603
42
0.41421356237312978
10
234.60000000000011
20
98.707303059326563
10
234.60000000000011
20
85.307303059326614
42
0.41421356237311241
10
234.90000000000012
20
85.007303059326574
10
248.3000000000001
20
85.007303059326603
42
0.41421356237311241
0
LWPOLYLINE
5
141
100
AcDbEntity
8
0
100
AcDbPolyline
90
8
70
1
43
0.0
10
115.25000000000004
20
85.307303059326614
10
115.25000000000004
20
98.707303059326549
42
0.41421356237311241
10
114.95000000000003
20
99.00730305932656
10
101.55000000000004
20
99.007303059326574
42
0.41421356237311241
10
101.25000000000007
20
98.707303059326563
10
101.25000000000009
20
85.307303059326586
42
0.41421356237311241
10
101.55000000000008
20
85.007303059326574
10
114.95000000000006
20
85.007303059326603
42
0.41421356237311241
0
LWPOLYLINE
5
142
100
AcDbEntity
8
0
100
AcDbPolyline
90
8
70
1
43
0.0
10
6.0000000000000018
20
98.707303059326534
10
6.0000000000000053
20
85.3073030593265
42
0.41421356237314055
10
6.300000000000006
20
85.007303059326503
10
19.700000000000017
20
85.007303059326503
42
0.41421356237318607
10
20.000000000000014
20
85.307303059326557
10
20.000000000000004
20
98.707303059326563
42
0.41421356237308637
10
19.700000000000003
20
99.007303059326546
10
6.3000000000000131
20
99.007303059326546
42
0.41421356237319479
0
LWPOLYLINE
5
143
100
AcDbEntity
8
0
100
AcDbPolyline
90
8
70
1
43
0.0
10
77.150000000000034
20
85.307303059326586
10
77.150000000000034
20
98.707303059326534
42
0.41421356237309503
10
76.850000000000037
20
99.007303059326546
10
63.450000000000024
20
99.007303059326532
42
0.41421356237311241
10
63.15000000000002
20
98.70730305932652
10
63.15000000000002
20
85.307303059326571
42
0.41421356237311241
10
63.450000000000024
20
85.00730305932656
10
76.850000000000037
20
85.007303059326574
42
0.41421356237311241
0
LWPOLYLINE
5
144
100
AcDbEntity
8
0
100
AcDbPolyline
90
8
70
1
43
0.0
10
8.3812500000000174
20
60.607303059326497
10
8.381250000000021
20
47.207303059326478
42
0.41421356237309176
10
8.6812500000000252
20
46.90730305932648
10
26.843750000000028
20
46.907303059326495
42
0.41421356237310802
10
27.143750000000022
20
47.207303059326492
10
27.143750000000022
20
60.607303059326512
42
0.41421356237309503
10
26.843750000000025
20
60.907303059326523
10
8.6812500000000234
20
60.907303059326495
42
0.41421356237308099
0
LWPOLYLINE
5
145
100
AcDbEntity
8
0
100
AcDbPolyline
90
8
70
1
43
0.0
10
96.200000000000017
20
85.307303059326571
10
96.200000000000017
20
98.707303059326534
42
0.41421356237309503
10
95.900000000000006
20
99.007303059326546
10
82.500000000000014
20
99.007303059326546
42
0.41421356237311241
10
82.200000000000045
20
98.707303059326534
10
82.20000000000006
20
85.307303059326571
42
0.41421356237311241
10
82.500000000000057
20
85.007303059326546
10
95.900000000000034
20
85.00730305932656
42
0.41421356237311241
0
LWPOLYLINE
5
146
100
AcDbEntity
8
0
100
AcDbPolyline
90
8
70
1
43
0.0
10
153.35000000000005
20
85.307303059326614
10
153.35000000000005
20
98.707303059326549
42
0.41421356237312978
10
153.05000000000001
20
99.00730305932656
10
139.65000000000003
20
99.007303059326574
42
0.41421356237311241
10
139.35000000000005
20
98.707303059326563
10
139.35000000000008
20
85.307303059326586
42
0.41421356237312978
10
139.65000000000009
20
85.007303059326574
10
153.05000000000007
20
85.007303059326603
42
0.41421356237311241
0
LWPOLYLINE
5
147
100
AcDbEntity
8
0
100
AcDbPolyline
90
8
70
1
43
0.0
10
229.5500000000001
20
85.307303059326614
10
229.5500000000001
20
98.707303059326605
42
0.41421356237309503
10
229.25000000000009
20
99.007303059326574
10
215.85000000000011
20
99.007303059326603
42
0.41421356237312978
10
215.5500000000001
20
98.707303059326563
10
215.5500000000001
20
85.307303059326586
42
0.41421356237311241
10
215.85000000000011
20
85.007303059326603
10
229.25000000000009
20
85.007303059326617
42
0.41421356237309503
0
LWPOLYLINE
5
148
100
AcDbEntity
8
0
100
AcDbPolyline
90
8
70
1
43
0.0
10
153.35000000000005
20
9.1062984930486515
10
153.35000000000005
20
22.506298493048668
42
0.41421356237310802
10
153.05000000000001
20
22.806298493048665
10
139.65000000000003
20
22.806298493048661
42
0.41421356237309076
10
139.35000000000005
20
22.506298493048664
10
139.35000000000005
20
9.1062984930486479
42
0.41421356237311352
10
139.65000000000006
20
8.8062984930486472
10
153.05000000000004
20
8.806298493048649
42
0.41421356237309825
0
CIRCLE
5
149
100
AcDbEntity
8
0
100
AcDbCircle
10
2.6857864376268719
20
102.32151662169966
30
2.2204460492503131e-15
40
1.0499999999999985
0
CIRCLE
5
150
100
AcDbEntity
8
0
100
AcDbCircle
10
290.01421356237336
20
102.32151662169974
30
0
40
0.9999999999999799
0
CIRCLE
5
151
100
AcDbEntity
8
0
100
AcDbCircle
10
2.6857864376268785
20
5.4906642253939459
30
0
40
1.0000000000000016
0
CIRCLE
5
152
100
AcDbEntity
8
0
100
AcDbCircle
10
290.01421356237319
20
5.4906642253939921
30
0
40
1.0000000000000155
0
LWPOLYLINE
5
153
100
AcDbEntity
8
0
100
AcDbPolyline
90
6
70
1
43
0.0
10
30.020616666626903
20
65.957303054326545
10
30.020716666626406
20
65.957303064326538
42
0.41418427337804936
10
30.520666666666681
20
66.457303061826536
10
30.520666666666681
20
79.457303059326549
42
0.99999999999999989
10
29.520666666666678
20
79.457303059326549
10
29.520666666666678
20
66.457303051826528
42
0.41418427333115465
0
LWPOLYLINE
5
154
100
AcDbEntity
8
0
100
AcDbPolyline
90
4
70
1
43
0.0
10
5.5000000000000107
20
79.457303059326534
10
5.5000000000000107
20
66.457303059326506
42
0.99999999999999989
10
6.5000000000000133
20
66.457303059326506
10
6.500000000000008
20
79.457303059326534
42
0.99999999999999989
0
LWPOLYLINE
5
155
100
AcDbEntity
8
0
100
AcDbPolyline
90
4
70
1
43
0.0
10
34.489500000000021
20
47.407303059326495
10
34.489500000000021
20
60.407303059326537
42
0.99999999999999989
10
33.489500000000014
20
60.407303059326537
10
33.489500000000021
20
47.407303059326502
42
0.99999999999999989
0
LWPOLYLINE
5
156
100
AcDbEntity
8
0
100
AcDbPolyline
90
4
70
1
43
0.0
10
287.79566666666688
20
66.457303059326605
10
287.79566666666688
20
79.45730305932662
42
0.99999999999999989
10
286.79566666666682
20
79.45730305932662
10
286.79566666666682
20
66.457303059326605
42
0.99999999999999989
0
LWPOLYLINE
5
157
100
AcDbEntity
8
0
100
AcDbPolyline
90
4
70
1
43
0.0
10
263.07933333333347
20
66.457303059326605
10
263.07933333333347
20
79.457303059326605
42
0.99999999999999989
10
262.07933333333347
20
79.457303059326591
10
262.07933333333352
20
66.457303059326591
42
0.99999999999999989
0
LWPOLYLINE
5
158
100
AcDbEntity
8
0
100
AcDbPolyline
90
8
70
1
43
0.0
10
48.075000000000045
20
22.807303059326447
10
35.075000000000031
20
22.807303059326443
42
0.41421356237309764
10
34.575000000000024
20
22.307303059326451
10
34.575000000000038
20
9.3073030593264363
42
0.41421356237309309
10
35.075000000000031
20
8.8073030593264328
10
48.075000000000045
20
8.8073030593264381
42
0.4142135623731022
10
48.575000000000031
20
9.307303059326447
10
48.575000000000024
20
22.307303059326458
42
0.41421356237310025
0
ARC
5
159
100
AcDbEntity
8
0
100
AcDbCircle
10
244.62500000571683
20
22.305293926768059
30
-2.3885225379392654e-39
40
0.50000000571660763
100
AcDbArc
50
179.88488533996335
51
180
0
ARC
5
160
100
AcDbEntity
8
0
100
AcDbCircle
10
244.62500000000009
20
22.306298493048725
30
-1.0400262039910752e-44
40
0.49999999999997602
100
AcDbArc
50
89.999999999996746
51
180
0
LINE
5
161
100
AcDbEntity
8
0
100
AcDbLine
10
244.62500000000011
20
22.8062984930487
30
-4.9045446251366287e-44
11
244.62600456627803
21
22.805293926770915
31
0
0
LINE
5
162
100
AcDbEntity
8
0
100
AcDbLine
10
244.62600456627803
20
22.805293926770915
30
0
11
257.62399543372237
21
22.805293926770908
31
-1.2325951644078309e-31
0
LINE
5
163
100
AcDbEntity
8
0
100
AcDbLine
10
257.62399543372237
20
22.805293926770908
30
-1.2325951644078309e-31
11
257.62500000000011
21
22.806298493048697
31
0
0
ARC
5
164
100
AcDbEntity
8
0
100
AcDbCircle
10
257.62500000000011
20
22.306298493048736
30
1.1170393677445968e-31
40
0.49999999999997158
100
AcDbArc
50
0
51
90
0
ARC
5
165
100
AcDbEntity
8
0
100
AcDbCircle
10
257.62499999427473
20
22.305293926768055
30
0
40
0.50000000572545389
100
AcDbArc
50
0
51
0.11511466003350442
0
LINE
5
166
100
AcDbEntity
8
0
100
AcDbLine
10
258.12500000000023
20
22.305293926770911
30
0
11
258.12500000000011
21
9.3062984930486898
31
-2.2204460492503131e-15
0
ARC
5
167
100
AcDbEntity
8
0
100
AcDbCircle
10
257.62499999432612
20
9.3062984930514894
30
0
40
0.50000000567401059
100
AcDbArc
50
359.88488533996019
51
360
0
ARC
5
168
100
AcDbEntity
8
0
100
AcDbCircle
10
257.62500000000023
20
9.3052939267708581
30
-1.8528887897419944e-44
40
0.49999999999998157
100
AcDbArc
50
-90
51
0
0
LINE
5
169
100
AcDbEntity
8
0
100
AcDbLine
10
257.62500000000023
20
8.8052939267708759
30
8.8675918445556324e-46
11
244.62500000000023
21
8.8052939267708776
31
-2.2204460492503131e-15
0
ARC
5
170
100
AcDbEntity
8
0
100
AcDbCircle
10
244.62500000000023
20
9.3052939267709096
30
0
40
0.50000000000002964
100
AcDbArc
50
225.00000000000173
51
270
0
LINE
5
171
100
AcDbEntity
8
0
100
AcDbLine
10
244.27144660940695
20
8.9517405361776117
30
0
11
244.27194924933562
21
8.9522431761062986
31
0
0
ARC
5
172
100
AcDbEntity
8
0
100
AcDbCircle
10
244.62500000000023
20
9.3062984930487218
30
0
40
0.50000000000011369
100
AcDbArc
50
180
51
225.08139849433329
0
LINE
5
173
100
AcDbEntity
8
0
100
AcDbLine
10
244.12500000000011
20
9.3062984930486756
30
0
11
244.12500000000023
21
22.305293926770936
31
9.8607613152627943e-32
0
LWPOLYLINE
5
174
100
AcDbEntity
8
0
100
AcDbPolyline
90
8
70
1
43
0.0
10
253.14375000000018
20
45.40629849304878
10
258.64375000000018
20
45.406298493048773
42
0.41421356237313145
10
259.14375000000018
20
45.906298493048759
10
259.14375000000018
20
59.906298493048737
42
0.41421356237309503
10
258.64375000000018
20
60.406298493048716
10
253.14375000000015
20
60.406298493048716
42
0.41421356237309503
10
252.64375000000018
20
59.906298493048745
10
252.64375000000018
20
45.906298493048759
42
0.41421356237312623
0
LWPOLYLINE
5
175
100
AcDbEntity
8
0
100
AcDbPolyline
90
17
70
1
43
0.0
10
269.73123043052721
20
41.856278922299232
10
254.63125000029802
20
41.855293926770926
10
246.80625000000015
20
41.855293926770905
42
0.41421356237309503
10
246.50625000000014
20
41.555293926770901
10
246.50625000000016
20
28.155293926770881
42
0.41421356237309503
10
246.80625000000018
20
27.855293926770873
10
247.33125000000013
20
27.855293926770884
42
-0.41421356237308637
10
247.63125000000014
20
27.555293926770883
10
247.63125000000014
20
26.656298493048691
42
0.41421356237308637
10
247.93125000000015
20
26.356298493048701
10
254.33125000000007
20
26.356298493048705
42
0.41421356237309076
10
254.63125000000008
20
26.656298493048705
10
254.63125000000008
20
27.555313495605553
42
-0.41419445661577348
10
254.93123043052719
20
27.855313494967273
10
269.731269569473
20
27.856278924852312
42
0.41419445661577348
10
270.03125000000011
20
28.156278924214039
10
270.03125000000011
20
41.556278922937494
42
0.41423266838853534
0
LWPOLYLINE
5
176
100
AcDbEntity
8
0
100
AcDbPolyline
90
24
70
1
43
0.0
10
286.40000000000009
20
99.007303059326603
10
253.95000000000013
20
99.007303059326631
42
0.41421356237309503
10
253.65000000000012
20
98.707303059326605
10
253.65000000000012
20
85.307303059326628
42
0.41421356237312978
10
253.95000000000013
20
85.007303059326603
10
254.47500000000008
20
85.007303059326546
42
-0.41421356237312978
10
254.77500000000009
20
84.707303059326563
10
254.77500000000009
20
83.807303059326586
42
0.41421356237309503
10
255.0750000000001
20
83.50730305932656
10
261.47500000000014
20
83.507303059326588
42
0.41421356237309503
10
261.77500000000015
20
83.807303059326586
10
261.77500000000009
20
84.707303059326605
42
-0.41421356237306034
10
262.0750000000001
20
85.007303059326603
10
278.27500000000015
20
85.007303059326603
42
-0.41421356237309503
10
278.57500000000016
20
84.707303059326591
10
278.57500000000016
20
83.807303059326614
42
0.41421356237312978
10
278.87500000000023
20
83.507303059326574
10
285.27500000000015
20
83.507303059326645
42
0.41421356237307771
10
285.57500000000016
20
83.807303059326614
10
285.57500000000016
20
84.707303059326605
42
-0.41421356237300833
10
285.87500000000017
20
85.007303059326603
10
286.40000000000015
20
85.007303059326617
42
0.41421356237309503
10
286.70000000000016
20
85.307303059326614
10
286.7000000000001
20
98.707303059326605
42
0.41421356237312978
0
ENDSEC
0
SECTION
2
OBJECTS
0
DICTIONARY
5
C
100
AcDbDictionary
3
ACAD_GROUP
350
D
3
ACAD_MLINESTYLE
350
17
0
DICTIONARY
5
D
100
AcDbDictionary
0
DICTIONARY
5
1A
330
C
100
AcDbDictionary
0
DICTIONARY
5
17
100
AcDbDictionary
0
ENDSEC
0
EOF
