0
SECTION
2
HEADER
9
$INSUNITS
70
4
9
$ACADVER
1
AC1014
9
$HANDSEED
5
FFFF
0
ENDSEC
0
SECTION
2
TABLES
0
TABLE
2
VPORT
5
8
100
AcDbSymbolTable
0
ENDTAB
0
TABLE
2
LTYPE
5
5
100
AcDbSymbolTable
0
LTYPE
5
14
100
AcDbSymbolTableRecord
100
AcDbLinetypeTableRecord
2
BYBLOCK
70
0
0
LTYPE
5
15
100
AcDbSymbolTableRecord
100
AcDbLinetypeTableRecord
2
BYLAYER
70
0
0
ENDTAB
0
TABLE
2
LAYER
5
2
100
AcDbSymbolTable
70
2
0
LAYER
5
50
100
AcDbSymbolTableRecord
100
AcDbLayerTableRecord
2
0
70
0
6
CONTINUOUS
0
ENDTAB
0
TABLE
2
STYLE
5
3
100
AcDbSymbolTable
70
1
0
STYLE
5
11
100
AcDbSymbolTableRecord
100
AcDbTextStyleTableRecord
2
STANDARD
70
0
0
ENDTAB
0
TABLE
2
VIEW
5
6
100
AcDbSymbolTable
70
0
0
ENDTAB
0
TABLE
2
UCS
5
7
100
AcDbSymbolTable
70
0
0
ENDTAB
0
TABLE
2
APPID
5
9
100
AcDbSymbolTable
70
2
0
APPID
5
12
100
AcDbSymbolTableRecord
100
AcDbRegAppTableRecord
2
ACAD
70
0
0
ENDTAB
0
TABLE
2
DIMSTYLE
5
A
100
AcDbSymbolTable
70
1
0
ENDTAB
0
TABLE
2
BLOCK_RECORD
5
1
100
AcDbSymbolTable
70
1
0
BLOCK_RECORD
5
1F
100
AcDbSymbolTableRecord
100
AcDbBlockTableRecord
2
*MODEL_SPACE
0
BLOCK_RECORD
5
1B
100
AcDbSymbolTableRecord
100
AcDbBlockTableRecord
2
*PAPER_SPACE
0
ENDTAB
0
ENDSEC
0
SECTION
2
BLOCKS
0
BLOCK
5
20
100
AcDbEntity
100
AcDbBlockBegin
2
*MODEL_SPACE
0
ENDBLK
5
21
100
AcDbEntity
100
AcDbBlockEnd
0
BLOCK
5
1C
100
AcDbEntity
100
AcDbBlockBegin
2
*PAPER_SPACE
0
ENDBLK
5
1D
100
AcDbEntity
100
AcDbBlockEnd
0
ENDSEC
0
SECTION
2
ENTITIES
0
LWPOLYLINE
5
100
100
AcDbEntity
8
0
100
AcDbPolyline
90
8
70
1
43
0.0
10
193.50855935681483
20
24.043455380217388
10
187.50855935681497
20
24.04345538021683
42
0.41421356237310025
10
187.008559356815
20
23.543455380216795
10
187.00855935681631
20
9.5434553802213919
42
0.4142135623730846
10
187.50855935681636
20
9.0434553802214488
10
193.50855935681625
20
9.0434553802220066
42
0.41421356237309503
10
194.00855935681622
20
9.5434553802220421
10
194.00855935681489
20
23.543455380217445
42
0.41421356237309503
0
LWPOLYLINE
5
101
100
AcDbEntity
8
0
100
AcDbPolyline
90
8
70
1
43
0.0
10
163.20855935681499
20
23.543455380214592
10
163.20855935681632
20
9.5434553802191999
42
0.41421356237308982
10
163.70855935681635
20
9.0434553802192461
10
169.70855935681635
20
9.0434553802198039
42
0.41421356237310025
10
170.20855935681629
20
9.5434553802198465
10
170.20855935681499
20
23.543455380215242
42
0.4142135623730846
10
169.70855935681496
20
24.043455380215178
10
163.70855935681502
20
24.043455380214645
42
0.41421356237310542
0
LINE
5
102
100
AcDbEntity
8
0
100
AcDbLine
10
185.04848687912016
20
-32.36978258065713
30
1.6575629757653587e-12
11
185.51873872552017
21
-32.457537349609034
31
4.6307402357115279e-12
0
LINE
5
103
100
AcDbEntity
8
0
100
AcDbLine
10
185.51873872552017
20
-32.457537349609034
30
4.6307402357115279e-12
11
200.41480935391638
21
-32.457537349607264
31
5.3896997975755312e-10
0
ELLIPSE
5
104
100
AcDbEntity
8
0
100
AcDbEllipse
10
200.41480935681992
20
-30.457537268201172
30
5.1481041651868509e-12
11
2.0796535200093537e-13
21
-2.0000000814057652
31
0.0
40
0.99999995929711616
41
6.2831853057277058
42
7.8539815301080331
0
LINE
5
105
100
AcDbEntity
8
0
100
AcDbLine
10
202.41480935681992
20
-30.457537475933876
30
5.1481041651868509e-12
11
202.41480935681099
21
65.544459946494285
31
-1.7985612998927536e-12
0
ARC
5
106
100
AcDbEntity
8
0
100
AcDbCircle
10
200.41480935681102
20
65.544459946494101
30
-1.7985612998927536e-12
40
1.9999999999999929
210
0
220
-0
230
1
100
AcDbArc
50
0
51
90.000000000005699
0
LINE
5
107
100
AcDbEntity
8
0
100
AcDbLine
10
200.41480935681082
20
67.544459946494086
30
-1.794120407794253e-12
11
169.86994055231091
21
67.544459946455419
31
6.6002758813965556e-12
0
LINE
5
108
100
AcDbEntity
8
0
100
AcDbLine
10
169.86994055231091
20
67.544459946455419
30
6.6002758813965556e-12
11
169.39497433111089
21
67.458459946457126
31
7.4418249340624243e-12
0
ARC
5
109
100
AcDbEntity
8
0
100
AcDbCircle
10
169.79585336521109
20
65.244459946501721
30
-1.5398957727450155e-10
40
2.249999999951918
210
7.9456764029274044e-13
220
-4.3882882513956834e-12
230
1
100
AcDbArc
50
100.26309589823448
51
145.5826112900638
0
ARC
5
110
100
AcDbEntity
8
0
100
AcDbCircle
10
166.00112017301086
20
67.844459946544049
30
-3.0631053249408069e-12
40
2.3499999999999943
210
0
220
0
230
1
100
AcDbArc
50
270.0000000000062
51
325.58261128819805
0
LINE
5
111
100
AcDbEntity
8
0
100
AcDbLine
10
166.00112017301112
20
65.494459946544055
30
-3.0631053249408069e-12
11
162.26182187341118
21
65.4944599464595
31
4.8638870708828108e-12
0
ARC
5
112
100
AcDbEntity
8
0
100
AcDbCircle
10
162.26182187341092
20
67.844459946543694
30
-3.0631053249408069e-12
40
2.3499999999999819
210
0
220
0
230
1
100
AcDbArc
50
214.4173887118136
51
270.0000000000062
0
ARC
5
113
100
AcDbEntity
8
0
100
AcDbCircle
10
158.46708868121115
20
65.244459946500669
30
-2.5923707624997405e-12
40
2.2500000000224389
210
1.7259053804875478e-13
220
1.1825216061054054e-13
230
1
100
AcDbArc
50
34.417388709945222
51
79.736904101776091
0
LINE
5
114
100
AcDbEntity
8
0
100
AcDbLine
10
158.86796771531951
20
67.458459946503453
30
-2.5901503164504902e-12
11
158.39300149411093
21
67.544459946454353
31
6.6002758813965556e-12
0
LINE
5
115
100
AcDbEntity
8
0
100
AcDbLine
10
158.39300149411093
20
67.544459946454353
30
6.6002758813965556e-12
11
62.738488312211196
21
67.544459946445485
31
6.5991656583719305e-12
0
LINE
5
116
100
AcDbEntity
8
0
100
AcDbLine
10
62.738488312211196
20
67.544459946445485
30
6.5991656583719305e-12
11
62.270432216211219
21
67.449930417796011
31
-2.886579864025407e-13
0
ARC
5
117
100
AcDbEntity
8
0
100
AcDbCircle
10
62.715853365211402
20
65.244459946491787
30
-5.5386908595609268e-11
40
2.2499999999492233
210
2.027885251471064e-13
220
-1.0040926550865086e-12
230
1
100
AcDbArc
50
101.41798031453565
51
145.58261129006348
0
ARC
5
118
100
AcDbEntity
8
0
100
AcDbCircle
10
58.921120173011197
20
67.844459946534116
30
-3.0642155479654321e-12
40
2.3499999999999943
210
0
220
0
230
1
100
AcDbArc
50
270.00000000000517
51
325.58261128819805
0
LINE
5
119
100
AcDbEntity
8
0
100
AcDbLine
10
58.92112017301141
20
65.494459946534121
30
-3.0642155479654321e-12
11
55.18182187341143
21
65.494459946449581
31
4.8627768478581856e-12
0
ARC
5
120
100
AcDbEntity
8
0
100
AcDbCircle
10
55.181821873411216
20
67.844459946533789
30
-3.0642155479654321e-12
40
2.3499999999999965
210
0
220
0
230
1
100
AcDbArc
50
214.41738871181354
51
270.00000000000517
0
ARC
5
121
100
AcDbEntity
8
0
100
AcDbCircle
10
51.387088681211438
20
65.244459946490736
30
-2.5934809855243657e-12
40
2.2500000000224487
210
1.7259053804875326e-13
220
1.1825216061054115e-13
230
1
100
AcDbArc
50
34.417388709945818
51
79.736904101775551
0
LINE
5
122
100
AcDbEntity
8
0
100
AcDbLine
10
51.787967715319816
20
67.45845994649352
30
-2.5912605394751154e-12
11
51.313001494111248
21
67.544459946444434
31
6.5991656583719305e-12
0
LINE
5
123
100
AcDbEntity
8
0
100
AcDbLine
10
51.313001494111248
20
67.544459946444434
30
6.5991656583719305e-12
11
-44.063382780488496
21
67.544459946435595
31
6.5980554353473053e-12
0
LINE
5
124
100
AcDbEntity
8
0
100
AcDbLine
10
-44.063382780488496
20
67.544459946435595
30
6.5980554353473053e-12
11
-44.538349001698478
21
67.458459946437301
31
7.439604488013174e-12
0
ARC
5
125
100
AcDbEntity
8
0
100
AcDbCircle
10
-44.137469967578269
20
65.244459946481896
30
-3.2397629362171453e-10
40
2.2499999999554849
210
7.9456764032990136e-13
220
-4.3882882513817699e-12
230
1
100
AcDbArc
50
100.26309589873587
51
145.58261128977674
0
ARC
5
126
100
AcDbEntity
8
0
100
AcDbCircle
10
-47.932203159778489
20
67.844459946524225
30
-3.0653257709900572e-12
40
2.3499999999999943
210
1.7141386804259284e-28
220
-1.8897413185109094e-15
230
1
100
AcDbArc
50
270.00000000000517
51
325.58261128847278
0
LINE
5
127
100
AcDbEntity
8
0
100
AcDbLine
10
-47.932203159778275
20
65.494459946524231
30
-3.0697666630885578e-12
11
-51.671501459378263
21
65.49445994643969
31
4.8616666248335605e-12
0
ARC
5
128
100
AcDbEntity
8
0
100
AcDbCircle
10
-51.671501459378476
20
67.844459946523884
30
-3.0653257709900572e-12
40
2.3499999999999983
210
7.7946348977554926e-16
220
5.3405732915929253e-16
230
1
100
AcDbArc
50
214.41738871153723
51
270.00000000000517
0
ARC
5
129
100
AcDbEntity
8
0
100
AcDbCircle
10
-55.466234651578233
20
65.244459946480845
30
-2.5945912085489908e-12
40
2.2500000000224327
210
1.7177643173661072e-13
220
1.1769436740098048e-13
230
1
100
AcDbArc
50
34.417388710234398
51
79.736904101275243
0
LINE
5
130
100
AcDbEntity
8
0
100
AcDbLine
10
-55.065355617450521
20
67.458459946480133
30
-2.5923707624997405e-12
11
-55.540321838668447
21
67.544459946434529
31
6.5980554353473053e-12
0
LINE
5
131
100
AcDbEntity
8
0
100
AcDbLine
10
-55.540321838668447
20
67.544459946434529
30
6.5980554353473053e-12
11
-86.085190643185371
21
67.544459946431701
31
6.5980554353473053e-12
0
ARC
5
132
100
AcDbEntity
8
0
100
AcDbCircle
10
-86.085190643188184
20
65.544459946467555
30
-2.7708690007063866e-10
40
1.999999999964146
210
-5.8939150890022182e-24
220
-4.19997370223226e-12
230
1
100
AcDbArc
50
89.999999999919396
51
180
0
LINE
5
133
100
AcDbEntity
8
0
100
AcDbLine
10
-88.08519064318817
20
65.544459946467384
30
-1.8018919689666291e-12
11
-88.085190643179274
21
-30.457537474337094
31
4.2188474935755949e-12
0
ELLIPSE
5
134
100
AcDbEntity
8
0
100
AcDbEllipse
10
-86.085190643179288
20
-30.457537268227718
30
5.1447734961129754e-12
11
-4.2616136247271396e-09
21
-2.0000000814057652
31
0.0
40
0.99999995929711616
41
4.7123890855701802
42
6.2831853114414784
0
LINE
5
135
100
AcDbEntity
8
0
100
AcDbLine
10
-86.085190638917084
20
-32.457537349633483
30
5.1425530500637251e-12
11
-71.189120011899135
21
-32.457537349632815
31
4.6274095666376525e-12
0
LINE
5
136
100
AcDbEntity
8
0
100
AcDbLine
10
-71.189120011899135
20
-32.457537349632815
30
4.6274095666376525e-12
11
-70.718868165439147
21
-32.369782580680834
31
1.6542323066914832e-12
0
ARC
5
137
100
AcDbEntity
8
0
100
AcDbCircle
10
-71.131620425089338
20
-30.157965325084078
30
3.1097790022548393e-11
40
2.2500000000004192
210
2.8657979233622157e-13
220
-1.5356963286688698e-12
230
1
100
AcDbArc
50
280.57051215220247
51
327.86507199583559
0
ARC
5
138
100
AcDbEntity
8
0
100
AcDbCircle
10
-67.151670676669127
20
-32.657965325083119
30
4.3420822493089872e-12
40
2.4499999999999966
210
1.6427757293232276e-28
220
-1.8126090197961764e-15
230
1
100
AcDbArc
50
90.000000000005315
51
147.86507199580774
0
LINE
5
139
100
AcDbEntity
8
0
100
AcDbLine
10
-67.151670676669355
20
-30.207965325083119
30
4.3465231414074879e-12
11
-62.251789541409366
21
-30.207965325083535
31
-1.4555023852835802e-12
0
ARC
5
140
100
AcDbEntity
8
0
100
AcDbCircle
10
-62.251789541409146
20
-32.657965325082664
30
4.3420822493089872e-12
40
2.4499999999999997
210
-7.6745668216266341e-16
220
-4.8207686696779845e-16
230
1
100
AcDbArc
50
32.134928004202699
51
90.000000000005159
0
ARC
5
141
100
AcDbEntity
8
0
100
AcDbCircle
10
-58.271839792979385
20
-30.157965325082891
30
5.1691984026547289e-12
40
2.2500000000026561
210
-3.1045328252792345e-13
220
-1.950108055066255e-13
230
1
100
AcDbArc
50
212.13492800403947
51
259.42948784780782
0
LINE
5
142
100
AcDbEntity
8
0
100
AcDbLine
10
-58.6845920526291
20
-32.369782580679299
30
5.1669779566054785e-12
11
-58.214340206179173
21
-32.457537349631615
31
4.6274095666376525e-12
0
LINE
5
143
100
AcDbEntity
8
0
100
AcDbLine
10
-58.214340206179173
20
-32.457537349631615
30
4.6274095666376525e-12
11
50.39395891982052
21
-32.457537349621553
31
4.6285197896622776e-12
0
LINE
5
144
100
AcDbEntity
8
0
100
AcDbLine
10
50.39395891982052
20
-32.457537349621553
30
4.6285197896622776e-12
11
50.864210766320511
21
-32.369782580669565
31
1.6553425297161084e-12
0
ARC
5
145
100
AcDbEntity
8
0
100
AcDbCircle
10
50.451458506620313
20
-30.157965325072816
30
6.594215375865961e-11
40
2.2500000000095923
210
2.8657979236860374e-13
220
-1.5356963286563482e-12
230
1
100
AcDbArc
50
280.57051215345433
51
326.41967853628881
0
ARC
5
146
100
AcDbEntity
8
0
100
AcDbCircle
10
54.36705309532055
20
-32.757542117991257
30
5.3390625254223778e-12
40
2.4499999999999926
210
4.4845740368619932e-24
220
-4.5315225494904498e-16
230
1
100
AcDbArc
50
90.000000567021701
51
146.4196785363122
0
LINE
5
147
100
AcDbEntity
8
0
100
AcDbLine
10
54.36705307107438
20
-30.307542117991268
30
5.340172748447003e-12
11
59.39564457172029
21
-30.307542122792182
31
3.8336001040306655e-12
0
ARC
5
148
100
AcDbEntity
8
0
100
AcDbCircle
10
59.395644550020506
20
-32.757542117990795
30
5.3390625254223778e-12
40
2.4500000000000091
210
-3.775262446484665e-16
220
-2.5064097982378621e-16
230
1
100
AcDbArc
50
33.58032146366498
51
89.999999492528161
0
ARC
5
149
100
AcDbEntity
8
0
100
AcDbCircle
10
63.311239138720268
20
-30.157965325071629
30
5.170308625679354e-12
40
2.2499999999999898
210
-8.221682661224491e-16
220
-5.4584035606202662e-16
230
1
100
AcDbArc
50
213.58032146375777
51
259.4294878490598
0
LINE
5
150
100
AcDbEntity
8
0
100
AcDbLine
10
62.898486879118884
20
-32.369782580677054
30
5.1680881796301037e-12
11
63.368738725520508
21
-32.457537349620353
31
4.6285197896622776e-12
0
LINE
5
151
100
AcDbEntity
8
0
100
AcDbLine
10
63.368738725520508
20
-32.457537349620353
30
4.6285197896622776e-12
11
172.54395891982023
21
-32.457537349610234
31
4.6296300126869028e-12
0
LINE
5
152
100
AcDbEntity
8
0
100
AcDbLine
10
172.54395891982023
20
-32.457537349610234
30
4.6296300126869028e-12
11
173.01421076632016
21
-32.369782580658253
31
1.6564527527407336e-12
0
ARC
5
153
100
AcDbEntity
8
0
100
AcDbCircle
10
172.60145850661996
20
-30.157965325061504
30
1.0094898561949354e-10
40
2.2500000000095959
210
2.865797923686152e-13
220
-1.5356963286563436e-12
230
1
100
AcDbArc
50
280.57051215345433
51
327.86507199545133
0
ARC
5
154
100
AcDbEntity
8
0
100
AcDbCircle
10
176.58140825502019
20
-32.65796532506053
30
4.3443026953582375e-12
40
2.4499999999999922
210
9.1995440842101107e-29
220
-9.0630450989808995e-16
230
1
100
AcDbArc
50
90.000000000005969
51
147.86507199591233
0
LINE
5
155
100
AcDbEntity
8
0
100
AcDbLine
10
176.58140825501994
20
-30.207965325060542
30
4.3465231414074879e-12
11
181.48128939031994
21
-30.207965325060961
31
-1.4532819392343299e-12
0
ARC
5
156
100
AcDbEntity
8
0
100
AcDbCircle
10
181.4812893903202
20
-32.657965325060083
30
4.3443026953582375e-12
40
2.449999999999978
210
-1.1511850232453217e-15
220
-7.2311530044960847e-16
230
1
100
AcDbArc
50
32.134928004098541
51
90.000000000005969
0
ARC
5
157
100
AcDbEntity
8
0
100
AcDbCircle
10
185.46123913871992
20
-30.157965325060307
30
5.1725290717286043e-12
40
2.2499999999772342
210
-3.1045328252965939e-13
220
-1.9501080551164945e-13
230
1
100
AcDbArc
50
212.13492800455992
51
259.42948784906037
0
LWPOLYLINE
5
158
100
AcDbEntity
8
0
100
AcDbPolyline
90
24
70
1
43
0.0
10
-45.672690643182719
20
5.4944599464765043
10
-80.503940643182631
20
5.4944599464732802
42
0.41421356237410956
10
-80.803940643182585
20
5.1944599464737662
10
-80.803940643181349
20
-8.2055400535306244
42
0.41421356237310375
10
-80.503940643181323
20
-8.5055400535201375
10
-79.978940643181332
20
-8.5055400535295256
42
-0.41421356237309503
10
-79.678940643181306
20
-8.8055400535294925
10
-79.678940643181221
20
-9.7055400535279635
42
0.41421356237309076
10
-79.378940643181181
20
-10.005540053528463
10
-72.978940643181204
20
-10.005540053527341
42
0.41421356237207618
10
-72.678940643181235
20
-9.7055400535283596
10
-72.678940643190742
20
-8.8055400535288442
42
-0.41421356237309076
10
-72.378940643181352
20
-8.5055400535193826
10
-56.178940643181399
20
-8.5055400535273193
42
-0.41421356237310375
10
-55.878940643181366
20
-8.8055400535272845
10
-55.878940643181281
20
-9.7055400535257554
42
0.41421356237310375
10
-55.578940643181255
20
-10.005540053526261
10
-49.178940643181271
20
-10.005540053525133
42
0.41421356237207618
10
-48.878940643181309
20
-9.7055400535261516
10
-48.878940643180869
20
-8.8055400535266379
42
-0.41421356237309503
10
-48.578940643181411
20
-8.5055400535271239
10
-45.672690643181426
20
-8.505540053527362
42
0.41421356238280704
10
-45.37269064318145
20
-8.2055400535173959
10
-45.372690643182693
20
5.1944599464780916
42
0.41421356237309503
0
LWPOLYLINE
5
159
100
AcDbEntity
8
0
100
AcDbPolyline
90
8
70
1
43
0.0
10
3.664809356820129
20
-26.756544619796088
10
3.6648093568187967
20
-12.35654461979367
42
0.41421356237310375
10
3.3648093568187676
20
-12.056544619794201
10
-3.0351906431812203
20
-12.056544619794289
42
0.41421356237308637
10
-3.3351906431811962
20
-12.356544619794319
10
-3.3351906431798461
20
-26.756544619796685
42
0.41421356237308637
10
-3.0351906431798348
20
-27.056544619796199
10
3.3648093568201531
20
-27.056544619796064
42
0.41421356237305174
0
LWPOLYLINE
5
160
100
AcDbEntity
8
0
100
AcDbPolyline
90
8
70
1
43
0.0
10
110.66480935681849
20
-12.356544619783758
10
110.6648093568198
20
-26.756544619786176
42
0.41421356237305174
10
110.96480935681984
20
-27.05654461978564
10
117.36480935681982
20
-27.056544619785505
42
0.41421356237303869
10
117.6648093568198
20
-26.756544619785526
10
117.66480935681848
20
-12.35654461978311
42
0.41421356237310375
10
117.36480935681843
20
-12.05654461978364
10
110.96480935681846
20
-12.056544619783729
42
0.41421356237308637
0
LWPOLYLINE
5
161
100
AcDbEntity
8
0
100
AcDbPolyline
90
8
70
1
43
0.0
10
185.10855935681485
20
24.54345538022309
10
172.10855935681485
20
24.543455380221889
42
0.4142135623730846
10
171.60855935681494
20
24.043455380215356
10
171.60855935681613
20
11.043455380223893
42
0.4142135623730846
10
172.10855935681619
20
10.54345538021748
10
185.10855935681616
20
10.543455380225147
42
0.41421356237310025
10
185.60855935681613
20
11.04345538022519
10
185.60855935681491
20
24.043455380216653
42
0.41421356237311063
0
LINE
5
162
100
AcDbEntity
8
0
100
AcDbLine
10
192.7523093568131
20
43.294459946500155
30
2.386424391431774e-11
11
192.75230935681432
21
30.093455380217225
31
-2.3001600624183993e-11
0
ARC
5
163
100
AcDbEntity
8
0
100
AcDbCircle
10
192.25230935681429
20
30.093455380219275
30
-3.1108449149996886e-12
40
0.49999999999999822
210
0
220
0
230
1
100
AcDbArc
50
270.00000000000648
51
360
0
LINE
5
164
100
AcDbEntity
8
0
100
AcDbLine
10
192.25230935681435
20
29.594459946503026
30
5.2180482157382357e-12
11
179.05230935681442
21
29.594459946502859
31
1.0808021144725899e-11
0
ARC
5
165
100
AcDbEntity
8
0
100
AcDbCircle
10
179.05230935681442
20
29.894459946502337
30
1.0556000518135988e-11
40
0.30000000000001137
210
0
220
0
230
1
100
AcDbArc
50
180
51
270
0
LINE
5
166
100
AcDbEntity
8
0
100
AcDbLine
10
178.75230935681441
20
29.894459946502309
30
1.0556000518135988e-11
11
178.75230935681316
21
43.294459946496758
31
3.9723779821088101e-12
0
ARC
5
167
100
AcDbEntity
8
0
100
AcDbCircle
10
179.05230935681317
20
43.294459946496801
30
3.9723779821088101e-12
40
0.29999999999999361
210
-2.2789315039719093e-26
220
1.9243865760169791e-13
230
1
100
AcDbArc
50
90.000000000005429
51
180
0
LINE
5
168
100
AcDbEntity
8
0
100
AcDbLine
10
179.05230935681314
20
43.594459946496791
30
3.914646384828302e-12
11
192.45230935681306
21
43.594459946497523
31
3.7214675785435247e-12
0
ARC
5
169
100
AcDbEntity
8
0
100
AcDbCircle
10
192.45230935681309
20
43.294459946498037
30
-1.2756099415430391e-08
40
0.30000000000001137
210
-6.6302519030611841e-11
220
-4.6718183482630302e-22
230
1
100
AcDbArc
50
0
51
90.000000000005429
0
LWPOLYLINE
5
170
100
AcDbEntity
8
0
100
AcDbPolyline
90
8
70
1
43
0.0
10
102.91480935681967
20
-25.019044619784026
10
102.91480935681886
20
-16.094044619786278
42
0.41421356237309936
10
102.61480935681885
20
-15.794044619786822
10
72.214809356818932
20
-15.794044619789123
42
0.41421356237308637
10
71.914809356818949
20
-16.094044619789152
10
71.914809356819774
20
-25.0190446197869
42
0.41421356237310375
10
72.214809356819814
20
-25.319044619786368
10
102.61480935681973
20
-25.319044619784059
42
0.41421356237308637
0
LWPOLYLINE
5
171
100
AcDbEntity
8
0
100
AcDbPolyline
90
8
70
1
43
0.0
10
11.714809356819984
20
-25.319044619791971
10
42.114809356819904
20
-25.319044619789153
42
0.41421356237310802
10
42.414809356819859
20
-25.019044619789632
10
42.414809356819049
20
-16.094044619791887
42
0.41421356237308637
10
42.114809356819038
20
-15.794044619792427
10
11.714809356819114
20
-15.794044619794727
42
0.41421356237310375
10
11.41480935681912
20
-16.094044619794758
10
11.414809356819973
20
-25.01904461979251
42
0.41421356237308204
0
LWPOLYLINE
5
172
100
AcDbEntity
8
0
100
AcDbPolyline
90
8
70
1
43
0.0
10
-64.422690643179635
20
-27.255540053523607
10
-64.422690643180871
20
-13.855540053529158
42
0.41421356237411827
10
-64.722690643180911
20
-13.55554005351976
10
-78.12269064318086
20
-13.555540053529388
42
0.41421356237411394
10
-78.422690643180843
20
-13.855540053530454
10
-78.422690643179592
20
-27.255540053524854
42
0.41421356237309076
10
-78.122690643179567
20
-27.555540053525359
10
-64.722690643179604
20
-27.555540053523583
42
0.41421356237304735
0
LWPOLYLINE
5
173
100
AcDbEntity
8
0
100
AcDbPolyline
90
8
70
1
43
0.0
10
11.7773093568184
20
-8.2055400535121024
10
11.777309356817156
20
5.194459946482346
42
0.41421356237411827
10
11.477309356817109
20
5.4944599464817978
10
-1.9226906431828539
20
5.4944599464821087
42
0.41421356237410095
10
-2.222690643182812
20
5.1944599464810493
10
-2.2226906431815685
20
-8.2055400535233467
42
0.41421356237308637
10
-1.9226906431815571
20
-8.5055400535128598
10
11.477309356818406
20
-8.5055400535220684
42
0.41421356238281565
0
LWPOLYLINE
5
174
100
AcDbEntity
8
0
100
AcDbPolyline
90
8
70
1
43
0.0
10
26.652309356816613
20
10.544459946483236
10
40.052309356816579
20
10.54445994648448
42
0.41421356237206319
10
40.352309356816519
20
10.844459946484001
10
40.352309356815312
20
24.244459946489446
42
0.41421356237310375
10
40.052309356815279
20
24.544459946488896
10
26.652309356815316
20
24.544459946488168
42
0.41421356237308637
10
26.35230935681534
20
24.244459946488149
10
26.352309356816583
20
10.844459946483752
42
0.41421356237310375
0
LWPOLYLINE
5
175
100
AcDbEntity
8
0
100
AcDbPolyline
90
8
70
1
43
0.0
10
64.752309356816497
20
10.544459946486771
10
78.152309356816431
20
10.544459946488004
42
0.41421356237207185
10
78.452309356816386
20
10.844459946487536
10
78.452309356815164
20
24.244459946492981
42
0.41421356237309503
10
78.152309356815124
20
24.544459946492424
10
64.752309356815204
20
24.544459946491703
42
0.41421356237308637
10
64.452309356815221
20
24.244459946491684
10
64.452309356816471
20
10.844459946487287
42
0.41421356237310375
0
LWPOLYLINE
5
176
100
AcDbEntity
8
0
100
AcDbPolyline
90
8
70
1
43
0.0
10
107.02730935681814
20
-8.2055400535032774
10
107.02730935681689
20
5.1944599464911745
42
0.41421356237411827
10
106.72730935681685
20
5.4944599464906263
10
93.327309356816841
20
5.4944599464909372
42
0.41421356237410095
10
93.027309356816914
20
5.1944599464898777
10
93.027309356818108
20
-8.2055400535145218
42
0.41421356237309936
10
93.327309356818162
20
-8.5055400535040313
10
106.72730935681815
20
-8.5055400535132453
42
0.41421356238279833
0
LWPOLYLINE
5
177
100
AcDbEntity
8
0
100
AcDbPolyline
90
8
70
1
43
0.0
10
116.55230935681632
20
10.844459946491064
10
116.55230935681509
20
24.244459946496505
42
0.41421356237310375
10
116.25230935681503
20
24.544459946495959
10
102.85230935681504
20
24.54445994649523
42
0.41421356237308637
10
102.5523093568151
20
24.244459946495208
10
102.55230935681631
20
10.844459946490815
42
0.41421356237310375
10
102.85230935681636
20
10.544459946490296
10
116.25230935681635
20
10.544459946492083
42
0.41421356237206319
0
LWPOLYLINE
5
178
100
AcDbEntity
8
0
100
AcDbPolyline
90
8
70
1
43
0.0
10
145.12730935681981
20
-27.256544619782446
10
145.12730935681856
20
-13.856544619779051
42
0.4142135623741226
10
144.82730935681849
20
-13.556544619778542
10
131.42730935681854
20
-13.556544619779277
42
0.41421356237410528
10
131.12730935681856
20
-13.856544619780347
10
131.12730935681981
20
-27.256544619783689
42
0.414213562373069
10
131.42730935681982
20
-27.556544619783203
10
144.8273093568198
20
-27.556544619782422
42
0.414213562373069
0
LWPOLYLINE
5
179
100
AcDbEntity
8
0
100
AcDbPolyline
90
8
70
1
43
0.0
10
149.88980935681445
20
29.894459946498596
10
149.88980935681323
20
43.294459946494101
42
0.41421356237309503
10
149.58980935681322
20
43.594459946493544
10
136.18980935681324
20
43.594459946492812
42
0.41421356237307771
10
135.88980935681326
20
43.2944599464928
10
135.88980935681451
20
29.89445994649834
42
0.414213562373069
10
136.18980935681452
20
29.594459946497839
10
149.5898093568145
20
29.594459946499608
42
0.41421356237210649
0
LWPOLYLINE
5
180
100
AcDbEntity
8
0
100
AcDbPolyline
90
8
70
1
43
0.0
10
102.2648093568128
20
48.944459946488692
10
102.26480935681155
20
62.344459946494126
42
0.41421356237311241
10
101.96480935681154
20
62.644459946493583
10
88.564809356811622
20
62.644459946492859
42
0.41421356237309503
10
88.264809356811639
20
62.344459946492833
10
88.26480935681289
20
48.944459946487399
42
0.41421356237309503
10
88.56480935681293
20
48.644459946487913
10
101.96480935681286
20
48.644459946488645
42
0.41421356237307771
0
LWPOLYLINE
5
181
100
AcDbEntity
8
0
100
AcDbPolyline
90
8
70
1
43
0.0
10
54.63980935681473
20
29.894459946489768
10
54.639809356813487
20
43.294459946485269
42
0.41421356237311241
10
54.339809356813461
20
43.594459946484733
10
40.939809356813498
20
43.594459946484001
42
0.41421356237309503
10
40.639809356813515
20
43.294459946483968
10
40.63980935681478
20
29.894459946489512
42
0.41421356237310375
10
40.939809356814806
20
29.59445994648901
10
54.339809356814769
20
29.59445994649078
42
0.41421356237207185
0
LWPOLYLINE
5
182
100
AcDbEntity
8
0
100
AcDbPolyline
90
8
70
1
43
0.0
10
16.539809356814832
20
29.894459946486243
10
16.539809356813588
20
43.294459946481737
42
0.41421356237311241
10
16.239809356813559
20
43.594459946481194
10
2.8398093568135963
20
43.59445994648047
42
0.41421356237309503
10
2.5398093568136204
20
43.294459946480437
10
2.5398093568148816
20
29.894459946485984
42
0.41421356237310375
10
2.8398093568149108
20
29.594459946485486
10
16.239809356814874
20
29.594459946487252
42
0.41421356237207185
0
LWPOLYLINE
5
183
100
AcDbEntity
8
0
100
AcDbPolyline
90
8
70
1
43
0.0
10
-16.797690643183305
20
10.844459946478707
10
-16.797690643184549
20
24.244459946484152
42
0.41421356237309503
10
-17.09769064318456
20
24.544459946483602
10
-30.497690643184534
20
24.544459946482874
42
0.41421356237309503
10
-30.797690643184499
20
24.244459946482856
10
-30.797690643183266
20
10.844459946478459
42
0.41421356237309503
10
-30.497690643183233
20
10.544459946477943
10
-17.097690643183263
20
10.544459946479726
42
0.41421356237207185
0
LWPOLYLINE
5
184
100
AcDbEntity
8
0
100
AcDbPolyline
90
8
70
1
43
0.0
10
-40.610190643185
20
29.89445994648095
10
-40.610190643186243
20
43.294459946476437
42
0.41421356237310375
10
-40.910190643186269
20
43.594459946475901
10
-54.310190643186232
20
43.594459946475169
42
0.41421356237310375
10
-54.610190643186201
20
43.294459946475143
10
-54.610190643184957
20
29.894459946480691
42
0.41421356237309503
10
-54.310190643184939
20
29.594459946480193
10
-40.910190643184976
20
29.594459946481958
42
0.41421356237208046
0
LWPOLYLINE
5
185
100
AcDbEntity
8
0
100
AcDbPolyline
90
8
70
1
43
0.0
10
-50.135190643186746
20
48.944459946474588
10
-50.13519064318799
20
62.344459946480022
42
0.41421356237307771
10
-50.435190643188008
20
62.644459946479465
10
-63.835190643187971
20
62.644459946478733
42
0.41421356237308637
10
-64.13519064318794
20
62.344459946478722
10
-64.135190643186704
20
48.944459946473287
42
0.41421356237310375
10
-63.835190643186678
20
48.644459946473795
10
-50.435190643186715
20
48.644459946474527
42
0.41421356237309503
0
LWPOLYLINE
5
186
100
AcDbEntity
8
0
100
AcDbPolyline
90
8
70
1
43
0.0
10
-31.085190643186795
20
48.944459946476343
10
-31.085190643188039
20
62.344459946481777
42
0.41421356237308637
10
-31.385190643188068
20
62.64445994648122
10
-44.785190643188024
20
62.644459946480509
42
0.41421356237310375
10
-45.085190643188
20
62.344459946480484
10
-45.085190643186756
20
48.94445994647505
42
0.41421356237308637
10
-44.785190643186723
20
48.644459946475571
10
-31.385190643186771
20
48.644459946476282
42
0.41421356237310375
0
LWPOLYLINE
5
187
100
AcDbEntity
8
0
100
AcDbPolyline
90
8
70
1
43
0.0
10
-64.422690643184936
20
29.894459946478737
10
-64.422690643186172
20
43.294459946474234
42
0.41421356237310375
10
-64.722690643186212
20
43.594459946473698
10
-78.122690643186161
20
43.594459946472966
42
0.41421356237310375
10
-78.422690643186144
20
43.294459946472941
10
-78.422690643184893
20
29.894459946478481
42
0.41421356237309503
10
-78.122690643184868
20
29.594459946477979
10
-64.722690643184905
20
29.594459946479748
42
0.41421356237208046
0
LWPOLYLINE
5
188
100
AcDbEntity
8
0
100
AcDbPolyline
90
8
70
1
43
0.0
10
-2.5101906431851084
20
29.894459946484474
10
-2.5101906431863519
20
43.294459946479975
42
0.41421356237309503
10
-2.810190643186381
20
43.594459946479418
10
-16.210190643186351
20
43.594459946478707
42
0.41421356237310375
10
-16.51019064318632
20
43.294459946478682
10
-16.510190643185084
20
29.894459946484218
42
0.41421356237309503
10
-16.210190643185058
20
29.594459946483717
10
-2.8101906431850665
20
29.594459946485486
42
0.41421356237207185
0
LWPOLYLINE
5
189
100
AcDbEntity
8
0
100
AcDbPolyline
90
8
70
1
43
0.0
10
45.114809356812998
20
48.944459946483398
10
45.114809356811762
20
62.344459946488833
42
0.41421356237311241
10
44.814809356811708
20
62.644459946488297
10
31.414809356811748
20
62.644459946487565
42
0.41421356237309503
10
31.11480935681179
20
62.344459946487532
10
31.114809356813034
20
48.944459946482098
42
0.41421356237307771
10
31.414809356813045
20
48.644459946482627
10
44.814809356813008
20
48.644459946483352
42
0.41421356237309503
0
LWPOLYLINE
5
190
100
AcDbEntity
8
0
100
AcDbPolyline
90
8
70
1
43
0.0
10
83.214809356812907
20
48.94445994648693
10
83.214809356811656
20
62.344459946492364
42
0.41421356237311241
10
82.914809356811617
20
62.644459946491828
10
69.514809356811625
20
62.644459946491097
42
0.41421356237309503
10
69.214809356811685
20
62.344459946491071
10
69.214809356812907
20
48.944459946485637
42
0.41421356237307771
10
69.514809356812918
20
48.644459946486158
10
82.914809356812924
20
48.64445994648689
42
0.41421356237307771
0
LWPOLYLINE
5
191
100
AcDbEntity
8
0
100
AcDbPolyline
90
8
70
1
43
0.0
10
121.31480935681279
20
48.944459946490468
10
121.31480935681154
20
62.344459946495903
42
0.41421356237309503
10
121.0148093568115
20
62.644459946495346
10
107.61480935681156
20
62.644459946494621
42
0.41421356237307771
10
107.31480935681159
20
62.344459946494609
10
107.31480935681283
20
48.944459946489175
42
0.41421356237311241
10
107.61480935681288
20
48.644459946489675
10
121.0148093568128
20
48.6444599464904
42
0.41421356237309503
0
LWPOLYLINE
5
192
100
AcDbEntity
8
0
100
AcDbPolyline
90
8
70
1
43
0.0
10
130.83980935681453
20
29.894459946496831
10
130.83980935681328
20
43.294459946492339
42
0.41421356237309503
10
130.53980935681324
20
43.594459946491781
10
117.13980935681327
20
43.594459946491057
42
0.41421356237307771
10
116.83980935681333
20
43.294459946491045
10
116.83980935681454
20
29.894459946496571
42
0.414213562373069
10
117.13980935681455
20
29.594459946496073
10
130.53980935681452
20
29.594459946497839
42
0.41421356237210649
0
LWPOLYLINE
5
193
100
AcDbEntity
8
0
100
AcDbPolyline
90
8
70
1
43
0.0
10
145.12730935681802
20
-8.2065446197789917
10
145.12730935681677
20
5.1934553802154459
42
0.41421356237412693
10
144.82730935681673
20
5.4934553802149155
10
131.42730935681675
20
5.4934553802152175
42
0.41421356237410956
10
131.1273093568168
20
5.1934553802141492
10
131.12730935681805
20
-8.2065446197802885
42
0.41421356237310375
10
131.42730935681809
20
-8.5065446197797545
10
144.82730935681803
20
-8.5065446197790209
42
0.41421356237308637
0
LWPOLYLINE
5
194
100
AcDbEntity
8
0
100
AcDbPolyline
90
8
70
1
43
0.0
10
126.07730935681808
20
-8.2055400535015099
10
126.07730935681684
20
5.1944599464929331
42
0.41421356237411827
10
125.77730935681683
20
5.4944599464923849
10
112.37730935681682
20
5.4944599464926958
42
0.41421356237410095
10
112.07730935681684
20
5.1944599464916363
10
112.07730935681809
20
-8.2055400535127543
42
0.41421356237310375
10
112.37730935681813
20
-8.5055400535022674
10
125.77730935681814
20
-8.5055400535114778
42
0.41421356238279833
0
LWPOLYLINE
5
195
100
AcDbEntity
8
0
100
AcDbPolyline
90
8
70
1
43
0.0
10
68.927309356818228
20
-8.2055400535068035
10
68.927309356816977
20
5.1944599464876395
42
0.41421356237411827
10
68.627309356816937
20
5.4944599464870914
10
55.227309356816988
20
5.4944599464874022
42
0.41421356237410095
10
54.927309356817048
20
5.1944599464863428
10
54.92730935681827
20
-8.2055400535180532
42
0.41421356237308204
10
55.227309356818282
20
-8.5055400535075609
10
68.62730935681823
20
-8.5055400535167749
42
0.41421356238282003
0
LWPOLYLINE
5
196
100
AcDbEntity
8
0
100
AcDbPolyline
90
8
70
1
43
0.0
10
7.6023093568166544
20
10.544459946481478
10
21.002309356816617
20
10.544459946482711
42
0.41421356237206319
10
21.302309356816576
20
10.844459946482235
10
21.30230935681535
20
24.244459946487677
42
0.41421356237310375
10
21.002309356815321
20
24.54445994648713
10
7.6023093568153577
20
24.544459946486409
42
0.41421356237309503
10
7.3023093568153818
20
24.24445994648638
10
7.3023093568166253
20
10.844459946481987
42
0.41421356237309503
0
LWPOLYLINE
5
197
100
AcDbEntity
8
0
100
AcDbPolyline
90
8
70
1
43
0.0
10
-26.32269064318151
20
-8.205540053515632
10
-26.322690643182753
20
5.1944599464788199
42
0.41421356237410956
10
-26.622690643182771
20
5.4944599464782717
10
-40.022690643182735
20
5.4944599464785826
42
0.41421356237410956
10
-40.32269064318271
20
5.1944599464775232
10
-40.322690643181467
20
-8.2055400535268763
42
0.41421356237309076
10
-40.022690643181434
20
-8.5055400535163841
10
-26.622690643181475
20
-8.5055400535255998
42
0.41421356238280704
0
LWPOLYLINE
5
198
100
AcDbEntity
8
0
100
AcDbPolyline
90
8
70
1
43
0.0
10
-16.79769064317977
20
-27.255540053519198
10
-16.797690643181014
20
-13.855540053524749
42
0.41421356237411394
10
-17.097690643181025
20
-13.555540053515344
10
-30.497690643180995
20
-13.555540053524977
42
0.41421356237411394
10
-30.797690643180964
20
-13.855540053526045
10
-30.797690643179727
20
-27.255540053520441
42
0.41421356237309503
10
-30.497690643179702
20
-27.555540053520943
10
-17.097690643179728
20
-27.555540053519167
42
0.41421356237304302
0
LWPOLYLINE
5
199
100
AcDbEntity
8
0
100
AcDbPolyline
90
8
70
1
43
0.0
10
30.827309356818322
20
-8.2055400535103331
10
30.827309356817079
20
5.1944599464841135
42
0.41421356237411827
10
30.527309356817067
20
5.4944599464835653
10
17.127309356817104
20
5.4944599464838761
42
0.41421356237410095
10
16.827309356817128
20
5.1944599464828167
10
16.82730935681839
20
-8.2055400535215774
42
0.41421356237308637
10
17.127309356818401
20
-8.5055400535110905
10
30.527309356818364
20
-8.5055400535203063
42
0.41421356238282003
0
LWPOLYLINE
5
200
100
AcDbEntity
8
0
100
AcDbPolyline
90
8
70
1
43
0.0
10
49.877309356818259
20
-8.205540053508571
10
49.877309356817022
20
5.1944599464858809
42
0.41421356237410956
10
49.577309356816968
20
5.4944599464853239
10
36.177309356817048
20
5.4944599464856436
42
0.41421356237410095
10
35.877309356817086
20
5.1944599464845842
10
35.87730935681833
20
-8.2055400535198153
42
0.41421356237308637
10
36.177309356818341
20
-8.5055400535093284
10
49.577309356818269
20
-8.5055400535185388
42
0.41421356238281565
0
LWPOLYLINE
5
201
100
AcDbEntity
8
0
100
AcDbPolyline
90
8
70
1
43
0.0
10
87.977309356818154
20
-8.2055400535050396
10
87.977309356816917
20
5.194459946489407
42
0.41421356237411827
10
87.677309356816906
20
5.4944599464888588
10
74.277309356816943
20
5.4944599464891697
42
0.41421356237410095
10
73.97730935681696
20
5.1944599464881103
10
73.977309356818211
20
-8.2055400535162839
42
0.41421356237310375
10
74.27730935681825
20
-8.505540053505797
10
87.677309356818228
20
-8.5055400535150092
42
0.41421356238279833
0
LWPOLYLINE
5
202
100
AcDbEntity
8
0
100
AcDbPolyline
90
8
70
1
43
0.0
10
83.802309356816451
20
10.54445994648853
10
97.202309356816386
20
10.544459946489773
42
0.41421356237206319
10
97.502309356816355
20
10.844459946489295
10
97.502309356815118
20
24.244459946494739
42
0.41421356237310375
10
97.202309356815064
20
24.544459946494189
10
83.80230935681513
20
24.544459946493461
42
0.41421356237308637
10
83.502309356815161
20
24.244459946493443
10
83.502309356816397
20
10.844459946489046
42
0.41421356237310375
0
LWPOLYLINE
5
203
100
AcDbEntity
8
0
100
AcDbPolyline
90
8
70
1
43
0.0
10
121.90230935681633
20
10.544459946492065
10
135.30230935681632
20
10.544459946493308
42
0.41421356237206319
10
135.60230935681628
20
10.84445994649283
10
135.60230935681506
20
24.244459946498274
42
0.41421356237310375
10
135.30230935681502
20
24.544459946497724
10
121.90230935681501
20
24.544459946496996
42
0.41421356237308637
10
121.60230935681504
20
24.244459946496978
10
121.60230935681628
20
10.844459946492581
42
0.41421356237310375
0
LWPOLYLINE
5
204
100
AcDbEntity
8
0
100
AcDbPolyline
90
8
70
1
43
0.0
10
192.75230935681964
20
-27.257549186056288
10
192.75230935681839
20
-13.857549186052838
42
0.41421356237309936
10
192.45230935681835
20
-13.557549186053382
10
179.05230935681843
20
-13.557549186054114
42
0.41421356237308637
10
178.75230935681844
20
-13.857549186054134
10
178.75230935681969
20
-27.25754918605654
42
0.41421356237306473
10
179.05230935681971
20
-27.557549186057045
10
192.45230935681963
20
-27.557549186055269
42
0.41421356237210222
0
LWPOLYLINE
5
205
100
AcDbEntity
8
0
100
AcDbPolyline
90
8
70
1
43
0.0
10
168.93980935681441
20
29.894459946500355
10
168.93980935681316
20
43.294459946495856
42
0.41421356237311241
10
168.63980935681312
20
43.59445994649532
10
155.2398093568132
20
43.594459946494588
42
0.41421356237309503
10
154.93980935681321
20
43.294459946494555
10
154.93980935681446
20
29.894459946500099
42
0.41421356237306034
10
155.23980935681448
20
29.594459946499608
10
168.6398093568144
20
29.594459946501367
42
0.41421356237210649
0
LWPOLYLINE
5
206
100
AcDbEntity
8
0
100
AcDbPolyline
90
8
70
1
43
0.0
10
159.41480935681267
20
48.944459946494007
10
159.41480935681142
20
62.344459946499441
42
0.41421356237309503
10
159.11480935681141
20
62.644459946498884
10
145.71480935681143
20
62.644459946498152
42
0.41421356237307771
10
145.41480935681147
20
62.344459946498141
10
145.41480935681273
20
48.944459946492707
42
0.41421356237311241
10
145.71480935681276
20
48.644459946493214
10
159.11480935681271
20
48.644459946493939
42
0.41421356237309503
0
LWPOLYLINE
5
207
100
AcDbEntity
8
0
100
AcDbPolyline
90
8
70
1
43
0.0
10
92.739809356814646
20
29.894459946493303
10
92.739809356813396
20
43.2944599464888
42
0.41421356237309503
10
92.439809356813356
20
43.594459946488243
10
79.039809356813393
20
43.594459946487518
42
0.41421356237307771
10
78.739809356813424
20
43.294459946487507
10
78.739809356814661
20
29.894459946493047
42
0.414213562373069
10
79.039809356814672
20
29.594459946492545
10
92.439809356814635
20
29.594459946494315
42
0.41421356237210649
0
LWPOLYLINE
5
208
100
AcDbEntity
8
0
100
AcDbPolyline
90
8
70
1
43
0.0
10
35.58980935681479
20
29.894459946488009
10
35.589809356813547
20
43.294459946483514
42
0.41421356237309503
10
35.2898093568135
20
43.594459946482957
10
21.889809356813554
20
43.594459946482225
42
0.41421356237307771
10
21.589809356813578
20
43.294459946482213
10
21.58980935681484
20
29.894459946487743
42
0.41421356237309503
10
21.889809356814869
20
29.594459946487252
10
35.289809356814814
20
29.59445994648901
42
0.41421356237208046
0
LWPOLYLINE
5
209
100
AcDbEntity
8
0
100
AcDbPolyline
90
8
70
1
43
0.0
10
26.064809356813043
20
48.944459946481643
10
26.0648093568118
20
62.344459946487078
42
0.41421356237311241
10
25.764809356811771
20
62.644459946486535
10
12.364809356811808
20
62.64445994648581
42
0.41421356237309503
10
12.06480935681185
20
62.344459946485777
10
12.064809356813111
20
48.944459946480343
42
0.41421356237307771
10
12.364809356813105
20
48.644459946480865
10
25.764809356813068
20
48.644459946481589
42
0.41421356237309503
0
LWPOLYLINE
5
210
100
AcDbEntity
8
0
100
AcDbPolyline
90
8
70
1
43
0.0
10
-49.547690643183188
20
10.544459946476174
10
-36.147690643183211
20
10.544459946477417
42
0.41421356237207185
10
-35.847690643183242
20
10.844459946476942
10
-35.847690643184478
20
24.244459946482383
42
0.41421356237309503
10
-36.147690643184511
20
24.544459946481837
10
-49.547690643184481
20
24.544459946481108
42
0.41421356237308637
10
-49.847690643184457
20
24.244459946481086
10
-49.847690643183206
20
10.844459946476693
42
0.41421356237308637
0
LWPOLYLINE
5
211
100
AcDbEntity
8
0
100
AcDbPolyline
90
8
70
1
43
0.0
10
-21.560190643185059
20
29.894459946482709
10
-21.560190643186303
20
43.294459946478213
42
0.41421356237308637
10
-21.860190643186321
20
43.594459946477656
10
-35.260190643186291
20
43.594459946476931
42
0.41421356237308637
10
-35.560190643186253
20
43.29445994647692
10
-35.560190643185017
20
29.894459946482449
42
0.41421356237309503
10
-35.260190643184998
20
29.594459946481951
10
-21.860190643185025
20
29.594459946483717
42
0.41421356237208046
0
LWPOLYLINE
5
212
100
AcDbEntity
8
0
100
AcDbPolyline
90
8
70
1
43
0.0
10
-83.185190643187894
20
62.344459946476945
10
-83.185190643186644
20
48.944459946471511
42
0.41421356237309503
10
-82.885190643186618
20
48.64445994647204
10
-69.485190643186655
20
48.644459946472764
42
0.41421356237308637
10
-69.185190643186701
20
48.944459946472811
10
-69.185190643187923
20
62.344459946478246
42
0.41421356237311241
10
-69.485190643187963
20
62.64445994647771
10
-82.885190643187912
20
62.644459946476978
42
0.41421356237311241
0
LWPOLYLINE
5
213
100
AcDbEntity
8
0
100
AcDbPolyline
90
8
70
1
43
0.0
10
-12.035190643186846
20
48.944459946478105
10
-12.03519064318809
20
62.344459946483539
42
0.41421356237310375
10
-12.335190643188128
20
62.644459946482996
10
-25.735190643188083
20
62.644459946482272
42
0.41421356237310375
10
-26.035190643188059
20
62.344459946482246
10
-26.035190643186816
20
48.944459946476812
42
0.41421356237308637
10
-25.735190643186783
20
48.644459946477326
10
-12.335190643186831
20
48.644459946478058
42
0.41421356237308637
0
LWPOLYLINE
5
214
100
AcDbEntity
8
0
100
AcDbPolyline
90
8
70
1
43
0.0
10
-80.803940643184376
20
24.244459946478219
10
-80.803940643183125
20
10.844459946472774
42
0.41421356237205448
10
-80.5039406431831
20
10.544459946473314
10
-62.341440643183148
20
10.544459946475534
42
0.41421356237208046
10
-62.041440643183172
20
10.844459946474515
10
-62.041440643184416
20
24.24445994647996
42
0.41421356237310375
10
-62.341440643184441
20
24.54445994647941
10
-80.503940643184393
20
24.544459946478248
42
0.41421356237309503
0
LWPOLYLINE
5
215
100
AcDbEntity
8
0
100
AcDbPolyline
90
8
70
1
43
0.0
10
7.0148093568131031
20
48.944459946479881
10
7.0148093568118597
20
62.344459946485316
42
0.41421356237309503
10
6.7148093568118306
20
62.644459946484758
10
-6.6851906431881325
20
62.644459946484034
42
0.41421356237307771
10
-6.9851906431880906
20
62.344459946484022
10
-6.9851906431868471
20
48.944459946478588
42
0.41421356237309503
10
-6.6851906431868358
20
48.644459946479088
10
6.7148093568131273
20
48.644459946479813
42
0.41421356237311241
0
LWPOLYLINE
5
216
100
AcDbEntity
8
0
100
AcDbPolyline
90
8
70
1
43
0.0
10
64.164809356812938
20
48.944459946485175
10
64.164809356811702
20
62.344459946490609
42
0.41421356237309503
10
63.864809356811669
20
62.644459946490052
10
50.464809356811706
20
62.64445994648932
42
0.41421356237307771
10
50.16480935681173
20
62.344459946489309
10
50.164809356812995
20
48.944459946483875
42
0.41421356237309503
10
50.464809356813007
20
48.644459946484382
10
63.86480935681297
20
48.644459946485114
42
0.41421356237311241
0
LWPOLYLINE
5
217
100
AcDbEntity
8
0
100
AcDbPolyline
90
8
70
1
43
0.0
10
73.689809356814706
20
29.894459946491537
10
73.68980935681347
20
43.294459946487024
42
0.41421356237311241
10
73.389809356813416
20
43.594459946486488
10
59.989809356813453
20
43.594459946485756
42
0.41421356237309503
10
59.689809356813477
20
43.29445994648573
10
59.689809356814735
20
29.894459946491278
42
0.41421356237310375
10
59.989809356814767
20
29.59445994649078
10
73.389809356814695
20
29.594459946492545
42
0.41421356237210649
0
LWPOLYLINE
5
218
100
AcDbEntity
8
0
100
AcDbPolyline
90
8
70
1
43
0.0
10
140.36480935681271
20
48.944459946492231
10
140.36480935681146
20
62.344459946497665
42
0.41421356237311241
10
140.06480935681142
20
62.644459946497122
10
126.66480935681147
20
62.644459946496397
42
0.41421356237309503
10
126.36480935681152
20
62.344459946496364
10
126.36480935681274
20
48.94445994649093
42
0.41421356237309503
10
126.66480935681278
20
48.644459946491452
10
140.06480935681276
20
48.644459946492177
42
0.41421356237307771
0
LWPOLYLINE
5
219
100
AcDbEntity
8
0
100
AcDbPolyline
90
8
70
1
43
0.0
10
140.95230935681627
20
10.543455380214596
10
154.35230935681625
20
10.543455380215828
42
0.41421356237206319
10
154.6523093568162
20
10.843455380215335
10
154.65230935681495
20
24.243455380220777
42
0.41421356237310375
10
154.35230935681491
20
24.543455380220237
10
140.95230935681496
20
24.54345538021952
42
0.41421356237309503
10
140.65230935681498
20
24.24345538021948
10
140.65230935681623
20
10.843455380215087
42
0.41421356237309503
0
LWPOLYLINE
5
220
100
AcDbEntity
8
0
100
AcDbPolyline
90
8
70
1
43
0.0
10
111.78980935681459
20
29.894459946495061
10
111.78980935681335
20
43.294459946490562
42
0.41421356237311241
10
111.48980935681334
20
43.594459946490019
10
98.089809356813362
20
43.594459946489295
42
0.41421356237309503
10
97.789809356813393
20
43.294459946489269
10
97.789809356814629
20
29.894459946494806
42
0.414213562373069
10
98.089809356814641
20
29.594459946494304
10
111.48980935681462
20
29.594459946496073
42
0.41421356237210649
0
LWPOLYLINE
5
221
100
AcDbEntity
8
0
100
AcDbPolyline
90
8
70
1
43
0.0
10
64.164809356820001
20
-27.256544619789945
10
64.164809356818751
20
-13.85654461978655
42
0.41421356237410528
10
63.864809356818739
20
-13.556544619786042
10
50.464809356818776
20
-13.556544619786779
42
0.4142135623741226
10
50.164809356818779
20
-13.856544619787847
10
50.164809356820044
20
-27.256544619791192
42
0.41421356237309936
10
50.464809356820069
20
-27.556544619790703
10
63.864809356820032
20
-27.556544619789921
42
0.41421356237303869
0
LWPOLYLINE
5
222
100
AcDbEntity
8
0
100
AcDbPolyline
90
8
70
1
43
0.0
10
45.702309356816535
20
10.544459946485002
10
59.102309356816498
20
10.544459946486246
42
0.41421356237206319
10
59.402309356816474
20
10.84445994648577
10
59.402309356815231
20
24.244459946491212
42
0.41421356237310375
10
59.102309356815198
20
24.544459946490665
10
45.702309356815235
20
24.544459946489937
42
0.41421356237308637
10
45.402309356815294
20
24.244459946489915
10
45.402309356816502
20
10.844459946485522
42
0.41421356237310375
0
LWPOLYLINE
5
223
100
AcDbEntity
8
0
100
AcDbPolyline
90
8
70
1
43
0.0
10
-11.447690643183295
20
10.544459946479709
10
1.9523093568166772
20
10.544459946480952
42
0.41421356237206319
10
2.2523093568166352
20
10.844459946480477
10
2.2523093568154096
20
24.244459946485918
42
0.41421356237310375
10
1.9523093568153804
20
24.544459946485372
10
-11.447690643184592
20
24.544459946484643
42
0.41421356237309503
10
-11.747690643184558
20
24.244459946484621
10
-11.747690643183324
20
10.844459946480228
42
0.41421356237309503
0
LWPOLYLINE
5
224
100
AcDbEntity
8
0
100
AcDbPolyline
90
8
70
1
43
0.0
10
-7.2726906431815586
20
-8.2055400535138645
10
-7.272690643182802
20
5.1944599464805785
42
0.41421356237411827
10
-7.5726906431828311
20
5.4944599464800303
10
-20.972690643182787
20
5.4944599464803501
42
0.41421356237411827
10
-21.27269064318277
20
5.1944599464792818
10
-21.272690643181519
20
-8.2055400535251088
42
0.41421356237309503
10
-20.972690643181487
20
-8.5055400535146219
10
-7.5726906431815344
20
-8.5055400535238324
42
0.41421356238281565
0
LWPOLYLINE
5
225
100
AcDbEntity
8
0
100
AcDbPolyline
90
5
70
1
43
0.0
10
-59.164515609632851
20
29.594459939044565
42
-0.4142184635876337
10
-59.664523976514957
20
30.094459938974506
10
-59.664523976516179
20
43.09445994647767
42
-0.99999999999999989
10
-58.664523976516179
20
43.094459946477741
10
-58.664523976793184
20
30.094476618728127
42
-0.4142184319488379
0
LWPOLYLINE
5
226
100
AcDbEntity
8
0
100
AcDbPolyline
90
4
70
1
43
0.0
10
-83.685190643186104
20
43.094459946475432
10
-83.685190643184896
20
30.094459946472952
42
0.99999999999999989
10
-82.685190643184896
20
30.094459946473048
10
-82.685190643186104
20
43.094459946475524
42
0.99999999999999989
0
LWPOLYLINE
5
227
100
AcDbEntity
8
0
100
AcDbPolyline
90
4
70
1
43
0.0
10
-54.695690643183212
20
11.044459946481137
10
-54.69569064318442
20
24.044459946473648
42
0.99999999999999989
10
-55.69569064318442
20
24.044459946473552
10
-55.695690643183212
20
11.044459946481041
42
0.99999999999999989
0
LWPOLYLINE
5
228
100
AcDbEntity
8
0
100
AcDbPolyline
90
4
70
1
43
0.0
10
198.61047602351434
20
30.094459946500155
10
198.61047602351312
20
43.09445994650261
42
0.99999999999999989
10
197.61047602351312
20
43.094459946502525
10
197.61047602351431
20
30.094459946500066
42
0.99999999999999989
0
LWPOLYLINE
5
229
100
AcDbEntity
8
0
100
AcDbPolyline
90
4
70
1
43
0.0
10
173.89414269011436
20
30.094459946497864
10
173.89414269011314
20
43.094459946500322
42
0.99999999999999989
10
172.89414269011317
20
43.09445994650023
10
172.89414269011439
20
30.094459946497775
42
0.99999999999999989
0
LWPOLYLINE
5
230
100
AcDbEntity
8
0
100
AcDbPolyline
90
8
70
1
43
0.0
10
-41.110190643180964
20
-13.555540053526469
10
-54.110190643180935
20
-13.555540053527672
42
0.41421356237492901
10
-54.610190643180879
20
-14.055540053523202
10
-54.610190643179678
20
-27.055540053523512
42
0.41421356237309503
10
-54.110190643179635
20
-27.555540053523082
10
-41.110190643179664
20
-27.555540053522265
42
0.41421356237300661
10
-40.610190643179713
20
-27.055540053522371
10
-40.610190643180921
20
-14.055540053518772
42
0.41421356237309503
0
ARC
5
231
100
AcDbEntity
8
0
100
AcDbCircle
10
155.43980935681856
20
-14.056544619784063
30
4.1678131008353281e-10
40
0.50000000000002554
210
5.5321689708609603e-14
220
-3.0264629089173764e-11
230
1
100
AcDbArc
50
90.104732683031898
51
180.03837159428986
0
LINE
5
232
100
AcDbEntity
8
0
100
AcDbLine
10
155.4388963096267
20
-13.557549186057862
30
5.1658677335808534e-12
11
168.44072290389451
21
-13.557549186056654
31
5.1658677335808534e-12
0
ARC
5
233
100
AcDbEntity
8
0
100
AcDbCircle
10
168.4398093568185
20
-14.056544619782848
30
-3.8478165052166602e-09
40
0.50000000000001021
210
-2.2766228237494578e-11
220
1.5246788008386061e-14
230
1
100
AcDbArc
50
-0.038371594289842111
51
89.895209976909925
0
LINE
5
234
100
AcDbEntity
8
0
100
AcDbLine
10
168.93980924469042
20
-14.056879475087602
30
-1.4799272918253337e-12
11
168.93980930098635
21
-27.057214330713066
31
4.6829207178689103e-12
0
ARC
5
235
100
AcDbEntity
8
0
100
AcDbCircle
10
168.43980935681969
20
-27.057549186057571
30
4.6840309408935354e-12
40
0.49999999999999822
210
3.1554436208840696e-28
220
-4.4408920985006419e-15
230
1
100
AcDbArc
50
-89.999999999996746
51
0.038371594517808139
0
LINE
5
236
100
AcDbEntity
8
0
100
AcDbLine
10
168.43980935681972
20
-27.557549186057567
30
4.6818104948442851e-12
11
155.43980935681975
21
-27.557549186059283
31
-1.4488410471358293e-12
0
ARC
5
237
100
AcDbEntity
8
0
100
AcDbCircle
10
155.43980935681969
20
-27.057549186058836
30
-6.1788598854582098e-10
40
0.4999999999999295
210
-4.8929632849328584e-12
220
-4.9106780222377462e-12
230
1
100
AcDbArc
50
225.10353077456386
51
270.00000000000648
0
ARC
5
238
100
AcDbEntity
8
0
100
AcDbCircle
10
155.43980935681975
20
-27.056544619781484
30
-2.6025625510624105e-08
40
0.50000000000004263
210
-1.6800782987046137e-10
220
-2.6859767189684608e-23
230
1
100
AcDbArc
50
180
51
225.18472423307929
0
LINE
5
239
100
AcDbEntity
8
0
100
AcDbLine
10
154.93980935681972
20
-27.056544619781562
30
5.4756199574512721e-12
11
154.93980946894663
21
-14.056879475088898
31
-1.4799272918253337e-12
0
ARC
5
240
100
AcDbEntity
8
0
100
AcDbCircle
10
157.62105935681674
20
5.1924508139384118
30
1.1850520564848921e-11
40
0.29999999999999649
210
1.1855157012243044e-14
220
2.031953451192864e-13
230
1
100
AcDbArc
50
86.660940664605846
51
180
0
LINE
5
241
100
AcDbEntity
8
0
100
AcDbLine
10
157.63853273595583
20
5.4919415166679952
30
1.1789458298494537e-11
11
180.54665004150593
21
5.4934358492751434
31
5.1858517480241062e-12
0
ARC
5
242
100
AcDbEntity
8
0
100
AcDbCircle
10
180.54605935681661
20
5.1934358101119438
30
4.2695774477467564e-09
40
0.3000000000000469
210
2.3577436299619226e-11
220
4.8862263597403442e-24
230
1
100
AcDbArc
50
0
51
89.88718769477326
0
LINE
5
243
100
AcDbEntity
8
0
100
AcDbLine
10
180.84605935681665
20
5.1934358101120059
30
5.6910032242285524e-12
11
180.8460593568179
21
-8.2065641886157579
31
9.8498986744743888e-12
0
ARC
5
244
100
AcDbEntity
8
0
100
AcDbCircle
10
180.54605935681789
20
-8.2065641886168272
30
3.3019392465708797e-10
40
0.30000000000000326
210
-7.710667524980978e-14
220
-4.0027166513668435e-11
230
1
100
AcDbArc
50
-90.110372079369839
51
0
0
LINE
5
245
100
AcDbEntity
8
0
100
AcDbLine
10
180.54548145031913
20
-8.5065636319897777
30
3.6215475063272606e-12
11
165.74663760990163
21
-8.5075295788621439
31
5.1747495177778546e-12
0
ARC
5
246
100
AcDbEntity
8
0
100
AcDbCircle
10
165.74605935681805
20
-8.8075296172262583
30
-4.3220085973908699e-10
40
0.30000059565790654
210
1.0296050264096701e-13
220
5.3416325169804547e-11
230
1
100
AcDbArc
50
89.889561946961905
51
180
0
LINE
5
247
100
AcDbEntity
8
0
100
AcDbLine
10
165.44605935681801
20
-8.8075296172252138
30
9.2559293562999301e-12
11
165.44605935681807
21
-9.7065446197844985
31
1.1396439347777232e-11
0
ARC
5
248
100
AcDbEntity
8
0
100
AcDbCircle
10
165.14605935681811
20
-9.7065446197845251
30
1.1396439347777232e-11
40
0.30000000000000249
210
-2.2789315039717741e-26
220
1.924386576016922e-13
230
1
100
AcDbArc
50
-89.999999999994614
51
0
0
LINE
5
249
100
AcDbEntity
8
0
100
AcDbLine
10
165.14605935681814
20
-10.006544619784528
30
1.145417094505774e-11
11
158.74605935681817
21
-10.006544619784616
31
1.1651790643441018e-11
0
ARC
5
250
100
AcDbEntity
8
0
100
AcDbCircle
10
158.74605935681814
20
-9.7065446197851202
30
1.1396439347777232e-11
40
0.30000000000001137
210
0
220
0
230
1
100
AcDbArc
50
180
51
270.0000000000054
0
LINE
5
251
100
AcDbEntity
8
0
100
AcDbLine
10
158.44605935681813
20
-9.7065446197851468
30
1.1396439347777232e-11
11
158.44605935681807
21
-8.8075491860559918
31
8.9983576145868938e-12
0
ARC
5
252
100
AcDbEntity
8
0
100
AcDbCircle
10
158.14605935681806
20
-8.8075491860560184
30
8.9983576145868938e-12
40
0.30000000000001137
210
0
220
-0
230
1
100
AcDbArc
50
0
51
90.000000000010857
0
LINE
5
253
100
AcDbEntity
8
0
100
AcDbLine
10
158.146059356818
20
-8.5075491860560213
30
8.9395157942817605e-12
11
157.62105935681802
21
-8.507549186056572
31
8.7407858728738574e-12
0
ARC
5
254
100
AcDbEntity
8
0
100
AcDbCircle
10
157.62105935681799
20
-8.2075491860570828
30
8.4832141311608211e-12
40
0.30000000000001137
210
0
220
0
230
1
100
AcDbArc
50
180
51
270.0000000000054
0
LINE
5
255
100
AcDbEntity
8
0
100
AcDbLine
10
157.32105935681798
20
-8.2075491860571113
30
8.4832141311608211e-12
11
157.32105935681673
21
5.1924508139373282
31
1.1850520564848921e-11
0
LWPOLYLINE
5
256
100
AcDbEntity
8
0
100
AcDbPolyline
90
24
70
1
43
0.0
10
197.21480935681129
20
62.644459946502415
10
164.76480935681136
20
62.644459946498344
42
0.41421356237307771
10
164.4648093568114
20
62.344459946499896
10
164.46480935681262
20
48.944459946494462
42
0.41421356237311241
10
164.76480935681266
20
48.644459946494969
10
165.28980935681267
20
48.644459946495573
42
-0.41421356237306034
10
165.58980935681268
20
48.344459946495597
10
165.58980935681276
20
47.444459946497126
42
0.41421356237307771
10
165.88980935681278
20
47.144459946497662
10
172.28980935681281
20
47.144459946497733
42
0.41421356237311241
10
172.58980935681276
20
47.444459946497766
10
172.58980935681322
20
48.344459946496237
42
-0.41421356237312978
10
172.88980935681266
20
48.644459946495729
10
189.08980935681259
20
48.644459946497776
42
-0.41421356237306034
10
189.38980935681261
20
48.3444599464978
10
189.38980935681272
20
47.444459946499329
42
0.41421356237307771
10
189.68980935681273
20
47.144459946499865
10
196.08980935681271
20
47.144459946499936
42
0.41421356237311241
10
196.38980935681272
20
47.444459946499968
10
196.38980935681317
20
48.344459946498439
42
-0.41421356237312978
10
196.68980935681262
20
48.644459946497932
10
197.21480935681259
20
48.644459946497477
42
0.41421356237307771
10
197.51480935681258
20
48.944459946497517
10
197.51480935681133
20
62.344459946502951
42
0.41421356237311241
0
LINE
5
257
100
AcDbEntity
8
0
100
AcDbLine
10
182.54605370181662
20
5.4924523360317545
30
1.4888090760223349e-12
11
197.21480935681657
21
5.4924508139405104
31
1.6475709685437323e-12
0
ARC
5
258
100
AcDbEntity
8
0
100
AcDbCircle
10
197.2148093568166
20
5.19245081394208
30
1.1851630787873546e-11
40
0.30000000000001137
210
0
220
-0
230
1
100
AcDbArc
50
0
51
90.000000000005429
0
LINE
5
259
100
AcDbEntity
8
0
100
AcDbLine
10
197.51480935681661
20
5.1924508139421155
30
1.1851630787873546e-11
11
197.51480935681786
21
-8.207549186053388
31
8.4843243541854463e-12
0
ARC
5
260
100
AcDbEntity
8
0
100
AcDbCircle
10
197.21480935681785
20
-8.2075491860534164
30
8.4843243541854463e-12
40
0.29999999999999805
210
-2.2789315039718416e-26
220
1.9243865760169505e-13
230
1
100
AcDbArc
50
-89.999999999989157
51
0
0
LINE
5
261
100
AcDbEntity
8
0
100
AcDbLine
10
197.21480935681791
20
-8.5075491860534136
30
8.5420559514659544e-12
11
189.54605935681792
21
-8.5075491860536125
31
8.7418960958984826e-12
0
ARC
5
262
100
AcDbEntity
8
0
100
AcDbCircle
10
189.54605935681795
20
-8.8075491860531088
30
8.9994678376115189e-12
40
0.29999999999949623
210
-1.016754055621608e-25
220
8.585724723782296e-13
230
1
100
AcDbArc
50
90.000000000005429
51
180
0
LINE
5
263
100
AcDbEntity
8
0
100
AcDbLine
10
189.24605935681794
20
-8.8075491860531372
30
8.9994678376115189e-12
11
189.24605935681799
21
-9.7065446197822922
31
1.1397549570801857e-11
0
ARC
5
264
100
AcDbEntity
8
0
100
AcDbCircle
10
188.94605935681801
20
-9.7065446197823224
30
1.1397549570801857e-11
40
0.30000000000000249
210
-2.2789315039717741e-26
220
1.924386576016922e-13
230
1
100
AcDbArc
50
-89.999999999989157
51
0
0
LINE
5
265
100
AcDbEntity
8
0
100
AcDbLine
10
188.94605935681807
20
-10.006544619782325
30
1.1455281168082365e-11
11
182.54605935681806
21
-10.006544619783453
31
1.7064127888488656e-12
0
ARC
5
266
100
AcDbEntity
8
0
100
AcDbCircle
10
182.54605935681803
20
-9.7065446197829139
30
1.1396439347777232e-11
40
0.30000000000001137
210
0
220
0
230
1
100
AcDbArc
50
180
51
270.0000000000054
0
LINE
5
267
100
AcDbEntity
8
0
100
AcDbLine
10
182.24605935681802
20
-9.7065446197829388
30
1.1396439347777232e-11
11
182.24605935681663
21
5.192455380224561
31
5.1769699638271049e-12
0
ARC
5
268
100
AcDbEntity
8
0
100
AcDbCircle
10
182.54605935681664
20
5.1924553802256357
30
2.5089954074092217e-10
40
0.29999695585941777
210
-8.5651855222409198e-16
220
4.5438188713867042e-11
230
1
100
AcDbArc
50
90.001080036407714
51
180
0
CIRCLE
5
269
100
AcDbEntity
8
0
100
AcDbCircle
10
-86.49940420556122
20
65.958673508802349
30
2.723377079405509e-12
40
0.97999999999999998
210
-4.7331654313260722e-30
220
2.775557561562892e-17
230
1
0
CIRCLE
5
270
100
AcDbEntity
8
0
100
AcDbCircle
10
200.82902291921096
20
65.95867350882898
30
2.7267077484793845e-12
40
0.93000000000000016
210
-4.7331654313260722e-30
220
2.775557561562892e-17
230
1
0
CIRCLE
5
271
100
AcDbEntity
8
0
100
AcDbCircle
10
-86.499404205552239
20
-30.872178887458603
30
4.9737991503207013e-12
40
0.93000000000000016
210
-4.7331654313260722e-30
220
2.775557561562892e-17
230
1
0
CIRCLE
5
272
100
AcDbEntity
8
0
100
AcDbCircle
10
200.82902291921994
20
-30.872178887431986
30
4.9771298193945768e-12
40
0.93000000000000016
210
-4.7331654313260722e-30
220
2.775557561562892e-17
230
1
0
ENDSEC
0
SECTION
2
OBJECTS
0
DICTIONARY
5
C
100
AcDbDictionary
3
ACAD_GROUP
350
D
3
ACAD_MLINESTYLE
350
17
0
DICTIONARY
5
D
100
AcDbDictionary
0
DICTIONARY
5
1A
330
C
100
AcDbDictionary
0
DICTIONARY
5
17
100
AcDbDictionary
0
ENDSEC
0
EOF
