0
SECTION
2
HEADER
9
$INSUNITS
70
4
9
$ACADVER
1
AC1014
9
$HANDSEED
5
FFFF
0
ENDSEC
0
SECTION
2
TABLES
0
TABLE
2
VPORT
5
8
100
AcDbSymbolTable
0
ENDTAB
0
TABLE
2
LTYPE
5
5
100
AcDbSymbolTable
0
LTYPE
5
14
100
AcDbSymbolTableRecord
100
AcDbLinetypeTableRecord
2
BYBLOCK
70
0
0
LTYPE
5
15
100
AcDbSymbolTableRecord
100
AcDbLinetypeTableRecord
2
BYLAYER
70
0
0
ENDTAB
0
TABLE
2
LAYER
5
2
100
AcDbSymbolTable
70
2
0
LAYER
5
50
100
AcDbSymbolTableRecord
100
AcDbLayerTableRecord
2
0
70
0
6
CONTINUOUS
0
ENDTAB
0
TABLE
2
STYLE
5
3
100
AcDbSymbolTable
70
1
0
STYLE
5
11
100
AcDbSymbolTableRecord
100
AcDbTextStyleTableRecord
2
STANDARD
70
0
0
ENDTAB
0
TABLE
2
VIEW
5
6
100
AcDbSymbolTable
70
0
0
ENDTAB
0
TABLE
2
UCS
5
7
100
AcDbSymbolTable
70
0
0
ENDTAB
0
TABLE
2
APPID
5
9
100
AcDbSymbolTable
70
2
0
APPID
5
12
100
AcDbSymbolTableRecord
100
AcDbRegAppTableRecord
2
ACAD
70
0
0
ENDTAB
0
TABLE
2
DIMSTYLE
5
A
100
AcDbSymbolTable
70
1
0
ENDTAB
0
TABLE
2
BLOCK_RECORD
5
1
100
AcDbSymbolTable
70
1
0
BLOCK_RECORD
5
1F
100
AcDbSymbolTableRecord
100
AcDbBlockTableRecord
2
*MODEL_SPACE
0
BLOCK_RECORD
5
1B
100
AcDbSymbolTableRecord
100
AcDbBlockTableRecord
2
*PAPER_SPACE
0
ENDTAB
0
ENDSEC
0
SECTION
2
BLOCKS
0
BLOCK
5
20
100
AcDbEntity
100
AcDbBlockBegin
2
*MODEL_SPACE
0
ENDBLK
5
21
100
AcDbEntity
100
AcDbBlockEnd
0
BLOCK
5
1C
100
AcDbEntity
100
AcDbBlockBegin
2
*PAPER_SPACE
0
ENDBLK
5
1D
100
AcDbEntity
100
AcDbBlockEnd
0
ENDSEC
0
SECTION
2
ENTITIES
0
LWPOLYLINE
5
100
100
AcDbEntity
8
0
100
AcDbPolyline
90
8
70
1
43
0.0
10
163.70855935681689
20
9.0434553802195605
10
169.70855935681692
20
9.0434553802201023
42
0.41421356237307422
10
170.20855935681683
20
9.5434553802201627
10
170.20855935681556
20
23.543455380215612
42
0.41421356237308982
10
169.70855935681553
20
24.043455380215573
10
163.70855935681556
20
24.043455380215022
42
0.41421356237310542
10
163.20855935681553
20
23.543455380214962
10
163.20855935681681
20
9.5434553802195143
42
0.41421356237311063
0
LWPOLYLINE
5
101
100
AcDbEntity
8
0
100
AcDbPolyline
90
8
70
1
43
0.0
10
193.50855935681551
20
24.043455380217786
10
187.5085593568156
20
24.043455380217225
42
0.41421356237310025
10
187.00855935681562
20
23.543455380217175
10
187.0085593568169
20
9.5434553802217081
42
0.41421356237310025
10
187.50855935681699
20
9.0434553802217721
10
193.50855935681693
20
9.0434553802223316
42
0.41421356237307422
10
194.00855935681687
20
9.5434553802223654
10
194.00855935681557
20
23.543455380217821
42
0.41421356237309503
0
LINE
5
102
100
AcDbEntity
8
0
100
AcDbLine
10
185.04848687912076
20
-32.369782580657009
30
-3.4616753907812381e-12
11
185.51873872552076
21
-32.457537349608913
31
-4.8849813083506888e-13
0
LINE
5
103
100
AcDbEntity
8
0
100
AcDbLine
10
185.51873872552076
20
-32.457537349608913
30
-4.8849813083506888e-13
11
200.41480935391712
21
-32.457537349607136
31
5.3385074139100652e-10
0
ELLIPSE
5
104
100
AcDbEntity
8
0
100
AcDbEllipse
10
200.41480935682063
20
-30.457537268201037
30
2.4424906541753444e-14
11
2.0819744073381671e-13
21
-2.0000000814057746
31
0.0
40
0.99999995929711627
41
6.2831853057277058
42
7.8539815301080314
0
LINE
5
105
100
AcDbEntity
8
0
100
AcDbLine
10
202.41480935682063
20
-30.457537475933737
30
2.4424906541753444e-14
11
202.4148093568117
21
65.544459946494882
31
-7.1320727101920056e-12
0
ARC
5
106
100
AcDbEntity
8
0
100
AcDbCircle
10
200.4148093568117
20
65.544459946494712
30
-7.1320727101920056e-12
40
1.9999999999999929
210
0
220
-0
230
1
100
AcDbArc
50
0
51
90.000000000004889
0
LINE
5
107
100
AcDbEntity
8
0
100
AcDbLine
10
200.41480935681153
20
67.544459946494683
30
-7.1320727101920056e-12
11
169.86994055231148
21
67.544459946456016
31
1.2656542480726785e-12
0
LINE
5
108
100
AcDbEntity
8
0
100
AcDbLine
10
169.86994055231148
20
67.544459946456016
30
1.2656542480726785e-12
11
169.39497433111146
21
67.458459946457708
31
2.1072033007385471e-12
0
ARC
5
109
100
AcDbEntity
8
0
100
AcDbCircle
10
169.79585336521166
20
65.244459946502275
30
-1.5918130764674432e-10
40
2.2499999999519353
210
7.9386432748875148e-13
220
-4.3844039511067414e-12
230
1
100
AcDbArc
50
100.26309589823435
51
145.58261129006371
0
ARC
5
110
100
AcDbEntity
8
0
100
AcDbCircle
10
166.0011201730114
20
67.844459946544646
30
-8.3932860661661834e-12
40
2.3500000000000121
210
8.5706934021295129e-29
220
-9.4487065925544762e-16
230
1
100
AcDbArc
50
270.00000000000483
51
325.58261128819765
0
LINE
5
111
100
AcDbEntity
8
0
100
AcDbLine
10
166.0011201730116
20
65.494459946544637
30
-8.3955065122154338e-12
11
162.26182187341163
21
65.494459946460097
31
-4.6185277824406512e-13
0
ARC
5
112
100
AcDbEntity
8
0
100
AcDbCircle
10
162.26182187341141
20
67.844459946544291
30
-8.3932860661661834e-12
40
2.3499999999999819
210
-7.7946348977297807e-16
220
-5.3405732916305677e-16
230
1
100
AcDbArc
50
214.417388711814
51
270.00000000000557
0
ARC
5
113
100
AcDbEntity
8
0
100
AcDbCircle
10
158.46708868121166
20
65.244459946501237
30
-7.9181106116266164e-12
40
2.2500000000224589
210
1.7503285698340383e-13
220
1.1992554024182297e-13
230
1
100
AcDbArc
50
34.417388709945818
51
79.736904101776148
0
LINE
5
114
100
AcDbEntity
8
0
100
AcDbLine
10
158.86796771532002
20
67.458459946504036
30
-7.9203310576758668e-12
11
158.39300149411145
21
67.54445994645495
31
1.2656542480726785e-12
0
LINE
5
115
100
AcDbEntity
8
0
100
AcDbLine
10
158.39300149411145
20
67.54445994645495
30
1.2656542480726785e-12
11
62.738488312211231
21
67.54445994644604
31
1.2667644710973036e-12
0
LINE
5
116
100
AcDbEntity
8
0
100
AcDbLine
10
62.738488312211231
20
67.54445994644604
30
1.2667644710973036e-12
11
62.270432216211233
21
67.449930417796551
31
-5.6210591736771676e-12
0
ARC
5
117
100
AcDbEntity
8
0
100
AcDbCircle
10
62.71585336521143
20
65.244459946492327
30
-6.0506985117723043e-11
40
2.2499999999492264
210
2.0200706647602677e-13
220
-1.0002233192287541e-12
230
1
100
AcDbArc
50
101.417980314536
51
145.58261129006388
0
ARC
5
118
100
AcDbEntity
8
0
100
AcDbCircle
10
58.921120173011197
20
67.844459946534684
30
-8.3921758431415583e-12
40
2.3500000000000121
210
8.5706934021295129e-29
220
-9.4487065925544762e-16
230
1
100
AcDbArc
50
270.00000000000517
51
325.58261128819743
0
LINE
5
119
100
AcDbEntity
8
0
100
AcDbLine
10
58.92112017301141
20
65.494459946534661
30
-8.3943962891908086e-12
11
55.181821873411394
21
65.494459946450149
31
-4.6074255521943996e-13
0
ARC
5
120
100
AcDbEntity
8
0
100
AcDbCircle
10
55.181821873411181
20
67.844459946534343
30
-8.3921758431415583e-12
40
2.3500000000000068
210
-3.897317448864844e-16
220
-2.6702866458152627e-16
230
1
100
AcDbArc
50
214.41738871181389
51
270.00000000000517
0
ARC
5
121
100
AcDbEntity
8
0
100
AcDbCircle
10
51.387088681211424
20
65.24445994649129
30
-7.9158901655773661e-12
40
2.2500000000224345
210
1.75032856983406e-13
220
1.1992554024182393e-13
230
1
100
AcDbArc
50
34.417388709945726
51
79.736904101776148
0
LINE
5
122
100
AcDbEntity
8
0
100
AcDbLine
10
51.78796771531978
20
67.458459946494088
30
-7.9181106116266164e-12
11
51.313001494111234
21
67.544459946444974
31
1.2678746941219288e-12
0
LINE
5
123
100
AcDbEntity
8
0
100
AcDbLine
10
51.313001494111234
20
67.544459946444974
30
1.2678746941219288e-12
11
-44.063382780488993
21
67.54445994643612
31
1.2689849171465539e-12
0
LINE
5
124
100
AcDbEntity
8
0
100
AcDbLine
10
-44.063382780488993
20
67.54445994643612
30
1.2689849171465539e-12
11
-44.538349001698982
21
67.458459946437827
31
2.1105339698124226e-12
0
ARC
5
125
100
AcDbEntity
8
0
100
AcDbCircle
10
-44.137469967578767
20
65.244459946482408
30
-3.2901201083333462e-10
40
2.249999999955504
210
7.9386432752589585e-13
220
-4.3844039510928337e-12
230
1
100
AcDbArc
50
100.26309589873597
51
145.58261128977702
0
ARC
5
126
100
AcDbEntity
8
0
100
AcDbCircle
10
-47.932203159779021
20
67.844459946524751
30
-8.389955397092308e-12
40
2.3500000000000121
210
8.9278056272182425e-29
220
-9.4487065925544762e-16
230
1
100
AcDbArc
50
270.0000000000054
51
325.58261128847272
0
LINE
5
127
100
AcDbEntity
8
0
100
AcDbLine
10
-47.932203159778801
20
65.494459946524742
30
-8.3921758431415583e-12
11
-51.67150145937881
21
65.494459946440202
31
-4.5852210917018965e-13
0
ARC
5
128
100
AcDbEntity
8
0
100
AcDbCircle
10
-51.67150145937903
20
67.844459946524395
30
-8.389955397092308e-12
40
2.3500000000000005
210
0
220
0
230
1
100
AcDbArc
50
214.41738871153771
51
270.0000000000054
0
ARC
5
129
100
AcDbEntity
8
0
100
AcDbCircle
10
-55.466234651578795
20
65.244459946481342
30
-7.914779942552741e-12
40
2.2500000000224474
210
1.7421875067125386e-13
220
1.1936774703227247e-13
230
1
100
AcDbArc
50
34.417388710234093
51
79.736904101275186
0
LINE
5
130
100
AcDbEntity
8
0
100
AcDbLine
10
-55.065355617451075
20
67.458459946480659
30
-7.9170003886019913e-12
11
-55.540321838669009
21
67.544459946435055
31
1.2689849171465539e-12
0
LINE
5
131
100
AcDbEntity
8
0
100
AcDbLine
10
-55.540321838669009
20
67.544459946435055
30
1.2689849171465539e-12
11
-86.085190643186067
21
67.544459946432212
31
1.2689849171465539e-12
0
ARC
5
132
100
AcDbEntity
8
0
100
AcDbCircle
10
-86.085190643188895
20
65.544459946468066
30
-2.8234098117421871e-10
40
1.999999999964146
210
-5.9296504880100113e-24
220
-4.1988634792076147e-12
230
1
100
AcDbArc
50
89.999999999918984
51
180
0
LINE
5
133
100
AcDbEntity
8
0
100
AcDbLine
10
-88.085190643188881
20
65.544459946467882
30
-7.1287420411181301e-12
11
-88.08519064317997
21
-30.457537474337052
31
-9.0039087297100195e-13
0
ELLIPSE
5
134
100
AcDbEntity
8
0
100
AcDbEllipse
10
-86.08519064317997
20
-30.457537268227671
30
2.7755575615628914e-14
11
-4.2616133926384271e-09
21
-2.0000000814057746
31
0.0
40
0.99999995929711627
41
4.7123890855701802
42
6.2831853114414926
0
LINE
5
135
100
AcDbEntity
8
0
100
AcDbLine
10
-86.08519063891778
20
-32.457537349633448
30
2.7755575615628914e-14
11
-71.18912001189976
21
-32.457537349632773
31
-4.8516746176119341e-13
0
LINE
5
136
100
AcDbEntity
8
0
100
AcDbLine
10
-71.18912001189976
20
-32.457537349632773
30
-4.8516746176119341e-13
11
-70.718868165439773
21
-32.369782580680791
31
-3.4583447217073626e-12
0
ARC
5
137
100
AcDbEntity
8
0
100
AcDbCircle
10
-71.131620425089963
20
-30.157965325084028
30
2.5938713376783732e-11
40
2.2500000000004325
210
2.8612720264522617e-13
220
-1.5332710344037495e-12
230
1
100
AcDbArc
50
280.57051215220247
51
327.86507199583588
0
ARC
5
138
100
AcDbEntity
8
0
100
AcDbCircle
10
-67.151670676669738
20
-32.657965325083076
30
-7.7271522513910895e-13
40
2.4500000000000099
210
-4.1069393233080241e-29
220
4.5315225494904162e-16
230
1
100
AcDbArc
50
90.000000000004974
51
147.86507199580748
0
LINE
5
139
100
AcDbEntity
8
0
100
AcDbLine
10
-67.151670676669951
20
-30.207965325083066
30
-7.7382544816373411e-13
11
-62.251789541409948
21
-30.207965325083485
31
-6.5736305288055519e-12
0
ARC
5
140
100
AcDbEntity
8
0
100
AcDbCircle
10
-62.251789541409721
20
-32.657965325082621
30
-7.7271522513910895e-13
40
2.4500000000000117
210
0
220
-0
230
1
100
AcDbArc
50
32.134928004202905
51
90.000000000005315
0
ARC
5
141
100
AcDbEntity
8
0
100
AcDbCircle
10
-58.271839792979932
20
-30.157965325082831
30
5.1070259132757201e-14
40
2.2500000000026739
210
-3.1003544500096609e-13
220
-1.9474834143460894e-13
230
1
100
AcDbArc
50
212.13492800403924
51
259.42948784780765
0
LINE
5
142
100
AcDbEntity
8
0
100
AcDbLine
10
-58.684592052629654
20
-32.369782580679249
30
5.1070259132757201e-14
11
-58.214340206179727
21
-32.457537349631565
31
-4.8516746176119341e-13
0
LINE
5
143
100
AcDbEntity
8
0
100
AcDbLine
10
-58.214340206179727
20
-32.457537349631565
30
-4.8516746176119341e-13
11
50.393958919820498
21
-32.457537349621475
31
-4.8627768478581856e-13
0
LINE
5
144
100
AcDbEntity
8
0
100
AcDbLine
10
50.393958919820498
20
-32.457537349621475
30
-4.8627768478581856e-13
11
50.864210766320497
21
-32.369782580669487
31
-3.4594549447319878e-12
0
ARC
5
145
100
AcDbEntity
8
0
100
AcDbCircle
10
50.451458506620277
20
-30.157965325072723
30
6.0725829418720451e-11
40
2.2500000000096043
210
2.8612720267756972e-13
220
-1.5332710343912456e-12
230
1
100
AcDbArc
50
280.57051215345479
51
326.41967853628904
0
ARC
5
146
100
AcDbEntity
8
0
100
AcDbCircle
10
54.367053095320529
20
-32.757542117991179
30
2.2093438190040615e-13
40
2.450000000000006
210
-4.484574036861944e-24
220
4.5315225494904251e-16
230
1
100
AcDbArc
50
90.000000567021544
51
146.41967853631184
0
LINE
5
147
100
AcDbEntity
8
0
100
AcDbLine
10
54.367053071074366
20
-30.307542117991172
30
2.19824158875781e-13
11
59.395644571720311
21
-30.307542122792086
31
-1.2867484855405564e-12
0
ARC
5
148
100
AcDbEntity
8
0
100
AcDbCircle
10
59.395644550020528
20
-32.75754211799071
30
2.2093438190040615e-13
40
2.4500000000000113
210
0
220
-0
230
1
100
AcDbArc
50
33.580321463665051
51
89.999999492528161
0
ARC
5
149
100
AcDbEntity
8
0
100
AcDbCircle
10
63.311239138720282
20
-30.15796532507153
30
4.8849813083506888e-14
40
2.2499999999999947
210
-4.1108413306122283e-16
220
-2.7292017803101415e-16
230
1
100
AcDbArc
50
213.580321463758
51
259.42948784906042
0
LINE
5
150
100
AcDbEntity
8
0
100
AcDbLine
10
62.89848687911892
20
-32.369782580676969
30
4.9960036108132044e-14
11
63.368738725520544
21
-32.457537349620267
31
-4.8738790781044372e-13
0
LINE
5
151
100
AcDbEntity
8
0
100
AcDbLine
10
63.368738725520544
20
-32.457537349620267
30
-4.8738790781044372e-13
11
172.5439589198208
21
-32.457537349610121
31
-4.8849813083506888e-13
0
LINE
5
152
100
AcDbEntity
8
0
100
AcDbLine
10
172.5439589198208
20
-32.457537349610121
30
-4.8849813083506888e-13
11
173.01421076632073
21
-32.369782580658125
31
-3.4616753907812381e-12
0
ARC
5
153
100
AcDbEntity
8
0
100
AcDbCircle
10
172.60145850662053
20
-30.157965325061369
30
9.5674046779718993e-11
40
2.2500000000096043
210
2.8612720267756972e-13
220
-1.5332710343912456e-12
230
1
100
AcDbArc
50
280.57051215345427
51
327.86507199545122
0
ARC
5
154
100
AcDbEntity
8
0
100
AcDbCircle
10
176.58140825502079
20
-32.657965325060417
30
-7.7604589421298442e-13
40
2.4500000000000055
210
-4.5997720421050049e-29
220
4.5315225494904251e-16
230
1
100
AcDbArc
50
90.000000000005315
51
147.86507199591239
0
LINE
5
155
100
AcDbEntity
8
0
100
AcDbLine
10
176.58140825502056
20
-30.207965325060407
30
-7.7715611723760958e-13
11
181.48128939032057
21
-30.207965325060822
31
-6.5769611978794273e-12
0
ARC
5
156
100
AcDbEntity
8
0
100
AcDbCircle
10
181.4812893903208
20
-32.657965325059955
30
-7.7604589421298442e-13
40
2.4499999999999829
210
0
220
-0
230
1
100
AcDbArc
50
32.13492800409832
51
90.000000000005315
0
ARC
5
157
100
AcDbEntity
8
0
100
AcDbCircle
10
185.46123913872052
20
-30.157965325060168
30
4.7739590058881731e-14
40
2.2499999999772364
210
-3.1003544500270097e-13
220
-1.9474834143962874e-13
230
1
100
AcDbArc
50
212.13492800456035
51
259.42948784906042
0
LINE
5
158
100
AcDbEntity
8
0
100
AcDbLine
10
182.54605370181721
20
5.492452336032061
30
-3.7125857943465235e-12
11
197.21480935681726
21
5.4924508139408257
31
-3.5549341248497512e-12
0
ARC
5
159
100
AcDbEntity
8
0
100
AcDbCircle
10
197.21480935681728
20
5.1924508139423775
30
6.6502359175046877e-12
40
0.30000000000001137
210
0
220
-0
230
1
100
AcDbArc
50
0
51
90.000000000005429
0
LINE
5
160
100
AcDbEntity
8
0
100
AcDbLine
10
197.5148093568173
20
5.1924508139424042
30
6.6502359175046877e-12
11
197.51480935681855
21
-8.20754918605315
31
3.3129055054814671e-12
0
ARC
5
161
100
AcDbEntity
8
0
100
AcDbCircle
10
197.21480935681853
20
-8.2075491860531749
30
3.3129055054814671e-12
40
0.29999999999999805
210
-2.3227571098174538e-26
220
1.9613940101711226e-13
230
1
100
AcDbArc
50
-89.999999999994614
51
0
0
LINE
5
162
100
AcDbEntity
8
0
100
AcDbLine
10
197.21480935681856
20
-8.5075491860531738
30
3.3717473257866004e-12
11
189.54605935681857
21
-8.5075491860533781
31
3.5704772471945034e-12
0
ARC
5
163
100
AcDbEntity
8
0
100
AcDbCircle
10
189.54605935681857
20
-8.8075491860528707
30
3.8269387658829146e-12
40
0.29999999999949178
210
0
220
8.5487172896281871e-13
230
1
100
AcDbArc
50
90
51
180
0
LINE
5
164
100
AcDbEntity
8
0
100
AcDbLine
10
189.24605935681856
20
-8.8075491860528956
30
3.8269387658829146e-12
11
189.24605935681868
21
-9.7065446197820648
31
6.227240945122503e-12
0
ARC
5
165
100
AcDbEntity
8
0
100
AcDbCircle
10
188.94605935681869
20
-9.7065446197820915
30
6.227240945122503e-12
40
0.29999999999999805
210
-2.3227571098174538e-26
220
1.9613940101711226e-13
230
1
100
AcDbArc
50
-89.999999999989157
51
0
0
LINE
5
166
100
AcDbEntity
8
0
100
AcDbLine
10
188.94605935681875
20
-10.00654461978209
30
6.2860827654276363e-12
11
182.54605935681866
21
-10.006544619783222
31
-3.4616753907812381e-12
0
ARC
5
167
100
AcDbEntity
8
0
100
AcDbCircle
10
182.54605935681863
20
-9.7065446197826866
30
6.227240945122503e-12
40
0.30000000000001137
210
0
220
0
230
1
100
AcDbArc
50
180
51
270.0000000000054
0
LINE
5
168
100
AcDbEntity
8
0
100
AcDbLine
10
182.24605935681862
20
-9.7065446197827185
30
6.227240945122503e-12
11
182.24605935681723
21
5.1924553802248674
31
-2.3314683517128287e-14
0
ARC
5
169
100
AcDbEntity
8
0
100
AcDbCircle
10
182.54605935681724
20
5.1924553802259332
30
2.4571845949913658e-10
40
0.29999695585942665
210
-8.5658831265344527e-16
220
4.5441889494832779e-11
230
1
100
AcDbArc
50
90.001080036407714
51
180
0
LWPOLYLINE
5
170
100
AcDbEntity
8
0
100
AcDbPolyline
90
24
70
1
43
0.0
10
-45.67269064318323
20
5.4944599464767307
10
-80.503940643183284
20
5.4944599464734978
42
0.41421356237412693
10
-80.803940643183267
20
5.1944599464739749
10
-80.803940643182017
20
-8.2055400535304699
42
0.41421356237309936
10
-80.503940643181991
20
-8.5055400535199865
10
-79.978940643182
20
-8.5055400535293799
42
-0.41421356237309503
10
-79.678940643181974
20
-8.8055400535293451
10
-79.678940643181889
20
-9.705540053527816
42
0.41421356237309503
10
-79.378940643181849
20
-10.005540053528321
10
-72.978940643181843
20
-10.005540053527193
42
0.41421356237207618
10
-72.678940643181861
20
-9.7055400535282121
10
-72.678940643191396
20
-8.8055400535286932
42
-0.41421356237309503
10
-72.378940643181991
20
-8.5055400535192316
10
-56.178940643181946
20
-8.5055400535271666
42
-0.41421356237310375
10
-55.87894064318192
20
-8.8055400535271353
10
-55.878940643181835
20
-9.7055400535256062
42
0.41421356237309936
10
-55.578940643181802
20
-10.005540053526104
10
-49.178940643181797
20
-10.005540053524978
42
0.41421356237207185
10
-48.878940643181828
20
-9.7055400535260006
10
-48.878940643181394
20
-8.8055400535264816
42
-0.41421356237309503
10
-48.578940643181923
20
-8.5055400535269587
10
-45.672690643181923
20
-8.5055400535271986
42
0.414213562382794
10
-45.372690643181954
20
-8.2055400535172307
10
-45.372690643183198
20
5.1944599464783181
42
0.41421356237308637
0
LWPOLYLINE
5
171
100
AcDbEntity
8
0
100
AcDbPolyline
90
8
70
1
43
0.0
10
3.6648093568198625
20
-26.756544619795992
10
3.6648093568185125
20
-12.356544619793507
42
0.41421356237308204
10
3.3648093568185011
20
-12.056544619794046
10
-3.0351906431815046
20
-12.05654461979413
42
0.41421356237310802
10
-3.3351906431814982
20
-12.356544619794159
10
-3.3351906431801304
20
-26.756544619796596
42
0.41421356237308637
10
-3.035190643180119
20
-27.05654461979611
10
3.3648093568198867
20
-27.056544619795979
42
0.41421356237306034
0
LWPOLYLINE
5
172
100
AcDbEntity
8
0
100
AcDbPolyline
90
8
70
1
43
0.0
10
110.66480935681874
20
-12.356544619783559
10
110.66480935682006
20
-26.756544619786045
42
0.41421356237305601
10
110.9648093568201
20
-27.056544619785509
10
117.36480935682013
20
-27.056544619785377
42
0.41421356237303869
10
117.66480935682011
20
-26.756544619785394
10
117.66480935681881
20
-12.356544619782909
42
0.41421356237310375
10
117.36480935681875
20
-12.056544619783445
10
110.96480935681871
20
-12.056544619783534
42
0.41421356237308637
0
LWPOLYLINE
5
173
100
AcDbEntity
8
0
100
AcDbPolyline
90
8
70
1
43
0.0
10
185.10855935681545
20
24.543455380223484
10
172.10855935681542
20
24.543455380222277
42
0.41421356237307944
10
171.6085593568155
20
24.04345538021575
10
171.6085593568167
20
11.043455380224225
42
0.41421356237308982
10
172.10855935681676
20
10.543455380217797
10
185.10855935681676
20
10.54345538022547
42
0.41421356237310025
10
185.60855935681673
20
11.043455380225522
10
185.60855935681553
20
24.043455380217047
42
0.41421356237311063
0
LINE
5
174
100
AcDbEntity
8
0
100
AcDbLine
10
192.75230935681375
20
43.294459946500645
30
1.8581802763151245e-11
11
192.75230935681498
21
30.093455380217648
31
-2.8257396422759484e-11
0
ARC
5
175
100
AcDbEntity
8
0
100
AcDbCircle
10
192.25230935681498
20
30.093455380219698
30
-8.3666407135751797e-12
40
0.49999999999999822
210
-1.5777218104420348e-28
220
2.220446049250321e-15
230
1
100
AcDbArc
50
270.00000000000648
51
360
0
LINE
5
176
100
AcDbEntity
8
0
100
AcDbLine
10
192.25230935681503
20
29.594459946503449
30
-3.3306690738754696e-14
11
179.05230935681502
21
29.594459946503278
31
5.5577764612735336e-12
0
ARC
5
177
100
AcDbEntity
8
0
100
AcDbCircle
10
179.05230935681499
20
29.894459946502749
30
5.3024251656097476e-12
40
0.30000000000001137
210
0
220
0
230
1
100
AcDbArc
50
180
51
270.0000000000054
0
LINE
5
178
100
AcDbEntity
8
0
100
AcDbLine
10
178.75230935681498
20
29.894459946502721
30
5.3024251656097476e-12
11
178.75230935681373
21
43.294459946497234
31
-1.3089529460330596e-12
0
ARC
5
179
100
AcDbEntity
8
0
100
AcDbCircle
10
179.05230935681374
20
43.29445994649727
30
-1.3089529460330596e-12
40
0.30000000000001137
210
-2.3227571098172475e-26
220
1.9613940101710355e-13
230
1
100
AcDbArc
50
90.000000000005429
51
180
0
LINE
5
180
100
AcDbEntity
8
0
100
AcDbLine
10
179.05230935681371
20
43.594459946497281
30
-1.3677947663381929e-12
11
192.45230935681371
21
43.594459946497992
31
-1.5620837956475953e-12
0
ARC
5
181
100
AcDbEntity
8
0
100
AcDbCircle
10
192.45230935681374
20
43.294459946498513
30
-1.2761381856581768e-08
40
0.30000000000001137
210
-6.6302519030611841e-11
220
-4.7110773259795261e-22
230
1
100
AcDbArc
50
0
51
90.000000000005429
0
LWPOLYLINE
5
182
100
AcDbEntity
8
0
100
AcDbPolyline
90
8
70
1
43
0.0
10
102.91480935681992
20
-25.019044619783898
10
102.91480935681906
20
-16.094044619786104
42
0.41421356237306473
10
102.61480935681909
20
-15.794044619786639
10
72.214809356818989
20
-15.794044619788959
42
0.41421356237312101
10
71.914809356818978
20
-16.094044619788988
10
71.914809356819831
20
-25.019044619786783
42
0.41421356237310375
10
72.214809356819885
20
-25.31904461978624
10
102.61480935681999
20
-25.319044619783927
42
0.41421356237309076
0
LWPOLYLINE
5
183
100
AcDbEntity
8
0
100
AcDbPolyline
90
8
70
1
43
0.0
10
11.714809356819753
20
-25.319044619791864
10
42.114809356819833
20
-25.31904461978904
42
0.41421356237310375
10
42.414809356819788
20
-25.019044619789526
10
42.414809356818978
20
-16.094044619791731
42
0.41421356237310375
10
42.114809356818945
20
-15.794044619792263
10
11.714809356818865
20
-15.794044619794585
42
0.41421356237308637
10
11.414809356818889
20
-16.094044619794616
10
11.414809356819742
20
-25.019044619792403
42
0.41421356237308637
0
LWPOLYLINE
5
184
100
AcDbEntity
8
0
100
AcDbPolyline
90
8
70
1
43
0.0
10
-64.422690643180232
20
-27.255540053523539
10
-64.422690643181468
20
-13.855540053529033
42
0.41421356237411394
10
-64.722690643181494
20
-13.555540053519625
10
-78.122690643181528
20
-13.555540053529258
42
0.41421356237411827
10
-78.422690643181497
20
-13.855540053530335
10
-78.42269064318026
20
-27.255540053524783
42
0.41421356237309503
10
-78.122690643180221
20
-27.555540053525295
10
-64.722690643180201
20
-27.555540053523515
42
0.41421356237304302
0
LWPOLYLINE
5
185
100
AcDbEntity
8
0
100
AcDbPolyline
90
8
70
1
43
0.0
10
145.12730935682021
20
-27.256544619782311
10
145.12730935681898
20
-13.856544619778855
42
0.41421356237412693
10
144.82730935681894
20
-13.556544619778341
10
131.42730935681891
20
-13.556544619779082
42
0.41421356237410956
10
131.12730935681893
20
-13.856544619780156
10
131.12730935682015
20
-27.256544619783561
42
0.41421356237306473
10
131.42730935682016
20
-27.556544619783068
10
144.82730935682019
20
-27.556544619782287
42
0.414213562373069
0
LWPOLYLINE
5
186
100
AcDbEntity
8
0
100
AcDbPolyline
90
8
70
1
43
0.0
10
102.26480935681302
20
48.944459946489161
10
102.26480935681178
20
62.344459946494666
42
0.41421356237306034
10
101.9648093568118
20
62.644459946494109
10
88.564809356811764
20
62.644459946493399
42
0.41421356237311241
10
88.264809356811753
20
62.344459946493373
10
88.264809356813004
20
48.944459946487868
42
0.41421356237311241
10
88.564809356813043
20
48.644459946488368
10
101.96480935681308
20
48.644459946489135
42
0.41421356237309503
0
LWPOLYLINE
5
187
100
AcDbEntity
8
0
100
AcDbPolyline
90
8
70
1
43
0.0
10
-50.135190643187272
20
48.944459946474986
10
-50.135190643188508
20
62.344459946480491
42
0.41421356237309503
10
-50.435190643188541
20
62.644459946479955
10
-63.835190643188575
20
62.644459946479245
42
0.41421356237309503
10
-64.135190643188537
20
62.344459946479198
10
-64.1351906431873
20
48.944459946473692
42
0.41421356237307771
10
-63.835190643187275
20
48.644459946474214
10
-50.435190643187241
20
48.644459946474974
42
0.41421356237307771
0
LWPOLYLINE
5
188
100
AcDbEntity
8
0
100
AcDbPolyline
90
8
70
1
43
0.0
10
-31.085190643187232
20
48.944459946476762
10
-31.085190643188476
20
62.344459946482267
42
0.41421356237310375
10
-31.385190643188501
20
62.644459946481732
10
-44.785190643188528
20
62.644459946481
42
0.41421356237308637
10
-45.085190643188504
20
62.344459946480974
10
-45.085190643187261
20
48.944459946475469
42
0.41421356237310375
10
-44.785190643187235
20
48.644459946475969
10
-31.385190643187208
20
48.644459946476751
42
0.41421356237308637
0
LWPOLYLINE
5
189
100
AcDbEntity
8
0
100
AcDbPolyline
90
8
70
1
43
0.0
10
-64.422690643185533
20
29.89445994647906
10
-64.422690643186783
20
43.294459946474639
42
0.41421356237309503
10
-64.722690643186809
20
43.594459946474082
10
-78.122690643186829
20
43.594459946473371
42
0.41421356237310375
10
-78.422690643186797
20
43.294459946473324
10
-78.422690643185561
20
29.894459946478811
42
0.41421356237310375
10
-78.122690643185535
20
29.594459946478324
10
-64.722690643185501
20
29.594459946480089
42
0.41421356237207185
0
LWPOLYLINE
5
190
100
AcDbEntity
8
0
100
AcDbPolyline
90
8
70
1
43
0.0
10
45.114809356812927
20
48.944459946483853
10
45.114809356811691
20
62.344459946489359
42
0.41421356237309503
10
44.814809356811637
20
62.644459946488801
10
31.414809356811624
20
62.644459946488091
42
0.41421356237307771
10
31.114809356811666
20
62.344459946488058
10
31.114809356812909
20
48.944459946482553
42
0.41421356237311241
10
31.414809356812938
20
48.64445994648306
10
44.814809356812958
20
48.644459946483821
42
0.41421356237309503
0
LWPOLYLINE
5
191
100
AcDbEntity
8
0
100
AcDbPolyline
90
8
70
1
43
0.0
10
83.214809356813007
20
48.944459946487385
10
83.21480935681177
20
62.34445994649289
42
0.41421356237307771
10
82.914809356811759
20
62.644459946492354
10
69.514809356811682
20
62.644459946491644
42
0.41421356237309503
10
69.214809356811742
20
62.344459946491597
10
69.214809356812964
20
48.944459946486091
42
0.41421356237309503
10
69.514809356813004
20
48.644459946486613
10
82.914809356813038
20
48.644459946487373
42
0.41421356237307771
0
LWPOLYLINE
5
192
100
AcDbEntity
8
0
100
AcDbPolyline
90
8
70
1
43
0.0
10
121.31480935681307
20
48.944459946490937
10
121.31480935681182
20
62.344459946496443
42
0.41421356237306034
10
121.01480935681181
20
62.644459946495886
10
107.6148093568118
20
62.644459946495175
42
0.41421356237312978
10
107.31480935681179
20
62.344459946495128
10
107.31480935681304
20
48.944459946489623
42
0.41421356237309503
10
107.61480935681308
20
48.644459946490144
10
121.01480935681309
20
48.644459946490912
42
0.41421356237309503
0
LWPOLYLINE
5
193
100
AcDbEntity
8
0
100
AcDbPolyline
90
8
70
1
43
0.0
10
-16.797690643180125
20
-27.255540053519105
10
-16.797690643181369
20
-13.855540053524606
42
0.4142135623741226
10
-17.097690643181398
20
-13.555540053515198
10
-30.497690643181432
20
-13.55554005352483
42
0.41421356237410956
10
-30.79769064318139
20
-13.855540053525907
10
-30.797690643180154
20
-27.25554005352036
42
0.41421356237309503
10
-30.497690643180128
20
-27.555540053520868
10
-17.097690643180094
20
-27.555540053519088
42
0.41421356237304735
0
LWPOLYLINE
5
194
100
AcDbEntity
8
0
100
AcDbPolyline
90
8
70
1
43
0.0
10
192.75230935682032
20
-27.257549186056135
10
192.75230935681907
20
-13.85754918605263
42
0.41421356237310375
10
192.45230935681903
20
-13.557549186053164
10
179.05230935681902
20
-13.557549186053905
42
0.41421356237308637
10
178.75230935681907
20
-13.85754918605393
10
178.75230935682029
20
-27.257549186056387
42
0.414213562373069
10
179.0523093568203
20
-27.557549186056896
10
192.45230935682031
20
-27.557549186055116
42
0.41421356237210222
0
LWPOLYLINE
5
195
100
AcDbEntity
8
0
100
AcDbPolyline
90
8
70
1
43
0.0
10
159.41480935681312
20
48.944459946494476
10
159.41480935681187
20
62.344459946499981
42
0.41421356237307771
10
159.11480935681192
20
62.644459946499438
10
145.71480935681188
20
62.644459946498714
42
0.41421356237311241
10
145.41480935681187
20
62.344459946498681
10
145.41480935681309
20
48.944459946493176
42
0.41421356237311241
10
145.71480935681313
20
48.644459946493683
10
159.11480935681317
20
48.644459946494464
42
0.41421356237307771
0
LWPOLYLINE
5
196
100
AcDbEntity
8
0
100
AcDbPolyline
90
8
70
1
43
0.0
10
26.064809356812884
20
48.944459946482077
10
26.06480935681164
20
62.344459946487582
42
0.41421356237311241
10
25.764809356811611
20
62.644459946487039
10
12.364809356811577
20
62.644459946486315
42
0.41421356237307771
10
12.064809356811601
20
62.344459946486282
10
12.064809356812862
20
48.944459946480777
42
0.41421356237311241
10
12.364809356812891
20
48.644459946481284
10
25.764809356812926
20
48.644459946482066
42
0.41421356237307771
0
LWPOLYLINE
5
197
100
AcDbEntity
8
0
100
AcDbPolyline
90
8
70
1
43
0.0
10
-83.185190643188577
20
62.344459946477421
10
-83.18519064318734
20
48.944459946471916
42
0.41421356237309503
10
-82.885190643187315
20
48.644459946472438
10
-69.485190643187281
20
48.644459946473198
42
0.41421356237310375
10
-69.185190643187312
20
48.944459946473231
10
-69.185190643188562
20
62.344459946478736
42
0.41421356237309503
10
-69.485190643188588
20
62.644459946478179
10
-82.885190643188608
20
62.644459946477468
42
0.41421356237311241
0
LWPOLYLINE
5
198
100
AcDbEntity
8
0
100
AcDbPolyline
90
8
70
1
43
0.0
10
-12.035190643187192
20
48.944459946478538
10
-12.035190643188436
20
62.344459946484044
42
0.41421356237308637
10
-12.335190643188474
20
62.644459946483487
10
-25.735190643188488
20
62.644459946482776
42
0.41421356237308637
10
-26.035190643188464
20
62.34445994648275
10
-26.035190643187221
20
48.944459946477245
42
0.41421356237310375
10
-25.735190643187195
20
48.644459946477745
10
-12.335190643187177
20
48.644459946478513
42
0.41421356237310375
0
LWPOLYLINE
5
199
100
AcDbEntity
8
0
100
AcDbPolyline
90
8
70
1
43
0.0
10
-80.803940643185044
20
24.244459946478525
10
-80.803940643183807
20
10.84445994647302
42
0.41421356237206319
10
-80.503940643183768
20
10.54445994647355
10
-62.341440643183731
20
10.544459946475788
42
0.41421356237208046
10
-62.041440643183762
20
10.84445994647476
10
-62.041440643184998
20
24.244459946480266
42
0.41421356237309503
10
-62.341440643185031
20
24.544459946479726
10
-80.503940643185075
20
24.544459946478554
42
0.41421356237308637
0
LWPOLYLINE
5
200
100
AcDbEntity
8
0
100
AcDbPolyline
90
8
70
1
43
0.0
10
7.0148093568128544
20
48.944459946480301
10
7.014809356811611
20
62.344459946485806
42
0.41421356237311241
10
6.7148093568115819
20
62.644459946485263
10
-6.68519064318847
20
62.644459946484552
42
0.41421356237309503
10
-6.9851906431884281
20
62.344459946484506
10
-6.9851906431871846
20
48.944459946479
42
0.41421356237309503
10
-6.6851906431871555
20
48.644459946479522
10
6.7148093568128964
20
48.644459946480289
42
0.41421356237307771
0
LWPOLYLINE
5
201
100
AcDbEntity
8
0
100
AcDbPolyline
90
8
70
1
43
0.0
10
64.164809356812953
20
48.94445994648563
10
64.164809356811716
20
62.344459946491135
42
0.41421356237309503
10
63.864809356811691
20
62.644459946490578
10
50.464809356811671
20
62.644459946489867
42
0.41421356237309503
10
50.164809356811695
20
62.34445994648982
10
50.164809356812953
20
48.944459946484315
42
0.41421356237309503
10
50.464809356812985
20
48.644459946484837
10
63.864809356812998
20
48.644459946485597
42
0.41421356237309503
0
LWPOLYLINE
5
202
100
AcDbEntity
8
0
100
AcDbPolyline
90
8
70
1
43
0.0
10
140.36480935681311
20
48.944459946492699
10
140.36480935681186
20
62.344459946498205
42
0.41421356237307771
10
140.06480935681185
20
62.644459946497662
10
126.66480935681182
20
62.644459946496951
42
0.41421356237312978
10
126.36480935681185
20
62.344459946496904
10
126.36480935681305
20
48.944459946491399
42
0.41421356237309503
10
126.66480935681309
20
48.644459946491921
10
140.06480935681313
20
48.644459946492688
42
0.41421356237307771
0
LWPOLYLINE
5
203
100
AcDbEntity
8
0
100
AcDbPolyline
90
8
70
1
43
0.0
10
64.16480935682003
20
-27.256544619789835
10
64.164809356818779
20
-13.856544619786382
42
0.41421356237410956
10
63.864809356818775
20
-13.556544619785868
10
50.464809356818762
20
-13.556544619786607
42
0.41421356237413132
10
50.164809356818765
20
-13.856544619787684
10
50.16480935682003
20
-27.256544619791086
42
0.41421356237310375
10
50.464809356820055
20
-27.5565446197906
10
63.864809356820075
20
-27.556544619789811
42
0.41421356237303869
0
LWPOLYLINE
5
204
100
AcDbEntity
8
0
100
AcDbPolyline
90
5
70
1
43
0.0
10
-59.164515609633419
20
29.594459939044881
42
-0.4142184635876337
10
-59.664523976515547
20
30.094459938974836
10
-59.664523976516747
20
43.094459946478018
42
-0.99999999999999989
10
-58.664523976516747
20
43.094459946478125
10
-58.664523976793745
20
30.094476618728471
42
-0.41421843194884311
0
LWPOLYLINE
5
205
100
AcDbEntity
8
0
100
AcDbPolyline
90
4
70
1
43
0.0
10
-83.685190643186786
20
43.094459946475794
10
-83.685190643185592
20
30.094459946473286
42
0.99999999999999989
10
-82.685190643185592
20
30.094459946473371
10
-82.6851906431868
20
43.094459946475887
42
0.99999999999999989
0
LWPOLYLINE
5
206
100
AcDbEntity
8
0
100
AcDbPolyline
90
4
70
1
43
0.0
10
-54.695690643183767
20
11.044459946481391
10
-54.695690643184975
20
24.044459946473957
42
0.99999999999999989
10
-55.695690643184967
20
24.044459946473864
10
-55.69569064318376
20
11.044459946481302
42
0.99999999999999989
0
LWPOLYLINE
5
207
100
AcDbEntity
8
0
100
AcDbPolyline
90
4
70
1
43
0.0
10
198.61047602351502
20
30.094459946500571
10
198.6104760235138
20
43.094459946503079
42
0.99999999999999989
10
197.6104760235138
20
43.094459946502994
10
197.61047602351499
20
30.094459946500479
42
0.99999999999999989
0
LWPOLYLINE
5
208
100
AcDbEntity
8
0
100
AcDbPolyline
90
4
70
1
43
0.0
10
173.89414269011493
20
30.094459946498276
10
173.89414269011371
20
43.094459946500791
42
0.99999999999999989
10
172.89414269011374
20
43.094459946500699
10
172.89414269011496
20
30.09445994649818
42
0.99999999999999989
0
LWPOLYLINE
5
209
100
AcDbEntity
8
0
100
AcDbPolyline
90
8
70
1
43
0.0
10
-41.11019064318144
20
-13.555540053526327
10
-54.110190643181468
20
-13.555540053527535
42
0.41421356237493945
10
-54.610190643181426
20
-14.055540053523071
10
-54.610190643180218
20
-27.05554005352344
42
0.41421356237309764
10
-54.110190643180175
20
-27.555540053523014
10
-41.11019064318014
20
-27.555540053522186
42
0.41421356237300661
10
-40.610190643180182
20
-27.055540053522293
10
-40.61019064318139
20
-14.05554005351863
42
0.41421356237309764
0
ARC
5
210
100
AcDbEntity
8
0
100
AcDbCircle
10
155.43980935681904
20
-14.05654461978386
30
4.1165394633681653e-10
40
0.50000000000002554
210
5.5325748526636647e-14
220
-3.0266849531513394e-11
230
1
100
AcDbArc
50
90.104732683031898
51
180.03837159428986
0
LINE
5
211
100
AcDbEntity
8
0
100
AcDbLine
10
155.43889630962721
20
-13.557549186057663
30
4.4408920985006262e-15
11
168.44072290389505
21
-13.557549186056455
31
4.4408920985006262e-15
0
ARC
5
212
100
AcDbEntity
8
0
100
AcDbCircle
10
168.43980935681901
20
-14.056544619782647
30
-3.8533486337170259e-09
40
0.50000000000004574
210
-2.276844868304426e-11
220
1.5248275064458698e-14
230
1
100
AcDbArc
50
-0.038371594289842111
51
89.895209976906671
0
LINE
5
213
100
AcDbEntity
8
0
100
AcDbLine
10
168.93980924469099
20
-14.056879475087399
30
-6.6369132412091858e-12
11
168.93980930098692
21
-27.057214330712924
31
-4.496403249731884e-13
0
ARC
5
214
100
AcDbEntity
8
0
100
AcDbCircle
10
168.43980935682023
20
-27.057549186057422
30
-4.4741987892393809e-13
40
0.50000000000000266
210
-1.5777218104420068e-28
220
2.2204460492503012e-15
230
1
100
AcDbArc
50
-89.999999999996746
51
0.038371594517808139
0
LINE
5
215
100
AcDbEntity
8
0
100
AcDbLine
10
168.43980935682026
20
-27.557549186057425
30
-4.4630965589931293e-13
11
155.43980935682026
21
-27.557549186059145
31
-6.5780714209040525e-12
0
ARC
5
216
100
AcDbEntity
8
0
100
AcDbCircle
10
155.43980935682018
20
-27.057549186058694
30
-6.2301521891958289e-10
40
0.49999999999993266
210
-4.8929632849327978e-12
220
-4.9106780222377462e-12
230
1
100
AcDbArc
50
225.10353077456645
51
270.00000000000978
0
ARC
5
217
100
AcDbEntity
8
0
100
AcDbCircle
10
155.43980935682026
20
-27.056544619781345
30
-2.6030758071667073e-08
40
0.50000000000004263
210
-1.6800782987046137e-10
220
-2.5367557901368795e-23
230
1
100
AcDbArc
50
180
51
225.18472423307904
0
LINE
5
218
100
AcDbEntity
8
0
100
AcDbLine
10
154.93980935682021
20
-27.05654461978142
30
3.4305891460917337e-13
11
154.93980946894712
21
-14.056879475088699
31
-6.6369132412091858e-12
0
ARC
5
219
100
AcDbEntity
8
0
100
AcDbCircle
10
157.62105935681723
20
5.1924508139386916
30
6.6502359175046877e-12
40
0.3000000000000142
210
1.2070705321555127e-14
220
2.0688980593962489e-13
230
1
100
AcDbArc
50
86.660940664606031
51
180
0
LINE
5
220
100
AcDbEntity
8
0
100
AcDbLine
10
157.63853273595632
20
5.4919415166682928
30
6.5880634281256789e-12
11
180.54665004150652
21
5.493435849275432
31
-1.3322676295501878e-14
0
ARC
5
221
100
AcDbEntity
8
0
100
AcDbCircle
10
180.54605935681721
20
5.1934358101122324
30
4.2637078982360577e-09
40
0.3000000000000469
210
2.3573735556203811e-11
220
4.8854594116380468e-24
230
1
100
AcDbArc
50
0
51
89.88718769477326
0
LINE
5
222
100
AcDbEntity
8
0
100
AcDbLine
10
180.84605935681725
20
5.1934358101122946
30
4.9071857688431919e-13
11
180.8460593568185
21
-8.2065641886155216
31
4.6773696027457845e-12
0
ARC
5
223
100
AcDbEntity
8
0
100
AcDbCircle
10
180.54605935681849
20
-8.2065641886165874
30
3.2502472625441908e-10
40
0.3000000000000077
210
-7.7106675249807483e-14
220
-4.0027166513667834e-11
230
1
100
AcDbArc
50
-90.110372079369839
51
0
0
LINE
5
224
100
AcDbEntity
8
0
100
AcDbLine
10
180.54548145031973
20
-8.5065636319895432
30
-1.5476508963274682e-12
11
165.74663760990217
21
-8.507529578861913
31
3.3306690738754696e-15
0
ARC
5
225
100
AcDbEntity
8
0
100
AcDbCircle
10
165.74605935681856
20
-8.8075296172260273
30
-4.3740258034710517e-10
40
0.30000059565790665
210
1.0296763583993838e-13
220
5.3420025898997393e-11
230
1
100
AcDbArc
50
89.889561946956476
51
180
0
LINE
5
226
100
AcDbEntity
8
0
100
AcDbLine
10
165.44605935681852
20
-8.8075296172249828
30
4.0856207306205761e-12
11
165.44605935681861
21
-9.7065446197842764
31
6.227240945122503e-12
0
ARC
5
227
100
AcDbEntity
8
0
100
AcDbCircle
10
165.14605935681863
20
-9.7065446197843066
30
6.227240945122503e-12
40
0.29999999999999805
210
-2.3227571098174538e-26
220
1.9613940101711226e-13
230
1
100
AcDbArc
50
-89.999999999989157
51
0
0
LINE
5
228
100
AcDbEntity
8
0
100
AcDbLine
10
165.14605935681868
20
-10.006544619784306
30
6.2860827654276363e-12
11
158.74605935681868
21
-10.006544619784389
31
6.4837024638109142e-12
0
ARC
5
229
100
AcDbEntity
8
0
100
AcDbCircle
10
158.74605935681865
20
-9.7065446197849035
30
6.227240945122503e-12
40
0.30000000000001137
210
0
220
0
230
1
100
AcDbArc
50
180
51
270.0000000000054
0
LINE
5
230
100
AcDbEntity
8
0
100
AcDbLine
10
158.44605935681864
20
-9.7065446197849283
30
6.227240945122503e-12
11
158.44605935681852
21
-8.8075491860557609
31
3.8269387658829146e-12
0
ARC
5
231
100
AcDbEntity
8
0
100
AcDbCircle
10
158.14605935681851
20
-8.8075491860557875
30
3.8269387658829146e-12
40
0.30000000000001137
210
0
220
-0
230
1
100
AcDbArc
50
0
51
90
0
LINE
5
232
100
AcDbEntity
8
0
100
AcDbLine
10
158.14605935681851
20
-8.5075491860557904
30
3.7680969455777813e-12
11
157.62105935681853
21
-8.5075491860563446
31
3.5704772471945034e-12
0
ARC
5
233
100
AcDbEntity
8
0
100
AcDbCircle
10
157.62105935681848
20
-8.2075491860568572
30
3.3129055054814671e-12
40
0.30000000000001137
210
0
220
0
230
1
100
AcDbArc
50
180
51
270.00000000001086
0
LINE
5
234
100
AcDbEntity
8
0
100
AcDbLine
10
157.32105935681847
20
-8.2075491860568874
30
3.3129055054814671e-12
11
157.32105935681722
21
5.1924508139376258
31
6.6502359175046877e-12
0
LWPOLYLINE
5
235
100
AcDbEntity
8
0
100
AcDbPolyline
90
24
70
1
43
0.0
10
197.21480935681197
20
62.644459946502977
10
164.7648093568119
20
62.644459946498905
42
0.41421356237311241
10
164.46480935681191
20
62.344459946500457
10
164.46480935681311
20
48.944459946494952
42
0.41421356237311241
10
164.76480935681315
20
48.644459946495459
10
165.28980935681318
20
48.644459946496063
42
-0.41421356237311241
10
165.58980935681322
20
48.344459946496066
10
165.58980935681325
20
47.444459946497595
42
0.41421356237309503
10
165.88980935681332
20
47.144459946498138
10
172.28980935681338
20
47.144459946498209
42
0.41421356237309503
10
172.5898093568133
20
47.444459946498256
10
172.58980935681379
20
48.344459946496727
42
-0.41421356237309503
10
172.8898093568132
20
48.64445994649622
10
189.08980935681325
20
48.644459946498266
42
-0.41421356237309503
10
189.38980935681329
20
48.34445994649829
10
189.38980935681337
20
47.444459946499819
42
0.41421356237309503
10
189.68980935681341
20
47.144459946500355
10
196.08980935681336
20
47.144459946500426
42
0.41421356237309503
10
196.38980935681334
20
47.444459946500473
10
196.38980935681383
20
48.344459946498944
42
-0.41421356237307771
10
196.68980935681327
20
48.644459946498422
10
197.21480935681325
20
48.644459946497996
42
0.41421356237307771
10
197.5148093568132
20
48.944459946498007
10
197.51480935681198
20
62.344459946503513
42
0.41421356237307771
0
ARC
5
236
100
AcDbEntity
8
0
100
AcDbCircle
10
-52.872690643185209
20
26.569459946480166
30
4.7961634663806763e-13
40
0.50000000000000711
210
0
220
-0
230
1
100
AcDbArc
50
0
51
90.000000000004889
0
LINE
5
237
100
AcDbEntity
8
0
100
AcDbLine
10
-52.872690643185251
20
27.069459946480173
30
4.2965631052993558e-13
11
-56.635190643185254
21
27.069459946475316
31
-2.9176661087149114e-12
0
ARC
5
238
100
AcDbEntity
8
0
100
AcDbCircle
10
-56.635190643185297
20
27.569459946480741
30
-7.3552275381416621e-12
40
0.50000000000000711
210
0
220
0
230
1
100
AcDbArc
50
180
51
270.00000000000489
0
LINE
5
239
100
AcDbEntity
8
0
100
AcDbLine
10
-57.135190643185311
20
27.569459946480688
30
-7.3552275381416621e-12
11
-57.135190643186974
21
45.619459946473341
31
-8.5342843902935783e-12
0
ARC
5
240
100
AcDbEntity
8
0
100
AcDbCircle
10
-56.635190643186981
20
45.619459946473377
30
-8.5342843902935783e-12
40
0.49999999999998934
210
-8.8746851837367616e-27
220
9.9920072216266222e-14
230
1
100
AcDbArc
50
90.000000000004889
51
180
0
LINE
5
241
100
AcDbEntity
8
0
100
AcDbLine
10
-56.635190643187023
20
46.119459946473363
30
-8.5842444264017104e-12
11
170.96480935681345
21
46.119459946501003
31
-3.0297986342020522e-12
0
ARC
5
242
100
AcDbEntity
8
0
100
AcDbCircle
10
170.96480935681348
20
45.619459946494551
30
-8.5376150593674538e-12
40
0.50000000000000711
210
0
220
-0
230
1
100
AcDbArc
50
0
51
90.000000000003254
0
LINE
5
243
100
AcDbEntity
8
0
100
AcDbLine
10
171.4648093568135
20
45.619459946494587
30
-8.5376150593674538e-12
11
171.46480935681512
21
27.569424792304027
31
-3.0486724256206799e-12
0
ARC
5
244
100
AcDbEntity
8
0
100
AcDbCircle
10
170.96480935681515
20
27.569424792303998
30
-1.2656769811258366e-10
40
0.50000000000002964
210
-4.8454919914351685e-15
220
-4.460873481308149e-12
230
1
100
AcDbArc
50
-90.062235822813207
51
0
0
LINE
5
245
100
AcDbEntity
8
0
100
AcDbLine
10
170.96426624691156
20
27.069425087272421
30
-4.986011603591578e-12
11
157.67785275831059
21
27.068490573849743
31
-3.4416913763379853e-14
0
ARC
5
246
100
AcDbEntity
8
0
100
AcDbCircle
10
157.67730935681521
20
26.568490534408493
30
3.1901427028309621e-11
40
0.50000033472632321
210
1.2741612450196757e-15
220
1.1723940367605445e-12
230
1
100
AcDbArc
50
89.937730804895679
51
180
0
LINE
5
247
100
AcDbEntity
8
0
100
AcDbLine
10
157.17730935681521
20
26.56849053440844
30
-3.3695268797373501e-12
11
157.17730935681692
21
8.5184553802168406
31
-7.8337336617551045e-12
0
ARC
5
248
100
AcDbEntity
8
0
100
AcDbCircle
10
156.67730935681692
20
8.5184553802167962
30
-7.8337336617551045e-12
40
0.49999999999999822
210
-7.2575203280333603e-27
220
1.0214051826551477e-13
230
1
100
AcDbArc
50
-89.999999999993491
51
0
0
LINE
5
249
100
AcDbEntity
8
0
100
AcDbLine
10
156.67730935681698
20
8.0184553802167979
30
-7.7826634026223473e-12
11
148.15230935681689
21
8.0184553802205016
31
-4.4375614294267507e-12
0
ARC
5
250
100
AcDbEntity
8
0
100
AcDbCircle
10
148.15230935681697
20
7.5184553802150855
30
6.6798433397586777e-11
40
0.50000000000541611
210
-1.2624929926883559e-24
220
8.8840046429542686e-12
230
1
100
AcDbArc
50
90.000000000009777
51
180
0
LINE
5
251
100
AcDbEntity
8
0
100
AcDbLine
10
147.65230935681697
20
7.5184553802150411
30
4.4408920985006262e-15
11
147.65230935681868
21
-10.53154198311435
31
-5.21249710061511e-12
0
ARC
5
252
100
AcDbEntity
8
0
100
AcDbCircle
10
147.15230935681865
20
-10.531541983114398
30
-1.4595458261141982e-10
40
0.49999999999999817
210
-1.5581015776747866e-14
220
1.2640989755970988e-11
230
1
100
AcDbArc
50
-89.929378473546208
51
0
0
LINE
5
253
100
AcDbEntity
8
0
100
AcDbLine
10
147.1529256457423
20
-11.031541603302216
30
-4.2121861554278439e-12
11
-42.347074332406827
21
-11.030542693430805
31
7.7715611723760958e-15
0
ARC
5
254
100
AcDbEntity
8
0
100
AcDbCircle
10
-42.347690643181728
20
-10.53054269017036
30
-1.0479570138674043e-09
40
0.50000000000000711
210
2.4391599851014343e-11
220
1.9497683348668278e-24
230
1
100
AcDbArc
50
180
51
270.07062397631245
0
LINE
5
255
100
AcDbEntity
8
0
100
AcDbLine
10
-42.847690643181735
20
-10.530542690170401
30
-2.8332891588433995e-12
11
-42.847690643183412
21
7.5194599464765677
31
5.8952842607595812e-13
0
ARC
5
256
100
AcDbEntity
8
0
100
AcDbCircle
10
-43.347690643183412
20
7.5194599464765233
30
5.8952842607595812e-13
40
0.49999999999999822
210
0
220
-0
230
1
100
AcDbArc
50
0
51
90.000000000004889
0
LINE
5
257
100
AcDbEntity
8
0
100
AcDbLine
10
-43.347690643183455
20
8.0194599464765215
30
5.3845816694320092e-13
11
-51.872690643183468
21
8.0194599464811667
31
-3.8502534494000429e-12
0
ARC
5
258
100
AcDbEntity
8
0
100
AcDbCircle
10
-51.872690643183518
20
8.5194599464766529
30
-7.2464256817283967e-12
40
0.49999999999999822
210
0
220
0
230
1
100
AcDbArc
50
180
51
270.00000000000568
0
LINE
5
259
100
AcDbEntity
8
0
100
AcDbLine
10
-52.372690643183518
20
8.5194599464765997
30
-7.2464256817283967e-12
11
-52.372690643185194
21
26.569459946480212
31
4.7961634663806763e-13
0
CIRCLE
5
260
100
AcDbEntity
8
0
100
AcDbCircle
10
-86.499404205561916
20
65.958673508802818
30
-2.5990321006474915e-12
40
0.97999999999999998
210
1.5777218104420236e-30
220
-1.3877787807814457e-17
230
1
0
CIRCLE
5
261
100
AcDbEntity
8
0
100
AcDbCircle
10
200.82902291921164
20
65.958673508829534
30
-2.6023627697213669e-12
40
0.93000000000000016
210
1.5777218104420236e-30
220
-1.3877787807814457e-17
230
1
0
CIRCLE
5
262
100
AcDbEntity
8
0
100
AcDbCircle
10
-86.499404205552935
20
-30.87217888745856
30
-1.4210854715202004e-13
40
0.93000000000000016
210
1.5777218104420236e-30
220
-1.3877787807814457e-17
230
1
0
CIRCLE
5
263
100
AcDbEntity
8
0
100
AcDbCircle
10
200.82902291922065
20
-30.872178887431847
30
-1.4543921622589551e-13
40
0.93000000000000016
210
1.5777218104420236e-30
220
-1.3877787807814457e-17
230
1
0
ENDSEC
0
SECTION
2
OBJECTS
0
DICTIONARY
5
C
100
AcDbDictionary
3
ACAD_GROUP
350
D
3
ACAD_MLINESTYLE
350
17
0
DICTIONARY
5
D
100
AcDbDictionary
0
DICTIONARY
5
1A
330
C
100
AcDbDictionary
0
DICTIONARY
5
17
100
AcDbDictionary
0
ENDSEC
0
EOF
