0
SECTION
2
HEADER
9
$INSUNITS
70
4
9
$ACADVER
1
AC1014
9
$HANDSEED
5
FFFF
0
ENDSEC
0
SECTION
2
TABLES
0
TABLE
2
VPORT
5
8
100
AcDbSymbolTable
0
ENDTAB
0
TABLE
2
LTYPE
5
5
100
AcDbSymbolTable
0
LTYPE
5
14
100
AcDbSymbolTableRecord
100
AcDbLinetypeTableRecord
2
BYBLOCK
70
0
0
LTYPE
5
15
100
AcDbSymbolTableRecord
100
AcDbLinetypeTableRecord
2
BYLAYER
70
0
0
ENDTAB
0
TABLE
2
LAYER
5
2
100
AcDbSymbolTable
70
2
0
LAYER
5
50
100
AcDbSymbolTableRecord
100
AcDbLayerTableRecord
2
0
70
0
6
CONTINUOUS
0
ENDTAB
0
TABLE
2
STYLE
5
3
100
AcDbSymbolTable
70
1
0
STYLE
5
11
100
AcDbSymbolTableRecord
100
AcDbTextStyleTableRecord
2
STANDARD
70
0
0
ENDTAB
0
TABLE
2
VIEW
5
6
100
AcDbSymbolTable
70
0
0
ENDTAB
0
TABLE
2
UCS
5
7
100
AcDbSymbolTable
70
0
0
ENDTAB
0
TABLE
2
APPID
5
9
100
AcDbSymbolTable
70
2
0
APPID
5
12
100
AcDbSymbolTableRecord
100
AcDbRegAppTableRecord
2
ACAD
70
0
0
ENDTAB
0
TABLE
2
DIMSTYLE
5
A
100
AcDbSymbolTable
70
1
0
ENDTAB
0
TABLE
2
BLOCK_RECORD
5
1
100
AcDbSymbolTable
70
1
0
BLOCK_RECORD
5
1F
100
AcDbSymbolTableRecord
100
AcDbBlockTableRecord
2
*MODEL_SPACE
0
BLOCK_RECORD
5
1B
100
AcDbSymbolTableRecord
100
AcDbBlockTableRecord
2
*PAPER_SPACE
0
ENDTAB
0
ENDSEC
0
SECTION
2
BLOCKS
0
BLOCK
5
20
100
AcDbEntity
100
AcDbBlockBegin
2
*MODEL_SPACE
0
ENDBLK
5
21
100
AcDbEntity
100
AcDbBlockEnd
0
BLOCK
5
1C
100
AcDbEntity
100
AcDbBlockBegin
2
*PAPER_SPACE
0
ENDBLK
5
1D
100
AcDbEntity
100
AcDbBlockEnd
0
ENDSEC
0
SECTION
2
ENTITIES
0
ARC
5
100
100
AcDbEntity
8
0
100
AcDbCircle
10
1291.4671521886567
20
6549.862401480591
30
1.372124636134231e-11
40
6695.9063232898206
210
-3.9074301458298689e-16
220
-2.0934615369156008e-15
230
1
100
AcDbArc
50
259.42744118127672
51
259.43153451399093
0
LINE
5
101
100
AcDbEntity
8
0
100
AcDbLine
10
63.368738722734562
20
-32.457537349113927
30
-5.3845816694320092e-13
11
172.54395891981551
21
-32.457537349633554
31
7.6605388699135801e-14
0
LINE
5
102
100
AcDbEntity
8
0
100
AcDbLine
10
172.54395891981551
20
-32.457537349633554
30
7.6605388699135801e-14
11
173.01421076631556
21
-32.369782580681836
31
-2.3392399128852048e-12
0
ARC
5
103
100
AcDbEntity
8
0
100
AcDbCircle
10
172.60145850661559
20
-30.157965325085065
30
-1.27675647831893e-13
40
2.2500000000095719
210
1.8031173291154441e-13
220
-9.6623723521273913e-13
230
1
100
AcDbArc
50
280.57051215344859
51
327.86507199544536
0
ARC
5
104
100
AcDbEntity
8
0
100
AcDbCircle
10
176.58140825501562
20
-32.657965325084547
30
-1.354472090042691e-13
40
2.4500000000000766
210
0
220
-4.531522549490294e-16
230
1
100
AcDbArc
50
90
51
147.86507199590636
0
LINE
5
105
100
AcDbEntity
8
0
100
AcDbLine
10
176.58140825501562
20
-30.207965325084473
30
-1.3433698597964394e-13
11
181.48128939031557
21
-30.207965325084505
31
5.262457136723242e-13
0
ARC
5
106
100
AcDbEntity
8
0
100
AcDbCircle
10
181.48128939031557
20
-32.657965325084398
30
-1.2989609388114332e-13
40
2.4499999999999238
210
-7.6745668216362089e-16
220
-4.8207686696632673e-16
230
1
100
AcDbArc
50
32.13492800409135
51
90
0
ARC
5
107
100
AcDbEntity
8
0
100
AcDbCircle
10
185.46123913871548
20
-30.157965325085165
30
-1.2434497875801753e-13
40
2.2499999999771525
210
-1.2535125808735939e-15
220
-7.8739221606306931e-16
230
1
100
AcDbArc
50
212.1349280045533
51
259.42948784905519
0
LINE
5
108
100
AcDbEntity
8
0
100
AcDbLine
10
185.04848687911812
20
-32.369782580668094
30
-1.27675647831893e-13
11
185.51873872551553
21
-32.457537349633597
31
7.6605388699135801e-14
0
LINE
5
109
100
AcDbEntity
8
0
100
AcDbLine
10
185.51873872551553
20
-32.457537349633597
30
7.6605388699135801e-14
11
200.41480935681625
21
-32.457537349633554
31
-1.1102230246251565e-15
0
ELLIPSE
5
110
100
AcDbEntity
8
0
100
AcDbEllipse
10
200.41480935681633
20
-30.457537268227778
30
-1.1102230246251565e-15
11
-4.2619105546730899e-09
21
-2.0000000814057723
31
0.0
40
0.99999995929711616
41
2.1309176645445405e-09
42
1.570796328925848
0
LINE
5
111
100
AcDbEntity
8
0
100
AcDbLine
10
202.41480935681631
20
-30.457537268227789
30
-1.1102230246251565e-15
11
202.41480935681659
21
65.544459946474632
31
5.5511151231257827e-15
0
ARC
5
112
100
AcDbEntity
8
0
100
AcDbCircle
10
200.41480935681662
20
65.544459946474646
30
5.5511151231257827e-15
40
1.9999999999999574
210
0
220
0
230
1
100
AcDbArc
50
0
51
90
0
LINE
5
113
100
AcDbEntity
8
0
100
AcDbLine
10
200.41480935681662
20
67.54445994647466
30
1.6653345369377348e-14
11
169.86994055231591
21
67.544459946474717
31
7.3274719625260332e-14
0
LINE
5
114
100
AcDbEntity
8
0
100
AcDbLine
10
169.86994055231591
20
67.544459946474717
30
7.3274719625260332e-14
11
169.39497433111592
21
67.458459946433948
31
7.7249318053418392e-12
0
ARC
5
115
100
AcDbEntity
8
0
100
AcDbCircle
10
169.79585336521586
20
65.244459946478472
30
-1.1551878087875747e-10
40
2.24999999995195
210
6.0660729342961254e-13
220
-3.3502089991845901e-12
230
1
100
AcDbArc
50
100.26309589822776
51
145.58261129005737
0
ARC
5
116
100
AcDbEntity
8
0
100
AcDbCircle
10
166.00112017301592
20
67.844459946521297
30
7.1054273576010019e-14
40
2.3500000000000831
210
0
220
-1.8897413185108381e-15
230
1
100
AcDbArc
50
270
51
325.58261128819026
0
LINE
5
117
100
AcDbEntity
8
0
100
AcDbLine
10
166.00112017301592
20
65.494459946521204
30
6.6613381477509392e-14
11
162.26182187341584
21
65.494459946521204
31
-2.9176661087149114e-12
0
ARC
5
118
100
AcDbEntity
8
0
100
AcDbCircle
10
162.26182187341601
20
67.844459946521326
30
7.3274719625260332e-14
40
2.3500000000001076
210
-7.7946348977298054e-16
220
-5.3405732916296388e-16
230
1
100
AcDbArc
50
214.41738871180885
51
269.99999999999585
0
ARC
5
119
100
AcDbEntity
8
0
100
AcDbCircle
10
158.46708868121601
20
65.244459946478628
30
6.4392935428259079e-14
40
2.250000000022323
210
-2.4423189346524646e-15
220
-1.6733796312811021e-15
230
1
100
AcDbArc
50
34.417388709940042
51
79.736904101771785
0
LINE
5
120
100
AcDbEntity
8
0
100
AcDbLine
10
158.86796771532852
20
67.458459946503382
30
6.4392935428259079e-14
11
158.39300149411602
21
67.544459946474745
31
7.3274719625260332e-14
0
LINE
5
121
100
AcDbEntity
8
0
100
AcDbLine
10
158.39300149411602
20
67.544459946474745
30
7.3274719625260332e-14
11
62.738488312216191
21
67.544459946474973
31
6.9944050551384862e-14
0
LINE
5
122
100
AcDbEntity
8
0
100
AcDbLine
10
62.738488312216191
20
67.544459946474973
30
6.9944050551384862e-14
11
62.27043221621615
21
67.449930417783136
31
-1.0358380819752711e-12
0
ARC
5
123
100
AcDbEntity
8
0
100
AcDbCircle
10
62.715853365216091
20
65.244459946478926
30
3.4416913763379853e-14
40
2.2499999999491562
210
-9.4165769865950415e-14
220
4.6625497085907701e-13
230
1
100
AcDbArc
50
101.41798031452969
51
145.58261129005891
0
ARC
5
124
100
AcDbEntity
8
0
100
AcDbCircle
10
58.921120173016149
20
67.844459946521624
30
4.3298697960381105e-14
40
2.3500000000000298
210
-2.1426733505323449e-29
220
-2.8346119777663208e-15
230
1
100
AcDbArc
50
269.9999999999996
51
325.58261128819134
0
LINE
5
125
100
AcDbEntity
8
0
100
AcDbLine
10
58.921120173016135
20
65.494459946521602
30
3.6637359812630166e-14
11
55.181821873416141
21
65.494459946521602
31
-3.9734882051334353e-12
0
ARC
5
126
100
AcDbEntity
8
0
100
AcDbCircle
10
55.181821873416169
20
67.84445994652161
30
4.1078251911130792e-14
40
2.3500000000000183
210
-2.3383904693190762e-15
220
-1.6021719874888847e-15
230
1
100
AcDbArc
50
214.41738871180749
51
269.99999999999932
0
ARC
5
127
100
AcDbEntity
8
0
100
AcDbCircle
10
51.387088681216127
20
65.244459946478898
30
3.4416913763379853e-14
40
2.2500000000224665
210
0
220
-0
230
1
100
AcDbArc
50
34.4173887099412
51
79.736904101769738
0
LINE
5
128
100
AcDbEntity
8
0
100
AcDbLine
10
51.787967715328733
20
67.458459946503751
30
3.219646771412954e-14
11
51.313001494116186
21
67.54445994647503
31
1.0547118733938987e-13
0
LINE
5
129
100
AcDbEntity
8
0
100
AcDbLine
10
51.313001494116186
20
67.54445994647503
30
1.0547118733938987e-13
11
-44.063382780483629
21
67.544459946475257
31
6.6613381477509392e-14
0
LINE
5
130
100
AcDbEntity
8
0
100
AcDbLine
10
-44.063382780483629
20
67.544459946475257
30
6.6613381477509392e-14
11
-44.538349001693632
21
67.458459946434729
31
5.5799809217660368e-12
0
ARC
5
131
100
AcDbEntity
8
0
100
AcDbCircle
10
-44.137469967573637
20
65.244459946479267
30
-1.7849921895770713e-10
40
2.2499999999555009
210
4.4132878451582367e-13
220
-2.4373984312831048e-12
230
1
100
AcDbArc
50
100.26309589873026
51
145.58261128977145
0
ARC
5
132
100
AcDbEntity
8
0
100
AcDbCircle
10
-47.932203159773636
20
67.844459946522008
30
1.3322676295501878e-14
40
2.3500000000000298
210
7.1422445017744838e-30
220
-9.4487065925544033e-16
230
1
100
AcDbArc
50
270.00000000000051
51
325.58261128846652
0
LINE
5
133
100
AcDbEntity
8
0
100
AcDbLine
10
-47.932203159773614
20
65.494459946521971
30
1.1102230246251565e-14
11
-51.671501459373616
21
65.494459946522014
31
-5.0648374383399641e-12
0
ARC
5
134
100
AcDbEntity
8
0
100
AcDbCircle
10
-51.671501459373573
20
67.844459946522051
30
8.8817841970012523e-15
40
2.3500000000000627
210
0
220
0
230
1
100
AcDbArc
50
214.41738871153279
51
269.99999999999898
0
ARC
5
135
100
AcDbEntity
8
0
100
AcDbCircle
10
-55.4662346515736
20
65.244459946479338
30
0
40
2.2500000000224074
210
-3.2564252461919475e-15
220
-2.2311728417244245e-15
230
1
100
AcDbArc
50
34.417388710228295
51
79.736904101269758
0
LINE
5
136
100
AcDbEntity
8
0
100
AcDbLine
10
-55.065355617441682
20
67.458459946500653
30
6.6613381477509392e-15
11
-55.540321838663601
21
67.544459946475271
31
6.6613381477509392e-14
0
LINE
5
137
100
AcDbEntity
8
0
100
AcDbLine
10
-55.540321838663601
20
67.544459946475271
30
6.6613381477509392e-14
11
-86.085190643183566
21
67.544459946475328
31
-5.5511151231257827e-15
0
ARC
5
138
100
AcDbEntity
8
0
100
AcDbCircle
10
-86.085190643183566
20
65.544459946475342
30
-3.3306690738754696e-15
40
1.9999999999999929
210
0
220
1.1102230246251605e-15
230
1
100
AcDbArc
50
90
51
180
0
LINE
5
139
100
AcDbEntity
8
0
100
AcDbLine
10
-88.085190643183552
20
65.544459946475342
30
5.5511151231257827e-15
11
-88.085190643183822
21
-30.457537268227085
31
9.9920072216264089e-15
0
ELLIPSE
5
140
100
AcDbEntity
8
0
100
AcDbEllipse
10
-86.085190643183807
20
-30.457537268227082
30
-1.1102230246251565e-14
11
4.2619160898400359e-09
21
-2.0000000814057723
31
0.0
40
0.99999995929711638
41
4.7123889782537347
42
6.2831853050486259
0
LINE
5
141
100
AcDbEntity
8
0
100
AcDbLine
10
-86.085190643183807
20
-32.457537349632858
30
-1.1102230246251565e-14
11
-71.189120011903952
21
-32.457537349632958
31
6.7723604502134549e-14
0
LINE
5
142
100
AcDbEntity
8
0
100
AcDbLine
10
-71.189120011903952
20
-32.457537349632958
30
6.7723604502134549e-14
11
-70.718868165443936
21
-32.369782580680955
31
-4.8072656966269278e-12
0
ARC
5
143
100
AcDbEntity
8
0
100
AcDbCircle
10
-71.131620425093928
20
-30.157965325084174
30
3.3806016563726901e-11
40
2.2500000000004108
210
3.7583047939967992e-13
220
-2.0139643577489845e-12
230
1
100
AcDbArc
50
280.57051215219735
51
327.86507199583053
0
ARC
5
144
100
AcDbEntity
8
0
100
AcDbCircle
10
-67.151670676673959
20
-32.657965325083588
30
-2.0206059048177849e-13
40
2.4499999999999966
210
-6.5711029172929102e-30
220
-1.8126090197961764e-15
230
1
100
AcDbArc
50
89.999999999999673
51
147.86507199580203
0
LINE
5
145
100
AcDbEntity
8
0
100
AcDbLine
10
-67.151670676673945
20
-30.207965325083592
30
-1.9761969838327786e-13
11
-62.251789541413956
21
-30.207965325083617
31
-1.9428902930940239e-12
0
ARC
5
146
100
AcDbEntity
8
0
100
AcDbCircle
10
-62.25178954141397
20
-32.65796532508363
30
-2.0206059048177849e-13
40
2.4500000000000104
210
-1.5349133643254051e-15
220
-9.6415373393545688e-16
230
1
100
AcDbArc
50
32.134928004197597
51
89.999999999999673
0
ARC
5
147
100
AcDbEntity
8
0
100
AcDbCircle
10
-58.271839792983933
20
-30.15796532508417
30
-1.9317880628477724e-13
40
2.2500000000027134
210
-1.6713501078219773e-15
220
-1.0498562880570332e-15
230
1
100
AcDbArc
50
212.13492800403455
51
259.42948784780179
0
LINE
5
148
100
AcDbEntity
8
0
100
AcDbLine
10
-58.684592052634379
20
-32.369782580683207
30
-1.9650947535865271e-13
11
-58.214340206183977
21
-32.457537349633
31
6.8833827526759706e-14
0
LINE
5
149
100
AcDbEntity
8
0
100
AcDbLine
10
-58.214340206183977
20
-32.457537349633
30
6.8833827526759706e-14
11
50.393958919815773
21
-32.457537349633334
31
-6.1617377866696188e-13
0
LINE
5
150
100
AcDbEntity
8
0
100
AcDbLine
10
50.393958919815773
20
-32.457537349633334
30
-6.1617377866696188e-13
11
50.864210766315793
21
-32.369782580681402
31
-3.5915714846623814e-12
0
ARC
5
151
100
AcDbEntity
8
0
100
AcDbCircle
10
50.451458506746491
20
-30.157965325304431
30
5.9111420646690432e-11
40
2.2499999997695248
210
2.7951939315932969e-13
220
-1.4978617382917046e-12
230
1
100
AcDbArc
50
280.5705121512043
51
326.41967853910654
0
ARC
5
152
100
AcDbEntity
8
0
100
AcDbCircle
10
54.367053068730641
20
-32.757466009730834
30
-1.6875389974302379e-13
40
2.4499238917274058
210
-8.6537602305337998e-25
220
-9.0633266476074439e-16
230
1
100
AcDbArc
50
89.999999945293553
51
146.42116106866024
0
LINE
5
153
100
AcDbEntity
8
0
100
AcDbLine
10
54.367053071069847
20
-30.307542118003429
30
-1.6653345369377348e-13
11
59.395644571715778
21
-30.307542122804819
31
-1.2423395645555502e-12
0
ARC
5
154
100
AcDbEntity
8
0
100
AcDbCircle
10
59.395644569376493
20
-32.757542092654603
30
-1.6542323066914832e-13
40
2.4499999698497725
210
0
220
-0
230
1
100
AcDbArc
50
33.580321220214145
51
89.999999945293425
0
ARC
5
155
100
AcDbEntity
8
0
100
AcDbCircle
10
63.311332463757125
20
-30.157903366271185
30
-1.6209256159527285e-13
40
2.25007802885529
210
-1.2332096321024313e-15
220
-8.187321408768257e-16
230
1
100
AcDbArc
50
213.58032146366006
51
259.42744118128047
0
LWPOLYLINE
5
156
100
AcDbEntity
8
0
100
AcDbPolyline
90
8
70
1
43
0.0
10
-80.803940643183665
20
4.7444599464754411
10
-80.803940643183694
20
-7.7555400535245766
42
0.41421356237309337
10
-80.053940643183694
20
-8.5055400535245784
10
-67.553940643183694
20
-8.5055400535246086
42
0.41421356237308982
10
-66.803940643183694
20
-7.7555400535246122
10
-66.803940643183651
20
4.7444599464754056
42
0.41421356237309159
10
-67.553940643183665
20
5.4944599464753985
10
-80.053940643183665
20
5.4944599464754429
42
0.41421356237308815
0
LWPOLYLINE
5
157
100
AcDbEntity
8
0
100
AcDbPolyline
90
24
70
1
43
0.0
10
197.2148093568166
20
62.644459946474633
10
164.76480935681664
20
62.64445994647474
42
0.41421356237306034
10
164.46480935681663
20
62.344459946474728
10
164.46480935681663
20
48.944459946474751
42
0.41421356237312978
10
164.76480935681664
20
48.644459946474718
10
165.28980935681659
20
48.644459946474718
42
-0.41421356237311241
10
165.5898093568166
20
48.344459946474686
10
165.5898093568166
20
47.444459946474694
42
0.41421356237309503
10
165.88980935681661
20
47.144459946474683
10
172.28980935681662
20
47.144459946474662
42
0.41421356237311241
10
172.58980935681663
20
47.444459946474694
10
172.58980935681655
20
48.344459946474686
42
-0.41421356237311241
10
172.88980935681656
20
48.644459946474697
10
189.0898093568166
20
48.644459946474669
42
-0.41421356237309503
10
189.38980935681661
20
48.344459946474657
10
189.38980935681661
20
47.444459946474673
42
0.41421356237309503
10
189.68980935681662
20
47.14445994647464
10
196.08980935681657
20
47.144459946474662
42
0.41421356237309503
10
196.38980935681658
20
47.444459946474673
10
196.38980935681658
20
48.344459946474636
42
-0.41421356237311241
10
196.6898093568166
20
48.644459946474647
10
197.2148093568166
20
48.644459946474647
42
0.41421356237309503
10
197.51480935681661
20
48.944459946474659
10
197.51480935681661
20
62.344459946474622
42
0.41421356237309503
0
LWPOLYLINE
5
158
100
AcDbEntity
8
0
100
AcDbPolyline
90
17
70
1
43
0.0
10
180.54603978734355
20
5.4934358094473357
10
165.44605935711439
20
5.4924508139190742
10
157.62105935681649
20
5.4924508139190653
42
0.41421356237310375
10
157.32105935681648
20
5.1924508139190628
10
157.32105935681648
20
-8.2075491860809535
42
0.41421356237309076
10
157.62105935681649
20
-8.5075491860809649
10
158.14605935681644
20
-8.5075491860809436
42
-0.41421356237309503
10
158.44605935681645
20
-8.8075491860809549
10
158.44605935681645
20
-9.7065446198031502
42
0.41421356237308637
10
158.74605935681646
20
-10.006544619803144
10
165.14605935681635
20
-10.006544619803147
42
0.41421356237309503
10
165.44605935681636
20
-9.7065446198031502
10
165.44605935681636
20
-8.807529617246308
42
-0.4141944566158125
10
165.74603978734353
20
-8.5075296178845896
10
180.54607892628928
20
-8.5065641879995901
42
0.4141944566158125
10
180.84605935681645
20
-8.2065641886378558
10
180.84605935681645
20
5.193435810085596
42
0.41423266838850065
0
ARC
5
159
100
AcDbEntity
8
0
100
AcDbCircle
10
155.43980935681654
20
-14.057549186080927
30
1.2989609388114332e-13
40
0.50000000000001288
210
-6.6613247031673032e-15
220
1.3383484324481541e-17
230
1
100
AcDbArc
50
179.88488533897549
51
180
0
ARC
5
160
100
AcDbEntity
8
0
100
AcDbCircle
10
155.4398093568164
20
-14.056544619803102
30
3.1086244689504383e-14
40
0.49999999999997602
210
-1.577721810442175e-28
220
-2.2204460492504196e-15
230
1
100
AcDbArc
50
89.999999999996746
51
180
0
LINE
5
161
100
AcDbEntity
8
0
100
AcDbLine
10
155.43980935681643
20
-13.556544619803127
30
3.219646771412954e-14
11
155.44081392309434
21
-13.557549186080919
31
-6.6613381477509392e-15
0
LINE
5
162
100
AcDbEntity
8
0
100
AcDbLine
10
155.44081392309434
20
-13.557549186080919
30
-6.6613381477509392e-15
11
168.43880479053871
21
-13.557549186080955
31
-8.8817841970012523e-15
0
LINE
5
163
100
AcDbEntity
8
0
100
AcDbLine
10
168.43880479053871
20
-13.557549186080955
30
-8.8817841970012523e-15
11
168.43980935681643
21
-13.556544619803166
31
-7.4384942649885488e-14
0
ARC
5
164
100
AcDbEntity
8
0
100
AcDbCircle
10
168.43980935681643
20
-14.056544619803134
30
3.1086244689504383e-14
40
0.49999999999997158
210
0
220
0
230
1
100
AcDbArc
50
0
51
90
0
ARC
5
165
100
AcDbEntity
8
0
100
AcDbCircle
10
168.43980935681651
20
-14.057549186080958
30
1.2323475573339238e-13
40
0.50000000000004263
210
2.2204460492501238e-15
220
1.9721522630521932e-29
230
1
100
AcDbArc
50
0
51
0.11511466102766099
0
LINE
5
166
100
AcDbEntity
8
0
100
AcDbLine
10
168.93980935681654
20
-14.057549186080953
30
1.2212453270876722e-13
11
168.9398093568164
21
-27.056544619803176
31
1.0547118733938987e-13
0
ARC
5
167
100
AcDbEntity
8
0
100
AcDbCircle
10
168.43980935681643
20
-27.056544619803194
30
3.5527136788005009e-14
40
0.49999999999994182
210
2.2204415677227502e-15
220
-4.4611614414162295e-18
230
1
100
AcDbArc
50
-0.11511466102451205
51
0
0
ARC
5
168
100
AcDbEntity
8
0
100
AcDbCircle
10
168.43980935681651
20
-27.057549186080973
30
1.5210055437364645e-13
40
0.50000000000000711
210
0
220
2.2204460492502815e-15
230
1
100
AcDbArc
50
-90
51
0
0
LINE
5
169
100
AcDbEntity
8
0
100
AcDbLine
10
168.43980935681651
20
-27.55754918608098
30
1.532107773982716e-13
11
155.43980935681651
21
-27.557549186080944
31
0
0
ARC
5
170
100
AcDbEntity
8
0
100
AcDbCircle
10
155.43980935681651
20
-27.057549186080937
30
1.5210055437364645e-13
40
0.50000000000001166
210
-1.5700924586837779e-15
220
-1.570092458683699e-15
230
1
100
AcDbArc
50
224.99999999999739
51
270
0
LINE
5
171
100
AcDbEntity
8
0
100
AcDbLine
10
155.08625596622321
20
-27.41110257667421
30
1.5099033134902129e-13
11
155.0867586061519
21
-27.410599936745523
31
0
0
ARC
5
172
100
AcDbEntity
8
0
100
AcDbCircle
10
155.43980935681637
20
-27.056544619803162
30
3.5527136788005009e-14
40
0.49999999999997158
210
2.2204460492504393e-15
220
-9.8607613152637686e-29
230
1
100
AcDbArc
50
180
51
225.08139849433977
0
LINE
5
173
100
AcDbEntity
8
0
100
AcDbLine
10
154.9398093568164
20
-27.056544619803141
30
3.6637359812630166e-14
11
154.93980935681654
21
-14.057549186080918
31
1.2878587085651816e-13
0
LWPOLYLINE
5
174
100
AcDbEntity
8
0
100
AcDbPolyline
90
8
70
1
43
0.0
10
-41.110190643183707
20
-13.555540053524847
10
-54.110190643183728
20
-13.555540053524817
42
0.41421356237309503
10
-54.610190643183728
20
-14.055540053524815
10
-54.61019064318377
20
-27.055540053524822
42
0.41421356237309503
10
-54.110190643183756
20
-27.555540053524826
10
-41.110190643183742
20
-27.555540053524858
42
0.41421356237309503
10
-40.610190643183742
20
-27.055540053524858
10
-40.610190643183721
20
-14.055540053524847
42
0.41421356237309503
0
LWPOLYLINE
5
175
100
AcDbEntity
8
0
100
AcDbPolyline
90
4
70
1
43
0.0
10
-54.695690643183653
20
11.044459946475218
10
-54.695690643183625
20
24.044459946475261
42
0.99999999999999989
10
-55.695690643183639
20
24.044459946475261
10
-55.69569064318366
20
11.044459946475227
42
0.99999999999999989
0
LWPOLYLINE
5
176
100
AcDbEntity
8
0
100
AcDbPolyline
90
4
70
1
43
0.0
10
-83.685190643183603
20
43.094459946475325
10
-83.685190643183631
20
30.094459946475318
42
0.99999999999999989
10
-82.685190643183617
20
30.094459946475311
10
-82.685190643183574
20
43.094459946475311
42
0.99999999999999989
0
LINE
5
177
100
AcDbEntity
8
0
100
AcDbLine
10
-59.164473976557225
20
29.594459951475251
30
1.4432899320127035e-14
11
-59.164573976556731
21
29.594459941475257
31
1.4432899320127035e-14
0
ARC
5
178
100
AcDbEntity
8
0
100
AcDbCircle
10
-59.164523976516953
20
30.094459938975255
30
-6.9944050551384862e-14
40
0.49999999999999822
210
0
220
0
230
1
100
AcDbArc
50
180
51
269.99427041748095
0
LINE
5
179
100
AcDbEntity
8
0
100
AcDbLine
10
-59.664523976516946
20
30.094459938975255
30
-6.9944050551384862e-14
11
-59.664523976516918
21
43.094459946475268
31
4.1078251911130792e-14
0
ARC
5
180
100
AcDbEntity
8
0
100
AcDbCircle
10
-59.164523976516925
20
43.094459946475268
30
-7.5495165674510645e-14
40
0.50000000000001599
210
-2.2204460492502421e-15
220
0
230
1
100
AcDbArc
50
0
51
180
0
LINE
5
181
100
AcDbEntity
8
0
100
AcDbLine
10
-58.664523976516911
20
43.094459946475268
30
-7.4384942649885488e-14
11
-58.664523976516953
21
30.094459948975256
31
1.6653345369377348e-14
0
ARC
5
182
100
AcDbEntity
8
0
100
AcDbCircle
10
-59.164523976516953
20
30.094459938975255
30
-6.9944050551384862e-14
40
0.49999999000000206
210
-1.6875377057236141e-17
220
1.6875390227433296e-13
230
1
100
AcDbArc
50
-89.99427042653933
51
1.2074182697257333e-06
0
LWPOLYLINE
5
183
100
AcDbEntity
8
0
100
AcDbPolyline
90
8
70
1
43
0.0
10
-7.2726906431836724
20
-8.2055400535249134
10
-7.2726906431836369
20
5.194459946475094
42
0.41421356237309503
10
-7.5726906431836305
20
5.4944599464750876
10
-20.97269064318364
20
5.4944599464751143
42
0.41421356237307771
10
-21.27269064318364
20
5.1944599464751295
10
-21.272690643183687
20
-8.2055400535248921
42
0.41421356237308637
10
-20.972690643183682
20
-8.5055400535248893
10
-7.572690643183666
20
-8.5055400535249106
42
0.41421356237309503
0
LWPOLYLINE
5
184
100
AcDbEntity
8
0
100
AcDbPolyline
90
8
70
1
43
0.0
10
-11.447690643183623
20
10.544459946475104
10
1.9523093568163929
20
10.544459946475069
42
0.41421356237308637
10
2.2523093568163866
20
10.844459946475062
10
2.2523093568164221
20
24.244459946475089
42
0.41421356237309503
10
1.9523093568164285
20
24.54445994647509
10
-11.447690643183588
20
24.544459946475115
42
0.41421356237310375
10
-11.74769064318359
20
24.244459946475114
10
-11.747690643183626
20
10.844459946475098
42
0.41421356237308637
0
LWPOLYLINE
5
185
100
AcDbEntity
8
0
100
AcDbPolyline
90
8
70
1
43
0.0
10
45.702309356816443
20
10.544459946474953
10
59.102309356816448
20
10.544459946474927
42
0.41421356237307771
10
59.402309356816438
20
10.844459946474929
10
59.40230935681646
20
24.244459946474954
42
0.41421356237310375
10
59.102309356816463
20
24.544459946474973
10
45.702309356816464
20
24.544459946474984
42
0.41421356237310375
10
45.402309356816474
20
24.244459946474983
10
45.402309356816453
20
10.844459946474956
42
0.41421356237307771
0
LWPOLYLINE
5
186
100
AcDbEntity
8
0
100
AcDbPolyline
90
8
70
1
43
0.0
10
64.164809356816264
20
-27.256544619802927
10
64.164809356816306
20
-13.856544619802911
42
0.414213562373069
10
63.864809356816309
20
-13.556544619802917
10
50.464809356816303
20
-13.55654461980289
42
0.41421356237310375
10
50.164809356816292
20
-13.856544619802879
10
50.164809356816278
20
-27.256544619802892
42
0.41421356237309936
10
50.464809356816275
20
-27.556544619802892
10
63.864809356816266
20
-27.556544619802928
42
0.41421356237309503
0
LWPOLYLINE
5
187
100
AcDbEntity
8
0
100
AcDbPolyline
90
8
70
1
43
0.0
10
111.78980935681649
20
29.894459946474832
10
111.78980935681652
20
43.294459946474845
42
0.41421356237309503
10
111.48980935681651
20
43.594459946474856
10
98.089809356816545
20
43.594459946474871
42
0.41421356237309503
10
97.789809356816534
20
43.294459946474859
10
97.789809356816505
20
29.894459946474861
42
0.41421356237309503
10
98.089809356816517
20
29.594459946474867
10
111.48980935681648
20
29.594459946474831
42
0.41421356237310375
0
LWPOLYLINE
5
188
100
AcDbEntity
8
0
100
AcDbPolyline
90
8
70
1
43
0.0
10
140.95230935681653
20
10.543455380196907
10
154.35230935681653
20
10.54345538019688
42
0.41421356237308637
10
154.65230935681655
20
10.843455380196891
10
154.65230935681657
20
24.243455380196881
42
0.41421356237310375
10
154.35230935681656
20
24.543455380196903
10
140.95230935681658
20
24.543455380196917
42
0.41421356237308637
10
140.65230935681657
20
24.243455380196927
10
140.65230935681652
20
10.843455380196918
42
0.41421356237309503
0
LWPOLYLINE
5
189
100
AcDbEntity
8
0
100
AcDbPolyline
90
8
70
1
43
0.0
10
140.36480935681655
20
48.944459946474801
10
140.36480935681658
20
62.344459946474785
42
0.41421356237307771
10
140.06480935681657
20
62.644459946474775
10
126.6648093568166
20
62.644459946474846
42
0.41421356237309503
10
126.36480935681659
20
62.344459946474814
10
126.36480935681655
20
48.944459946474822
42
0.41421356237309503
10
126.66480935681656
20
48.644459946474825
10
140.06480935681654
20
48.64445994647479
42
0.41421356237309503
0
LWPOLYLINE
5
190
100
AcDbEntity
8
0
100
AcDbPolyline
90
8
70
1
43
0.0
10
73.689809356816468
20
29.894459946474932
10
73.689809356816497
20
43.294459946474916
42
0.41421356237309503
10
73.389809356816485
20
43.594459946474927
10
59.989809356816473
20
43.594459946474956
42
0.41421356237309503
10
59.689809356816482
20
43.294459946474944
10
59.689809356816426
20
29.89445994647496
42
0.41421356237310375
10
59.989809356816423
20
29.594459946474956
10
73.389809356816457
20
29.594459946474927
42
0.41421356237310375
0
LWPOLYLINE
5
191
100
AcDbEntity
8
0
100
AcDbPolyline
90
8
70
1
43
0.0
10
64.164809356816505
20
48.944459946474993
10
64.164809356816548
20
62.344459946474942
42
0.41421356237309503
10
63.864809356816536
20
62.644459946474953
10
50.464809356816538
20
62.64445994647501
42
0.41421356237311241
10
50.164809356816548
20
62.344459946474998
10
50.164809356816527
20
48.944459946475014
42
0.41421356237309503
10
50.464809356816517
20
48.644459946475024
10
63.864809356816522
20
48.644459946474981
42
0.41421356237309503
0
LWPOLYLINE
5
192
100
AcDbEntity
8
0
100
AcDbPolyline
90
8
70
1
43
0.0
10
7.0148093568164782
20
48.944459946475121
10
7.0148093568165137
20
62.344459946475084
42
0.41421356237307771
10
6.7148093568165024
20
62.644459946475095
10
-6.6851906431834962
20
62.644459946475152
42
0.41421356237307771
10
-6.9851906431834898
20
62.344459946475141
10
-6.9851906431835076
20
48.944459946475156
42
0.41421356237309503
10
-6.685190643183514
20
48.644459946475145
10
6.7148093568164846
20
48.644459946475109
42
0.41421356237309503
0
LWPOLYLINE
5
193
100
AcDbEntity
8
0
100
AcDbPolyline
90
8
70
1
43
0.0
10
-80.803940643183637
20
24.244459946475281
10
-80.80394064318368
20
10.844459946475276
42
0.41421356237308637
10
-80.503940643183668
20
10.544459946475273
10
-62.34144064318366
20
10.544459946475229
42
0.41421356237309503
10
-62.04144064318367
20
10.844459946475231
10
-62.041440643183627
20
24.244459946475256
42
0.41421356237310375
10
-62.341440643183631
20
24.544459946475257
10
-80.503940643183626
20
24.544459946475286
42
0.41421356237310375
0
LWPOLYLINE
5
194
100
AcDbEntity
8
0
100
AcDbPolyline
90
8
70
1
43
0.0
10
-12.035190643183524
20
48.944459946475192
10
-12.035190643183489
20
62.344459946475141
42
0.41421356237307771
10
-12.335190643183491
20
62.644459946475152
10
-25.7351906431835
20
62.644459946475166
42
0.41421356237307771
10
-26.035190643183501
20
62.344459946475155
10
-26.035190643183537
20
48.944459946475192
42
0.41421356237309503
10
-25.735190643183536
20
48.644459946475195
10
-12.335190643183527
20
48.64445994647518
42
0.41421356237309503
0
LWPOLYLINE
5
195
100
AcDbEntity
8
0
100
AcDbPolyline
90
8
70
1
43
0.0
10
-83.185190643183532
20
62.344459946475332
10
-83.185190643183574
20
48.944459946475298
42
0.41421356237312978
10
-82.885190643183577
20
48.644459946475308
10
-69.485190643183572
20
48.644459946475266
42
0.41421356237317308
10
-69.185190643183574
20
48.944459946475298
10
-69.185190643183532
20
62.344459946475297
42
0.41421356237313839
10
-69.485190643183529
20
62.644459946475308
10
-82.885190643183535
20
62.644459946475322
42
0.41421356237312978
0
LWPOLYLINE
5
196
100
AcDbEntity
8
0
100
AcDbPolyline
90
8
70
1
43
0.0
10
-21.560190643183581
20
29.894459946475145
10
-21.560190643183546
20
43.294459946475143
42
0.41421356237309503
10
-21.860190643183543
20
43.594459946475155
10
-35.260190643183556
20
43.59445994647519
42
0.41421356237309503
10
-35.56019064318356
20
43.294459946475179
10
-35.560190643183603
20
29.89445994647518
42
0.41421356237309503
10
-35.260190643183606
20
29.594459946475176
10
-21.860190643183586
20
29.594459946475151
42
0.41421356237309503
0
LWPOLYLINE
5
197
100
AcDbEntity
8
0
100
AcDbPolyline
90
8
70
1
43
0.0
10
-49.547690643183664
20
10.544459946475202
10
-36.147690643183651
20
10.544459946475175
42
0.41421356237308637
10
-35.847690643183647
20
10.844459946475169
10
-35.847690643183611
20
24.244459946475196
42
0.41421356237309503
10
-36.147690643183608
20
24.544459946475197
10
-49.547690643183621
20
24.544459946475214
42
0.41421356237310375
10
-49.847690643183626
20
24.24445994647521
10
-49.847690643183654
20
10.844459946475187
42
0.41421356237307771
0
LWPOLYLINE
5
198
100
AcDbEntity
8
0
100
AcDbPolyline
90
8
70
1
43
0.0
10
26.06480935681649
20
48.944459946475085
10
26.064809356816525
20
62.344459946475027
42
0.41421356237309503
10
25.764809356816514
20
62.644459946475038
10
12.364809356816533
20
62.644459946475095
42
0.41421356237311241
10
12.064809356816539
20
62.344459946475084
10
12.064809356816522
20
48.944459946475106
42
0.41421356237309503
10
12.364809356816515
20
48.644459946475109
10
25.764809356816496
20
48.644459946475074
42
0.41421356237309503
0
LWPOLYLINE
5
199
100
AcDbEntity
8
0
100
AcDbPolyline
90
8
70
1
43
0.0
10
35.58980935681646
20
29.894459946475003
10
35.589809356816495
20
43.294459946475001
42
0.41421356237309503
10
35.289809356816519
20
43.594459946475013
10
21.88980935681645
20
43.594459946475048
42
0.41421356237309503
10
21.589809356816456
20
43.294459946475037
10
21.589809356816403
20
29.894459946475045
42
0.41421356237309503
10
21.889809356816397
20
29.594459946475045
10
35.289809356816463
20
29.594459946475009
42
0.41421356237309503
0
LWPOLYLINE
5
200
100
AcDbEntity
8
0
100
AcDbPolyline
90
8
70
1
43
0.0
10
92.739809356816437
20
29.894459946474889
10
92.73980935681648
20
43.294459946474859
42
0.41421356237311241
10
92.439809356816468
20
43.594459946474871
10
79.039809356816505
20
43.594459946474906
42
0.41421356237309503
10
78.739809356816494
20
43.294459946474895
10
78.739809356816451
20
29.894459946474903
42
0.41421356237309503
10
79.039809356816463
20
29.594459946474913
10
92.439809356816426
20
29.594459946474885
42
0.41421356237310375
0
LWPOLYLINE
5
201
100
AcDbEntity
8
0
100
AcDbPolyline
90
8
70
1
43
0.0
10
159.41480935681659
20
48.94445994647473
10
159.41480935681662
20
62.344459946474714
42
0.41421356237309503
10
159.11480935681661
20
62.644459946474726
10
145.7148093568166
20
62.644459946474775
42
0.41421356237309503
10
145.41480935681659
20
62.344459946474743
10
145.41480935681656
20
48.944459946474765
42
0.41421356237309503
10
145.71480935681657
20
48.644459946474754
10
159.11480935681658
20
48.644459946474718
42
0.41421356237309503
0
LWPOLYLINE
5
202
100
AcDbEntity
8
0
100
AcDbPolyline
90
8
70
1
43
0.0
10
168.93980935681654
20
29.89445994647469
10
168.93980935681662
20
43.294459946474703
42
0.41421356237309503
10
168.63980935681661
20
43.594459946474714
10
155.23980935681661
20
43.594459946474728
42
0.41421356237309503
10
154.9398093568166
20
43.294459946474731
10
154.93980935681657
20
29.894459946474718
42
0.41421356237308637
10
155.23980935681658
20
29.594459946474714
10
168.63980935681653
20
29.5944599464747
42
0.41421356237309503
0
LWPOLYLINE
5
203
100
AcDbEntity
8
0
100
AcDbPolyline
90
8
70
1
43
0.0
10
192.7523093568164
20
-27.257549186081064
10
192.7523093568164
20
-13.857549186081034
42
0.41421356237309076
10
192.45230935681639
20
-13.557549186081047
10
179.05230935681644
20
-13.557549186080999
42
0.41421356237309076
10
178.75230935681643
20
-13.857549186080998
10
178.75230935681643
20
-27.257549186081018
42
0.41421356237310375
10
179.05230935681644
20
-27.557549186081044
10
192.45230935681639
20
-27.557549186081054
42
0.41421356237308637
0
LWPOLYLINE
5
204
100
AcDbEntity
8
0
100
AcDbPolyline
90
8
70
1
43
0.0
10
121.90230935681656
20
10.544459946474785
10
135.30230935681652
20
10.544459946474749
42
0.41421356237308637
10
135.60230935681653
20
10.844459946474752
10
135.60230935681656
20
24.244459946474777
42
0.41421356237310375
10
135.30230935681655
20
24.544459946474781
10
121.9023093568166
20
24.544459946474806
42
0.41421356237310375
10
121.60230935681659
20
24.244459946474805
10
121.60230935681655
20
10.844459946474787
42
0.41421356237308637
0
LWPOLYLINE
5
205
100
AcDbEntity
8
0
100
AcDbPolyline
90
8
70
1
43
0.0
10
83.802309356816508
20
10.544459946474865
10
97.202309356816471
20
10.544459946474829
42
0.41421356237307771
10
97.502309356816511
20
10.844459946474831
10
97.502309356816554
20
24.244459946474876
42
0.41421356237309503
10
97.2023093568165
20
24.544459946474877
10
83.802309356816536
20
24.544459946474902
42
0.41421356237310375
10
83.502309356816525
20
24.244459946474901
10
83.502309356816497
20
10.844459946474867
42
0.41421356237308637
0
LWPOLYLINE
5
206
100
AcDbEntity
8
0
100
AcDbPolyline
90
8
70
1
43
0.0
10
87.977309356816406
20
-8.2055400535251586
10
87.977309356816434
20
5.1944599464748809
42
0.41421356237308637
10
87.677309356816423
20
5.4944599464748745
10
74.27730935681646
20
5.4944599464749011
42
0.41421356237307771
10
73.977309356816448
20
5.1944599464749164
10
73.97730935681642
20
-8.2055400535251302
42
0.41421356237308637
10
74.277309356816431
20
-8.5055400535251291
10
87.677309356816394
20
-8.5055400535251557
42
0.41421356237309503
0
LWPOLYLINE
5
207
100
AcDbEntity
8
0
100
AcDbPolyline
90
8
70
1
43
0.0
10
49.877309356816362
20
-8.2055400535250591
10
49.877309356816397
20
5.1944599464749608
42
0.41421356237308637
10
49.577309356816386
20
5.4944599464749633
10
36.177309356816409
20
5.4944599464749988
42
0.41421356237308637
10
35.877309356816411
20
5.1944599464750052
10
35.877309356816397
20
-8.2055400535250378
42
0.41421356237308637
10
36.177309356816387
20
-8.5055400535250278
10
49.577309356816372
20
-8.5055400535250634
42
0.41421356237309936
0
LWPOLYLINE
5
208
100
AcDbEntity
8
0
100
AcDbPolyline
90
8
70
1
43
0.0
10
30.82730935681635
20
-8.2055400535250023
10
30.827309356816386
20
5.1944599464749963
42
0.41421356237308637
10
30.527309356816357
20
5.4944599464749899
10
17.127309356816376
20
5.4944599464750254
42
0.41421356237308637
10
16.827309356816382
20
5.1944599464750318
10
16.827309356816365
20
-8.2055400535249845
42
0.41421356237308637
10
17.127309356816358
20
-8.5055400535249817
10
30.527309356816339
20
-8.5055400535250101
42
0.41421356237310375
0
LWPOLYLINE
5
209
100
AcDbEntity
8
0
100
AcDbPolyline
90
8
70
1
43
0.0
10
-16.797690643183756
20
-27.255540053524932
10
-16.797690643183721
20
-13.8555400535249
42
0.41421356237309503
10
-17.097690643183725
20
-13.555540053524915
10
-30.497690643183731
20
-13.555540053524865
42
0.41421356237309936
10
-30.797690643183735
20
-13.855540053524869
10
-30.79769064318377
20
-27.255540053524882
42
0.41421356237310375
10
-30.497690643183766
20
-27.555540053524908
10
-17.097690643183761
20
-27.555540053524918
42
0.41421356237307771
0
LWPOLYLINE
5
210
100
AcDbEntity
8
0
100
AcDbPolyline
90
8
70
1
43
0.0
10
-26.322690643183677
20
-8.2055400535248637
10
-26.322690643183641
20
5.1944599464751384
42
0.41421356237309503
10
-26.622690643183642
20
5.494459946475132
10
-40.022690643183651
20
5.4944599464751676
42
0.41421356237308637
10
-40.322690643183648
20
5.194459946475174
10
-40.322690643183691
20
-8.2055400535248459
42
0.41421356237308637
10
-40.022690643183687
20
-8.5055400535248449
10
-26.622690643183677
20
-8.505540053524868
42
0.41421356237309936
0
LWPOLYLINE
5
211
100
AcDbEntity
8
0
100
AcDbPolyline
90
8
70
1
43
0.0
10
7.6023093568164057
20
10.544459946475051
10
21.002309356816387
20
10.544459946475015
42
0.41421356237307771
10
21.30230935681638
20
10.844459946475018
10
21.302309356816398
20
24.244459946475061
42
0.41421356237309503
10
21.002309356816404
20
24.544459946475065
10
7.6023093568164235
20
24.544459946475079
42
0.41421356237310375
10
7.3023093568164299
20
24.244459946475079
10
7.3023093568164121
20
10.844459946475054
42
0.41421356237308637
0
LWPOLYLINE
5
212
100
AcDbEntity
8
0
100
AcDbPolyline
90
8
70
1
43
0.0
10
68.927309356816394
20
-8.2055400535251053
10
68.927309356816423
20
5.1944599464749253
42
0.41421356237308637
10
68.627309356816411
20
5.4944599464749277
10
55.22730935681642
20
5.4944599464749544
42
0.41421356237308637
10
54.927309356816423
20
5.1944599464749608
10
54.927309356816409
20
-8.2055400535250822
42
0.41421356237309076
10
55.227309356816399
20
-8.5055400535250758
10
68.627309356816397
20
-8.505540053525106
42
0.41421356237309936
0
LWPOLYLINE
5
213
100
AcDbEntity
8
0
100
AcDbPolyline
90
8
70
1
43
0.0
10
126.07730935681646
20
-8.2055400535252421
10
126.0773093568165
20
5.1944599464747832
42
0.41421356237308637
10
125.77730935681649
20
5.4944599464747856
10
112.37730935681653
20
5.4944599464748034
42
0.41421356237307771
10
112.07730935681651
20
5.1944599464748187
10
112.07730935681647
20
-8.205540053525219
42
0.41421356237309076
10
112.37730935681648
20
-8.5055400535252126
10
125.77730935681645
20
-8.5055400535252446
42
0.41421356237309936
0
LWPOLYLINE
5
214
100
AcDbEntity
8
0
100
AcDbPolyline
90
8
70
1
43
0.0
10
145.12730935681637
20
-8.2065446198031076
10
145.1273093568164
20
5.1934553801968963
42
0.41421356237310375
10
144.82730935681639
20
5.4934553801969077
10
131.42730935681644
20
5.4934553801969432
42
0.41421356237310375
10
131.12730935681643
20
5.1934553801969319
10
131.12730935681637
20
-8.206544619803072
42
0.41421356237309503
10
131.42730935681638
20
-8.5065446198030656
10
144.82730935681636
20
-8.5065446198031012
42
0.41421356237309076
0
LWPOLYLINE
5
215
100
AcDbEntity
8
0
100
AcDbPolyline
90
8
70
1
43
0.0
10
130.83980935681649
20
29.89445994647479
10
130.83980935681655
20
43.294459946474774
42
0.41421356237311241
10
130.53980935681653
20
43.594459946474785
10
117.13980935681656
20
43.594459946474814
42
0.41421356237309503
10
116.83980935681655
20
43.294459946474802
10
116.83980935681652
20
29.894459946474818
42
0.41421356237309503
10
117.13980935681653
20
29.594459946474821
10
130.53980935681648
20
29.594459946474785
42
0.41421356237310375
0
LWPOLYLINE
5
216
100
AcDbEntity
8
0
100
AcDbPolyline
90
8
70
1
43
0.0
10
121.31480935681653
20
48.944459946474836
10
121.31480935681657
20
62.344459946474814
42
0.41421356237307771
10
121.01480935681656
20
62.644459946474811
10
107.61480935681659
20
62.644459946474868
42
0.41421356237307771
10
107.31480935681658
20
62.344459946474856
10
107.31480935681654
20
48.944459946474872
42
0.41421356237309503
10
107.61480935681655
20
48.644459946474861
10
121.01480935681651
20
48.644459946474825
42
0.41421356237309503
0
LWPOLYLINE
5
217
100
AcDbEntity
8
0
100
AcDbPolyline
90
8
70
1
43
0.0
10
83.214809356816474
20
48.944459946474943
10
83.214809356816502
20
62.344459946474927
42
0.41421356237307771
10
82.914809356816491
20
62.644459946474917
10
69.514809356816528
20
62.644459946474953
42
0.41421356237307771
10
69.214809356816545
20
62.344459946474942
10
69.214809356816517
20
48.944459946474964
42
0.41421356237309503
10
69.514809356816514
20
48.644459946474953
10
82.914809356816463
20
48.644459946474932
42
0.41421356237309503
0
LWPOLYLINE
5
218
100
AcDbEntity
8
0
100
AcDbPolyline
90
8
70
1
43
0.0
10
45.11480935681648
20
48.94445994647505
10
45.114809356816522
20
62.344459946474998
42
0.41421356237309503
10
44.814809356816511
20
62.64445994647501
10
31.414809356816527
20
62.64445994647506
42
0.41421356237311241
10
31.114809356816533
20
62.344459946475048
10
31.114809356816515
20
48.944459946475064
42
0.41421356237309503
10
31.414809356816509
20
48.644459946475074
10
44.81480935681649
20
48.644459946475038
42
0.41421356237309503
0
LWPOLYLINE
5
219
100
AcDbEntity
8
0
100
AcDbPolyline
90
8
70
1
43
0.0
10
-2.5101906431835808
20
29.894459946475109
10
-2.5101906431835452
20
43.294459946475087
42
0.41421356237309503
10
-2.8101906431835388
20
43.594459946475098
10
-16.210190643183555
20
43.594459946475141
42
0.41421356237309503
10
-16.510190643183556
20
43.294459946475129
10
-16.510190643183602
20
29.894459946475138
42
0.41421356237309503
10
-16.210190643183601
20
29.594459946475141
10
-2.8101906431835744
20
29.594459946475116
42
0.41421356237309503
0
LWPOLYLINE
5
220
100
AcDbEntity
8
0
100
AcDbPolyline
90
8
70
1
43
0.0
10
-64.422690643183614
20
29.894459946475234
10
-64.422690643183586
20
43.294459946475286
42
0.41421356237309503
10
-64.722690643183569
20
43.594459946475297
10
-78.122690643183589
20
43.594459946475297
42
0.41421356237306034
10
-78.422690643183586
20
43.294459946475321
10
-78.422690643183614
20
29.894459946475269
42
0.41421356237309503
10
-78.122690643183617
20
29.594459946475283
10
-64.722690643183611
20
29.59445994647524
42
0.41421356237309503
0
LWPOLYLINE
5
221
100
AcDbEntity
8
0
100
AcDbPolyline
90
8
70
1
43
0.0
10
-31.085190643183537
20
48.944459946475227
10
-31.085190643183502
20
62.344459946475169
42
0.41421356237309503
10
-31.385190643183503
20
62.64445994647518
10
-44.785190643183512
20
62.644459946475237
42
0.41421356237311241
10
-45.085190643183509
20
62.344459946475226
10
-45.085190643183552
20
48.944459946475249
42
0.41421356237309503
10
-44.785190643183547
20
48.644459946475251
10
-31.385190643183538
20
48.644459946475216
42
0.41421356237309503
0
LWPOLYLINE
5
222
100
AcDbEntity
8
0
100
AcDbPolyline
90
8
70
1
43
0.0
10
-50.135190643183556
20
48.944459946475277
10
-50.13519064318352
20
62.344459946475226
42
0.41421356237309503
10
-50.435190643183518
20
62.644459946475237
10
-63.83519064318353
20
62.644459946475308
42
0.41421356237311241
10
-64.135190643183535
20
62.344459946475283
10
-64.135190643183563
20
48.944459946475298
42
0.41421356237309503
10
-63.835190643183566
20
48.644459946475308
10
-50.435190643183546
20
48.644459946475266
42
0.41421356237309503
0
LWPOLYLINE
5
223
100
AcDbEntity
8
0
100
AcDbPolyline
90
8
70
1
43
0.0
10
-40.610190643183593
20
29.894459946475209
10
-40.610190643183557
20
43.2944599464752
42
0.41421356237309503
10
-40.910190643183562
20
43.594459946475212
10
-54.310190643183574
20
43.594459946475226
42
0.41421356237309503
10
-54.610190643183572
20
43.294459946475214
10
-54.610190643183614
20
29.894459946475234
42
0.41421356237309503
10
-54.310190643183617
20
29.59445994647524
10
-40.910190643183597
20
29.594459946475205
42
0.41421356237310375
0
LWPOLYLINE
5
224
100
AcDbEntity
8
0
100
AcDbPolyline
90
8
70
1
43
0.0
10
-16.797690643183625
20
10.844459946475116
10
-16.797690643183589
20
24.244459946475125
42
0.41421356237311241
10
-17.09769064318359
20
24.544459946475136
10
-30.497690643183599
20
24.544459946475161
42
0.41421356237310375
10
-30.7976906431836
20
24.24445994647516
10
-30.797690643183635
20
10.844459946475142
42
0.41421356237307771
10
-30.497690643183635
20
10.544459946475158
10
-17.097690643183626
20
10.544459946475122
42
0.41421356237308637
0
LWPOLYLINE
5
225
100
AcDbEntity
8
0
100
AcDbPolyline
90
8
70
1
43
0.0
10
16.539809356816431
20
29.894459946475067
10
16.539809356816466
20
43.294459946475058
42
0.41421356237309503
10
16.239809356816455
20
43.59445994647507
10
2.8398093568164562
20
43.594459946475084
42
0.41421356237307771
10
2.5398093568164626
20
43.294459946475087
10
2.5398093568164448
20
29.894459946475092
42
0.41421356237309503
10
2.8398093568164384
20
29.594459946475098
10
16.239809356816437
20
29.594459946475062
42
0.41421356237310375
0
LWPOLYLINE
5
226
100
AcDbEntity
8
0
100
AcDbPolyline
90
8
70
1
43
0.0
10
54.639809356816436
20
29.894459946474949
10
54.639809356816471
20
43.294459946474966
42
0.41421356237309503
10
54.33980935681646
20
43.594459946474977
10
40.939809356816482
20
43.594459946475013
42
0.41421356237309503
10
40.639809356816485
20
43.294459946475001
10
40.639809356816471
20
29.894459946474985
42
0.41421356237309503
10
40.939809356816461
20
29.594459946474998
10
54.339809356816446
20
29.594459946474956
42
0.41421356237309503
0
LWPOLYLINE
5
227
100
AcDbEntity
8
0
100
AcDbPolyline
90
8
70
1
43
0.0
10
102.26480935681651
20
48.944459946474893
10
102.26480935681656
20
62.344459946474871
42
0.41421356237307771
10
101.96480935681655
20
62.644459946474882
10
88.564809356816539
20
62.644459946474917
42
0.41421356237309503
10
88.264809356816528
20
62.344459946474927
10
88.2648093568165
20
48.944459946474922
42
0.41421356237309503
10
88.564809356816511
20
48.644459946474896
10
101.9648093568165
20
48.644459946474882
42
0.41421356237309503
0
LWPOLYLINE
5
228
100
AcDbEntity
8
0
100
AcDbPolyline
90
8
70
1
43
0.0
10
149.8898093568165
20
29.894459946474747
10
149.88980935681656
20
43.294459946474731
42
0.41421356237309503
10
149.58980935681655
20
43.594459946474743
10
136.18980935681657
20
43.594459946474764
42
0.41421356237309503
10
135.88980935681656
20
43.294459946474753
10
135.88980935681653
20
29.894459946474782
42
0.41421356237309503
10
136.18980935681654
20
29.59445994647476
10
149.58980935681649
20
29.594459946474743
42
0.41421356237310375
0
LWPOLYLINE
5
229
100
AcDbEntity
8
0
100
AcDbPolyline
90
8
70
1
43
0.0
10
145.12730935681634
20
-27.256544619803122
10
145.12730935681637
20
-13.856544619803106
42
0.41421356237309076
10
144.82730935681636
20
-13.556544619803113
10
131.42730935681638
20
-13.556544619803081
42
0.41421356237308637
10
131.12730935681637
20
-13.856544619803071
10
131.12730935681634
20
-27.256544619803094
42
0.41421356237309503
10
131.42730935681635
20
-27.556544619803105
10
144.82730935681633
20
-27.556544619803127
42
0.41421356237309503
0
LWPOLYLINE
5
230
100
AcDbEntity
8
0
100
AcDbPolyline
90
8
70
1
43
0.0
10
116.55230935681652
20
10.844459946474796
10
116.55230935681656
20
24.244459946474805
42
0.41421356237311241
10
116.25230935681655
20
24.544459946474824
10
102.85230935681659
20
24.544459946474852
42
0.41421356237311241
10
102.55230935681658
20
24.244459946474841
10
102.55230935681654
20
10.844459946474823
42
0.41421356237308637
10
102.85230935681655
20
10.544459946474838
10
116.25230935681651
20
10.544459946474802
42
0.41421356237308637
0
LWPOLYLINE
5
231
100
AcDbEntity
8
0
100
AcDbPolyline
90
8
70
1
43
0.0
10
107.02730935681645
20
-8.2055400535252065
10
107.02730935681649
20
5.1944599464748364
42
0.41421356237308637
10
106.72730935681648
20
5.49445994647483
10
93.327309356816471
20
5.4944599464748478
42
0.41421356237307771
10
93.02730935681646
20
5.1944599464748631
10
93.027309356816431
20
-8.2055400535251763
42
0.41421356237308637
10
93.327309356816443
20
-8.5055400535251735
10
106.72730935681643
20
-8.5055400535252055
42
0.41421356237309503
0
LWPOLYLINE
5
232
100
AcDbEntity
8
0
100
AcDbPolyline
90
8
70
1
43
0.0
10
64.752309356816482
20
10.544459946474918
10
78.15230935681646
20
10.544459946474891
42
0.41421356237307771
10
78.452309356816471
20
10.844459946474876
10
78.4523093568165
20
24.244459946474901
42
0.41421356237310375
10
78.152309356816488
20
24.544459946474912
10
64.752309356816497
20
24.54445994647493
42
0.41421356237310375
10
64.4523093568165
20
24.244459946474926
10
64.452309356816485
20
10.844459946474911
42
0.41421356237308637
0
LWPOLYLINE
5
233
100
AcDbEntity
8
0
100
AcDbPolyline
90
8
70
1
43
0.0
10
26.652309356816417
20
10.544459946475015
10
40.052309356816416
20
10.54445994647498
42
0.41421356237308637
10
40.352309356816406
20
10.844459946474974
10
40.352309356816427
20
24.244459946474997
42
0.41421356237309503
10
40.052309356816437
20
24.544459946475001
10
26.652309356816435
20
24.54445994647503
42
0.41421356237310375
10
26.352309356816441
20
24.244459946475025
10
26.352309356816424
20
10.844459946475009
42
0.41421356237308637
0
LWPOLYLINE
5
234
100
AcDbEntity
8
0
100
AcDbPolyline
90
8
70
1
43
0.0
10
11.777309356816321
20
-8.2055400535249579
10
11.777309356816357
20
5.1944599464750496
42
0.41421356237309503
10
11.477309356816345
20
5.4944599464750432
10
-1.9226906431836532
20
5.4944599464750699
42
0.41421356237308637
10
-2.2226906431836468
20
5.1944599464750763
10
-2.2226906431836646
20
-8.2055400535249348
42
0.41421356237308637
10
-1.922690643183671
20
-8.5055400535249337
10
11.477309356816328
20
-8.5055400535249603
42
0.41421356237309936
0
LWPOLYLINE
5
235
100
AcDbEntity
8
0
100
AcDbPolyline
90
8
70
1
43
0.0
10
-64.422690643183756
20
-27.255540053524818
10
-64.422690643183728
20
-13.855540053524784
42
0.41421356237309503
10
-64.722690643183725
20
-13.555540053524791
10
-78.122690643183745
20
-13.555540053524751
42
0.41421356237309936
10
-78.422690643183742
20
-13.855540053524752
10
-78.422690643183785
20
-27.255540053524765
42
0.41421356237310375
10
-78.122690643183773
20
-27.555540053524791
10
-64.722690643183768
20
-27.555540053524801
42
0.41421356237308637
0
LWPOLYLINE
5
236
100
AcDbEntity
8
0
100
AcDbPolyline
90
8
70
1
43
0.0
10
11.714809356816271
20
-25.319044619802806
10
42.114809356816281
20
-25.319044619802877
42
0.41421356237309936
10
42.414809356816278
20
-25.019044619802862
10
42.414809356816292
20
-16.094044619802858
42
0.41421356237309503
10
42.114809356816295
20
-15.794044619802857
10
11.714809356816289
20
-15.794044619802786
42
0.41421356237309076
10
11.414809356816296
20
-16.09404461980278
10
11.414809356816278
20
-25.019044619802795
42
0.41421356237309503
0
LWPOLYLINE
5
237
100
AcDbEntity
8
0
100
AcDbPolyline
90
8
70
1
43
0.0
10
102.91480935681632
20
-25.019044619803008
10
102.91480935681635
20
-16.094044619803
42
0.41421356237309076
10
102.61480935681631
20
-15.794044619803014
10
72.214809356816318
20
-15.794044619802925
42
0.41421356237309076
10
71.914809356816306
20
-16.094044619802919
10
71.914809356816306
20
-25.019044619802948
42
0.41421356237309503
10
72.214809356816318
20
-25.319044619802948
10
102.61480935681631
20
-25.319044619803019
42
0.41421356237310375
0
LWPOLYLINE
5
238
100
AcDbEntity
8
0
100
AcDbPolyline
90
8
70
1
43
0.0
10
110.66480935681638
20
-12.356544619803023
10
110.66480935681633
20
-26.756544619803044
42
0.41421356237309503
10
110.96480935681635
20
-27.056544619803059
10
117.36480935681628
20
-27.056544619803063
42
0.41421356237308637
10
117.66480935681629
20
-26.756544619803073
10
117.66480935681633
20
-12.35654461980304
42
0.41421356237309076
10
117.36480935681632
20
-12.056544619803052
10
110.96480935681639
20
-12.056544619803024
42
0.41421356237308637
0
LWPOLYLINE
5
239
100
AcDbEntity
8
0
100
AcDbPolyline
90
8
70
1
43
0.0
10
3.6648093568162388
20
-26.756544619802789
10
3.6648093568162743
20
-12.356544619802762
42
0.41421356237309076
10
3.3648093568162807
20
-12.056544619802771
10
-3.035190643183725
20
-12.056544619802745
42
0.41421356237309076
10
-3.3351906431837186
20
-12.356544619802747
10
-3.3351906431837541
20
-26.756544619802778
42
0.41421356237308637
10
-3.0351906431837605
20
-27.056544619802789
10
3.3648093568162452
20
-27.056544619802779
42
0.41421356237309076
0
LWPOLYLINE
5
240
100
AcDbEntity
8
0
100
AcDbPolyline
90
8
70
1
43
0.0
10
-58.622690643183688
20
-8.5055400535247436
10
-46.122690643183695
20
-8.5055400535247827
42
0.41421356237308982
10
-45.372690643183667
20
-7.7555400535248387
10
-45.372690643183631
20
4.744459946475228
42
0.41421356237309503
10
-46.122690643183631
20
5.4944599464752208
10
-58.622690643183653
20
5.4944599464752653
42
0.41421356237309853
10
-59.372690643183645
20
4.7444599464752546
10
-59.372690643183681
20
-7.7555400535247321
42
0.41421356237308815
0
LINE
5
241
100
AcDbEntity
8
0
100
AcDbLine
10
182.54605935681661
20
5.4924508139189943
30
1.1102230246251565e-15
11
197.21480935681655
21
5.4924508139189587
31
1.1102230246251565e-15
0
ARC
5
242
100
AcDbEntity
8
0
100
AcDbCircle
10
197.21480935681649
20
5.192450813918974
30
9.0305540823010233e-12
40
0.30000000000001137
210
1.1102230246251145e-13
220
-3.2869204384206338e-27
230
1
100
AcDbArc
50
0
51
89.999999999989143
0
LINE
5
243
100
AcDbEntity
8
0
100
AcDbLine
10
197.5148093568165
20
5.1924508139189651
30
8.9972473915622686e-12
11
197.51480935681641
21
-8.2075491860810565
31
3.3306690738754696e-15
0
ARC
5
244
100
AcDbEntity
8
0
100
AcDbCircle
10
197.2148093568164
20
-8.2075491860810512
30
1.102784530360168e-11
40
0.30000000000000693
210
0
220
1.036208156316789e-13
230
1
100
AcDbArc
50
270
51
360
0
LINE
5
245
100
AcDbEntity
8
0
100
AcDbLine
10
197.2148093568164
20
-8.5075491860810573
30
1.1058931548291184e-11
11
189.54605935681641
21
-8.5075491860810359
31
2.2204460492503131e-15
0
ARC
5
246
100
AcDbEntity
8
0
100
AcDbCircle
10
189.54605935681641
20
-8.8075491860810331
30
-3.1521815695080603e-10
40
0.29999999999999805
210
0
220
3.7051843075157128e-11
230
1
100
AcDbArc
50
90
51
180
0
LINE
5
247
100
AcDbEntity
8
0
100
AcDbLine
10
189.2460593568164
20
-8.8075491860810384
30
1.1085576900882188e-11
11
189.2460593568164
21
-9.7065446198032177
31
3.3306690738754696e-15
0
ARC
5
248
100
AcDbEntity
8
0
100
AcDbCircle
10
188.94605935681639
20
-9.7065446198032177
30
1.1252110354575962e-11
40
0.29999999999999805
210
0
220
1.1102230246251637e-13
230
1
100
AcDbArc
50
-90
51
0
0
LINE
5
249
100
AcDbEntity
8
0
100
AcDbLine
10
188.94605935681639
20
-10.006544619803215
30
1.1285417045314716e-11
11
182.54605935681644
21
-10.006544619803201
31
-1.1102230246251565e-15
0
ARC
5
250
100
AcDbEntity
8
0
100
AcDbCircle
10
182.54605935681644
20
-9.7065446198032035
30
1.1252110354575962e-11
40
0.30000000000001137
210
1.073215590470944e-13
220
1.5886782119033062e-27
230
1
100
AcDbArc
50
180
51
270
0
LINE
5
251
100
AcDbEntity
8
0
100
AcDbLine
10
182.24605935681643
20
-9.706544619803207
30
1.1284306822290091e-11
11
182.24605935681652
21
5.1924553801968099
31
2.2204460492503131e-15
0
ARC
5
252
100
AcDbEntity
8
0
100
AcDbCircle
10
182.54605935681653
20
5.1924553801968099
30
1.6525523467197621e-10
40
0.2999954337221844
210
7.1262604454120175e-24
220
3.0087501926983658e-11
230
1
100
AcDbArc
50
89.999999999983714
51
180
0
LWPOLYLINE
5
253
100
AcDbEntity
8
0
100
AcDbPolyline
90
8
70
1
43
0.0
10
195.13355935681673
20
20.818455380196834
10
195.13355935681673
20
33.318455380196859
42
0.41421356237309503
10
194.38355935681676
20
34.068455380196845
10
181.8835593568167
20
34.06845538019688
42
0.41421356237309159
10
181.13355935681676
20
33.318455380196895
10
181.13355935681668
20
20.818455380196887
42
0.41421356237310197
10
181.88355935681665
20
20.068455380196866
10
194.3835593568167
20
20.068455380196831
42
0.41421356237309503
0
LWPOLYLINE
5
254
100
AcDbEntity
8
0
100
AcDbPolyline
90
4
70
1
43
0.0
10
173.70230935681667
20
10.543455380196924
10
173.70230935681667
20
24.54345538019691
10
159.70230935681673
20
24.543455380196953
10
159.70230935681667
20
10.543455380196933
0
LWPOLYLINE
5
255
100
AcDbEntity
8
0
100
AcDbPolyline
90
8
70
1
43
0.0
10
179.63355935681699
20
41.75745994647442
10
179.6335593568169
20
36.257459946474413
42
0.41421356237309503
10
180.38355935681693
20
35.50745994647442
10
194.38355935681693
20
35.507459946474363
42
0.41421356237309503
10
195.13355935681687
20
36.25745994647437
10
195.13355935681693
20
41.757459946474384
42
0.41421356237309159
10
194.38355935681693
20
42.507459946474377
10
180.38355935681693
20
42.507459946474413
42
0.41421356237309159
0
LWPOLYLINE
5
256
100
AcDbEntity
8
0
100
AcDbPolyline
90
7
70
1
43
0.0
10
179.63355935681682
20
17.881459946474401
10
179.63355935681682
20
12.381459946474394
42
0.41421356237308815
10
180.38355935681687
20
11.631459946474401
10
194.38355935681685
20
11.631459946474356
42
0.41421356237309503
10
195.13355935681682
20
12.381459946474367
10
195.13355935681682
20
18.631459946474386
10
180.38355935681687
20
18.631459946474401
42
0.41421356237309159
0
CIRCLE
5
257
100
AcDbEntity
8
0
100
AcDbCircle
10
200.82902291918941
20
-30.872178887457949
30
-2.6645352591003757e-14
40
1.0000000000000142
210
9.860761315262641e-32
220
0
230
1
0
CIRCLE
5
258
100
AcDbEntity
8
0
100
AcDbCircle
10
-86.499404205556942
20
-30.872178887457224
30
-4.1078251911130792e-14
40
1.0000000000000004
210
9.860761315262641e-32
220
0
230
1
0
CIRCLE
5
259
100
AcDbEntity
8
0
100
AcDbCircle
10
200.82902291918984
20
65.958673508847767
30
7.7715611723760958e-15
40
0.99999999999997868
210
9.860761315262641e-32
220
0
230
1
0
CIRCLE
5
260
100
AcDbEntity
8
0
100
AcDbCircle
10
-86.499404205556658
20
65.958673508848463
30
-1.1102230246251565e-15
40
1.0499999999999972
210
9.860761315262641e-32
220
0
230
1
0
ENDSEC
0
SECTION
2
OBJECTS
0
DICTIONARY
5
C
100
AcDbDictionary
3
ACAD_GROUP
350
D
3
ACAD_MLINESTYLE
350
17
0
DICTIONARY
5
D
100
AcDbDictionary
0
DICTIONARY
5
1A
330
C
100
AcDbDictionary
0
DICTIONARY
5
17
100
AcDbDictionary
0
ENDSEC
0
EOF
