0
SECTION
2
HEADER
9
$INSUNITS
70
4
9
$ACADVER
1
AC1014
9
$HANDSEED
5
FFFF
0
ENDSEC
0
SECTION
2
TABLES
0
TABLE
2
VPORT
5
8
100
AcDbSymbolTable
0
ENDTAB
0
TABLE
2
LTYPE
5
5
100
AcDbSymbolTable
0
LTYPE
5
14
100
AcDbSymbolTableRecord
100
AcDbLinetypeTableRecord
2
BYBLOCK
70
0
0
LTYPE
5
15
100
AcDbSymbolTableRecord
100
AcDbLinetypeTableRecord
2
BYLAYER
70
0
0
ENDTAB
0
TABLE
2
LAYER
5
2
100
AcDbSymbolTable
70
2
0
LAYER
5
50
100
AcDbSymbolTableRecord
100
AcDbLayerTableRecord
2
0
70
0
6
CONTINUOUS
0
ENDTAB
0
TABLE
2
STYLE
5
3
100
AcDbSymbolTable
70
1
0
STYLE
5
11
100
AcDbSymbolTableRecord
100
AcDbTextStyleTableRecord
2
STANDARD
70
0
0
ENDTAB
0
TABLE
2
VIEW
5
6
100
AcDbSymbolTable
70
0
0
ENDTAB
0
TABLE
2
UCS
5
7
100
AcDbSymbolTable
70
0
0
ENDTAB
0
TABLE
2
APPID
5
9
100
AcDbSymbolTable
70
2
0
APPID
5
12
100
AcDbSymbolTableRecord
100
AcDbRegAppTableRecord
2
ACAD
70
0
0
ENDTAB
0
TABLE
2
DIMSTYLE
5
A
100
AcDbSymbolTable
70
1
0
ENDTAB
0
TABLE
2
BLOCK_RECORD
5
1
100
AcDbSymbolTable
70
1
0
BLOCK_RECORD
5
1F
100
AcDbSymbolTableRecord
100
AcDbBlockTableRecord
2
*MODEL_SPACE
0
BLOCK_RECORD
5
1B
100
AcDbSymbolTableRecord
100
AcDbBlockTableRecord
2
*PAPER_SPACE
0
ENDTAB
0
ENDSEC
0
SECTION
2
BLOCKS
0
BLOCK
5
20
100
AcDbEntity
100
AcDbBlockBegin
2
*MODEL_SPACE
0
ENDBLK
5
21
100
AcDbEntity
100
AcDbBlockEnd
0
BLOCK
5
1C
100
AcDbEntity
100
AcDbBlockBegin
2
*PAPER_SPACE
0
ENDBLK
5
1D
100
AcDbEntity
100
AcDbBlockEnd
0
ENDSEC
0
SECTION
2
ENTITIES
0
LWPOLYLINE
5
100
100
AcDbEntity
8
0
100
AcDbPolyline
90
24
70
1
43
0.0
10
197.21480935681655
20
62.644459946471954
10
164.76480935681656
20
62.644459946472054
42
0.41421356237307771
10
164.46480935681655
20
62.344459946472043
10
164.46480935681652
20
48.944459946472065
42
0.41421356237311241
10
164.76480935681653
20
48.644459946472054
10
165.28980935681645
20
48.644459946472054
42
-0.41421356237311241
10
165.58980935681649
20
48.344459946472028
10
165.58980935681649
20
47.444459946472023
42
0.41421356237309503
10
165.8898093568165
20
47.144459946472011
10
172.28980935681651
20
47.144459946471997
42
0.41421356237311241
10
172.58980935681652
20
47.444459946472023
10
172.58980935681649
20
48.344459946472028
42
-0.41421356237311241
10
172.8898093568165
20
48.64445994647204
10
189.08980935681655
20
48.644459946471997
42
-0.41421356237309503
10
189.38980935681656
20
48.344459946471986
10
189.38980935681656
20
47.444459946472008
42
0.41421356237309503
10
189.68980935681657
20
47.144459946471983
10
196.08980935681655
20
47.144459946471997
42
0.41421356237309503
10
196.38980935681656
20
47.444459946472008
10
196.38980935681658
20
48.344459946471972
42
-0.41421356237311241
10
196.68980935681657
20
48.644459946471983
10
197.21480935681655
20
48.644459946471983
42
0.41421356237309503
10
197.51480935681656
20
48.944459946471994
10
197.51480935681656
20
62.344459946471957
42
0.41421356237309503
0
LWPOLYLINE
5
101
100
AcDbEntity
8
0
100
AcDbPolyline
90
17
70
1
43
0.0
10
180.54603978734346
20
5.4934358094446756
10
165.44605935711428
20
5.492450813916423
10
157.62105935681637
20
5.4924508139164141
42
0.41421356237310375
10
157.32105935681636
20
5.1924508139164116
10
157.32105935681636
20
-8.2075491860836038
42
0.41421356237309503
10
157.62105935681637
20
-8.5075491860836081
10
158.14605935681635
20
-8.5075491860835939
42
-0.41421356237309503
10
158.44605935681636
20
-8.8075491860836053
10
158.44605935681636
20
-9.706544619805797
42
0.41421356237308637
10
158.74605935681637
20
-10.006544619805791
10
165.14605935681629
20
-10.006544619805805
42
0.41421356237309076
10
165.44605935681631
20
-9.7065446198058059
10
165.44605935681631
20
-8.8075296172489601
42
-0.41419445661578214
10
165.74603978734342
20
-8.5075296178872364
10
180.54607892628923
20
-8.5065641880022405
42
0.41419445661578214
10
180.84605935681634
20
-8.2065641886405061
10
180.84605935681637
20
5.1934358100829359
42
0.41423266838853534
0
ARC
5
102
100
AcDbEntity
8
0
100
AcDbCircle
10
155.43980935681645
20
-14.057549186083573
30
1.5765166949677223e-13
40
0.50000000000001288
210
-6.6613247031673032e-15
220
1.3383484324481541e-17
230
1
100
AcDbArc
50
179.88488533897549
51
180
0
ARC
5
103
100
AcDbEntity
8
0
100
AcDbCircle
10
155.43980935681631
20
-14.056544619805749
30
5.8841820305133297e-14
40
0.49999999999997602
210
0
220
-0
230
1
100
AcDbArc
50
89.999999999996746
51
180
0
LINE
5
104
100
AcDbEntity
8
0
100
AcDbLine
10
155.43980935681634
20
-13.556544619805774
30
5.8841820305133297e-14
11
155.44081392309425
21
-13.557549186083566
31
1.9984014443252818e-14
0
LINE
5
105
100
AcDbEntity
8
0
100
AcDbLine
10
155.44081392309425
20
-13.557549186083566
30
1.9984014443252818e-14
11
168.43880479053863
21
-13.557549186083605
31
1.7763568394002505e-14
0
LINE
5
106
100
AcDbEntity
8
0
100
AcDbLine
10
168.43880479053863
20
-13.557549186083605
30
1.7763568394002505e-14
11
168.43980935681631
21
-13.556544619805816
31
-4.8849813083506888e-14
0
ARC
5
107
100
AcDbEntity
8
0
100
AcDbCircle
10
168.43980935681634
20
-14.056544619805784
30
5.773159728050814e-14
40
0.49999999999997158
210
0
220
0
230
1
100
AcDbArc
50
0
51
90.000000000003254
0
ARC
5
108
100
AcDbEntity
8
0
100
AcDbCircle
10
168.43980935681643
20
-14.057549186083609
30
1.4988010832439613e-13
40
0.50000000000000711
210
2.2204460492502815e-15
220
1.9721522630524735e-29
230
1
100
AcDbArc
50
0
51
0.11511466102449491
0
LINE
5
109
100
AcDbEntity
8
0
100
AcDbLine
10
168.93980935681643
20
-14.057549186083605
30
1.4876988529977098e-13
11
168.93980935681628
21
-27.056544619805823
31
1.4321877017664519e-13
0
ARC
5
110
100
AcDbEntity
8
0
100
AcDbCircle
10
168.43980935681631
20
-27.056544619805841
30
7.5495165674510645e-14
40
0.49999999999997735
210
2.2204415677225924e-15
220
-4.4611614414155955e-18
230
1
100
AcDbArc
50
-0.11511466102451205
51
0
0
ARC
5
111
100
AcDbEntity
8
0
100
AcDbCircle
10
168.4398093568164
20
-27.057549186083616
30
1.9206858326015208e-13
40
0.50000000000001155
210
0
220
2.2204460492502618e-15
230
1
100
AcDbArc
50
-90
51
0
0
LINE
5
112
100
AcDbEntity
8
0
100
AcDbLine
10
168.4398093568164
20
-27.557549186083627
30
1.9317880628477724e-13
11
155.43980935681643
21
-27.557549186083591
31
4.1078251911130792e-14
0
ARC
5
113
100
AcDbEntity
8
0
100
AcDbCircle
10
155.43980935681643
20
-27.05754918608358
30
1.9317880628477724e-13
40
0.50000000000001166
210
-1.5700924586837779e-15
220
-1.570092458683699e-15
230
1
100
AcDbArc
50
224.99999999999739
51
270
0
LINE
5
114
100
AcDbEntity
8
0
100
AcDbLine
10
155.08625596622312
20
-27.411102576676853
30
1.9206858326015208e-13
11
155.08675860615182
21
-27.41059993674817
31
4.1078251911130792e-14
0
ARC
5
115
100
AcDbEntity
8
0
100
AcDbCircle
10
155.43980935681628
20
-27.056544619805809
30
7.6605388699135801e-14
40
0.49999999999997158
210
0
220
0
230
1
100
AcDbArc
50
180
51
225.08139849433977
0
LINE
5
116
100
AcDbEntity
8
0
100
AcDbLine
10
154.93980935681631
20
-27.056544619805784
30
7.6605388699135801e-14
11
154.93980935681645
21
-14.057549186083564
31
1.5654144647214707e-13
0
LWPOLYLINE
5
117
100
AcDbEntity
8
0
100
AcDbPolyline
90
8
70
1
43
0.0
10
-41.110190643183742
20
-13.555540053527455
10
-54.110190643183749
20
-13.55554005352742
42
0.41421356237309243
10
-54.610190643183749
20
-14.055540053527412
10
-54.610190643183785
20
-27.055540053527423
42
0.41421356237309503
10
-54.110190643183785
20
-27.555540053527423
10
-41.110190643183778
20
-27.555540053527459
42
0.41421356237309764
10
-40.610190643183785
20
-27.055540053527455
10
-40.610190643183756
20
-14.055540053527453
42
0.41421356237309503
0
LWPOLYLINE
5
118
100
AcDbEntity
8
0
100
AcDbPolyline
90
4
70
1
43
0.0
10
-54.695690643183696
20
11.04445994647261
10
-54.695690643183653
20
24.044459946472646
42
0.99999999999999989
10
-55.69569064318366
20
24.044459946472646
10
-55.695690643183688
20
11.044459946472621
42
0.99999999999999989
0
LWPOLYLINE
5
119
100
AcDbEntity
8
0
100
AcDbPolyline
90
4
70
1
43
0.0
10
-83.685190643183617
20
43.09445994647271
10
-83.685190643183645
20
30.094459946472703
42
0.99999999999999989
10
-82.685190643183631
20
30.094459946472703
10
-82.685190643183617
20
43.094459946472696
42
0.99999999999999989
0
LINE
5
120
100
AcDbEntity
8
0
100
AcDbLine
10
-59.164473976557247
20
29.594459951472643
30
1.4432899320127035e-14
11
-59.164573976556753
21
29.59445994147265
31
1.4432899320127035e-14
0
ARC
5
121
100
AcDbEntity
8
0
100
AcDbCircle
10
-59.164523976516975
20
30.094459938972648
30
-7.1054273576010019e-14
40
0.49999999999999822
210
0
220
0
230
1
100
AcDbArc
50
180
51
269.99427041748095
0
LINE
5
122
100
AcDbEntity
8
0
100
AcDbLine
10
-59.664523976516975
20
30.094459938972648
30
-7.1054273576010019e-14
11
-59.664523976516932
21
43.094459946472661
31
2.9976021664879227e-14
0
ARC
5
123
100
AcDbEntity
8
0
100
AcDbCircle
10
-59.164523976516946
20
43.094459946472661
30
-8.8817841970012523e-14
40
0.50000000000000711
210
-2.2204460492502815e-15
220
7.8886090522098938e-29
230
1
100
AcDbArc
50
0
51
180
0
LINE
5
124
100
AcDbEntity
8
0
100
AcDbLine
10
-58.664523976516932
20
43.094459946472639
30
-8.7707618945387367e-14
11
-58.664523976516975
21
30.094459948972649
31
1.5543122344752192e-14
0
ARC
5
125
100
AcDbEntity
8
0
100
AcDbCircle
10
-59.164523976516975
20
30.094459938972648
30
-7.1054273576010019e-14
40
0.49999999000000206
210
-1.7097421492199778e-17
220
1.7097434835688997e-13
230
1
100
AcDbArc
50
-89.99427042653933
51
1.2074182697257333e-06
0
LWPOLYLINE
5
126
100
AcDbEntity
8
0
100
AcDbPolyline
90
8
70
1
43
0.0
10
64.164809356816207
20
-27.256544619805553
10
64.164809356816249
20
-13.856544619805543
42
0.41421356237307339
10
63.864809356816252
20
-13.556544619805546
10
50.464809356816254
20
-13.556544619805514
42
0.41421356237310802
10
50.164809356816242
20
-13.856544619805508
10
50.164809356816221
20
-27.25654461980551
42
0.41421356237310375
10
50.464809356816218
20
-27.556544619805514
10
63.864809356816217
20
-27.556544619805553
42
0.41421356237309503
0
LWPOLYLINE
5
127
100
AcDbEntity
8
0
100
AcDbPolyline
90
8
70
1
43
0.0
10
140.36480935681649
20
48.944459946472136
10
140.36480935681652
20
62.344459946472114
42
0.41421356237307771
10
140.06480935681651
20
62.644459946472097
10
126.66480935681655
20
62.644459946472168
42
0.41421356237309503
10
126.36480935681654
20
62.344459946472156
10
126.36480935681649
20
48.944459946472151
42
0.41421356237309503
10
126.66480935681651
20
48.644459946472161
10
140.06480935681648
20
48.644459946472125
42
0.41421356237309503
0
LWPOLYLINE
5
128
100
AcDbEntity
8
0
100
AcDbPolyline
90
8
70
1
43
0.0
10
64.164809356816463
20
48.94445994647235
10
64.164809356816491
20
62.344459946472298
42
0.41421356237309503
10
63.86480935681648
20
62.644459946472288
10
50.464809356816488
20
62.644459946472338
42
0.41421356237309503
10
50.164809356816491
20
62.344459946472348
10
50.164809356816477
20
48.944459946472364
42
0.41421356237309503
10
50.464809356816467
20
48.644459946472374
10
63.864809356816465
20
48.644459946472338
42
0.41421356237309503
0
LWPOLYLINE
5
129
100
AcDbEntity
8
0
100
AcDbPolyline
90
8
70
1
43
0.0
10
7.0148093568164249
20
48.944459946472492
10
7.0148093568164605
20
62.344459946472455
42
0.41421356237307771
10
6.7148093568164491
20
62.644459946472452
10
-6.6851906431835317
20
62.644459946472502
42
0.41421356237307771
10
-6.9851906431835253
20
62.344459946472512
10
-6.9851906431835431
20
48.944459946472527
42
0.41421356237309503
10
-6.6851906431835495
20
48.644459946472516
10
6.7148093568164313
20
48.64445994647248
42
0.41421356237309503
0
LWPOLYLINE
5
130
100
AcDbEntity
8
0
100
AcDbPolyline
90
8
70
1
43
0.0
10
-80.803940643183665
20
24.244459946472684
10
-80.803940643183694
20
10.844459946472679
42
0.41421356237309503
10
-80.503940643183682
20
10.544459946472667
10
-62.341440643183681
20
10.544459946472621
42
0.41421356237309503
10
-62.041440643183691
20
10.844459946472625
10
-62.041440643183648
20
24.244459946472642
42
0.41421356237310375
10
-62.341440643183645
20
24.544459946472642
10
-80.503940643183654
20
24.544459946472678
42
0.41421356237308637
0
LWPOLYLINE
5
131
100
AcDbEntity
8
0
100
AcDbPolyline
90
8
70
1
43
0.0
10
-12.03519064318356
20
48.944459946472563
10
-12.035190643183524
20
62.344459946472512
42
0.41421356237307771
10
-12.335190643183527
20
62.644459946472502
10
-25.735190643183536
20
62.644459946472537
42
0.41421356237307771
10
-26.035190643183537
20
62.34445994647254
10
-26.035190643183572
20
48.944459946472577
42
0.41421356237309503
10
-25.735190643183572
20
48.644459946472587
10
-12.335190643183562
20
48.644459946472551
42
0.41421356237309503
0
LWPOLYLINE
5
132
100
AcDbEntity
8
0
100
AcDbPolyline
90
8
70
1
43
0.0
10
-83.185190643183546
20
62.344459946472725
10
-83.185190643183589
20
48.944459946472691
42
0.41421356237312978
10
-82.885190643183591
20
48.644459946472693
10
-69.4851906431836
20
48.644459946472658
42
0.4142135623731818
10
-69.185190643183589
20
48.944459946472691
10
-69.18519064318356
20
62.344459946472668
42
0.41421356237315576
10
-69.485190643183557
20
62.644459946472679
10
-82.885190643183563
20
62.644459946472693
42
0.41421356237312978
0
LWPOLYLINE
5
133
100
AcDbEntity
8
0
100
AcDbPolyline
90
8
70
1
43
0.0
10
26.064809356816454
20
48.944459946472456
10
26.06480935681649
20
62.344459946472398
42
0.41421356237309503
10
25.764809356816478
20
62.644459946472395
10
12.364809356816497
20
62.644459946472452
42
0.41421356237309503
10
12.064809356816504
20
62.344459946472455
10
12.064809356816486
20
48.944459946472477
42
0.41421356237309503
10
12.36480935681648
20
48.64445994647248
10
25.76480935681646
20
48.644459946472445
42
0.41421356237309503
0
LWPOLYLINE
5
134
100
AcDbEntity
8
0
100
AcDbPolyline
90
8
70
1
43
0.0
10
159.41480935681651
20
48.944459946472065
10
159.41480935681653
20
62.344459946472043
42
0.41421356237309503
10
159.11480935681652
20
62.64445994647204
10
145.71480935681655
20
62.644459946472097
42
0.41421356237309503
10
145.41480935681653
20
62.344459946472085
10
145.41480935681651
20
48.944459946472101
42
0.41421356237309503
10
145.71480935681652
20
48.644459946472089
10
159.11480935681649
20
48.644459946472054
42
0.41421356237309503
0
LWPOLYLINE
5
135
100
AcDbEntity
8
0
100
AcDbPolyline
90
8
70
1
43
0.0
10
192.75230935681634
20
-27.257549186083715
10
192.75230935681637
20
-13.857549186083688
42
0.41421356237309076
10
192.45230935681636
20
-13.557549186083705
10
179.05230935681635
20
-13.557549186083651
42
0.41421356237309076
10
178.75230935681634
20
-13.857549186083649
10
178.75230935681631
20
-27.257549186083669
42
0.41421356237309936
10
179.05230935681632
20
-27.557549186083694
10
192.45230935681633
20
-27.557549186083708
42
0.41421356237309076
0
LWPOLYLINE
5
136
100
AcDbEntity
8
0
100
AcDbPolyline
90
8
70
1
43
0.0
10
-16.797690643183785
20
-27.255540053527536
10
-16.797690643183749
20
-13.855540053527511
42
0.41421356237309503
10
-17.097690643183753
20
-13.555540053527526
10
-30.497690643183759
20
-13.555540053527473
42
0.41421356237309936
10
-30.797690643183763
20
-13.855540053527475
10
-30.797690643183799
20
-27.255540053527483
42
0.41421356237310375
10
-30.497690643183795
20
-27.555540053527512
10
-17.097690643183789
20
-27.555540053527526
42
0.41421356237308637
0
LWPOLYLINE
5
137
100
AcDbEntity
8
0
100
AcDbPolyline
90
8
70
1
43
0.0
10
121.31480935681648
20
48.944459946472193
10
121.31480935681651
20
62.34445994647217
42
0.41421356237307771
10
121.0148093568165
20
62.644459946472146
10
107.61480935681649
20
62.644459946472196
42
0.41421356237307771
10
107.31480935681648
20
62.344459946472206
10
107.31480935681645
20
48.944459946472222
42
0.41421356237309503
10
107.61480935681647
20
48.64445994647221
10
121.01480935681647
20
48.644459946472182
42
0.41421356237309503
0
LWPOLYLINE
5
138
100
AcDbEntity
8
0
100
AcDbPolyline
90
8
70
1
43
0.0
10
83.214809356816417
20
48.944459946472278
10
83.21480935681646
20
62.344459946472256
42
0.41421356237307771
10
82.914809356816448
20
62.644459946472239
10
69.514809356816471
20
62.644459946472288
42
0.41421356237306034
10
69.214809356816488
20
62.344459946472313
10
69.21480935681646
20
48.944459946472335
42
0.41421356237311241
10
69.514809356816457
20
48.644459946472303
10
82.914809356816406
20
48.644459946472267
42
0.41421356237309503
0
LWPOLYLINE
5
139
100
AcDbEntity
8
0
100
AcDbPolyline
90
8
70
1
43
0.0
10
45.11480935681643
20
48.944459946472406
10
45.114809356816465
20
62.344459946472348
42
0.41421356237309503
10
44.814809356816454
20
62.644459946472338
10
31.414809356816473
20
62.644459946472395
42
0.41421356237309503
10
31.11480935681648
20
62.344459946472398
10
31.114809356816462
20
48.944459946472421
42
0.41421356237309503
10
31.414809356816455
20
48.644459946472423
10
44.81480935681644
20
48.644459946472395
42
0.41421356237309503
0
LWPOLYLINE
5
140
100
AcDbEntity
8
0
100
AcDbPolyline
90
8
70
1
43
0.0
10
-64.422690643183643
20
29.894459946472626
10
-64.422690643183614
20
43.294459946472656
42
0.41421356237309503
10
-64.722690643183611
20
43.594459946472668
10
-78.122690643183603
20
43.594459946472682
42
0.41421356237307771
10
-78.4226906431836
20
43.294459946472692
10
-78.422690643183643
20
29.894459946472672
42
0.41421356237309503
10
-78.122690643183645
20
29.594459946472686
10
-64.722690643183654
20
29.594459946472632
42
0.41421356237308637
0
LWPOLYLINE
5
141
100
AcDbEntity
8
0
100
AcDbPolyline
90
8
70
1
43
0.0
10
-31.085190643183562
20
48.944459946472598
10
-31.085190643183527
20
62.34445994647254
42
0.41421356237309503
10
-31.385190643183527
20
62.644459946472537
10
-44.78519064318354
20
62.644459946472594
42
0.41421356237309503
10
-45.085190643183537
20
62.344459946472597
10
-45.085190643183573
20
48.94445994647262
42
0.41421356237309503
10
-44.785190643183569
20
48.644459946472622
10
-31.385190643183563
20
48.644459946472587
42
0.41421356237309503
0
LWPOLYLINE
5
142
100
AcDbEntity
8
0
100
AcDbPolyline
90
8
70
1
43
0.0
10
-50.135190643183584
20
48.944459946472648
10
-50.135190643183549
20
62.344459946472597
42
0.41421356237309503
10
-50.435190643183546
20
62.644459946472594
10
-63.835190643183559
20
62.644459946472665
42
0.41421356237309503
10
-64.135190643183563
20
62.344459946472654
10
-64.135190643183591
20
48.944459946472669
42
0.41421356237309503
10
-63.835190643183594
20
48.644459946472679
10
-50.435190643183589
20
48.644459946472637
42
0.41421356237309503
0
LWPOLYLINE
5
143
100
AcDbEntity
8
0
100
AcDbPolyline
90
8
70
1
43
0.0
10
102.26480935681643
20
48.944459946472243
10
102.26480935681647
20
62.344459946472227
42
0.41421356237307771
10
101.96480935681646
20
62.644459946472217
10
88.564809356816482
20
62.644459946472253
42
0.41421356237307771
10
88.264809356816471
20
62.344459946472277
10
88.264809356816443
20
48.944459946472278
42
0.41421356237309503
10
88.564809356816454
20
48.644459946472253
10
101.96480935681642
20
48.644459946472232
42
0.41421356237309503
0
LWPOLYLINE
5
144
100
AcDbEntity
8
0
100
AcDbPolyline
90
8
70
1
43
0.0
10
145.12730935681628
20
-27.256544619805766
10
145.12730935681631
20
-13.856544619805756
42
0.41421356237309503
10
144.8273093568163
20
-13.556544619805759
10
131.42730935681635
20
-13.556544619805724
42
0.41421356237309076
10
131.12730935681634
20
-13.856544619805717
10
131.12730935681628
20
-27.256544619805734
42
0.41421356237309503
10
131.42730935681629
20
-27.556544619805745
10
144.82730935681627
20
-27.556544619805766
42
0.41421356237309936
0
LWPOLYLINE
5
145
100
AcDbEntity
8
0
100
AcDbPolyline
90
8
70
1
43
0.0
10
-64.422690643183799
20
-27.255540053527412
10
-64.422690643183756
20
-13.855540053527386
42
0.41421356237309503
10
-64.722690643183753
20
-13.555540053527393
10
-78.122690643183759
20
-13.555540053527348
42
0.41421356237309503
10
-78.422690643183756
20
-13.855540053527346
10
-78.422690643183799
20
-27.255540053527358
42
0.41421356237310375
10
-78.122690643183802
20
-27.555540053527384
10
-64.722690643183796
20
-27.555540053527402
42
0.41421356237308637
0
LWPOLYLINE
5
146
100
AcDbEntity
8
0
100
AcDbPolyline
90
8
70
1
43
0.0
10
11.714809356816236
20
-25.319044619805418
10
42.114809356816224
20
-25.319044619805496
42
0.41421356237309936
10
42.414809356816221
20
-25.019044619805481
10
42.414809356816235
20
-16.094044619805477
42
0.41421356237309076
10
42.114809356816245
20
-15.794044619805483
10
11.714809356816254
20
-15.794044619805403
42
0.41421356237309076
10
11.41480935681626
20
-16.094044619805395
10
11.414809356816242
20
-25.019044619805406
42
0.41421356237309936
0
LWPOLYLINE
5
147
100
AcDbEntity
8
0
100
AcDbPolyline
90
8
70
1
43
0.0
10
102.91480935681622
20
-25.019044619805641
10
102.91480935681626
20
-16.094044619805636
42
0.41421356237309076
10
102.61480935681621
20
-15.794044619805657
10
72.214809356816261
20
-15.794044619805554
42
0.41421356237309076
10
71.914809356816249
20
-16.094044619805548
10
71.914809356816249
20
-25.01904461980557
42
0.41421356237309503
10
72.214809356816261
20
-25.319044619805577
10
102.61480935681621
20
-25.319044619805648
42
0.41421356237310375
0
LWPOLYLINE
5
148
100
AcDbEntity
8
0
100
AcDbPolyline
90
8
70
1
43
0.0
10
110.66480935681628
20
-12.356544619805657
10
110.66480935681625
20
-26.756544619805677
42
0.41421356237309503
10
110.96480935681629
20
-27.056544619805692
10
117.36480935681624
20
-27.056544619805699
42
0.41421356237309076
10
117.66480935681625
20
-26.756544619805705
10
117.66480935681628
20
-12.356544619805682
42
0.41421356237309503
10
117.36480935681627
20
-12.056544619805688
10
110.96480935681633
20
-12.056544619805667
42
0.41421356237308204
0
LWPOLYLINE
5
149
100
AcDbEntity
8
0
100
AcDbPolyline
90
8
70
1
43
0.0
10
3.6648093568162032
20
-26.756544619805396
10
3.6648093568162388
20
-12.356544619805376
42
0.41421356237309076
10
3.3648093568162452
20
-12.056544619805386
10
-3.0351906431837605
20
-12.056544619805365
42
0.41421356237309076
10
-3.3351906431837541
20
-12.356544619805359
10
-3.3351906431837897
20
-26.756544619805389
42
0.41421356237308637
10
-3.0351906431837961
20
-27.056544619805397
10
3.3648093568162096
20
-27.056544619805393
42
0.41421356237309076
0
LINE
5
150
100
AcDbEntity
8
0
100
AcDbLine
10
182.5460593568165
20
5.4924508139163342
30
4.4408920985006262e-15
11
197.21480935681649
21
5.4924508139162986
31
3.3306690738754696e-15
0
ARC
5
151
100
AcDbEntity
8
0
100
AcDbCircle
10
197.2148093568164
20
5.1924508139163139
30
9.0327745283502736e-12
40
0.30000000000001137
210
1.1102230246251145e-13
220
-3.2869204384206338e-27
230
1
100
AcDbArc
50
0
51
89.999999999983714
0
LINE
5
152
100
AcDbEntity
8
0
100
AcDbLine
10
197.51480935681641
20
5.192450813916305
30
8.9994678376115189e-12
11
197.51480935681639
21
-8.2075491860837104
31
1.7763568394002505e-14
0
ARC
5
153
100
AcDbEntity
8
0
100
AcDbCircle
10
197.21480935681637
20
-8.2075491860837104
30
1.1044498648971057e-11
40
0.30000000000000249
210
0
220
9.9920072216263268e-14
230
1
100
AcDbArc
50
-90
51
0
0
LINE
5
154
100
AcDbEntity
8
0
100
AcDbLine
10
197.21480935681637
20
-8.5075491860837147
30
1.1074474670635936e-11
11
189.54605935681633
21
-8.5075491860836916
31
1.8873791418627661e-14
0
ARC
5
155
100
AcDbEntity
8
0
100
AcDbCircle
10
189.54605935681633
20
-8.8075491860836852
30
-3.1526447211880325e-10
40
0.29999999999999361
210
0
220
3.705924456198852e-11
230
1
100
AcDbArc
50
90
51
180
0
LINE
5
156
100
AcDbEntity
8
0
100
AcDbLine
10
189.24605935681632
20
-8.8075491860836941
30
1.1104450692300816e-11
11
189.24605935681632
21
-9.7065446198058769
31
2.3314683517128287e-14
0
ARC
5
157
100
AcDbEntity
8
0
100
AcDbCircle
10
188.94605935681631
20
-9.7065446198058716
30
1.1269873922969964e-11
40
0.30000000000000249
210
0
220
1.1102230246251475e-13
230
1
100
AcDbArc
50
270
51
360
0
LINE
5
158
100
AcDbEntity
8
0
100
AcDbLine
10
188.94605935681631
20
-10.006544619805876
30
1.1303180613708719e-11
11
182.54605935681639
21
-10.006544619805853
31
1.8873791418627661e-14
0
ARC
5
159
100
AcDbEntity
8
0
100
AcDbCircle
10
182.54605935681639
20
-9.7065446198058538
30
1.1269873922969964e-11
40
0.30000000000001137
210
1.073215590470944e-13
220
1.5886782119033062e-27
230
1
100
AcDbArc
50
180
51
270
0
LINE
5
160
100
AcDbEntity
8
0
100
AcDbLine
10
182.24605935681637
20
-9.7065446198058591
30
1.1302070390684094e-11
11
182.2460593568164
21
5.1924553801941586
31
7.7715611723760958e-15
0
ARC
5
161
100
AcDbEntity
8
0
100
AcDbCircle
10
182.54605935681641
20
5.1924553801941498
30
1.6527889180154185e-10
40
0.2999954337221844
210
7.1271369842121922e-24
220
3.0091202726728677e-11
230
1
100
AcDbArc
50
89.999999999983714
51
180
0
LINE
5
162
100
AcDbEntity
8
0
100
AcDbLine
10
169.86994055231582
20
67.544459946472145
30
2.0206059048177849e-13
11
169.39497433111583
21
67.45845994643139
31
7.8559381222476077e-12
0
ARC
5
163
100
AcDbEntity
8
0
100
AcDbCircle
10
169.79585336521581
20
65.244459946475914
30
-1.1806698570714952e-10
40
2.24999999995195
210
6.197944085041693e-13
220
-3.4230396296016462e-12
230
1
100
AcDbArc
50
100.26309589822849
51
145.58261129005865
0
ARC
5
164
100
AcDbEntity
8
0
100
AcDbCircle
10
166.00112017301583
20
67.844459946518725
30
7.1054273576010019e-14
40
2.3500000000000831
210
0
220
-8.5038359332987707e-15
230
1
100
AcDbArc
50
270
51
325.58261128818964
0
LINE
5
165
100
AcDbEntity
8
0
100
AcDbLine
10
166.00112017301583
20
65.494459946518631
30
5.1070259132757201e-14
11
162.26182187341578
21
65.494459946518631
31
-2.8199664825478976e-12
0
ARC
5
166
100
AcDbEntity
8
0
100
AcDbCircle
10
162.26182187341593
20
67.844459946518754
30
7.1054273576010019e-14
40
2.3500000000000885
210
-4.6767809386378732e-15
220
-3.2043439749778788e-15
230
1
100
AcDbArc
50
214.41738871180985
51
269.99999999999653
0
ARC
5
167
100
AcDbEntity
8
0
100
AcDbCircle
10
158.46708868121593
20
65.24445994647607
30
2.2204460492503131e-14
40
2.250000000022347
210
-1.3025700984813244e-14
220
-8.9246913668321074e-15
230
1
100
AcDbArc
50
34.417388709938727
51
79.736904101771657
0
LINE
5
168
100
AcDbEntity
8
0
100
AcDbLine
10
158.86796771532843
20
67.458459946500795
30
3.5527136788005009e-14
11
158.39300149411594
21
67.544459946472159
31
2.0206059048177849e-13
0
LINE
5
169
100
AcDbEntity
8
0
100
AcDbLine
10
158.39300149411594
20
67.544459946472159
30
2.0206059048177849e-13
11
62.738488312216134
21
67.544459946472401
31
1.7208456881689926e-13
0
LINE
5
170
100
AcDbEntity
8
0
100
AcDbLine
10
62.738488312216134
20
67.544459946472401
30
1.7208456881689926e-13
11
62.270432216216101
21
67.449930417780564
31
-9.2925667161125602e-13
0
ARC
5
171
100
AcDbEntity
8
0
100
AcDbCircle
10
62.715853365216034
20
65.24445994647634
30
-3.3306690738754696e-15
40
2.249999999949174
210
-8.1467066460789839e-14
220
4.0337826317060922e-13
230
1
100
AcDbArc
50
101.41798031452946
51
145.58261129005942
0
ARC
5
172
100
AcDbEntity
8
0
100
AcDbCircle
10
58.921120173016099
20
67.844459946519052
30
4.1078251911130792e-14
40
2.3500000000000298
210
-7.1422445017744832e-29
220
-9.4487065925544037e-15
230
1
100
AcDbArc
50
269.99999999999949
51
325.58261128819049
0
LINE
5
173
100
AcDbEntity
8
0
100
AcDbLine
10
58.921120173016078
20
65.494459946519029
30
1.8873791418627661e-14
11
55.181821873416098
21
65.494459946519058
31
-3.9013237085328001e-12
0
ARC
5
174
100
AcDbEntity
8
0
100
AcDbCircle
10
55.181821873416141
20
67.844459946519052
30
3.9968028886505635e-14
40
2.3500000000000236
210
-6.2357079181841172e-15
220
-4.2724586333037876e-15
230
1
100
AcDbArc
50
214.41738871180814
51
269.99999999999898
0
ARC
5
175
100
AcDbEntity
8
0
100
AcDbCircle
10
51.387088681216099
20
65.244459946476326
30
-4.4408920985006262e-15
40
2.2500000000224714
210
-9.7692757386091341e-15
220
-6.6935185251240896e-15
230
1
100
AcDbArc
50
34.417388709940795
51
79.736904101769852
0
LINE
5
176
100
AcDbEntity
8
0
100
AcDbLine
10
51.787967715328698
20
67.458459946501165
30
6.6613381477509392e-15
11
51.313001494116151
21
67.544459946472429
31
2.0872192862952943e-13
0
LINE
5
177
100
AcDbEntity
8
0
100
AcDbLine
10
51.313001494116151
20
67.544459946472429
30
2.0872192862952943e-13
11
-44.063382780483657
21
67.544459946472642
31
1.8318679906315083e-13
0
LINE
5
178
100
AcDbEntity
8
0
100
AcDbLine
10
-44.063382780483657
20
67.544459946472642
30
1.8318679906315083e-13
11
-44.538349001693661
21
67.458459946432114
31
5.7032156774994291e-12
0
ARC
5
179
100
AcDbEntity
8
0
100
AcDbCircle
10
-44.137469967573665
20
65.244459946476667
30
-1.8372968204706901e-10
40
2.2499999999554836
210
4.5416424318900012e-13
220
-2.5082869115555009e-12
230
1
100
AcDbArc
50
100.26309589873033
51
145.58261128977085
0
ARC
5
180
100
AcDbEntity
8
0
100
AcDbCircle
10
-47.932203159773657
20
67.844459946519436
30
1.2212453270876722e-14
40
2.3500000000000298
210
5.713795601419587e-29
220
-7.5589652740435226e-15
230
1
100
AcDbArc
50
270.00000000000034
51
325.58261128846641
0
LINE
5
181
100
AcDbEntity
8
0
100
AcDbLine
10
-47.932203159773643
20
65.494459946519399
30
-5.5511151231257827e-15
11
-51.67150145937363
21
65.494459946519399
31
-4.9749093733453265e-12
0
ARC
5
182
100
AcDbEntity
8
0
100
AcDbCircle
10
-51.671501459373594
20
67.84445994651945
30
9.9920072216264089e-15
40
2.3500000000000627
210
-3.1178539591022688e-15
220
-2.1362293166368814e-15
230
1
100
AcDbArc
50
214.41738871153316
51
269.99999999999915
0
ARC
5
183
100
AcDbEntity
8
0
100
AcDbCircle
10
-55.466234651573629
20
65.244459946476752
30
-3.6637359812630166e-14
40
2.2500000000224047
210
-1.3839807296315878e-14
220
-9.4824845773286947e-15
230
1
100
AcDbArc
50
34.417388710227492
51
79.736904101269644
0
LINE
5
184
100
AcDbEntity
8
0
100
AcDbLine
10
-55.06535561744171
20
67.458459946498039
30
-2.1094237467877974e-14
11
-55.540321838663615
21
67.544459946472685
31
1.8318679906315083e-13
0
LINE
5
185
100
AcDbEntity
8
0
100
AcDbLine
10
-55.540321838663615
20
67.544459946472685
30
1.8318679906315083e-13
11
-86.08519064318358
21
67.544459946472713
31
-3.8857805861880479e-14
0
ARC
5
186
100
AcDbEntity
8
0
100
AcDbCircle
10
-86.08519064318358
20
65.544459946472728
30
-3.6637359812630166e-14
40
1.9999999999999929
210
0
220
1.1102230246251605e-15
230
1
100
AcDbArc
50
90
51
180
0
LINE
5
187
100
AcDbEntity
8
0
100
AcDbLine
10
-88.08519064318358
20
65.544459946472728
30
-2.7755575615628914e-14
11
-88.085190643183836
21
-30.457537268229675
31
7.5495165674510645e-14
0
ELLIPSE
5
188
100
AcDbEntity
8
0
100
AcDbEllipse
10
-86.085190643183836
20
-30.457537268229675
30
5.440092820663267e-14
11
4.2619160898400359e-09
21
-2.0000000814057723
31
0.0
40
0.99999995929711627
41
4.7123889782537329
42
6.2831853050486259
0
LINE
5
189
100
AcDbEntity
8
0
100
AcDbLine
10
-86.085190643183836
20
-32.457537349635444
30
5.6621374255882984e-14
11
-71.189120011903938
21
-32.457537349635523
31
-1.3522516439934407e-12
0
LINE
5
190
100
AcDbEntity
8
0
100
AcDbLine
10
-71.189120011903938
20
-32.457537349635523
30
-1.3522516439934407e-12
11
-70.718868165443922
21
-32.36978258068352
31
-6.2294613911717533e-12
0
ARC
5
191
100
AcDbEntity
8
0
100
AcDbCircle
10
-71.131620425093914
20
-30.157965325086739
30
3.2755817808111082e-11
40
2.2500000000004081
210
3.7945119692762421e-13
220
-2.033366711869881e-12
230
1
100
AcDbArc
50
280.57051215219735
51
327.86507199583053
0
ARC
5
192
100
AcDbEntity
8
0
100
AcDbCircle
10
-67.151670676673945
20
-32.657965325086153
30
-1.6131540547803525e-12
40
2.4499999999999966
210
-2.6284411669171641e-29
220
-7.2504360791847054e-15
230
1
100
AcDbArc
50
89.999999999999673
51
147.86507199580203
0
LINE
5
193
100
AcDbEntity
8
0
100
AcDbLine
10
-67.15167067667393
20
-30.207965325086153
30
-1.5953904863863499e-12
11
-62.251789541413949
21
-30.207965325086185
31
-3.3306690738754696e-12
0
ARC
5
194
100
AcDbEntity
8
0
100
AcDbCircle
10
-62.251789541413956
20
-32.657965325086195
30
-1.609823385706477e-12
40
2.4500000000000135
210
-3.8372834108135208e-15
220
-2.4103843348386203e-15
230
1
100
AcDbArc
50
32.134928004197469
51
89.999999999999844
0
ARC
5
195
100
AcDbEntity
8
0
100
AcDbCircle
10
-58.271839792983933
20
-30.157965325086739
30
-1.5709655798445965e-12
40
2.2500000000026983
210
-1.0445938173887402e-14
220
-6.5616018003565466e-15
230
1
100
AcDbArc
50
212.1349280040348
51
259.42948784780197
0
LINE
5
196
100
AcDbEntity
8
0
100
AcDbLine
10
-58.684592052634372
20
-32.369782580685779
30
-1.5809575870662229e-12
11
-58.214340206183969
21
-32.457537349635565
31
-1.3522516439934407e-12
0
LINE
5
197
100
AcDbEntity
8
0
100
AcDbLine
10
-58.214340206183969
20
-32.457537349635565
30
-1.3522516439934407e-12
11
50.393958919815759
21
-32.457537349635885
31
-2.0350388041379119e-12
0
LINE
5
198
100
AcDbEntity
8
0
100
AcDbLine
10
50.393958919815759
20
-32.457537349635885
30
-2.0350388041379119e-12
11
50.864210766315793
21
-32.369782580683946
31
-5.0104365101333315e-12
0
ARC
5
199
100
AcDbEntity
8
0
100
AcDbCircle
10
50.451458506746469
20
-30.157965325306986
30
5.8504770545205177e-11
40
2.2499999997695239
210
2.8314011068731276e-13
220
-1.5172640924146521e-12
230
1
100
AcDbArc
50
280.57051215120487
51
326.41967853910637
0
ARC
5
200
100
AcDbEntity
8
0
100
AcDbCircle
10
54.367053068730641
20
-32.757466009733392
30
-1.5776269179923474e-12
40
2.4499238917274058
210
-7.7883842074804191e-24
220
-8.1569939828466994e-15
230
1
100
AcDbArc
50
89.999999945293553
51
146.42116106866055
0
LINE
5
201
100
AcDbEntity
8
0
100
AcDbLine
10
54.367053071069847
20
-30.307542118005983
30
-1.5576429035490946e-12
11
59.395644571715764
21
-30.307542122807369
31
2.8421709430404007e-13
0
ARC
5
202
100
AcDbEntity
8
0
100
AcDbCircle
10
59.395644569376472
20
-32.757542092657154
30
-1.5798473640415978e-12
40
2.4499999698497699
210
-3.3977362532342971e-15
220
-2.2557688317370112e-15
230
1
100
AcDbArc
50
33.580321220213918
51
89.999999945293254
0
ARC
5
203
100
AcDbEntity
8
0
100
AcDbCircle
10
63.311332463757104
20
-30.157903366273754
30
-1.5376588891058418e-12
40
2.2500780288552851
210
-1.1921026443656887e-14
220
-7.9144106951426259e-15
230
1
100
AcDbArc
50
213.58032146365991
51
259.42744118127814
0
ARC
5
204
100
AcDbEntity
8
0
100
AcDbCircle
10
1291.4671521886546
20
6549.8624014805873
30
1.0447975817839961e-10
40
6695.9063232898197
210
-2.9054742765297507e-15
220
-1.5566493622167901e-14
230
1
100
AcDbArc
50
259.42744118127672
51
259.43153451399098
0
LINE
5
205
100
AcDbEntity
8
0
100
AcDbLine
10
63.368738722734363
20
-32.457537349117914
30
-1.7796875084741259e-12
11
172.54395891981545
21
-32.457537349636112
31
-1.3355982986240633e-12
0
LINE
5
206
100
AcDbEntity
8
0
100
AcDbLine
10
172.54395891981545
20
-32.457537349636112
30
-1.3355982986240633e-12
11
173.0142107663155
21
-32.36978258068438
31
-3.7547742692822794e-12
0
ARC
5
207
100
AcDbEntity
8
0
100
AcDbCircle
10
172.60145850661547
20
-30.15796532508762
30
-1.5076828674409626e-12
40
2.2500000000095652
210
1.8320830693423671e-13
220
-9.8175911850932916e-13
230
1
100
AcDbArc
50
280.57051215345001
51
327.86507199544548
0
ARC
5
208
100
AcDbEntity
8
0
100
AcDbCircle
10
176.58140825501556
20
-32.65796532508709
30
-1.5443202272535927e-12
40
2.4500000000000766
210
1.2485095542855721e-28
220
-8.6098928440315583e-15
230
1
100
AcDbArc
50
90.000000000001336
51
147.86507199590716
0
LINE
5
209
100
AcDbEntity
8
0
100
AcDbLine
10
176.5814082550155
20
-30.207965325087013
30
-1.5232259897857148e-12
11
181.48128939031554
21
-30.207965325087052
31
-8.5598195198599569e-13
0
ARC
5
210
100
AcDbEntity
8
0
100
AcDbCircle
10
181.48128939031557
20
-32.657965325086941
30
-1.5420997812043424e-12
40
2.4499999999998892
210
-3.8372834108181474e-15
220
-2.410384334831685e-15
230
1
100
AcDbArc
50
32.134928004091989
51
90.000000000000668
0
ARC
5
211
100
AcDbEntity
8
0
100
AcDbCircle
10
185.46123913871537
20
-30.157965325087712
30
-1.5021317523178368e-12
40
2.2499999999770925
210
-1.0863775700904659e-14
220
-6.8240658725469664e-15
230
1
100
AcDbArc
50
212.1349280045541
51
259.42948784905593
0
LINE
5
212
100
AcDbEntity
8
0
100
AcDbLine
10
185.04848687911803
20
-32.369782580670645
30
-1.5143442055887135e-12
11
185.51873872551545
21
-32.457537349636141
31
-1.3367085216486885e-12
0
LINE
5
213
100
AcDbEntity
8
0
100
AcDbLine
10
185.51873872551545
20
-32.457537349636141
30
-1.3367085216486885e-12
11
200.41480935681622
21
-32.457537349636205
31
4.1078251911130792e-14
0
ELLIPSE
5
214
100
AcDbEntity
8
0
100
AcDbEllipse
10
200.41480935681625
20
-30.457537268230432
30
3.8857805861880479e-14
11
-4.2619105546730907e-09
21
-2.0000000814057723
31
0.0
40
0.99999995929711605
41
2.1309602971086861e-09
42
1.570796328925848
0
LINE
5
215
100
AcDbEntity
8
0
100
AcDbLine
10
202.41480935681625
20
-30.457537268230439
30
3.8857805861880479e-14
11
202.41480935681653
21
65.54445994647196
31
-5.3290705182007514e-14
0
ARC
5
216
100
AcDbEntity
8
0
100
AcDbCircle
10
200.41480935681653
20
65.54445994647196
30
-5.3290705182007514e-14
40
1.9999999999999929
210
0
220
0
230
1
100
AcDbArc
50
0
51
90
0
LINE
5
217
100
AcDbEntity
8
0
100
AcDbLine
10
200.41480935681653
20
67.544459946471974
30
-4.4408920985006262e-14
11
169.86994055231582
21
67.544459946472145
31
2.0206059048177849e-13
0
LWPOLYLINE
5
218
100
AcDbEntity
8
0
100
AcDbPolyline
90
24
70
1
43
0.0
10
-52.872690643183624
20
27.069459946472691
42
-0.41421356237308982
10
-52.372690643183617
20
26.569459946472694
10
-52.372690643183674
20
8.5194599464726508
42
0.41421356237308982
10
-51.872690643183681
20
8.0194599464726721
10
-43.347690643183654
20
8.0194599464726082
42
-0.41421356237310025
10
-42.847690643183668
20
7.5194599464726108
10
-42.847690643183725
20
-10.530542690177338
42
0.41421201785610817
10
-42.347693279840577
20
-11.030542690170396
10
147.15230672015952
20
-11.031541983134927
42
0.41421510689179475
10
147.65230935681643
20
-10.531541983141874
10
147.65230935681652
20
7.5184553801942799
42
-0.41421356237309503
10
148.15230935681652
20
8.0184553801942684
10
156.67730935681652
20
8.0184553801942791
42
0.41421356237309503
10
157.17730935681655
20
8.5184553801942755
10
157.17730935681661
20
26.568490534383692
42
-0.41419296895172275
10
157.67727420139141
20
27.068490533147799
10
170.96484451224174
20
27.069424793518589
42
0.41419296895174879
10
171.4648093568166
20
27.569424792282685
10
171.46480935681663
20
45.619459946472105
42
0.41421356237309503
10
170.9648093568166
20
46.119459946472112
10
-56.635190643183577
20
46.11945994647273
42
0.41421356237310025
10
-57.135190643183584
20
45.61945994647273
10
-57.135190643183634
20
27.56945994647268
42
0.41421356237308982
10
-56.635190643183641
20
27.069459946472691
0
LWPOLYLINE
5
219
100
AcDbEntity
8
0
100
AcDbPolyline
90
8
70
1
43
0.0
10
179.63355935681699
20
41.757459946471833
10
179.63355935681693
20
36.257459946471819
42
0.41421356237310897
10
180.38355935681696
20
35.50745994647184
10
194.38355935681699
20
35.507459946471783
42
0.41421356237309503
10
195.13355935681699
20
36.257459946471783
10
195.13355935681702
20
41.757459946471798
42
0.41421356237310897
10
194.38355935681699
20
42.507459946471791
10
180.38355935681696
20
42.507459946471826
42
0.41421356237308815
0
LWPOLYLINE
5
220
100
AcDbEntity
8
0
100
AcDbPolyline
90
8
70
1
43
0.0
10
-58.622690643183695
20
-8.5055400535273051
10
-46.122690643183702
20
-8.5055400535273584
42
0.41421356237308982
10
-45.372690643183745
20
-7.7555400535274144
10
-45.372690643183645
20
4.7444599464726656
42
0.41421356237309503
10
-46.122690643183645
20
5.4944599464726496
10
-58.622690643183674
20
5.4944599464727117
42
0.41421356237310542
10
-59.37269064318366
20
4.7444599464726922
10
-59.372690643183702
20
-7.7555400535272989
42
0.41421356237308982
0
LWPOLYLINE
5
221
100
AcDbEntity
8
0
100
AcDbPolyline
90
4
70
1
43
0.0
10
159.7023093568167
20
10.543455380194317
10
173.70230935681667
20
10.54345538019431
10
173.70230935681673
20
24.543455380194313
10
159.70230935681673
20
24.543455380194384
0
LWPOLYLINE
5
222
100
AcDbEntity
8
0
100
AcDbPolyline
90
8
70
1
43
0.0
10
195.13355935681682
20
20.818455380194226
10
195.13355935681685
20
33.31845538019428
42
0.41421356237310897
10
194.38355935681682
20
34.068455380194273
10
181.88355935681673
20
34.068455380194294
42
0.41421356237309503
10
181.13355935681676
20
33.318455380194301
10
181.13355935681668
20
20.81845538019428
42
0.41421356237310542
10
181.8835593568167
20
20.068455380194287
10
194.38355935681682
20
20.068455380194244
42
0.4142135623730846
0
LWPOLYLINE
5
223
100
AcDbEntity
8
0
100
AcDbPolyline
90
8
70
1
43
0.0
10
-80.80394064318368
20
4.7444599464728876
10
-80.803940643183708
20
-7.755540053527139
42
0.41421356237308637
10
-80.053940643183722
20
-8.5055400535271417
10
-67.553940643183708
20
-8.5055400535271808
42
0.41421356237308982
10
-66.803940643183708
20
-7.7555400535271746
10
-66.803940643183665
20
4.7444599464728432
42
0.41421356237309853
10
-67.55394064318368
20
5.494459946472845
10
-80.053940643183665
20
5.4944599464728805
42
0.41421356237309159
0
LWPOLYLINE
5
224
100
AcDbEntity
8
0
100
AcDbPolyline
90
7
70
1
43
0.0
10
179.63355935681687
20
17.881459946471804
10
179.63355935681687
20
12.381459946471786
42
0.41421356237309853
10
180.38355935681693
20
11.631459946471775
10
194.38355935681693
20
11.631459946471768
42
0.41421356237309159
10
195.1335593568169
20
12.381459946471768
10
195.13355935681687
20
18.631459946471779
10
180.38355935681687
20
18.631459946471814
42
0.41421356237309503
0
CIRCLE
5
225
100
AcDbEntity
8
0
100
AcDbCircle
10
200.82902291918936
20
-30.872178887460606
30
1.3322676295501878e-14
40
1.0000000000000142
210
0
220
0
230
1
0
CIRCLE
5
226
100
AcDbEntity
8
0
100
AcDbCircle
10
-86.499404205556957
20
-30.872178887459818
30
2.4424906541753444e-14
40
1.0000000000000004
210
0
220
0
230
1
0
CIRCLE
5
227
100
AcDbEntity
8
0
100
AcDbCircle
10
200.82902291918981
20
65.958673508845095
30
-5.1070259132757201e-14
40
0.99999999999997868
210
0
220
0
230
1
0
CIRCLE
5
228
100
AcDbEntity
8
0
100
AcDbCircle
10
-86.499404205556672
20
65.958673508845862
30
-3.4416913763379853e-14
40
1.0499999999999972
210
0
220
0
230
1
0
ENDSEC
0
SECTION
2
OBJECTS
0
DICTIONARY
5
C
100
AcDbDictionary
3
ACAD_GROUP
350
D
3
ACAD_MLINESTYLE
350
17
0
DICTIONARY
5
D
100
AcDbDictionary
0
DICTIONARY
5
1A
330
C
100
AcDbDictionary
0
DICTIONARY
5
17
100
AcDbDictionary
0
ENDSEC
0
EOF
