0
SECTION
2
HEADER
9
$INSUNITS
70
4
9
$ACADVER
1
AC1014
9
$HANDSEED
5
FFFF
0
ENDSEC
0
SECTION
2
TABLES
0
TABLE
2
VPORT
5
8
100
AcDbSymbolTable
0
ENDTAB
0
TABLE
2
LTYPE
5
5
100
AcDbSymbolTable
70
2
0
LTYPE
5
14
100
AcDbSymbolTableRecord
100
AcDbLinetypeTableRecord
2
BYBLOCK
70
0
0
LTYPE
5
15
100
AcDbSymbolTableRecord
100
AcDbLinetypeTableRecord
2
BYLAYER
70
0
0
ENDTAB
0
TABLE
2
LAYER
5
2
100
AcDbSymbolTable
70
3
0
LAYER
5
50
100
AcDbSymbolTableRecord
100
AcDbLayerTableRecord
2
0
70
0
6
CONTINUOUS
0
LAYER
5
51
100
AcDbSymbolTableRecord
100
AcDbLayerTableRecord
2
CUTOUTS
70
0
62
1
6
CONTINUOUS
0
LAYER
5
52
100
AcDbSymbolTableRecord
100
AcDbLayerTableRecord
2
PERIMETER
70
0
62
5
6
CONTINUOUS
0
ENDTAB
0
TABLE
2
STYLE
5
3
100
AcDbSymbolTable
70
1
0
STYLE
5
11
100
AcDbSymbolTableRecord
100
AcDbTextStyleTableRecord
2
STANDARD
70
0
0
ENDTAB
0
TABLE
2
VIEW
5
6
100
AcDbSymbolTable
0
ENDTAB
0
TABLE
2
UCS
5
7
100
AcDbSymbolTable
0
ENDTAB
0
TABLE
2
APPID
5
9
100
AcDbSymbolTable
70
1
0
APPID
5
12
100
AcDbSymbolTableRecord
100
AcDbRegAppTableRecord
2
ACAD
70
0
0
ENDTAB
0
TABLE
2
DIMSTYLE
5
A
100
AcDbSymbolTable
0
ENDTAB
0
TABLE
2
BLOCK_RECORD
5
1
100
AcDbSymbolTable
70
2
0
BLOCK_RECORD
5
1F
100
AcDbSymbolTableRecord
100
AcDbBlockTableRecord
2
*MODEL_SPACE
0
BLOCK_RECORD
5
1B
100
AcDbSymbolTableRecord
100
AcDbBlockTableRecord
2
*PAPER_SPACE
0
ENDTAB
0
ENDSEC
0
SECTION
2
BLOCKS
0
BLOCK
5
20
100
AcDbEntity
100
AcDbBlockBegin
2
*MODEL_SPACE
0
ENDBLK
5
21
100
AcDbEntity
100
AcDbBlockEnd
0
BLOCK
5
1C
100
AcDbEntity
100
AcDbBlockBegin
2
*PAPER_SPACE
0
ENDBLK
5
1D
100
AcDbEntity
100
AcDbBlockEnd
0
ENDSEC
0
SECTION
2
ENTITIES
0
ARC
5
100
100
AcDbEntity
8
CUTOUTS
100
AcDbCircle
10
58.781250000001783
20
-39.731750000005448
30
0
40
0.75000000000001066
210
0
220
0
230
1
100
AcDbArc
50
-90.000000000002757
51
0
0
LINE
5
101
100
AcDbEntity
8
CUTOUTS
100
AcDbLine
10
59.531249999999538
20
-22.181750000000058
30
0
11
59.531250000001847
21
-39.731750000005341
31
0
0
ARC
5
102
100
AcDbEntity
8
CUTOUTS
100
AcDbCircle
10
60.281249999999567
20
-22.181749999999969
30
0
40
0.75000000000004619
210
0
220
-0
230
1
100
AcDbArc
50
90
51
180
0
LINE
5
103
100
AcDbEntity
8
CUTOUTS
100
AcDbLine
10
68.306250000000048
20
-21.431749999999834
30
0
11
60.281249999999567
21
-21.431749999999923
31
0
0
ARC
5
104
100
AcDbEntity
8
CUTOUTS
100
AcDbCircle
10
68.306250000000048
20
-20.681749999999806
30
0
40
0.75000000000002842
210
-0
220
0
230
1
100
AcDbArc
50
-90
51
0
0
LINE
5
105
100
AcDbEntity
8
CUTOUTS
100
AcDbLine
10
69.056250000000148
20
-3.131749999999629
30
0
11
69.056250000000119
21
-20.681749999999806
31
0
0
ARC
5
106
100
AcDbEntity
8
CUTOUTS
100
AcDbCircle
10
69.806250000000176
20
-3.131749999999629
30
0
40
0.75000000000001954
210
0
220
0
230
1
100
AcDbArc
50
90.000000000008683
51
180
0
LINE
5
107
100
AcDbEntity
8
CUTOUTS
100
AcDbLine
10
82.593750000000128
20
-2.3817499999977532
30
0
11
69.806250000000063
21
-2.3817499999996095
31
0
0
ARC
5
108
100
AcDbEntity
8
CUTOUTS
100
AcDbCircle
10
82.593750000000028
20
-1.6317499999977247
30
0
40
0.75000000000002842
210
-0
220
0
230
1
100
AcDbArc
50
-89.999999999992426
51
0
0
LINE
5
109
100
AcDbEntity
8
CUTOUTS
100
AcDbLine
10
83.343750000000085
20
15.918249999999929
30
0
11
83.343750000000014
21
-1.6317499999977247
31
0
0
ARC
5
10A
100
AcDbEntity
8
CUTOUTS
100
AcDbCircle
10
82.593750000000057
20
15.918249999999929
30
0
40
0.75000000000002842
210
-0
220
0
230
1
100
AcDbArc
50
0
51
90
0
LINE
5
10B
100
AcDbEntity
8
CUTOUTS
100
AcDbLine
10
74.568750000000108
20
16.668250000000029
30
0
11
82.593750000000057
21
16.668249999999958
31
0
0
ARC
5
10C
100
AcDbEntity
8
CUTOUTS
100
AcDbCircle
10
74.568750000000108
20
17.418250000000057
30
0
40
0.75000000000002842
210
0
220
0
230
1
100
AcDbArc
50
180
51
270
0
LINE
5
10D
100
AcDbEntity
8
CUTOUTS
100
AcDbLine
10
73.81875000000008
20
34.896500000000152
30
0
11
73.81875000000008
21
17.418250000000057
31
0
0
ARC
5
10E
100
AcDbEntity
8
CUTOUTS
100
AcDbCircle
10
74.568750000000108
20
34.896500000000152
30
0
40
0.75000000000002398
210
0
220
-0
230
1
100
AcDbArc
50
90
51
180
0
LINE
5
10F
100
AcDbEntity
8
CUTOUTS
100
AcDbLine
10
110.64375000000001
20
35.646500000000131
30
0
11
74.568750000000108
21
35.646500000000174
31
0
0
ARC
5
110
100
AcDbEntity
8
CUTOUTS
100
AcDbCircle
10
110.64375000000001
20
36.396500000000117
30
0
40
0.74999999999998845
210
-0
220
0
230
1
100
AcDbArc
50
-90
51
0
0
LINE
5
111
100
AcDbEntity
8
CUTOUTS
100
AcDbLine
10
111.39375000000001
20
39.80250000000008
30
0
11
111.39375000000001
21
36.396500000000131
31
0
0
ARC
5
112
100
AcDbEntity
8
CUTOUTS
100
AcDbCircle
10
110.64375000000001
20
39.802500000000158
30
0
40
0.74999999999999289
210
-0
220
0
230
1
100
AcDbArc
50
0
51
89.999999999997826
0
LINE
5
113
100
AcDbEntity
8
CUTOUTS
100
AcDbLine
10
-168.55625000000003
20
40.552500000000165
30
0
11
110.64375000000001
21
40.552500000000137
31
0
0
ARC
5
114
100
AcDbEntity
8
CUTOUTS
100
AcDbCircle
10
-168.55625000000003
20
39.802500000000158
30
0
40
0.75000000000001066
210
0
220
-0
230
1
100
AcDbArc
50
90
51
180
0
LINE
5
115
100
AcDbEntity
8
CUTOUTS
100
AcDbLine
10
-169.30625000000003
20
36.396500000000138
30
0
11
-169.30625000000003
21
39.80250000000018
31
0
0
ARC
5
116
100
AcDbEntity
8
CUTOUTS
100
AcDbCircle
10
-168.55625000000003
20
36.396500000000117
30
0
40
0.74999999999999289
210
0
220
0
230
1
100
AcDbArc
50
180
51
270
0
LINE
5
117
100
AcDbEntity
8
CUTOUTS
100
AcDbLine
10
-155.53125
20
35.646500000000188
30
0
11
-168.55625000000003
21
35.646500000000181
31
0
0
ARC
5
118
100
AcDbEntity
8
CUTOUTS
100
AcDbCircle
10
-155.53125
20
34.896500000000174
30
0
40
0.75000000000002842
210
0
220
-0
230
1
100
AcDbArc
50
0
51
90
0
LINE
5
119
100
AcDbEntity
8
CUTOUTS
100
AcDbLine
10
-154.78124999999994
20
17.418250000000086
30
0
11
-154.78124999999997
21
34.896500000000167
31
0
0
ARC
5
11A
100
AcDbEntity
8
CUTOUTS
100
AcDbCircle
10
-154.03124999999994
20
17.418250000000086
30
0
40
0.75000000000002842
210
0
220
0
230
1
100
AcDbArc
50
180
51
270
0
LINE
5
11B
100
AcDbEntity
8
CUTOUTS
100
AcDbLine
10
-146.00625000000005
20
16.668250000000047
30
0
11
-154.03124999999994
21
16.668250000000057
31
0
0
ARC
5
11C
100
AcDbEntity
8
CUTOUTS
100
AcDbCircle
10
-146.00625000000005
20
15.918250000000027
30
0
40
0.75000000000002842
210
0
220
-0
230
1
100
AcDbArc
50
0
51
90
0
LINE
5
11D
100
AcDbEntity
8
CUTOUTS
100
AcDbLine
10
-145.25625000000002
20
-1.631749999999963
30
0
11
-145.25625000000002
21
15.918250000000027
31
0
0
ARC
5
11E
100
AcDbEntity
8
CUTOUTS
100
AcDbCircle
10
-144.50624999999999
20
-1.631749999999963
30
0
40
0.75000000000002842
210
0
220
0
230
1
100
AcDbArc
50
180
51
270
0
LINE
5
11F
100
AcDbEntity
8
CUTOUTS
100
AcDbLine
10
-141.24374999999989
20
-2.3817500000000003
30
0
11
-144.50624999999999
21
-2.3817499999999825
31
0
0
ARC
5
120
100
AcDbEntity
8
CUTOUTS
100
AcDbCircle
10
-141.24374999999989
20
-3.1317500000000109
30
0
40
0.75000000000001066
210
0
220
-0
230
1
100
AcDbArc
50
0
51
90
0
LINE
5
121
100
AcDbEntity
8
CUTOUTS
100
AcDbLine
10
-140.49374999999969
20
-20.681749999999806
30
0
11
-140.49374999999992
21
-3.131750000000002
31
0
0
ARC
5
122
100
AcDbEntity
8
CUTOUTS
100
AcDbCircle
10
-139.74374999999966
20
-20.681749999999806
30
0
40
0.75000000000002842
210
0
220
0
230
1
100
AcDbArc
50
180
51
270
0
LINE
5
123
100
AcDbEntity
8
CUTOUTS
100
AcDbLine
10
-131.71874999999997
20
-21.431749999999834
30
0
11
-139.74374999999966
21
-21.431749999999852
31
0
0
ARC
5
124
100
AcDbEntity
8
CUTOUTS
100
AcDbCircle
10
-131.71874999999997
20
-22.181749999999862
30
0
40
0.75000000000002842
210
-0
220
0
230
1
100
AcDbArc
50
0
51
90
0
LINE
5
125
100
AcDbEntity
8
CUTOUTS
100
AcDbLine
10
-130.96874999999994
20
-39.731749999999252
30
0
11
-130.96874999999994
21
-22.181749999999862
31
0
0
ARC
5
126
100
AcDbEntity
8
CUTOUTS
100
AcDbCircle
10
-130.21874999999991
20
-39.731749999999252
30
0
40
0.75000000000002842
210
0
220
0
230
1
100
AcDbArc
50
180
51
269.99999999999784
0
LINE
5
127
100
AcDbEntity
8
CUTOUTS
100
AcDbLine
10
58.781250000001748
20
-40.481750000005462
30
0
11
-130.21874999999994
21
-40.48174999999928
31
0
0
LINE
5
128
100
AcDbEntity
8
CUTOUTS
100
AcDbLine
10
-157.30625000000003
20
56.255750000000063
30
0
11
-157.30625000000003
21
43.755750000000113
31
0
0
ARC
5
129
100
AcDbEntity
8
CUTOUTS
100
AcDbCircle
10
-158.05625000000003
20
43.755750000000113
30
0
40
0.74999999999995737
210
-0
220
0
230
1
100
AcDbArc
50
-90
51
0
0
LINE
5
12A
100
AcDbEntity
8
CUTOUTS
100
AcDbLine
10
-158.05625000000003
20
43.005750000000155
30
0
11
-170.55625000000003
21
43.005750000000148
31
0
0
ARC
5
12B
100
AcDbEntity
8
CUTOUTS
100
AcDbCircle
10
-170.55625000000003
20
43.755750000000113
30
0
40
0.74999999999992184
210
0
220
0
230
1
100
AcDbArc
50
180
51
270
0
LINE
5
12C
100
AcDbEntity
8
CUTOUTS
100
AcDbLine
10
-171.30624999999995
20
43.75575000000012
30
0
11
-171.30625000000006
21
56.255750000000063
31
0
0
ARC
5
12D
100
AcDbEntity
8
CUTOUTS
100
AcDbCircle
10
-170.55625000000003
20
56.255750000000063
30
0
40
0.75000000000002842
210
0
220
-0
230
1
100
AcDbArc
50
90
51
180
0
LINE
5
12E
100
AcDbEntity
8
CUTOUTS
100
AcDbLine
10
-170.55625000000003
20
57.005750000000091
30
0
11
-158.05625000000003
21
57.00575000000012
31
0
0
ARC
5
12F
100
AcDbEntity
8
CUTOUTS
100
AcDbCircle
10
-158.05625000000003
20
56.255750000000063
30
0
40
0.74999999999999289
210
0
220
-0
230
1
100
AcDbArc
50
0
51
90
0
LINE
5
130
100
AcDbEntity
8
CUTOUTS
100
AcDbLine
10
-8.6312500000000369
20
57.005750000000063
30
0
11
3.8687499999999631
21
57.00575000000002
31
0
0
ARC
5
131
100
AcDbEntity
8
CUTOUTS
100
AcDbCircle
10
3.8687499999999631
20
56.255750000000063
30
0
40
0.74999999999995737
210
-0
220
0
230
1
100
AcDbArc
50
0
51
90
0
LINE
5
132
100
AcDbEntity
8
CUTOUTS
100
AcDbLine
10
4.6187499999999204
20
56.255750000000063
30
0
11
4.6187499999999559
21
43.755750000000113
31
0
0
ARC
5
133
100
AcDbEntity
8
CUTOUTS
100
AcDbCircle
10
3.8687499999999631
20
43.755750000000106
30
0
40
0.74999999999999289
210
-0
220
0
230
1
100
AcDbArc
50
-90
51
0
0
LINE
5
134
100
AcDbEntity
8
CUTOUTS
100
AcDbLine
10
3.8687499999999631
20
43.005750000000106
30
0
11
-8.6312500000000369
21
43.005750000000035
31
0
0
ARC
5
135
100
AcDbEntity
8
CUTOUTS
100
AcDbCircle
10
-8.6312500000000369
20
43.755750000000113
30
0
40
0.75000000000009948
210
0
220
0
230
1
100
AcDbArc
50
180
51
270
0
LINE
5
136
100
AcDbEntity
8
CUTOUTS
100
AcDbLine
10
-9.3812500000001364
20
43.755750000000113
30
0
11
-9.3812500000000298
21
56.255750000000063
31
0
0
ARC
5
137
100
AcDbEntity
8
CUTOUTS
100
AcDbCircle
10
-8.6312500000000369
20
56.255750000000063
30
0
40
0.74999999999999289
210
0
220
-0
230
1
100
AcDbArc
50
90
51
180
0
LINE
5
138
100
AcDbEntity
8
CUTOUTS
100
AcDbLine
10
-33.481250000000031
20
56.255750000000063
30
0
11
-33.481250000000031
21
43.755750000000113
31
0
0
ARC
5
139
100
AcDbEntity
8
CUTOUTS
100
AcDbCircle
10
-34.231250000000024
20
43.755750000000113
30
0
40
0.74999999999999289
210
-0
220
0
230
1
100
AcDbArc
50
-90
51
0
0
LINE
5
13A
100
AcDbEntity
8
CUTOUTS
100
AcDbLine
10
-34.231250000000024
20
43.00575000000012
30
0
11
-46.731250000000024
21
43.005750000000148
31
0
0
ARC
5
13B
100
AcDbEntity
8
CUTOUTS
100
AcDbCircle
10
-46.731250000000024
20
43.755750000000113
30
0
40
0.74999999999995737
210
0
220
0
230
1
100
AcDbArc
50
180
51
270
0
LINE
5
13C
100
AcDbEntity
8
CUTOUTS
100
AcDbLine
10
-47.481249999999982
20
43.755750000000113
30
0
11
-47.481250000000017
21
56.255750000000063
31
0
0
ARC
5
13D
100
AcDbEntity
8
CUTOUTS
100
AcDbCircle
10
-46.731250000000024
20
56.255750000000063
30
0
40
0.74999999999999289
210
0
220
-0
230
1
100
AcDbArc
50
90
51
180
0
LINE
5
13E
100
AcDbEntity
8
CUTOUTS
100
AcDbLine
10
-46.731250000000024
20
57.005750000000063
30
0
11
-34.231250000000024
21
57.00575000000012
31
0
0
ARC
5
13F
100
AcDbEntity
8
CUTOUTS
100
AcDbCircle
10
-34.231250000000024
20
56.255750000000063
30
0
40
0.74999999999999289
210
0
220
-0
230
1
100
AcDbArc
50
0
51
90
0
ARC
5
140
100
AcDbEntity
8
CUTOUTS
100
AcDbCircle
10
151.50624999999994
20
43.755750000000106
30
0
40
0.74999999999999289
210
-0
220
0
230
1
100
AcDbArc
50
-90
51
0
0
LINE
5
141
100
AcDbEntity
8
CUTOUTS
100
AcDbLine
10
152.25625000000011
20
56.255750000000162
30
0
11
152.25624999999997
21
43.755750000000113
31
0
0
ARC
5
142
100
AcDbEntity
8
CUTOUTS
100
AcDbCircle
10
151.50624999999994
20
56.255750000000162
30
0
40
0.75000000000017053
210
-0
220
0
230
1
100
AcDbArc
50
0
51
90
0
LINE
5
143
100
AcDbEntity
8
CUTOUTS
100
AcDbLine
10
139.00624999999994
20
57.005750000000091
30
0
11
151.50624999999994
21
57.005750000000333
31
0
0
ARC
5
144
100
AcDbEntity
8
CUTOUTS
100
AcDbCircle
10
139.00624999999994
20
56.255750000000063
30
0
40
0.75000000000002842
210
0
220
-0
230
1
100
AcDbArc
50
90
51
180
0
LINE
5
145
100
AcDbEntity
8
CUTOUTS
100
AcDbLine
10
138.25624999999999
20
43.755750000000106
30
0
11
138.25624999999991
21
56.255750000000162
31
0
0
ARC
5
146
100
AcDbEntity
8
CUTOUTS
100
AcDbCircle
10
139.00624999999994
20
43.755750000000106
30
0
40
0.74999999999995737
210
0
220
0
230
1
100
AcDbArc
50
180
51
270
0
LINE
5
147
100
AcDbEntity
8
CUTOUTS
100
AcDbLine
10
151.50624999999994
20
43.005750000000106
30
0
11
139.00624999999994
21
43.005750000000148
31
0
0
LINE
5
148
100
AcDbEntity
8
CUTOUTS
100
AcDbLine
10
-28.43124999999997
20
43.755750000000113
30
0
11
-28.431250000000006
21
56.255750000000063
31
0
0
ARC
5
149
100
AcDbEntity
8
CUTOUTS
100
AcDbCircle
10
-27.681250000000013
20
56.255750000000063
30
0
40
0.74999999999999289
210
0
220
-0
230
1
100
AcDbArc
50
90
51
180
0
LINE
5
14A
100
AcDbEntity
8
CUTOUTS
100
AcDbLine
10
-27.681250000000013
20
57.005750000000063
30
0
11
-15.181250000000013
21
57.00575000000012
31
0
0
ARC
5
14B
100
AcDbEntity
8
CUTOUTS
100
AcDbCircle
10
-15.181250000000013
20
56.255750000000063
30
0
40
0.75000000000002842
210
0
220
-0
230
1
100
AcDbArc
50
0
51
90
0
LINE
5
14C
100
AcDbEntity
8
CUTOUTS
100
AcDbLine
10
-14.431249999999984
20
56.255750000000063
30
0
11
-14.43125000000002
21
43.755750000000113
31
0
0
ARC
5
14D
100
AcDbEntity
8
CUTOUTS
100
AcDbCircle
10
-15.181250000000013
20
43.755750000000113
30
0
40
0.74999999999999289
210
-0
220
0
230
1
100
AcDbArc
50
-90
51
0
0
LINE
5
14E
100
AcDbEntity
8
CUTOUTS
100
AcDbLine
10
-15.181250000000013
20
43.00575000000012
30
0
11
-27.681250000000013
21
43.005750000000148
31
0
0
ARC
5
14F
100
AcDbEntity
8
CUTOUTS
100
AcDbCircle
10
-27.681250000000013
20
43.755750000000113
30
0
40
0.74999999999995737
210
0
220
0
230
1
100
AcDbArc
50
180
51
270
0
LINE
5
150
100
AcDbEntity
8
CUTOUTS
100
AcDbLine
10
109.39375000000015
20
56.255750000000063
30
0
11
109.39375000000001
21
43.755750000000113
31
0
0
ARC
5
151
100
AcDbEntity
8
CUTOUTS
100
AcDbCircle
10
108.64374999999998
20
43.755750000000113
30
0
40
0.74999999999999289
210
-0
220
0
230
1
100
AcDbArc
50
-90
51
0
0
LINE
5
152
100
AcDbEntity
8
CUTOUTS
100
AcDbLine
10
108.64374999999998
20
43.00575000000012
30
0
11
96.143749999999983
21
43.005750000000148
31
0
0
ARC
5
153
100
AcDbEntity
8
CUTOUTS
100
AcDbCircle
10
96.143749999999983
20
43.755750000000106
30
0
40
0.75000000000002842
210
0
220
0
230
1
100
AcDbArc
50
180
51
270
0
LINE
5
154
100
AcDbEntity
8
CUTOUTS
100
AcDbLine
10
95.393749999999955
20
43.755750000000106
30
0
11
95.393749999999997
21
56.255750000000162
31
0
0
ARC
5
155
100
AcDbEntity
8
CUTOUTS
100
AcDbCircle
10
96.143749999999983
20
56.255750000000162
30
0
40
0.74999999999999289
210
0
220
-0
230
1
100
AcDbArc
50
90
51
180
0
LINE
5
156
100
AcDbEntity
8
CUTOUTS
100
AcDbLine
10
96.143749999999983
20
57.005750000000155
30
0
11
108.64374999999998
21
57.005750000000319
31
0
0
ARC
5
157
100
AcDbEntity
8
CUTOUTS
100
AcDbCircle
10
108.64374999999998
20
56.255750000000162
30
0
40
0.75000000000017053
210
-0
220
0
230
1
100
AcDbArc
50
0
51
90
0
LINE
5
158
100
AcDbEntity
8
CUTOUTS
100
AcDbLine
10
133.20625000000004
20
56.255750000000162
30
0
11
133.20625000000001
21
43.755750000000113
31
0
0
ARC
5
159
100
AcDbEntity
8
CUTOUTS
100
AcDbCircle
10
132.45625000000001
20
43.755750000000113
30
0
40
0.74999999999999289
210
-0
220
0
230
1
100
AcDbArc
50
-90
51
0
0
LINE
5
15A
100
AcDbEntity
8
CUTOUTS
100
AcDbLine
10
132.45625000000001
20
43.00575000000012
30
0
11
119.95625000000001
21
43.005750000000361
31
0
0
ARC
5
15B
100
AcDbEntity
8
CUTOUTS
100
AcDbCircle
10
119.95625000000001
20
43.755750000000113
30
0
40
0.74999999999981526
210
0
220
0
230
1
100
AcDbArc
50
180
51
270
0
LINE
5
15C
100
AcDbEntity
8
CUTOUTS
100
AcDbLine
10
119.20625000000018
20
43.755750000000113
30
0
11
119.20624999999998
21
56.255750000000063
31
0
0
ARC
5
15D
100
AcDbEntity
8
CUTOUTS
100
AcDbCircle
10
119.95625000000001
20
56.255750000000063
30
0
40
0.75000000000002842
210
0
220
-0
230
1
100
AcDbArc
50
90
51
180
0
LINE
5
15E
100
AcDbEntity
8
CUTOUTS
100
AcDbLine
10
119.95625000000001
20
57.005750000000091
30
0
11
132.45625000000001
21
57.00575000000012
31
0
0
ARC
5
15F
100
AcDbEntity
8
CUTOUTS
100
AcDbCircle
10
132.45625000000001
20
56.255750000000063
30
0
40
0.75000000000002842
210
0
220
-0
230
1
100
AcDbArc
50
0
51
90.000000000002174
0
LINE
5
160
100
AcDbEntity
8
CUTOUTS
100
AcDbLine
10
170.55624999999995
20
43.00575000000012
30
0
11
158.05624999999995
21
43.005750000000241
31
0
0
ARC
5
161
100
AcDbEntity
8
CUTOUTS
100
AcDbCircle
10
158.05624999999995
20
43.755750000000106
30
0
40
0.74999999999988631
210
0
220
0
230
1
100
AcDbArc
50
180
51
270
0
LINE
5
162
100
AcDbEntity
8
CUTOUTS
100
AcDbLine
10
157.30625000000006
20
43.755750000000113
30
0
11
157.30624999999992
21
56.255750000000162
31
0
0
ARC
5
163
100
AcDbEntity
8
CUTOUTS
100
AcDbCircle
10
158.05624999999995
20
56.255750000000063
30
0
40
0.75000000000002842
210
0
220
-0
230
1
100
AcDbArc
50
90
51
180
0
LINE
5
164
100
AcDbEntity
8
CUTOUTS
100
AcDbLine
10
158.05624999999995
20
57.005750000000091
30
0
11
170.55624999999995
21
57.00575000000012
31
0
0
ARC
5
165
100
AcDbEntity
8
CUTOUTS
100
AcDbCircle
10
170.55624999999995
20
56.255750000000162
30
0
40
0.74999999999988631
210
-0
220
0
230
1
100
AcDbArc
50
0
51
90
0
LINE
5
166
100
AcDbEntity
8
CUTOUTS
100
AcDbLine
10
171.30624999999984
20
56.255750000000063
30
0
11
171.30624999999998
21
43.755750000000113
31
0
0
ARC
5
167
100
AcDbEntity
8
CUTOUTS
100
AcDbCircle
10
170.55624999999995
20
43.755750000000113
30
0
40
0.74999999999999289
210
-0
220
0
230
1
100
AcDbArc
50
-90
51
0
0
LINE
5
168
100
AcDbEntity
8
CUTOUTS
100
AcDbLine
10
116.00324999999998
20
45.005750000000127
30
0
11
112.59674999999999
21
45.005750000000134
31
0
0
ARC
5
169
100
AcDbEntity
8
CUTOUTS
100
AcDbCircle
10
112.59674999999999
20
45.755750000000134
30
0
40
0.74999999999999289
210
0
220
0
230
1
100
AcDbArc
50
180
51
270
0
LINE
5
16A
100
AcDbEntity
8
CUTOUTS
100
AcDbLine
10
111.84674999999999
20
45.755750000000141
30
0
11
111.84674999999999
21
56.255750000000063
31
0
0
ARC
5
16B
100
AcDbEntity
8
CUTOUTS
100
AcDbCircle
10
112.59674999999999
20
56.255750000000162
30
0
40
0.74999999999999289
210
0
220
-0
230
1
100
AcDbArc
50
90
51
180
0
LINE
5
16C
100
AcDbEntity
8
CUTOUTS
100
AcDbLine
10
112.59674999999999
20
57.005750000000155
30
0
11
116.00324999999998
21
57.005750000000155
31
0
0
ARC
5
16D
100
AcDbEntity
8
CUTOUTS
100
AcDbCircle
10
116.00324999999998
20
56.255750000000162
30
0
40
0.74999999999999289
210
-0
220
0
230
1
100
AcDbArc
50
0
51
90
0
LINE
5
16E
100
AcDbEntity
8
CUTOUTS
100
AcDbLine
10
116.75324999999998
20
56.255750000000063
30
0
11
116.75324999999998
21
45.755750000000141
31
0
0
ARC
5
16F
100
AcDbEntity
8
CUTOUTS
100
AcDbCircle
10
116.00324999999998
20
45.755750000000134
30
0
40
0.74999999999999289
210
-0
220
0
230
1
100
AcDbArc
50
-90
51
0
0
ARC
5
170
100
AcDbEntity
8
CUTOUTS
100
AcDbCircle
10
-146.74375000000023
20
56.255750000000056
30
0
40
0.75000000000000178
210
0
220
-0
230
1
100
AcDbArc
50
90
51
180
0
LINE
5
171
100
AcDbEntity
8
CUTOUTS
100
AcDbLine
10
-147.49375000000023
20
43.755750000000113
30
0
11
-147.49375000000023
21
56.255750000000063
31
0
0
ARC
5
172
100
AcDbEntity
8
CUTOUTS
100
AcDbCircle
10
-146.74375000000023
20
43.755750000000106
30
0
40
0.74999999999999289
210
0
220
0
230
1
100
AcDbArc
50
180
51
270.0000000000021
0
LINE
5
173
100
AcDbEntity
8
CUTOUTS
100
AcDbLine
10
-134.24375000000023
20
43.005750000000099
30
0
11
-146.74375000000023
21
43.005750000000099
31
0
0
ARC
5
174
100
AcDbEntity
8
CUTOUTS
100
AcDbCircle
10
-134.24375000000023
20
43.755750000000106
30
0
40
0.75000000000000178
210
-0
220
0
230
1
100
AcDbArc
50
-90
51
0
0
LINE
5
175
100
AcDbEntity
8
CUTOUTS
100
AcDbLine
10
-133.49375000000023
20
56.255750000000063
30
0
11
-133.49375000000023
21
43.755750000000113
31
0
0
ARC
5
176
100
AcDbEntity
8
CUTOUTS
100
AcDbCircle
10
-134.24375000000023
20
56.255750000000056
30
0
40
0.74999999999999289
210
0
220
-0
230
1
100
AcDbArc
50
0
51
90
0
LINE
5
177
100
AcDbEntity
8
CUTOUTS
100
AcDbLine
10
-146.74375000000023
20
57.005750000000063
30
0
11
-134.24375000000023
21
57.005750000000049
31
0
0
LINE
5
178
100
AcDbEntity
8
CUTOUTS
100
AcDbLine
10
72.331250000000011
20
57.005750000000155
30
0
11
84.831250000000011
21
57.005750000000148
31
0
0
ARC
5
179
100
AcDbEntity
8
CUTOUTS
100
AcDbCircle
10
84.831250000000011
20
56.255750000000155
30
0
40
0.74999999999999289
210
0
220
-0
230
1
100
AcDbArc
50
0
51
90
0
LINE
5
17A
100
AcDbEntity
8
CUTOUTS
100
AcDbLine
10
85.581250000000011
20
56.255750000000162
30
0
11
85.581250000000011
21
43.755750000000205
31
0
0
ARC
5
17B
100
AcDbEntity
8
CUTOUTS
100
AcDbCircle
10
84.831250000000011
20
43.755750000000198
30
0
40
0.75000000000000178
210
-0
220
0
230
1
100
AcDbArc
50
-90
51
0
0
LINE
5
17C
100
AcDbEntity
8
CUTOUTS
100
AcDbLine
10
84.831250000000011
20
43.005750000000198
30
0
11
72.331250000000011
21
43.005750000000205
31
0
0
ARC
5
17D
100
AcDbEntity
8
CUTOUTS
100
AcDbCircle
10
72.331250000000011
20
43.755750000000198
30
0
40
0.74999999999999289
210
0
220
0
230
1
100
AcDbArc
50
180
51
270
0
LINE
5
17E
100
AcDbEntity
8
CUTOUTS
100
AcDbLine
10
71.581250000000011
20
43.755750000000205
30
0
11
71.581250000000011
21
56.255750000000162
31
0
0
ARC
5
17F
100
AcDbEntity
8
CUTOUTS
100
AcDbCircle
10
72.331250000000011
20
56.255750000000155
30
0
40
0.75000000000000178
210
0
220
-0
230
1
100
AcDbArc
50
90
51
180
0
ARC
5
180
100
AcDbEntity
8
CUTOUTS
100
AcDbCircle
10
-65.781250000000028
20
43.755750000000106
30
0
40
0.74999999999999289
210
0
220
0
230
1
100
AcDbArc
50
180
51
270
0
LINE
5
181
100
AcDbEntity
8
CUTOUTS
100
AcDbLine
10
-53.281250000000014
20
43.005750000000099
30
0
11
-65.781250000000028
21
43.005750000000106
31
0
0
ARC
5
182
100
AcDbEntity
8
CUTOUTS
100
AcDbCircle
10
-53.281250000000014
20
43.755750000000106
30
0
40
0.75000000000000178
210
-0
220
0
230
1
100
AcDbArc
50
-90
51
0
0
LINE
5
183
100
AcDbEntity
8
CUTOUTS
100
AcDbLine
10
-52.531250000000007
20
56.255750000000162
30
0
11
-52.531250000000007
21
43.755750000000113
31
0
0
ARC
5
184
100
AcDbEntity
8
CUTOUTS
100
AcDbCircle
10
-53.281250000000014
20
56.255750000000155
30
0
40
0.75000000000001066
210
0
220
-0
230
1
100
AcDbArc
50
0
51
89.99999999999946
0
LINE
5
185
100
AcDbEntity
8
CUTOUTS
100
AcDbLine
10
-65.781250000000028
20
57.005750000000155
30
0
11
-53.281250000000014
21
57.005750000000162
31
0
0
ARC
5
186
100
AcDbEntity
8
CUTOUTS
100
AcDbCircle
10
-65.781250000000028
20
56.255750000000155
30
0
40
0.75000000000000178
210
0
220
-0
230
1
100
AcDbArc
50
90
51
180
0
LINE
5
187
100
AcDbEntity
8
CUTOUTS
100
AcDbLine
10
-66.531250000000028
20
43.755750000000113
30
0
11
-66.531250000000028
21
56.255750000000162
31
0
0
ARC
5
188
100
AcDbEntity
8
CUTOUTS
100
AcDbCircle
10
53.28125
20
56.255750000000155
30
0
40
0.75000000000000178
210
0
220
-0
230
1
100
AcDbArc
50
90
51
180
0
LINE
5
189
100
AcDbEntity
8
CUTOUTS
100
AcDbLine
10
52.531250000000007
20
43.755750000000205
30
0
11
52.531250000000007
21
56.255750000000162
31
0
0
ARC
5
18A
100
AcDbEntity
8
CUTOUTS
100
AcDbCircle
10
53.28125
20
43.755750000000198
30
0
40
0.74999999999999289
210
0
220
0
230
1
100
AcDbArc
50
180
51
270
0
LINE
5
18B
100
AcDbEntity
8
CUTOUTS
100
AcDbLine
10
65.78125
20
43.005750000000198
30
0
11
53.28125
21
43.005750000000205
31
0
0
ARC
5
18C
100
AcDbEntity
8
CUTOUTS
100
AcDbCircle
10
65.78125
20
43.755750000000198
30
0
40
0.75000000000000178
210
-0
220
0
230
1
100
AcDbArc
50
-90
51
0
0
LINE
5
18D
100
AcDbEntity
8
CUTOUTS
100
AcDbLine
10
66.53125
20
56.255750000000162
30
0
11
66.53125
21
43.755750000000205
31
0
0
ARC
5
18E
100
AcDbEntity
8
CUTOUTS
100
AcDbCircle
10
65.78125
20
56.255750000000155
30
0
40
0.74999999999999289
210
0
220
-0
230
1
100
AcDbArc
50
0
51
89.99999999999892
0
LINE
5
18F
100
AcDbEntity
8
CUTOUTS
100
AcDbLine
10
53.28125
20
57.005750000000155
30
0
11
65.78125
21
57.005750000000148
31
0
0
ARC
5
190
100
AcDbEntity
8
CUTOUTS
100
AcDbCircle
10
-115.19375000000022
20
56.255750000000155
30
0
40
0.74999999999999289
210
-0
220
0
230
1
100
AcDbArc
50
0
51
90
0
LINE
5
191
100
AcDbEntity
8
CUTOUTS
100
AcDbLine
10
-127.69375000000024
20
57.005750000000155
30
0
11
-115.19375000000022
21
57.005750000000155
31
0
0
ARC
5
192
100
AcDbEntity
8
CUTOUTS
100
AcDbCircle
10
-127.69375000000024
20
56.255750000000155
30
0
40
0.75000000000000178
210
0
220
-0
230
1
100
AcDbArc
50
90
51
180
0
LINE
5
193
100
AcDbEntity
8
CUTOUTS
100
AcDbLine
10
-128.44375000000025
20
43.755750000000113
30
0
11
-128.44375000000025
21
56.255750000000063
31
0
0
ARC
5
194
100
AcDbEntity
8
CUTOUTS
100
AcDbCircle
10
-127.69375000000024
20
43.755750000000106
30
0
40
0.75000000000001066
210
0
220
0
230
1
100
AcDbArc
50
180
51
270
0
LINE
5
195
100
AcDbEntity
8
CUTOUTS
100
AcDbLine
10
-115.19375000000022
20
43.005750000000099
30
0
11
-127.69375000000022
21
43.005750000000099
31
0
0
ARC
5
196
100
AcDbEntity
8
CUTOUTS
100
AcDbCircle
10
-115.19375000000022
20
43.755750000000106
30
0
40
0.75000000000000178
210
-0
220
0
230
1
100
AcDbArc
50
-90
51
0
0
LINE
5
197
100
AcDbEntity
8
CUTOUTS
100
AcDbLine
10
-114.44375000000022
20
56.255750000000063
30
0
11
-114.44375000000022
21
43.755750000000113
31
0
0
LINE
5
198
100
AcDbEntity
8
CUTOUTS
100
AcDbLine
10
-89.593750000000227
20
57.005750000000155
30
0
11
-77.093750000000028
21
57.005750000000162
31
0
0
ARC
5
199
100
AcDbEntity
8
CUTOUTS
100
AcDbCircle
10
-77.093750000000028
20
56.255750000000155
30
0
40
0.75000000000001066
210
0
220
-0
230
1
100
AcDbArc
50
0
51
90
0
LINE
5
19A
100
AcDbEntity
8
CUTOUTS
100
AcDbLine
10
-76.343750000000028
20
56.255750000000162
30
0
11
-76.343750000000028
21
43.755750000000113
31
0
0
ARC
5
19B
100
AcDbEntity
8
CUTOUTS
100
AcDbCircle
10
-77.093750000000028
20
43.755750000000106
30
0
40
0.75000000000000178
210
-0
220
0
230
1
100
AcDbArc
50
-90
51
0
0
LINE
5
19C
100
AcDbEntity
8
CUTOUTS
100
AcDbLine
10
-77.093750000000028
20
43.005750000000099
30
0
11
-89.593750000000227
21
43.005750000000106
31
0
0
ARC
5
19D
100
AcDbEntity
8
CUTOUTS
100
AcDbCircle
10
-89.593750000000227
20
43.755750000000106
30
0
40
0.74999999999999289
210
0
220
0
230
1
100
AcDbArc
50
180
51
270.00000000000108
0
LINE
5
19E
100
AcDbEntity
8
CUTOUTS
100
AcDbLine
10
-90.343750000000227
20
43.755750000000113
30
0
11
-90.343750000000227
21
56.255750000000162
31
0
0
ARC
5
19F
100
AcDbEntity
8
CUTOUTS
100
AcDbCircle
10
-89.593750000000227
20
56.255750000000155
30
0
40
0.75000000000000178
210
0
220
-0
230
1
100
AcDbArc
50
90
51
180
0
ARC
5
1A0
100
AcDbEntity
8
CUTOUTS
100
AcDbCircle
10
15.181249999999977
20
56.255750000000155
30
0
40
0.75000000000000178
210
0
220
-0
230
1
100
AcDbArc
50
90
51
180
0
LINE
5
1A1
100
AcDbEntity
8
CUTOUTS
100
AcDbLine
10
14.431249999999984
20
43.755750000000205
30
0
11
14.431249999999984
21
56.255750000000162
31
0
0
ARC
5
1A2
100
AcDbEntity
8
CUTOUTS
100
AcDbCircle
10
15.181249999999977
20
43.755750000000198
30
0
40
0.74999999999999289
210
0
220
0
230
1
100
AcDbArc
50
180
51
270
0
LINE
5
1A3
100
AcDbEntity
8
CUTOUTS
100
AcDbLine
10
27.681249999999977
20
43.005750000000198
30
0
11
15.181249999999977
21
43.005750000000205
31
0
0
ARC
5
1A4
100
AcDbEntity
8
CUTOUTS
100
AcDbCircle
10
27.681249999999977
20
43.755750000000198
30
0
40
0.75000000000000178
210
-0
220
0
230
1
100
AcDbArc
50
-90
51
0
0
LINE
5
1A5
100
AcDbEntity
8
CUTOUTS
100
AcDbLine
10
28.43124999999997
20
56.255750000000162
30
0
11
28.43124999999997
21
43.755750000000205
31
0
0
ARC
5
1A6
100
AcDbEntity
8
CUTOUTS
100
AcDbCircle
10
27.681249999999977
20
56.255750000000155
30
0
40
0.74999999999999289
210
0
220
-0
230
1
100
AcDbArc
50
0
51
89.99999999999973
0
LINE
5
1A7
100
AcDbEntity
8
CUTOUTS
100
AcDbLine
10
15.181249999999977
20
57.005750000000155
30
0
11
27.681249999999977
21
57.005750000000148
31
0
0
ARC
5
1A8
100
AcDbEntity
8
CUTOUTS
100
AcDbCircle
10
34.231249999999989
20
56.255750000000155
30
0
40
0.75000000000000178
210
0
220
-0
230
1
100
AcDbArc
50
90
51
180
0
LINE
5
1A9
100
AcDbEntity
8
CUTOUTS
100
AcDbLine
10
33.481249999999996
20
43.755750000000205
30
0
11
33.481249999999996
21
56.255750000000162
31
0
0
ARC
5
1AA
100
AcDbEntity
8
CUTOUTS
100
AcDbCircle
10
34.231249999999989
20
43.755750000000198
30
0
40
0.74999999999999289
210
0
220
0
230
1
100
AcDbArc
50
180
51
270
0
LINE
5
1AB
100
AcDbEntity
8
CUTOUTS
100
AcDbLine
10
46.731249999999989
20
43.005750000000198
30
0
11
34.231249999999989
21
43.005750000000205
31
0
0
ARC
5
1AC
100
AcDbEntity
8
CUTOUTS
100
AcDbCircle
10
46.731249999999989
20
43.755750000000198
30
0
40
0.75000000000000178
210
-0
220
0
230
1
100
AcDbArc
50
-90
51
0
0
LINE
5
1AD
100
AcDbEntity
8
CUTOUTS
100
AcDbLine
10
47.481249999999982
20
56.255750000000162
30
0
11
47.481249999999982
21
43.755750000000205
31
0
0
ARC
5
1AE
100
AcDbEntity
8
CUTOUTS
100
AcDbCircle
10
46.731249999999989
20
56.255750000000155
30
0
40
0.74999999999999289
210
0
220
-0
230
1
100
AcDbArc
50
0
51
89.99999999999946
0
LINE
5
1AF
100
AcDbEntity
8
CUTOUTS
100
AcDbLine
10
34.231249999999989
20
57.005750000000155
30
0
11
46.731249999999989
21
57.005750000000148
31
0
0
ARC
5
1B0
100
AcDbEntity
8
CUTOUTS
100
AcDbCircle
10
-108.64375000000024
20
56.255750000000155
30
0
40
0.75000000000000178
210
0
220
-0
230
1
100
AcDbArc
50
90
51
180
0
LINE
5
1B1
100
AcDbEntity
8
CUTOUTS
100
AcDbLine
10
-109.39375000000024
20
43.755750000000113
30
0
11
-109.39375000000024
21
56.255750000000162
31
0
0
ARC
5
1B2
100
AcDbEntity
8
CUTOUTS
100
AcDbCircle
10
-108.64375000000024
20
43.755750000000106
30
0
40
0.74999999999999289
210
0
220
0
230
1
100
AcDbArc
50
180
51
270.00000000000108
0
LINE
5
1B3
100
AcDbEntity
8
CUTOUTS
100
AcDbLine
10
-96.143750000000225
20
43.005750000000099
30
0
11
-108.64375000000024
21
43.005750000000099
31
0
0
ARC
5
1B4
100
AcDbEntity
8
CUTOUTS
100
AcDbCircle
10
-96.143750000000225
20
43.755750000000106
30
0
40
0.75000000000000178
210
-0
220
0
230
1
100
AcDbArc
50
-90
51
0
0
LINE
5
1B5
100
AcDbEntity
8
CUTOUTS
100
AcDbLine
10
-95.393750000000225
20
56.255750000000063
30
0
11
-95.39375000000021
21
43.755750000000113
31
0
0
ARC
5
1B6
100
AcDbEntity
8
CUTOUTS
100
AcDbCircle
10
-96.143750000000225
20
56.255750000000155
30
0
40
0.74999999999999289
210
-0
220
0
230
1
100
AcDbArc
50
0
51
90
0
LINE
5
1B7
100
AcDbEntity
8
CUTOUTS
100
AcDbLine
10
-108.64375000000024
20
57.005750000000155
30
0
11
-96.143750000000239
21
57.005750000000148
31
0
0
LINE
5
1B8
100
AcDbEntity
8
CUTOUTS
100
AcDbLine
10
-150.69650000000001
20
45.005750000000177
30
0
11
-154.10300000000004
21
45.005750000000127
31
0
0
ARC
5
1B9
100
AcDbEntity
8
CUTOUTS
100
AcDbCircle
10
-154.10300000000004
20
45.755750000000134
30
0
40
0.74999999999999289
210
0
220
0
230
1
100
AcDbArc
50
180
51
270.0000000000021
0
LINE
5
1BA
100
AcDbEntity
8
CUTOUTS
100
AcDbLine
10
-154.85300000000001
20
45.755750000000134
30
0
11
-154.85300000000001
21
56.255750000000155
31
0
0
ARC
5
1BB
100
AcDbEntity
8
CUTOUTS
100
AcDbCircle
10
-154.10300000000004
20
56.255750000000155
30
0
40
0.75000000000000178
210
0
220
-0
230
1
100
AcDbArc
50
90
51
180
0
LINE
5
1BC
100
AcDbEntity
8
CUTOUTS
100
AcDbLine
10
-154.10300000000004
20
57.005750000000148
30
0
11
-150.69650000000001
21
57.005750000000141
31
0
0
ARC
5
1BD
100
AcDbEntity
8
CUTOUTS
100
AcDbCircle
10
-150.69650000000001
20
56.255750000000155
30
0
40
0.74999999999999289
210
0
220
-0
230
1
100
AcDbArc
50
0
51
90
0
LINE
5
1BE
100
AcDbEntity
8
CUTOUTS
100
AcDbLine
10
-149.94650000000004
20
56.255750000000162
30
0
11
-149.94650000000007
21
45.755750000000141
31
0
0
ARC
5
1BF
100
AcDbEntity
8
CUTOUTS
100
AcDbCircle
10
-150.69650000000001
20
45.755750000000134
30
0
40
0.74999999999994849
210
-0
220
0
230
1
100
AcDbArc
50
-90
51
0
0
ARC
5
1C0
100
AcDbEntity
8
CUTOUTS
100
AcDbCircle
10
88.78449999999998
20
45.755750000000134
30
0
40
0.74999999999999289
210
0
220
0
230
1
100
AcDbArc
50
180
51
270
0
LINE
5
1C1
100
AcDbEntity
8
CUTOUTS
100
AcDbLine
10
92.190999999999974
20
45.005750000000127
30
0
11
88.78449999999998
21
45.005750000000134
31
0
0
ARC
5
1C2
100
AcDbEntity
8
CUTOUTS
100
AcDbCircle
10
92.190999999999974
20
45.755750000000134
30
0
40
0.74999999999999289
210
-0
220
0
230
1
100
AcDbArc
50
-90
51
0
0
LINE
5
1C3
100
AcDbEntity
8
CUTOUTS
100
AcDbLine
10
92.940999999999974
20
56.255750000000063
30
0
11
92.940999999999974
21
45.755750000000141
31
0
0
ARC
5
1C4
100
AcDbEntity
8
CUTOUTS
100
AcDbCircle
10
92.190999999999974
20
56.255750000000162
30
0
40
0.74999999999999289
210
-0
220
0
230
1
100
AcDbArc
50
0
51
90
0
LINE
5
1C5
100
AcDbEntity
8
CUTOUTS
100
AcDbLine
10
88.78449999999998
20
57.005750000000162
30
0
11
92.190999999999974
21
57.005750000000155
31
0
0
ARC
5
1C6
100
AcDbEntity
8
CUTOUTS
100
AcDbCircle
10
88.78449999999998
20
56.255750000000162
30
0
40
0.75000000000000178
210
0
220
-0
230
1
100
AcDbArc
50
90
51
180
0
LINE
5
1C7
100
AcDbEntity
8
CUTOUTS
100
AcDbLine
10
88.03449999999998
20
45.755750000000141
30
0
11
88.03449999999998
21
56.255750000000063
31
0
0
ARC
5
1C8
100
AcDbEntity
8
CUTOUTS
100
AcDbCircle
10
-73.140500000000031
20
45.755750000000134
30
0
40
0.74999999999999289
210
0
220
0
230
1
100
AcDbArc
50
180
51
270
0
LINE
5
1C9
100
AcDbEntity
8
CUTOUTS
100
AcDbLine
10
-69.734000000000009
20
45.005750000000127
30
0
11
-73.140500000000031
21
45.005750000000134
31
0
0
ARC
5
1CA
100
AcDbEntity
8
CUTOUTS
100
AcDbCircle
10
-69.734000000000009
20
45.755750000000134
30
0
40
0.74999999999999289
210
-0
220
0
230
1
100
AcDbArc
50
-90
51
0
0
LINE
5
1CB
100
AcDbEntity
8
CUTOUTS
100
AcDbLine
10
-68.984000000000023
20
56.255750000000162
30
0
11
-68.984000000000023
21
45.755750000000141
31
0
0
ARC
5
1CC
100
AcDbEntity
8
CUTOUTS
100
AcDbCircle
10
-69.734000000000009
20
56.255750000000162
30
0
40
0.74999999999999289
210
0
220
-0
230
1
100
AcDbArc
50
0
51
90
0
LINE
5
1CD
100
AcDbEntity
8
CUTOUTS
100
AcDbLine
10
-73.140500000000031
20
57.005750000000162
30
0
11
-69.734000000000009
21
57.005750000000155
31
0
0
ARC
5
1CE
100
AcDbEntity
8
CUTOUTS
100
AcDbCircle
10
-73.140500000000031
20
56.255750000000162
30
0
40
0.75000000000000178
210
0
220
-0
230
1
100
AcDbArc
50
90
51
180
0
LINE
5
1CF
100
AcDbEntity
8
CUTOUTS
100
AcDbLine
10
-73.890500000000031
20
45.755750000000141
30
0
11
-73.890500000000031
21
56.255750000000162
31
0
0
ARC
5
1D0
100
AcDbEntity
8
CUTOUTS
100
AcDbCircle
10
11.228249999999989
20
56.255750000000155
30
0
40
0.74999999999999289
210
0
220
-0
230
1
100
AcDbArc
50
0
51
89.999999999999872
0
LINE
5
1D1
100
AcDbEntity
8
CUTOUTS
100
AcDbLine
10
7.8217499999999518
20
57.005750000000148
30
0
11
11.228249999999989
21
57.005750000000141
31
0
0
ARC
5
1D2
100
AcDbEntity
8
CUTOUTS
100
AcDbCircle
10
7.8217499999999518
20
56.255750000000155
30
0
40
0.75000000000000178
210
0
220
-0
230
1
100
AcDbArc
50
90
51
180
0
LINE
5
1D3
100
AcDbEntity
8
CUTOUTS
100
AcDbLine
10
7.0717499999999589
20
45.755750000000134
30
0
11
7.0717499999999589
21
56.255750000000155
31
0
0
ARC
5
1D4
100
AcDbEntity
8
CUTOUTS
100
AcDbCircle
10
7.8217499999999518
20
45.755750000000134
30
0
40
0.74999999999999289
210
0
220
0
230
1
100
AcDbArc
50
180
51
270
0
LINE
5
1D5
100
AcDbEntity
8
CUTOUTS
100
AcDbLine
10
11.228249999999989
20
45.005750000000084
30
0
11
7.8217499999999518
21
45.005750000000134
31
0
0
ARC
5
1D6
100
AcDbEntity
8
CUTOUTS
100
AcDbCircle
10
11.228249999999989
20
45.755750000000134
30
0
40
0.75000000000004619
210
-0
220
0
230
1
100
AcDbArc
50
-90
51
0
0
LINE
5
1D7
100
AcDbEntity
8
CUTOUTS
100
AcDbLine
10
11.978249999999981
20
56.255750000000162
30
0
11
11.978250000000052
21
45.755750000000141
31
0
0
ARC
5
1D8
100
AcDbEntity
8
CUTOUTS
100
AcDbCircle
10
77.093749999999972
20
32.443250000000106
30
0
40
0.74999999999999289
210
0
220
-0
230
1
100
AcDbArc
50
90
51
180
0
LINE
5
1D9
100
AcDbEntity
8
CUTOUTS
100
AcDbLine
10
77.093749999999972
20
33.193250000000099
30
0
11
108.64374999999998
21
33.193250000000099
31
0
0
ARC
5
1DA
100
AcDbEntity
8
CUTOUTS
100
AcDbCircle
10
108.64374999999998
20
32.443250000000106
30
0
40
0.74999999999999289
210
-0
220
0
230
1
100
AcDbArc
50
0
51
90
0
LINE
5
1DB
100
AcDbEntity
8
CUTOUTS
100
AcDbLine
10
109.39374999999998
20
32.443250000000077
30
0
11
109.39374999999998
21
19.943250000000088
31
0
0
ARC
5
1DC
100
AcDbEntity
8
CUTOUTS
100
AcDbCircle
10
108.64374999999998
20
19.943250000000148
30
0
40
0.74999999999999289
210
-0
220
0
230
1
100
AcDbArc
50
270
51
360
0
LINE
5
1DD
100
AcDbEntity
8
CUTOUTS
100
AcDbLine
10
108.64374999999998
20
19.193250000000155
30
0
11
108.30674999999997
21
19.193250000000077
31
0
0
LINE
5
1DE
100
AcDbEntity
8
CUTOUTS
100
AcDbLine
10
108.30674999999997
20
19.193250000000077
30
0
11
108.30674999999992
21
18.943250000000127
31
0
0
ARC
5
1DF
100
AcDbEntity
8
CUTOUTS
100
AcDbCircle
10
107.55674999999997
20
18.943250000000127
30
0
40
0.74999999999995737
210
-0
220
0
230
1
100
AcDbArc
50
-90
51
0
0
LINE
5
1E0
100
AcDbEntity
8
CUTOUTS
100
AcDbLine
10
107.55674999999997
20
18.19325000000017
30
0
11
102.05674999999997
21
18.19325000000017
31
0
0
ARC
5
1E1
100
AcDbEntity
8
CUTOUTS
100
AcDbCircle
10
102.05674999999997
20
18.943250000000127
30
0
40
0.74999999999995737
210
0
220
0
230
1
100
AcDbArc
50
180
51
270
0
LINE
5
1E2
100
AcDbEntity
8
CUTOUTS
100
AcDbLine
10
101.30674999999999
20
18.943250000000127
30
0
11
101.30674999999997
21
19.193250000000077
31
0
0
LINE
5
1E3
100
AcDbEntity
8
CUTOUTS
100
AcDbLine
10
101.30674999999997
20
19.193250000000077
30
0
11
84.430749999999961
21
19.193250000000077
31
0
0
LINE
5
1E4
100
AcDbEntity
8
CUTOUTS
100
AcDbLine
10
84.430749999999961
20
19.193250000000077
30
0
11
84.430749999999932
21
18.943250000000127
31
0
0
ARC
5
1E5
100
AcDbEntity
8
CUTOUTS
100
AcDbCircle
10
83.680749999999975
20
18.943250000000127
30
0
40
0.74999999999994849
210
-0
220
0
230
1
100
AcDbArc
50
-90
51
0
0
LINE
5
1E6
100
AcDbEntity
8
CUTOUTS
100
AcDbLine
10
83.680749999999975
20
18.193250000000177
30
0
11
78.180749999999961
21
18.19325000000017
31
0
0
ARC
5
1E7
100
AcDbEntity
8
CUTOUTS
100
AcDbCircle
10
78.180749999999961
20
18.94325000000034
30
0
40
0.75000000000017053
210
0
220
0
230
1
100
AcDbArc
50
180
51
270
0
LINE
5
1E8
100
AcDbEntity
8
CUTOUTS
100
AcDbLine
10
77.43074999999979
20
18.94325000000034
30
0
11
77.430749999999975
21
19.193250000000077
31
0
0
LINE
5
1E9
100
AcDbEntity
8
CUTOUTS
100
AcDbLine
10
77.430749999999975
20
19.193250000000077
30
0
11
77.093749999999972
21
19.193250000000155
31
0
0
ARC
5
1EA
100
AcDbEntity
8
CUTOUTS
100
AcDbCircle
10
77.093749999999972
20
19.943250000000148
30
0
40
0.74999999999999289
210
0
220
0
230
1
100
AcDbArc
50
180
51
270
0
LINE
5
1EB
100
AcDbEntity
8
CUTOUTS
100
AcDbLine
10
76.343749999999986
20
19.943250000000123
30
0
11
76.343749999999986
21
32.443250000000077
31
0
0
ARC
5
1EC
100
AcDbEntity
8
CUTOUTS
100
AcDbCircle
10
94.912999999999982
20
-25.706749999999943
30
0
40
0.75000000000008171
210
0
220
-0
230
1
100
AcDbArc
50
90
51
180
0
LINE
5
1ED
100
AcDbEntity
8
CUTOUTS
100
AcDbLine
10
94.162999999999755
20
-38.206749999999197
30
0
11
94.162999999999897
21
-25.706749999999943
31
0
0
ARC
5
1EE
100
AcDbEntity
8
CUTOUTS
100
AcDbCircle
10
94.912999999999982
20
-38.206749999999218
30
0
40
0.75000000000024158
210
0
220
0
230
1
100
AcDbArc
50
180
51
270
0
LINE
5
1EF
100
AcDbEntity
8
CUTOUTS
100
AcDbLine
10
100.413
20
-38.956750000000078
30
0
11
94.912999999999982
21
-38.95674999999946
31
0
0
ARC
5
1F0
100
AcDbEntity
8
CUTOUTS
100
AcDbCircle
10
100.413
20
-38.206750000000213
30
0
40
0.74999999999986855
210
-0
220
0
230
1
100
AcDbArc
50
-90
51
0
0
LINE
5
1F1
100
AcDbEntity
8
CUTOUTS
100
AcDbLine
10
101.16299999999998
20
-37.956750000000348
30
0
11
101.16299999999984
21
-38.206750000000213
31
0
0
LINE
5
1F2
100
AcDbEntity
8
CUTOUTS
100
AcDbLine
10
108.64374999999998
20
-37.956749999999779
30
0
11
101.16299999999998
21
-37.956750000000348
31
0
0
ARC
5
1F3
100
AcDbEntity
8
CUTOUTS
100
AcDbCircle
10
108.64374999999998
20
-37.206749999999801
30
0
40
0.74999999999997513
210
-0
220
0
230
1
100
AcDbArc
50
270
51
360
0
LINE
5
1F4
100
AcDbEntity
8
CUTOUTS
100
AcDbLine
10
109.39375000000001
20
-24.706749999999911
30
0
11
109.39374999999995
21
-37.206750000000071
31
0
0
ARC
5
1F5
100
AcDbEntity
8
CUTOUTS
100
AcDbCircle
10
108.64374999999998
20
-24.706749999999822
30
0
40
0.75000000000002842
210
-0
220
0
230
1
100
AcDbArc
50
0
51
90
0
LINE
5
1F6
100
AcDbEntity
8
CUTOUTS
100
AcDbLine
10
96.143749999999983
20
-23.956749999999847
30
0
11
108.64374999999998
21
-23.956749999999793
31
0
0
ARC
5
1F7
100
AcDbEntity
8
CUTOUTS
100
AcDbCircle
10
96.143749999999983
20
-24.706749999999822
30
0
40
0.74999999999997513
210
0
220
-0
230
1
100
AcDbArc
50
90
51
180
0
LINE
5
1F8
100
AcDbEntity
8
CUTOUTS
100
AcDbLine
10
95.393749999999997
20
-24.956749999999914
30
0
11
95.39375000000004
21
-24.706749999999875
31
0
0
LINE
5
1F9
100
AcDbEntity
8
CUTOUTS
100
AcDbLine
10
94.912999999999982
20
-24.956749999999861
30
0
11
95.393749999999997
21
-24.956749999999914
31
0
0
ARC
5
1FA
100
AcDbEntity
8
CUTOUTS
100
AcDbCircle
10
116.00374999999997
20
-58.256683207000549
30
0
40
0.74999999999999289
210
-0
220
0
230
1
100
AcDbArc
50
-90
51
0
0
LINE
5
1FB
100
AcDbEntity
8
CUTOUTS
100
AcDbLine
10
116.75374999999995
20
30.443250000000184
30
0
11
116.75374999999995
21
-58.256683207000549
31
0
0
ARC
5
1FC
100
AcDbEntity
8
CUTOUTS
100
AcDbCircle
10
116.00374999999997
20
30.443250000000166
30
0
40
0.74999999999999289
210
0
220
-0
230
1
100
AcDbArc
50
0
51
90
0
LINE
5
1FD
100
AcDbEntity
8
CUTOUTS
100
AcDbLine
10
112.59674999999999
20
31.19325000000017
30
0
11
116.00374999999997
21
31.193250000000162
31
0
0
ARC
5
1FE
100
AcDbEntity
8
CUTOUTS
100
AcDbCircle
10
112.59674999999999
20
30.443250000000166
30
0
40
0.74999999999999734
210
0
220
-0
230
1
100
AcDbArc
50
90
51
180
0
LINE
5
1FF
100
AcDbEntity
8
CUTOUTS
100
AcDbLine
10
111.84674999999395
20
-57.006689953566209
30
0
11
111.84674999999999
21
30.443250000000184
31
0
0
LINE
5
200
100
AcDbEntity
8
CUTOUTS
100
AcDbLine
10
111.84350887538514
20
-58.254735493410514
30
0
11
111.84674999999395
21
-57.006689953566209
31
0
0
ARC
5
201
100
AcDbEntity
8
CUTOUTS
100
AcDbCircle
10
112.59350634632199
20
-58.256683207000549
30
0
40
0.74999999999993061
210
0
220
0
230
1
100
AcDbArc
50
179.85120547487236
51
270
0
LINE
5
202
100
AcDbEntity
8
CUTOUTS
100
AcDbLine
10
116.00374999999997
20
-59.006683207000549
30
0
11
112.59350634632199
21
-59.006683207000492
31
0
0
ARC
5
203
100
AcDbEntity
8
CUTOUTS
100
AcDbCircle
10
28.943750000000001
20
-42.756749999999727
30
0
40
0.74999999999999289
210
0
220
-0
230
1
100
AcDbArc
50
0
51
90
0
LINE
5
204
100
AcDbEntity
8
CUTOUTS
100
AcDbLine
10
23.443749999999994
20
-42.006749999999698
30
0
11
28.943750000000001
21
-42.006749999999741
31
0
0
ARC
5
205
100
AcDbEntity
8
CUTOUTS
100
AcDbCircle
10
23.443749999999994
20
-42.756749999999727
30
0
40
0.75000000000002842
210
0
220
-0
230
1
100
AcDbArc
50
90
51
180
0
LINE
5
206
100
AcDbEntity
8
CUTOUTS
100
AcDbLine
10
22.693750000000037
20
-57.256750000000203
30
0
11
22.693749999999966
21
-42.756749999999712
31
0
0
ARC
5
207
100
AcDbEntity
8
CUTOUTS
100
AcDbCircle
10
23.443749999999994
20
-57.256750000000203
30
0
40
0.74999999999995737
210
0
220
0
230
1
100
AcDbArc
50
180
51
270
0
LINE
5
208
100
AcDbEntity
8
CUTOUTS
100
AcDbLine
10
28.943750000000001
20
-58.00675000000016
30
0
11
23.443749999999994
21
-58.00675000000016
31
0
0
ARC
5
209
100
AcDbEntity
8
CUTOUTS
100
AcDbCircle
10
28.943750000000001
20
-57.256750000000203
30
0
40
0.74999999999995737
210
-0
220
0
230
1
100
AcDbArc
50
-90
51
0
0
LINE
5
20A
100
AcDbEntity
8
CUTOUTS
100
AcDbLine
10
29.693749999999994
20
-42.756749999999712
30
0
11
29.693749999999959
21
-57.256750000000203
31
0
0
ARC
5
20B
100
AcDbEntity
8
CUTOUTS
100
AcDbCircle
10
-137.71200000000005
20
-25.706749999999943
30
0
40
0.75000000000002842
210
0
220
-0
230
1
100
AcDbArc
50
0
51
90
0
LINE
5
20C
100
AcDbEntity
8
CUTOUTS
100
AcDbLine
10
-143.21199999999993
20
-24.956749999999861
30
0
11
-137.71200000000005
21
-24.956749999999914
31
0
0
ARC
5
20D
100
AcDbEntity
8
CUTOUTS
100
AcDbCircle
10
-143.21199999999993
20
-25.706749999999943
30
0
40
0.75000000000008171
210
0
220
-0
230
1
100
AcDbArc
50
90
51
180
0
LINE
5
20E
100
AcDbEntity
8
CUTOUTS
100
AcDbLine
10
-143.96199999999999
20
-38.206750000000191
30
0
11
-143.96200000000002
21
-25.706749999999943
31
0
0
ARC
5
20F
100
AcDbEntity
8
CUTOUTS
100
AcDbCircle
10
-143.21199999999993
20
-38.206750000000213
30
0
40
0.75000000000006395
210
0
220
0
230
1
100
AcDbArc
50
180
51
270
0
LINE
5
210
100
AcDbEntity
8
CUTOUTS
100
AcDbLine
10
-137.71199999999993
20
-38.956749999999758
30
0
11
-143.21199999999993
21
-38.95675000000027
31
0
0
ARC
5
211
100
AcDbEntity
8
CUTOUTS
100
AcDbCircle
10
-137.71199999999993
20
-38.206750000000213
30
0
40
0.74999999999954881
210
-0
220
0
230
1
100
AcDbArc
50
-90
51
0
0
LINE
5
212
100
AcDbEntity
8
CUTOUTS
100
AcDbLine
10
-136.96200000000002
20
-25.706749999999943
30
0
11
-136.96200000000039
21
-38.206750000000213
31
0
0
LINE
5
213
100
AcDbEntity
8
CUTOUTS
100
AcDbLine
10
70.286999999999978
20
-37.956750000000348
30
0
11
69.949999999999932
21
-37.956749999999801
31
0
0
LINE
5
214
100
AcDbEntity
8
CUTOUTS
100
AcDbLine
10
70.286999999999864
20
-38.206750000000191
30
0
11
70.286999999999978
21
-37.956750000000348
31
0
0
ARC
5
215
100
AcDbEntity
8
CUTOUTS
100
AcDbCircle
10
71.036999999999964
20
-38.206750000000213
30
0
40
0.75000000000009948
210
0
220
0
230
1
100
AcDbArc
50
180
51
270.00000000000324
0
LINE
5
216
100
AcDbEntity
8
CUTOUTS
100
AcDbLine
10
76.536999999999978
20
-38.956750000000078
30
0
11
71.037000000000006
21
-38.956750000000312
31
0
0
ARC
5
217
100
AcDbEntity
8
CUTOUTS
100
AcDbCircle
10
76.536999999999978
20
-38.206750000000213
30
0
40
0.74999999999986855
210
-0
220
0
230
1
100
AcDbArc
50
-90
51
0
0
LINE
5
218
100
AcDbEntity
8
CUTOUTS
100
AcDbLine
10
77.286999999999964
20
-37.956749999999332
30
0
11
77.286999999999864
21
-38.206750000000213
31
0
0
LINE
5
219
100
AcDbEntity
8
CUTOUTS
100
AcDbLine
10
91.974999999999937
20
-37.956749999999815
30
0
11
77.286999999999964
21
-37.956749999999332
31
0
0
ARC
5
21A
100
AcDbEntity
8
CUTOUTS
100
AcDbCircle
10
91.974999999999937
20
-37.206749999999801
30
0
40
0.75000000000001066
210
-0
220
0
230
1
100
AcDbArc
50
-90
51
0
0
LINE
5
21B
100
AcDbEntity
8
CUTOUTS
100
AcDbLine
10
92.724999999999966
20
-24.706749999999928
30
0
11
92.724999999999966
21
-37.206749999999801
31
0
0
ARC
5
21C
100
AcDbEntity
8
CUTOUTS
100
AcDbCircle
10
91.974999999999937
20
-24.706749999999928
30
0
40
0.75000000000002842
210
0
220
-0
230
1
100
AcDbArc
50
0
51
90
0
LINE
5
21D
100
AcDbEntity
8
CUTOUTS
100
AcDbLine
10
69.949999999999974
20
-23.956749999999847
30
0
11
91.974999999999937
21
-23.9567499999999
31
0
0
ARC
5
21E
100
AcDbEntity
8
CUTOUTS
100
AcDbCircle
10
69.949999999999974
20
-24.706749999999822
30
0
40
0.74999999999997513
210
0
220
-0
230
1
100
AcDbArc
50
90
51
180
0
LINE
5
21F
100
AcDbEntity
8
CUTOUTS
100
AcDbLine
10
69.199999999999989
20
-37.206749999999644
30
0
11
69.199999999999989
21
-24.706749999999857
31
0
0
ARC
5
220
100
AcDbEntity
8
CUTOUTS
100
AcDbCircle
10
69.949999999999974
20
-37.206749999999801
30
0
40
0.74999999999999289
210
0
220
0
230
1
100
AcDbArc
50
180
51
269.99999999999676
0
LINE
5
221
100
AcDbEntity
8
CUTOUTS
100
AcDbLine
10
121.95625
20
-23.956749999999865
30
0
11
132.45625000000001
21
-23.956749999999829
31
0
0
ARC
5
222
100
AcDbEntity
8
CUTOUTS
100
AcDbCircle
10
132.45625000000001
20
-24.706749999999822
30
0
40
0.74999999999999289
210
0
220
-0
230
1
100
AcDbArc
50
0
51
90
0
LINE
5
223
100
AcDbEntity
8
CUTOUTS
100
AcDbLine
10
133.20625000000001
20
-24.706749999999822
30
0
11
133.20624999999995
21
-37.206749999999786
31
0
0
ARC
5
224
100
AcDbEntity
8
CUTOUTS
100
AcDbCircle
10
132.45625000000001
20
-37.206749999999801
30
0
40
0.74999999999995737
210
-0
220
0
230
1
100
AcDbArc
50
-90
51
0
0
LINE
5
225
100
AcDbEntity
8
CUTOUTS
100
AcDbLine
10
132.45625000000001
20
-37.956749999999758
30
0
11
121.95625000000004
21
-37.956749999999758
31
0
0
ARC
5
226
100
AcDbEntity
8
CUTOUTS
100
AcDbCircle
10
121.95625
20
-37.206749999999801
30
0
40
0.74999999999995737
210
0
220
0
230
1
100
AcDbArc
50
180
51
270.00000000000324
0
LINE
5
227
100
AcDbEntity
8
CUTOUTS
100
AcDbLine
10
121.20625000000004
20
-37.206749999999786
30
0
11
121.20625000000004
21
-24.706749999999804
31
0
0
ARC
5
228
100
AcDbEntity
8
CUTOUTS
100
AcDbCircle
10
121.95625
20
-24.706749999999822
30
0
40
0.74999999999995737
210
0
220
-0
230
1
100
AcDbArc
50
90
51
180
0
ARC
5
229
100
AcDbEntity
8
CUTOUTS
100
AcDbCircle
10
151.50624999999994
20
-37.206749999999786
30
0
40
0.74999999999995737
210
-0
220
0
230
1
100
AcDbArc
50
-90
51
0
0
LINE
5
22A
100
AcDbEntity
8
CUTOUTS
100
AcDbLine
10
152.25624999999997
20
-24.706749999999928
30
0
11
152.25624999999991
21
-37.206749999999786
31
0
0
ARC
5
22B
100
AcDbEntity
8
CUTOUTS
100
AcDbCircle
10
151.50624999999994
20
-24.706749999999928
30
0
40
0.75000000000002842
210
0
220
-0
230
1
100
AcDbArc
50
0
51
90
0
LINE
5
22C
100
AcDbEntity
8
CUTOUTS
100
AcDbLine
10
139.00624999999994
20
-23.956749999999918
30
0
11
151.50624999999994
21
-23.9567499999999
31
0
0
ARC
5
22D
100
AcDbEntity
8
CUTOUTS
100
AcDbCircle
10
139.00624999999994
20
-24.706749999999928
30
0
40
0.75000000000001066
210
0
220
-0
230
1
100
AcDbArc
50
90
51
180
0
LINE
5
22E
100
AcDbEntity
8
CUTOUTS
100
AcDbLine
10
138.25624999999999
20
-37.206749999999786
30
0
11
138.25624999999991
21
-24.706749999999928
31
0
0
ARC
5
22F
100
AcDbEntity
8
CUTOUTS
100
AcDbCircle
10
139.00624999999994
20
-37.206749999999786
30
0
40
0.74999999999995737
210
0
220
0
230
1
100
AcDbArc
50
180
51
270
0
LINE
5
230
100
AcDbEntity
8
CUTOUTS
100
AcDbLine
10
151.50624999999994
20
-37.956749999999744
30
0
11
139.00624999999994
21
-37.956749999999744
31
0
0
LINE
5
231
100
AcDbEntity
8
CUTOUTS
100
AcDbLine
10
168.55625000000001
20
-37.956749999999886
30
0
11
158.05624999999995
21
-37.956749999999758
31
0
0
ARC
5
232
100
AcDbEntity
8
CUTOUTS
100
AcDbCircle
10
158.05624999999995
20
-37.206749999999801
30
0
40
0.74999999999995737
210
0
220
0
230
1
100
AcDbArc
50
180
51
270
0
LINE
5
233
100
AcDbEntity
8
CUTOUTS
100
AcDbLine
10
157.30625000000001
20
-37.206749999999786
30
0
11
157.30624999999986
21
-24.706749999999928
31
0
0
ARC
5
234
100
AcDbEntity
8
CUTOUTS
100
AcDbCircle
10
158.05624999999995
20
-24.706749999999928
30
0
40
0.75000000000008171
210
0
220
-0
230
1
100
AcDbArc
50
90
51
180
0
LINE
5
235
100
AcDbEntity
8
CUTOUTS
100
AcDbLine
10
158.05624999999995
20
-23.956749999999847
30
0
11
168.55625000000001
21
-23.956749999999829
31
0
0
ARC
5
236
100
AcDbEntity
8
CUTOUTS
100
AcDbCircle
10
168.55625000000001
20
-24.706749999999928
30
0
40
0.75000000000009948
210
-0
220
0
230
1
100
AcDbArc
50
0
51
90
0
LINE
5
237
100
AcDbEntity
8
CUTOUTS
100
AcDbLine
10
169.30625000000009
20
-24.70675
30
0
11
169.30625000000009
21
-37.206749999999786
31
0
0
ARC
5
238
100
AcDbEntity
8
CUTOUTS
100
AcDbCircle
10
168.55625000000001
20
-37.206749999999801
30
0
40
0.75000000000008171
210
-0
220
0
230
1
100
AcDbArc
50
-90
51
0
0
ARC
5
239
100
AcDbEntity
8
CUTOUTS
100
AcDbCircle
10
132.45625000000001
20
13.393250000000103
30
0
40
0.75000000000002842
210
0
220
-0
230
1
100
AcDbArc
50
0
51
90
0
LINE
5
23A
100
AcDbEntity
8
CUTOUTS
100
AcDbLine
10
119.95625000000001
20
14.143250000000087
30
0
11
132.45625000000001
21
14.14325000000014
31
0
0
ARC
5
23B
100
AcDbEntity
8
CUTOUTS
100
AcDbCircle
10
119.95625000000001
20
13.393250000000103
30
0
40
0.74999999999998401
210
0
220
-0
230
1
100
AcDbArc
50
90
51
180
0
LINE
5
23C
100
AcDbEntity
8
CUTOUTS
100
AcDbLine
10
119.20625000000018
20
0.89325000000012089
30
0
11
119.20625000000001
21
13.393250000000103
31
0
0
ARC
5
23D
100
AcDbEntity
8
CUTOUTS
100
AcDbCircle
10
119.95625000000001
20
0.89325000000012089
30
0
40
0.74999999999981526
210
0
220
0
230
1
100
AcDbArc
50
180
51
270
0
LINE
5
23E
100
AcDbEntity
8
CUTOUTS
100
AcDbLine
10
132.45625000000001
20
0.14325000000009247
30
0
11
119.95625000000001
21
0.14325000000027899
31
0
0
ARC
5
23F
100
AcDbEntity
8
CUTOUTS
100
AcDbCircle
10
132.45625000000001
20
0.89325000000012089
30
0
40
0.75000000000002842
210
-0
220
0
230
1
100
AcDbArc
50
-90
51
0
0
LINE
5
240
100
AcDbEntity
8
CUTOUTS
100
AcDbLine
10
133.20625000000004
20
13.393250000000103
30
0
11
133.20625000000001
21
0.89325000000012089
31
0
0
LINE
5
241
100
AcDbEntity
8
CUTOUTS
100
AcDbLine
10
139.00624999999994
20
14.143250000000087
30
0
11
151.50624999999994
21
14.14325000000014
31
0
0
ARC
5
242
100
AcDbEntity
8
CUTOUTS
100
AcDbCircle
10
151.50624999999994
20
13.393250000000103
30
0
40
0.75000000000017053
210
-0
220
0
230
1
100
AcDbArc
50
0
51
90
0
LINE
5
243
100
AcDbEntity
8
CUTOUTS
100
AcDbLine
10
152.25625000000011
20
13.393250000000103
30
0
11
152.25624999999997
21
0.89325000000012089
31
0
0
ARC
5
244
100
AcDbEntity
8
CUTOUTS
100
AcDbCircle
10
151.50624999999994
20
0.89325000000012089
30
0
40
0.75000000000002842
210
-0
220
0
230
1
100
AcDbArc
50
-90
51
0
0
LINE
5
245
100
AcDbEntity
8
CUTOUTS
100
AcDbLine
10
151.50624999999994
20
0.14325000000009247
30
0
11
139.00624999999994
21
0.14325000000007471
31
0
0
ARC
5
246
100
AcDbEntity
8
CUTOUTS
100
AcDbCircle
10
139.00624999999994
20
0.89325000000012089
30
0
40
0.75000000000002842
210
0
220
0
230
1
100
AcDbArc
50
180
51
270
0
LINE
5
247
100
AcDbEntity
8
CUTOUTS
100
AcDbLine
10
138.25624999999991
20
0.89325000000012089
30
0
11
138.25624999999991
21
13.393250000000103
31
0
0
ARC
5
248
100
AcDbEntity
8
CUTOUTS
100
AcDbCircle
10
139.00624999999994
20
13.393250000000103
30
0
40
0.74999999999998401
210
0
220
-0
230
1
100
AcDbArc
50
90
51
180
0
LINE
5
249
100
AcDbEntity
8
CUTOUTS
100
AcDbLine
10
171.30624999999984
20
13.393250000000103
30
0
11
171.30624999999998
21
0.89325000000012089
31
0
0
ARC
5
24A
100
AcDbEntity
8
CUTOUTS
100
AcDbCircle
10
170.55624999999995
20
0.89325000000012089
30
0
40
0.75000000000002842
210
-0
220
0
230
1
100
AcDbArc
50
-90
51
0
0
LINE
5
24B
100
AcDbEntity
8
CUTOUTS
100
AcDbLine
10
170.55624999999995
20
0.14325000000009247
30
0
11
158.05624999999995
21
0.14325000000007471
31
0
0
ARC
5
24C
100
AcDbEntity
8
CUTOUTS
100
AcDbCircle
10
158.05624999999995
20
0.89325000000012089
30
0
40
0.74999999999988631
210
0
220
0
230
1
100
AcDbArc
50
180
51
270
0
LINE
5
24D
100
AcDbEntity
8
CUTOUTS
100
AcDbLine
10
157.30625000000006
20
0.89325000000012089
30
0
11
157.30624999999992
21
13.393250000000201
31
0
0
ARC
5
24E
100
AcDbEntity
8
CUTOUTS
100
AcDbCircle
10
158.05624999999995
20
13.393250000000201
30
0
40
0.74999999999998401
210
0
220
-0
230
1
100
AcDbArc
50
90
51
180
0
LINE
5
24F
100
AcDbEntity
8
CUTOUTS
100
AcDbLine
10
158.05624999999995
20
14.143250000000185
30
0
11
170.55624999999995
21
14.143250000000043
31
0
0
ARC
5
250
100
AcDbEntity
8
CUTOUTS
100
AcDbCircle
10
170.55624999999995
20
13.393250000000103
30
0
40
0.74999999999988631
210
-0
220
0
230
1
100
AcDbArc
50
0
51
90
0
LINE
5
251
100
AcDbEntity
8
CUTOUTS
100
AcDbLine
10
121.20625000000001
20
-18.156749999999864
30
0
11
121.20625000000001
21
-5.6567499999998905
31
0
0
ARC
5
252
100
AcDbEntity
8
CUTOUTS
100
AcDbCircle
10
121.95625
20
-5.6567499999999171
30
0
40
0.75000000000000178
210
0
220
-0
230
1
100
AcDbArc
50
90
51
180
0
LINE
5
253
100
AcDbEntity
8
CUTOUTS
100
AcDbLine
10
121.95625
20
-4.9067499999999153
30
0
11
168.55625000000001
21
-4.9067499999999153
31
0
0
ARC
5
254
100
AcDbEntity
8
CUTOUTS
100
AcDbCircle
10
168.55625000000001
20
-5.6567500000000148
30
0
40
0.75000000000009948
210
0
220
-0
230
1
100
AcDbArc
50
0
51
90
0
LINE
5
255
100
AcDbEntity
8
CUTOUTS
100
AcDbLine
10
169.30625000000009
20
-5.6567500000000059
30
0
11
169.30625000000009
21
-18.156749999999757
31
0
0
ARC
5
256
100
AcDbEntity
8
CUTOUTS
100
AcDbCircle
10
168.55625000000001
20
-18.156749999999775
30
0
40
0.75000000000009948
210
-0
220
0
230
1
100
AcDbArc
50
-90
51
0
0
LINE
5
257
100
AcDbEntity
8
CUTOUTS
100
AcDbLine
10
168.55625000000001
20
-18.906749999999874
30
0
11
121.95625000000004
21
-18.906749999999874
31
0
0
ARC
5
258
100
AcDbEntity
8
CUTOUTS
100
AcDbCircle
10
121.95625
20
-18.156749999999882
30
0
40
0.74999999999999289
210
0
220
0
230
1
100
AcDbArc
50
180
51
270.00000000000324
0
ARC
5
259
100
AcDbEntity
8
CUTOUTS
100
AcDbCircle
10
-167.08799999999994
20
-25.706749999999943
30
0
40
0.75000000000008171
210
0
220
-0
230
1
100
AcDbArc
50
90
51
180
0
LINE
5
25A
100
AcDbEntity
8
CUTOUTS
100
AcDbLine
10
-167.83800000000002
20
-38.206750000000213
30
0
11
-167.83800000000002
21
-25.706749999999943
31
0
0
ARC
5
25B
100
AcDbEntity
8
CUTOUTS
100
AcDbCircle
10
-167.08800000000002
20
-38.206750000000213
30
0
40
0.74999999999999289
210
0
220
0
230
1
100
AcDbArc
50
180
51
270
0
LINE
5
25C
100
AcDbEntity
8
CUTOUTS
100
AcDbLine
10
-161.58799999999991
20
-38.956750000000149
30
0
11
-167.08800000000002
21
-38.956750000000198
31
0
0
ARC
5
25D
100
AcDbEntity
8
CUTOUTS
100
AcDbCircle
10
-161.58799999999991
20
-38.206750000000213
30
0
40
0.7499999999999396
210
-0
220
0
230
1
100
AcDbArc
50
-90
51
0
0
LINE
5
25E
100
AcDbEntity
8
CUTOUTS
100
AcDbLine
10
-160.83799999999994
20
-25.706749999999836
30
0
11
-160.83799999999999
21
-38.206750000000213
31
0
0
ARC
5
25F
100
AcDbEntity
8
CUTOUTS
100
AcDbCircle
10
-161.58799999999991
20
-25.706749999999836
30
0
40
0.74999999999999289
210
0
220
-0
230
1
100
AcDbArc
50
0
51
90
0
LINE
5
260
100
AcDbEntity
8
CUTOUTS
100
AcDbLine
10
-167.08799999999994
20
-24.956749999999861
30
0
11
-161.58799999999991
21
-24.956749999999843
31
0
0
LINE
5
261
100
AcDbEntity
8
CUTOUTS
100
AcDbLine
10
64.349999999999994
20
-23.956749999999847
30
0
11
64.849999999999994
21
-23.956749999999829
31
0
0
ARC
5
262
100
AcDbEntity
8
CUTOUTS
100
AcDbCircle
10
64.849999999999994
20
-24.706749999999822
30
0
40
0.74999999999999289
210
0
220
-0
230
1
100
AcDbArc
50
0
51
90
0
LINE
5
263
100
AcDbEntity
8
CUTOUTS
100
AcDbLine
10
65.599999999999994
20
-24.706749999999822
30
0
11
65.600000000000051
21
-37.206750000000156
31
0
0
ARC
5
264
100
AcDbEntity
8
CUTOUTS
100
AcDbCircle
10
64.850000000000065
20
-37.206750000000156
30
0
40
0.74999999999999289
210
-0
220
0
230
1
100
AcDbArc
50
-90
51
0
0
LINE
5
265
100
AcDbEntity
8
CUTOUTS
100
AcDbLine
10
64.850000000000065
20
-37.956750000000156
30
0
11
64.350000000000051
21
-37.956750000000184
31
0
0
ARC
5
266
100
AcDbEntity
8
CUTOUTS
100
AcDbCircle
10
64.350000000000051
20
-37.206750000000156
30
0
40
0.75000000000002842
210
0
220
0
230
1
100
AcDbArc
50
180
51
270
0
LINE
5
267
100
AcDbEntity
8
CUTOUTS
100
AcDbLine
10
63.60000000000003
20
-37.206750000000056
30
0
11
63.60000000000003
21
-24.70674999999984
31
0
0
ARC
5
268
100
AcDbEntity
8
CUTOUTS
100
AcDbCircle
10
64.349999999999994
20
-24.706749999999822
30
0
40
0.74999999999997513
210
0
220
-0
230
1
100
AcDbArc
50
90
51
180
0
ARC
5
269
100
AcDbEntity
8
CUTOUTS
100
AcDbCircle
10
81.299499999999966
20
-4.6567499999999207
30
0
40
0.75000000000009948
210
0
220
-0
230
1
100
AcDbArc
50
0
51
90
0
LINE
5
26A
100
AcDbEntity
8
CUTOUTS
100
AcDbLine
10
75.799499999999966
20
-3.9067499999998923
30
0
11
81.299499999999966
21
-3.9067499999998212
31
0
0
ARC
5
26B
100
AcDbEntity
8
CUTOUTS
100
AcDbCircle
10
75.799499999999966
20
-4.6567499999999207
30
0
40
0.75000000000002842
210
0
220
-0
230
1
100
AcDbArc
50
90
51
180
0
LINE
5
26C
100
AcDbEntity
8
CUTOUTS
100
AcDbLine
10
75.049500000000151
20
-19.156750000000073
30
0
11
75.049499999999938
21
-4.6567499999999207
31
0
0
ARC
5
26D
100
AcDbEntity
8
CUTOUTS
100
AcDbCircle
10
75.799499999999966
20
-19.156750000000073
30
0
40
0.74999999999981526
210
0
220
0
230
1
100
AcDbArc
50
180
51
270
0
LINE
5
26E
100
AcDbEntity
8
CUTOUTS
100
AcDbLine
10
81.299499999999966
20
-19.906749999999942
30
0
11
75.799499999999966
21
-19.906749999999889
31
0
0
ARC
5
26F
100
AcDbEntity
8
CUTOUTS
100
AcDbCircle
10
81.299499999999966
20
-19.156749999999878
30
0
40
0.75000000000006395
210
-0
220
0
230
1
100
AcDbArc
50
-90
51
0
0
LINE
5
270
100
AcDbEntity
8
CUTOUTS
100
AcDbLine
10
82.04950000000008
20
-4.6567499999999207
30
0
11
82.049500000000037
21
-19.156749999999878
31
0
0
LINE
5
271
100
AcDbEntity
8
CUTOUTS
100
AcDbLine
10
96.737500000000011
20
-18.906749999999821
30
0
11
84.237500000000011
21
-18.90674999999991
31
0
0
ARC
5
272
100
AcDbEntity
8
CUTOUTS
100
AcDbCircle
10
84.237500000000011
20
-18.156749999999882
30
0
40
0.75000000000002842
210
0
220
0
230
1
100
AcDbArc
50
180
51
270
0
LINE
5
273
100
AcDbEntity
8
CUTOUTS
100
AcDbLine
10
83.487499999999983
20
-18.156749999999882
30
0
11
83.487500000000026
21
-5.6567499999999171
31
0
0
ARC
5
274
100
AcDbEntity
8
CUTOUTS
100
AcDbCircle
10
84.237500000000011
20
-5.6567499999999171
30
0
40
0.74999999999999289
210
0
220
-0
230
1
100
AcDbArc
50
90
51
180
0
LINE
5
275
100
AcDbEntity
8
CUTOUTS
100
AcDbLine
10
84.237500000000011
20
-4.9067499999999242
30
0
11
96.737500000000011
21
-4.9067499999999598
31
0
0
ARC
5
276
100
AcDbEntity
8
CUTOUTS
100
AcDbCircle
10
96.737500000000011
20
-5.6567499999999171
30
0
40
0.74999999999995737
210
0
220
-0
230
1
100
AcDbArc
50
0
51
90
0
LINE
5
277
100
AcDbEntity
8
CUTOUTS
100
AcDbLine
10
97.487499999999983
20
-5.6567499999999171
30
0
11
97.487499999999983
21
-18.156749999999882
31
0
0
ARC
5
278
100
AcDbEntity
8
CUTOUTS
100
AcDbCircle
10
96.737500000000011
20
-18.156749999999882
30
0
40
0.7499999999999396
210
-0
220
0
230
1
100
AcDbArc
50
-90
51
0
0
ARC
5
279
100
AcDbEntity
8
CUTOUTS
100
AcDbCircle
10
99.6755
20
-19.156749999999878
30
0
40
0.74999999999999289
210
0
220
0
230
1
100
AcDbArc
50
180
51
270
0
LINE
5
27A
100
AcDbEntity
8
CUTOUTS
100
AcDbLine
10
105.1755
20
-19.906749999999906
30
0
11
99.6755
21
-19.906749999999871
31
0
0
ARC
5
27B
100
AcDbEntity
8
CUTOUTS
100
AcDbCircle
10
105.1755
20
-19.156749999999878
30
0
40
0.75000000000002842
210
-0
220
0
230
1
100
AcDbArc
50
-90
51
0
0
LINE
5
27C
100
AcDbEntity
8
CUTOUTS
100
AcDbLine
10
105.92549999999996
20
-4.6567499999998052
30
0
11
105.92550000000003
21
-19.156749999999878
31
0
0
ARC
5
27D
100
AcDbEntity
8
CUTOUTS
100
AcDbCircle
10
105.1755
20
-4.6567499999998052
30
0
40
0.74999999999995737
210
0
220
-0
230
1
100
AcDbArc
50
0
51
90
0
LINE
5
27E
100
AcDbEntity
8
CUTOUTS
100
AcDbLine
10
99.6755
20
-3.9067499999998301
30
0
11
105.1755
21
-3.9067499999998478
31
0
0
ARC
5
27F
100
AcDbEntity
8
CUTOUTS
100
AcDbCircle
10
99.6755
20
-4.656749999999823
30
0
40
0.74999999999999289
210
0
220
-0
230
1
100
AcDbArc
50
90
51
180
0
LINE
5
280
100
AcDbEntity
8
CUTOUTS
100
AcDbLine
10
98.9255
20
-19.156749999999878
30
0
11
98.9255
21
-4.6567499999998052
31
0
0
LINE
5
281
100
AcDbEntity
8
CUTOUTS
100
AcDbLine
10
-169.76249999999999
20
-18.156749999999882
30
0
11
-169.76249999999999
21
-5.6567499999999171
31
0
0
ARC
5
282
100
AcDbEntity
8
CUTOUTS
100
AcDbCircle
10
-169.01250000000005
20
-5.6567499999999171
30
0
40
0.74999999999996625
210
0
220
-0
230
1
100
AcDbArc
50
90
51
180
0
LINE
5
283
100
AcDbEntity
8
CUTOUTS
100
AcDbLine
10
-169.01250000000005
20
-4.9067499999999509
30
0
11
-150.91250000000005
21
-4.9067499999999598
31
0
0
ARC
5
284
100
AcDbEntity
8
CUTOUTS
100
AcDbCircle
10
-150.91249999999994
20
-5.6567499999999171
30
0
40
0.74999999999995737
210
-0
220
0
230
1
100
AcDbArc
50
0
51
90.000000000008683
0
LINE
5
285
100
AcDbEntity
8
CUTOUTS
100
AcDbLine
10
-150.16249999999997
20
-5.6567499999999171
30
0
11
-150.16249999999991
21
-18.156749999999864
31
0
0
ARC
5
286
100
AcDbEntity
8
CUTOUTS
100
AcDbCircle
10
-150.91249999999994
20
-18.156749999999882
30
0
40
0.75000000000001066
210
0
220
0
230
1
100
AcDbArc
50
-90.000000000006523
51
0
0
LINE
5
287
100
AcDbEntity
8
CUTOUTS
100
AcDbLine
10
-150.91250000000002
20
-18.906749999999892
30
0
11
-169.01250000000005
21
-18.906749999999839
31
0
0
ARC
5
288
100
AcDbEntity
8
CUTOUTS
100
AcDbCircle
10
-169.01250000000005
20
-18.156749999999882
30
0
40
0.74999999999995737
210
0
220
0
230
1
100
AcDbArc
50
180
51
270
0
ARC
5
289
100
AcDbEntity
8
CUTOUTS
100
AcDbCircle
10
170.55624999999995
20
19.943250000000148
30
0
40
0.74999999999999289
210
-0
220
0
230
1
100
AcDbArc
50
-90
51
0
0
LINE
5
28A
100
AcDbEntity
8
CUTOUTS
100
AcDbLine
10
171.30624999999984
20
32.443250000000106
30
0
11
171.30624999999998
21
19.943250000000148
31
0
0
ARC
5
28B
100
AcDbEntity
8
CUTOUTS
100
AcDbCircle
10
170.55624999999995
20
32.443250000000106
30
0
40
0.74999999999988631
210
0
220
0
230
1
100
AcDbArc
50
0
51
90
0
LINE
5
28C
100
AcDbEntity
8
CUTOUTS
100
AcDbLine
10
158.05624999999995
20
33.193250000000134
30
0
11
170.55624999999995
21
33.193249999999956
31
0
0
ARC
5
28D
100
AcDbEntity
8
CUTOUTS
100
AcDbCircle
10
158.05624999999995
20
32.443250000000106
30
0
40
0.75000000000003286
210
0
220
-0
230
1
100
AcDbArc
50
90
51
180
0
LINE
5
28E
100
AcDbEntity
8
CUTOUTS
100
AcDbLine
10
157.30624999999992
20
19.943250000000148
30
0
11
157.30624999999992
21
32.443250000000099
31
0
0
ARC
5
28F
100
AcDbEntity
8
CUTOUTS
100
AcDbCircle
10
158.05624999999995
20
19.943250000000148
30
0
40
0.75000000000002842
210
0
220
0
230
1
100
AcDbArc
50
180
51
270
0
LINE
5
290
100
AcDbEntity
8
CUTOUTS
100
AcDbLine
10
170.55624999999995
20
19.193250000000155
30
0
11
158.05624999999995
21
19.193250000000077
31
0
0
ARC
5
291
100
AcDbEntity
8
CUTOUTS
100
AcDbCircle
10
-158.05625000000003
20
19.943250000000052
30
0
40
0.74999999999999289
210
-0
220
0
230
1
100
AcDbArc
50
-90
51
0
0
LINE
5
292
100
AcDbEntity
8
CUTOUTS
100
AcDbLine
10
-157.30625000000001
20
32.443250000000106
30
0
11
-157.30625000000003
21
19.943250000000056
31
0
0
ARC
5
293
100
AcDbEntity
8
CUTOUTS
100
AcDbCircle
10
-158.05625000000003
20
32.443250000000106
30
0
40
0.75000000000002842
210
0
220
-0
230
1
100
AcDbArc
50
0
51
90
0
LINE
5
294
100
AcDbEntity
8
CUTOUTS
100
AcDbLine
10
-170.55625000000003
20
33.193250000000134
30
0
11
-158.05625000000003
21
33.193250000000056
31
0
0
ARC
5
295
100
AcDbEntity
8
CUTOUTS
100
AcDbCircle
10
-170.55625000000003
20
32.443250000000106
30
0
40
0.75000000000003286
210
0
220
-0
230
1
100
AcDbArc
50
90
51
180
0
LINE
5
296
100
AcDbEntity
8
CUTOUTS
100
AcDbLine
10
-171.30624999999998
20
19.943250000000052
30
0
11
-171.30625000000006
21
32.443250000000099
31
0
0
ARC
5
297
100
AcDbEntity
8
CUTOUTS
100
AcDbCircle
10
-170.55625000000003
20
19.943250000000052
30
0
40
0.74999999999995737
210
0
220
0
230
1
100
AcDbArc
50
180
51
270
0
LINE
5
298
100
AcDbEntity
8
CUTOUTS
100
AcDbLine
10
-158.05625000000003
20
19.193250000000059
30
0
11
-170.55625000000003
21
19.193250000000077
31
0
0
LINE
5
299
100
AcDbEntity
8
CUTOUTS
100
AcDbLine
10
104.63124999999998
20
13.393250000000103
30
0
11
104.63124999999994
21
0.89325000000012089
31
0
0
ARC
5
29A
100
AcDbEntity
8
CUTOUTS
100
AcDbCircle
10
103.88124999999995
20
0.89325000000012089
30
0
40
0.75000000000002842
210
-0
220
0
230
1
100
AcDbArc
50
-90
51
0
0
LINE
5
29B
100
AcDbEntity
8
CUTOUTS
100
AcDbLine
10
103.88124999999995
20
0.14325000000009247
30
0
11
91.381249999999952
21
0.14325000000007471
31
0
0
ARC
5
29C
100
AcDbEntity
8
CUTOUTS
100
AcDbCircle
10
91.381249999999952
20
0.89325000000012089
30
0
40
0.75000000000002842
210
0
220
0
230
1
100
AcDbArc
50
180
51
270
0
LINE
5
29D
100
AcDbEntity
8
CUTOUTS
100
AcDbLine
10
90.631249999999923
20
0.89325000000012089
30
0
11
90.631249999999966
21
13.393250000000103
31
0
0
ARC
5
29E
100
AcDbEntity
8
CUTOUTS
100
AcDbCircle
10
91.381249999999952
20
13.393250000000103
30
0
40
0.74999999999998401
210
0
220
-0
230
1
100
AcDbArc
50
90
51
180
0
LINE
5
29F
100
AcDbEntity
8
CUTOUTS
100
AcDbLine
10
91.381249999999952
20
14.143250000000087
30
0
11
103.88124999999995
21
14.14325000000014
31
0
0
ARC
5
2A0
100
AcDbEntity
8
CUTOUTS
100
AcDbCircle
10
103.88124999999995
20
13.393250000000103
30
0
40
0.75000000000002842
210
0
220
-0
230
1
100
AcDbArc
50
0
51
90
0
LINE
5
2A1
100
AcDbEntity
8
CUTOUTS
100
AcDbLine
10
-153.29374999999993
20
0.14325000000009247
30
0
11
-165.79375000000002
21
0.14325000000007471
31
0
0
ARC
5
2A2
100
AcDbEntity
8
CUTOUTS
100
AcDbCircle
10
-165.79375000000002
20
0.89325000000012089
30
0
40
0.74999999999999289
210
0
220
0
230
1
100
AcDbArc
50
180
51
270
0
LINE
5
2A3
100
AcDbEntity
8
CUTOUTS
100
AcDbLine
10
-166.54375000000002
20
0.89325000000012089
30
0
11
-166.54374999999999
21
13.393250000000103
31
0
0
ARC
5
2A4
100
AcDbEntity
8
CUTOUTS
100
AcDbCircle
10
-165.79375000000002
20
13.393250000000103
30
0
40
0.74999999999994849
210
0
220
-0
230
1
100
AcDbArc
50
90
51
180
0
LINE
5
2A5
100
AcDbEntity
8
CUTOUTS
100
AcDbLine
10
-165.79375000000002
20
14.143250000000052
30
0
11
-153.29374999999993
21
14.143250000000043
31
0
0
ARC
5
2A6
100
AcDbEntity
8
CUTOUTS
100
AcDbCircle
10
-153.29374999999993
20
13.393250000000103
30
0
40
0.74999999999995737
210
0
220
-0
230
1
100
AcDbArc
50
0
51
90
0
LINE
5
2A7
100
AcDbEntity
8
CUTOUTS
100
AcDbLine
10
-152.54374999999999
20
13.393250000000103
30
0
11
-152.54374999999993
21
0.89325000000012089
31
0
0
ARC
5
2A8
100
AcDbEntity
8
CUTOUTS
100
AcDbCircle
10
-153.29374999999993
20
0.89325000000012089
30
0
40
0.75000000000002842
210
-0
220
0
230
1
100
AcDbArc
50
-90
51
0
0
LINE
5
2A9
100
AcDbEntity
8
CUTOUTS
100
AcDbLine
10
-100.06874999999992
20
-57.006749999999897
30
0
11
-100.56874999999992
21
-57.006750000000338
31
0
0
ARC
5
2AA
100
AcDbEntity
8
CUTOUTS
100
AcDbCircle
10
-100.56874999999992
20
-56.256749999999812
30
0
40
0.74999999999999289
210
0
220
0
230
1
100
AcDbArc
50
180
51
270
0
LINE
5
2AB
100
AcDbEntity
8
CUTOUTS
100
AcDbLine
10
-101.31874999999992
20
-56.256749999999812
30
0
11
-101.31874999999992
21
-43.756750000000139
31
0
0
ARC
5
2AC
100
AcDbEntity
8
CUTOUTS
100
AcDbCircle
10
-100.56874999999992
20
-43.756750000000139
30
0
40
0.7499999999999396
210
0
220
-0
230
1
100
AcDbArc
50
90
51
180
0
LINE
5
2AD
100
AcDbEntity
8
CUTOUTS
100
AcDbLine
10
-100.56874999999992
20
-43.006750000000196
30
0
11
-100.06874999999992
21
-43.006750000000125
31
0
0
ARC
5
2AE
100
AcDbEntity
8
CUTOUTS
100
AcDbCircle
10
-100.06874999999992
20
-43.756750000000139
30
0
40
0.75000000000002842
210
-0
220
0
230
1
100
AcDbArc
50
0
51
90
0
LINE
5
2AF
100
AcDbEntity
8
CUTOUTS
100
AcDbLine
10
-99.318749999999895
20
-43.756750000000139
30
0
11
-99.318749999999824
21
-56.256749999999812
31
0
0
ARC
5
2B0
100
AcDbEntity
8
CUTOUTS
100
AcDbCircle
10
-100.06874999999992
20
-56.256749999999812
30
0
40
0.75000000000008171
210
-0
220
0
230
1
100
AcDbArc
50
-90
51
0
0
ARC
5
2B1
100
AcDbEntity
8
CUTOUTS
100
AcDbCircle
10
-105.66875000000003
20
-43.756750000000139
30
0
40
0.75000000000002842
210
0
220
-0
230
1
100
AcDbArc
50
0
51
90
0
LINE
5
2B2
100
AcDbEntity
8
CUTOUTS
100
AcDbLine
10
-118.16875000000003
20
-43.006750000000196
30
0
11
-105.66875000000003
21
-43.006749999999592
31
0
0
ARC
5
2B3
100
AcDbEntity
8
CUTOUTS
100
AcDbCircle
10
-118.16875000000003
20
-43.756750000000139
30
0
40
0.7499999999999396
210
0
220
-0
230
1
100
AcDbArc
50
90
51
180
0
LINE
5
2B4
100
AcDbEntity
8
CUTOUTS
100
AcDbLine
10
-118.91874999999999
20
-56.256749999999812
30
0
11
-118.91874999999999
21
-43.756750000000139
31
0
0
ARC
5
2B5
100
AcDbEntity
8
CUTOUTS
100
AcDbCircle
10
-118.16875000000003
20
-56.256749999999812
30
0
40
0.74999999999995737
210
0
220
0
230
1
100
AcDbArc
50
180
51
270
0
LINE
5
2B6
100
AcDbEntity
8
CUTOUTS
100
AcDbLine
10
-105.66875000000003
20
-57.006749999999897
30
0
11
-118.16875000000003
21
-57.006750000000338
31
0
0
ARC
5
2B7
100
AcDbEntity
8
CUTOUTS
100
AcDbCircle
10
-105.66875000000003
20
-56.256749999999812
30
0
40
0.75000000000008171
210
-0
220
0
230
1
100
AcDbArc
50
-90
51
0
0
LINE
5
2B8
100
AcDbEntity
8
CUTOUTS
100
AcDbLine
10
-104.91875
20
-43.756750000000139
30
0
11
-104.91874999999993
21
-56.256749999999812
31
0
0
LINE
5
2B9
100
AcDbEntity
8
CUTOUTS
100
AcDbLine
10
-171.39374999999995
20
-43.006750000000196
30
0
11
-170.89375000000004
21
-43.006750000000139
31
0
0
ARC
5
2BA
100
AcDbEntity
8
CUTOUTS
100
AcDbCircle
10
-170.89375000000004
20
-43.756750000000139
30
0
40
0.74999999999999289
210
0
220
-0
230
1
100
AcDbArc
50
0
51
90
0
LINE
5
2BB
100
AcDbEntity
8
CUTOUTS
100
AcDbLine
10
-170.14375000000004
20
-43.756750000000139
30
0
11
-170.14374999999995
21
-56.256749999999812
31
0
0
ARC
5
2BC
100
AcDbEntity
8
CUTOUTS
100
AcDbCircle
10
-170.89375000000004
20
-56.256749999999812
30
0
40
0.75000000000009948
210
-0
220
0
230
1
100
AcDbArc
50
-90
51
0
0
LINE
5
2BD
100
AcDbEntity
8
CUTOUTS
100
AcDbLine
10
-170.89375000000004
20
-57.006749999999911
30
0
11
-171.39374999999995
21
-57.006749999999911
31
0
0
ARC
5
2BE
100
AcDbEntity
8
CUTOUTS
100
AcDbCircle
10
-171.39374999999995
20
-56.256749999999812
30
0
40
0.75000000000009948
210
0
220
0
230
1
100
AcDbArc
50
180
51
270
0
LINE
5
2BF
100
AcDbEntity
8
CUTOUTS
100
AcDbLine
10
-172.14375000000004
20
-56.256749999999812
30
0
11
-172.14374999999987
21
-43.756750000000139
31
0
0
ARC
5
2C0
100
AcDbEntity
8
CUTOUTS
100
AcDbCircle
10
-171.39374999999995
20
-43.756750000000139
30
0
40
0.7499999999999396
210
0
220
-0
230
1
100
AcDbArc
50
90
51
180
0
LINE
5
2C1
100
AcDbEntity
8
CUTOUTS
100
AcDbLine
10
151.50624999999994
20
19.19325000000012
30
0
11
139.00624999999994
21
19.193249999999978
31
0
0
ARC
5
2C2
100
AcDbEntity
8
CUTOUTS
100
AcDbCircle
10
139.00624999999994
20
19.943250000000148
30
0
40
0.75000000000017053
210
0
220
0
230
1
100
AcDbArc
50
180
51
270
0
LINE
5
2C3
100
AcDbEntity
8
CUTOUTS
100
AcDbLine
10
138.25624999999977
20
19.943250000000141
30
0
11
138.25624999999991
21
32.443250000000099
31
0
0
ARC
5
2C4
100
AcDbEntity
8
CUTOUTS
100
AcDbCircle
10
139.00624999999994
20
32.443250000000106
30
0
40
0.75000000000003286
210
0
220
-0
230
1
100
AcDbArc
50
90
51
180
0
LINE
5
2C5
100
AcDbEntity
8
CUTOUTS
100
AcDbLine
10
139.00624999999994
20
33.193250000000134
30
0
11
151.50624999999994
21
33.193250000000162
31
0
0
ARC
5
2C6
100
AcDbEntity
8
CUTOUTS
100
AcDbCircle
10
151.50624999999994
20
32.443250000000106
30
0
40
0.75000000000002842
210
0
220
-0
230
1
100
AcDbArc
50
0
51
90
0
LINE
5
2C7
100
AcDbEntity
8
CUTOUTS
100
AcDbLine
10
152.25624999999997
20
32.443250000000106
30
0
11
152.25624999999997
21
19.943250000000155
31
0
0
ARC
5
2C8
100
AcDbEntity
8
CUTOUTS
100
AcDbCircle
10
151.50624999999994
20
19.943250000000148
30
0
40
0.75000000000002842
210
-0
220
0
230
1
100
AcDbArc
50
-90
51
0
0
LINE
5
2C9
100
AcDbEntity
8
CUTOUTS
100
AcDbLine
10
85.78125
20
14.143250000000087
30
0
11
86.28125
21
14.14325000000014
31
0
0
ARC
5
2CA
100
AcDbEntity
8
CUTOUTS
100
AcDbCircle
10
86.28125
20
13.393250000000103
30
0
40
0.75000000000002842
210
0
220
-0
230
1
100
AcDbArc
50
0
51
90
0
LINE
5
2CB
100
AcDbEntity
8
CUTOUTS
100
AcDbLine
10
87.031250000000028
20
13.393250000000103
30
0
11
87.03125
21
0.89325000000012089
31
0
0
ARC
5
2CC
100
AcDbEntity
8
CUTOUTS
100
AcDbCircle
10
86.28125
20
0.89325000000012089
30
0
40
0.75000000000007283
210
-0
220
0
230
1
100
AcDbArc
50
-90
51
0
0
LINE
5
2CD
100
AcDbEntity
8
CUTOUTS
100
AcDbLine
10
86.28125
20
0.14325000000004806
30
0
11
85.78125
21
0.14324999999997701
31
0
0
ARC
5
2CE
100
AcDbEntity
8
CUTOUTS
100
AcDbCircle
10
85.78125
20
0.89325000000012089
30
0
40
0.75000000000017053
210
0
220
0
230
1
100
AcDbArc
50
180
51
270
0
LINE
5
2CF
100
AcDbEntity
8
CUTOUTS
100
AcDbLine
10
85.031249999999829
20
0.89325000000012089
30
0
11
85.03125
21
13.393250000000103
31
0
0
ARC
5
2D0
100
AcDbEntity
8
CUTOUTS
100
AcDbCircle
10
85.78125
20
13.393250000000103
30
0
40
0.74999999999998401
210
0
220
-0
230
1
100
AcDbArc
50
90
51
180
0
LINE
5
2D1
100
AcDbEntity
8
CUTOUTS
100
AcDbLine
10
-147.69374999999994
20
0.14325000000009247
30
0
11
-148.19374999999994
21
0.14325000000007471
31
0
0
ARC
5
2D2
100
AcDbEntity
8
CUTOUTS
100
AcDbCircle
10
-148.19374999999994
20
0.89325000000012089
30
0
40
0.75000000000002842
210
0
220
0
230
1
100
AcDbArc
50
180
51
270
0
LINE
5
2D3
100
AcDbEntity
8
CUTOUTS
100
AcDbLine
10
-148.94374999999997
20
0.89325000000012089
30
0
11
-148.94374999999994
21
13.393250000000103
31
0
0
ARC
5
2D4
100
AcDbEntity
8
CUTOUTS
100
AcDbCircle
10
-148.19374999999994
20
13.393250000000103
30
0
40
0.74999999999994849
210
0
220
-0
230
1
100
AcDbArc
50
90
51
180
0
LINE
5
2D5
100
AcDbEntity
8
CUTOUTS
100
AcDbLine
10
-148.19374999999994
20
14.143250000000052
30
0
11
-147.69374999999994
21
14.143250000000052
31
0
0
ARC
5
2D6
100
AcDbEntity
8
CUTOUTS
100
AcDbCircle
10
-147.69374999999994
20
13.393250000000103
30
0
40
0.74999999999995737
210
0
220
-0
230
1
100
AcDbArc
50
0
51
90
0
LINE
5
2D7
100
AcDbEntity
8
CUTOUTS
100
AcDbLine
10
-146.94374999999997
20
13.393250000000103
30
0
11
-146.94375000000002
21
0.89325000000012089
31
0
0
ARC
5
2D8
100
AcDbEntity
8
CUTOUTS
100
AcDbCircle
10
-147.69374999999994
20
0.89325000000012089
30
0
40
0.75000000000002842
210
-0
220
0
230
1
100
AcDbArc
50
-90
51
0
0
LINE
5
2D9
100
AcDbEntity
8
CUTOUTS
100
AcDbLine
10
-145.81250000000006
20
-4.9067499999999598
30
0
11
-145.31250000000003
21
-4.9067499999999509
31
0
0
ARC
5
2DA
100
AcDbEntity
8
CUTOUTS
100
AcDbCircle
10
-145.31250000000003
20
-5.6567499999999171
30
0
40
0.75000000000002842
210
0
220
-0
230
1
100
AcDbArc
50
0
51
90
0
LINE
5
2DB
100
AcDbEntity
8
CUTOUTS
100
AcDbLine
10
-144.5625
20
-5.6567499999999171
30
0
11
-144.56249999999994
21
-18.156749999999882
31
0
0
ARC
5
2DC
100
AcDbEntity
8
CUTOUTS
100
AcDbCircle
10
-145.31250000000003
20
-18.156749999999882
30
0
40
0.75000000000001066
210
-0
220
0
230
1
100
AcDbArc
50
-90
51
0
0
LINE
5
2DD
100
AcDbEntity
8
CUTOUTS
100
AcDbLine
10
-145.31250000000003
20
-18.906749999999892
30
0
11
-145.81250000000006
21
-18.906749999999821
31
0
0
ARC
5
2DE
100
AcDbEntity
8
CUTOUTS
100
AcDbCircle
10
-145.81250000000006
20
-18.156749999999882
30
0
40
0.74999999999995737
210
0
220
0
230
1
100
AcDbArc
50
180
51
270
0
LINE
5
2DF
100
AcDbEntity
8
CUTOUTS
100
AcDbLine
10
-146.5625
20
-18.156749999999882
30
0
11
-146.5625
21
-5.6567499999999171
31
0
0
ARC
5
2E0
100
AcDbEntity
8
CUTOUTS
100
AcDbCircle
10
-145.81250000000006
20
-5.6567499999999171
30
0
40
0.74999999999995737
210
0
220
-0
230
1
100
AcDbArc
50
90
51
180
0
LINE
5
2E1
100
AcDbEntity
8
CUTOUTS
100
AcDbLine
10
133.20625000000004
20
32.443250000000106
30
0
11
133.20625000000001
21
19.943250000000155
31
0
0
ARC
5
2E2
100
AcDbEntity
8
CUTOUTS
100
AcDbCircle
10
132.45625000000001
20
19.943250000000148
30
0
40
0.75000000000002842
210
-0
220
0
230
1
100
AcDbArc
50
-90
51
0
0
LINE
5
2E3
100
AcDbEntity
8
CUTOUTS
100
AcDbLine
10
132.45625000000001
20
19.19325000000012
30
0
11
119.95625000000001
21
19.193250000000177
31
0
0
ARC
5
2E4
100
AcDbEntity
8
CUTOUTS
100
AcDbCircle
10
119.95625000000001
20
19.943250000000148
30
0
40
0.74999999999995737
210
0
220
0
230
1
100
AcDbArc
50
180
51
270
0
LINE
5
2E5
100
AcDbEntity
8
CUTOUTS
100
AcDbLine
10
119.20625000000004
20
19.943250000000148
30
0
11
119.20624999999998
21
32.443250000000099
31
0
0
ARC
5
2E6
100
AcDbEntity
8
CUTOUTS
100
AcDbCircle
10
119.95625000000001
20
32.443250000000106
30
0
40
0.75000000000003286
210
0
220
-0
230
1
100
AcDbArc
50
90
51
180
0
LINE
5
2E7
100
AcDbEntity
8
CUTOUTS
100
AcDbLine
10
119.95625000000001
20
33.193250000000134
30
0
11
132.45625000000001
21
33.193250000000056
31
0
0
ARC
5
2E8
100
AcDbEntity
8
CUTOUTS
100
AcDbCircle
10
132.45625000000001
20
32.443250000000106
30
0
40
0.75000000000002842
210
0
220
-0
230
1
100
AcDbArc
50
0
51
90
0
LINE
5
2E9
100
AcDbEntity
8
CUTOUTS
100
AcDbLine
10
-146.94374999999997
20
-43.756750000000139
30
0
11
-146.94374999999982
21
-56.256749999999812
31
0
0
ARC
5
2EA
100
AcDbEntity
8
CUTOUTS
100
AcDbCircle
10
-147.69374999999994
20
-56.256749999999812
30
0
40
0.75000000000008171
210
-0
220
0
230
1
100
AcDbArc
50
-90
51
0
0
LINE
5
2EB
100
AcDbEntity
8
CUTOUTS
100
AcDbLine
10
-147.69374999999994
20
-57.006749999999897
30
0
11
-148.19374999999994
21
-57.006750000000338
31
0
0
ARC
5
2EC
100
AcDbEntity
8
CUTOUTS
100
AcDbCircle
10
-148.19374999999994
20
-56.256749999999812
30
0
40
0.75000000000002842
210
0
220
0
230
1
100
AcDbArc
50
180
51
270
0
LINE
5
2ED
100
AcDbEntity
8
CUTOUTS
100
AcDbLine
10
-148.94374999999997
20
-56.256749999999812
30
0
11
-148.94374999999991
21
-43.756750000000139
31
0
0
ARC
5
2EE
100
AcDbEntity
8
CUTOUTS
100
AcDbCircle
10
-148.19374999999994
20
-43.756750000000139
30
0
40
0.7499999999999396
210
0
220
-0
230
1
100
AcDbArc
50
90
51
180
0
LINE
5
2EF
100
AcDbEntity
8
CUTOUTS
100
AcDbLine
10
-148.19374999999994
20
-43.006750000000196
30
0
11
-147.69374999999994
21
-43.006749999999592
31
0
0
ARC
5
2F0
100
AcDbEntity
8
CUTOUTS
100
AcDbCircle
10
-147.69374999999994
20
-43.756750000000139
30
0
40
0.74999999999995737
210
0
220
-0
230
1
100
AcDbArc
50
0
51
90
0
ARC
5
2F1
100
AcDbEntity
8
CUTOUTS
100
AcDbCircle
10
-123.76875000000001
20
-56.256749999999812
30
0
40
0.74999999999990408
210
0
220
0
230
1
100
AcDbArc
50
180
51
270
0
LINE
5
2F2
100
AcDbEntity
8
CUTOUTS
100
AcDbLine
10
-123.26874999999994
20
-57.006749999999911
30
0
11
-123.76875000000004
21
-57.00674999999972
31
0
0
ARC
5
2F3
100
AcDbEntity
8
CUTOUTS
100
AcDbCircle
10
-123.26874999999994
20
-56.256749999999812
30
0
40
0.75000000000009948
210
-0
220
0
230
1
100
AcDbArc
50
-90
51
0
0
LINE
5
2F4
100
AcDbEntity
8
CUTOUTS
100
AcDbLine
10
-122.51874999999995
20
-43.756750000000139
30
0
11
-122.51874999999984
21
-56.256749999999812
31
0
0
ARC
5
2F5
100
AcDbEntity
8
CUTOUTS
100
AcDbCircle
10
-123.26874999999994
20
-43.756750000000139
30
0
40
0.74999999999999289
210
0
220
-0
230
1
100
AcDbArc
50
0
51
90
0
LINE
5
2F6
100
AcDbEntity
8
CUTOUTS
100
AcDbLine
10
-123.76875000000001
20
-43.006750000000196
30
0
11
-123.26874999999993
21
-43.006750000000139
31
0
0
ARC
5
2F7
100
AcDbEntity
8
CUTOUTS
100
AcDbCircle
10
-123.76875000000001
20
-43.756750000000139
30
0
40
0.7499999999999396
210
0
220
-0
230
1
100
AcDbArc
50
90
51
180
0
LINE
5
2F8
100
AcDbEntity
8
CUTOUTS
100
AcDbLine
10
-124.51874999999994
20
-56.256749999999812
30
0
11
-124.51874999999998
21
-43.756750000000139
31
0
0
LINE
5
2F9
100
AcDbEntity
8
CUTOUTS
100
AcDbLine
10
-153.29374999999993
20
-57.006749999999911
30
0
11
-165.79375000000002
21
-57.006750000000338
31
0
0
ARC
5
2FA
100
AcDbEntity
8
CUTOUTS
100
AcDbCircle
10
-165.79375000000002
20
-56.256749999999812
30
0
40
0.75000000000002842
210
0
220
0
230
1
100
AcDbArc
50
180
51
270
0
LINE
5
2FB
100
AcDbEntity
8
CUTOUTS
100
AcDbLine
10
-166.54375000000005
20
-56.256749999999812
30
0
11
-166.54374999999999
21
-43.756750000000139
31
0
0
ARC
5
2FC
100
AcDbEntity
8
CUTOUTS
100
AcDbCircle
10
-165.79375000000002
20
-43.756750000000139
30
0
40
0.7499999999999396
210
0
220
-0
230
1
100
AcDbArc
50
90
51
180
0
LINE
5
2FD
100
AcDbEntity
8
CUTOUTS
100
AcDbLine
10
-165.79375000000002
20
-43.006750000000196
30
0
11
-153.29374999999993
21
-43.006749999999592
31
0
0
ARC
5
2FE
100
AcDbEntity
8
CUTOUTS
100
AcDbCircle
10
-153.29374999999993
20
-43.756750000000139
30
0
40
0.74999999999992184
210
0
220
-0
230
1
100
AcDbArc
50
0
51
90
0
LINE
5
2FF
100
AcDbEntity
8
CUTOUTS
100
AcDbLine
10
-152.54375000000002
20
-43.756750000000139
30
0
11
-152.54374999999993
21
-56.256749999999812
31
0
0
ARC
5
300
100
AcDbEntity
8
CUTOUTS
100
AcDbCircle
10
-153.29374999999993
20
-56.256749999999812
30
0
40
0.75000000000009948
210
-0
220
0
230
1
100
AcDbArc
50
-90
51
0
0
LINE
5
301
100
AcDbEntity
8
CUTOUTS
100
AcDbLine
10
108.98124999999996
20
14.143250000000087
30
0
11
109.48124999999997
21
14.14325000000014
31
0
0
ARC
5
302
100
AcDbEntity
8
CUTOUTS
100
AcDbCircle
10
109.48124999999997
20
13.393250000000103
30
0
40
0.75000000000002842
210
0
220
-0
230
1
100
AcDbArc
50
0
51
90
0
LINE
5
303
100
AcDbEntity
8
CUTOUTS
100
AcDbLine
10
110.23125
20
13.393250000000103
30
0
11
110.23124999999996
21
0.89325000000012089
31
0
0
ARC
5
304
100
AcDbEntity
8
CUTOUTS
100
AcDbCircle
10
109.48124999999997
20
0.89325000000012089
30
0
40
0.75000000000002842
210
-0
220
0
230
1
100
AcDbArc
50
-90
51
0
0
LINE
5
305
100
AcDbEntity
8
CUTOUTS
100
AcDbLine
10
109.48124999999997
20
0.14325000000009247
30
0
11
108.98124999999996
21
0.14325000000018129
31
0
0
ARC
5
306
100
AcDbEntity
8
CUTOUTS
100
AcDbCircle
10
108.98124999999996
20
0.89325000000012089
30
0
40
0.74999999999995737
210
0
220
0
230
1
100
AcDbArc
50
180
51
270
0
LINE
5
307
100
AcDbEntity
8
CUTOUTS
100
AcDbLine
10
108.23125000000002
20
0.89325000000012089
30
0
11
108.23124999999997
21
13.393250000000103
31
0
0
ARC
5
308
100
AcDbEntity
8
CUTOUTS
100
AcDbCircle
10
108.98124999999996
20
13.393250000000103
30
0
40
0.74999999999998401
210
0
220
-0
230
1
100
AcDbArc
50
90
51
180
0
LINE
5
309
100
AcDbEntity
8
CUTOUTS
100
AcDbLine
10
-170.14375000000004
20
13.393250000000103
30
0
11
-170.14374999999995
21
0.89325000000012089
31
0
0
ARC
5
30A
100
AcDbEntity
8
CUTOUTS
100
AcDbCircle
10
-170.89375000000004
20
0.89325000000012089
30
0
40
0.75000000000002842
210
-0
220
0
230
1
100
AcDbArc
50
-90
51
0
0
LINE
5
30B
100
AcDbEntity
8
CUTOUTS
100
AcDbLine
10
-170.89375000000004
20
0.14325000000009247
30
0
11
-171.39374999999995
21
0.14325000000007471
31
0
0
ARC
5
30C
100
AcDbEntity
8
CUTOUTS
100
AcDbCircle
10
-171.39374999999995
20
0.89325000000012089
30
0
40
0.75000000000002842
210
0
220
0
230
1
100
AcDbArc
50
180
51
270
0
LINE
5
30D
100
AcDbEntity
8
CUTOUTS
100
AcDbLine
10
-172.14374999999995
20
0.89325000000012089
30
0
11
-172.14374999999993
21
13.393250000000103
31
0
0
ARC
5
30E
100
AcDbEntity
8
CUTOUTS
100
AcDbCircle
10
-171.39374999999995
20
13.393250000000103
30
0
40
0.74999999999998401
210
0
220
-0
230
1
100
AcDbArc
50
90
51
180
0
LINE
5
30F
100
AcDbEntity
8
CUTOUTS
100
AcDbLine
10
-171.39374999999995
20
14.143250000000087
30
0
11
-170.89375000000004
21
14.143250000000043
31
0
0
ARC
5
310
100
AcDbEntity
8
CUTOUTS
100
AcDbCircle
10
-170.89375000000004
20
13.393250000000103
30
0
40
0.74999999999999289
210
-0
220
0
230
1
100
AcDbArc
50
0
51
90
0
ARC
5
311
100
AcDbEntity
8
CUTOUTS
100
AcDbCircle
10
-141.98124999999993
20
-43.756750000000153
30
0
40
0.75000000000001066
210
0
220
0
230
1
100
AcDbArc
50
90.000000000008683
51
180
0
LINE
5
312
100
AcDbEntity
8
CUTOUTS
100
AcDbLine
10
-142.73125000000005
20
-56.256749999999798
30
0
11
-142.73124999999996
21
-43.756750000000139
31
0
0
ARC
5
313
100
AcDbEntity
8
CUTOUTS
100
AcDbCircle
10
-141.98124999999993
20
-56.256749999999812
30
0
40
0.75000000000009948
210
0
220
0
230
1
100
AcDbArc
50
180
51
269.9999999999913
0
LINE
5
314
100
AcDbEntity
8
CUTOUTS
100
AcDbLine
10
-129.48125000000002
20
-57.006749999999812
30
0
11
-141.98125000000002
21
-57.006749999999911
31
0
0
ARC
5
315
100
AcDbEntity
8
CUTOUTS
100
AcDbCircle
10
-129.48125000000002
20
-56.256749999999812
30
0
40
0.74999999999999289
210
-0
220
0
230
1
100
AcDbArc
50
-90
51
0
0
LINE
5
316
100
AcDbEntity
8
CUTOUTS
100
AcDbLine
10
-128.73125000000002
20
-43.756750000000139
30
0
11
-128.73125000000005
21
-56.256749999999798
31
0
0
ARC
5
317
100
AcDbEntity
8
CUTOUTS
100
AcDbCircle
10
-129.48125000000002
20
-43.756750000000153
30
0
40
0.75000000000001066
210
0
220
-0
230
1
100
AcDbArc
50
0
51
90
0
LINE
5
318
100
AcDbEntity
8
CUTOUTS
100
AcDbLine
10
-141.98125000000002
20
-43.006750000000139
30
0
11
-129.48125000000002
21
-43.006750000000139
31
0
0
ARC
5
319
100
AcDbEntity
8
CUTOUTS
100
AcDbCircle
10
139.00624999999994
20
-43.756750000000139
30
0
40
0.75000000000001066
210
0
220
-0
230
1
100
AcDbArc
50
90
51
180
0
LINE
5
31A
100
AcDbEntity
8
CUTOUTS
100
AcDbLine
10
138.25624999999977
20
-56.256749999999812
30
0
11
138.25624999999991
21
-43.756750000000139
31
0
0
ARC
5
31B
100
AcDbEntity
8
CUTOUTS
100
AcDbCircle
10
139.00624999999994
20
-56.256749999999812
30
0
40
0.75000000000017053
210
0
220
0
230
1
100
AcDbArc
50
180
51
270
0
LINE
5
31C
100
AcDbEntity
8
CUTOUTS
100
AcDbLine
10
151.50624999999994
20
-57.006749999999897
30
0
11
139.00624999999994
21
-57.006749999999982
31
0
0
ARC
5
31D
100
AcDbEntity
8
CUTOUTS
100
AcDbCircle
10
151.50624999999994
20
-56.256749999999812
30
0
40
0.75000000000008171
210
-0
220
0
230
1
100
AcDbArc
50
-90
51
0
0
LINE
5
31E
100
AcDbEntity
8
CUTOUTS
100
AcDbLine
10
152.25624999999997
20
-43.756750000000139
30
0
11
152.25625000000005
21
-56.256749999999812
31
0
0
ARC
5
31F
100
AcDbEntity
8
CUTOUTS
100
AcDbCircle
10
151.50624999999994
20
-43.756750000000139
30
0
40
0.75000000000002842
210
0
220
-0
230
1
100
AcDbArc
50
0
51
90
0
LINE
5
320
100
AcDbEntity
8
CUTOUTS
100
AcDbLine
10
139.00624999999994
20
-43.006750000000125
30
0
11
151.50624999999994
21
-43.00675000000011
31
0
0
ARC
5
321
100
AcDbEntity
8
CUTOUTS
100
AcDbCircle
10
119.95625000000001
20
-43.756750000000139
30
0
40
0.75000000000001066
210
0
220
-0
230
1
100
AcDbArc
50
90
51
180
0
LINE
5
322
100
AcDbEntity
8
CUTOUTS
100
AcDbLine
10
119.20625000000018
20
-56.256749999999812
30
0
11
119.20624999999998
21
-43.756750000000139
31
0
0
ARC
5
323
100
AcDbEntity
8
CUTOUTS
100
AcDbCircle
10
119.95625000000001
20
-56.256749999999812
30
0
40
0.74999999999981526
210
0
220
0
230
1
100
AcDbArc
50
180
51
270
0
LINE
5
324
100
AcDbEntity
8
CUTOUTS
100
AcDbLine
10
132.45625000000001
20
-57.006749999999897
30
0
11
119.95625000000001
21
-57.006749999999627
31
0
0
ARC
5
325
100
AcDbEntity
8
CUTOUTS
100
AcDbCircle
10
132.45625000000001
20
-56.256749999999812
30
0
40
0.75000000000008171
210
-0
220
0
230
1
100
AcDbArc
50
-90
51
0
0
LINE
5
326
100
AcDbEntity
8
CUTOUTS
100
AcDbLine
10
133.20625000000001
20
-43.756750000000139
30
0
11
133.2062500000001
21
-56.256749999999812
31
0
0
ARC
5
327
100
AcDbEntity
8
CUTOUTS
100
AcDbCircle
10
132.45625000000001
20
-43.756750000000139
30
0
40
0.74999999999999289
210
0
220
-0
230
1
100
AcDbArc
50
0
51
90
0
LINE
5
328
100
AcDbEntity
8
CUTOUTS
100
AcDbLine
10
119.95625000000001
20
-43.006750000000125
30
0
11
132.45625000000001
21
-43.006750000000139
31
0
0
ARC
5
329
100
AcDbEntity
8
CUTOUTS
100
AcDbCircle
10
170.55624999999995
20
-56.256749999999812
30
0
40
0.75000000000009948
210
-0
220
0
230
1
100
AcDbArc
50
-90
51
0
0
LINE
5
32A
100
AcDbEntity
8
CUTOUTS
100
AcDbLine
10
171.30624999999984
20
-43.756750000000139
30
0
11
171.30625000000006
21
-56.256749999999812
31
0
0
ARC
5
32B
100
AcDbEntity
8
CUTOUTS
100
AcDbCircle
10
170.55624999999995
20
-43.756750000000139
30
0
40
0.74999999999988631
210
0
220
-0
230
1
100
AcDbArc
50
0
51
90
0
LINE
5
32C
100
AcDbEntity
8
CUTOUTS
100
AcDbLine
10
158.05624999999995
20
-43.006750000000125
30
0
11
170.55624999999995
21
-43.006750000000252
31
0
0
ARC
5
32D
100
AcDbEntity
8
CUTOUTS
100
AcDbCircle
10
158.05624999999995
20
-43.756750000000139
30
0
40
0.75000000000001066
210
0
220
-0
230
1
100
AcDbArc
50
90
51
180
0
LINE
5
32E
100
AcDbEntity
8
CUTOUTS
100
AcDbLine
10
157.30625000000001
20
-56.256749999999812
30
0
11
157.30624999999992
21
-43.756750000000139
31
0
0
ARC
5
32F
100
AcDbEntity
8
CUTOUTS
100
AcDbCircle
10
158.05624999999995
20
-56.256749999999812
30
0
40
0.74999999999995737
210
0
220
0
230
1
100
AcDbArc
50
180
51
270
0
LINE
5
330
100
AcDbEntity
8
CUTOUTS
100
AcDbLine
10
170.55624999999995
20
-57.006749999999911
30
0
11
158.05624999999995
21
-57.006749999999769
31
0
0
ARC
5
331
100
AcDbEntity
8
CUTOUTS
100
AcDbCircle
10
108.98124999999996
20
-43.756750000000139
30
0
40
0.7499999999999396
210
0
220
-0
230
1
100
AcDbArc
50
90
51
180
0
LINE
5
332
100
AcDbEntity
8
CUTOUTS
100
AcDbLine
10
108.23124999999987
20
-56.256749999999812
30
0
11
108.23125000000002
21
-43.756750000000139
31
0
0
ARC
5
333
100
AcDbEntity
8
CUTOUTS
100
AcDbCircle
10
108.98124999999996
20
-56.256749999999812
30
0
40
0.75000000000009948
210
0
220
0
230
1
100
AcDbArc
50
180
51
270
0
LINE
5
334
100
AcDbEntity
8
CUTOUTS
100
AcDbLine
10
109.48124999999997
20
-57.006749999999826
30
0
11
108.98124999999996
21
-57.006749999999911
31
0
0
ARC
5
335
100
AcDbEntity
8
CUTOUTS
100
AcDbCircle
10
109.48124999999997
20
-56.256749999999812
30
0
40
0.75000000000001066
210
-0
220
0
230
1
100
AcDbArc
50
-90
51
0
0
LINE
5
336
100
AcDbEntity
8
CUTOUTS
100
AcDbLine
10
110.23124999999996
20
-43.756750000000139
30
0
11
110.23124999999996
21
-56.256749999999812
31
0
0
ARC
5
337
100
AcDbEntity
8
CUTOUTS
100
AcDbCircle
10
109.48124999999997
20
-43.756750000000139
30
0
40
0.74999999999999289
210
0
220
-0
230
1
100
AcDbArc
50
0
51
90
0
LINE
5
338
100
AcDbEntity
8
CUTOUTS
100
AcDbLine
10
108.98124999999996
20
-43.006750000000196
30
0
11
109.48124999999997
21
-43.006750000000139
31
0
0
LINE
5
339
100
AcDbEntity
8
CUTOUTS
100
AcDbLine
10
90.631249999999781
20
-56.256749999999812
30
0
11
90.631250000000023
21
-43.756750000000139
31
0
0
ARC
5
33A
100
AcDbEntity
8
CUTOUTS
100
AcDbCircle
10
91.381249999999952
20
-43.756750000000139
30
0
40
0.7499999999999396
210
0
220
-0
230
1
100
AcDbArc
50
90
51
180
0
LINE
5
33B
100
AcDbEntity
8
CUTOUTS
100
AcDbLine
10
91.381249999999952
20
-43.006750000000196
30
0
11
103.88124999999995
21
-43.006750000000139
31
0
0
ARC
5
33C
100
AcDbEntity
8
CUTOUTS
100
AcDbCircle
10
103.88124999999995
20
-43.756750000000139
30
0
40
0.74999999999999289
210
0
220
-0
230
1
100
AcDbArc
50
0
51
90
0
LINE
5
33D
100
AcDbEntity
8
CUTOUTS
100
AcDbLine
10
104.63124999999994
20
-43.756750000000139
30
0
11
104.63124999999994
21
-56.256749999999812
31
0
0
ARC
5
33E
100
AcDbEntity
8
CUTOUTS
100
AcDbCircle
10
103.88124999999995
20
-56.256749999999812
30
0
40
0.75000000000001066
210
-0
220
0
230
1
100
AcDbArc
50
-90
51
0
0
LINE
5
33F
100
AcDbEntity
8
CUTOUTS
100
AcDbLine
10
103.88124999999995
20
-57.006749999999826
30
0
11
91.381249999999952
21
-57.006749999999982
31
0
0
ARC
5
340
100
AcDbEntity
8
CUTOUTS
100
AcDbCircle
10
91.381249999999952
20
-56.256749999999812
30
0
40
0.75000000000017053
210
0
220
0
230
1
100
AcDbArc
50
180
51
270
0
ARC
5
341
100
AcDbEntity
8
CUTOUTS
100
AcDbCircle
10
85.78125
20
-43.756750000000139
30
0
40
0.7499999999999396
210
0
220
-0
230
1
100
AcDbArc
50
90
51
180
0
LINE
5
342
100
AcDbEntity
8
CUTOUTS
100
AcDbLine
10
85.031249999999829
20
-56.256749999999812
30
0
11
85.031250000000085
21
-43.756750000000139
31
0
0
ARC
5
343
100
AcDbEntity
8
CUTOUTS
100
AcDbCircle
10
85.78125
20
-56.256749999999812
30
0
40
0.75000000000017053
210
0
220
0
230
1
100
AcDbArc
50
180
51
270
0
LINE
5
344
100
AcDbEntity
8
CUTOUTS
100
AcDbLine
10
86.28125
20
-57.006749999999826
30
0
11
85.78125
21
-57.006749999999982
31
0
0
ARC
5
345
100
AcDbEntity
8
CUTOUTS
100
AcDbCircle
10
86.28125
20
-56.256749999999812
30
0
40
0.75000000000001066
210
-0
220
0
230
1
100
AcDbArc
50
-90
51
0
0
LINE
5
346
100
AcDbEntity
8
CUTOUTS
100
AcDbLine
10
87.03125
20
-43.756750000000139
30
0
11
87.031250000000028
21
-56.256749999999812
31
0
0
ARC
5
347
100
AcDbEntity
8
CUTOUTS
100
AcDbCircle
10
86.28125
20
-43.756750000000139
30
0
40
0.74999999999999289
210
0
220
-0
230
1
100
AcDbArc
50
0
51
90
0
LINE
5
348
100
AcDbEntity
8
CUTOUTS
100
AcDbLine
10
85.78125
20
-43.006750000000196
30
0
11
86.28125
21
-43.006750000000139
31
0
0
ARC
5
349
100
AcDbEntity
8
CUTOUTS
100
AcDbCircle
10
67.568749999999966
20
-43.756750000000139
30
0
40
0.74999999999997513
210
0
220
-0
230
1
100
AcDbArc
50
90
51
180
0
LINE
5
34A
100
AcDbEntity
8
CUTOUTS
100
AcDbLine
10
66.81874999999998
20
-56.256749999999798
30
0
11
66.818750000000023
21
-43.756750000000139
31
0
0
ARC
5
34B
100
AcDbEntity
8
CUTOUTS
100
AcDbCircle
10
67.568749999999966
20
-56.256749999999812
30
0
40
0.74999999999999289
210
0
220
0
230
1
100
AcDbArc
50
180
51
270
0
LINE
5
34C
100
AcDbEntity
8
CUTOUTS
100
AcDbLine
10
80.068749999999966
20
-57.006749999999791
30
0
11
67.568749999999966
21
-57.006749999999812
31
0
0
ARC
5
34D
100
AcDbEntity
8
CUTOUTS
100
AcDbCircle
10
80.068749999999966
20
-56.256749999999812
30
0
40
0.74999999999997513
210
-0
220
0
230
1
100
AcDbArc
50
-90
51
0
0
LINE
5
34E
100
AcDbEntity
8
CUTOUTS
100
AcDbLine
10
80.818749999999966
20
-43.756750000000139
30
0
11
80.818749999999937
21
-56.256749999999798
31
0
0
ARC
5
34F
100
AcDbEntity
8
CUTOUTS
100
AcDbCircle
10
80.068749999999966
20
-43.756750000000139
30
0
40
0.74999999999999289
210
-0
220
0
230
1
100
AcDbArc
50
0
51
90
0
LINE
5
350
100
AcDbEntity
8
CUTOUTS
100
AcDbLine
10
67.568749999999966
20
-43.00675000000016
30
0
11
80.068749999999966
21
-43.006750000000139
31
0
0
ARC
5
351
100
AcDbEntity
8
CUTOUTS
100
AcDbCircle
10
61.356249999999974
20
-43.756750000000139
30
0
40
0.75000000000001066
210
0
220
-0
230
1
100
AcDbArc
50
90
51
180
0
LINE
5
352
100
AcDbEntity
8
CUTOUTS
100
AcDbLine
10
60.606249999999946
20
-56.256749999999812
30
0
11
60.606249999999982
21
-43.756750000000139
31
0
0
ARC
5
353
100
AcDbEntity
8
CUTOUTS
100
AcDbCircle
10
61.356249999999974
20
-56.256749999999812
30
0
40
0.75000000000002842
210
0
220
0
230
1
100
AcDbArc
50
180
51
270
0
LINE
5
354
100
AcDbEntity
8
CUTOUTS
100
AcDbLine
10
61.856249999999982
20
-57.006749999999826
30
0
11
61.356249999999974
21
-57.00674999999984
31
0
0
ARC
5
355
100
AcDbEntity
8
CUTOUTS
100
AcDbCircle
10
61.856249999999982
20
-56.256749999999812
30
0
40
0.75000000000001066
210
-0
220
0
230
1
100
AcDbArc
50
-90
51
0
0
LINE
5
356
100
AcDbEntity
8
CUTOUTS
100
AcDbLine
10
62.606249999999974
20
-43.756750000000139
30
0
11
62.60625000000001
21
-56.256749999999812
31
0
0
ARC
5
357
100
AcDbEntity
8
CUTOUTS
100
AcDbCircle
10
61.856249999999982
20
-43.756750000000139
30
0
40
0.74999999999999289
210
0
220
-0
230
1
100
AcDbArc
50
0
51
90
0
LINE
5
358
100
AcDbEntity
8
CUTOUTS
100
AcDbLine
10
61.356249999999974
20
-43.006750000000125
30
0
11
61.856249999999982
21
-43.006750000000139
31
0
0
ARC
5
359
100
AcDbEntity
8
CUTOUTS
100
AcDbCircle
10
56.256249999999994
20
-43.756750000000139
30
0
40
0.74999999999999289
210
0
220
-0
230
1
100
AcDbArc
50
0
51
90
0
LINE
5
35A
100
AcDbEntity
8
CUTOUTS
100
AcDbLine
10
43.756249999999994
20
-43.006750000000196
30
0
11
56.256249999999994
21
-43.006750000000139
31
0
0
ARC
5
35B
100
AcDbEntity
8
CUTOUTS
100
AcDbCircle
10
43.756249999999994
20
-43.756750000000139
30
0
40
0.7499999999999396
210
0
220
-0
230
1
100
AcDbArc
50
90
51
180
0
LINE
5
35C
100
AcDbEntity
8
CUTOUTS
100
AcDbLine
10
43.006249999999824
20
-56.256749999999812
30
0
11
43.006250000000072
21
-43.756750000000139
31
0
0
ARC
5
35D
100
AcDbEntity
8
CUTOUTS
100
AcDbCircle
10
43.756249999999994
20
-56.256749999999812
30
0
40
0.75000000000017053
210
0
220
0
230
1
100
AcDbArc
50
180
51
270
0
LINE
5
35E
100
AcDbEntity
8
CUTOUTS
100
AcDbLine
10
56.256249999999994
20
-57.00674999999984
30
0
11
43.756249999999994
21
-57.006749999999982
31
0
0
ARC
5
35F
100
AcDbEntity
8
CUTOUTS
100
AcDbCircle
10
56.256249999999994
20
-56.256749999999812
30
0
40
0.75000000000002842
210
-0
220
0
230
1
100
AcDbArc
50
-90
51
0
0
LINE
5
360
100
AcDbEntity
8
CUTOUTS
100
AcDbLine
10
57.006249999999987
20
-43.756750000000139
30
0
11
57.006250000000023
21
-56.256749999999812
31
0
0
LINE
5
361
100
AcDbEntity
8
CUTOUTS
100
AcDbLine
10
38.656249999999979
20
-57.006749999999826
30
0
11
38.156250000000007
21
-57.006750000000054
31
0
0
ARC
5
362
100
AcDbEntity
8
CUTOUTS
100
AcDbCircle
10
38.156250000000007
20
-56.256749999999812
30
0
40
0.75000000000024158
210
0
220
0
230
1
100
AcDbArc
50
180
51
270
0
LINE
5
363
100
AcDbEntity
8
CUTOUTS
100
AcDbLine
10
37.406249999999766
20
-56.256749999999812
30
0
11
37.40625000000005
21
-43.756750000000139
31
0
0
ARC
5
364
100
AcDbEntity
8
CUTOUTS
100
AcDbCircle
10
38.156250000000007
20
-43.756750000000139
30
0
40
0.7499999999999396
210
0
220
-0
230
1
100
AcDbArc
50
90
51
180
0
LINE
5
365
100
AcDbEntity
8
CUTOUTS
100
AcDbLine
10
38.156250000000007
20
-43.006750000000196
30
0
11
38.656249999999979
21
-43.00675000000011
31
0
0
ARC
5
366
100
AcDbEntity
8
CUTOUTS
100
AcDbCircle
10
38.656249999999979
20
-43.756750000000139
30
0
40
0.75000000000002842
210
0
220
-0
230
1
100
AcDbArc
50
0
51
90
0
LINE
5
367
100
AcDbEntity
8
CUTOUTS
100
AcDbLine
10
39.406250000000007
20
-43.756750000000139
30
0
11
39.406250000000007
21
-56.256749999999812
31
0
0
ARC
5
368
100
AcDbEntity
8
CUTOUTS
100
AcDbCircle
10
38.656249999999979
20
-56.256749999999812
30
0
40
0.75000000000001066
210
-0
220
0
230
1
100
AcDbArc
50
-90
51
0
0
ARC
5
369
100
AcDbEntity
8
CUTOUTS
100
AcDbCircle
10
-61.343750000000021
20
-50.006749999999478
30
0
40
3.5000000000000058
210
0
220
0
230
1
100
AcDbArc
50
221.81031489577515
51
318.18968510422445
0
ARC
5
36A
100
AcDbEntity
8
CUTOUTS
100
AcDbCircle
10
-57.430631039375029
20
-53.506749999999442
30
0
40
1.7500000000000071
210
0
220
-0
230
1
100
AcDbArc
50
90
51
138.18968510422417
0
LINE
5
36B
100
AcDbEntity
8
CUTOUTS
100
AcDbLine
10
-51.40000000000002
20
-51.756749999999485
30
0
11
-57.430631039375029
21
-51.756749999999428
31
0
0
ARC
5
36C
100
AcDbEntity
8
CUTOUTS
100
AcDbCircle
10
-51.40000000000002
20
-50.006749999999478
30
0
40
1.7500000000000071
210
-0
220
0
230
1
100
AcDbArc
50
-90
51
90
0
LINE
5
36D
100
AcDbEntity
8
CUTOUTS
100
AcDbLine
10
-57.430631039375029
20
-48.256749999999528
30
0
11
-51.40000000000002
21
-48.256749999999471
31
0
0
ARC
5
36E
100
AcDbEntity
8
CUTOUTS
100
AcDbCircle
10
-57.430631039375029
20
-46.506749999999514
30
0
40
1.75000000000026
210
0
220
0
230
1
100
AcDbArc
50
221.81031489577597
51
270
0
ARC
5
36F
100
AcDbEntity
8
CUTOUTS
100
AcDbCircle
10
-61.343750000000021
20
-50.006749999999478
30
0
40
3.4999999999999796
210
0
220
-0
230
1
100
AcDbArc
50
41.810314895775548
51
138.18968510422428
0
ARC
5
370
100
AcDbEntity
8
CUTOUTS
100
AcDbCircle
10
-65.256868960625027
20
-46.506749999999514
30
0
40
1.7500000000000249
210
-0
220
0
230
1
100
AcDbArc
50
270
51
318.18968510422496
0
LINE
5
371
100
AcDbEntity
8
CUTOUTS
100
AcDbLine
10
-71.287500000000023
20
-48.256749999999485
30
0
11
-65.256868960625027
21
-48.256749999999542
31
0
0
ARC
5
372
100
AcDbEntity
8
CUTOUTS
100
AcDbCircle
10
-71.287500000000023
20
-50.006749999999478
30
0
40
1.7499999999999893
210
0
220
-0
230
1
100
AcDbArc
50
90
51
270
0
LINE
5
373
100
AcDbEntity
8
CUTOUTS
100
AcDbLine
10
-65.256868960625027
20
-51.756749999999414
30
0
11
-71.287500000000023
21
-51.756749999999471
31
0
0
ARC
5
374
100
AcDbEntity
8
CUTOUTS
100
AcDbCircle
10
-65.256868960625027
20
-53.506749999999442
30
0
40
1.7500000000002467
210
0
220
-0
230
1
100
AcDbArc
50
41.810314895776443
51
90
0
ARC
5
375
100
AcDbEntity
8
CUTOUTS
100
AcDbCircle
10
-4.481868960624027
20
-53.506749999999442
30
0
40
1.7499999999995051
210
0
220
-0
230
1
100
AcDbArc
50
41.810314895798157
51
90.000000000000043
0
LINE
5
376
100
AcDbEntity
8
CUTOUTS
100
AcDbLine
10
-4.481868960624027
20
-51.756749999999428
30
0
11
-10.512500000000031
21
-51.756749999999471
31
0
0
ARC
5
377
100
AcDbEntity
8
CUTOUTS
100
AcDbCircle
10
-10.512500000000031
20
-50.006749999999478
30
0
40
1.7499999999999893
210
0
220
-0
230
1
100
AcDbArc
50
90
51
270
0
LINE
5
378
100
AcDbEntity
8
CUTOUTS
100
AcDbLine
10
-10.512500000000031
20
-48.256749999999485
30
0
11
-4.481868960624027
21
-48.256749999999542
31
0
0
ARC
5
379
100
AcDbEntity
8
CUTOUTS
100
AcDbCircle
10
-4.481868960624027
20
-46.506749999999514
30
0
40
1.7500000000000249
210
0
220
0
230
1
100
AcDbArc
50
269.99999999999994
51
318.18968510420109
0
ARC
5
37A
100
AcDbEntity
8
CUTOUTS
100
AcDbCircle
10
-0.56875000000005116
20
-50.006749999999478
30
0
40
3.4999999999999947
210
0
220
-0
230
1
100
AcDbArc
50
41.810314895774987
51
138.18968510422485
0
ARC
5
37B
100
AcDbEntity
8
CUTOUTS
100
AcDbCircle
10
3.3443689606249905
20
-46.506749999999514
30
0
40
1.7500000000002849
210
0
220
0
230
1
100
AcDbArc
50
221.81031489577603
51
270
0
LINE
5
37C
100
AcDbEntity
8
CUTOUTS
100
AcDbLine
10
3.3443689606249905
20
-48.256749999999528
30
0
11
9.375
21
-48.256749999999471
31
0
0
ARC
5
37D
100
AcDbEntity
8
CUTOUTS
100
AcDbCircle
10
9.375
20
-50.006749999999478
30
0
40
1.7500000000000071
210
-0
220
0
230
1
100
AcDbArc
50
-90
51
90
0
LINE
5
37E
100
AcDbEntity
8
CUTOUTS
100
AcDbLine
10
9.375
20
-51.756749999999485
30
0
11
3.3443689606249905
21
-51.756749999999428
31
0
0
ARC
5
37F
100
AcDbEntity
8
CUTOUTS
100
AcDbCircle
10
3.3443689606249905
20
-53.506749999999442
30
0
40
1.7500000000000071
210
0
220
-0
230
1
100
AcDbArc
50
89.999999999999986
51
138.1896851042236
0
ARC
5
380
100
AcDbEntity
8
CUTOUTS
100
AcDbCircle
10
-0.56875000000005116
20
-50.006749999999478
30
0
40
3.4999999999999805
210
0
220
0
230
1
100
AcDbArc
50
221.81031489577555
51
318.18968510422513
0
ARC
5
381
100
AcDbEntity
8
CUTOUTS
100
AcDbCircle
10
-85.356250000000031
20
-42.756749999999727
30
0
40
0.74999999999999289
210
0
220
-0
230
1
100
AcDbArc
50
0
51
90
0
LINE
5
382
100
AcDbEntity
8
CUTOUTS
100
AcDbLine
10
-90.856249999999932
20
-42.006749999999698
30
0
11
-85.356250000000031
21
-42.006749999999741
31
0
0
ARC
5
383
100
AcDbEntity
8
CUTOUTS
100
AcDbCircle
10
-90.856249999999932
20
-42.756749999999727
30
0
40
0.75000000000002842
210
0
220
-0
230
1
100
AcDbArc
50
90
51
180
0
LINE
5
384
100
AcDbEntity
8
CUTOUTS
100
AcDbLine
10
-91.60624999999996
20
-57.256750000000203
30
0
11
-91.60624999999996
21
-42.756749999999712
31
0
0
ARC
5
385
100
AcDbEntity
8
CUTOUTS
100
AcDbCircle
10
-90.856249999999932
20
-57.256750000000203
30
0
40
0.75000000000002842
210
0
220
0
230
1
100
AcDbArc
50
180
51
270
0
LINE
5
386
100
AcDbEntity
8
CUTOUTS
100
AcDbLine
10
-85.356249999999932
20
-58.006749999999755
30
0
11
-90.856249999999932
21
-58.006750000000231
31
0
0
ARC
5
387
100
AcDbEntity
8
CUTOUTS
100
AcDbCircle
10
-85.356249999999932
20
-57.256750000000203
30
0
40
0.74999999999954881
210
-0
220
0
230
1
100
AcDbArc
50
-90
51
0
0
LINE
5
388
100
AcDbEntity
8
CUTOUTS
100
AcDbLine
10
-84.606250000000045
20
-42.756749999999712
30
0
11
-84.606250000000372
21
-57.256750000000203
31
0
0
ARC
5
389
100
AcDbEntity
8
CUTOUTS
100
AcDbCircle
10
-158.65000000000003
20
-37.206749999999786
30
0
40
0.74999999999990408
210
0
220
0
230
1
100
AcDbArc
50
180
51
270
0
LINE
5
38A
100
AcDbEntity
8
CUTOUTS
100
AcDbLine
10
-146.15000000000003
20
-37.956749999999744
30
0
11
-158.65000000000003
21
-37.956749999999687
31
0
0
ARC
5
38B
100
AcDbEntity
8
CUTOUTS
100
AcDbCircle
10
-146.15000000000003
20
-37.206749999999786
30
0
40
0.74999999999995737
210
-0
220
0
230
1
100
AcDbArc
50
-90
51
0
0
LINE
5
38C
100
AcDbEntity
8
CUTOUTS
100
AcDbLine
10
-145.40000000000001
20
-24.706749999999928
30
0
11
-145.40000000000009
21
-37.206749999999786
31
0
0
ARC
5
38D
100
AcDbEntity
8
CUTOUTS
100
AcDbCircle
10
-146.15000000000003
20
-24.706749999999928
30
0
40
0.75000000000002842
210
0
220
-0
230
1
100
AcDbArc
50
0
51
90
0
LINE
5
38E
100
AcDbEntity
8
CUTOUTS
100
AcDbLine
10
-158.65000000000003
20
-23.956749999999989
30
0
11
-146.15000000000003
21
-23.9567499999999
31
0
0
ARC
5
38F
100
AcDbEntity
8
CUTOUTS
100
AcDbCircle
10
-158.65000000000003
20
-24.706749999999928
30
0
40
0.7499999999999396
210
0
220
-0
230
1
100
AcDbArc
50
90
51
180
0
LINE
5
390
100
AcDbEntity
8
CUTOUTS
100
AcDbLine
10
-159.39999999999992
20
-37.206749999999786
30
0
11
-159.39999999999998
21
-24.706749999999928
31
0
0
LINE
5
391
100
AcDbEntity
8
CUTOUTS
100
AcDbLine
10
117.95625000000001
20
40.552500000000151
30
0
11
168.55625000000001
21
40.552500000000137
31
0
0
ARC
5
392
100
AcDbEntity
8
CUTOUTS
100
AcDbCircle
10
168.55625000000001
20
39.802499999999966
30
0
40
0.75000000000017053
210
0
220
-0
230
1
100
AcDbArc
50
0
51
90
0
LINE
5
393
100
AcDbEntity
8
CUTOUTS
100
AcDbLine
10
169.30625000000018
20
39.802499999999981
30
0
11
169.30624999999995
21
36.374500000000218
31
0
0
ARC
5
394
100
AcDbEntity
8
CUTOUTS
100
AcDbCircle
10
168.55625000000001
20
36.37450000000031
30
0
40
0.75000000000012168
210
-0
220
0
230
1
100
AcDbArc
50
270
51
360
0
LINE
5
395
100
AcDbEntity
8
CUTOUTS
100
AcDbLine
10
168.55625000000001
20
35.624500000000189
30
0
11
117.95625000000001
21
35.624500000000118
31
0
0
ARC
5
396
100
AcDbEntity
8
CUTOUTS
100
AcDbCircle
10
117.95625000000001
20
36.374500000000111
30
0
40
0.74999999999999289
210
0
220
0
230
1
100
AcDbArc
50
180
51
270.00000000000108
0
LINE
5
397
100
AcDbEntity
8
CUTOUTS
100
AcDbLine
10
117.20625000000001
20
36.374500000000118
30
0
11
117.20625000000001
21
39.80250000000008
31
0
0
ARC
5
398
100
AcDbEntity
8
CUTOUTS
100
AcDbCircle
10
117.95625000000001
20
39.802500000000158
30
0
40
0.74999999999999289
210
0
220
-0
230
1
100
AcDbArc
50
90
51
180
0
LINE
5
399
100
AcDbEntity
8
PERIMETER
100
AcDbLine
10
25.956249999999983
20
59.530750000000126
30
0
11
-49.768750000000033
21
59.53075000000014
31
0
0
ARC
5
39A
100
AcDbEntity
8
PERIMETER
100
AcDbCircle
10
-49.768750000000033
20
62.530750000000111
30
0
40
3.0000000000000071
210
0
220
0
230
1
100
AcDbArc
50
180
51
270
0
LINE
5
39B
100
AcDbEntity
8
PERIMETER
100
AcDbLine
10
-52.76875000000004
20
62.530750000000111
30
0
11
-52.768750000000026
21
63.667750000000112
31
0
0
ARC
5
39C
100
AcDbEntity
8
PERIMETER
100
AcDbCircle
10
-54.768750000000033
20
63.667750000000112
30
0
40
2.0000000000000107
210
0
220
-0
230
1
100
AcDbArc
50
0
51
90
0
LINE
5
39D
100
AcDbEntity
8
PERIMETER
100
AcDbLine
10
-54.768750000000033
20
65.667750000000126
30
0
11
-155.20624999999993
21
65.66775000000014
31
0
0
ARC
5
39E
100
AcDbEntity
8
PERIMETER
100
AcDbCircle
10
-155.20624999999993
20
63.667750000000147
30
0
40
2.0000000000000018
210
0
220
-0
230
1
100
AcDbArc
50
90
51
180
0
LINE
5
39F
100
AcDbEntity
8
PERIMETER
100
AcDbLine
10
-157.20624999999993
20
63.667750000000126
30
0
11
-157.20624999999993
21
62.530750000000097
31
0
0
ARC
5
3A0
100
AcDbEntity
8
PERIMETER
100
AcDbCircle
10
-160.20624999999993
20
62.530750000000111
30
0
40
3.0000000000000071
210
-0
220
0
230
1
100
AcDbArc
50
270
51
360
0
LINE
5
3A1
100
AcDbEntity
8
PERIMETER
100
AcDbLine
10
-160.20624999999993
20
59.530750000000111
30
0
11
-172.28125000000003
21
59.53075000000014
31
0
0
ARC
5
3A2
100
AcDbEntity
8
PERIMETER
100
AcDbCircle
10
-172.28125000000003
20
57.980750000000057
30
0
40
1.5500000000000824
210
0
220
-0
230
1
100
AcDbArc
50
90
51
180
0
LINE
5
3A3
100
AcDbEntity
8
PERIMETER
100
AcDbLine
10
-173.8312500000001
20
57.98075000000015
30
0
11
-173.83125000000004
21
-57.981749999999685
31
0
0
ARC
5
3A4
100
AcDbEntity
8
PERIMETER
100
AcDbCircle
10
-172.28125000000003
20
-57.981749999999707
30
0
40
1.5500000000000114
210
0
220
0
230
1
100
AcDbArc
50
180
51
270
0
LINE
5
3A5
100
AcDbEntity
8
PERIMETER
100
AcDbLine
10
-172.28125000000003
20
-59.531749999999697
30
0
11
-160.20674999999994
21
-59.531749999999981
31
0
0
ARC
5
3A6
100
AcDbEntity
8
PERIMETER
100
AcDbCircle
10
-160.20674999999994
20
-62.531750000000201
30
0
40
3.0000000000000071
210
0
220
-0
230
1
100
AcDbArc
50
0
51
90
0
LINE
5
3A7
100
AcDbEntity
8
PERIMETER
100
AcDbLine
10
-157.20674999999994
20
-62.531750000000201
30
0
11
-157.20674999999994
21
-63.668749999999946
31
0
0
ARC
5
3A8
100
AcDbEntity
8
PERIMETER
100
AcDbCircle
10
-155.20675000000003
20
-63.668749999999946
30
0
40
1.9999999999999041
210
0
220
0
230
1
100
AcDbArc
50
180
51
270
0
LINE
5
3A9
100
AcDbEntity
8
PERIMETER
100
AcDbLine
10
-155.20675000000003
20
-65.668749999999847
30
0
11
-98.200249999999926
21
-65.668749999999747
31
0
0
ARC
5
3AA
100
AcDbEntity
8
PERIMETER
100
AcDbCircle
10
-98.200249999999926
20
-63.668749999999946
30
0
40
1.9999999999997975
210
-0
220
0
230
1
100
AcDbArc
50
-90
51
0
0
LINE
5
3AB
100
AcDbEntity
8
PERIMETER
100
AcDbLine
10
-96.200250000000125
20
-63.668749999999932
30
0
11
-96.200249999999926
21
-62.531750000000187
31
0
0
ARC
5
3AC
100
AcDbEntity
8
PERIMETER
100
AcDbCircle
10
-93.200249999999926
20
-62.531750000000187
30
0
40
3.0000000000000071
210
0
220
-0
230
1
100
AcDbArc
50
90
51
180
0
LINE
5
3AD
100
AcDbEntity
8
PERIMETER
100
AcDbLine
10
-93.200249999999926
20
-59.531750000000173
30
0
11
-64.236840151185021
21
-59.531749999999981
31
0
0
ARC
5
3AE
100
AcDbEntity
8
PERIMETER
100
AcDbCircle
10
-64.236840151185021
20
-53.531749999999505
30
0
40
6.0000000000004761
210
-0
220
0
230
1
100
AcDbArc
50
270
51
313.35756635702427
0
ARC
5
3AF
100
AcDbEntity
8
PERIMETER
100
AcDbCircle
10
-55.99824955570103
20
-62.256750000000252
30
0
40
5.9999999999999964
210
0
220
-0
230
1
100
AcDbArc
50
90
51
133.35756635701773
0
LINE
5
3B0
100
AcDbEntity
8
PERIMETER
100
AcDbLine
10
-55.99824955570103
20
-56.25675000000026
30
0
11
-38.706250000000026
21
-56.256749999999812
31
0
0
ARC
5
3B1
100
AcDbEntity
8
PERIMETER
100
AcDbCircle
10
-38.706250000000026
20
-55.506750000000252
30
0
40
0.74999999999956657
210
-0
220
0
230
1
100
AcDbArc
50
-90
51
0
0
LINE
5
3B2
100
AcDbEntity
8
PERIMETER
100
AcDbLine
10
-37.956250000000452
20
-55.506750000000231
30
0
11
-37.956250000000026
21
-43.756750000000139
31
0
0
ARC
5
3B3
100
AcDbEntity
8
PERIMETER
100
AcDbCircle
10
-37.206250000000018
20
-43.756750000000139
30
0
40
0.7499999999999396
210
0
220
-0
230
1
100
AcDbArc
50
90
51
180
0
LINE
5
3B4
100
AcDbEntity
8
PERIMETER
100
AcDbLine
10
-37.206250000000018
20
-43.006750000000196
30
0
11
-24.706250000000018
21
-43.006749999999592
31
0
0
ARC
5
3B5
100
AcDbEntity
8
PERIMETER
100
AcDbCircle
10
-24.706250000000018
20
-43.756750000000139
30
0
40
0.75000000000002842
210
0
220
-0
230
1
100
AcDbArc
50
0
51
90
0
LINE
5
3B6
100
AcDbEntity
8
PERIMETER
100
AcDbLine
10
-23.95624999999999
20
-43.756750000000139
30
0
11
-23.956250000000026
21
-55.506750000000231
31
0
0
ARC
5
3B7
100
AcDbEntity
8
PERIMETER
100
AcDbCircle
10
-23.206250000000033
20
-55.506750000000252
30
0
40
0.74999999999999289
210
0
220
0
230
1
100
AcDbArc
50
180
51
270
0
LINE
5
3B8
100
AcDbEntity
8
PERIMETER
100
AcDbLine
10
-23.206250000000033
20
-56.256750000000238
30
0
11
-5.9142504442990074
21
-56.256749999999812
31
0
0
ARC
5
3B9
100
AcDbEntity
8
PERIMETER
100
AcDbCircle
10
-5.9142504442990074
20
-62.256750000000252
30
0
40
5.999999999999992
210
0
220
-0
230
1
100
AcDbArc
50
46.642433642975654
51
89.999999999999986
0
ARC
5
3BA
100
AcDbEntity
8
PERIMETER
100
AcDbCircle
10
2.3243401511849981
20
-53.531749999999505
30
0
40
6.0000000000004512
210
0
220
0
230
1
100
AcDbArc
50
226.64243364298221
51
270
0
LINE
5
3BB
100
AcDbEntity
8
PERIMETER
100
AcDbLine
10
2.3243401511849981
20
-59.531749999999946
30
0
11
31.287500000000001
21
-59.531749999999981
31
0
0
ARC
5
3BC
100
AcDbEntity
8
PERIMETER
100
AcDbCircle
10
31.287500000000001
20
-62.531750000000201
30
0
40
3.0000000000000071
210
0
220
-0
230
1
100
AcDbArc
50
0
51
90
0
LINE
5
3BD
100
AcDbEntity
8
PERIMETER
100
AcDbLine
10
34.287500000000009
20
-62.531750000000187
30
0
11
34.287499999999973
21
-63.668749999999932
31
0
0
ARC
5
3BE
100
AcDbEntity
8
PERIMETER
100
AcDbCircle
10
36.287500000000001
20
-63.668749999999946
30
0
40
2.0000000000000284
210
0
220
0
230
1
100
AcDbArc
50
180
51
270
0
LINE
5
3BF
100
AcDbEntity
8
PERIMETER
100
AcDbLine
10
36.287500000000001
20
-65.668749999999974
30
0
11
154.78125000000003
21
-65.668749999999747
31
0
0
ARC
5
3C0
100
AcDbEntity
8
PERIMETER
100
AcDbCircle
10
154.78125000000003
20
-63.668749999999946
30
0
40
1.9999999999997975
210
-0
220
0
230
1
100
AcDbArc
50
-90
51
0
0
LINE
5
3C1
100
AcDbEntity
8
PERIMETER
100
AcDbLine
10
156.78124999999983
20
-63.668749999999932
30
0
11
156.78124999999997
21
-62.531750000000187
31
0
0
ARC
5
3C2
100
AcDbEntity
8
PERIMETER
100
AcDbCircle
10
159.78125000000003
20
-62.531750000000201
30
0
40
3.0000000000000071
210
0
220
-0
230
1
100
AcDbArc
50
90
51
180
0
LINE
5
3C3
100
AcDbEntity
8
PERIMETER
100
AcDbLine
10
159.78125000000003
20
-59.531750000000194
30
0
11
172.28125000000003
21
-59.531749999999981
31
0
0
ARC
5
3C4
100
AcDbEntity
8
PERIMETER
100
AcDbCircle
10
172.28125000000003
20
-57.981749999999707
30
0
40
1.5500000000002778
210
-0
220
0
230
1
100
AcDbArc
50
-90
51
0
0
LINE
5
3C5
100
AcDbEntity
8
PERIMETER
100
AcDbLine
10
173.83125000000032
20
-57.981749999999685
30
0
11
173.83125000000004
21
57.98075000000015
31
0
0
ARC
5
3C6
100
AcDbEntity
8
PERIMETER
100
AcDbCircle
10
172.28125000000003
20
57.980750000000157
30
0
40
1.5500000000000114
210
-0
220
0
230
1
100
AcDbArc
50
0
51
90
0
LINE
5
3C7
100
AcDbEntity
8
PERIMETER
100
AcDbLine
10
172.28125000000003
20
59.530750000000168
30
0
11
159.78125000000003
21
59.53075000000014
31
0
0
ARC
5
3C8
100
AcDbEntity
8
PERIMETER
100
AcDbCircle
10
159.78125000000003
20
62.530750000000133
30
0
40
2.9999999999999716
210
0
220
0
230
1
100
AcDbArc
50
180
51
270
0
LINE
5
3C9
100
AcDbEntity
8
PERIMETER
100
AcDbLine
10
156.78125000000006
20
62.530750000000133
30
0
11
156.78124999999997
21
63.668750000000145
31
0
0
ARC
5
3CA
100
AcDbEntity
8
PERIMETER
100
AcDbCircle
10
154.78125000000003
20
63.668750000000131
30
0
40
1.9999999999999574
210
0
220
-0
230
1
100
AcDbArc
50
0
51
90.00000000000081
0
LINE
5
3CB
100
AcDbEntity
8
PERIMETER
100
AcDbLine
10
154.78125000000003
20
65.668750000000088
30
0
11
30.956249999999983
21
65.668750000000102
31
0
0
ARC
5
3CC
100
AcDbEntity
8
PERIMETER
100
AcDbCircle
10
30.956249999999983
20
63.668750000000109
30
0
40
1.9999999999999929
210
0
220
-0
230
1
100
AcDbArc
50
90
51
180
0
LINE
5
3CD
100
AcDbEntity
8
PERIMETER
100
AcDbLine
10
28.95624999999999
20
63.668750000000131
30
0
11
28.95624999999999
21
62.530750000000083
31
0
0
ARC
5
3CE
100
AcDbEntity
8
PERIMETER
100
AcDbCircle
10
25.956249999999983
20
62.530750000000133
30
0
40
3.0000000000000071
210
-0
220
0
230
1
100
AcDbArc
50
270
51
360
0
ENDSEC
0
SECTION
2
OBJECTS
0
DICTIONARY
5
C
100
AcDbDictionary
3
ACAD_GROUP
350
D
3
ACAD_MLINESTYLE
350
17
0
DICTIONARY
5
D
100
AcDbDictionary
0
DICTIONARY
5
1A
330
C
100
AcDbDictionary
0
DICTIONARY
5
17
100
AcDbDictionary
0
ENDSEC
0
EOF
