999
dxfrw 0.6.3
  0
SECTION
  2
HEADER
  9
$ACADVER
  1
AC1021
  9
$DWGCODEPAGE
  3
ANSI_1252
  9
$INSBASE
 10
0
 20
0
 30
0
  9
$EXTMIN
 10
-173.8312500000001
 20
-65.66875000000007
 30
0
  9
$EXTMAX
 10
173.8312500000003
 20
65.66875000000002
 30
0
  9
$LIMMIN
 10
0
 20
0
  9
$LIMMAX
 10
420
 20
297
  9
$ORTHOMODE
 70
    0
  9
$REGENMODE
 70
    1
  9
$FILLMODE
 70
    1
  9
$QTEXTMODE
 70
    0
  9
$MIRRTEXT
 70
    0
  9
$LTSCALE
 40
1
  9
$ATTMODE
 70
    0
  9
$TEXTSIZE
 40
2.5
  9
$TRACEWID
 40
15.68
  9
$TEXTSTYLE
  7
STANDARD
  9
$CLAYER
  8
0
  9
$CELTYPE
  6
BYLAYER
  9
$CECOLOR
 62
  256
  9
$CELTSCALE
 40
1
  9
$DISPSILH
 70
    0
  9
$DIMSCALE
 40
2.5
  9
$DIMASZ
 40
2.5
  9
$DIMEXO
 40
0.625
  9
$DIMDLI
 40
3.75
  9
$DIMRND
 40
0
  9
$DIMDLE
 40
0
  9
$DIMEXE
 40
1.25
  9
$DIMTP
 40
0
  9
$DIMTM
 40
0
  9
$DIMTXT
 40
2.5
  9
$DIMCEN
 40
2.5
  9
$DIMTSZ
 40
0
  9
$DIMTOL
 70
    0
  9
$DIMLIM
 70
    0
  9
$DIMTIH
 70
    0
  9
$DIMTOH
 70
    0
  9
$DIMSE1
 70
    0
  9
$DIMSE2
 70
    0
  9
$DIMTAD
 70
    1
  9
$DIMZIN
 70
    8
  9
$DIMBLK
  1

  9
$DIMASO
 70
    1
  9
$DIMSHO
 70
    1
  9
$DIMPOST
  1

  9
$DIMAPOST
  1

  9
$DIMALT
 70
    0
  9
$DIMALTD
 70
    3
  9
$DIMALTF
 40
0.03937
  9
$DIMLFAC
 40
1
  9
$DIMTOFL
 70
    1
  9
$DIMTVP
 40
0
  9
$DIMTIX
 70
    0
  9
$DIMSOXD
 70
    0
  9
$DIMSAH
 70
    0
  9
$DIMBLK1
  1

  9
$DIMBLK2
  1

  9
$DIMSTYLE
  2
Standard
  9
$DIMCLRD
 70
    0
  9
$DIMCLRE
 70
    0
  9
$DIMCLRT
 70
    0
  9
$DIMTFAC
 40
1
  9
$DIMGAP
 40
0.625
  9
$DIMJUST
 70
    0
  9
$DIMSD1
 70
    0
  9
$DIMSD2
 70
    0
  9
$DIMTOLJ
 70
    0
  9
$DIMTZIN
 70
    8
  9
$DIMALTZ
 70
    0
  9
$DIMALTTZ
 70
    0
  9
$DIMUPT
 70
    0
  9
$DIMDEC
 70
    2
  9
$DIMTDEC
 70
    2
  9
$DIMALTU
 70
    2
  9
$DIMALTTD
 70
    3
  9
$DIMTXSTY
  7
STANDARD
  9
$DIMAUNIT
 70
    0
  9
$DIMADEC
 70
    0
  9
$DIMALTRND
 40
0
  9
$DIMAZIN
 70
    0
  9
$DIMDSEP
 70
   44
  9
$DIMATFIT
 70
    3
  9
$DIMFRAC
 70
    0
  9
$DIMLDRBLK
  1
STANDARD
  9
$DIMLUNIT
 70
    2
  9
$DIMLWD
 70
   -2
  9
$DIMLWE
 70
   -2
  9
$DIMTMOVE
 70
    0
  9
$DIMFXL
 40
1
  9
$DIMFXLON
 70
    0
  9
$DIMJOGANG
 40
0.7854
  9
$DIMTFILL
 70
    0
  9
$DIMTFILLCLR
 70
    0
  9
$DIMARCSYM
 70
    0
  9
$DIMLTYPE
  6

  9
$DIMLTEX1
  6

  9
$DIMLTEX2
  6

  9
$LUNITS
 70
    2
  9
$LUPREC
 70
    4
  9
$SKETCHINC
 40
1
  9
$FILLETRAD
 40
0
  9
$AUNITS
 70
    0
  9
$AUPREC
 70
    2
  9
$MENU
  1
.
  9
$ELEVATION
 40
0
  9
$PELEVATION
 40
0
  9
$THICKNESS
 40
0
  9
$LIMCHECK
 70
    0
  9
$CHAMFERA
 40
0
  9
$CHAMFERB
 40
0
  9
$CHAMFERC
 40
0
  9
$CHAMFERD
 40
0
  9
$SKPOLY
 70
    0
  9
$USRTIMER
 70
    1
  9
$ANGBASE
 50
0
  9
$ANGDIR
 70
    0
  9
$PDMODE
 70
   34
  9
$PDSIZE
 40
0
  9
$PLINEWID
 40
0
  9
$SPLFRAME
 70
    0
  9
$SPLINETYPE
 70
    2
  9
$SPLINESEGS
 70
    8
  9
$HANDSEED
  5
20000
  9
$SURFTAB1
 70
    6
  9
$SURFTAB2
 70
    6
  9
$SURFTYPE
 70
    6
  9
$SURFU
 70
    6
  9
$SURFV
 70
    6
  9
$UCSBASE
  2

  9
$UCSNAME
  2

  9
$UCSORG
 10
0
 20
0
 30
0
  9
$UCSXDIR
 10
1
 20
0
 30
0
  9
$UCSYDIR
 10
0
 20
1
 30
0
  9
$UCSORTHOREF
  2

  9
$UCSORTHOVIEW
 70
    0
  9
$UCSORGTOP
 10
0
 20
0
 30
0
  9
$UCSORGBOTTOM
 10
0
 20
0
 30
0
  9
$UCSORGLEFT
 10
0
 20
0
 30
0
  9
$UCSORGRIGHT
 10
0
 20
0
 30
0
  9
$UCSORGFRONT
 10
0
 20
0
 30
0
  9
$UCSORGBACK
 10
0
 20
0
 30
0
  9
$PUCSBASE
  2

  9
$PUCSNAME
  2

  9
$PUCSORG
 10
0
 20
0
 30
0
  9
$PUCSXDIR
 10
1
 20
0
 30
0
  9
$PUCSYDIR
 10
0
 20
1
 30
0
  9
$PUCSORTHOREF
  2

  9
$PUCSORTHOVIEW
 70
    0
  9
$PUCSORGTOP
 10
0
 20
0
 30
0
  9
$PUCSORGBOTTOM
 10
0
 20
0
 30
0
  9
$PUCSORGLEFT
 10
0
 20
0
 30
0
  9
$PUCSORGRIGHT
 10
0
 20
0
 30
0
  9
$PUCSORGFRONT
 10
0
 20
0
 30
0
  9
$PUCSORGBACK
 10
0
 20
0
 30
0
  9
$USERI1
 70
    0
  9
$USERI2
 70
    0
  9
$USERI3
 70
    0
  9
$USERI4
 70
    0
  9
$USERI5
 70
    0
  9
$USERR1
 40
0
  9
$USERR2
 40
0
  9
$USERR3
 40
0
  9
$USERR4
 40
0
  9
$USERR5
 40
0
  9
$WORLDVIEW
 70
    1
  9
$SHADEDGE
 70
    3
  9
$SHADEDIF
 70
   70
  9
$TILEMODE
 70
    1
  9
$MAXACTVP
 70
   64
  9
$PINSBASE
 10
0
 20
0
 30
0
  9
$PLIMCHECK
 70
    0
  9
$PEXTMIN
 10
0
 20
0
 30
0
  9
$PEXTMAX
 10
0
 20
0
 30
0
  9
$SNAPSTYLE
 70
    0
  9
$PLIMMIN
 10
0
 20
0
  9
$PLIMMAX
 10
210
 20
297
  9
$UNITMODE
 70
    0
  9
$VISRETAIN
 70
    1
  9
$PLINEGEN
 70
    0
  9
$PSLTSCALE
 70
    1
  9
$TREEDEPTH
 70
 3020
  9
$CMLSTYLE
  2
Standard
  9
$CMLJUST
 70
    0
  9
$CMLSCALE
 40
20
  9
$PROXYGRAPHICS
 70
    1
  9
$MEASUREMENT
 70
    1
  9
$CELWEIGHT
370
   -1
  9
$ENDCAPS
280
    0
  9
$JOINSTYLE
280
    0
  9
$LWDISPLAY
290
    0
  9
$INSUNITS
 70
    4
  9
$HYPERLINKBASE
  1

  9
$STYLESHEET
  1

  9
$XEDIT
290
    1
  9
$CEPSNTYPE
380
    0
  9
$PSTYLEMODE
290
    1
  9
$EXTNAMES
290
    1
  9
$PSVPSCALE
 40
1
  9
$OLESTARTUP
290
    0
  9
$SORTENTS
280
  127
  9
$INDEXCTL
280
    0
  9
$HIDETEXT
280
    1
  9
$XCLIPFRAME
290
    0
  9
$HALOGAP
280
    0
  9
$OBSCOLOR
 70
  257
  9
$OBSLTYPE
280
    0
  9
$INTERSECTIONDISPLAY
280
    0
  9
$INTERSECTIONCOLOR
 70
  257
  9
$DIMASSOC
280
    1
  9
$PROJECTNAME
  1

  9
$CAMERADISPLAY
290
    0
  9
$LENSLENGTH
 40
50
  9
$CAMERAHEIGHT
 40
0
  9
$STEPSPERSEC
 40
2
  9
$STEPSIZE
 40
50
  9
$3DDWFPREC
 40
2
  9
$PSOLWIDTH
 40
5
  9
$PSOLHEIGHT
 40
80
  9
$LOFTANG1
 40
1.570796326794897
  9
$LOFTANG2
 40
1.570796326794897
  9
$LOFTMAG1
 40
0
  9
$LOFTMAG2
 40
0
  9
$LOFTPARAM
 70
    7
  9
$LOFTNORMALS
280
    1
  9
$LATITUDE
 40
1
  9
$LONGITUDE
 40
1
  9
$NORTHDIRECTION
 40
0
  9
$TIMEZONE
 70
-8000
  9
$LIGHTGLYPHDISPLAY
280
    1
  9
$TILEMODELIGHTSYNCH
280
    1
  9
$SOLIDHIST
280
    1
  9
$SHOWHIST
280
    1
  9
$DWFFRAME
280
    2
  9
$DGNFRAME
280
    0
  9
$REALWORLDSCALE
290
    1
  9
$INTERFERECOLOR
 62
    1
  9
$CSHADOW
280
    0
  9
$SHADOWPLANELOCATION
 40
0
  0
ENDSEC
  0
SECTION
  2
CLASSES
  0
ENDSEC
  0
SECTION
  2
TABLES
  0
TABLE
  2
VPORT
  5
8
330
0
100
AcDbSymbolTable
 70
    1
  0
VPORT
  5
31
330
2
100
AcDbSymbolTableRecord
100
AcDbViewportTableRecord
  2
*ACTIVE
 70
    0
 10
0
 20
0
 11
1
 21
1
 12
93.20499190997563
 22
45.75208544486031
 13
0
 23
0
 14
10
 24
10
 15
10
 25
10
 16
0
 26
0
 36
1
 17
0
 27
0
 37
0
 40
205.4591792468076
 41
1.855960264900662
 42
50
 43
0
 44
0
 50
0
 51
0
 71
    0
 72
  100
 73
    1
 74
    3
 75
    0
 76
    1
 77
    0
 78
    0
281
    0
 65
    1
110
0
120
0
130
0
111
1
121
0
131
0
112
0
122
1
132
0
 79
    0
146
0
348
10020
 60
    7
 61
    5
292
1
282
    1
141
0
142
0
 63
  250
421
3358443
  0
ENDTAB
  0
TABLE
  2
LTYPE
  5
5
330
0
100
AcDbSymbolTable
 70
    4
  0
LTYPE
  5
14
330
5
100
AcDbSymbolTableRecord
100
AcDbLinetypeTableRecord
  2
ByBlock
 70
    0
  3

 72
   65
 73
    0
 40
0
  0
LTYPE
  5
15
330
5
100
AcDbSymbolTableRecord
100
AcDbLinetypeTableRecord
  2
ByLayer
 70
    0
  3

 72
   65
 73
    0
 40
0
  0
LTYPE
  5
16
330
5
100
AcDbSymbolTableRecord
100
AcDbLinetypeTableRecord
  2
Continuous
 70
    0
  3
Solid line
 72
   65
 73
    0
 40
0
  0
LTYPE
  5
32
330
5
100
AcDbSymbolTableRecord
100
AcDbLinetypeTableRecord
  2
DOT
 70
    0
  3
Dot . . . . . . . . . . . . . . . . . . . . . .
 72
   65
 73
    2
 40
6.35
 49
0
 74
    0
 49
-6.35
 74
    0
  0
LTYPE
  5
33
330
5
100
AcDbSymbolTableRecord
100
AcDbLinetypeTableRecord
  2
DOTTINY
 70
    0
  3
Dot (.15x) .....................................
 72
   65
 73
    2
 40
0.9525
 49
0
 74
    0
 49
-0.9525
 74
    0
  0
LTYPE
  5
34
330
5
100
AcDbSymbolTableRecord
100
AcDbLinetypeTableRecord
  2
DOT2
 70
    0
  3
Dot (.5x) .....................................
 72
   65
 73
    2
 40
3.175
 49
0
 74
    0
 49
-3.175
 74
    0
  0
LTYPE
  5
35
330
5
100
AcDbSymbolTableRecord
100
AcDbLinetypeTableRecord
  2
DOTX2
 70
    0
  3
Dot (2x) .  .  .  .  .  .  .  .  .  .  .  .  .
 72
   65
 73
    2
 40
12.7
 49
0
 74
    0
 49
-12.7
 74
    0
  0
LTYPE
  5
36
330
5
100
AcDbSymbolTableRecord
100
AcDbLinetypeTableRecord
  2
DASHED
 70
    0
  3
Dashed _ _ _ _ _ _ _ _ _ _ _ _ _ _ _ _ _
 72
   65
 73
    2
 40
19.05
 49
12.7
 74
    0
 49
-6.35
 74
    0
  0
LTYPE
  5
37
330
5
100
AcDbSymbolTableRecord
100
AcDbLinetypeTableRecord
  2
DASHEDTINY
 70
    0
  3
Dashed (.15x) _ _ _ _ _ _ _ _ _ _ _ _ _ _ _ _ _
 72
   65
 73
    2
 40
2.8575
 49
1.905
 74
    0
 49
-0.9525
 74
    0
  0
LTYPE
  5
38
330
5
100
AcDbSymbolTableRecord
100
AcDbLinetypeTableRecord
  2
DASHED2
 70
    0
  3
Dashed (.5x) _ _ _ _ _ _ _ _ _ _ _ _ _ _ _ _ _
 72
   65
 73
    2
 40
9.524999999999999
 49
6.35
 74
    0
 49
-3.175
 74
    0
  0
LTYPE
  5
39
330
5
100
AcDbSymbolTableRecord
100
AcDbLinetypeTableRecord
  2
DASHEDX2
 70
    0
  3
Dashed (2x) ____  ____  ____  ____  ____  ___
 72
   65
 73
    2
 40
38.09999999999999
 49
25.4
 74
    0
 49
-12.7
 74
    0
  0
LTYPE
  5
3A
330
5
100
AcDbSymbolTableRecord
100
AcDbLinetypeTableRecord
  2
DASHDOT
 70
    0
  3
Dash dot __ . __ . __ . __ . __ . __ . __ . __
 72
   65
 73
    4
 40
25.4
 49
12.7
 74
    0
 49
-6.35
 74
    0
 49
0
 74
    0
 49
-6.35
 74
    0
  0
LTYPE
  5
3B
330
5
100
AcDbSymbolTableRecord
100
AcDbLinetypeTableRecord
  2
DASHDOTTINY
 70
    0
  3
Dash dot (.15x) _._._._._._._._._._._._._._._.
 72
   65
 73
    4
 40
3.81
 49
1.905
 74
    0
 49
-0.9525
 74
    0
 49
0
 74
    0
 49
-0.9525
 74
    0
  0
LTYPE
  5
3C
330
5
100
AcDbSymbolTableRecord
100
AcDbLinetypeTableRecord
  2
DASHDOT2
 70
    0
  3
Dash dot (.5x) _._._._._._._._._._._._._._._.
 72
   65
 73
    4
 40
12.7
 49
6.35
 74
    0
 49
-3.175
 74
    0
 49
0
 74
    0
 49
-3.175
 74
    0
  0
LTYPE
  5
3D
330
5
100
AcDbSymbolTableRecord
100
AcDbLinetypeTableRecord
  2
DASHDOTX2
 70
    0
  3
Dash dot (2x) ____  .  ____  .  ____  .  ___
 72
   65
 73
    4
 40
50.8
 49
25.4
 74
    0
 49
-12.7
 74
    0
 49
0
 74
    0
 49
-12.7
 74
    0
  0
LTYPE
  5
3E
330
5
100
AcDbSymbolTableRecord
100
AcDbLinetypeTableRecord
  2
DIVIDE
 70
    0
  3
Divide ____ . . ____ . . ____ . . ____ . . ____
 72
   65
 73
    6
 40
31.75
 49
12.7
 74
    0
 49
-6.35
 74
    0
 49
0
 74
    0
 49
-6.35
 74
    0
 49
0
 74
    0
 49
-6.35
 74
    0
  0
LTYPE
  5
3F
330
5
100
AcDbSymbolTableRecord
100
AcDbLinetypeTableRecord
  2
DIVIDETINY
 70
    0
  3
Divide (.15x) __..__..__..__..__..__..__..__.._
 72
   65
 73
    6
 40
4.7625
 49
1.905
 74
    0
 49
-0.9525
 74
    0
 49
0
 74
    0
 49
-0.9525
 74
    0
 49
0
 74
    0
 49
-0.9525
 74
    0
  0
LTYPE
  5
40
330
5
100
AcDbSymbolTableRecord
100
AcDbLinetypeTableRecord
  2
DIVIDE2
 70
    0
  3
Divide (.5x) __..__..__..__..__..__..__..__.._
 72
   65
 73
    6
 40
15.875
 49
6.35
 74
    0
 49
-3.175
 74
    0
 49
0
 74
    0
 49
-3.175
 74
    0
 49
0
 74
    0
 49
-3.175
 74
    0
  0
LTYPE
  5
41
330
5
100
AcDbSymbolTableRecord
100
AcDbLinetypeTableRecord
  2
DIVIDEX2
 70
    0
  3
Divide (2x) ________  .  .  ________  .  .  _
 72
   65
 73
    6
 40
63.5
 49
25.4
 74
    0
 49
-12.7
 74
    0
 49
0
 74
    0
 49
-12.7
 74
    0
 49
0
 74
    0
 49
-12.7
 74
    0
  0
LTYPE
  5
42
330
5
100
AcDbSymbolTableRecord
100
AcDbLinetypeTableRecord
  2
BORDER
 70
    0
  3
Border __ __ . __ __ . __ __ . __ __ . __ __ .
 72
   65
 73
    6
 40
44.45
 49
12.7
 74
    0
 49
-6.35
 74
    0
 49
12.7
 74
    0
 49
-6.35
 74
    0
 49
0
 74
    0
 49
-6.35
 74
    0
  0
LTYPE
  5
43
330
5
100
AcDbSymbolTableRecord
100
AcDbLinetypeTableRecord
  2
BORDERTINY
 70
    0
  3
Border (.15x) __.__.__.__.__.__.__.__.__.__.__.
 72
   65
 73
    6
 40
6.6675
 49
1.905
 74
    0
 49
-0.9525
 74
    0
 49
1.905
 74
    0
 49
-0.9525
 74
    0
 49
0
 74
    0
 49
-0.9525
 74
    0
  0
LTYPE
  5
44
330
5
100
AcDbSymbolTableRecord
100
AcDbLinetypeTableRecord
  2
BORDER2
 70
    0
  3
Border (.5x) __.__.__.__.__.__.__.__.__.__.__.
 72
   65
 73
    6
 40
22.225
 49
6.35
 74
    0
 49
-3.175
 74
    0
 49
6.35
 74
    0
 49
-3.175
 74
    0
 49
0
 74
    0
 49
-3.175
 74
    0
  0
LTYPE
  5
45
330
5
100
AcDbSymbolTableRecord
100
AcDbLinetypeTableRecord
  2
BORDERX2
 70
    0
  3
Border (2x) ____  ____  .  ____  ____  .  ___
 72
   65
 73
    6
 40
88.89999999999999
 49
25.4
 74
    0
 49
-12.7
 74
    0
 49
25.4
 74
    0
 49
-12.7
 74
    0
 49
0
 74
    0
 49
-12.7
 74
    0
  0
LTYPE
  5
46
330
5
100
AcDbSymbolTableRecord
100
AcDbLinetypeTableRecord
  2
CENTER
 70
    0
  3
Center ____ _ ____ _ ____ _ ____ _ ____ _ ____
 72
   65
 73
    4
 40
50.8
 49
31.75
 74
    0
 49
-6.35
 74
    0
 49
6.35
 74
    0
 49
-6.35
 74
    0
  0
LTYPE
  5
47
330
5
100
AcDbSymbolTableRecord
100
AcDbLinetypeTableRecord
  2
CENTERTINY
 70
    0
  3
Center (.15x) ___ _ ___ _ ___ _ ___ _ ___ _ ___
 72
   65
 73
    4
 40
7.62
 49
4.7625
 74
    0
 49
-0.9525
 74
    0
 49
0.9525
 74
    0
 49
-0.9525
 74
    0
  0
LTYPE
  5
48
330
5
100
AcDbSymbolTableRecord
100
AcDbLinetypeTableRecord
  2
CENTER2
 70
    0
  3
Center (.5x) ___ _ ___ _ ___ _ ___ _ ___ _ ___
 72
   65
 73
    4
 40
28.575
 49
19.05
 74
    0
 49
-3.175
 74
    0
 49
3.175
 74
    0
 49
-3.175
 74
    0
  0
LTYPE
  5
49
330
5
100
AcDbSymbolTableRecord
100
AcDbLinetypeTableRecord
  2
CENTERX2
 70
    0
  3
Center (2x) ________  __  ________  __  _____
 72
   65
 73
    4
 40
101.6
 49
63.5
 74
    0
 49
-12.7
 74
    0
 49
12.7
 74
    0
 49
-12.7
 74
    0
  0
ENDTAB
  0
TABLE
  2
LAYER
  5
2
330
0
100
AcDbSymbolTable
 70
    1
  0
LAYER
  5
10
330
2
100
AcDbSymbolTableRecord
100
AcDbLayerTableRecord
  2
0
 70
    0
 62
    7
  6
CONTINUOUS
370
   -3
390
F
  0
ENDTAB
  0
TABLE
  2
STYLE
  5
3
330
0
100
AcDbSymbolTable
 70
    3
  0
STYLE
  5
4A
330
2
100
AcDbSymbolTableRecord
100
AcDbTextStyleTableRecord
  2
Standard
 70
    0
 40
0
 41
1
 50
0
 71
    0
 42
1
  3
txt
  4

  0
ENDTAB
  0
TABLE
  2
VIEW
  5
6
330
0
100
AcDbSymbolTable
 70
    0
  0
ENDTAB
  0
TABLE
  2
UCS
  5
7
330
0
100
AcDbSymbolTable
 70
    0
  0
ENDTAB
  0
TABLE
  2
APPID
  5
9
330
0
100
AcDbSymbolTable
 70
    1
  0
APPID
  5
12
330
9
100
AcDbSymbolTableRecord
100
AcDbRegAppTableRecord
  2
ACAD
 70
    0
  0
APPID
  5
4B
330
9
100
AcDbSymbolTableRecord
100
AcDbRegAppTableRecord
  2
LibreCad
 70
    0
  0
ENDTAB
  0
TABLE
  2
DIMSTYLE
  5
A
330
0
100
AcDbSymbolTable
 70
    1
100
AcDbDimStyleTable
 71
    1
  0
DIMSTYLE
105
4C
330
A
100
AcDbSymbolTableRecord
100
AcDbDimStyleTableRecord
  2
Standard
 70
    0
 40
1
 41
2.5
 42
0.625
 43
0.38
 44
1.25
 45
0
 46
0
 47
0
 48
0
 49
1
140
2.5
141
0.09
142
2.5
143
25.4
144
1
145
0
146
1
147
0.625
148
0
 71
    0
 72
    0
 73
    0
 74
    1
 75
    0
 76
    0
 77
    0
 78
    1
 79
    0
170
    0
171
    2
172
    0
173
    0
174
    0
175
    0
176
    0
177
    0
178
    0
179
    0
271
    2
272
    4
273
    2
274
    2
275
    0
276
    0
277
    2
278
    0
279
    0
280
    0
281
    0
282
    0
283
    1
284
    0
285
    0
286
    0
288
    0
289
    3
340
standard
341

371
   -2
372
   -2
  0
ENDTAB
  0
TABLE
  2
BLOCK_RECORD
  5
1
330
0
100
AcDbSymbolTable
 70
    2
  0
BLOCK_RECORD
  5
1F
330
1
100
AcDbSymbolTableRecord
100
AcDbBlockTableRecord
  2
*Model_Space
 70
    0
280
    1
281
    0
  0
BLOCK_RECORD
  5
1E
330
1
100
AcDbSymbolTableRecord
100
AcDbBlockTableRecord
  2
*Paper_Space
 70
    0
280
    1
281
    0
  0
ENDTAB
  0
ENDSEC
  0
SECTION
  2
BLOCKS
  0
BLOCK
  5
20
330
1F
100
AcDbEntity
  8
0
100
AcDbBlockBegin
  2
*Model_Space
 70
    0
 10
0
 20
0
 30
0
  3
*Model_Space
  1

  0
ENDBLK
  5
21
330
1F
100
AcDbEntity
  8
0
100
AcDbBlockEnd
  0
BLOCK
  5
1C
330
1B
100
AcDbEntity
  8
0
100
AcDbBlockBegin
  2
*Paper_Space
 70
    0
 10
0
 20
0
 30
0
  3
*Paper_Space
  1

  0
ENDBLK
  5
1D
330
1F
100
AcDbEntity
  8
0
100
AcDbBlockEnd
  0
ENDSEC
  0
SECTION
  2
ENTITIES
  0
LINE
  5
4D
100
AcDbEntity
  8
0
  6
ByLayer
 62
  256
370
   -1
100
AcDbLine
 10
-157.2062499999999
 20
63.66775000000003
 11
-157.2062499999999
 21
62.53074999999999
  0
ARC
  5
4E
100
AcDbEntity
  8
0
  6
ByLayer
 62
  256
370
   -1
100
AcDbCircle
 10
-160.2062499999999
 20
62.53075000000001
 40
2.999999999999998
100
AcDbArc
 50
270
 51
360
  0
LINE
  5
4F
100
AcDbEntity
  8
0
  6
ByLayer
 62
  256
370
   -1
100
AcDbLine
 10
-160.2062499999999
 20
59.53075000000001
 11
-172.28125
 21
59.53075000000005
  0
ARC
  5
50
100
AcDbEntity
  8
0
  6
ByLayer
 62
  256
370
   -1
100
AcDbCircle
 10
-172.28125
 20
57.98074999999996
 40
1.550000000000082
100
AcDbArc
 50
90
 51
180
  0
LINE
  5
51
100
AcDbEntity
  8
0
  6
ByLayer
 62
  256
370
   -1
100
AcDbLine
 10
-173.8312500000001
 20
57.98075000000005
 11
-173.83125
 21
-57.98174999999978
  0
ARC
  5
52
100
AcDbEntity
  8
0
  6
ByLayer
 62
  256
370
   -1
100
AcDbCircle
 10
-172.28125
 20
-57.98174999999979
 40
1.550000000000011
100
AcDbArc
 50
180
 51
270
  0
LINE
  5
53
100
AcDbEntity
  8
0
  6
ByLayer
 62
  256
370
   -1
100
AcDbLine
 10
-172.28125
 20
-59.53174999999979
 11
-160.2067499999999
 21
-59.53175000000009
  0
ARC
  5
54
100
AcDbEntity
  8
0
  6
ByLayer
 62
  256
370
   -1
100
AcDbCircle
 10
-160.2067499999999
 20
-62.53175000000031
 40
3.000000000000007
100
AcDbArc
 50
0
 51
90
  0
LINE
  5
55
100
AcDbEntity
  8
0
  6
ByLayer
 62
  256
370
   -1
100
AcDbLine
 10
-157.2067499999999
 20
-62.53175000000031
 11
-157.2067499999999
 21
-63.66875000000004
  0
ARC
  5
56
100
AcDbEntity
  8
0
  6
ByLayer
 62
  256
370
   -1
100
AcDbCircle
 10
-155.20675
 20
-63.66875000000004
 40
1.999999999999904
100
AcDbArc
 50
180
 51
270
  0
LINE
  5
57
100
AcDbEntity
  8
0
  6
ByLayer
 62
  256
370
   -1
100
AcDbLine
 10
-155.20675
 20
-65.66874999999995
 11
-98.20024999999993
 21
-65.66874999999985
  0
ARC
  5
58
100
AcDbEntity
  8
0
  6
ByLayer
 62
  256
370
   -1
100
AcDbCircle
 10
-98.20024999999993
 20
-63.66875000000004
 40
1.999999999999815
100
AcDbArc
 50
-90
 51
0
  0
LINE
  5
59
100
AcDbEntity
  8
0
  6
ByLayer
 62
  256
370
   -1
100
AcDbLine
 10
-96.20025000000011
 20
-63.66875000000002
 11
-96.20024999999993
 21
-62.53175000000027
  0
ARC
  5
5A
100
AcDbEntity
  8
0
  6
ByLayer
 62
  256
370
   -1
100
AcDbCircle
 10
-93.20024999999993
 20
-62.53175000000027
 40
3.000000000000007
100
AcDbArc
 50
90
 51
180
  0
LINE
  5
5B
100
AcDbEntity
  8
0
  6
ByLayer
 62
  256
370
   -1
100
AcDbLine
 10
-93.20024999999993
 20
-59.53175000000027
 11
-64.23684015118502
 21
-59.53175000000009
  0
ARC
  5
5C
100
AcDbEntity
  8
0
  6
ByLayer
 62
  256
370
   -1
100
AcDbCircle
 10
-64.23684015118502
 20
-53.53174999999961
 40
6.000000000000476
100
AcDbArc
 50
270
 51
313.3575663570242
  0
ARC
  5
5D
100
AcDbEntity
  8
0
  6
ByLayer
 62
  256
370
   -1
100
AcDbCircle
 10
-55.99824955570103
 20
-62.25675000000034
 40
5.999999999999996
100
AcDbArc
 50
90
 51
133.3575663570179
  0
LINE
  5
5E
100
AcDbEntity
  8
0
  6
ByLayer
 62
  256
370
   -1
100
AcDbLine
 10
-55.99824955570103
 20
-56.25675000000035
 11
-38.70625000000003
 21
-56.2567499999999
  0
ARC
  5
5F
100
AcDbEntity
  8
0
  6
ByLayer
 62
  256
370
   -1
100
AcDbCircle
 10
-38.70625000000003
 20
-55.50675000000034
 40
0.7499999999995666
100
AcDbArc
 50
-90
 51
0
  0
LINE
  5
60
100
AcDbEntity
  8
0
  6
ByLayer
 62
  256
370
   -1
100
AcDbLine
 10
-37.95625000000045
 20
-55.50675000000032
 11
-37.95625000000003
 21
-43.75675000000022
  0
ARC
  5
61
100
AcDbEntity
  8
0
  6
ByLayer
 62
  256
370
   -1
100
AcDbCircle
 10
-37.20625000000002
 20
-43.75675000000022
 40
0.7499999999999574
100
AcDbArc
 50
90
 51
180
  0
LINE
  5
62
100
AcDbEntity
  8
0
  6
ByLayer
 62
  256
370
   -1
100
AcDbLine
 10
-37.20625000000002
 20
-43.00675000000027
 11
-24.70625000000002
 21
-43.0067499999997
  0
ARC
  5
63
100
AcDbEntity
  8
0
  6
ByLayer
 62
  256
370
   -1
100
AcDbCircle
 10
-24.70625000000002
 20
-43.75675000000022
 40
0.7500000000000284
100
AcDbArc
 50
0
 51
90
  0
LINE
  5
64
100
AcDbEntity
  8
0
  6
ByLayer
 62
  256
370
   -1
100
AcDbLine
 10
-23.95624999999999
 20
-43.75675000000022
 11
-23.95625000000003
 21
-55.50675000000034
  0
ARC
  5
65
100
AcDbEntity
  8
0
  6
ByLayer
 62
  256
370
   -1
100
AcDbCircle
 10
-23.20625000000003
 20
-55.50675000000034
 40
0.7499999999999929
100
AcDbArc
 50
180
 51
270
  0
LINE
  5
66
100
AcDbEntity
  8
0
  6
ByLayer
 62
  256
370
   -1
100
AcDbLine
 10
-23.20625000000003
 20
-56.25675000000033
 11
-5.914250444299007
 21
-56.2567499999999
  0
ARC
  5
67
100
AcDbEntity
  8
0
  6
ByLayer
 62
  256
370
   -1
100
AcDbCircle
 10
-5.914250444299007
 20
-62.25675000000034
 40
6.000000000000004
100
AcDbArc
 50
46.6424336429758
 51
90
  0
ARC
  5
68
100
AcDbEntity
  8
0
  6
ByLayer
 62
  256
370
   -1
100
AcDbCircle
 10
2.324340151184998
 20
-53.53174999999961
 40
6.000000000000425
100
AcDbArc
 50
226.642433642982
 51
270
  0
LINE
  5
69
100
AcDbEntity
  8
0
  6
ByLayer
 62
  256
370
   -1
100
AcDbLine
 10
2.324340151184998
 20
-59.53175000000003
 11
31.2875
 21
-59.53175000000009
  0
ARC
  5
6A
100
AcDbEntity
  8
0
  6
ByLayer
 62
  256
370
   -1
100
AcDbCircle
 10
31.2875
 20
-62.53175000000031
 40
3.000000000000007
100
AcDbArc
 50
0
 51
90
  0
LINE
  5
6B
100
AcDbEntity
  8
0
  6
ByLayer
 62
  256
370
   -1
100
AcDbLine
 10
34.28750000000001
 20
-62.53175000000029
 11
34.28749999999997
 21
-63.66875000000004
  0
ARC
  5
6C
100
AcDbEntity
  8
0
  6
ByLayer
 62
  256
370
   -1
100
AcDbCircle
 10
36.2875
 20
-63.66875000000004
 40
2.000000000000028
100
AcDbArc
 50
180
 51
270
  0
LINE
  5
6D
100
AcDbEntity
  8
0
  6
ByLayer
 62
  256
370
   -1
100
AcDbLine
 10
36.2875
 20
-65.66875000000007
 11
154.78125
 21
-65.66874999999985
  0
ARC
  5
6E
100
AcDbEntity
  8
0
  6
ByLayer
 62
  256
370
   -1
100
AcDbCircle
 10
154.78125
 20
-63.66875000000004
 40
1.999999999999815
100
AcDbArc
 50
-90
 51
0
  0
LINE
  5
6F
100
AcDbEntity
  8
0
  6
ByLayer
 62
  256
370
   -1
100
AcDbLine
 10
156.7812499999998
 20
-63.66875000000002
 11
156.78125
 21
-62.53175000000027
  0
ARC
  5
70
100
AcDbEntity
  8
0
  6
ByLayer
 62
  256
370
   -1
100
AcDbCircle
 10
159.78125
 20
-62.53175000000031
 40
3.000000000000007
100
AcDbArc
 50
90
 51
180
  0
LINE
  5
71
100
AcDbEntity
  8
0
  6
ByLayer
 62
  256
370
   -1
100
AcDbLine
 10
159.78125
 20
-59.5317500000003
 11
172.28125
 21
-59.53175000000009
  0
ARC
  5
72
100
AcDbEntity
  8
0
  6
ByLayer
 62
  256
370
   -1
100
AcDbCircle
 10
172.28125
 20
-57.98174999999979
 40
1.550000000000296
100
AcDbArc
 50
-90
 51
0
  0
LINE
  5
73
100
AcDbEntity
  8
0
  6
ByLayer
 62
  256
370
   -1
100
AcDbLine
 10
173.8312500000003
 20
-57.98174999999979
 11
173.83125
 21
57.98075000000004
  0
ARC
  5
74
100
AcDbEntity
  8
0
  6
ByLayer
 62
  256
370
   -1
100
AcDbCircle
 10
172.28125
 20
57.98075000000006
 40
1.550000000000011
100
AcDbArc
 50
0
 51
90
  0
LINE
  5
75
100
AcDbEntity
  8
0
  6
ByLayer
 62
  256
370
   -1
100
AcDbLine
 10
172.28125
 20
59.53075000000007
 11
159.78125
 21
59.53075000000005
  0
ARC
  5
76
100
AcDbEntity
  8
0
  6
ByLayer
 62
  256
370
   -1
100
AcDbCircle
 10
159.78125
 20
62.53075000000004
 40
2.999999999999972
100
AcDbArc
 50
180
 51
270
  0
LINE
  5
77
100
AcDbEntity
  8
0
  6
ByLayer
 62
  256
370
   -1
100
AcDbLine
 10
156.7812500000001
 20
62.53075000000003
 11
156.78125
 21
63.66875000000004
  0
ARC
  5
78
100
AcDbEntity
  8
0
  6
ByLayer
 62
  256
370
   -1
100
AcDbCircle
 10
154.78125
 20
63.66875000000003
 40
1.999999999999957
100
AcDbArc
 50
0
 51
90
  0
LINE
  5
79
100
AcDbEntity
  8
0
  6
ByLayer
 62
  256
370
   -1
100
AcDbLine
 10
154.78125
 20
65.66874999999999
 11
30.95624999999998
 21
65.66875
  0
ARC
  5
7A
100
AcDbEntity
  8
0
  6
ByLayer
 62
  256
370
   -1
100
AcDbCircle
 10
30.95624999999998
 20
63.66875000000001
 40
2.000000000000002
100
AcDbArc
 50
90
 51
180
  0
LINE
  5
7B
100
AcDbEntity
  8
0
  6
ByLayer
 62
  256
370
   -1
100
AcDbLine
 10
28.95624999999999
 20
63.66875000000004
 11
28.95624999999999
 21
62.53074999999999
  0
ARC
  5
7C
100
AcDbEntity
  8
0
  6
ByLayer
 62
  256
370
   -1
100
AcDbCircle
 10
25.95624999999998
 20
62.53075000000003
 40
2.999999999999998
100
AcDbArc
 50
270
 51
360
  0
LINE
  5
7D
100
AcDbEntity
  8
0
  6
ByLayer
 62
  256
370
   -1
100
AcDbLine
 10
25.95624999999998
 20
59.53075000000003
 11
-49.76875000000003
 21
59.53075000000004
  0
ARC
  5
7E
100
AcDbEntity
  8
0
  6
ByLayer
 62
  256
370
   -1
100
AcDbCircle
 10
-49.76875000000003
 20
62.53075000000002
 40
3.000000000000007
100
AcDbArc
 50
180
 51
270
  0
LINE
  5
7F
100
AcDbEntity
  8
0
  6
ByLayer
 62
  256
370
   -1
100
AcDbLine
 10
-52.76875000000004
 20
62.53075000000001
 11
-52.76875000000003
 21
63.66775000000001
  0
ARC
  5
80
100
AcDbEntity
  8
0
  6
ByLayer
 62
  256
370
   -1
100
AcDbCircle
 10
-54.76875000000003
 20
63.66775000000001
 40
2.000000000000011
100
AcDbArc
 50
0
 51
90
  0
LINE
  5
81
100
AcDbEntity
  8
0
  6
ByLayer
 62
  256
370
   -1
100
AcDbLine
 10
-54.76875000000003
 20
65.66775000000001
 11
-155.2062499999999
 21
65.66775000000004
  0
ARC
  5
82
100
AcDbEntity
  8
0
  6
ByLayer
 62
  256
370
   -1
100
AcDbCircle
 10
-155.2062499999999
 20
63.66775000000004
 40
2.000000000000002
100
AcDbArc
 50
90
 51
180
  0
LINE
  5
83
100
AcDbEntity
  8
0
  6
ByLayer
 62
  256
370
   -1
100
AcDbLine
 10
76.34374999999999
 20
19.94325000000003
 11
76.34374999999999
 21
32.44324999999998
  0
ARC
  5
84
100
AcDbEntity
  8
0
  6
ByLayer
 62
  256
370
   -1
100
AcDbCircle
 10
77.09374999999997
 20
19.94325000000005
 40
0.7499999999999929
100
AcDbArc
 50
180
 51
270
  0
LINE
  5
85
100
AcDbEntity
  8
0
  6
ByLayer
 62
  256
370
   -1
100
AcDbLine
 10
77.43074999999997
 20
19.19324999999998
 11
77.09374999999997
 21
19.19325000000006
  0
LINE
  5
86
100
AcDbEntity
  8
0
  6
ByLayer
 62
  256
370
   -1
100
AcDbLine
 10
77.43074999999979
 20
18.94325000000023
 11
77.43074999999997
 21
19.19324999999998
  0
ARC
  5
87
100
AcDbEntity
  8
0
  6
ByLayer
 62
  256
370
   -1
100
AcDbCircle
 10
78.18074999999996
 20
18.94325000000023
 40
0.7500000000001705
100
AcDbArc
 50
180
 51
270
  0
LINE
  5
88
100
AcDbEntity
  8
0
  6
ByLayer
 62
  256
370
   -1
100
AcDbLine
 10
83.68074999999997
 20
18.19325000000007
 11
78.18074999999996
 21
18.19325000000006
  0
ARC
  5
89
100
AcDbEntity
  8
0
  6
ByLayer
 62
  256
370
   -1
100
AcDbCircle
 10
83.68074999999997
 20
18.94325000000003
 40
0.7499999999999574
100
AcDbArc
 50
-90
 51
0
  0
LINE
  5
8A
100
AcDbEntity
  8
0
  6
ByLayer
 62
  256
370
   -1
100
AcDbLine
 10
84.43074999999996
 20
19.19324999999998
 11
84.43074999999993
 21
18.94325000000003
  0
LINE
  5
8B
100
AcDbEntity
  8
0
  6
ByLayer
 62
  256
370
   -1
100
AcDbLine
 10
101.30675
 20
19.19324999999998
 11
84.43074999999996
 21
19.19324999999998
  0
LINE
  5
8C
100
AcDbEntity
  8
0
  6
ByLayer
 62
  256
370
   -1
100
AcDbLine
 10
101.30675
 20
18.94325000000003
 11
101.30675
 21
19.19324999999998
  0
ARC
  5
8D
100
AcDbEntity
  8
0
  6
ByLayer
 62
  256
370
   -1
100
AcDbCircle
 10
102.05675
 20
18.94325000000003
 40
0.7499999999999574
100
AcDbArc
 50
180
 51
270
  0
LINE
  5
8E
100
AcDbEntity
  8
0
  6
ByLayer
 62
  256
370
   -1
100
AcDbLine
 10
107.55675
 20
18.19325000000007
 11
102.05675
 21
18.19325000000007
  0
ARC
  5
8F
100
AcDbEntity
  8
0
  6
ByLayer
 62
  256
370
   -1
100
AcDbCircle
 10
107.55675
 20
18.94325000000003
 40
0.7499999999999574
100
AcDbArc
 50
-90
 51
0
  0
LINE
  5
90
100
AcDbEntity
  8
0
  6
ByLayer
 62
  256
370
   -1
100
AcDbLine
 10
108.30675
 20
19.19324999999998
 11
108.3067499999999
 21
18.94325000000003
  0
LINE
  5
91
100
AcDbEntity
  8
0
  6
ByLayer
 62
  256
370
   -1
100
AcDbLine
 10
108.64375
 20
19.19325000000006
 11
108.30675
 21
19.19324999999998
  0
ARC
  5
92
100
AcDbEntity
  8
0
  6
ByLayer
 62
  256
370
   -1
100
AcDbCircle
 10
108.64375
 20
19.94325000000005
 40
0.7499999999999929
100
AcDbArc
 50
270
 51
360
  0
LINE
  5
93
100
AcDbEntity
  8
0
  6
ByLayer
 62
  256
370
   -1
100
AcDbLine
 10
109.39375
 20
32.44324999999998
 11
109.39375
 21
19.94324999999998
  0
ARC
  5
94
100
AcDbEntity
  8
0
  6
ByLayer
 62
  256
370
   -1
100
AcDbCircle
 10
108.64375
 20
32.44325000000001
 40
0.7499999999999929
100
AcDbArc
 50
0
 51
90
  0
LINE
  5
95
100
AcDbEntity
  8
0
  6
ByLayer
 62
  256
370
   -1
100
AcDbLine
 10
77.09374999999997
 20
33.19324999999999
 11
108.64375
 21
33.19325
  0
ARC
  5
96
100
AcDbEntity
  8
0
  6
ByLayer
 62
  256
370
   -1
100
AcDbCircle
 10
77.09374999999997
 20
32.44325000000001
 40
0.7499999999999885
100
AcDbArc
 50
90
 51
180
  0
ARC
  5
97
100
AcDbEntity
  8
0
  6
ByLayer
 62
  256
370
   -1
100
AcDbCircle
 10
100.413
 20
-38.2067500000003
 40
0.7499999999998863
100
AcDbArc
 50
-90
 51
0
  0
LINE
  5
98
100
AcDbEntity
  8
0
  6
ByLayer
 62
  256
370
   -1
100
AcDbLine
 10
101.163
 20
-37.95675000000045
 11
101.1629999999999
 21
-38.2067500000003
  0
LINE
  5
99
100
AcDbEntity
  8
0
  6
ByLayer
 62
  256
370
   -1
100
AcDbLine
 10
108.64375
 20
-37.95674999999989
 11
101.163
 21
-37.95675000000045
  0
ARC
  5
9A
100
AcDbEntity
  8
0
  6
ByLayer
 62
  256
370
   -1
100
AcDbCircle
 10
108.64375
 20
-37.20674999999989
 40
0.7499999999999929
100
AcDbArc
 50
270
 51
360
  0
LINE
  5
9B
100
AcDbEntity
  8
0
  6
ByLayer
 62
  256
370
   -1
100
AcDbLine
 10
109.39375
 20
-24.70675000000001
 11
109.39375
 21
-37.20675000000018
  0
ARC
  5
9C
100
AcDbEntity
  8
0
  6
ByLayer
 62
  256
370
   -1
100
AcDbCircle
 10
108.64375
 20
-24.70674999999992
 40
0.7500000000000284
100
AcDbArc
 50
0
 51
90
  0
LINE
  5
9D
100
AcDbEntity
  8
0
  6
ByLayer
 62
  256
370
   -1
100
AcDbLine
 10
96.14374999999998
 20
-23.95674999999993
 11
108.64375
 21
-23.95674999999989
  0
ARC
  5
9E
100
AcDbEntity
  8
0
  6
ByLayer
 62
  256
370
   -1
100
AcDbCircle
 10
96.14374999999998
 20
-24.70674999999992
 40
0.7499999999999929
100
AcDbArc
 50
90
 51
180
  0
LINE
  5
9F
100
AcDbEntity
  8
0
  6
ByLayer
 62
  256
370
   -1
100
AcDbLine
 10
95.39375
 20
-24.95675000000001
 11
95.39375
 21
-24.70674999999997
  0
LINE
  5
A0
100
AcDbEntity
  8
0
  6
ByLayer
 62
  256
370
   -1
100
AcDbLine
 10
94.91299999999998
 20
-24.95674999999994
 11
95.39375
 21
-24.95675000000001
  0
ARC
  5
A1
100
AcDbEntity
  8
0
  6
ByLayer
 62
  256
370
   -1
100
AcDbCircle
 10
94.91299999999998
 20
-25.70675000000004
 40
0.7500000000000995
100
AcDbArc
 50
90
 51
180
  0
LINE
  5
A2
100
AcDbEntity
  8
0
  6
ByLayer
 62
  256
370
   -1
100
AcDbLine
 10
94.16299999999976
 20
-38.20674999999929
 11
94.1629999999999
 21
-25.70675000000004
  0
ARC
  5
A3
100
AcDbEntity
  8
0
  6
ByLayer
 62
  256
370
   -1
100
AcDbCircle
 10
94.91299999999998
 20
-38.2067499999993
 40
0.7500000000002416
100
AcDbArc
 50
180
 51
270
  0
LINE
  5
A4
100
AcDbEntity
  8
0
  6
ByLayer
 62
  256
370
   -1
100
AcDbLine
 10
100.413
 20
-38.95675000000018
 11
94.91299999999998
 21
-38.95674999999954
  0
ARC
  5
A5
100
AcDbEntity
  8
0
  6
ByLayer
 62
  256
370
   -1
100
AcDbCircle
 10
112.593506346322
 20
-58.25668320700064
 40
0.7499999999999306
100
AcDbArc
 50
179.8512054748724
 51
270
  0
LINE
  5
A6
100
AcDbEntity
  8
0
  6
ByLayer
 62
  256
370
   -1
100
AcDbLine
 10
116.00375
 20
-59.00668320700063
 11
112.593506346322
 21
-59.00668320700058
  0
ARC
  5
A7
100
AcDbEntity
  8
0
  6
ByLayer
 62
  256
370
   -1
100
AcDbCircle
 10
116.00375
 20
-58.25668320700064
 40
0.7499999999999929
100
AcDbArc
 50
-90
 51
0
  0
LINE
  5
A8
100
AcDbEntity
  8
0
  6
ByLayer
 62
  256
370
   -1
100
AcDbLine
 10
116.75375
 20
30.44325000000008
 11
116.75375
 21
-58.25668320700064
  0
ARC
  5
A9
100
AcDbEntity
  8
0
  6
ByLayer
 62
  256
370
   -1
100
AcDbCircle
 10
116.00375
 20
30.44325000000007
 40
0.7499999999999929
100
AcDbArc
 50
0
 51
90
  0
LINE
  5
AA
100
AcDbEntity
  8
0
  6
ByLayer
 62
  256
370
   -1
100
AcDbLine
 10
112.59675
 20
31.19325000000007
 11
116.00375
 21
31.19325000000007
  0
ARC
  5
AB
100
AcDbEntity
  8
0
  6
ByLayer
 62
  256
370
   -1
100
AcDbCircle
 10
112.59675
 20
30.44325000000007
 40
0.7500000000000018
100
AcDbArc
 50
90
 51
180
  0
LINE
  5
AC
100
AcDbEntity
  8
0
  6
ByLayer
 62
  256
370
   -1
100
AcDbLine
 10
111.8467499999939
 20
-57.00668995356629
 11
111.84675
 21
30.44325000000008
  0
LINE
  5
AD
100
AcDbEntity
  8
0
  6
ByLayer
 62
  256
370
   -1
100
AcDbLine
 10
111.8435088753851
 20
-58.25473549341061
 11
111.8467499999939
 21
-57.00668995356629
  0
ARC
  5
AE
100
AcDbEntity
  8
0
  6
ByLayer
 62
  256
370
   -1
100
AcDbCircle
 10
23.44374999999999
 20
-42.75674999999982
 40
0.7500000000000284
100
AcDbArc
 50
90
 51
180
  0
LINE
  5
AF
100
AcDbEntity
  8
0
  6
ByLayer
 62
  256
370
   -1
100
AcDbLine
 10
22.69375000000004
 20
-57.25675000000031
 11
22.69374999999997
 21
-42.75674999999982
  0
ARC
  5
B0
100
AcDbEntity
  8
0
  6
ByLayer
 62
  256
370
   -1
100
AcDbCircle
 10
23.44374999999999
 20
-57.25675000000031
 40
0.7499999999999574
100
AcDbArc
 50
180
 51
270
  0
LINE
  5
B1
100
AcDbEntity
  8
0
  6
ByLayer
 62
  256
370
   -1
100
AcDbLine
 10
28.94375
 20
-58.00675000000027
 11
23.44374999999999
 21
-58.00675000000027
  0
ARC
  5
B2
100
AcDbEntity
  8
0
  6
ByLayer
 62
  256
370
   -1
100
AcDbCircle
 10
28.94375
 20
-57.25675000000031
 40
0.7499999999999574
100
AcDbArc
 50
-90
 51
0
  0
LINE
  5
B3
100
AcDbEntity
  8
0
  6
ByLayer
 62
  256
370
   -1
100
AcDbLine
 10
29.69374999999999
 20
-42.75674999999982
 11
29.69374999999996
 21
-57.25675000000031
  0
ARC
  5
B4
100
AcDbEntity
  8
0
  6
ByLayer
 62
  256
370
   -1
100
AcDbCircle
 10
28.94375
 20
-42.75674999999982
 40
0.7499999999999929
100
AcDbArc
 50
0
 51
90
  0
LINE
  5
B5
100
AcDbEntity
  8
0
  6
ByLayer
 62
  256
370
   -1
100
AcDbLine
 10
23.44374999999999
 20
-42.00674999999979
 11
28.94375
 21
-42.00674999999983
  0
ARC
  5
B6
100
AcDbEntity
  8
0
  6
ByLayer
 62
  256
370
   -1
100
AcDbCircle
 10
-137.712
 20
-25.70675000000004
 40
0.7500000000000284
100
AcDbArc
 50
0
 51
90
  0
LINE
  5
B7
100
AcDbEntity
  8
0
  6
ByLayer
 62
  256
370
   -1
100
AcDbLine
 10
-143.2119999999999
 20
-24.95674999999994
 11
-137.712
 21
-24.95675000000001
  0
ARC
  5
B8
100
AcDbEntity
  8
0
  6
ByLayer
 62
  256
370
   -1
100
AcDbCircle
 10
-143.2119999999999
 20
-25.70675000000004
 40
0.7500000000000995
100
AcDbArc
 50
90
 51
180
  0
LINE
  5
B9
100
AcDbEntity
  8
0
  6
ByLayer
 62
  256
370
   -1
100
AcDbLine
 10
-143.962
 20
-38.20675000000028
 11
-143.962
 21
-25.70675000000004
  0
ARC
  5
BA
100
AcDbEntity
  8
0
  6
ByLayer
 62
  256
370
   -1
100
AcDbCircle
 10
-143.2119999999999
 20
-38.2067500000003
 40
0.7500000000000639
100
AcDbArc
 50
180
 51
270
  0
LINE
  5
BB
100
AcDbEntity
  8
0
  6
ByLayer
 62
  256
370
   -1
100
AcDbLine
 10
-137.7119999999999
 20
-38.95674999999986
 11
-143.2119999999999
 21
-38.95675000000036
  0
ARC
  5
BC
100
AcDbEntity
  8
0
  6
ByLayer
 62
  256
370
   -1
100
AcDbCircle
 10
-137.7119999999999
 20
-38.2067500000003
 40
0.7499999999995666
100
AcDbArc
 50
-90
 51
0
  0
LINE
  5
BD
100
AcDbEntity
  8
0
  6
ByLayer
 62
  256
370
   -1
100
AcDbLine
 10
-136.962
 20
-25.70675000000004
 11
-136.9620000000004
 21
-38.2067500000003
  0
ARC
  5
BE
100
AcDbEntity
  8
0
  6
ByLayer
 62
  256
370
   -1
100
AcDbCircle
 10
71.03699999999996
 20
-38.2067500000003
 40
0.7500000000000995
100
AcDbArc
 50
180
 51
270.0000000000032
  0
LINE
  5
BF
100
AcDbEntity
  8
0
  6
ByLayer
 62
  256
370
   -1
100
AcDbLine
 10
76.53699999999998
 20
-38.95675000000018
 11
71.03700000000001
 21
-38.9567500000004
  0
ARC
  5
C0
100
AcDbEntity
  8
0
  6
ByLayer
 62
  256
370
   -1
100
AcDbCircle
 10
76.53699999999998
 20
-38.2067500000003
 40
0.7499999999998863
100
AcDbArc
 50
-90
 51
0
  0
LINE
  5
C1
100
AcDbEntity
  8
0
  6
ByLayer
 62
  256
370
   -1
100
AcDbLine
 10
77.28699999999996
 20
-37.95674999999942
 11
77.28699999999986
 21
-38.2067500000003
  0
LINE
  5
C2
100
AcDbEntity
  8
0
  6
ByLayer
 62
  256
370
   -1
100
AcDbLine
 10
91.97499999999994
 20
-37.95674999999992
 11
77.28699999999996
 21
-37.95674999999942
  0
ARC
  5
C3
100
AcDbEntity
  8
0
  6
ByLayer
 62
  256
370
   -1
100
AcDbCircle
 10
91.97499999999994
 20
-37.20674999999989
 40
0.7500000000000284
100
AcDbArc
 50
-90
 51
0
  0
LINE
  5
C4
100
AcDbEntity
  8
0
  6
ByLayer
 62
  256
370
   -1
100
AcDbLine
 10
92.72499999999997
 20
-24.70675000000003
 11
92.72499999999997
 21
-37.20674999999989
  0
ARC
  5
C5
100
AcDbEntity
  8
0
  6
ByLayer
 62
  256
370
   -1
100
AcDbCircle
 10
91.97499999999994
 20
-24.70675000000003
 40
0.7500000000000284
100
AcDbArc
 50
0
 51
90
  0
LINE
  5
C6
100
AcDbEntity
  8
0
  6
ByLayer
 62
  256
370
   -1
100
AcDbLine
 10
69.94999999999997
 20
-23.95674999999993
 11
91.97499999999994
 21
-23.95675
  0
ARC
  5
C7
100
AcDbEntity
  8
0
  6
ByLayer
 62
  256
370
   -1
100
AcDbCircle
 10
69.94999999999997
 20
-24.70674999999992
 40
0.7499999999999929
100
AcDbArc
 50
90
 51
180
  0
LINE
  5
C8
100
AcDbEntity
  8
0
  6
ByLayer
 62
  256
370
   -1
100
AcDbLine
 10
69.19999999999999
 20
-37.20674999999973
 11
69.19999999999999
 21
-24.70674999999996
  0
ARC
  5
C9
100
AcDbEntity
  8
0
  6
ByLayer
 62
  256
370
   -1
100
AcDbCircle
 10
69.94999999999997
 20
-37.20674999999989
 40
0.7499999999999929
100
AcDbArc
 50
180
 51
269.9999999999968
  0
LINE
  5
CA
100
AcDbEntity
  8
0
  6
ByLayer
 62
  256
370
   -1
100
AcDbLine
 10
70.28699999999998
 20
-37.95675000000045
 11
69.94999999999993
 21
-37.95674999999989
  0
LINE
  5
CB
100
AcDbEntity
  8
0
  6
ByLayer
 62
  256
370
   -1
100
AcDbLine
 10
70.28699999999986
 20
-38.20675000000028
 11
70.28699999999998
 21
-37.95675000000045
  0
ARC
  5
CC
100
AcDbEntity
  8
0
  6
ByLayer
 62
  256
370
   -1
100
AcDbCircle
 10
-115.1937499999999
 20
-37.20674999999989
 40
0.7499999999999574
100
AcDbArc
 50
-90
 51
0
  0
LINE
  5
CD
100
AcDbEntity
  8
0
  6
ByLayer
 62
  256
370
   -1
100
AcDbLine
 10
-114.4437499999999
 20
-24.70675000000003
 11
-114.44375
 21
-37.20674999999989
  0
ARC
  5
CE
100
AcDbEntity
  8
0
  6
ByLayer
 62
  256
370
   -1
100
AcDbCircle
 10
-115.1937499999999
 20
-24.70675000000003
 40
0.7499999999999929
100
AcDbArc
 50
0
 51
90
  0
LINE
  5
CF
100
AcDbEntity
  8
0
  6
ByLayer
 62
  256
370
   -1
100
AcDbLine
 10
-127.69375
 20
-23.95675000000007
 11
-115.1937499999999
 21
-23.95675000000004
  0
ARC
  5
D0
100
AcDbEntity
  8
0
  6
ByLayer
 62
  256
370
   -1
100
AcDbCircle
 10
-127.69375
 20
-24.70675000000003
 40
0.7499999999999574
100
AcDbArc
 50
90
 51
180
  0
LINE
  5
D1
100
AcDbEntity
  8
0
  6
ByLayer
 62
  256
370
   -1
100
AcDbLine
 10
-128.4437499999999
 20
-37.20674999999989
 11
-128.44375
 21
-24.70675000000003
  0
ARC
  5
D2
100
AcDbEntity
  8
0
  6
ByLayer
 62
  256
370
   -1
100
AcDbCircle
 10
-127.69375
 20
-37.20674999999989
 40
0.7499999999998863
100
AcDbArc
 50
180
 51
270
  0
LINE
  5
D3
100
AcDbEntity
  8
0
  6
ByLayer
 62
  256
370
   -1
100
AcDbLine
 10
-115.1937499999999
 20
-37.95674999999985
 11
-127.69375
 21
-37.95674999999978
  0
LINE
  5
D4
100
AcDbEntity
  8
0
  6
ByLayer
 62
  256
370
   -1
100
AcDbLine
 10
-108.64375
 20
-23.95675000000007
 11
-96.14375000000003
 21
-23.95675000000004
  0
ARC
  5
D5
100
AcDbEntity
  8
0
  6
ByLayer
 62
  256
370
   -1
100
AcDbCircle
 10
-96.14375000000003
 20
-24.70675000000003
 40
0.7499999999999929
100
AcDbArc
 50
0
 51
90
  0
LINE
  5
D6
100
AcDbEntity
  8
0
  6
ByLayer
 62
  256
370
   -1
100
AcDbLine
 10
-95.39375000000004
 20
-24.70675000000003
 11
-95.39375000000007
 21
-37.20674999999989
  0
ARC
  5
D7
100
AcDbEntity
  8
0
  6
ByLayer
 62
  256
370
   -1
100
AcDbCircle
 10
-96.14375000000003
 20
-37.20674999999989
 40
0.7499999999999574
100
AcDbArc
 50
-90
 51
0
  0
LINE
  5
D8
100
AcDbEntity
  8
0
  6
ByLayer
 62
  256
370
   -1
100
AcDbLine
 10
-96.14375000000003
 20
-37.95674999999985
 11
-108.64375
 21
-37.9567499999998
  0
ARC
  5
D9
100
AcDbEntity
  8
0
  6
ByLayer
 62
  256
370
   -1
100
AcDbCircle
 10
-108.64375
 20
-37.20674999999989
 40
0.7499999999999041
100
AcDbArc
 50
180
 51
270
  0
LINE
  5
DA
100
AcDbEntity
  8
0
  6
ByLayer
 62
  256
370
   -1
100
AcDbLine
 10
-109.3937499999999
 20
-37.20674999999989
 11
-109.39375
 21
-24.70675000000003
  0
ARC
  5
DB
100
AcDbEntity
  8
0
  6
ByLayer
 62
  256
370
   -1
100
AcDbCircle
 10
-108.64375
 20
-24.70675000000003
 40
0.7499999999999574
100
AcDbArc
 50
90
 51
180
  0
ARC
  5
DC
100
AcDbEntity
  8
0
  6
ByLayer
 62
  256
370
   -1
100
AcDbCircle
 10
-89.59374999999993
 20
-37.20674999999989
 40
0.7500000000000107
100
AcDbArc
 50
180
 51
270
  0
LINE
  5
DD
100
AcDbEntity
  8
0
  6
ByLayer
 62
  256
370
   -1
100
AcDbLine
 10
-77.09375000000003
 20
-37.95674999999985
 11
-89.59374999999993
 21
-37.9567499999999
  0
ARC
  5
DE
100
AcDbEntity
  8
0
  6
ByLayer
 62
  256
370
   -1
100
AcDbCircle
 10
-77.09375000000003
 20
-37.20674999999989
 40
0.7499999999999574
100
AcDbArc
 50
-90
 51
0
  0
LINE
  5
DF
100
AcDbEntity
  8
0
  6
ByLayer
 62
  256
370
   -1
100
AcDbLine
 10
-76.34375000000004
 20
-24.70675000000003
 11
-76.34375000000007
 21
-37.20674999999989
  0
ARC
  5
E0
100
AcDbEntity
  8
0
  6
ByLayer
 62
  256
370
   -1
100
AcDbCircle
 10
-77.09375000000003
 20
-24.70675000000003
 40
0.7499999999999929
100
AcDbArc
 50
0
 51
90
  0
LINE
  5
E1
100
AcDbEntity
  8
0
  6
ByLayer
 62
  256
370
   -1
100
AcDbLine
 10
-89.59374999999993
 20
-23.95675000000007
 11
-77.09375000000003
 21
-23.95675000000004
  0
ARC
  5
E2
100
AcDbEntity
  8
0
  6
ByLayer
 62
  256
370
   -1
100
AcDbCircle
 10
-89.59374999999993
 20
-24.70675000000003
 40
0.7499999999999574
100
AcDbArc
 50
90
 51
180
  0
LINE
  5
E3
100
AcDbEntity
  8
0
  6
ByLayer
 62
  256
370
   -1
100
AcDbLine
 10
-90.34374999999994
 20
-37.20674999999989
 11
-90.34374999999989
 21
-24.70675000000003
  0
ARC
  5
E4
100
AcDbEntity
  8
0
  6
ByLayer
 62
  256
370
   -1
100
AcDbCircle
 10
-58.04375000000004
 20
-37.20674999999989
 40
0.7499999999999574
100
AcDbArc
 50
-90
 51
0
  0
LINE
  5
E5
100
AcDbEntity
  8
0
  6
ByLayer
 62
  256
370
   -1
100
AcDbLine
 10
-57.29375000000008
 20
-24.70675000000003
 11
-57.29375000000008
 21
-37.20674999999989
  0
ARC
  5
E6
100
AcDbEntity
  8
0
  6
ByLayer
 62
  256
370
   -1
100
AcDbCircle
 10
-58.04375000000004
 20
-24.70675000000003
 40
0.7499999999999574
100
AcDbArc
 50
0
 51
90
  0
LINE
  5
E7
100
AcDbEntity
  8
0
  6
ByLayer
 62
  256
370
   -1
100
AcDbLine
 10
-70.54375000000005
 20
-23.95675000000007
 11
-58.04375000000004
 21
-23.95675000000007
  0
ARC
  5
E8
100
AcDbEntity
  8
0
  6
ByLayer
 62
  256
370
   -1
100
AcDbCircle
 10
-70.54375000000005
 20
-24.70675000000003
 40
0.7499999999999574
100
AcDbArc
 50
90
 51
180
  0
LINE
  5
E9
100
AcDbEntity
  8
0
  6
ByLayer
 62
  256
370
   -1
100
AcDbLine
 10
-71.29375000000003
 20
-37.20674999999989
 11
-71.29374999999999
 21
-24.70675000000003
  0
ARC
  5
EA
100
AcDbEntity
  8
0
  6
ByLayer
 62
  256
370
   -1
100
AcDbCircle
 10
-70.54375000000005
 20
-37.20674999999989
 40
0.7499999999999929
100
AcDbArc
 50
180
 51
270
  0
LINE
  5
EB
100
AcDbEntity
  8
0
  6
ByLayer
 62
  256
370
   -1
100
AcDbLine
 10
-58.04375000000004
 20
-37.95674999999985
 11
-70.54375000000005
 21
-37.95674999999989
  0
ARC
  5
EC
100
AcDbEntity
  8
0
  6
ByLayer
 62
  256
370
   -1
100
AcDbCircle
 10
-51.49375000000003
 20
-37.20674999999989
 40
0.7499999999999929
100
AcDbArc
 50
180
 51
270
  0
LINE
  5
ED
100
AcDbEntity
  8
0
  6
ByLayer
 62
  256
370
   -1
100
AcDbLine
 10
-38.99375000000003
 20
-37.95674999999985
 11
-51.49375000000003
 21
-37.95674999999989
  0
ARC
  5
EE
100
AcDbEntity
  8
0
  6
ByLayer
 62
  256
370
   -1
100
AcDbCircle
 10
-38.99375000000003
 20
-37.20674999999989
 40
0.7499999999999574
100
AcDbArc
 50
-90
 51
0
  0
LINE
  5
EF
100
AcDbEntity
  8
0
  6
ByLayer
 62
  256
370
   -1
100
AcDbLine
 10
-38.24375000000003
 20
-24.70675000000003
 11
-38.24375000000007
 21
-37.20674999999989
  0
ARC
  5
F0
100
AcDbEntity
  8
0
  6
ByLayer
 62
  256
370
   -1
100
AcDbCircle
 10
-38.99375000000003
 20
-24.70675000000003
 40
0.7499999999999929
100
AcDbArc
 50
0
 51
90
  0
LINE
  5
F1
100
AcDbEntity
  8
0
  6
ByLayer
 62
  256
370
   -1
100
AcDbLine
 10
-51.49375000000003
 20
-23.95675
 11
-38.99375000000003
 21
-23.95675000000004
  0
ARC
  5
F2
100
AcDbEntity
  8
0
  6
ByLayer
 62
  256
370
   -1
100
AcDbCircle
 10
-51.49375000000003
 20
-24.70675000000003
 40
0.7500000000000284
100
AcDbArc
 50
90
 51
180
  0
LINE
  5
F3
100
AcDbEntity
  8
0
  6
ByLayer
 62
  256
370
   -1
100
AcDbLine
 10
-52.24375000000002
 20
-37.20674999999989
 11
-52.24375000000006
 21
-24.70675000000003
  0
ARC
  5
F4
100
AcDbEntity
  8
0
  6
ByLayer
 62
  256
370
   -1
100
AcDbCircle
 10
-19.94375000000005
 20
-37.20674999999989
 40
0.7499999999999574
100
AcDbArc
 50
-90
 51
0
  0
LINE
  5
F5
100
AcDbEntity
  8
0
  6
ByLayer
 62
  256
370
   -1
100
AcDbLine
 10
-19.19375000000006
 20
-24.70675000000003
 11
-19.19375000000009
 21
-37.20674999999989
  0
ARC
  5
F6
100
AcDbEntity
  8
0
  6
ByLayer
 62
  256
370
   -1
100
AcDbCircle
 10
-19.94375000000005
 20
-24.70675000000003
 40
0.7499999999999929
100
AcDbArc
 50
0
 51
90
  0
LINE
  5
F7
100
AcDbEntity
  8
0
  6
ByLayer
 62
  256
370
   -1
100
AcDbLine
 10
-32.44375000000004
 20
-23.95675
 11
-19.94375000000005
 21
-23.95675000000004
  0
ARC
  5
F8
100
AcDbEntity
  8
0
  6
ByLayer
 62
  256
370
   -1
100
AcDbCircle
 10
-32.44375000000004
 20
-24.70675000000003
 40
0.7500000000000284
100
AcDbArc
 50
90
 51
180
  0
LINE
  5
F9
100
AcDbEntity
  8
0
  6
ByLayer
 62
  256
370
   -1
100
AcDbLine
 10
-33.19375000000004
 20
-37.20674999999989
 11
-33.19375000000007
 21
-24.70675000000003
  0
ARC
  5
FA
100
AcDbEntity
  8
0
  6
ByLayer
 62
  256
370
   -1
100
AcDbCircle
 10
-32.44375000000004
 20
-37.20674999999989
 40
0.7500000000000107
100
AcDbArc
 50
180
 51
270
  0
LINE
  5
FB
100
AcDbEntity
  8
0
  6
ByLayer
 62
  256
370
   -1
100
AcDbLine
 10
-19.94375000000005
 20
-37.95674999999985
 11
-32.44375000000004
 21
-37.9567499999999
  0
LINE
  5
FC
100
AcDbEntity
  8
0
  6
ByLayer
 62
  256
370
   -1
100
AcDbLine
 10
-0.8937500000000398
 20
-37.95674999999985
 11
-13.39375000000004
 21
-37.95674999999989
  0
ARC
  5
FD
100
AcDbEntity
  8
0
  6
ByLayer
 62
  256
370
   -1
100
AcDbCircle
 10
-13.39375000000004
 20
-37.20674999999989
 40
0.7499999999999929
100
AcDbArc
 50
180
 51
270
  0
LINE
  5
FE
100
AcDbEntity
  8
0
  6
ByLayer
 62
  256
370
   -1
100
AcDbLine
 10
-14.14375000000003
 20
-37.20674999999989
 11
-14.14375000000007
 21
-24.70675000000003
  0
ARC
  5
FF
100
AcDbEntity
  8
0
  6
ByLayer
 62
  256
370
   -1
100
AcDbCircle
 10
-13.39375000000004
 20
-24.70675000000003
 40
0.7500000000000284
100
AcDbArc
 50
90
 51
180
  0
LINE
  5
100
100
AcDbEntity
  8
0
  6
ByLayer
 62
  256
370
   -1
100
AcDbLine
 10
-13.39375000000004
 20
-23.95675
 11
-0.8937500000000398
 21
-23.95675000000014
  0
ARC
  5
101
100
AcDbEntity
  8
0
  6
ByLayer
 62
  256
370
   -1
100
AcDbCircle
 10
-0.8937500000000398
 20
-24.70675000000003
 40
0.7499999999998862
100
AcDbArc
 50
0
 51
90
  0
LINE
  5
102
100
AcDbEntity
  8
0
  6
ByLayer
 62
  256
370
   -1
100
AcDbLine
 10
-0.1437500000001535
 20
-24.70675000000003
 11
-0.1437500000000824
 21
-37.20674999999989
  0
ARC
  5
103
100
AcDbEntity
  8
0
  6
ByLayer
 62
  256
370
   -1
100
AcDbCircle
 10
-0.8937500000000398
 20
-37.20674999999989
 40
0.7499999999999574
100
AcDbArc
 50
-90
 51
0
  0
ARC
  5
104
100
AcDbEntity
  8
0
  6
ByLayer
 62
  256
370
   -1
100
AcDbCircle
 10
18.15625000000001
 20
-37.20674999999989
 40
0.7499999999999574
100
AcDbArc
 50
-90
 51
0
  0
LINE
  5
105
100
AcDbEntity
  8
0
  6
ByLayer
 62
  256
370
   -1
100
AcDbLine
 10
18.90625000000011
 20
-24.70675000000003
 11
18.90624999999996
 21
-37.20674999999989
  0
ARC
  5
106
100
AcDbEntity
  8
0
  6
ByLayer
 62
  256
370
   -1
100
AcDbCircle
 10
18.15625000000001
 20
-24.70675000000003
 40
0.7500000000000995
100
AcDbArc
 50
0
 51
90
  0
LINE
  5
107
100
AcDbEntity
  8
0
  6
ByLayer
 62
  256
370
   -1
100
AcDbLine
 10
5.656249999999972
 20
-23.95675
 11
18.15625000000001
 21
-23.95674999999993
  0
ARC
  5
108
100
AcDbEntity
  8
0
  6
ByLayer
 62
  256
370
   -1
100
AcDbCircle
 10
5.656249999999972
 20
-24.70675000000003
 40
0.7500000000000284
100
AcDbArc
 50
90
 51
180
  0
LINE
  5
109
100
AcDbEntity
  8
0
  6
ByLayer
 62
  256
370
   -1
100
AcDbLine
 10
4.906249999999979
 20
-37.20674999999989
 11
4.906249999999943
 21
-24.70675000000003
  0
ARC
  5
10A
100
AcDbEntity
  8
0
  6
ByLayer
 62
  256
370
   -1
100
AcDbCircle
 10
5.656249999999972
 20
-37.20674999999989
 40
0.7499999999999929
100
AcDbArc
 50
180
 51
270
  0
LINE
  5
10B
100
AcDbEntity
  8
0
  6
ByLayer
 62
  256
370
   -1
100
AcDbLine
 10
18.15625000000001
 20
-37.95674999999985
 11
5.656249999999972
 21
-37.95674999999989
  0
LINE
  5
10C
100
AcDbEntity
  8
0
  6
ByLayer
 62
  256
370
   -1
100
AcDbLine
 10
37.20624999999998
 20
-37.95674999999985
 11
24.70624999999998
 21
-37.95674999999989
  0
ARC
  5
10D
100
AcDbEntity
  8
0
  6
ByLayer
 62
  256
370
   -1
100
AcDbCircle
 10
24.70624999999998
 20
-37.20674999999989
 40
0.7499999999999929
100
AcDbArc
 50
180
 51
270
  0
LINE
  5
10E
100
AcDbEntity
  8
0
  6
ByLayer
 62
  256
370
   -1
100
AcDbLine
 10
23.95624999999999
 20
-37.20674999999989
 11
23.95624999999995
 21
-24.70675000000003
  0
ARC
  5
10F
100
AcDbEntity
  8
0
  6
ByLayer
 62
  256
370
   -1
100
AcDbCircle
 10
24.70624999999998
 20
-24.70675000000003
 40
0.7500000000000284
100
AcDbArc
 50
90
 51
180
  0
LINE
  5
110
100
AcDbEntity
  8
0
  6
ByLayer
 62
  256
370
   -1
100
AcDbLine
 10
24.70624999999998
 20
-23.95675
 11
37.20624999999998
 21
-23.95675
  0
ARC
  5
111
100
AcDbEntity
  8
0
  6
ByLayer
 62
  256
370
   -1
100
AcDbCircle
 10
37.20624999999998
 20
-24.70675000000003
 40
0.7500000000000284
100
AcDbArc
 50
0
 51
90
  0
LINE
  5
112
100
AcDbEntity
  8
0
  6
ByLayer
 62
  256
370
   -1
100
AcDbLine
 10
37.95625000000001
 20
-24.70675000000003
 11
37.95624999999994
 21
-37.20674999999989
  0
ARC
  5
113
100
AcDbEntity
  8
0
  6
ByLayer
 62
  256
370
   -1
100
AcDbCircle
 10
37.20624999999998
 20
-37.20674999999989
 40
0.7499999999999574
100
AcDbArc
 50
-90
 51
0
  0
ARC
  5
114
100
AcDbEntity
  8
0
  6
ByLayer
 62
  256
370
   -1
100
AcDbCircle
 10
43.75624999999999
 20
-24.70675000000003
 40
0.7500000000000284
100
AcDbArc
 50
90
 51
180
  0
LINE
  5
115
100
AcDbEntity
  8
0
  6
ByLayer
 62
  256
370
   -1
100
AcDbLine
 10
43.00625
 20
-37.20674999999989
 11
43.00624999999997
 21
-24.70675000000003
  0
ARC
  5
116
100
AcDbEntity
  8
0
  6
ByLayer
 62
  256
370
   -1
100
AcDbCircle
 10
43.75624999999999
 20
-37.20674999999989
 40
0.7499999999999929
100
AcDbArc
 50
180
 51
270
  0
LINE
  5
117
100
AcDbEntity
  8
0
  6
ByLayer
 62
  256
370
   -1
100
AcDbLine
 10
56.25624999999999
 20
-37.95674999999985
 11
43.75624999999999
 21
-37.95674999999989
  0
ARC
  5
118
100
AcDbEntity
  8
0
  6
ByLayer
 62
  256
370
   -1
100
AcDbCircle
 10
56.25624999999999
 20
-37.20674999999989
 40
0.7499999999999574
100
AcDbArc
 50
-90
 51
0
  0
LINE
  5
119
100
AcDbEntity
  8
0
  6
ByLayer
 62
  256
370
   -1
100
AcDbLine
 10
57.00624999999981
 20
-24.70675000000003
 11
57.00624999999995
 21
-37.20674999999989
  0
ARC
  5
11A
100
AcDbEntity
  8
0
  6
ByLayer
 62
  256
370
   -1
100
AcDbCircle
 10
56.25624999999999
 20
-24.70675000000003
 40
0.7499999999998153
100
AcDbArc
 50
0
 51
90
  0
LINE
  5
11B
100
AcDbEntity
  8
0
  6
ByLayer
 62
  256
370
   -1
100
AcDbLine
 10
43.75624999999999
 20
-23.95675
 11
56.25624999999999
 21
-23.95675000000021
  0
LINE
  5
11C
100
AcDbEntity
  8
0
  6
ByLayer
 62
  256
370
   -1
100
AcDbLine
 10
132.45625
 20
-37.95674999999987
 11
121.95625
 21
-37.95674999999985
  0
ARC
  5
11D
100
AcDbEntity
  8
0
  6
ByLayer
 62
  256
370
   -1
100
AcDbCircle
 10
121.95625
 20
-37.20674999999989
 40
0.7499999999999574
100
AcDbArc
 50
180
 51
270.0000000000032
  0
LINE
  5
11E
100
AcDbEntity
  8
0
  6
ByLayer
 62
  256
370
   -1
100
AcDbLine
 10
121.20625
 20
-37.20674999999987
 11
121.20625
 21
-24.7067499999999
  0
ARC
  5
11F
100
AcDbEntity
  8
0
  6
ByLayer
 62
  256
370
   -1
100
AcDbCircle
 10
121.95625
 20
-24.70674999999992
 40
0.7499999999999751
100
AcDbArc
 50
90
 51
180
  0
LINE
  5
120
100
AcDbEntity
  8
0
  6
ByLayer
 62
  256
370
   -1
100
AcDbLine
 10
121.95625
 20
-23.95674999999994
 11
132.45625
 21
-23.95674999999993
  0
ARC
  5
121
100
AcDbEntity
  8
0
  6
ByLayer
 62
  256
370
   -1
100
AcDbCircle
 10
132.45625
 20
-24.70674999999992
 40
0.7499999999999929
100
AcDbArc
 50
0
 51
90
  0
LINE
  5
122
100
AcDbEntity
  8
0
  6
ByLayer
 62
  256
370
   -1
100
AcDbLine
 10
133.20625
 20
-24.70674999999992
 11
133.20625
 21
-37.20674999999989
  0
ARC
  5
123
100
AcDbEntity
  8
0
  6
ByLayer
 62
  256
370
   -1
100
AcDbCircle
 10
132.45625
 20
-37.20674999999989
 40
0.7499999999999751
100
AcDbArc
 50
-90
 51
0
  0
ARC
  5
124
100
AcDbEntity
  8
0
  6
ByLayer
 62
  256
370
   -1
100
AcDbCircle
 10
151.5062499999999
 20
-37.20674999999989
 40
0.7499999999999574
100
AcDbArc
 50
-90
 51
0
  0
LINE
  5
125
100
AcDbEntity
  8
0
  6
ByLayer
 62
  256
370
   -1
100
AcDbLine
 10
152.25625
 20
-24.70675000000003
 11
152.2562499999999
 21
-37.20674999999989
  0
ARC
  5
126
100
AcDbEntity
  8
0
  6
ByLayer
 62
  256
370
   -1
100
AcDbCircle
 10
151.5062499999999
 20
-24.70675000000003
 40
0.7500000000000284
100
AcDbArc
 50
0
 51
90
  0
LINE
  5
127
100
AcDbEntity
  8
0
  6
ByLayer
 62
  256
370
   -1
100
AcDbLine
 10
139.0062499999999
 20
-23.95675
 11
151.5062499999999
 21
-23.95675
  0
ARC
  5
128
100
AcDbEntity
  8
0
  6
ByLayer
 62
  256
370
   -1
100
AcDbCircle
 10
139.0062499999999
 20
-24.70675000000003
 40
0.7500000000000284
100
AcDbArc
 50
90
 51
180
  0
LINE
  5
129
100
AcDbEntity
  8
0
  6
ByLayer
 62
  256
370
   -1
100
AcDbLine
 10
138.25625
 20
-37.20674999999989
 11
138.2562499999999
 21
-24.70675000000003
  0
ARC
  5
12A
100
AcDbEntity
  8
0
  6
ByLayer
 62
  256
370
   -1
100
AcDbCircle
 10
139.0062499999999
 20
-37.20674999999989
 40
0.7499999999999574
100
AcDbArc
 50
180
 51
270
  0
LINE
  5
12B
100
AcDbEntity
  8
0
  6
ByLayer
 62
  256
370
   -1
100
AcDbLine
 10
151.5062499999999
 20
-37.95674999999985
 11
139.0062499999999
 21
-37.95674999999985
  0
ARC
  5
12C
100
AcDbEntity
  8
0
  6
ByLayer
 62
  256
370
   -1
100
AcDbCircle
 10
168.55625
 20
-37.20674999999989
 40
0.7500000000000995
100
AcDbArc
 50
-90
 51
0
  0
LINE
  5
12D
100
AcDbEntity
  8
0
  6
ByLayer
 62
  256
370
   -1
100
AcDbLine
 10
169.3062500000001
 20
-24.7067500000001
 11
169.3062500000001
 21
-37.20674999999989
  0
ARC
  5
12E
100
AcDbEntity
  8
0
  6
ByLayer
 62
  256
370
   -1
100
AcDbCircle
 10
168.55625
 20
-24.70675000000003
 40
0.7500000000000995
100
AcDbArc
 50
0
 51
90
  0
LINE
  5
12F
100
AcDbEntity
  8
0
  6
ByLayer
 62
  256
370
   -1
100
AcDbLine
 10
158.0562499999999
 20
-23.95674999999993
 11
168.55625
 21
-23.95674999999993
  0
ARC
  5
130
100
AcDbEntity
  8
0
  6
ByLayer
 62
  256
370
   -1
100
AcDbCircle
 10
158.0562499999999
 20
-24.70675000000003
 40
0.7500000000000995
100
AcDbArc
 50
90
 51
180
  0
LINE
  5
131
100
AcDbEntity
  8
0
  6
ByLayer
 62
  256
370
   -1
100
AcDbLine
 10
157.30625
 20
-37.20674999999989
 11
157.3062499999999
 21
-24.70675000000003
  0
ARC
  5
132
100
AcDbEntity
  8
0
  6
ByLayer
 62
  256
370
   -1
100
AcDbCircle
 10
158.0562499999999
 20
-37.20674999999989
 40
0.7499999999999574
100
AcDbArc
 50
180
 51
270
  0
LINE
  5
133
100
AcDbEntity
  8
0
  6
ByLayer
 62
  256
370
   -1
100
AcDbLine
 10
168.55625
 20
-37.95674999999999
 11
158.0562499999999
 21
-37.95674999999985
  0
LINE
  5
134
100
AcDbEntity
  8
0
  6
ByLayer
 62
  256
370
   -1
100
AcDbLine
 10
133.20625
 20
13.39325000000001
 11
133.20625
 21
0.8932500000000232
  0
ARC
  5
135
100
AcDbEntity
  8
0
  6
ByLayer
 62
  256
370
   -1
100
AcDbCircle
 10
132.45625
 20
0.8932500000000232
 40
0.7500000000000284
100
AcDbArc
 50
-90
 51
0
  0
LINE
  5
136
100
AcDbEntity
  8
0
  6
ByLayer
 62
  256
370
   -1
100
AcDbLine
 10
132.45625
 20
0.1432499999999948
 11
119.95625
 21
0.1432500000001813
  0
ARC
  5
137
100
AcDbEntity
  8
0
  6
ByLayer
 62
  256
370
   -1
100
AcDbCircle
 10
119.95625
 20
0.8932500000000232
 40
0.7499999999998153
100
AcDbArc
 50
180
 51
270
  0
LINE
  5
138
100
AcDbEntity
  8
0
  6
ByLayer
 62
  256
370
   -1
100
AcDbLine
 10
119.2062500000002
 20
0.8932500000000232
 11
119.20625
 21
13.39325000000001
  0
ARC
  5
139
100
AcDbEntity
  8
0
  6
ByLayer
 62
  256
370
   -1
100
AcDbCircle
 10
119.95625
 20
13.39325000000001
 40
0.7499999999999929
100
AcDbArc
 50
90
 51
180
  0
LINE
  5
13A
100
AcDbEntity
  8
0
  6
ByLayer
 62
  256
370
   -1
100
AcDbLine
 10
119.95625
 20
14.14325
 11
132.45625
 21
14.14325000000004
  0
ARC
  5
13B
100
AcDbEntity
  8
0
  6
ByLayer
 62
  256
370
   -1
100
AcDbCircle
 10
132.45625
 20
13.39325000000001
 40
0.7500000000000284
100
AcDbArc
 50
0
 51
90
  0
ARC
  5
13C
100
AcDbEntity
  8
0
  6
ByLayer
 62
  256
370
   -1
100
AcDbCircle
 10
151.5062499999999
 20
13.39325000000001
 40
0.7500000000001705
100
AcDbArc
 50
0
 51
90
  0
LINE
  5
13D
100
AcDbEntity
  8
0
  6
ByLayer
 62
  256
370
   -1
100
AcDbLine
 10
139.0062499999999
 20
14.14325
 11
151.5062499999999
 21
14.14325000000004
  0
ARC
  5
13E
100
AcDbEntity
  8
0
  6
ByLayer
 62
  256
370
   -1
100
AcDbCircle
 10
139.0062499999999
 20
13.39325000000001
 40
0.7499999999999929
100
AcDbArc
 50
90
 51
180
  0
LINE
  5
13F
100
AcDbEntity
  8
0
  6
ByLayer
 62
  256
370
   -1
100
AcDbLine
 10
138.2562499999999
 20
0.8932500000000232
 11
138.2562499999999
 21
13.39325000000001
  0
ARC
  5
140
100
AcDbEntity
  8
0
  6
ByLayer
 62
  256
370
   -1
100
AcDbCircle
 10
139.0062499999999
 20
0.8932500000000232
 40
0.7500000000000284
100
AcDbArc
 50
180
 51
270
  0
LINE
  5
141
100
AcDbEntity
  8
0
  6
ByLayer
 62
  256
370
   -1
100
AcDbLine
 10
151.5062499999999
 20
0.1432499999999948
 11
139.0062499999999
 21
0.143249999999977
  0
ARC
  5
142
100
AcDbEntity
  8
0
  6
ByLayer
 62
  256
370
   -1
100
AcDbCircle
 10
151.5062499999999
 20
0.8932500000000232
 40
0.7500000000000284
100
AcDbArc
 50
-90
 51
0
  0
LINE
  5
143
100
AcDbEntity
  8
0
  6
ByLayer
 62
  256
370
   -1
100
AcDbLine
 10
152.2562500000001
 20
13.39325000000001
 11
152.25625
 21
0.8932500000000232
  0
LINE
  5
144
100
AcDbEntity
  8
0
  6
ByLayer
 62
  256
370
   -1
100
AcDbLine
 10
171.3062499999998
 20
13.39325000000001
 11
171.30625
 21
0.8932500000000232
  0
ARC
  5
145
100
AcDbEntity
  8
0
  6
ByLayer
 62
  256
370
   -1
100
AcDbCircle
 10
170.5562499999999
 20
0.8932500000000232
 40
0.7500000000000284
100
AcDbArc
 50
-90
 51
0
  0
LINE
  5
146
100
AcDbEntity
  8
0
  6
ByLayer
 62
  256
370
   -1
100
AcDbLine
 10
170.5562499999999
 20
0.1432499999999948
 11
158.0562499999999
 21
0.143249999999977
  0
ARC
  5
147
100
AcDbEntity
  8
0
  6
ByLayer
 62
  256
370
   -1
100
AcDbCircle
 10
158.0562499999999
 20
0.8932500000000232
 40
0.7499999999998863
100
AcDbArc
 50
180
 51
270
  0
LINE
  5
148
100
AcDbEntity
  8
0
  6
ByLayer
 62
  256
370
   -1
100
AcDbLine
 10
157.3062500000001
 20
0.8932500000000232
 11
157.3062499999999
 21
13.3932500000001
  0
ARC
  5
149
100
AcDbEntity
  8
0
  6
ByLayer
 62
  256
370
   -1
100
AcDbCircle
 10
158.0562499999999
 20
13.3932500000001
 40
0.7499999999999929
100
AcDbArc
 50
90
 51
180
  0
LINE
  5
14A
100
AcDbEntity
  8
0
  6
ByLayer
 62
  256
370
   -1
100
AcDbLine
 10
158.0562499999999
 20
14.1432500000001
 11
170.5562499999999
 21
14.14324999999995
  0
ARC
  5
14B
100
AcDbEntity
  8
0
  6
ByLayer
 62
  256
370
   -1
100
AcDbCircle
 10
170.5562499999999
 20
13.39325000000001
 40
0.7499999999998863
100
AcDbArc
 50
0
 51
90
  0
ARC
  5
14C
100
AcDbEntity
  8
0
  6
ByLayer
 62
  256
370
   -1
100
AcDbCircle
 10
121.95625
 20
-5.656750000000015
 40
0.7500000000000018
100
AcDbArc
 50
90
 51
180
  0
LINE
  5
14D
100
AcDbEntity
  8
0
  6
ByLayer
 62
  256
370
   -1
100
AcDbLine
 10
121.20625
 20
-18.15674999999998
 11
121.20625
 21
-5.656749999999988
  0
ARC
  5
14E
100
AcDbEntity
  8
0
  6
ByLayer
 62
  256
370
   -1
100
AcDbCircle
 10
121.95625
 20
-18.15674999999998
 40
0.7499999999999929
100
AcDbArc
 50
180
 51
270
  0
LINE
  5
14F
100
AcDbEntity
  8
0
  6
ByLayer
 62
  256
370
   -1
100
AcDbLine
 10
168.55625
 20
-18.90674999999997
 11
121.95625
 21
-18.90674999999997
  0
ARC
  5
150
100
AcDbEntity
  8
0
  6
ByLayer
 62
  256
370
   -1
100
AcDbCircle
 10
168.55625
 20
-18.15674999999987
 40
0.7500000000000995
100
AcDbArc
 50
-90
 51
0
  0
LINE
  5
151
100
AcDbEntity
  8
0
  6
ByLayer
 62
  256
370
   -1
100
AcDbLine
 10
169.3062500000001
 20
-5.656750000000104
 11
169.3062500000001
 21
-18.15674999999987
  0
ARC
  5
152
100
AcDbEntity
  8
0
  6
ByLayer
 62
  256
370
   -1
100
AcDbCircle
 10
168.55625
 20
-5.656750000000113
 40
0.7500000000000995
100
AcDbArc
 50
0
 51
90
  0
LINE
  5
153
100
AcDbEntity
  8
0
  6
ByLayer
 62
  256
370
   -1
100
AcDbLine
 10
121.95625
 20
-4.906750000000013
 11
168.55625
 21
-4.906750000000013
  0
ARC
  5
154
100
AcDbEntity
  8
0
  6
ByLayer
 62
  256
370
   -1
100
AcDbCircle
 10
-167.0879999999999
 20
-25.70675000000004
 40
0.7500000000000995
100
AcDbArc
 50
90
 51
180
  0
LINE
  5
155
100
AcDbEntity
  8
0
  6
ByLayer
 62
  256
370
   -1
100
AcDbLine
 10
-167.838
 20
-38.2067500000003
 11
-167.838
 21
-25.70675000000004
  0
ARC
  5
156
100
AcDbEntity
  8
0
  6
ByLayer
 62
  256
370
   -1
100
AcDbCircle
 10
-167.088
 20
-38.2067500000003
 40
0.7499999999999929
100
AcDbArc
 50
180
 51
270
  0
LINE
  5
157
100
AcDbEntity
  8
0
  6
ByLayer
 62
  256
370
   -1
100
AcDbLine
 10
-161.5879999999999
 20
-38.95675000000026
 11
-167.088
 21
-38.95675000000029
  0
ARC
  5
158
100
AcDbEntity
  8
0
  6
ByLayer
 62
  256
370
   -1
100
AcDbCircle
 10
-161.5879999999999
 20
-38.2067500000003
 40
0.7499999999999574
100
AcDbArc
 50
-90
 51
0
  0
LINE
  5
159
100
AcDbEntity
  8
0
  6
ByLayer
 62
  256
370
   -1
100
AcDbLine
 10
-160.8379999999999
 20
-25.70674999999994
 11
-160.838
 21
-38.2067500000003
  0
ARC
  5
15A
100
AcDbEntity
  8
0
  6
ByLayer
 62
  256
370
   -1
100
AcDbCircle
 10
-161.5879999999999
 20
-25.70674999999994
 40
0.7499999999999929
100
AcDbArc
 50
0
 51
90
  0
LINE
  5
15B
100
AcDbEntity
  8
0
  6
ByLayer
 62
  256
370
   -1
100
AcDbLine
 10
-167.0879999999999
 20
-24.95674999999994
 11
-161.5879999999999
 21
-24.95674999999993
  0
ARC
  5
15C
100
AcDbEntity
  8
0
  6
ByLayer
 62
  256
370
   -1
100
AcDbCircle
 10
64.34999999999999
 20
-37.20674999999989
 40
0.7499999999999929
100
AcDbArc
 50
180
 51
246.8756135578926
  0
LINE
  5
15D
100
AcDbEntity
  8
0
  6
ByLayer
 62
  256
370
   -1
100
AcDbLine
 10
63.59999999999999
 20
-37.20675
 11
63.59999999999999
 21
-24.70674999999994
  0
ARC
  5
15E
100
AcDbEntity
  8
0
  6
ByLayer
 62
  256
370
   -1
100
AcDbCircle
 10
64.34999999999999
 20
-24.70674999999992
 40
0.7499999999999929
100
AcDbArc
 50
90
 51
180
  0
LINE
  5
15F
100
AcDbEntity
  8
0
  6
ByLayer
 62
  256
370
   -1
100
AcDbLine
 10
64.34999999999999
 20
-23.95674999999993
 11
64.84999999999997
 21
-23.95674999999989
  0
ARC
  5
160
100
AcDbEntity
  8
0
  6
ByLayer
 62
  256
370
   -1
100
AcDbCircle
 10
64.84999999999999
 20
-24.70674999999992
 40
0.7500000000000284
100
AcDbArc
 50
0
 51
90.00000000000217
  0
LINE
  5
161
100
AcDbEntity
  8
0
  6
ByLayer
 62
  256
370
   -1
100
AcDbLine
 10
65.60000000000002
 20
-24.7067499999999
 11
65.59999999999999
 21
-37.01389285714267
  0
LINE
  5
162
100
AcDbEntity
  8
0
  6
ByLayer
 62
  256
370
   -1
100
AcDbLine
 10
82.04950000000008
 20
-4.656750000000018
 11
82.04950000000004
 21
-19.15674999999997
  0
ARC
  5
163
100
AcDbEntity
  8
0
  6
ByLayer
 62
  256
370
   -1
100
AcDbCircle
 10
81.29949999999997
 20
-19.15674999999997
 40
0.7500000000000639
100
AcDbArc
 50
-90
 51
0
  0
LINE
  5
164
100
AcDbEntity
  8
0
  6
ByLayer
 62
  256
370
   -1
100
AcDbLine
 10
81.29949999999997
 20
-19.90675000000004
 11
75.79949999999997
 21
-19.90674999999999
  0
ARC
  5
165
100
AcDbEntity
  8
0
  6
ByLayer
 62
  256
370
   -1
100
AcDbCircle
 10
75.79949999999997
 20
-19.15675000000017
 40
0.7499999999998153
100
AcDbArc
 50
180
 51
270
  0
LINE
  5
166
100
AcDbEntity
  8
0
  6
ByLayer
 62
  256
370
   -1
100
AcDbLine
 10
75.04950000000015
 20
-19.15675000000017
 11
75.04949999999994
 21
-4.656750000000018
  0
ARC
  5
167
100
AcDbEntity
  8
0
  6
ByLayer
 62
  256
370
   -1
100
AcDbCircle
 10
75.79949999999997
 20
-4.656750000000018
 40
0.7500000000000284
100
AcDbArc
 50
90
 51
180
  0
LINE
  5
168
100
AcDbEntity
  8
0
  6
ByLayer
 62
  256
370
   -1
100
AcDbLine
 10
75.79949999999997
 20
-3.90674999999999
 11
81.29949999999997
 21
-3.906749999999919
  0
ARC
  5
169
100
AcDbEntity
  8
0
  6
ByLayer
 62
  256
370
   -1
100
AcDbCircle
 10
81.29949999999997
 20
-4.656750000000018
 40
0.7500000000000995
100
AcDbArc
 50
0
 51
90
  0
ARC
  5
16A
100
AcDbEntity
  8
0
  6
ByLayer
 62
  256
370
   -1
100
AcDbCircle
 10
84.23750000000001
 20
-18.15674999999998
 40
0.7500000000000284
100
AcDbArc
 50
180
 51
270
  0
LINE
  5
16B
100
AcDbEntity
  8
0
  6
ByLayer
 62
  256
370
   -1
100
AcDbLine
 10
96.73750000000001
 20
-18.90674999999994
 11
84.23750000000001
 21
-18.90675000000001
  0
ARC
  5
16C
100
AcDbEntity
  8
0
  6
ByLayer
 62
  256
370
   -1
100
AcDbCircle
 10
96.73750000000001
 20
-18.15674999999998
 40
0.7499999999999574
100
AcDbArc
 50
-90
 51
0
  0
LINE
  5
16D
100
AcDbEntity
  8
0
  6
ByLayer
 62
  256
370
   -1
100
AcDbLine
 10
97.48749999999998
 20
-5.656750000000015
 11
97.48749999999998
 21
-18.15674999999998
  0
ARC
  5
16E
100
AcDbEntity
  8
0
  6
ByLayer
 62
  256
370
   -1
100
AcDbCircle
 10
96.73750000000001
 20
-5.656750000000015
 40
0.7499999999999574
100
AcDbArc
 50
0
 51
90
  0
LINE
  5
16F
100
AcDbEntity
  8
0
  6
ByLayer
 62
  256
370
   -1
100
AcDbLine
 10
84.23750000000001
 20
-4.906750000000022
 11
96.73750000000001
 21
-4.906750000000057
  0
ARC
  5
170
100
AcDbEntity
  8
0
  6
ByLayer
 62
  256
370
   -1
100
AcDbCircle
 10
84.23750000000001
 20
-5.656750000000015
 40
0.7499999999999929
100
AcDbArc
 50
90
 51
180
  0
LINE
  5
171
100
AcDbEntity
  8
0
  6
ByLayer
 62
  256
370
   -1
100
AcDbLine
 10
83.48749999999998
 20
-18.15674999999998
 11
83.48750000000003
 21
-5.656750000000015
  0
LINE
  5
172
100
AcDbEntity
  8
0
  6
ByLayer
 62
  256
370
   -1
100
AcDbLine
 10
98.9255
 20
-19.15674999999997
 11
98.9255
 21
-4.656749999999903
  0
ARC
  5
173
100
AcDbEntity
  8
0
  6
ByLayer
 62
  256
370
   -1
100
AcDbCircle
 10
99.6755
 20
-4.656749999999921
 40
0.7499999999999929
100
AcDbArc
 50
90
 51
180
  0
LINE
  5
174
100
AcDbEntity
  8
0
  6
ByLayer
 62
  256
370
   -1
100
AcDbLine
 10
99.6755
 20
-3.906749999999928
 11
105.1755
 21
-3.906749999999946
  0
ARC
  5
175
100
AcDbEntity
  8
0
  6
ByLayer
 62
  256
370
   -1
100
AcDbCircle
 10
105.1755
 20
-4.656749999999903
 40
0.7499999999999574
100
AcDbArc
 50
0
 51
90
  0
LINE
  5
176
100
AcDbEntity
  8
0
  6
ByLayer
 62
  256
370
   -1
100
AcDbLine
 10
105.9255
 20
-4.656749999999903
 11
105.9255
 21
-19.15674999999997
  0
ARC
  5
177
100
AcDbEntity
  8
0
  6
ByLayer
 62
  256
370
   -1
100
AcDbCircle
 10
105.1755
 20
-19.15674999999997
 40
0.7500000000000284
100
AcDbArc
 50
-90
 51
0
  0
LINE
  5
178
100
AcDbEntity
  8
0
  6
ByLayer
 62
  256
370
   -1
100
AcDbLine
 10
105.1755
 20
-19.90675
 11
99.6755
 21
-19.90674999999997
  0
ARC
  5
179
100
AcDbEntity
  8
0
  6
ByLayer
 62
  256
370
   -1
100
AcDbCircle
 10
99.6755
 20
-19.15674999999997
 40
0.7499999999999929
100
AcDbArc
 50
180
 51
270
  0
ARC
  5
17A
100
AcDbEntity
  8
0
  6
ByLayer
 62
  256
370
   -1
100
AcDbCircle
 10
-169.0125
 20
-5.656750000000015
 40
0.7499999999999662
100
AcDbArc
 50
90
 51
180
  0
LINE
  5
17B
100
AcDbEntity
  8
0
  6
ByLayer
 62
  256
370
   -1
100
AcDbLine
 10
-169.7625
 20
-18.15674999999998
 11
-169.7625
 21
-5.656750000000015
  0
ARC
  5
17C
100
AcDbEntity
  8
0
  6
ByLayer
 62
  256
370
   -1
100
AcDbCircle
 10
-169.0125
 20
-18.15674999999998
 40
0.7499999999999574
100
AcDbArc
 50
180
 51
270
  0
LINE
  5
17D
100
AcDbEntity
  8
0
  6
ByLayer
 62
  256
370
   -1
100
AcDbLine
 10
-150.9125
 20
-18.90675000000001
 11
-169.0125
 21
-18.90674999999994
  0
ARC
  5
17E
100
AcDbEntity
  8
0
  6
ByLayer
 62
  256
370
   -1
100
AcDbCircle
 10
-150.9124999999999
 20
-18.15674999999998
 40
0.7500000000000284
100
AcDbArc
 50
-90.00000000000652
 51
0
  0
LINE
  5
17F
100
AcDbEntity
  8
0
  6
ByLayer
 62
  256
370
   -1
100
AcDbLine
 10
-150.1625
 20
-5.656750000000015
 11
-150.1624999999999
 21
-18.15674999999998
  0
ARC
  5
180
100
AcDbEntity
  8
0
  6
ByLayer
 62
  256
370
   -1
100
AcDbCircle
 10
-150.9124999999999
 20
-5.656750000000015
 40
0.7499999999999574
100
AcDbArc
 50
0
 51
90.00000000000868
  0
LINE
  5
181
100
AcDbEntity
  8
0
  6
ByLayer
 62
  256
370
   -1
100
AcDbLine
 10
-169.0125
 20
-4.906750000000049
 11
-150.9125000000001
 21
-4.906750000000057
  0
LINE
  5
182
100
AcDbEntity
  8
0
  6
ByLayer
 62
  256
370
   -1
100
AcDbLine
 10
11.97824999999998
 20
56.25575000000006
 11
11.97825000000005
 21
45.75575000000004
  0
ARC
  5
183
100
AcDbEntity
  8
0
  6
ByLayer
 62
  256
370
   -1
100
AcDbCircle
 10
11.22824999999999
 20
45.75575000000002
 40
0.7500000000000462
100
AcDbArc
 50
-90
 51
0
  0
LINE
  5
184
100
AcDbEntity
  8
0
  6
ByLayer
 62
  256
370
   -1
100
AcDbLine
 10
11.22824999999999
 20
45.00574999999998
 11
7.821749999999952
 21
45.00575000000004
  0
ARC
  5
185
100
AcDbEntity
  8
0
  6
ByLayer
 62
  256
370
   -1
100
AcDbCircle
 10
7.821749999999952
 20
45.75575000000002
 40
0.7499999999999929
100
AcDbArc
 50
180
 51
270
  0
LINE
  5
186
100
AcDbEntity
  8
0
  6
ByLayer
 62
  256
370
   -1
100
AcDbLine
 10
7.071749999999959
 20
45.75575000000004
 11
7.071749999999959
 21
56.25575000000006
  0
ARC
  5
187
100
AcDbEntity
  8
0
  6
ByLayer
 62
  256
370
   -1
100
AcDbCircle
 10
7.821749999999952
 20
56.25575000000005
 40
0.7499999999999929
100
AcDbArc
 50
90
 51
180
  0
LINE
  5
188
100
AcDbEntity
  8
0
  6
ByLayer
 62
  256
370
   -1
100
AcDbLine
 10
7.821749999999952
 20
57.00575000000005
 11
11.22824999999999
 21
57.00575000000005
  0
ARC
  5
189
100
AcDbEntity
  8
0
  6
ByLayer
 62
  256
370
   -1
100
AcDbCircle
 10
11.22824999999999
 20
56.25575000000005
 40
0.7499999999999929
100
AcDbArc
 50
0
 51
90
  0
ARC
  5
18A
100
AcDbEntity
  8
0
  6
ByLayer
 62
  256
370
   -1
100
AcDbCircle
 10
-69.73400000000001
 20
45.75575000000002
 40
0.7499999999999929
100
AcDbArc
 50
-90
 51
0
  0
LINE
  5
18B
100
AcDbEntity
  8
0
  6
ByLayer
 62
  256
370
   -1
100
AcDbLine
 10
-68.98400000000002
 20
56.25575000000006
 11
-68.98400000000002
 21
45.75575000000004
  0
ARC
  5
18C
100
AcDbEntity
  8
0
  6
ByLayer
 62
  256
370
   -1
100
AcDbCircle
 10
-69.73400000000001
 20
56.25575000000006
 40
0.7499999999999929
100
AcDbArc
 50
0
 51
90
  0
LINE
  5
18D
100
AcDbEntity
  8
0
  6
ByLayer
 62
  256
370
   -1
100
AcDbLine
 10
-73.14050000000003
 20
57.00575000000006
 11
-69.73400000000001
 21
57.00575000000006
  0
ARC
  5
18E
100
AcDbEntity
  8
0
  6
ByLayer
 62
  256
370
   -1
100
AcDbCircle
 10
-73.14050000000003
 20
56.25575000000006
 40
0.7499999999999929
100
AcDbArc
 50
90
 51
180
  0
LINE
  5
18F
100
AcDbEntity
  8
0
  6
ByLayer
 62
  256
370
   -1
100
AcDbLine
 10
-73.89050000000003
 20
45.75575000000004
 11
-73.89050000000003
 21
56.25575000000006
  0
ARC
  5
190
100
AcDbEntity
  8
0
  6
ByLayer
 62
  256
370
   -1
100
AcDbCircle
 10
-73.14050000000003
 20
45.75575000000002
 40
0.7499999999999929
100
AcDbArc
 50
180
 51
270.0000000000011
  0
LINE
  5
191
100
AcDbEntity
  8
0
  6
ByLayer
 62
  256
370
   -1
100
AcDbLine
 10
-69.73400000000001
 20
45.00575000000003
 11
-73.14050000000002
 21
45.00575000000003
  0
ARC
  5
192
100
AcDbEntity
  8
0
  6
ByLayer
 62
  256
370
   -1
100
AcDbCircle
 10
88.78449999999998
 20
45.75575000000002
 40
0.7499999999999929
100
AcDbArc
 50
180
 51
270.0000000000011
  0
LINE
  5
193
100
AcDbEntity
  8
0
  6
ByLayer
 62
  256
370
   -1
100
AcDbLine
 10
92.19099999999997
 20
45.00575000000003
 11
88.78449999999998
 21
45.00575000000003
  0
ARC
  5
194
100
AcDbEntity
  8
0
  6
ByLayer
 62
  256
370
   -1
100
AcDbCircle
 10
92.19099999999997
 20
45.75575000000002
 40
0.7499999999999929
100
AcDbArc
 50
-90
 51
0
  0
LINE
  5
195
100
AcDbEntity
  8
0
  6
ByLayer
 62
  256
370
   -1
100
AcDbLine
 10
92.94099999999997
 20
56.25574999999997
 11
92.94099999999997
 21
45.75575000000004
  0
ARC
  5
196
100
AcDbEntity
  8
0
  6
ByLayer
 62
  256
370
   -1
100
AcDbCircle
 10
92.19099999999997
 20
56.25575000000006
 40
0.7499999999999929
100
AcDbArc
 50
0
 51
90
  0
LINE
  5
197
100
AcDbEntity
  8
0
  6
ByLayer
 62
  256
370
   -1
100
AcDbLine
 10
88.78449999999998
 20
57.00575000000006
 11
92.19099999999997
 21
57.00575000000006
  0
ARC
  5
198
100
AcDbEntity
  8
0
  6
ByLayer
 62
  256
370
   -1
100
AcDbCircle
 10
88.78449999999998
 20
56.25575000000006
 40
0.7499999999999929
100
AcDbArc
 50
90
 51
180
  0
LINE
  5
199
100
AcDbEntity
  8
0
  6
ByLayer
 62
  256
370
   -1
100
AcDbLine
 10
88.03449999999998
 20
45.75575000000004
 11
88.03449999999998
 21
56.25574999999998
  0
LINE
  5
19A
100
AcDbEntity
  8
0
  6
ByLayer
 62
  256
370
   -1
100
AcDbLine
 10
-154.103
 20
57.00575000000005
 11
-150.6965
 21
57.00575000000005
  0
ARC
  5
19B
100
AcDbEntity
  8
0
  6
ByLayer
 62
  256
370
   -1
100
AcDbCircle
 10
-150.6965
 20
56.25575000000005
 40
0.7499999999999929
100
AcDbArc
 50
0
 51
90.00000000000217
  0
LINE
  5
19C
100
AcDbEntity
  8
0
  6
ByLayer
 62
  256
370
   -1
100
AcDbLine
 10
-149.9465
 20
56.25575000000006
 11
-149.9465000000001
 21
45.75575000000004
  0
ARC
  5
19D
100
AcDbEntity
  8
0
  6
ByLayer
 62
  256
370
   -1
100
AcDbCircle
 10
-150.6965
 20
45.75575000000002
 40
0.7499999999999574
100
AcDbArc
 50
-90
 51
0
  0
LINE
  5
19E
100
AcDbEntity
  8
0
  6
ByLayer
 62
  256
370
   -1
100
AcDbLine
 10
-150.6965
 20
45.00575000000008
 11
-154.103
 21
45.00575000000004
  0
ARC
  5
19F
100
AcDbEntity
  8
0
  6
ByLayer
 62
  256
370
   -1
100
AcDbCircle
 10
-154.103
 20
45.75575000000002
 40
0.7499999999999929
100
AcDbArc
 50
180
 51
270.0000000000021
  0
LINE
  5
1A0
100
AcDbEntity
  8
0
  6
ByLayer
 62
  256
370
   -1
100
AcDbLine
 10
-154.853
 20
45.75575000000004
 11
-154.853
 21
56.25575000000006
  0
ARC
  5
1A1
100
AcDbEntity
  8
0
  6
ByLayer
 62
  256
370
   -1
100
AcDbCircle
 10
-154.103
 20
56.25575000000005
 40
0.7499999999999929
100
AcDbArc
 50
90
 51
180
  0
LINE
  5
1A2
100
AcDbEntity
  8
0
  6
ByLayer
 62
  256
370
   -1
100
AcDbLine
 10
-108.6437500000002
 20
57.00575000000005
 11
-96.14375000000024
 21
57.00575000000004
  0
ARC
  5
1A3
100
AcDbEntity
  8
0
  6
ByLayer
 62
  256
370
   -1
100
AcDbCircle
 10
-96.14375000000022
 20
56.25575000000005
 40
0.7499999999999929
100
AcDbArc
 50
0
 51
90
  0
LINE
  5
1A4
100
AcDbEntity
  8
0
  6
ByLayer
 62
  256
370
   -1
100
AcDbLine
 10
-95.39375000000022
 20
56.25574999999997
 11
-95.39375000000022
 21
43.75575000000001
  0
ARC
  5
1A5
100
AcDbEntity
  8
0
  6
ByLayer
 62
  256
370
   -1
100
AcDbCircle
 10
-96.14375000000022
 20
43.75575000000001
 40
0.7500000000000018
100
AcDbArc
 50
-90
 51
0
  0
LINE
  5
1A6
100
AcDbEntity
  8
0
  6
ByLayer
 62
  256
370
   -1
100
AcDbLine
 10
-96.14375000000022
 20
43.00575000000001
 11
-108.6437500000002
 21
43.00575000000001
  0
ARC
  5
1A7
100
AcDbEntity
  8
0
  6
ByLayer
 62
  256
370
   -1
100
AcDbCircle
 10
-108.6437500000002
 20
43.75575000000001
 40
0.7499999999999929
100
AcDbArc
 50
180
 51
270.0000000000011
  0
LINE
  5
1A8
100
AcDbEntity
  8
0
  6
ByLayer
 62
  256
370
   -1
100
AcDbLine
 10
-109.3937500000002
 20
43.75575000000001
 11
-109.3937500000002
 21
56.25575000000006
  0
ARC
  5
1A9
100
AcDbEntity
  8
0
  6
ByLayer
 62
  256
370
   -1
100
AcDbCircle
 10
-108.6437500000002
 20
56.25575000000005
 40
0.7500000000000018
100
AcDbArc
 50
90
 51
180
  0
LINE
  5
1AA
100
AcDbEntity
  8
0
  6
ByLayer
 62
  256
370
   -1
100
AcDbLine
 10
34.23124999999999
 20
57.00575000000005
 11
46.73124999999999
 21
57.00575000000004
  0
ARC
  5
1AB
100
AcDbEntity
  8
0
  6
ByLayer
 62
  256
370
   -1
100
AcDbCircle
 10
46.73124999999999
 20
56.25575000000005
 40
0.7499999999999929
100
AcDbArc
 50
0
 51
90.00000000000054
  0
LINE
  5
1AC
100
AcDbEntity
  8
0
  6
ByLayer
 62
  256
370
   -1
100
AcDbLine
 10
47.48124999999998
 20
56.25575000000006
 11
47.48124999999998
 21
43.75575000000011
  0
ARC
  5
1AD
100
AcDbEntity
  8
0
  6
ByLayer
 62
  256
370
   -1
100
AcDbCircle
 10
46.73124999999999
 20
43.75575000000011
 40
0.7500000000000018
100
AcDbArc
 50
-90
 51
0
  0
LINE
  5
1AE
100
AcDbEntity
  8
0
  6
ByLayer
 62
  256
370
   -1
100
AcDbLine
 10
46.73124999999999
 20
43.0057500000001
 11
34.23124999999999
 21
43.00575000000011
  0
ARC
  5
1AF
100
AcDbEntity
  8
0
  6
ByLayer
 62
  256
370
   -1
100
AcDbCircle
 10
34.23124999999999
 20
43.75575000000011
 40
0.7499999999999929
100
AcDbArc
 50
180
 51
270
  0
LINE
  5
1B0
100
AcDbEntity
  8
0
  6
ByLayer
 62
  256
370
   -1
100
AcDbLine
 10
33.48125
 20
43.75575000000011
 11
33.48125
 21
56.25575000000006
  0
ARC
  5
1B1
100
AcDbEntity
  8
0
  6
ByLayer
 62
  256
370
   -1
100
AcDbCircle
 10
34.23124999999999
 20
56.25575000000005
 40
0.7500000000000018
100
AcDbArc
 50
90
 51
180
  0
ARC
  5
1B2
100
AcDbEntity
  8
0
  6
ByLayer
 62
  256
370
   -1
100
AcDbCircle
 10
15.18124999999998
 20
43.75575000000011
 40
0.7499999999999929
100
AcDbArc
 50
180
 51
270
  0
LINE
  5
1B3
100
AcDbEntity
  8
0
  6
ByLayer
 62
  256
370
   -1
100
AcDbLine
 10
27.68124999999998
 20
43.0057500000001
 11
15.18124999999998
 21
43.00575000000011
  0
ARC
  5
1B4
100
AcDbEntity
  8
0
  6
ByLayer
 62
  256
370
   -1
100
AcDbCircle
 10
27.68124999999998
 20
43.75575000000011
 40
0.7500000000000018
100
AcDbArc
 50
-90
 51
0
  0
LINE
  5
1B5
100
AcDbEntity
  8
0
  6
ByLayer
 62
  256
370
   -1
100
AcDbLine
 10
28.43124999999997
 20
56.25575000000006
 11
28.43124999999997
 21
43.75575000000011
  0
ARC
  5
1B6
100
AcDbEntity
  8
0
  6
ByLayer
 62
  256
370
   -1
100
AcDbCircle
 10
27.68124999999998
 20
56.25575000000005
 40
0.7499999999999929
100
AcDbArc
 50
0
 51
90
  0
LINE
  5
1B7
100
AcDbEntity
  8
0
  6
ByLayer
 62
  256
370
   -1
100
AcDbLine
 10
15.18124999999998
 20
57.00575000000005
 11
27.68124999999998
 21
57.00575000000004
  0
ARC
  5
1B8
100
AcDbEntity
  8
0
  6
ByLayer
 62
  256
370
   -1
100
AcDbCircle
 10
15.18124999999998
 20
56.25575000000005
 40
0.7500000000000018
100
AcDbArc
 50
90
 51
180
  0
LINE
  5
1B9
100
AcDbEntity
  8
0
  6
ByLayer
 62
  256
370
   -1
100
AcDbLine
 10
14.43124999999998
 20
43.75575000000011
 11
14.43124999999998
 21
56.25575000000006
  0
ARC
  5
1BA
100
AcDbEntity
  8
0
  6
ByLayer
 62
  256
370
   -1
100
AcDbCircle
 10
-77.09375000000003
 20
56.25575000000005
 40
0.7500000000000107
100
AcDbArc
 50
0
 51
90
  0
LINE
  5
1BB
100
AcDbEntity
  8
0
  6
ByLayer
 62
  256
370
   -1
100
AcDbLine
 10
-89.59375000000023
 20
57.00575000000005
 11
-77.09375000000003
 21
57.00575000000006
  0
ARC
  5
1BC
100
AcDbEntity
  8
0
  6
ByLayer
 62
  256
370
   -1
100
AcDbCircle
 10
-89.59375000000023
 20
56.25575000000005
 40
0.7500000000000018
100
AcDbArc
 50
90
 51
180
  0
LINE
  5
1BD
100
AcDbEntity
  8
0
  6
ByLayer
 62
  256
370
   -1
100
AcDbLine
 10
-90.34375000000023
 20
43.75575000000001
 11
-90.34375000000023
 21
56.25575000000006
  0
ARC
  5
1BE
100
AcDbEntity
  8
0
  6
ByLayer
 62
  256
370
   -1
100
AcDbCircle
 10
-89.59375000000023
 20
43.75575000000001
 40
0.7499999999999929
100
AcDbArc
 50
180
 51
270.0000000000011
  0
LINE
  5
1BF
100
AcDbEntity
  8
0
  6
ByLayer
 62
  256
370
   -1
100
AcDbLine
 10
-77.09375000000003
 20
43.00575000000001
 11
-89.59375000000023
 21
43.00575000000001
  0
ARC
  5
1C0
100
AcDbEntity
  8
0
  6
ByLayer
 62
  256
370
   -1
100
AcDbCircle
 10
-77.09375000000003
 20
43.75575000000001
 40
0.7500000000000018
100
AcDbArc
 50
-90
 51
0
  0
LINE
  5
1C1
100
AcDbEntity
  8
0
  6
ByLayer
 62
  256
370
   -1
100
AcDbLine
 10
-76.34375000000003
 20
56.25575000000006
 11
-76.34375000000004
 21
43.75575000000001
  0
ARC
  5
1C2
100
AcDbEntity
  8
0
  6
ByLayer
 62
  256
370
   -1
100
AcDbCircle
 10
-115.1937500000002
 20
56.25575000000005
 40
0.7499999999999929
100
AcDbArc
 50
0
 51
90
  0
LINE
  5
1C3
100
AcDbEntity
  8
0
  6
ByLayer
 62
  256
370
   -1
100
AcDbLine
 10
-127.6937500000002
 20
57.00575000000005
 11
-115.1937500000002
 21
57.00575000000005
  0
ARC
  5
1C4
100
AcDbEntity
  8
0
  6
ByLayer
 62
  256
370
   -1
100
AcDbCircle
 10
-127.6937500000002
 20
56.25575000000005
 40
0.7500000000000018
100
AcDbArc
 50
90
 51
180
  0
LINE
  5
1C5
100
AcDbEntity
  8
0
  6
ByLayer
 62
  256
370
   -1
100
AcDbLine
 10
-128.4437500000003
 20
43.75575000000001
 11
-128.4437500000003
 21
56.25574999999997
  0
ARC
  5
1C6
100
AcDbEntity
  8
0
  6
ByLayer
 62
  256
370
   -1
100
AcDbCircle
 10
-127.6937500000002
 20
43.75575000000001
 40
0.7500000000000107
100
AcDbArc
 50
180
 51
270
  0
LINE
  5
1C7
100
AcDbEntity
  8
0
  6
ByLayer
 62
  256
370
   -1
100
AcDbLine
 10
-115.1937500000002
 20
43.00575000000001
 11
-127.6937500000002
 21
43.00575000000001
  0
ARC
  5
1C8
100
AcDbEntity
  8
0
  6
ByLayer
 62
  256
370
   -1
100
AcDbCircle
 10
-115.1937500000002
 20
43.75575000000001
 40
0.7500000000000018
100
AcDbArc
 50
-90
 51
0
  0
LINE
  5
1C9
100
AcDbEntity
  8
0
  6
ByLayer
 62
  256
370
   -1
100
AcDbLine
 10
-114.4437500000002
 20
56.25574999999997
 11
-114.4437500000002
 21
43.75575000000001
  0
ARC
  5
1CA
100
AcDbEntity
  8
0
  6
ByLayer
 62
  256
370
   -1
100
AcDbCircle
 10
53.28125
 20
56.25575000000005
 40
0.7500000000000018
100
AcDbArc
 50
90
 51
180
  0
LINE
  5
1CB
100
AcDbEntity
  8
0
  6
ByLayer
 62
  256
370
   -1
100
AcDbLine
 10
52.53125000000001
 20
43.75575000000011
 11
52.53125000000001
 21
56.25575000000006
  0
ARC
  5
1CC
100
AcDbEntity
  8
0
  6
ByLayer
 62
  256
370
   -1
100
AcDbCircle
 10
53.28125
 20
43.75575000000011
 40
0.7499999999999929
100
AcDbArc
 50
180
 51
270
  0
LINE
  5
1CD
100
AcDbEntity
  8
0
  6
ByLayer
 62
  256
370
   -1
100
AcDbLine
 10
65.78125
 20
43.0057500000001
 11
53.28125
 21
43.00575000000011
  0
ARC
  5
1CE
100
AcDbEntity
  8
0
  6
ByLayer
 62
  256
370
   -1
100
AcDbCircle
 10
65.78125
 20
43.75575000000011
 40
0.7500000000000018
100
AcDbArc
 50
-90
 51
0
  0
LINE
  5
1CF
100
AcDbEntity
  8
0
  6
ByLayer
 62
  256
370
   -1
100
AcDbLine
 10
66.53125
 20
56.25575000000006
 11
66.53125
 21
43.75575000000011
  0
ARC
  5
1D0
100
AcDbEntity
  8
0
  6
ByLayer
 62
  256
370
   -1
100
AcDbCircle
 10
65.78125
 20
56.25575000000005
 40
0.7499999999999929
100
AcDbArc
 50
0
 51
90.00000000000109
  0
LINE
  5
1D1
100
AcDbEntity
  8
0
  6
ByLayer
 62
  256
370
   -1
100
AcDbLine
 10
53.28125
 20
57.00575000000005
 11
65.78125
 21
57.00575000000004
  0
ARC
  5
1D2
100
AcDbEntity
  8
0
  6
ByLayer
 62
  256
370
   -1
100
AcDbCircle
 10
-65.78125000000003
 20
43.75575000000001
 40
0.7499999999999929
100
AcDbArc
 50
180
 51
270
  0
LINE
  5
1D3
100
AcDbEntity
  8
0
  6
ByLayer
 62
  256
370
   -1
100
AcDbLine
 10
-53.28125000000001
 20
43.00575000000001
 11
-65.78125000000003
 21
43.00575000000001
  0
ARC
  5
1D4
100
AcDbEntity
  8
0
  6
ByLayer
 62
  256
370
   -1
100
AcDbCircle
 10
-53.28125000000001
 20
43.75575000000001
 40
0.7500000000000018
100
AcDbArc
 50
-90
 51
0
  0
LINE
  5
1D5
100
AcDbEntity
  8
0
  6
ByLayer
 62
  256
370
   -1
100
AcDbLine
 10
-52.53125000000001
 20
56.25575000000006
 11
-52.53125000000003
 21
43.75575000000001
  0
ARC
  5
1D6
100
AcDbEntity
  8
0
  6
ByLayer
 62
  256
370
   -1
100
AcDbCircle
 10
-53.28125000000001
 20
56.25575000000005
 40
0.7500000000000107
100
AcDbArc
 50
0
 51
90
  0
LINE
  5
1D7
100
AcDbEntity
  8
0
  6
ByLayer
 62
  256
370
   -1
100
AcDbLine
 10
-65.78125000000003
 20
57.00575000000005
 11
-53.28125000000001
 21
57.00575000000006
  0
ARC
  5
1D8
100
AcDbEntity
  8
0
  6
ByLayer
 62
  256
370
   -1
100
AcDbCircle
 10
-65.78125000000003
 20
56.25575000000005
 40
0.7500000000000018
100
AcDbArc
 50
90
 51
180
  0
LINE
  5
1D9
100
AcDbEntity
  8
0
  6
ByLayer
 62
  256
370
   -1
100
AcDbLine
 10
-66.53125000000003
 20
43.75575000000001
 11
-66.53125000000003
 21
56.25575000000006
  0
ARC
  5
1DA
100
AcDbEntity
  8
0
  6
ByLayer
 62
  256
370
   -1
100
AcDbCircle
 10
72.33125000000001
 20
56.25575000000005
 40
0.7500000000000018
100
AcDbArc
 50
90
 51
180
  0
LINE
  5
1DB
100
AcDbEntity
  8
0
  6
ByLayer
 62
  256
370
   -1
100
AcDbLine
 10
71.58125000000001
 20
43.75575000000011
 11
71.58125000000001
 21
56.25575000000006
  0
ARC
  5
1DC
100
AcDbEntity
  8
0
  6
ByLayer
 62
  256
370
   -1
100
AcDbCircle
 10
72.33125000000001
 20
43.75575000000011
 40
0.7499999999999929
100
AcDbArc
 50
180
 51
270
  0
LINE
  5
1DD
100
AcDbEntity
  8
0
  6
ByLayer
 62
  256
370
   -1
100
AcDbLine
 10
84.83125000000001
 20
43.0057500000001
 11
72.33125000000001
 21
43.00575000000011
  0
ARC
  5
1DE
100
AcDbEntity
  8
0
  6
ByLayer
 62
  256
370
   -1
100
AcDbCircle
 10
84.83125000000001
 20
43.75575000000011
 40
0.7500000000000018
100
AcDbArc
 50
-90
 51
0
  0
LINE
  5
1DF
100
AcDbEntity
  8
0
  6
ByLayer
 62
  256
370
   -1
100
AcDbLine
 10
85.58125000000001
 20
56.25575000000006
 11
85.58125000000001
 21
43.75575000000011
  0
ARC
  5
1E0
100
AcDbEntity
  8
0
  6
ByLayer
 62
  256
370
   -1
100
AcDbCircle
 10
84.83125000000001
 20
56.25575000000005
 40
0.7499999999999929
100
AcDbArc
 50
0
 51
90
  0
LINE
  5
1E1
100
AcDbEntity
  8
0
  6
ByLayer
 62
  256
370
   -1
100
AcDbLine
 10
72.33125000000001
 20
57.00575000000005
 11
84.83125000000001
 21
57.00575000000004
  0
LINE
  5
1E2
100
AcDbEntity
  8
0
  6
ByLayer
 62
  256
370
   -1
100
AcDbLine
 10
-146.7437500000002
 20
57.00574999999995
 11
-134.2437500000002
 21
57.00574999999994
  0
ARC
  5
1E3
100
AcDbEntity
  8
0
  6
ByLayer
 62
  256
370
   -1
100
AcDbCircle
 10
-134.2437500000002
 20
56.25574999999996
 40
0.7499999999999929
100
AcDbArc
 50
0
 51
90
  0
LINE
  5
1E4
100
AcDbEntity
  8
0
  6
ByLayer
 62
  256
370
   -1
100
AcDbLine
 10
-133.4937500000002
 20
56.25574999999997
 11
-133.4937500000002
 21
43.75575000000001
  0
ARC
  5
1E5
100
AcDbEntity
  8
0
  6
ByLayer
 62
  256
370
   -1
100
AcDbCircle
 10
-134.2437500000002
 20
43.75575000000001
 40
0.7500000000000018
100
AcDbArc
 50
-90
 51
0
  0
LINE
  5
1E6
100
AcDbEntity
  8
0
  6
ByLayer
 62
  256
370
   -1
100
AcDbLine
 10
-134.2437500000002
 20
43.00575000000001
 11
-146.7437500000002
 21
43.00575000000001
  0
ARC
  5
1E7
100
AcDbEntity
  8
0
  6
ByLayer
 62
  256
370
   -1
100
AcDbCircle
 10
-146.7437500000002
 20
43.75575000000001
 40
0.7499999999999929
100
AcDbArc
 50
180
 51
270.0000000000021
  0
LINE
  5
1E8
100
AcDbEntity
  8
0
  6
ByLayer
 62
  256
370
   -1
100
AcDbLine
 10
-147.4937500000002
 20
43.75575000000001
 11
-147.4937500000002
 21
56.25574999999997
  0
ARC
  5
1E9
100
AcDbEntity
  8
0
  6
ByLayer
 62
  256
370
   -1
100
AcDbCircle
 10
-146.7437500000002
 20
56.25574999999996
 40
0.7500000000000018
100
AcDbArc
 50
90
 51
180
  0
ARC
  5
1EA
100
AcDbEntity
  8
0
  6
ByLayer
 62
  256
370
   -1
100
AcDbCircle
 10
-168.55625
 20
39.80250000000007
 40
0.7499999999999707
100
AcDbArc
 50
90
 51
180
  0
LINE
  5
1EB
100
AcDbEntity
  8
0
  6
ByLayer
 62
  256
370
   -1
100
AcDbLine
 10
-169.30625
 20
36.39650000000004
 11
-169.30625
 21
39.80250000000008
  0
ARC
  5
1EC
100
AcDbEntity
  8
0
  6
ByLayer
 62
  256
370
   -1
100
AcDbCircle
 10
-168.55625
 20
36.39650000000002
 40
0.7499999999999929
100
AcDbArc
 50
180
 51
270
  0
LINE
  5
1ED
100
AcDbEntity
  8
0
  6
ByLayer
 62
  256
370
   -1
100
AcDbLine
 10
-33.97975000000004
 20
35.64650000000001
 11
-168.55625
 21
35.64650000000002
  0
ARC
  5
1EE
100
AcDbEntity
  8
0
  6
ByLayer
 62
  256
370
   -1
100
AcDbCircle
 10
-33.97975000000004
 20
36.39650000000002
 40
0.7500000000000107
100
AcDbArc
 50
-90
 51
0
  0
LINE
  5
1EF
100
AcDbEntity
  8
0
  6
ByLayer
 62
  256
370
   -1
100
AcDbLine
 10
-33.22975000000005
 20
39.80250000000007
 11
-33.22975000000003
 21
36.39650000000004
  0
ARC
  5
1F0
100
AcDbEntity
  8
0
  6
ByLayer
 62
  256
370
   -1
100
AcDbCircle
 10
-33.97975000000004
 20
39.80250000000007
 40
0.7499999999999929
100
AcDbArc
 50
0
 51
90.00000000000163
  0
LINE
  5
1F1
100
AcDbEntity
  8
0
  6
ByLayer
 62
  256
370
   -1
100
AcDbLine
 10
-168.55625
 20
40.55250000000004
 11
-33.97975000000006
 21
40.55250000000007
  0
ARC
  5
1F2
100
AcDbEntity
  8
0
  6
ByLayer
 62
  256
370
   -1
100
AcDbCircle
 10
112.59675
 20
45.75575000000002
 40
0.7499999999999929
100
AcDbArc
 50
180
 51
270.0000000000011
  0
LINE
  5
1F3
100
AcDbEntity
  8
0
  6
ByLayer
 62
  256
370
   -1
100
AcDbLine
 10
116.00325
 20
45.00575000000003
 11
112.59675
 21
45.00575000000003
  0
ARC
  5
1F4
100
AcDbEntity
  8
0
  6
ByLayer
 62
  256
370
   -1
100
AcDbCircle
 10
116.00325
 20
45.75575000000002
 40
0.7499999999999929
100
AcDbArc
 50
-90
 51
0
  0
LINE
  5
1F5
100
AcDbEntity
  8
0
  6
ByLayer
 62
  256
370
   -1
100
AcDbLine
 10
116.75325
 20
56.25574999999997
 11
116.75325
 21
45.75575000000004
  0
ARC
  5
1F6
100
AcDbEntity
  8
0
  6
ByLayer
 62
  256
370
   -1
100
AcDbCircle
 10
116.00325
 20
56.25575000000006
 40
0.7499999999999929
100
AcDbArc
 50
0
 51
90
  0
LINE
  5
1F7
100
AcDbEntity
  8
0
  6
ByLayer
 62
  256
370
   -1
100
AcDbLine
 10
112.59675
 20
57.00575000000006
 11
116.00325
 21
57.00575000000006
  0
ARC
  5
1F8
100
AcDbEntity
  8
0
  6
ByLayer
 62
  256
370
   -1
100
AcDbCircle
 10
112.59675
 20
56.25575000000006
 40
0.7499999999999929
100
AcDbArc
 50
90
 51
180
  0
LINE
  5
1F9
100
AcDbEntity
  8
0
  6
ByLayer
 62
  256
370
   -1
100
AcDbLine
 10
111.84675
 20
45.75575000000004
 11
111.84675
 21
56.25574999999998
  0
ARC
  5
1FA
100
AcDbEntity
  8
0
  6
ByLayer
 62
  256
370
   -1
100
AcDbCircle
 10
158.0562499999999
 20
43.75575000000001
 40
0.7499999999998863
100
AcDbArc
 50
180
 51
270
  0
LINE
  5
1FB
100
AcDbEntity
  8
0
  6
ByLayer
 62
  256
370
   -1
100
AcDbLine
 10
170.5562499999999
 20
43.00575000000002
 11
158.0562499999999
 21
43.00575000000015
  0
ARC
  5
1FC
100
AcDbEntity
  8
0
  6
ByLayer
 62
  256
370
   -1
100
AcDbCircle
 10
170.5562499999999
 20
43.75575000000001
 40
0.7499999999999929
100
AcDbArc
 50
-90
 51
0
  0
LINE
  5
1FD
100
AcDbEntity
  8
0
  6
ByLayer
 62
  256
370
   -1
100
AcDbLine
 10
171.3062499999998
 20
56.25574999999997
 11
171.30625
 21
43.75575000000001
  0
ARC
  5
1FE
100
AcDbEntity
  8
0
  6
ByLayer
 62
  256
370
   -1
100
AcDbCircle
 10
170.5562499999999
 20
56.25575000000006
 40
0.7499999999998863
100
AcDbArc
 50
0
 51
90
  0
LINE
  5
1FF
100
AcDbEntity
  8
0
  6
ByLayer
 62
  256
370
   -1
100
AcDbLine
 10
158.0562499999999
 20
57.00575
 11
170.5562499999999
 21
57.00575000000002
  0
ARC
  5
200
100
AcDbEntity
  8
0
  6
ByLayer
 62
  256
370
   -1
100
AcDbCircle
 10
158.0562499999999
 20
56.25574999999997
 40
0.7500000000000284
100
AcDbArc
 50
90
 51
180
  0
LINE
  5
201
100
AcDbEntity
  8
0
  6
ByLayer
 62
  256
370
   -1
100
AcDbLine
 10
157.3062500000001
 20
43.75575000000001
 11
157.3062499999999
 21
56.25575000000006
  0
LINE
  5
202
100
AcDbEntity
  8
0
  6
ByLayer
 62
  256
370
   -1
100
AcDbLine
 10
-23.95624999999999
 20
32.44325000000001
 11
-23.95625000000003
 21
19.94324999999996
  0
ARC
  5
203
100
AcDbEntity
  8
0
  6
ByLayer
 62
  256
370
   -1
100
AcDbCircle
 10
-24.70625000000002
 20
19.94324999999996
 40
0.7499999999999574
100
AcDbArc
 50
-90
 51
0
  0
LINE
  5
204
100
AcDbEntity
  8
0
  6
ByLayer
 62
  256
370
   -1
100
AcDbLine
 10
-24.70625000000002
 20
19.19325
 11
-37.20625000000002
 21
19.19324999999998
  0
ARC
  5
205
100
AcDbEntity
  8
0
  6
ByLayer
 62
  256
370
   -1
100
AcDbCircle
 10
-37.20625000000002
 20
19.94324999999996
 40
0.7499999999999929
100
AcDbArc
 50
180
 51
270
  0
LINE
  5
206
100
AcDbEntity
  8
0
  6
ByLayer
 62
  256
370
   -1
100
AcDbLine
 10
-37.95625000000001
 20
19.94324999999996
 11
-37.95625000000005
 21
32.44325000000001
  0
ARC
  5
207
100
AcDbEntity
  8
0
  6
ByLayer
 62
  256
370
   -1
100
AcDbCircle
 10
-37.20625000000002
 20
32.44325000000001
 40
0.7500000000000284
100
AcDbArc
 50
90
 51
180
  0
LINE
  5
208
100
AcDbEntity
  8
0
  6
ByLayer
 62
  256
370
   -1
100
AcDbLine
 10
-37.20625000000002
 20
33.19325000000003
 11
-24.70625000000002
 21
33.19325000000006
  0
ARC
  5
209
100
AcDbEntity
  8
0
  6
ByLayer
 62
  256
370
   -1
100
AcDbCircle
 10
-24.70625000000002
 20
32.44325000000001
 40
0.7500000000000284
100
AcDbArc
 50
0
 51
90
  0
LINE
  5
20A
100
AcDbEntity
  8
0
  6
ByLayer
 62
  256
370
   -1
100
AcDbLine
 10
170.5562499999999
 20
19.19325000000006
 11
158.0562499999999
 21
19.19324999999998
  0
ARC
  5
20B
100
AcDbEntity
  8
0
  6
ByLayer
 62
  256
370
   -1
100
AcDbCircle
 10
158.0562499999999
 20
19.94325000000005
 40
0.7500000000000284
100
AcDbArc
 50
180
 51
270
  0
LINE
  5
20C
100
AcDbEntity
  8
0
  6
ByLayer
 62
  256
370
   -1
100
AcDbLine
 10
157.3062499999999
 20
19.94325000000005
 11
157.3062499999999
 21
32.44325000000001
  0
ARC
  5
20D
100
AcDbEntity
  8
0
  6
ByLayer
 62
  256
370
   -1
100
AcDbCircle
 10
158.0562499999999
 20
32.44325000000001
 40
0.7500000000000284
100
AcDbArc
 50
90
 51
180
  0
LINE
  5
20E
100
AcDbEntity
  8
0
  6
ByLayer
 62
  256
370
   -1
100
AcDbLine
 10
158.0562499999999
 20
33.19325000000003
 11
170.5562499999999
 21
33.19324999999986
  0
ARC
  5
20F
100
AcDbEntity
  8
0
  6
ByLayer
 62
  256
370
   -1
100
AcDbCircle
 10
170.5562499999999
 20
32.44325000000001
 40
0.7499999999998863
100
AcDbArc
 50
0
 51
90
  0
LINE
  5
210
100
AcDbEntity
  8
0
  6
ByLayer
 62
  256
370
   -1
100
AcDbLine
 10
171.3062499999998
 20
32.44325000000001
 11
171.30625
 21
19.94325000000005
  0
ARC
  5
211
100
AcDbEntity
  8
0
  6
ByLayer
 62
  256
370
   -1
100
AcDbCircle
 10
170.5562499999999
 20
19.94325000000005
 40
0.7499999999999929
100
AcDbArc
 50
-90
 51
0
  0
ARC
  5
212
100
AcDbEntity
  8
0
  6
ByLayer
 62
  256
370
   -1
100
AcDbCircle
 10
-110.43125
 20
0.8932500000000232
 40
0.7500000000000284
100
AcDbArc
 50
-90
 51
0
  0
LINE
  5
213
100
AcDbEntity
  8
0
  6
ByLayer
 62
  256
370
   -1
100
AcDbLine
 10
-109.68125
 20
13.39325000000001
 11
-109.68125
 21
0.8932500000000232
  0
ARC
  5
214
100
AcDbEntity
  8
0
  6
ByLayer
 62
  256
370
   -1
100
AcDbCircle
 10
-110.43125
 20
13.39325000000001
 40
0.7499999999999929
100
AcDbArc
 50
0
 51
90
  0
LINE
  5
215
100
AcDbEntity
  8
0
  6
ByLayer
 62
  256
370
   -1
100
AcDbLine
 10
-122.93125
 20
14.14324999999996
 11
-110.43125
 21
14.14325
  0
ARC
  5
216
100
AcDbEntity
  8
0
  6
ByLayer
 62
  256
370
   -1
100
AcDbCircle
 10
-122.93125
 20
13.39325000000001
 40
0.7499999999999574
100
AcDbArc
 50
90
 51
180
  0
LINE
  5
217
100
AcDbEntity
  8
0
  6
ByLayer
 62
  256
370
   -1
100
AcDbLine
 10
-123.6812499999999
 20
0.8932500000000232
 11
-123.6812499999999
 21
13.39325000000001
  0
ARC
  5
218
100
AcDbEntity
  8
0
  6
ByLayer
 62
  256
370
   -1
100
AcDbCircle
 10
-122.93125
 20
0.8932500000000232
 40
0.7499999999999218
100
AcDbArc
 50
180
 51
270
  0
LINE
  5
219
100
AcDbEntity
  8
0
  6
ByLayer
 62
  256
370
   -1
100
AcDbLine
 10
-110.43125
 20
0.1432499999999948
 11
-122.93125
 21
0.143249999999977
  0
ARC
  5
21A
100
AcDbEntity
  8
0
  6
ByLayer
 62
  256
370
   -1
100
AcDbCircle
 10
29.46874999999999
 20
0.8932500000000232
 40
0.7499999999998863
100
AcDbArc
 50
180
 51
270
  0
LINE
  5
21B
100
AcDbEntity
  8
0
  6
ByLayer
 62
  256
370
   -1
100
AcDbLine
 10
41.96874999999999
 20
0.1432499999999948
 11
29.46874999999999
 21
0.1432500000000836
  0
ARC
  5
21C
100
AcDbEntity
  8
0
  6
ByLayer
 62
  256
370
   -1
100
AcDbCircle
 10
41.96874999999999
 20
0.8932500000000232
 40
0.7500000000000284
100
AcDbArc
 50
-90
 51
0
  0
LINE
  5
21D
100
AcDbEntity
  8
0
  6
ByLayer
 62
  256
370
   -1
100
AcDbLine
 10
42.71875000000001
 20
13.39325000000001
 11
42.71874999999998
 21
0.8932500000000232
  0
ARC
  5
21E
100
AcDbEntity
  8
0
  6
ByLayer
 62
  256
370
   -1
100
AcDbCircle
 10
41.96874999999999
 20
13.39325000000001
 40
0.7500000000000284
100
AcDbArc
 50
0
 51
90
  0
LINE
  5
21F
100
AcDbEntity
  8
0
  6
ByLayer
 62
  256
370
   -1
100
AcDbLine
 10
29.46874999999999
 20
14.14325
 11
41.96874999999999
 21
14.14325000000004
  0
ARC
  5
220
100
AcDbEntity
  8
0
  6
ByLayer
 62
  256
370
   -1
100
AcDbCircle
 10
29.46874999999999
 20
13.39325000000001
 40
0.7499999999999929
100
AcDbArc
 50
90
 51
180
  0
LINE
  5
221
100
AcDbEntity
  8
0
  6
ByLayer
 62
  256
370
   -1
100
AcDbLine
 10
28.7187500000001
 20
0.8932500000000232
 11
28.71874999999999
 21
13.39325000000001
  0
ARC
  5
222
100
AcDbEntity
  8
0
  6
ByLayer
 62
  256
370
   -1
100
AcDbCircle
 10
-103.88125
 20
0.8932500000000232
 40
0.7499999999999574
100
AcDbArc
 50
180
 51
270
  0
LINE
  5
223
100
AcDbEntity
  8
0
  6
ByLayer
 62
  256
370
   -1
100
AcDbLine
 10
-91.38125000000002
 20
0.1432499999999948
 11
-103.88125
 21
0.1432500000000836
  0
ARC
  5
224
100
AcDbEntity
  8
0
  6
ByLayer
 62
  256
370
   -1
100
AcDbCircle
 10
-91.38125000000002
 20
0.8932500000000232
 40
0.7500000000000284
100
AcDbArc
 50
-90
 51
0
  0
LINE
  5
225
100
AcDbEntity
  8
0
  6
ByLayer
 62
  256
370
   -1
100
AcDbLine
 10
-90.63124999999999
 20
13.39325000000001
 11
-90.63124999999992
 21
0.8932500000000232
  0
ARC
  5
226
100
AcDbEntity
  8
0
  6
ByLayer
 62
  256
370
   -1
100
AcDbCircle
 10
-91.38125000000002
 20
13.39325000000001
 40
0.7500000000000284
100
AcDbArc
 50
0
 51
90
  0
LINE
  5
227
100
AcDbEntity
  8
0
  6
ByLayer
 62
  256
370
   -1
100
AcDbLine
 10
-103.88125
 20
14.14324999999996
 11
-91.38125000000002
 21
14.14325000000004
  0
ARC
  5
228
100
AcDbEntity
  8
0
  6
ByLayer
 62
  256
370
   -1
100
AcDbCircle
 10
-103.88125
 20
13.39325000000001
 40
0.7499999999999574
100
AcDbArc
 50
90
 51
180
  0
LINE
  5
229
100
AcDbEntity
  8
0
  6
ByLayer
 62
  256
370
   -1
100
AcDbLine
 10
-104.63125
 20
0.8932500000000232
 11
-104.63125
 21
13.39325000000001
  0
ARC
  5
22A
100
AcDbEntity
  8
0
  6
ByLayer
 62
  256
370
   -1
100
AcDbCircle
 10
15.18124999999998
 20
-18.15674999999998
 40
0.7500000000000995
100
AcDbArc
 50
180
 51
270
  0
LINE
  5
22B
100
AcDbEntity
  8
0
  6
ByLayer
 62
  256
370
   -1
100
AcDbLine
 10
27.68124999999998
 20
-18.90675000000001
 11
15.18124999999998
 21
-18.90675000000001
  0
ARC
  5
22C
100
AcDbEntity
  8
0
  6
ByLayer
 62
  256
370
   -1
100
AcDbCircle
 10
27.68124999999998
 20
-18.15674999999998
 40
0.7500000000000284
100
AcDbArc
 50
-90
 51
0
  0
LINE
  5
22D
100
AcDbEntity
  8
0
  6
ByLayer
 62
  256
370
   -1
100
AcDbLine
 10
28.43124999999979
 20
-5.656750000000015
 11
28.43124999999997
 21
-18.15674999999998
  0
ARC
  5
22E
100
AcDbEntity
  8
0
  6
ByLayer
 62
  256
370
   -1
100
AcDbCircle
 10
27.68124999999998
 20
-5.656750000000015
 40
0.7499999999998153
100
AcDbArc
 50
0
 51
90
  0
LINE
  5
22F
100
AcDbEntity
  8
0
  6
ByLayer
 62
  256
370
   -1
100
AcDbLine
 10
15.18124999999998
 20
-4.906750000000049
 11
27.68124999999998
 21
-4.90674999999996
  0
ARC
  5
230
100
AcDbEntity
  8
0
  6
ByLayer
 62
  256
370
   -1
100
AcDbCircle
 10
15.18124999999998
 20
-5.656750000000006
 40
0.7499999999999574
100
AcDbArc
 50
90
 51
180
  0
LINE
  5
231
100
AcDbEntity
  8
0
  6
ByLayer
 62
  256
370
   -1
100
AcDbLine
 10
14.43124999999988
 20
-18.15674999999998
 11
14.43125000000002
 21
-5.656750000000006
  0
LINE
  5
232
100
AcDbEntity
  8
0
  6
ByLayer
 62
  256
370
   -1
100
AcDbLine
 10
-113.40625
 20
33.19325000000003
 11
-100.9062499999999
 21
33.19324999999996
  0
ARC
  5
233
100
AcDbEntity
  8
0
  6
ByLayer
 62
  256
370
   -1
100
AcDbCircle
 10
-100.9062499999999
 20
32.44325000000001
 40
0.7499999999999929
100
AcDbArc
 50
0
 51
90
  0
LINE
  5
234
100
AcDbEntity
  8
0
  6
ByLayer
 62
  256
370
   -1
100
AcDbLine
 10
-100.1562499999999
 20
32.44325000000001
 11
-100.1562499999999
 21
19.94324999999996
  0
ARC
  5
235
100
AcDbEntity
  8
0
  6
ByLayer
 62
  256
370
   -1
100
AcDbCircle
 10
-100.9062499999999
 20
19.94324999999996
 40
0.7499999999999929
100
AcDbArc
 50
-90
 51
0
  0
LINE
  5
236
100
AcDbEntity
  8
0
  6
ByLayer
 62
  256
370
   -1
100
AcDbLine
 10
-100.9062499999999
 20
19.19324999999996
 11
-113.40625
 21
19.19324999999998
  0
ARC
  5
237
100
AcDbEntity
  8
0
  6
ByLayer
 62
  256
370
   -1
100
AcDbCircle
 10
-113.40625
 20
19.94324999999996
 40
0.7499999999999574
100
AcDbArc
 50
180
 51
270
  0
LINE
  5
238
100
AcDbEntity
  8
0
  6
ByLayer
 62
  256
370
   -1
100
AcDbLine
 10
-114.15625
 20
19.94324999999996
 11
-114.1562500000001
 21
32.44325000000001
  0
ARC
  5
239
100
AcDbEntity
  8
0
  6
ByLayer
 62
  256
370
   -1
100
AcDbCircle
 10
-113.40625
 20
32.44325000000001
 40
0.7500000000000284
100
AcDbArc
 50
90
 51
180
  0
LINE
  5
23A
100
AcDbEntity
  8
0
  6
ByLayer
 62
  256
370
   -1
100
AcDbLine
 10
-170.55625
 20
33.19325000000003
 11
-158.05625
 21
33.19324999999996
  0
ARC
  5
23B
100
AcDbEntity
  8
0
  6
ByLayer
 62
  256
370
   -1
100
AcDbCircle
 10
-158.05625
 20
32.44325000000001
 40
0.7500000000000284
100
AcDbArc
 50
0
 51
90
  0
LINE
  5
23C
100
AcDbEntity
  8
0
  6
ByLayer
 62
  256
370
   -1
100
AcDbLine
 10
-157.30625
 20
32.44325000000001
 11
-157.30625
 21
19.94324999999996
  0
ARC
  5
23D
100
AcDbEntity
  8
0
  6
ByLayer
 62
  256
370
   -1
100
AcDbCircle
 10
-158.05625
 20
19.94324999999996
 40
0.7499999999999929
100
AcDbArc
 50
-90
 51
0
  0
LINE
  5
23E
100
AcDbEntity
  8
0
  6
ByLayer
 62
  256
370
   -1
100
AcDbLine
 10
-158.05625
 20
19.19324999999996
 11
-170.55625
 21
19.19324999999998
  0
ARC
  5
23F
100
AcDbEntity
  8
0
  6
ByLayer
 62
  256
370
   -1
100
AcDbCircle
 10
-170.55625
 20
19.94324999999996
 40
0.7499999999999574
100
AcDbArc
 50
180
 51
270
  0
LINE
  5
240
100
AcDbEntity
  8
0
  6
ByLayer
 62
  256
370
   -1
100
AcDbLine
 10
-171.30625
 20
19.94324999999996
 11
-171.3062500000001
 21
32.44325000000001
  0
ARC
  5
241
100
AcDbEntity
  8
0
  6
ByLayer
 62
  256
370
   -1
100
AcDbCircle
 10
-170.55625
 20
32.44325000000001
 40
0.7500000000000284
100
AcDbArc
 50
90
 51
180
  0
ARC
  5
242
100
AcDbEntity
  8
0
  6
ByLayer
 62
  256
370
   -1
100
AcDbCircle
 10
132.45625
 20
56.25574999999997
 40
0.7500000000000284
100
AcDbArc
 50
0
 51
90
  0
LINE
  5
243
100
AcDbEntity
  8
0
  6
ByLayer
 62
  256
370
   -1
100
AcDbLine
 10
119.95625
 20
57.00575
 11
132.45625
 21
57.00575000000002
  0
ARC
  5
244
100
AcDbEntity
  8
0
  6
ByLayer
 62
  256
370
   -1
100
AcDbCircle
 10
119.95625
 20
56.25574999999997
 40
0.7500000000000284
100
AcDbArc
 50
90
 51
180
  0
LINE
  5
245
100
AcDbEntity
  8
0
  6
ByLayer
 62
  256
370
   -1
100
AcDbLine
 10
119.2062500000002
 20
43.75575000000001
 11
119.20625
 21
56.25574999999997
  0
ARC
  5
246
100
AcDbEntity
  8
0
  6
ByLayer
 62
  256
370
   -1
100
AcDbCircle
 10
119.95625
 20
43.75575000000001
 40
0.7499999999998153
100
AcDbArc
 50
180
 51
270
  0
LINE
  5
247
100
AcDbEntity
  8
0
  6
ByLayer
 62
  256
370
   -1
100
AcDbLine
 10
132.45625
 20
43.00575000000002
 11
119.95625
 21
43.00575000000026
  0
ARC
  5
248
100
AcDbEntity
  8
0
  6
ByLayer
 62
  256
370
   -1
100
AcDbCircle
 10
132.45625
 20
43.75575000000001
 40
0.7499999999999929
100
AcDbArc
 50
-90
 51
0
  0
LINE
  5
249
100
AcDbEntity
  8
0
  6
ByLayer
 62
  256
370
   -1
100
AcDbLine
 10
133.20625
 20
56.25575000000006
 11
133.20625
 21
43.75575000000001
  0
ARC
  5
24A
100
AcDbEntity
  8
0
  6
ByLayer
 62
  256
370
   -1
100
AcDbCircle
 10
-72.33125000000003
 20
13.39325000000001
 40
0.7499999999999929
100
AcDbArc
 50
0
 51
90
  0
LINE
  5
24B
100
AcDbEntity
  8
0
  6
ByLayer
 62
  256
370
   -1
100
AcDbLine
 10
-84.83124999999993
 20
14.14324999999996
 11
-72.33125000000003
 21
14.14325000000004
  0
ARC
  5
24C
100
AcDbEntity
  8
0
  6
ByLayer
 62
  256
370
   -1
100
AcDbCircle
 10
-84.83124999999993
 20
13.39325000000001
 40
0.7499999999999574
100
AcDbArc
 50
90
 51
180
  0
LINE
  5
24D
100
AcDbEntity
  8
0
  6
ByLayer
 62
  256
370
   -1
100
AcDbLine
 10
-85.58124999999988
 20
0.8932500000000232
 11
-85.58124999999988
 21
13.39325000000001
  0
ARC
  5
24E
100
AcDbEntity
  8
0
  6
ByLayer
 62
  256
370
   -1
100
AcDbCircle
 10
-84.83124999999993
 20
0.8932500000000232
 40
0.7499999999999574
100
AcDbArc
 50
180
 51
270
  0
LINE
  5
24F
100
AcDbEntity
  8
0
  6
ByLayer
 62
  256
370
   -1
100
AcDbLine
 10
-72.33125000000003
 20
0.1432500000000303
 11
-84.83124999999993
 21
0.1432500000000836
  0
ARC
  5
250
100
AcDbEntity
  8
0
  6
ByLayer
 62
  256
370
   -1
100
AcDbCircle
 10
-72.33125000000003
 20
0.8932500000000232
 40
0.7499999999999929
100
AcDbArc
 50
-90
 51
0
  0
LINE
  5
251
100
AcDbEntity
  8
0
  6
ByLayer
 62
  256
370
   -1
100
AcDbLine
 10
-71.58125000000004
 20
13.39325000000001
 11
-71.58125000000001
 21
0.8932500000000232
  0
ARC
  5
252
100
AcDbEntity
  8
0
  6
ByLayer
 62
  256
370
   -1
100
AcDbCircle
 10
-22.91875000000005
 20
-5.656750000000006
 40
0.7499999999999218
100
AcDbArc
 50
90
 51
180
  0
LINE
  5
253
100
AcDbEntity
  8
0
  6
ByLayer
 62
  256
370
   -1
100
AcDbLine
 10
-23.66875
 20
-18.15674999999998
 11
-23.66874999999997
 21
-5.656750000000006
  0
ARC
  5
254
100
AcDbEntity
  8
0
  6
ByLayer
 62
  256
370
   -1
100
AcDbCircle
 10
-22.91875000000005
 20
-18.15674999999998
 40
0.7499999999999574
100
AcDbArc
 50
180
 51
270
  0
LINE
  5
255
100
AcDbEntity
  8
0
  6
ByLayer
 62
  256
370
   -1
100
AcDbLine
 10
-10.41875000000005
 20
-18.90674999999994
 11
-22.91875000000005
 21
-18.90674999999992
  0
ARC
  5
256
100
AcDbEntity
  8
0
  6
ByLayer
 62
  256
370
   -1
100
AcDbCircle
 10
-10.41875000000005
 20
-18.15674999999998
 40
0.7499999999999574
100
AcDbArc
 50
-90
 51
0
  0
LINE
  5
257
100
AcDbEntity
  8
0
  6
ByLayer
 62
  256
370
   -1
100
AcDbLine
 10
-9.668749999999875
 20
-5.656750000000015
 11
-9.668750000000017
 21
-18.15674999999998
  0
ARC
  5
258
100
AcDbEntity
  8
0
  6
ByLayer
 62
  256
370
   -1
100
AcDbCircle
 10
-10.41875000000005
 20
-5.656750000000015
 40
0.7500000000001705
100
AcDbArc
 50
0
 51
90
  0
LINE
  5
259
100
AcDbEntity
  8
0
  6
ByLayer
 62
  256
370
   -1
100
AcDbLine
 10
-22.91875000000005
 20
-4.906750000000084
 11
-10.41875000000005
 21
-4.906749999999764
  0
LINE
  5
25A
100
AcDbEntity
  8
0
  6
ByLayer
 62
  256
370
   -1
100
AcDbLine
 10
-152.2562499999999
 20
19.94324999999996
 11
-152.25625
 21
32.44325000000001
  0
ARC
  5
25B
100
AcDbEntity
  8
0
  6
ByLayer
 62
  256
370
   -1
100
AcDbCircle
 10
-151.5062499999999
 20
32.44325000000001
 40
0.7500000000000284
100
AcDbArc
 50
90
 51
180
  0
LINE
  5
25C
100
AcDbEntity
  8
0
  6
ByLayer
 62
  256
370
   -1
100
AcDbLine
 10
-151.5062499999999
 20
33.19325000000003
 11
-139.0062499999999
 21
33.19324999999996
  0
ARC
  5
25D
100
AcDbEntity
  8
0
  6
ByLayer
 62
  256
370
   -1
100
AcDbCircle
 10
-139.0062499999999
 20
32.44325000000001
 40
0.7499999999999574
100
AcDbArc
 50
0
 51
90
  0
LINE
  5
25E
100
AcDbEntity
  8
0
  6
ByLayer
 62
  256
370
   -1
100
AcDbLine
 10
-138.25625
 20
32.44325000000001
 11
-138.2562499999999
 21
19.94324999999996
  0
ARC
  5
25F
100
AcDbEntity
  8
0
  6
ByLayer
 62
  256
370
   -1
100
AcDbCircle
 10
-139.0062499999999
 20
19.94324999999996
 40
0.7499999999999929
100
AcDbArc
 50
-90
 51
0
  0
LINE
  5
260
100
AcDbEntity
  8
0
  6
ByLayer
 62
  256
370
   -1
100
AcDbLine
 10
-139.0062499999999
 20
19.19324999999996
 11
-151.5062499999999
 21
19.19324999999998
  0
ARC
  5
261
100
AcDbEntity
  8
0
  6
ByLayer
 62
  256
370
   -1
100
AcDbCircle
 10
-151.5062499999999
 20
19.94324999999996
 40
0.7499999999999929
100
AcDbArc
 50
180
 51
270
  0
LINE
  5
262
100
AcDbEntity
  8
0
  6
ByLayer
 62
  256
370
   -1
100
AcDbLine
 10
104.63125
 20
13.39325000000001
 11
104.6312499999999
 21
0.8932500000000232
  0
ARC
  5
263
100
AcDbEntity
  8
0
  6
ByLayer
 62
  256
370
   -1
100
AcDbCircle
 10
103.88125
 20
0.8932500000000232
 40
0.7500000000000284
100
AcDbArc
 50
-90
 51
0
  0
LINE
  5
264
100
AcDbEntity
  8
0
  6
ByLayer
 62
  256
370
   -1
100
AcDbLine
 10
103.88125
 20
0.1432499999999948
 11
91.38124999999995
 21
0.143249999999977
  0
ARC
  5
265
100
AcDbEntity
  8
0
  6
ByLayer
 62
  256
370
   -1
100
AcDbCircle
 10
91.38124999999995
 20
0.8932500000000232
 40
0.7500000000000284
100
AcDbArc
 50
180
 51
270
  0
LINE
  5
266
100
AcDbEntity
  8
0
  6
ByLayer
 62
  256
370
   -1
100
AcDbLine
 10
90.63124999999992
 20
0.8932500000000232
 11
90.63124999999997
 21
13.39325000000001
  0
ARC
  5
267
100
AcDbEntity
  8
0
  6
ByLayer
 62
  256
370
   -1
100
AcDbCircle
 10
91.38124999999995
 20
13.39325000000001
 40
0.7499999999999929
100
AcDbArc
 50
90
 51
180
  0
LINE
  5
268
100
AcDbEntity
  8
0
  6
ByLayer
 62
  256
370
   -1
100
AcDbLine
 10
91.38124999999995
 20
14.14325
 11
103.88125
 21
14.14325000000004
  0
ARC
  5
269
100
AcDbEntity
  8
0
  6
ByLayer
 62
  256
370
   -1
100
AcDbCircle
 10
103.88125
 20
13.39325000000001
 40
0.7500000000000284
100
AcDbArc
 50
0
 51
90
  0
LINE
  5
26A
100
AcDbEntity
  8
0
  6
ByLayer
 62
  256
370
   -1
100
AcDbLine
 10
-104.91875
 20
-5.656750000000006
 11
-104.91875
 21
-18.15674999999998
  0
ARC
  5
26B
100
AcDbEntity
  8
0
  6
ByLayer
 62
  256
370
   -1
100
AcDbCircle
 10
-105.66875
 20
-18.15674999999998
 40
0.7499999999999574
100
AcDbArc
 50
-90
 51
0
  0
LINE
  5
26C
100
AcDbEntity
  8
0
  6
ByLayer
 62
  256
370
   -1
100
AcDbLine
 10
-105.66875
 20
-18.90674999999994
 11
-118.16875
 21
-18.90674999999992
  0
ARC
  5
26D
100
AcDbEntity
  8
0
  6
ByLayer
 62
  256
370
   -1
100
AcDbCircle
 10
-118.16875
 20
-18.15674999999998
 40
0.7499999999999574
100
AcDbArc
 50
180
 51
270
  0
LINE
  5
26E
100
AcDbEntity
  8
0
  6
ByLayer
 62
  256
370
   -1
100
AcDbLine
 10
-118.91875
 20
-18.15674999999998
 11
-118.91875
 21
-5.656750000000015
  0
ARC
  5
26F
100
AcDbEntity
  8
0
  6
ByLayer
 62
  256
370
   -1
100
AcDbCircle
 10
-118.16875
 20
-5.656750000000015
 40
0.7499999999999574
100
AcDbArc
 50
90
 51
180
  0
LINE
  5
270
100
AcDbEntity
  8
0
  6
ByLayer
 62
  256
370
   -1
100
AcDbLine
 10
-118.16875
 20
-4.906750000000057
 11
-105.66875
 21
-4.906749999999862
  0
ARC
  5
271
100
AcDbEntity
  8
0
  6
ByLayer
 62
  256
370
   -1
100
AcDbCircle
 10
-105.66875
 20
-5.656750000000015
 40
0.7500000000000639
100
AcDbArc
 50
0
 51
90
  0
ARC
  5
272
100
AcDbEntity
  8
0
  6
ByLayer
 62
  256
370
   -1
100
AcDbCircle
 10
58.04374999999997
 20
32.44325000000001
 40
0.7500000000000284
100
AcDbArc
 50
90
 51
180
  0
LINE
  5
273
100
AcDbEntity
  8
0
  6
ByLayer
 62
  256
370
   -1
100
AcDbLine
 10
57.29375000000001
 20
19.94324999999996
 11
57.29374999999994
 21
32.44325000000001
  0
ARC
  5
274
100
AcDbEntity
  8
0
  6
ByLayer
 62
  256
370
   -1
100
AcDbCircle
 10
58.04374999999997
 20
19.94325000000005
 40
0.7499999999999574
100
AcDbArc
 50
180
 51
270
  0
LINE
  5
275
100
AcDbEntity
  8
0
  6
ByLayer
 62
  256
370
   -1
100
AcDbLine
 10
70.54374999999996
 20
19.19325000000002
 11
58.04374999999997
 21
19.19325000000008
  0
ARC
  5
276
100
AcDbEntity
  8
0
  6
ByLayer
 62
  256
370
   -1
100
AcDbCircle
 10
70.54374999999996
 20
19.94325000000005
 40
0.7500000000000284
100
AcDbArc
 50
-90
 51
0
  0
LINE
  5
277
100
AcDbEntity
  8
0
  6
ByLayer
 62
  256
370
   -1
100
AcDbLine
 10
71.29374999999999
 20
32.44325000000001
 11
71.29374999999999
 21
19.94325000000005
  0
ARC
  5
278
100
AcDbEntity
  8
0
  6
ByLayer
 62
  256
370
   -1
100
AcDbCircle
 10
70.54374999999996
 20
32.44325000000001
 40
0.7500000000000284
100
AcDbArc
 50
0
 51
90
  0
LINE
  5
279
100
AcDbEntity
  8
0
  6
ByLayer
 62
  256
370
   -1
100
AcDbLine
 10
58.04374999999997
 20
33.19325000000003
 11
70.54374999999996
 21
33.19325000000006
  0
LINE
  5
27A
100
AcDbEntity
  8
0
  6
ByLayer
 62
  256
370
   -1
100
AcDbLine
 10
-153.2937499999999
 20
0.1432499999999948
 11
-165.79375
 21
0.143249999999977
  0
ARC
  5
27B
100
AcDbEntity
  8
0
  6
ByLayer
 62
  256
370
   -1
100
AcDbCircle
 10
-165.79375
 20
0.8932500000000232
 40
0.7499999999999929
100
AcDbArc
 50
180
 51
270
  0
LINE
  5
27C
100
AcDbEntity
  8
0
  6
ByLayer
 62
  256
370
   -1
100
AcDbLine
 10
-166.54375
 20
0.8932500000000232
 11
-166.54375
 21
13.39325000000001
  0
ARC
  5
27D
100
AcDbEntity
  8
0
  6
ByLayer
 62
  256
370
   -1
100
AcDbCircle
 10
-165.79375
 20
13.39325000000001
 40
0.7499999999999574
100
AcDbArc
 50
90
 51
180
  0
LINE
  5
27E
100
AcDbEntity
  8
0
  6
ByLayer
 62
  256
370
   -1
100
AcDbLine
 10
-165.79375
 20
14.14324999999996
 11
-153.2937499999999
 21
14.14324999999995
  0
ARC
  5
27F
100
AcDbEntity
  8
0
  6
ByLayer
 62
  256
370
   -1
100
AcDbCircle
 10
-153.2937499999999
 20
13.39325000000001
 40
0.7499999999999574
100
AcDbArc
 50
0
 51
90
  0
LINE
  5
280
100
AcDbEntity
  8
0
  6
ByLayer
 62
  256
370
   -1
100
AcDbLine
 10
-152.54375
 20
13.39325000000001
 11
-152.5437499999999
 21
0.8932500000000232
  0
ARC
  5
281
100
AcDbEntity
  8
0
  6
ByLayer
 62
  256
370
   -1
100
AcDbCircle
 10
-153.2937499999999
 20
0.8932500000000232
 40
0.7500000000000284
100
AcDbArc
 50
-90
 51
0
  0
LINE
  5
282
100
AcDbEntity
  8
0
  6
ByLayer
 62
  256
370
   -1
100
AcDbLine
 10
47.48124999999995
 20
-5.656750000000015
 11
47.48124999999998
 21
-18.15674999999998
  0
ARC
  5
283
100
AcDbEntity
  8
0
  6
ByLayer
 62
  256
370
   -1
100
AcDbCircle
 10
46.73124999999999
 20
-18.15674999999998
 40
0.7499999999999574
100
AcDbArc
 50
-90
 51
0
  0
LINE
  5
284
100
AcDbEntity
  8
0
  6
ByLayer
 62
  256
370
   -1
100
AcDbLine
 10
46.73124999999999
 20
-18.90674999999994
 11
34.23124999999999
 21
-18.90675000000001
  0
ARC
  5
285
100
AcDbEntity
  8
0
  6
ByLayer
 62
  256
370
   -1
100
AcDbCircle
 10
34.23124999999999
 20
-18.15674999999998
 40
0.7500000000000284
100
AcDbArc
 50
180
 51
270
  0
LINE
  5
286
100
AcDbEntity
  8
0
  6
ByLayer
 62
  256
370
   -1
100
AcDbLine
 10
33.48124999999996
 20
-18.15674999999998
 11
33.48125000000003
 21
-5.656750000000015
  0
ARC
  5
287
100
AcDbEntity
  8
0
  6
ByLayer
 62
  256
370
   -1
100
AcDbCircle
 10
34.23124999999999
 20
-5.656750000000015
 40
0.7499999999999574
100
AcDbArc
 50
90
 51
180
  0
LINE
  5
288
100
AcDbEntity
  8
0
  6
ByLayer
 62
  256
370
   -1
100
AcDbLine
 10
34.23124999999999
 20
-4.906750000000057
 11
46.73124999999999
 21
-4.90674999999996
  0
ARC
  5
289
100
AcDbEntity
  8
0
  6
ByLayer
 62
  256
370
   -1
100
AcDbCircle
 10
46.73124999999999
 20
-5.656750000000015
 40
0.7499999999999574
100
AcDbArc
 50
0
 51
90
  0
LINE
  5
28A
100
AcDbEntity
  8
0
  6
ByLayer
 62
  256
370
   -1
100
AcDbLine
 10
-101.3187499999999
 20
-56.2567499999999
 11
-101.3187499999999
 21
-43.75675000000022
  0
ARC
  5
28B
100
AcDbEntity
  8
0
  6
ByLayer
 62
  256
370
   -1
100
AcDbCircle
 10
-100.5687499999999
 20
-43.75675000000022
 40
0.7499999999999574
100
AcDbArc
 50
90
 51
180
  0
LINE
  5
28C
100
AcDbEntity
  8
0
  6
ByLayer
 62
  256
370
   -1
100
AcDbLine
 10
-100.5687499999999
 20
-43.00675000000027
 11
-100.0687499999999
 21
-43.0067500000002
  0
ARC
  5
28D
100
AcDbEntity
  8
0
  6
ByLayer
 62
  256
370
   -1
100
AcDbCircle
 10
-100.0687499999999
 20
-43.75675000000022
 40
0.7500000000000284
100
AcDbArc
 50
0
 51
90
  0
LINE
  5
28E
100
AcDbEntity
  8
0
  6
ByLayer
 62
  256
370
   -1
100
AcDbLine
 10
-99.31874999999989
 20
-43.75675000000022
 11
-99.31874999999982
 21
-56.2567499999999
  0
ARC
  5
28F
100
AcDbEntity
  8
0
  6
ByLayer
 62
  256
370
   -1
100
AcDbCircle
 10
-100.0687499999999
 20
-56.2567499999999
 40
0.7500000000000995
100
AcDbArc
 50
-90
 51
0
  0
LINE
  5
290
100
AcDbEntity
  8
0
  6
ByLayer
 62
  256
370
   -1
100
AcDbLine
 10
-100.0687499999999
 20
-57.00675
 11
-100.5687499999999
 21
-57.00675000000043
  0
ARC
  5
291
100
AcDbEntity
  8
0
  6
ByLayer
 62
  256
370
   -1
100
AcDbCircle
 10
-100.5687499999999
 20
-56.2567499999999
 40
0.7499999999999929
100
AcDbArc
 50
180
 51
270
  0
ARC
  5
292
100
AcDbEntity
  8
0
  6
ByLayer
 62
  256
370
   -1
100
AcDbCircle
 10
-15.18125000000001
 20
0.8932500000000232
 40
0.7500000000000284
100
AcDbArc
 50
-90
 51
0
  0
LINE
  5
293
100
AcDbEntity
  8
0
  6
ByLayer
 62
  256
370
   -1
100
AcDbLine
 10
-14.43125000000006
 20
13.39325000000001
 11
-14.43125000000002
 21
0.8932500000000232
  0
ARC
  5
294
100
AcDbEntity
  8
0
  6
ByLayer
 62
  256
370
   -1
100
AcDbCircle
 10
-15.18125000000001
 20
13.39325000000001
 40
0.7499999999999574
100
AcDbArc
 50
0
 51
90
  0
LINE
  5
295
100
AcDbEntity
  8
0
  6
ByLayer
 62
  256
370
   -1
100
AcDbLine
 10
-27.68125000000001
 20
14.14324999999996
 11
-15.18125000000001
 21
14.14324999999996
  0
ARC
  5
296
100
AcDbEntity
  8
0
  6
ByLayer
 62
  256
370
   -1
100
AcDbCircle
 10
-27.68125000000001
 20
13.39325000000001
 40
0.7499999999999574
100
AcDbArc
 50
90
 51
180
  0
LINE
  5
297
100
AcDbEntity
  8
0
  6
ByLayer
 62
  256
370
   -1
100
AcDbLine
 10
-28.43124999999997
 20
0.8932500000000232
 11
-28.43125000000002
 21
13.39325000000001
  0
ARC
  5
298
100
AcDbEntity
  8
0
  6
ByLayer
 62
  256
370
   -1
100
AcDbCircle
 10
-27.68125000000001
 20
0.8932500000000232
 40
0.7499999999999574
100
AcDbArc
 50
180
 51
270
  0
LINE
  5
299
100
AcDbEntity
  8
0
  6
ByLayer
 62
  256
370
   -1
100
AcDbLine
 10
-15.18125000000001
 20
0.1432499999999948
 11
-27.68125000000001
 21
0.143249999999977
  0
LINE
  5
29A
100
AcDbEntity
  8
0
  6
ByLayer
 62
  256
370
   -1
100
AcDbLine
 10
14.14375000000007
 20
32.44325000000001
 11
14.14374999999996
 21
19.94324999999996
  0
ARC
  5
29B
100
AcDbEntity
  8
0
  6
ByLayer
 62
  256
370
   -1
100
AcDbCircle
 10
13.39374999999997
 20
19.94324999999996
 40
0.7499999999999574
100
AcDbArc
 50
-90
 51
0
  0
LINE
  5
29C
100
AcDbEntity
  8
0
  6
ByLayer
 62
  256
370
   -1
100
AcDbLine
 10
13.39374999999997
 20
19.19325
 11
0.8937499999999687
 21
19.19324999999998
  0
ARC
  5
29D
100
AcDbEntity
  8
0
  6
ByLayer
 62
  256
370
   -1
100
AcDbCircle
 10
0.8937499999999687
 20
19.94324999999996
 40
0.7500000000000284
100
AcDbArc
 50
180
 51
270
  0
LINE
  5
29E
100
AcDbEntity
  8
0
  6
ByLayer
 62
  256
370
   -1
100
AcDbLine
 10
0.1437499999999403
 20
19.94324999999996
 11
0.1437499999999403
 21
32.44325000000001
  0
ARC
  5
29F
100
AcDbEntity
  8
0
  6
ByLayer
 62
  256
370
   -1
100
AcDbCircle
 10
0.8937499999999687
 20
32.44325000000001
 40
0.7500000000000284
100
AcDbArc
 50
90
 51
180
  0
LINE
  5
2A0
100
AcDbEntity
  8
0
  6
ByLayer
 62
  256
370
   -1
100
AcDbLine
 10
0.8937499999999687
 20
33.19325000000003
 11
13.39374999999997
 21
33.19325000000017
  0
ARC
  5
2A1
100
AcDbEntity
  8
0
  6
ByLayer
 62
  256
370
   -1
100
AcDbCircle
 10
13.39374999999997
 20
32.44325000000001
 40
0.7500000000000995
100
AcDbArc
 50
0
 51
90
  0
LINE
  5
2A2
100
AcDbEntity
  8
0
  6
ByLayer
 62
  256
370
   -1
100
AcDbLine
 10
-123.9687499999999
 20
-5.656750000000015
 11
-123.9687499999999
 21
-18.15674999999998
  0
ARC
  5
2A3
100
AcDbEntity
  8
0
  6
ByLayer
 62
  256
370
   -1
100
AcDbCircle
 10
-124.7187499999999
 20
-18.15674999999998
 40
0.7499999999999574
100
AcDbArc
 50
-90
 51
0
  0
LINE
  5
2A4
100
AcDbEntity
  8
0
  6
ByLayer
 62
  256
370
   -1
100
AcDbLine
 10
-124.7187499999999
 20
-18.90674999999994
 11
-137.2187499999999
 21
-18.90674999999992
  0
ARC
  5
2A5
100
AcDbEntity
  8
0
  6
ByLayer
 62
  256
370
   -1
100
AcDbCircle
 10
-137.2187499999999
 20
-18.15674999999998
 40
0.7500000000000639
100
AcDbArc
 50
180
 51
270
  0
LINE
  5
2A6
100
AcDbEntity
  8
0
  6
ByLayer
 62
  256
370
   -1
100
AcDbLine
 10
-137.96875
 20
-18.15674999999998
 11
-137.9687499999999
 21
-5.656750000000006
  0
ARC
  5
2A7
100
AcDbEntity
  8
0
  6
ByLayer
 62
  256
370
   -1
100
AcDbCircle
 10
-137.2187499999999
 20
-5.656750000000006
 40
0.7499999999999218
100
AcDbArc
 50
90
 51
180
  0
LINE
  5
2A8
100
AcDbEntity
  8
0
  6
ByLayer
 62
  256
370
   -1
100
AcDbLine
 10
-137.2187499999999
 20
-4.906750000000084
 11
-124.7187499999999
 21
-4.90674999999996
  0
ARC
  5
2A9
100
AcDbEntity
  8
0
  6
ByLayer
 62
  256
370
   -1
100
AcDbCircle
 10
-124.7187499999999
 20
-5.656750000000006
 40
0.7500000000000284
100
AcDbArc
 50
0
 51
90.00000000000109
  0
LINE
  5
2AA
100
AcDbEntity
  8
0
  6
ByLayer
 62
  256
370
   -1
100
AcDbLine
 10
-104.91875
 20
-43.75675000000022
 11
-104.9187499999999
 21
-56.2567499999999
  0
ARC
  5
2AB
100
AcDbEntity
  8
0
  6
ByLayer
 62
  256
370
   -1
100
AcDbCircle
 10
-105.66875
 20
-56.2567499999999
 40
0.7500000000000995
100
AcDbArc
 50
-90
 51
0
  0
LINE
  5
2AC
100
AcDbEntity
  8
0
  6
ByLayer
 62
  256
370
   -1
100
AcDbLine
 10
-105.66875
 20
-57.00675
 11
-118.16875
 21
-57.00675000000043
  0
ARC
  5
2AD
100
AcDbEntity
  8
0
  6
ByLayer
 62
  256
370
   -1
100
AcDbCircle
 10
-118.16875
 20
-56.2567499999999
 40
0.7499999999999574
100
AcDbArc
 50
180
 51
270
  0
LINE
  5
2AE
100
AcDbEntity
  8
0
  6
ByLayer
 62
  256
370
   -1
100
AcDbLine
 10
-118.91875
 20
-56.2567499999999
 11
-118.91875
 21
-43.75675000000022
  0
ARC
  5
2AF
100
AcDbEntity
  8
0
  6
ByLayer
 62
  256
370
   -1
100
AcDbCircle
 10
-118.16875
 20
-43.75675000000022
 40
0.7499999999999574
100
AcDbArc
 50
90
 51
180
  0
LINE
  5
2B0
100
AcDbEntity
  8
0
  6
ByLayer
 62
  256
370
   -1
100
AcDbLine
 10
-118.16875
 20
-43.00675000000027
 11
-105.66875
 21
-43.0067499999997
  0
ARC
  5
2B1
100
AcDbEntity
  8
0
  6
ByLayer
 62
  256
370
   -1
100
AcDbCircle
 10
-105.66875
 20
-43.75675000000022
 40
0.7500000000000284
100
AcDbArc
 50
0
 51
90
  0
LINE
  5
2B2
100
AcDbEntity
  8
0
  6
ByLayer
 62
  256
370
   -1
100
AcDbLine
 10
-172.14375
 20
-56.2567499999999
 11
-172.1437499999999
 21
-43.75675000000022
  0
ARC
  5
2B3
100
AcDbEntity
  8
0
  6
ByLayer
 62
  256
370
   -1
100
AcDbCircle
 10
-171.39375
 20
-43.75675000000022
 40
0.7499999999999574
100
AcDbArc
 50
90
 51
180
  0
LINE
  5
2B4
100
AcDbEntity
  8
0
  6
ByLayer
 62
  256
370
   -1
100
AcDbLine
 10
-171.39375
 20
-43.00675000000027
 11
-170.89375
 21
-43.00675000000023
  0
ARC
  5
2B5
100
AcDbEntity
  8
0
  6
ByLayer
 62
  256
370
   -1
100
AcDbCircle
 10
-170.89375
 20
-43.75675000000022
 40
0.7499999999999929
100
AcDbArc
 50
0
 51
90
  0
LINE
  5
2B6
100
AcDbEntity
  8
0
  6
ByLayer
 62
  256
370
   -1
100
AcDbLine
 10
-170.14375
 20
-43.75675000000022
 11
-170.14375
 21
-56.2567499999999
  0
ARC
  5
2B7
100
AcDbEntity
  8
0
  6
ByLayer
 62
  256
370
   -1
100
AcDbCircle
 10
-170.89375
 20
-56.2567499999999
 40
0.7500000000000995
100
AcDbArc
 50
-90
 51
0
  0
LINE
  5
2B8
100
AcDbEntity
  8
0
  6
ByLayer
 62
  256
370
   -1
100
AcDbLine
 10
-170.89375
 20
-57.00675
 11
-171.39375
 21
-57.00675
  0
ARC
  5
2B9
100
AcDbEntity
  8
0
  6
ByLayer
 62
  256
370
   -1
100
AcDbCircle
 10
-171.39375
 20
-56.2567499999999
 40
0.7500000000000995
100
AcDbArc
 50
180
 51
270
  0
LINE
  5
2BA
100
AcDbEntity
  8
0
  6
ByLayer
 62
  256
370
   -1
100
AcDbLine
 10
151.5062499999999
 20
19.19325000000002
 11
139.0062499999999
 21
19.19324999999988
  0
ARC
  5
2BB
100
AcDbEntity
  8
0
  6
ByLayer
 62
  256
370
   -1
100
AcDbCircle
 10
139.0062499999999
 20
19.94325000000005
 40
0.7500000000001705
100
AcDbArc
 50
180
 51
270
  0
LINE
  5
2BC
100
AcDbEntity
  8
0
  6
ByLayer
 62
  256
370
   -1
100
AcDbLine
 10
138.2562499999998
 20
19.94325000000004
 11
138.2562499999999
 21
32.44325000000001
  0
ARC
  5
2BD
100
AcDbEntity
  8
0
  6
ByLayer
 62
  256
370
   -1
100
AcDbCircle
 10
139.0062499999999
 20
32.44325000000001
 40
0.7500000000000284
100
AcDbArc
 50
90
 51
180
  0
LINE
  5
2BE
100
AcDbEntity
  8
0
  6
ByLayer
 62
  256
370
   -1
100
AcDbLine
 10
139.0062499999999
 20
33.19325000000003
 11
151.5062499999999
 21
33.19325000000006
  0
ARC
  5
2BF
100
AcDbEntity
  8
0
  6
ByLayer
 62
  256
370
   -1
100
AcDbCircle
 10
151.5062499999999
 20
32.44325000000001
 40
0.7500000000000284
100
AcDbArc
 50
0
 51
90
  0
LINE
  5
2C0
100
AcDbEntity
  8
0
  6
ByLayer
 62
  256
370
   -1
100
AcDbLine
 10
152.25625
 20
32.44325000000001
 11
152.25625
 21
19.94325000000005
  0
ARC
  5
2C1
100
AcDbEntity
  8
0
  6
ByLayer
 62
  256
370
   -1
100
AcDbCircle
 10
151.5062499999999
 20
19.94325000000005
 40
0.7500000000000284
100
AcDbArc
 50
-90
 51
0
  0
LINE
  5
2C2
100
AcDbEntity
  8
0
  6
ByLayer
 62
  256
370
   -1
100
AcDbLine
 10
-28.71875000000003
 20
-5.656750000000015
 11
-28.71875000000001
 21
-18.15674999999998
  0
ARC
  5
2C3
100
AcDbEntity
  8
0
  6
ByLayer
 62
  256
370
   -1
100
AcDbCircle
 10
-29.46875000000002
 20
-18.15674999999998
 40
0.7499999999999574
100
AcDbArc
 50
-90
 51
0
  0
LINE
  5
2C4
100
AcDbEntity
  8
0
  6
ByLayer
 62
  256
370
   -1
100
AcDbLine
 10
-29.46875000000002
 20
-18.90674999999994
 11
-41.96875000000002
 21
-18.90674999999992
  0
ARC
  5
2C5
100
AcDbEntity
  8
0
  6
ByLayer
 62
  256
370
   -1
100
AcDbCircle
 10
-41.96875000000002
 20
-18.15674999999998
 40
0.7499999999999929
100
AcDbArc
 50
180
 51
270
  0
LINE
  5
2C6
100
AcDbEntity
  8
0
  6
ByLayer
 62
  256
370
   -1
100
AcDbLine
 10
-42.71875000000001
 20
-18.15674999999998
 11
-42.71874999999998
 21
-5.656750000000015
  0
ARC
  5
2C7
100
AcDbEntity
  8
0
  6
ByLayer
 62
  256
370
   -1
100
AcDbCircle
 10
-41.96875000000002
 20
-5.656750000000015
 40
0.7499999999999574
100
AcDbArc
 50
90
 51
180
  0
LINE
  5
2C8
100
AcDbEntity
  8
0
  6
ByLayer
 62
  256
370
   -1
100
AcDbLine
 10
-41.96875000000002
 20
-4.906750000000057
 11
-29.46875000000002
 21
-4.906750000000049
  0
ARC
  5
2C9
100
AcDbEntity
  8
0
  6
ByLayer
 62
  256
370
   -1
100
AcDbCircle
 10
-29.46875000000002
 20
-5.656750000000015
 40
0.7499999999999929
100
AcDbArc
 50
0
 51
90
  0
LINE
  5
2CA
100
AcDbEntity
  8
0
  6
ByLayer
 62
  256
370
   -1
100
AcDbLine
 10
109.3937500000002
 20
56.25574999999997
 11
109.39375
 21
43.75575000000001
  0
ARC
  5
2CB
100
AcDbEntity
  8
0
  6
ByLayer
 62
  256
370
   -1
100
AcDbCircle
 10
108.64375
 20
43.75575000000001
 40
0.7499999999999929
100
AcDbArc
 50
-90
 51
0
  0
LINE
  5
2CC
100
AcDbEntity
  8
0
  6
ByLayer
 62
  256
370
   -1
100
AcDbLine
 10
108.64375
 20
43.00575000000002
 11
96.14374999999998
 21
43.00575000000005
  0
ARC
  5
2CD
100
AcDbEntity
  8
0
  6
ByLayer
 62
  256
370
   -1
100
AcDbCircle
 10
96.14374999999998
 20
43.75575000000001
 40
0.7500000000000284
100
AcDbArc
 50
180
 51
270
  0
LINE
  5
2CE
100
AcDbEntity
  8
0
  6
ByLayer
 62
  256
370
   -1
100
AcDbLine
 10
95.39374999999995
 20
43.75575000000001
 11
95.39375
 21
56.25575000000006
  0
ARC
  5
2CF
100
AcDbEntity
  8
0
  6
ByLayer
 62
  256
370
   -1
100
AcDbCircle
 10
96.14374999999998
 20
56.25575000000006
 40
0.7499999999999929
100
AcDbArc
 50
90
 51
180
  0
LINE
  5
2D0
100
AcDbEntity
  8
0
  6
ByLayer
 62
  256
370
   -1
100
AcDbLine
 10
96.14374999999998
 20
57.00575000000006
 11
108.64375
 21
57.00575000000022
  0
ARC
  5
2D1
100
AcDbEntity
  8
0
  6
ByLayer
 62
  256
370
   -1
100
AcDbCircle
 10
108.64375
 20
56.25575000000006
 40
0.7500000000001705
100
AcDbArc
 50
0
 51
90
  0
ARC
  5
2D2
100
AcDbEntity
  8
0
  6
ByLayer
 62
  256
370
   -1
100
AcDbCircle
 10
-129.4812499999999
 20
13.39325000000001
 40
0.7499999999999574
100
AcDbArc
 50
0
 51
90
  0
LINE
  5
2D3
100
AcDbEntity
  8
0
  6
ByLayer
 62
  256
370
   -1
100
AcDbLine
 10
-141.98125
 20
14.14324999999996
 11
-129.4812499999999
 21
14.14324999999995
  0
ARC
  5
2D4
100
AcDbEntity
  8
0
  6
ByLayer
 62
  256
370
   -1
100
AcDbCircle
 10
-141.98125
 20
13.39325000000001
 40
0.7499999999999574
100
AcDbArc
 50
90
 51
180
  0
LINE
  5
2D5
100
AcDbEntity
  8
0
  6
ByLayer
 62
  256
370
   -1
100
AcDbLine
 10
-142.73125
 20
0.8932500000000232
 11
-142.73125
 21
13.39325000000001
  0
ARC
  5
2D6
100
AcDbEntity
  8
0
  6
ByLayer
 62
  256
370
   -1
100
AcDbCircle
 10
-141.98125
 20
0.8932500000000232
 40
0.7499999999999929
100
AcDbArc
 50
180
 51
270
  0
LINE
  5
2D7
100
AcDbEntity
  8
0
  6
ByLayer
 62
  256
370
   -1
100
AcDbLine
 10
-129.4812499999999
 20
0.1432499999999948
 11
-141.98125
 21
0.143249999999977
  0
ARC
  5
2D8
100
AcDbEntity
  8
0
  6
ByLayer
 62
  256
370
   -1
100
AcDbCircle
 10
-129.4812499999999
 20
0.8932500000000232
 40
0.7500000000000284
100
AcDbArc
 50
-90
 51
0
  0
LINE
  5
2D9
100
AcDbEntity
  8
0
  6
ByLayer
 62
  256
370
   -1
100
AcDbLine
 10
-128.73125
 20
13.39325000000001
 11
-128.7312499999999
 21
0.8932500000000232
  0
ARC
  5
2DA
100
AcDbEntity
  8
0
  6
ByLayer
 62
  256
370
   -1
100
AcDbCircle
 10
-119.95625
 20
32.44325000000001
 40
0.7500000000000639
100
AcDbArc
 50
0
 51
90
  0
LINE
  5
2DB
100
AcDbEntity
  8
0
  6
ByLayer
 62
  256
370
   -1
100
AcDbLine
 10
-132.4562499999999
 20
33.19325000000003
 11
-119.95625
 21
33.19325000000006
  0
ARC
  5
2DC
100
AcDbEntity
  8
0
  6
ByLayer
 62
  256
370
   -1
100
AcDbCircle
 10
-132.4562499999999
 20
32.44325000000001
 40
0.7500000000000284
100
AcDbArc
 50
90
 51
180
  0
LINE
  5
2DD
100
AcDbEntity
  8
0
  6
ByLayer
 62
  256
370
   -1
100
AcDbLine
 10
-133.20625
 20
19.94324999999996
 11
-133.20625
 21
32.44325000000001
  0
ARC
  5
2DE
100
AcDbEntity
  8
0
  6
ByLayer
 62
  256
370
   -1
100
AcDbCircle
 10
-132.4562499999999
 20
19.94324999999996
 40
0.7500000000000284
100
AcDbArc
 50
180
 51
270
  0
LINE
  5
2DF
100
AcDbEntity
  8
0
  6
ByLayer
 62
  256
370
   -1
100
AcDbLine
 10
-119.95625
 20
19.19324999999996
 11
-132.4562499999999
 21
19.19324999999998
  0
ARC
  5
2E0
100
AcDbEntity
  8
0
  6
ByLayer
 62
  256
370
   -1
100
AcDbCircle
 10
-119.95625
 20
19.94324999999996
 40
0.7499999999999929
100
AcDbArc
 50
-90
 51
0
  0
LINE
  5
2E1
100
AcDbEntity
  8
0
  6
ByLayer
 62
  256
370
   -1
100
AcDbLine
 10
-119.20625
 20
32.44325000000001
 11
-119.2062499999999
 21
19.94324999999996
  0
LINE
  5
2E2
100
AcDbEntity
  8
0
  6
ByLayer
 62
  256
370
   -1
100
AcDbLine
 10
-75.30625000000002
 20
33.19325000000003
 11
-62.80625000000002
 21
33.19324999999996
  0
ARC
  5
2E3
100
AcDbEntity
  8
0
  6
ByLayer
 62
  256
370
   -1
100
AcDbCircle
 10
-62.80625000000002
 20
32.44325000000001
 40
0.7499999999999574
100
AcDbArc
 50
0
 51
90
  0
LINE
  5
2E4
100
AcDbEntity
  8
0
  6
ByLayer
 62
  256
370
   -1
100
AcDbLine
 10
-62.05625000000006
 20
32.44325000000001
 11
-62.05625000000001
 21
19.94324999999996
  0
ARC
  5
2E5
100
AcDbEntity
  8
0
  6
ByLayer
 62
  256
370
   -1
100
AcDbCircle
 10
-62.80625000000002
 20
19.94324999999996
 40
0.7499999999999929
100
AcDbArc
 50
-90
 51
0
  0
LINE
  5
2E6
100
AcDbEntity
  8
0
  6
ByLayer
 62
  256
370
   -1
100
AcDbLine
 10
-62.80625000000002
 20
19.19324999999996
 11
-75.30625000000002
 21
19.19324999999998
  0
ARC
  5
2E7
100
AcDbEntity
  8
0
  6
ByLayer
 62
  256
370
   -1
100
AcDbCircle
 10
-75.30625000000002
 20
19.94324999999996
 40
0.7499999999999929
100
AcDbArc
 50
180
 51
270
  0
LINE
  5
2E8
100
AcDbEntity
  8
0
  6
ByLayer
 62
  256
370
   -1
100
AcDbLine
 10
-76.05625000000002
 20
19.94324999999996
 11
-76.05625000000005
 21
32.44325000000001
  0
ARC
  5
2E9
100
AcDbEntity
  8
0
  6
ByLayer
 62
  256
370
   -1
100
AcDbCircle
 10
-75.30625000000002
 20
32.44325000000001
 40
0.7500000000000284
100
AcDbArc
 50
90
 51
180
  0
ARC
  5
2EA
100
AcDbEntity
  8
0
  6
ByLayer
 62
  256
370
   -1
100
AcDbCircle
 10
3.868749999999963
 20
13.39325000000001
 40
0.7499999999999574
100
AcDbArc
 50
0
 51
90
  0
LINE
  5
2EB
100
AcDbEntity
  8
0
  6
ByLayer
 62
  256
370
   -1
100
AcDbLine
 10
-8.631250000000037
 20
14.14324999999996
 11
3.868749999999963
 21
14.14325000000004
  0
ARC
  5
2EC
100
AcDbEntity
  8
0
  6
ByLayer
 62
  256
370
   -1
100
AcDbCircle
 10
-8.631250000000037
 20
13.39325000000001
 40
0.7499999999999574
100
AcDbArc
 50
90
 51
180
  0
LINE
  5
2ED
100
AcDbEntity
  8
0
  6
ByLayer
 62
  256
370
   -1
100
AcDbLine
 10
-9.381250000000136
 20
0.8932500000000232
 11
-9.381249999999994
 21
13.39325000000001
  0
ARC
  5
2EE
100
AcDbEntity
  8
0
  6
ByLayer
 62
  256
370
   -1
100
AcDbCircle
 10
-8.631250000000037
 20
0.8932500000000232
 40
0.7500000000000995
100
AcDbArc
 50
180
 51
270
  0
LINE
  5
2EF
100
AcDbEntity
  8
0
  6
ByLayer
 62
  256
370
   -1
100
AcDbLine
 10
3.868749999999963
 20
0.1432499999999948
 11
-8.631250000000037
 21
0.143249999999977
  0
ARC
  5
2F0
100
AcDbEntity
  8
0
  6
ByLayer
 62
  256
370
   -1
100
AcDbCircle
 10
3.868749999999963
 20
0.8932500000000232
 40
0.7500000000000284
100
AcDbArc
 50
-90
 51
0
  0
LINE
  5
2F1
100
AcDbEntity
  8
0
  6
ByLayer
 62
  256
370
   -1
100
AcDbLine
 10
4.61874999999992
 20
13.39325000000001
 11
4.618749999999956
 21
0.8932500000000232
  0
ARC
  5
2F2
100
AcDbEntity
  8
0
  6
ByLayer
 62
  256
370
   -1
100
AcDbCircle
 10
86.28125
 20
13.39325000000001
 40
0.7500000000000284
100
AcDbArc
 50
0
 51
90
  0
LINE
  5
2F3
100
AcDbEntity
  8
0
  6
ByLayer
 62
  256
370
   -1
100
AcDbLine
 10
85.78125
 20
14.14325
 11
86.28125
 21
14.14325000000004
  0
ARC
  5
2F4
100
AcDbEntity
  8
0
  6
ByLayer
 62
  256
370
   -1
100
AcDbCircle
 10
85.78125
 20
13.39325000000001
 40
0.7499999999999929
100
AcDbArc
 50
90
 51
180
  0
LINE
  5
2F5
100
AcDbEntity
  8
0
  6
ByLayer
 62
  256
370
   -1
100
AcDbLine
 10
85.03124999999983
 20
0.8932500000000232
 11
85.03125
 21
13.39325000000001
  0
ARC
  5
2F6
100
AcDbEntity
  8
0
  6
ByLayer
 62
  256
370
   -1
100
AcDbCircle
 10
85.78125
 20
0.8932500000000232
 40
0.7500000000001705
100
AcDbArc
 50
180
 51
270
  0
LINE
  5
2F7
100
AcDbEntity
  8
0
  6
ByLayer
 62
  256
370
   -1
100
AcDbLine
 10
86.28125
 20
0.1432499999999592
 11
85.78125
 21
0.1432499999998793
  0
ARC
  5
2F8
100
AcDbEntity
  8
0
  6
ByLayer
 62
  256
370
   -1
100
AcDbCircle
 10
86.28125
 20
0.8932500000000232
 40
0.7500000000000639
100
AcDbArc
 50
-90
 51
0
  0
LINE
  5
2F9
100
AcDbEntity
  8
0
  6
ByLayer
 62
  256
370
   -1
100
AcDbLine
 10
87.03125000000003
 20
13.39325000000001
 11
87.03125
 21
0.8932500000000232
  0
ARC
  5
2FA
100
AcDbEntity
  8
0
  6
ByLayer
 62
  256
370
   -1
100
AcDbCircle
 10
-34.23125000000002
 20
13.39325000000001
 40
0.7499999999999929
100
AcDbArc
 50
0
 51
90
  0
LINE
  5
2FB
100
AcDbEntity
  8
0
  6
ByLayer
 62
  256
370
   -1
100
AcDbLine
 10
-46.73125000000002
 20
14.14324999999996
 11
-34.23125000000002
 21
14.14325000000004
  0
ARC
  5
2FC
100
AcDbEntity
  8
0
  6
ByLayer
 62
  256
370
   -1
100
AcDbCircle
 10
-46.73125000000002
 20
13.39325000000001
 40
0.7499999999999574
100
AcDbArc
 50
90
 51
180
  0
LINE
  5
2FD
100
AcDbEntity
  8
0
  6
ByLayer
 62
  256
370
   -1
100
AcDbLine
 10
-47.48124999999998
 20
0.8932500000000232
 11
-47.48124999999998
 21
13.39325000000001
  0
ARC
  5
2FE
100
AcDbEntity
  8
0
  6
ByLayer
 62
  256
370
   -1
100
AcDbCircle
 10
-46.73125000000002
 20
0.8932500000000232
 40
0.7499999999999574
100
AcDbArc
 50
180
 51
270
  0
LINE
  5
2FF
100
AcDbEntity
  8
0
  6
ByLayer
 62
  256
370
   -1
100
AcDbLine
 10
-34.23125000000002
 20
0.1432499999999948
 11
-46.73125000000002
 21
0.143249999999977
  0
ARC
  5
300
100
AcDbEntity
  8
0
  6
ByLayer
 62
  256
370
   -1
100
AcDbCircle
 10
-34.23125000000002
 20
0.8932500000000232
 40
0.7500000000000284
100
AcDbArc
 50
-90
 51
0
  0
LINE
  5
301
100
AcDbEntity
  8
0
  6
ByLayer
 62
  256
370
   -1
100
AcDbLine
 10
-33.48125000000003
 20
13.39325000000001
 11
-33.48125000000003
 21
0.8932500000000232
  0
LINE
  5
302
100
AcDbEntity
  8
0
  6
ByLayer
 62
  256
370
   -1
100
AcDbLine
 10
-52.53125000000006
 20
13.39325000000001
 11
-52.53125000000001
 21
0.8932500000000232
  0
ARC
  5
303
100
AcDbEntity
  8
0
  6
ByLayer
 62
  256
370
   -1
100
AcDbCircle
 10
-53.28125000000001
 20
0.8932500000000232
 40
0.7500000000000284
100
AcDbArc
 50
-90
 51
0
  0
LINE
  5
304
100
AcDbEntity
  8
0
  6
ByLayer
 62
  256
370
   -1
100
AcDbLine
 10
-53.28125000000001
 20
0.1432499999999948
 11
-65.78125000000003
 21
0.143249999999977
  0
ARC
  5
305
100
AcDbEntity
  8
0
  6
ByLayer
 62
  256
370
   -1
100
AcDbCircle
 10
-65.78125000000003
 20
0.8932500000000232
 40
0.7500000000000639
100
AcDbArc
 50
180
 51
270
  0
LINE
  5
306
100
AcDbEntity
  8
0
  6
ByLayer
 62
  256
370
   -1
100
AcDbLine
 10
-66.5312500000001
 20
0.8932500000000232
 11
-66.53125
 21
13.39325000000001
  0
ARC
  5
307
100
AcDbEntity
  8
0
  6
ByLayer
 62
  256
370
   -1
100
AcDbCircle
 10
-65.78125000000003
 20
13.39325000000001
 40
0.7499999999999574
100
AcDbArc
 50
90
 51
180
  0
LINE
  5
308
100
AcDbEntity
  8
0
  6
ByLayer
 62
  256
370
   -1
100
AcDbLine
 10
-65.78125000000003
 20
14.14324999999996
 11
-53.28125000000001
 21
14.14324999999995
  0
ARC
  5
309
100
AcDbEntity
  8
0
  6
ByLayer
 62
  256
370
   -1
100
AcDbCircle
 10
-53.28125000000001
 20
13.39325000000001
 40
0.7499999999999574
100
AcDbArc
 50
0
 51
90
  0
LINE
  5
30A
100
AcDbEntity
  8
0
  6
ByLayer
 62
  256
370
   -1
100
AcDbLine
 10
23.66875
 20
13.39325000000001
 11
23.66874999999997
 21
0.8932500000000232
  0
ARC
  5
30B
100
AcDbEntity
  8
0
  6
ByLayer
 62
  256
370
   -1
100
AcDbCircle
 10
22.91874999999997
 20
0.8932500000000232
 40
0.7500000000000284
100
AcDbArc
 50
-90
 51
0
  0
LINE
  5
30C
100
AcDbEntity
  8
0
  6
ByLayer
 62
  256
370
   -1
100
AcDbLine
 10
22.91874999999997
 20
0.1432499999999948
 11
10.41874999999997
 21
0.143249999999977
  0
ARC
  5
30D
100
AcDbEntity
  8
0
  6
ByLayer
 62
  256
370
   -1
100
AcDbCircle
 10
10.41874999999997
 20
0.8932500000000232
 40
0.7499999999999574
100
AcDbArc
 50
180
 51
270
  0
LINE
  5
30E
100
AcDbEntity
  8
0
  6
ByLayer
 62
  256
370
   -1
100
AcDbLine
 10
9.668750000000017
 20
0.8932500000000232
 11
9.668749999999982
 21
13.39325000000001
  0
ARC
  5
30F
100
AcDbEntity
  8
0
  6
ByLayer
 62
  256
370
   -1
100
AcDbCircle
 10
10.41874999999997
 20
13.39325000000001
 40
0.7499999999999929
100
AcDbArc
 50
90
 51
180
  0
LINE
  5
310
100
AcDbEntity
  8
0
  6
ByLayer
 62
  256
370
   -1
100
AcDbLine
 10
10.41874999999997
 20
14.14325
 11
22.91874999999997
 21
14.14325000000004
  0
ARC
  5
311
100
AcDbEntity
  8
0
  6
ByLayer
 62
  256
370
   -1
100
AcDbCircle
 10
22.91874999999997
 20
13.39325000000001
 40
0.7500000000000284
100
AcDbArc
 50
0
 51
90
  0
LINE
  5
312
100
AcDbEntity
  8
0
  6
ByLayer
 62
  256
370
   -1
100
AcDbLine
 10
-86.61874999999992
 20
-18.90675000000001
 11
-99.11874999999993
 21
-18.90674999999992
  0
ARC
  5
313
100
AcDbEntity
  8
0
  6
ByLayer
 62
  256
370
   -1
100
AcDbCircle
 10
-99.11874999999993
 20
-18.15674999999998
 40
0.7499999999999929
100
AcDbArc
 50
180
 51
270
  0
LINE
  5
314
100
AcDbEntity
  8
0
  6
ByLayer
 62
  256
370
   -1
100
AcDbLine
 10
-99.86874999999992
 20
-18.15674999999998
 11
-99.86874999999985
 21
-5.656750000000015
  0
ARC
  5
315
100
AcDbEntity
  8
0
  6
ByLayer
 62
  256
370
   -1
100
AcDbCircle
 10
-99.11874999999993
 20
-5.656750000000015
 40
0.7499999999999218
100
AcDbArc
 50
90
 51
180
  0
LINE
  5
316
100
AcDbEntity
  8
0
  6
ByLayer
 62
  256
370
   -1
100
AcDbLine
 10
-99.11874999999993
 20
-4.906750000000093
 11
-86.61875000000002
 21
-4.906750000000049
  0
ARC
  5
317
100
AcDbEntity
  8
0
  6
ByLayer
 62
  256
370
   -1
100
AcDbCircle
 10
-86.61875000000002
 20
-5.656750000000015
 40
0.7499999999999929
100
AcDbArc
 50
0
 51
90
  0
LINE
  5
318
100
AcDbEntity
  8
0
  6
ByLayer
 62
  256
370
   -1
100
AcDbLine
 10
-85.86875000000003
 20
-5.656750000000015
 11
-85.86874999999992
 21
-18.15674999999998
  0
ARC
  5
319
100
AcDbEntity
  8
0
  6
ByLayer
 62
  256
370
   -1
100
AcDbCircle
 10
-86.61875000000002
 20
-18.15674999999998
 40
0.7500000000000284
100
AcDbArc
 50
-89.99999999999243
 51
0
  0
ARC
  5
31A
100
AcDbEntity
  8
0
  6
ByLayer
 62
  256
370
   -1
100
AcDbCircle
 10
48.51874999999996
 20
13.39325000000001
 40
0.7499999999999929
100
AcDbArc
 50
90
 51
180
  0
LINE
  5
31B
100
AcDbEntity
  8
0
  6
ByLayer
 62
  256
370
   -1
100
AcDbLine
 10
47.76875
 20
0.8932500000000232
 11
47.76874999999997
 21
13.39325000000001
  0
ARC
  5
31C
100
AcDbEntity
  8
0
  6
ByLayer
 62
  256
370
   -1
100
AcDbCircle
 10
48.51874999999996
 20
0.8932500000000232
 40
0.7499999999999574
100
AcDbArc
 50
180
 51
270
  0
LINE
  5
31D
100
AcDbEntity
  8
0
  6
ByLayer
 62
  256
370
   -1
100
AcDbLine
 10
61.01874999999996
 20
0.1432499999999592
 11
48.51874999999996
 21
0.1432500000000836
  0
ARC
  5
31E
100
AcDbEntity
  8
0
  6
ByLayer
 62
  256
370
   -1
100
AcDbCircle
 10
61.01874999999996
 20
0.8932500000000232
 40
0.7500000000000639
100
AcDbArc
 50
-90
 51
0
  0
LINE
  5
31F
100
AcDbEntity
  8
0
  6
ByLayer
 62
  256
370
   -1
100
AcDbLine
 10
61.76875000000013
 20
13.39325000000001
 11
61.76874999999999
 21
0.8932500000000232
  0
ARC
  5
320
100
AcDbEntity
  8
0
  6
ByLayer
 62
  256
370
   -1
100
AcDbCircle
 10
61.01874999999996
 20
13.39325000000001
 40
0.7500000000001705
100
AcDbArc
 50
0
 51
90
  0
LINE
  5
321
100
AcDbEntity
  8
0
  6
ByLayer
 62
  256
370
   -1
100
AcDbLine
 10
48.51874999999996
 20
14.14325
 11
61.01874999999996
 21
14.14325000000025
  0
LINE
  5
322
100
AcDbEntity
  8
0
  6
ByLayer
 62
  256
370
   -1
100
AcDbLine
 10
-14.43124999999998
 20
56.25574999999997
 11
-14.43125000000002
 21
43.75575000000001
  0
ARC
  5
323
100
AcDbEntity
  8
0
  6
ByLayer
 62
  256
370
   -1
100
AcDbCircle
 10
-15.18125000000001
 20
43.75575000000001
 40
0.7499999999999929
100
AcDbArc
 50
-90
 51
0
  0
LINE
  5
324
100
AcDbEntity
  8
0
  6
ByLayer
 62
  256
370
   -1
100
AcDbLine
 10
-15.18125000000001
 20
43.00575000000002
 11
-27.68125000000001
 21
43.00575000000005
  0
ARC
  5
325
100
AcDbEntity
  8
0
  6
ByLayer
 62
  256
370
   -1
100
AcDbCircle
 10
-27.68125000000001
 20
43.75575000000001
 40
0.7499999999999574
100
AcDbArc
 50
180
 51
270
  0
LINE
  5
326
100
AcDbEntity
  8
0
  6
ByLayer
 62
  256
370
   -1
100
AcDbLine
 10
-28.43124999999997
 20
43.75575000000001
 11
-28.43125000000001
 21
56.25574999999997
  0
ARC
  5
327
100
AcDbEntity
  8
0
  6
ByLayer
 62
  256
370
   -1
100
AcDbCircle
 10
-27.68125000000001
 20
56.25574999999997
 40
0.7499999999999929
100
AcDbArc
 50
90
 51
180
  0
LINE
  5
328
100
AcDbEntity
  8
0
  6
ByLayer
 62
  256
370
   -1
100
AcDbLine
 10
-27.68125000000001
 20
57.00574999999996
 11
-15.18125000000001
 21
57.00575000000002
  0
ARC
  5
329
100
AcDbEntity
  8
0
  6
ByLayer
 62
  256
370
   -1
100
AcDbCircle
 10
-15.18125000000001
 20
56.25574999999997
 40
0.7500000000000284
100
AcDbArc
 50
0
 51
90
  0
ARC
  5
32A
100
AcDbEntity
  8
0
  6
ByLayer
 62
  256
370
   -1
100
AcDbCircle
 10
-3.868750000000034
 20
-5.656750000000015
 40
0.7499999999999574
100
AcDbArc
 50
90
 51
180
  0
LINE
  5
32B
100
AcDbEntity
  8
0
  6
ByLayer
 62
  256
370
   -1
100
AcDbLine
 10
-4.618750000000063
 20
-18.15674999999998
 11
-4.618749999999991
 21
-5.656750000000015
  0
ARC
  5
32C
100
AcDbEntity
  8
0
  6
ByLayer
 62
  256
370
   -1
100
AcDbCircle
 10
-3.868750000000034
 20
-18.15674999999998
 40
0.7500000000000284
100
AcDbArc
 50
180
 51
270
  0
LINE
  5
32D
100
AcDbEntity
  8
0
  6
ByLayer
 62
  256
370
   -1
100
AcDbLine
 10
8.631250000000001
 20
-18.90674999999994
 11
-3.868750000000034
 21
-18.90674999999992
  0
ARC
  5
32E
100
AcDbEntity
  8
0
  6
ByLayer
 62
  256
370
   -1
100
AcDbCircle
 10
8.631250000000001
 20
-18.15674999999998
 40
0.7499999999999574
100
AcDbArc
 50
-90
 51
0
  0
LINE
  5
32F
100
AcDbEntity
  8
0
  6
ByLayer
 62
  256
370
   -1
100
AcDbLine
 10
9.381249999999959
 20
-5.656750000000015
 11
9.381249999999994
 21
-18.15674999999998
  0
ARC
  5
330
100
AcDbEntity
  8
0
  6
ByLayer
 62
  256
370
   -1
100
AcDbCircle
 10
8.631250000000001
 20
-5.656750000000015
 40
0.7499999999999574
100
AcDbArc
 50
0
 51
90
  0
LINE
  5
331
100
AcDbEntity
  8
0
  6
ByLayer
 62
  256
370
   -1
100
AcDbLine
 10
-3.868750000000034
 20
-4.906750000000057
 11
8.631250000000001
 21
-4.90674999999996
  0
ARC
  5
332
100
AcDbEntity
  8
0
  6
ByLayer
 62
  256
370
   -1
100
AcDbCircle
 10
-5.656250000000007
 20
32.44325000000001
 40
0.7499999999999574
100
AcDbArc
 50
0
 51
90
  0
LINE
  5
333
100
AcDbEntity
  8
0
  6
ByLayer
 62
  256
370
   -1
100
AcDbLine
 10
-18.15625000000001
 20
33.19325000000003
 11
-5.656250000000007
 21
33.19324999999996
  0
ARC
  5
334
100
AcDbEntity
  8
0
  6
ByLayer
 62
  256
370
   -1
100
AcDbCircle
 10
-18.15625000000001
 20
32.44325000000001
 40
0.7500000000000284
100
AcDbArc
 50
90
 51
180
  0
LINE
  5
335
100
AcDbEntity
  8
0
  6
ByLayer
 62
  256
370
   -1
100
AcDbLine
 10
-18.90624999999996
 20
19.94324999999996
 11
-18.90625000000004
 21
32.44325000000001
  0
ARC
  5
336
100
AcDbEntity
  8
0
  6
ByLayer
 62
  256
370
   -1
100
AcDbCircle
 10
-18.15625000000001
 20
19.94324999999996
 40
0.7499999999999574
100
AcDbArc
 50
180
 51
270
  0
LINE
  5
337
100
AcDbEntity
  8
0
  6
ByLayer
 62
  256
370
   -1
100
AcDbLine
 10
-5.656250000000007
 20
19.19324999999996
 11
-18.15625000000001
 21
19.19324999999998
  0
ARC
  5
338
100
AcDbEntity
  8
0
  6
ByLayer
 62
  256
370
   -1
100
AcDbCircle
 10
-5.656250000000007
 20
19.94324999999996
 40
0.7499999999999929
100
AcDbArc
 50
-90
 51
0
  0
LINE
  5
339
100
AcDbEntity
  8
0
  6
ByLayer
 62
  256
370
   -1
100
AcDbLine
 10
-4.90625000000005
 20
32.44325000000001
 11
-4.906250000000014
 21
19.94324999999996
  0
ARC
  5
33A
100
AcDbEntity
  8
0
  6
ByLayer
 62
  256
370
   -1
100
AcDbCircle
 10
-81.85625000000003
 20
32.44325000000001
 40
0.7499999999999929
100
AcDbArc
 50
0
 51
90
  0
LINE
  5
33B
100
AcDbEntity
  8
0
  6
ByLayer
 62
  256
370
   -1
100
AcDbLine
 10
-94.35624999999993
 20
33.19325000000003
 11
-81.85625000000003
 21
33.19324999999996
  0
ARC
  5
33C
100
AcDbEntity
  8
0
  6
ByLayer
 62
  256
370
   -1
100
AcDbCircle
 10
-94.35624999999993
 20
32.44325000000001
 40
0.7500000000000284
100
AcDbArc
 50
90
 51
180
  0
LINE
  5
33D
100
AcDbEntity
  8
0
  6
ByLayer
 62
  256
370
   -1
100
AcDbLine
 10
-95.10624999999996
 20
19.94324999999996
 11
-95.10624999999996
 21
32.44325000000001
  0
ARC
  5
33E
100
AcDbEntity
  8
0
  6
ByLayer
 62
  256
370
   -1
100
AcDbCircle
 10
-94.35624999999993
 20
19.94324999999996
 40
0.7500000000000284
100
AcDbArc
 50
180
 51
270
  0
LINE
  5
33F
100
AcDbEntity
  8
0
  6
ByLayer
 62
  256
370
   -1
100
AcDbLine
 10
-81.85625000000003
 20
19.19325
 11
-94.35624999999993
 21
19.19324999999998
  0
ARC
  5
340
100
AcDbEntity
  8
0
  6
ByLayer
 62
  256
370
   -1
100
AcDbCircle
 10
-81.85625000000003
 20
19.94324999999996
 40
0.7499999999999574
100
AcDbArc
 50
-90
 51
0
  0
LINE
  5
341
100
AcDbEntity
  8
0
  6
ByLayer
 62
  256
370
   -1
100
AcDbLine
 10
-81.10625000000005
 20
32.44325000000001
 11
-81.10625000000002
 21
19.94324999999996
  0
LINE
  5
342
100
AcDbEntity
  8
0
  6
ByLayer
 62
  256
370
   -1
100
AcDbLine
 10
-57.00625000000002
 20
19.94324999999996
 11
-57.00625000000002
 21
32.44325000000001
  0
ARC
  5
343
100
AcDbEntity
  8
0
  6
ByLayer
 62
  256
370
   -1
100
AcDbCircle
 10
-56.25625000000003
 20
32.44325000000001
 40
0.7500000000000284
100
AcDbArc
 50
90
 51
180
  0
LINE
  5
344
100
AcDbEntity
  8
0
  6
ByLayer
 62
  256
370
   -1
100
AcDbLine
 10
-56.25625000000003
 20
33.19325000000003
 11
-43.75625000000003
 21
33.19324999999996
  0
ARC
  5
345
100
AcDbEntity
  8
0
  6
ByLayer
 62
  256
370
   -1
100
AcDbCircle
 10
-43.75625000000003
 20
32.44325000000001
 40
0.7499999999999574
100
AcDbArc
 50
0
 51
90
  0
LINE
  5
346
100
AcDbEntity
  8
0
  6
ByLayer
 62
  256
370
   -1
100
AcDbLine
 10
-43.00625000000007
 20
32.44325000000001
 11
-43.00625000000004
 21
19.94324999999996
  0
ARC
  5
347
100
AcDbEntity
  8
0
  6
ByLayer
 62
  256
370
   -1
100
AcDbCircle
 10
-43.75625000000003
 20
19.94324999999996
 40
0.7499999999999574
100
AcDbArc
 50
-90
 51
0
  0
LINE
  5
348
100
AcDbEntity
  8
0
  6
ByLayer
 62
  256
370
   -1
100
AcDbLine
 10
-43.75625000000003
 20
19.19325
 11
-56.25625000000003
 21
19.19324999999998
  0
ARC
  5
349
100
AcDbEntity
  8
0
  6
ByLayer
 62
  256
370
   -1
100
AcDbCircle
 10
-56.25625000000003
 20
19.94324999999996
 40
0.7499999999999929
100
AcDbArc
 50
180
 51
270
  0
ARC
  5
34A
100
AcDbEntity
  8
0
  6
ByLayer
 62
  256
370
   -1
100
AcDbCircle
 10
-147.6937499999999
 20
0.8932500000000232
 40
0.7500000000000284
100
AcDbArc
 50
-90
 51
0
  0
LINE
  5
34B
100
AcDbEntity
  8
0
  6
ByLayer
 62
  256
370
   -1
100
AcDbLine
 10
-146.94375
 20
13.39325000000001
 11
-146.94375
 21
0.8932500000000232
  0
ARC
  5
34C
100
AcDbEntity
  8
0
  6
ByLayer
 62
  256
370
   -1
100
AcDbCircle
 10
-147.6937499999999
 20
13.39325000000001
 40
0.7499999999999574
100
AcDbArc
 50
0
 51
90
  0
LINE
  5
34D
100
AcDbEntity
  8
0
  6
ByLayer
 62
  256
370
   -1
100
AcDbLine
 10
-148.1937499999999
 20
14.14324999999996
 11
-147.6937499999999
 21
14.14324999999996
  0
ARC
  5
34E
100
AcDbEntity
  8
0
  6
ByLayer
 62
  256
370
   -1
100
AcDbCircle
 10
-148.1937499999999
 20
13.39325000000001
 40
0.7499999999999574
100
AcDbArc
 50
90
 51
180
  0
LINE
  5
34F
100
AcDbEntity
  8
0
  6
ByLayer
 62
  256
370
   -1
100
AcDbLine
 10
-148.94375
 20
0.8932500000000232
 11
-148.9437499999999
 21
13.39325000000001
  0
ARC
  5
350
100
AcDbEntity
  8
0
  6
ByLayer
 62
  256
370
   -1
100
AcDbCircle
 10
-148.1937499999999
 20
0.8932500000000232
 40
0.7500000000000284
100
AcDbArc
 50
180
 51
270
  0
LINE
  5
351
100
AcDbEntity
  8
0
  6
ByLayer
 62
  256
370
   -1
100
AcDbLine
 10
-147.6937499999999
 20
0.1432499999999948
 11
-148.1937499999999
 21
0.143249999999977
  0
ARC
  5
352
100
AcDbEntity
  8
0
  6
ByLayer
 62
  256
370
   -1
100
AcDbCircle
 10
139.0062499999999
 20
43.75575000000001
 40
0.7499999999999574
100
AcDbArc
 50
180
 51
270
  0
LINE
  5
353
100
AcDbEntity
  8
0
  6
ByLayer
 62
  256
370
   -1
100
AcDbLine
 10
151.5062499999999
 20
43.00575000000001
 11
139.0062499999999
 21
43.00575000000005
  0
ARC
  5
354
100
AcDbEntity
  8
0
  6
ByLayer
 62
  256
370
   -1
100
AcDbCircle
 10
151.5062499999999
 20
43.75575000000001
 40
0.7499999999999929
100
AcDbArc
 50
-90
 51
0
  0
LINE
  5
355
100
AcDbEntity
  8
0
  6
ByLayer
 62
  256
370
   -1
100
AcDbLine
 10
152.2562500000001
 20
56.25575000000006
 11
152.25625
 21
43.75575000000001
  0
ARC
  5
356
100
AcDbEntity
  8
0
  6
ByLayer
 62
  256
370
   -1
100
AcDbCircle
 10
151.5062499999999
 20
56.25575000000006
 40
0.7500000000001705
100
AcDbArc
 50
0
 51
90
  0
LINE
  5
357
100
AcDbEntity
  8
0
  6
ByLayer
 62
  256
370
   -1
100
AcDbLine
 10
139.0062499999999
 20
57.00575
 11
151.5062499999999
 21
57.00575000000023
  0
ARC
  5
358
100
AcDbEntity
  8
0
  6
ByLayer
 62
  256
370
   -1
100
AcDbCircle
 10
139.0062499999999
 20
56.25574999999997
 40
0.7500000000000284
100
AcDbArc
 50
90
 51
180
  0
LINE
  5
359
100
AcDbEntity
  8
0
  6
ByLayer
 62
  256
370
   -1
100
AcDbLine
 10
138.25625
 20
43.75575000000001
 11
138.2562499999999
 21
56.25575000000006
  0
LINE
  5
35A
100
AcDbEntity
  8
0
  6
ByLayer
 62
  256
370
   -1
100
AcDbLine
 10
-146.5625
 20
-18.15674999999998
 11
-146.5625
 21
-5.656750000000015
  0
ARC
  5
35B
100
AcDbEntity
  8
0
  6
ByLayer
 62
  256
370
   -1
100
AcDbCircle
 10
-145.8125000000001
 20
-5.656750000000015
 40
0.7499999999999574
100
AcDbArc
 50
90
 51
180
  0
LINE
  5
35C
100
AcDbEntity
  8
0
  6
ByLayer
 62
  256
370
   -1
100
AcDbLine
 10
-145.8125000000001
 20
-4.906750000000057
 11
-145.3125
 21
-4.906750000000049
  0
ARC
  5
35D
100
AcDbEntity
  8
0
  6
ByLayer
 62
  256
370
   -1
100
AcDbCircle
 10
-145.3125
 20
-5.656750000000015
 40
0.7500000000000284
100
AcDbArc
 50
0
 51
90
  0
LINE
  5
35E
100
AcDbEntity
  8
0
  6
ByLayer
 62
  256
370
   -1
100
AcDbLine
 10
-144.5625
 20
-5.656750000000015
 11
-144.5624999999999
 21
-18.15674999999998
  0
ARC
  5
35F
100
AcDbEntity
  8
0
  6
ByLayer
 62
  256
370
   -1
100
AcDbCircle
 10
-145.3125
 20
-18.15674999999998
 40
0.7500000000000284
100
AcDbArc
 50
-90
 51
0
  0
LINE
  5
360
100
AcDbEntity
  8
0
  6
ByLayer
 62
  256
370
   -1
100
AcDbLine
 10
-145.3125
 20
-18.90675000000001
 11
-145.8125000000001
 21
-18.90674999999992
  0
ARC
  5
361
100
AcDbEntity
  8
0
  6
ByLayer
 62
  256
370
   -1
100
AcDbCircle
 10
-145.8125000000001
 20
-18.15674999999998
 40
0.7499999999999574
100
AcDbArc
 50
180
 51
270
  0
ARC
  5
362
100
AcDbEntity
  8
0
  6
ByLayer
 62
  256
370
   -1
100
AcDbCircle
 10
132.45625
 20
32.44325000000001
 40
0.7500000000000284
100
AcDbArc
 50
0
 51
90
  0
LINE
  5
363
100
AcDbEntity
  8
0
  6
ByLayer
 62
  256
370
   -1
100
AcDbLine
 10
119.95625
 20
33.19325000000003
 11
132.45625
 21
33.19324999999996
  0
ARC
  5
364
100
AcDbEntity
  8
0
  6
ByLayer
 62
  256
370
   -1
100
AcDbCircle
 10
119.95625
 20
32.44325000000001
 40
0.7500000000000284
100
AcDbArc
 50
90
 51
180
  0
LINE
  5
365
100
AcDbEntity
  8
0
  6
ByLayer
 62
  256
370
   -1
100
AcDbLine
 10
119.20625
 20
19.94325000000005
 11
119.20625
 21
32.44325000000001
  0
ARC
  5
366
100
AcDbEntity
  8
0
  6
ByLayer
 62
  256
370
   -1
100
AcDbCircle
 10
119.95625
 20
19.94325000000005
 40
0.7499999999999574
100
AcDbArc
 50
180
 51
270
  0
LINE
  5
367
100
AcDbEntity
  8
0
  6
ByLayer
 62
  256
370
   -1
100
AcDbLine
 10
132.45625
 20
19.19325000000002
 11
119.95625
 21
19.19325000000008
  0
ARC
  5
368
100
AcDbEntity
  8
0
  6
ByLayer
 62
  256
370
   -1
100
AcDbCircle
 10
132.45625
 20
19.94325000000005
 40
0.7500000000000284
100
AcDbArc
 50
-90
 51
0
  0
LINE
  5
369
100
AcDbEntity
  8
0
  6
ByLayer
 62
  256
370
   -1
100
AcDbLine
 10
133.20625
 20
32.44325000000001
 11
133.20625
 21
19.94325000000005
  0
LINE
  5
36A
100
AcDbEntity
  8
0
  6
ByLayer
 62
  256
370
   -1
100
AcDbLine
 10
-148.94375
 20
-56.2567499999999
 11
-148.9437499999999
 21
-43.75675000000022
  0
ARC
  5
36B
100
AcDbEntity
  8
0
  6
ByLayer
 62
  256
370
   -1
100
AcDbCircle
 10
-148.1937499999999
 20
-43.75675000000022
 40
0.7499999999999574
100
AcDbArc
 50
90
 51
180
  0
LINE
  5
36C
100
AcDbEntity
  8
0
  6
ByLayer
 62
  256
370
   -1
100
AcDbLine
 10
-148.1937499999999
 20
-43.00675000000027
 11
-147.6937499999999
 21
-43.0067499999997
  0
ARC
  5
36D
100
AcDbEntity
  8
0
  6
ByLayer
 62
  256
370
   -1
100
AcDbCircle
 10
-147.6937499999999
 20
-43.75675000000022
 40
0.7499999999999574
100
AcDbArc
 50
0
 51
90
  0
LINE
  5
36E
100
AcDbEntity
  8
0
  6
ByLayer
 62
  256
370
   -1
100
AcDbLine
 10
-146.94375
 20
-43.75675000000022
 11
-146.9437499999998
 21
-56.2567499999999
  0
ARC
  5
36F
100
AcDbEntity
  8
0
  6
ByLayer
 62
  256
370
   -1
100
AcDbCircle
 10
-147.6937499999999
 20
-56.2567499999999
 40
0.7500000000000995
100
AcDbArc
 50
-90
 51
0
  0
LINE
  5
370
100
AcDbEntity
  8
0
  6
ByLayer
 62
  256
370
   -1
100
AcDbLine
 10
-147.6937499999999
 20
-57.00675
 11
-148.1937499999999
 21
-57.00675000000043
  0
ARC
  5
371
100
AcDbEntity
  8
0
  6
ByLayer
 62
  256
370
   -1
100
AcDbCircle
 10
-148.1937499999999
 20
-56.2567499999999
 40
0.7500000000000284
100
AcDbArc
 50
180
 51
270
  0
ARC
  5
372
100
AcDbEntity
  8
0
  6
ByLayer
 62
  256
370
   -1
100
AcDbCircle
 10
-34.23125000000002
 20
56.25574999999997
 40
0.7499999999999929
100
AcDbArc
 50
0
 51
90
  0
LINE
  5
373
100
AcDbEntity
  8
0
  6
ByLayer
 62
  256
370
   -1
100
AcDbLine
 10
-46.73125000000002
 20
57.00574999999996
 11
-34.23125000000002
 21
57.00575000000002
  0
ARC
  5
374
100
AcDbEntity
  8
0
  6
ByLayer
 62
  256
370
   -1
100
AcDbCircle
 10
-46.73125000000002
 20
56.25574999999997
 40
0.7499999999999929
100
AcDbArc
 50
90
 51
180
  0
LINE
  5
375
100
AcDbEntity
  8
0
  6
ByLayer
 62
  256
370
   -1
100
AcDbLine
 10
-47.48124999999998
 20
43.75575000000001
 11
-47.48125000000002
 21
56.25574999999997
  0
ARC
  5
376
100
AcDbEntity
  8
0
  6
ByLayer
 62
  256
370
   -1
100
AcDbCircle
 10
-46.73125000000002
 20
43.75575000000001
 40
0.7499999999999574
100
AcDbArc
 50
180
 51
270
  0
LINE
  5
377
100
AcDbEntity
  8
0
  6
ByLayer
 62
  256
370
   -1
100
AcDbLine
 10
-34.23125000000002
 20
43.00575000000002
 11
-46.73125000000002
 21
43.00575000000005
  0
ARC
  5
378
100
AcDbEntity
  8
0
  6
ByLayer
 62
  256
370
   -1
100
AcDbCircle
 10
-34.23125000000002
 20
43.75575000000001
 40
0.7499999999999929
100
AcDbArc
 50
-90
 51
0
  0
LINE
  5
379
100
AcDbEntity
  8
0
  6
ByLayer
 62
  256
370
   -1
100
AcDbLine
 10
-33.48125000000003
 20
56.25574999999997
 11
-33.48125000000003
 21
43.75575000000001
  0
LINE
  5
37A
100
AcDbEntity
  8
0
  6
ByLayer
 62
  256
370
   -1
100
AcDbLine
 10
33.19375000000015
 20
32.44325000000001
 11
33.19374999999997
 21
19.94325000000005
  0
ARC
  5
37B
100
AcDbEntity
  8
0
  6
ByLayer
 62
  256
370
   -1
100
AcDbCircle
 10
32.44374999999998
 20
19.94324999999996
 40
0.7499999999999929
100
AcDbArc
 50
-90
 51
0
  0
LINE
  5
37C
100
AcDbEntity
  8
0
  6
ByLayer
 62
  256
370
   -1
100
AcDbLine
 10
32.44374999999998
 20
19.19324999999996
 11
19.94374999999998
 21
19.19324999999998
  0
ARC
  5
37D
100
AcDbEntity
  8
0
  6
ByLayer
 62
  256
370
   -1
100
AcDbCircle
 10
19.94374999999998
 20
19.94324999999996
 40
0.7500000000000284
100
AcDbArc
 50
180
 51
270
  0
LINE
  5
37E
100
AcDbEntity
  8
0
  6
ByLayer
 62
  256
370
   -1
100
AcDbLine
 10
19.19374999999995
 20
19.94324999999996
 11
19.19374999999999
 21
32.44325000000001
  0
ARC
  5
37F
100
AcDbEntity
  8
0
  6
ByLayer
 62
  256
370
   -1
100
AcDbCircle
 10
19.94374999999998
 20
32.44325000000001
 40
0.7499999999999929
100
AcDbArc
 50
90
 51
180
  0
LINE
  5
380
100
AcDbEntity
  8
0
  6
ByLayer
 62
  256
370
   -1
100
AcDbLine
 10
19.94374999999998
 20
33.19325
 11
32.44374999999998
 21
33.19325000000017
  0
ARC
  5
381
100
AcDbEntity
  8
0
  6
ByLayer
 62
  256
370
   -1
100
AcDbCircle
 10
32.44374999999998
 20
32.44325000000001
 40
0.7500000000001705
100
AcDbArc
 50
0
 51
90
  0
LINE
  5
382
100
AcDbEntity
  8
0
  6
ByLayer
 62
  256
370
   -1
100
AcDbLine
 10
80.06874999999997
 20
0.1432499999999592
 11
67.56874999999997
 21
0.143249999999977
  0
ARC
  5
383
100
AcDbEntity
  8
0
  6
ByLayer
 62
  256
370
   -1
100
AcDbCircle
 10
67.56874999999997
 20
0.8932500000000232
 40
0.7500000000000284
100
AcDbArc
 50
180
 51
270
  0
LINE
  5
384
100
AcDbEntity
  8
0
  6
ByLayer
 62
  256
370
   -1
100
AcDbLine
 10
66.81874999999994
 20
0.8932500000000232
 11
66.81874999999998
 21
13.39325000000001
  0
ARC
  5
385
100
AcDbEntity
  8
0
  6
ByLayer
 62
  256
370
   -1
100
AcDbCircle
 10
67.56874999999997
 20
13.39325000000001
 40
0.7499999999999929
100
AcDbArc
 50
90
 51
180
  0
LINE
  5
386
100
AcDbEntity
  8
0
  6
ByLayer
 62
  256
370
   -1
100
AcDbLine
 10
67.56874999999997
 20
14.14325
 11
80.06874999999997
 21
14.14325000000003
  0
ARC
  5
387
100
AcDbEntity
  8
0
  6
ByLayer
 62
  256
370
   -1
100
AcDbCircle
 10
80.06874999999997
 20
13.39325000000001
 40
0.7500000000000284
100
AcDbArc
 50
0
 51
90
  0
LINE
  5
388
100
AcDbEntity
  8
0
  6
ByLayer
 62
  256
370
   -1
100
AcDbLine
 10
80.81874999999999
 20
13.39325000000001
 11
80.81874999999997
 21
0.8932500000000232
  0
ARC
  5
389
100
AcDbEntity
  8
0
  6
ByLayer
 62
  256
370
   -1
100
AcDbCircle
 10
80.06874999999997
 20
0.8932500000000232
 40
0.7500000000000639
100
AcDbArc
 50
-90
 51
0
  0
LINE
  5
38A
100
AcDbEntity
  8
0
  6
ByLayer
 62
  256
370
   -1
100
AcDbLine
 10
-123.2687499999999
 20
-57.00675
 11
-123.76875
 21
-57.00674999999981
  0
ARC
  5
38B
100
AcDbEntity
  8
0
  6
ByLayer
 62
  256
370
   -1
100
AcDbCircle
 10
-123.76875
 20
-56.2567499999999
 40
0.7499999999999041
100
AcDbArc
 50
180
 51
270
  0
LINE
  5
38C
100
AcDbEntity
  8
0
  6
ByLayer
 62
  256
370
   -1
100
AcDbLine
 10
-124.5187499999999
 20
-56.2567499999999
 11
-124.51875
 21
-43.75675000000022
  0
ARC
  5
38D
100
AcDbEntity
  8
0
  6
ByLayer
 62
  256
370
   -1
100
AcDbCircle
 10
-123.76875
 20
-43.75675000000022
 40
0.7499999999999574
100
AcDbArc
 50
90
 51
180
  0
LINE
  5
38E
100
AcDbEntity
  8
0
  6
ByLayer
 62
  256
370
   -1
100
AcDbLine
 10
-123.76875
 20
-43.00675000000027
 11
-123.2687499999999
 21
-43.00675000000023
  0
ARC
  5
38F
100
AcDbEntity
  8
0
  6
ByLayer
 62
  256
370
   -1
100
AcDbCircle
 10
-123.2687499999999
 20
-43.75675000000022
 40
0.7499999999999929
100
AcDbArc
 50
0
 51
90
  0
LINE
  5
390
100
AcDbEntity
  8
0
  6
ByLayer
 62
  256
370
   -1
100
AcDbLine
 10
-122.51875
 20
-43.75675000000022
 11
-122.5187499999998
 21
-56.2567499999999
  0
ARC
  5
391
100
AcDbEntity
  8
0
  6
ByLayer
 62
  256
370
   -1
100
AcDbCircle
 10
-123.2687499999999
 20
-56.2567499999999
 40
0.7500000000000995
100
AcDbArc
 50
-90
 51
0
  0
LINE
  5
392
100
AcDbEntity
  8
0
  6
ByLayer
 62
  256
370
   -1
100
AcDbLine
 10
-9.381250000000136
 20
43.75575000000001
 11
-9.38125000000003
 21
56.25574999999997
  0
ARC
  5
393
100
AcDbEntity
  8
0
  6
ByLayer
 62
  256
370
   -1
100
AcDbCircle
 10
-8.631250000000037
 20
56.25574999999997
 40
0.7499999999999929
100
AcDbArc
 50
90
 51
180
  0
LINE
  5
394
100
AcDbEntity
  8
0
  6
ByLayer
 62
  256
370
   -1
100
AcDbLine
 10
-8.631250000000037
 20
57.00574999999996
 11
3.868749999999963
 21
57.00574999999993
  0
ARC
  5
395
100
AcDbEntity
  8
0
  6
ByLayer
 62
  256
370
   -1
100
AcDbCircle
 10
3.868749999999963
 20
56.25574999999997
 40
0.7499999999999574
100
AcDbArc
 50
0
 51
90
  0
LINE
  5
396
100
AcDbEntity
  8
0
  6
ByLayer
 62
  256
370
   -1
100
AcDbLine
 10
4.61874999999992
 20
56.25574999999997
 11
4.618749999999956
 21
43.75575000000001
  0
ARC
  5
397
100
AcDbEntity
  8
0
  6
ByLayer
 62
  256
370
   -1
100
AcDbCircle
 10
3.868749999999963
 20
43.75575000000001
 40
0.7499999999999929
100
AcDbArc
 50
-90
 51
0
  0
LINE
  5
398
100
AcDbEntity
  8
0
  6
ByLayer
 62
  256
370
   -1
100
AcDbLine
 10
3.868749999999963
 20
43.00575000000001
 11
-8.631250000000037
 21
43.00574999999995
  0
ARC
  5
399
100
AcDbEntity
  8
0
  6
ByLayer
 62
  256
370
   -1
100
AcDbCircle
 10
-8.631250000000037
 20
43.75575000000001
 40
0.7500000000000995
100
AcDbArc
 50
180
 51
270
  0
LINE
  5
39A
100
AcDbEntity
  8
0
  6
ByLayer
 62
  256
370
   -1
100
AcDbLine
 10
-47.76875000000008
 20
-5.656750000000015
 11
-47.76875000000003
 21
-18.15674999999998
  0
ARC
  5
39B
100
AcDbEntity
  8
0
  6
ByLayer
 62
  256
370
   -1
100
AcDbCircle
 10
-48.51875000000003
 20
-18.15674999999998
 40
0.7500000000000284
100
AcDbArc
 50
-90
 51
0
  0
LINE
  5
39C
100
AcDbEntity
  8
0
  6
ByLayer
 62
  256
370
   -1
100
AcDbLine
 10
-48.51875000000003
 20
-18.90675000000001
 11
-61.01875000000003
 21
-18.90674999999992
  0
ARC
  5
39D
100
AcDbEntity
  8
0
  6
ByLayer
 62
  256
370
   -1
100
AcDbCircle
 10
-61.01875000000003
 20
-18.15674999999998
 40
0.7499999999999574
100
AcDbArc
 50
180
 51
270
  0
LINE
  5
39E
100
AcDbEntity
  8
0
  6
ByLayer
 62
  256
370
   -1
100
AcDbLine
 10
-61.76874999999999
 20
-18.15674999999998
 11
-61.76874999999995
 21
-5.656750000000015
  0
ARC
  5
39F
100
AcDbEntity
  8
0
  6
ByLayer
 62
  256
370
   -1
100
AcDbCircle
 10
-61.01875000000003
 20
-5.656750000000015
 40
0.7499999999999218
100
AcDbArc
 50
90
 51
180
  0
LINE
  5
3A0
100
AcDbEntity
  8
0
  6
ByLayer
 62
  256
370
   -1
100
AcDbLine
 10
-61.01875000000003
 20
-4.906750000000093
 11
-48.51875000000003
 21
-4.906750000000049
  0
ARC
  5
3A1
100
AcDbEntity
  8
0
  6
ByLayer
 62
  256
370
   -1
100
AcDbCircle
 10
-48.51875000000003
 20
-5.656750000000015
 40
0.7499999999999574
100
AcDbArc
 50
0
 51
90
  0
LINE
  5
3A2
100
AcDbEntity
  8
0
  6
ByLayer
 62
  256
370
   -1
100
AcDbLine
 10
-171.3062499999999
 20
43.75575000000001
 11
-171.3062500000001
 21
56.25574999999997
  0
ARC
  5
3A3
100
AcDbEntity
  8
0
  6
ByLayer
 62
  256
370
   -1
100
AcDbCircle
 10
-170.55625
 20
56.25574999999997
 40
0.7500000000000284
100
AcDbArc
 50
90
 51
180
  0
LINE
  5
3A4
100
AcDbEntity
  8
0
  6
ByLayer
 62
  256
370
   -1
100
AcDbLine
 10
-170.55625
 20
57.00575
 11
-158.05625
 21
57.00575000000002
  0
ARC
  5
3A5
100
AcDbEntity
  8
0
  6
ByLayer
 62
  256
370
   -1
100
AcDbCircle
 10
-158.05625
 20
56.25574999999997
 40
0.7499999999999929
100
AcDbArc
 50
0
 51
90
  0
LINE
  5
3A6
100
AcDbEntity
  8
0
  6
ByLayer
 62
  256
370
   -1
100
AcDbLine
 10
-157.30625
 20
56.25574999999997
 11
-157.30625
 21
43.75575000000001
  0
ARC
  5
3A7
100
AcDbEntity
  8
0
  6
ByLayer
 62
  256
370
   -1
100
AcDbCircle
 10
-158.05625
 20
43.75575000000001
 40
0.7499999999999574
100
AcDbArc
 50
-90
 51
0
  0
LINE
  5
3A8
100
AcDbEntity
  8
0
  6
ByLayer
 62
  256
370
   -1
100
AcDbLine
 10
-158.05625
 20
43.00575000000006
 11
-170.55625
 21
43.00575000000005
  0
ARC
  5
3A9
100
AcDbEntity
  8
0
  6
ByLayer
 62
  256
370
   -1
100
AcDbCircle
 10
-170.55625
 20
43.75575000000001
 40
0.7499999999999218
100
AcDbArc
 50
180
 51
270
  0
LINE
  5
3AA
100
AcDbEntity
  8
0
  6
ByLayer
 62
  256
370
   -1
100
AcDbLine
 10
38.99374999999996
 20
33.19325000000003
 11
51.49374999999996
 21
33.19324999999996
  0
ARC
  5
3AB
100
AcDbEntity
  8
0
  6
ByLayer
 62
  256
370
   -1
100
AcDbCircle
 10
51.49374999999996
 20
32.44325000000001
 40
0.7500000000000284
100
AcDbArc
 50
0
 51
90
  0
LINE
  5
3AC
100
AcDbEntity
  8
0
  6
ByLayer
 62
  256
370
   -1
100
AcDbLine
 10
52.24374999999998
 20
32.44325000000001
 11
52.24374999999998
 21
19.94325000000005
  0
ARC
  5
3AD
100
AcDbEntity
  8
0
  6
ByLayer
 62
  256
370
   -1
100
AcDbCircle
 10
51.49374999999996
 20
19.94324999999996
 40
0.7499999999999929
100
AcDbArc
 50
-90
 51
0
  0
LINE
  5
3AE
100
AcDbEntity
  8
0
  6
ByLayer
 62
  256
370
   -1
100
AcDbLine
 10
51.49374999999996
 20
19.19324999999996
 11
38.99374999999996
 21
19.19324999999998
  0
ARC
  5
3AF
100
AcDbEntity
  8
0
  6
ByLayer
 62
  256
370
   -1
100
AcDbCircle
 10
38.99374999999996
 20
19.94325000000005
 40
0.7499999999998863
100
AcDbArc
 50
180
 51
270
  0
LINE
  5
3B0
100
AcDbEntity
  8
0
  6
ByLayer
 62
  256
370
   -1
100
AcDbLine
 10
38.24375000000007
 20
19.94324999999996
 11
38.24374999999993
 21
32.44325000000001
  0
ARC
  5
3B1
100
AcDbEntity
  8
0
  6
ByLayer
 62
  256
370
   -1
100
AcDbCircle
 10
38.99374999999996
 20
32.44325000000001
 40
0.7500000000000284
100
AcDbArc
 50
90
 51
180
  0
LINE
  5
3B2
100
AcDbEntity
  8
0
  6
ByLayer
 62
  256
370
   -1
100
AcDbLine
 10
-153.2937499999999
 20
-57.00675
 11
-165.79375
 21
-57.00675000000043
  0
ARC
  5
3B3
100
AcDbEntity
  8
0
  6
ByLayer
 62
  256
370
   -1
100
AcDbCircle
 10
-165.79375
 20
-56.2567499999999
 40
0.7500000000000284
100
AcDbArc
 50
180
 51
270
  0
LINE
  5
3B4
100
AcDbEntity
  8
0
  6
ByLayer
 62
  256
370
   -1
100
AcDbLine
 10
-166.54375
 20
-56.2567499999999
 11
-166.54375
 21
-43.75675000000022
  0
ARC
  5
3B5
100
AcDbEntity
  8
0
  6
ByLayer
 62
  256
370
   -1
100
AcDbCircle
 10
-165.79375
 20
-43.75675000000022
 40
0.7499999999999574
100
AcDbArc
 50
90
 51
180
  0
LINE
  5
3B6
100
AcDbEntity
  8
0
  6
ByLayer
 62
  256
370
   -1
100
AcDbLine
 10
-165.79375
 20
-43.00675000000027
 11
-153.2937499999999
 21
-43.0067499999997
  0
ARC
  5
3B7
100
AcDbEntity
  8
0
  6
ByLayer
 62
  256
370
   -1
100
AcDbCircle
 10
-153.2937499999999
 20
-43.75675000000022
 40
0.7499999999999218
100
AcDbArc
 50
0
 51
90
  0
LINE
  5
3B8
100
AcDbEntity
  8
0
  6
ByLayer
 62
  256
370
   -1
100
AcDbLine
 10
-152.54375
 20
-43.75675000000022
 11
-152.5437499999999
 21
-56.2567499999999
  0
ARC
  5
3B9
100
AcDbEntity
  8
0
  6
ByLayer
 62
  256
370
   -1
100
AcDbCircle
 10
-153.2937499999999
 20
-56.2567499999999
 40
0.7500000000000995
100
AcDbArc
 50
-90
 51
0
  0
LINE
  5
3BA
100
AcDbEntity
  8
0
  6
ByLayer
 62
  256
370
   -1
100
AcDbLine
 10
110.23125
 20
13.39325000000001
 11
110.23125
 21
0.8932500000000232
  0
ARC
  5
3BB
100
AcDbEntity
  8
0
  6
ByLayer
 62
  256
370
   -1
100
AcDbCircle
 10
109.48125
 20
0.8932500000000232
 40
0.7500000000000284
100
AcDbArc
 50
-90
 51
0
  0
LINE
  5
3BC
100
AcDbEntity
  8
0
  6
ByLayer
 62
  256
370
   -1
100
AcDbLine
 10
109.48125
 20
0.1432499999999948
 11
108.98125
 21
0.1432500000000836
  0
ARC
  5
3BD
100
AcDbEntity
  8
0
  6
ByLayer
 62
  256
370
   -1
100
AcDbCircle
 10
108.98125
 20
0.8932500000000232
 40
0.7499999999999574
100
AcDbArc
 50
180
 51
270
  0
LINE
  5
3BE
100
AcDbEntity
  8
0
  6
ByLayer
 62
  256
370
   -1
100
AcDbLine
 10
108.23125
 20
0.8932500000000232
 11
108.23125
 21
13.39325000000001
  0
ARC
  5
3BF
100
AcDbEntity
  8
0
  6
ByLayer
 62
  256
370
   -1
100
AcDbCircle
 10
108.98125
 20
13.39325000000001
 40
0.7499999999999929
100
AcDbArc
 50
90
 51
180
  0
LINE
  5
3C0
100
AcDbEntity
  8
0
  6
ByLayer
 62
  256
370
   -1
100
AcDbLine
 10
108.98125
 20
14.14325
 11
109.48125
 21
14.14325000000004
  0
ARC
  5
3C1
100
AcDbEntity
  8
0
  6
ByLayer
 62
  256
370
   -1
100
AcDbCircle
 10
109.48125
 20
13.39325000000001
 40
0.7500000000000284
100
AcDbArc
 50
0
 51
90
  0
ARC
  5
3C2
100
AcDbEntity
  8
0
  6
ByLayer
 62
  256
370
   -1
100
AcDbCircle
 10
-170.89375
 20
0.8932500000000232
 40
0.7500000000000284
100
AcDbArc
 50
-90
 51
0
  0
LINE
  5
3C3
100
AcDbEntity
  8
0
  6
ByLayer
 62
  256
370
   -1
100
AcDbLine
 10
-170.14375
 20
13.39325000000001
 11
-170.14375
 21
0.8932500000000232
  0
ARC
  5
3C4
100
AcDbEntity
  8
0
  6
ByLayer
 62
  256
370
   -1
100
AcDbCircle
 10
-170.89375
 20
13.39325000000001
 40
0.7499999999999929
100
AcDbArc
 50
0
 51
90
  0
LINE
  5
3C5
100
AcDbEntity
  8
0
  6
ByLayer
 62
  256
370
   -1
100
AcDbLine
 10
-171.39375
 20
14.14325
 11
-170.89375
 21
14.14324999999995
  0
ARC
  5
3C6
100
AcDbEntity
  8
0
  6
ByLayer
 62
  256
370
   -1
100
AcDbCircle
 10
-171.39375
 20
13.39325000000001
 40
0.7499999999999929
100
AcDbArc
 50
90
 51
180
  0
LINE
  5
3C7
100
AcDbEntity
  8
0
  6
ByLayer
 62
  256
370
   -1
100
AcDbLine
 10
-172.14375
 20
0.8932500000000232
 11
-172.1437499999999
 21
13.39325000000001
  0
ARC
  5
3C8
100
AcDbEntity
  8
0
  6
ByLayer
 62
  256
370
   -1
100
AcDbCircle
 10
-171.39375
 20
0.8932500000000232
 40
0.7500000000000284
100
AcDbArc
 50
180
 51
270
  0
LINE
  5
3C9
100
AcDbEntity
  8
0
  6
ByLayer
 62
  256
370
   -1
100
AcDbLine
 10
-170.89375
 20
0.1432499999999948
 11
-171.39375
 21
0.143249999999977
  0
LINE
  5
3CA
100
AcDbEntity
  8
0
  6
ByLayer
 62
  256
370
   -1
100
AcDbLine
 10
65.78125
 20
-18.90674999999994
 11
53.28125
 21
-18.90675000000012
  0
ARC
  5
3CB
100
AcDbEntity
  8
0
  6
ByLayer
 62
  256
370
   -1
100
AcDbCircle
 10
53.28125
 20
-18.15674999999998
 40
0.7500000000001705
100
AcDbArc
 50
180
 51
270
  0
LINE
  5
3CC
100
AcDbEntity
  8
0
  6
ByLayer
 62
  256
370
   -1
100
AcDbLine
 10
52.53124999999983
 20
-18.15674999999998
 11
52.53125000000001
 21
-5.656750000000006
  0
ARC
  5
3CD
100
AcDbEntity
  8
0
  6
ByLayer
 62
  256
370
   -1
100
AcDbCircle
 10
53.28125
 20
-5.656750000000006
 40
0.7499999999999929
100
AcDbArc
 50
90
 51
180
  0
LINE
  5
3CE
100
AcDbEntity
  8
0
  6
ByLayer
 62
  256
370
   -1
100
AcDbLine
 10
53.28125
 20
-4.906750000000013
 11
65.78125
 21
-4.906749999999862
  0
ARC
  5
3CF
100
AcDbEntity
  8
0
  6
ByLayer
 62
  256
370
   -1
100
AcDbCircle
 10
65.78125
 20
-5.656750000000015
 40
0.7500000000000995
100
AcDbArc
 50
0
 51
90
  0
LINE
  5
3D0
100
AcDbEntity
  8
0
  6
ByLayer
 62
  256
370
   -1
100
AcDbLine
 10
66.5312500000001
 20
-5.656750000000015
 11
66.53125
 21
-18.15674999999998
  0
ARC
  5
3D1
100
AcDbEntity
  8
0
  6
ByLayer
 62
  256
370
   -1
100
AcDbCircle
 10
65.78125
 20
-18.15674999999998
 40
0.7499999999999574
100
AcDbArc
 50
-90
 51
0
  0
ARC
  5
3D2
100
AcDbEntity
  8
0
  6
ByLayer
 62
  256
370
   -1
100
AcDbCircle
 10
-80.06875000000002
 20
-18.15674999999998
 40
0.7500000000000284
100
AcDbArc
 50
180
 51
270
  0
LINE
  5
3D3
100
AcDbEntity
  8
0
  6
ByLayer
 62
  256
370
   -1
100
AcDbLine
 10
-67.56875000000002
 20
-18.90675000000001
 11
-80.06875000000002
 21
-18.90674999999992
  0
ARC
  5
3D4
100
AcDbEntity
  8
0
  6
ByLayer
 62
  256
370
   -1
100
AcDbCircle
 10
-67.56875000000002
 20
-18.15674999999998
 40
0.7500000000000284
100
AcDbArc
 50
-90
 51
0
  0
LINE
  5
3D5
100
AcDbEntity
  8
0
  6
ByLayer
 62
  256
370
   -1
100
AcDbLine
 10
-66.81875000000004
 20
-5.656750000000006
 11
-66.81875000000002
 21
-18.15674999999998
  0
ARC
  5
3D6
100
AcDbEntity
  8
0
  6
ByLayer
 62
  256
370
   -1
100
AcDbCircle
 10
-67.56875000000002
 20
-5.656750000000015
 40
0.7499999999999929
100
AcDbArc
 50
0
 51
90
  0
LINE
  5
3D7
100
AcDbEntity
  8
0
  6
ByLayer
 62
  256
370
   -1
100
AcDbLine
 10
-80.06875000000002
 20
-4.906750000000057
 11
-67.56875000000002
 21
-4.906750000000049
  0
ARC
  5
3D8
100
AcDbEntity
  8
0
  6
ByLayer
 62
  256
370
   -1
100
AcDbCircle
 10
-80.06875000000002
 20
-5.656750000000015
 40
0.7499999999999574
100
AcDbArc
 50
90
 51
180
  0
LINE
  5
3D9
100
AcDbEntity
  8
0
  6
ByLayer
 62
  256
370
   -1
100
AcDbLine
 10
-80.81875000000005
 20
-18.15674999999998
 11
-80.81874999999998
 21
-5.656750000000015
  0
LINE
  5
3DA
100
AcDbEntity
  8
0
  6
ByLayer
 62
  256
370
   -1
100
AcDbLine
 10
111.39375
 20
39.80249999999998
 11
111.39375
 21
36.39650000000004
  0
ARC
  5
3DB
100
AcDbEntity
  8
0
  6
ByLayer
 62
  256
370
   -1
100
AcDbCircle
 10
110.64375
 20
36.39650000000002
 40
0.7499999999999396
100
AcDbArc
 50
-90
 51
0
  0
LINE
  5
3DC
100
AcDbEntity
  8
0
  6
ByLayer
 62
  256
370
   -1
100
AcDbLine
 10
110.64375
 20
35.64650000000008
 11
-25.47975000000005
 21
35.64650000000001
  0
ARC
  5
3DD
100
AcDbEntity
  8
0
  6
ByLayer
 62
  256
370
   -1
100
AcDbCircle
 10
-25.47975000000005
 20
36.39650000000002
 40
0.7500000000000107
100
AcDbArc
 50
180
 51
270
  0
LINE
  5
3DE
100
AcDbEntity
  8
0
  6
ByLayer
 62
  256
370
   -1
100
AcDbLine
 10
-26.22975000000006
 20
36.39650000000004
 11
-26.22975000000004
 21
39.80250000000008
  0
ARC
  5
3DF
100
AcDbEntity
  8
0
  6
ByLayer
 62
  256
370
   -1
100
AcDbCircle
 10
-25.47975000000005
 20
39.80250000000007
 40
0.7499999999999973
100
AcDbArc
 50
90
 51
180
  0
LINE
  5
3E0
100
AcDbEntity
  8
0
  6
ByLayer
 62
  256
370
   -1
100
AcDbLine
 10
-25.47975000000005
 20
40.55250000000007
 11
110.64375
 21
40.55250000000007
  0
ARC
  5
3E1
100
AcDbEntity
  8
0
  6
ByLayer
 62
  256
370
   -1
100
AcDbCircle
 10
110.64375
 20
39.80250000000007
 40
0.7499999999999929
100
AcDbArc
 50
0
 51
90
  0
ARC
  5
3E2
100
AcDbEntity
  8
0
  6
ByLayer
 62
  256
370
   -1
100
AcDbCircle
 10
-129.48125
 20
-56.2567499999999
 40
0.7500000000000107
100
AcDbArc
 50
-90
 51
0
  0
LINE
  5
3E3
100
AcDbEntity
  8
0
  6
ByLayer
 62
  256
370
   -1
100
AcDbLine
 10
-128.73125
 20
-43.75675000000024
 11
-128.73125
 21
-56.2567499999999
  0
ARC
  5
3E4
100
AcDbEntity
  8
0
  6
ByLayer
 62
  256
370
   -1
100
AcDbCircle
 10
-129.48125
 20
-43.75675000000026
 40
0.7500000000000107
100
AcDbArc
 50
0
 51
90
  0
LINE
  5
3E5
100
AcDbEntity
  8
0
  6
ByLayer
 62
  256
370
   -1
100
AcDbLine
 10
-141.98125
 20
-43.00675000000025
 11
-129.48125
 21
-43.00675000000025
  0
ARC
  5
3E6
100
AcDbEntity
  8
0
  6
ByLayer
 62
  256
370
   -1
100
AcDbCircle
 10
-141.9812499999999
 20
-43.75675000000026
 40
0.7500000000000107
100
AcDbArc
 50
90.00000000000868
 51
180
  0
LINE
  5
3E7
100
AcDbEntity
  8
0
  6
ByLayer
 62
  256
370
   -1
100
AcDbLine
 10
-142.73125
 20
-56.2567499999999
 11
-142.73125
 21
-43.75675000000022
  0
ARC
  5
3E8
100
AcDbEntity
  8
0
  6
ByLayer
 62
  256
370
   -1
100
AcDbCircle
 10
-141.9812499999999
 20
-56.2567499999999
 40
0.7500000000000995
100
AcDbArc
 50
180
 51
269.9999999999935
  0
LINE
  5
3E9
100
AcDbEntity
  8
0
  6
ByLayer
 62
  256
370
   -1
100
AcDbLine
 10
-129.48125
 20
-57.00674999999991
 11
-141.98125
 21
-57.00675
  0
LINE
  5
3EA
100
AcDbEntity
  8
0
  6
ByLayer
 62
  256
370
   -1
100
AcDbLine
 10
169.3062500000002
 20
39.80249999999988
 11
169.3062500000001
 21
36.37450000000012
  0
ARC
  5
3EB
100
AcDbEntity
  8
0
  6
ByLayer
 62
  256
370
   -1
100
AcDbCircle
 10
168.55625
 20
36.37450000000021
 40
0.7500000000001217
100
AcDbArc
 50
270
 51
360
  0
LINE
  5
3EC
100
AcDbEntity
  8
0
  6
ByLayer
 62
  256
370
   -1
100
AcDbLine
 10
168.55625
 20
35.62450000000008
 11
117.95625
 21
35.62450000000007
  0
ARC
  5
3ED
100
AcDbEntity
  8
0
  6
ByLayer
 62
  256
370
   -1
100
AcDbCircle
 10
117.95625
 20
36.37450000000001
 40
0.7499999999999929
100
AcDbArc
 50
180
 51
270.0000000000011
  0
LINE
  5
3EE
100
AcDbEntity
  8
0
  6
ByLayer
 62
  256
370
   -1
100
AcDbLine
 10
117.20625
 20
36.37450000000002
 11
117.20625
 21
39.80249999999998
  0
ARC
  5
3EF
100
AcDbEntity
  8
0
  6
ByLayer
 62
  256
370
   -1
100
AcDbCircle
 10
117.95625
 20
39.80250000000007
 40
0.7499999999999885
100
AcDbArc
 50
90
 51
180
  0
LINE
  5
3F0
100
AcDbEntity
  8
0
  6
ByLayer
 62
  256
370
   -1
100
AcDbLine
 10
117.95625
 20
40.55250000000005
 11
168.55625
 21
40.55250000000004
  0
ARC
  5
3F1
100
AcDbEntity
  8
0
  6
ByLayer
 62
  256
370
   -1
100
AcDbCircle
 10
168.55625
 20
39.80249999999987
 40
0.7500000000001705
100
AcDbArc
 50
0
 51
90
  0
LINE
  5
3F2
100
AcDbEntity
  8
0
  6
ByLayer
 62
  256
370
   -1
100
AcDbLine
 10
151.5062499999999
 20
-57.00675
 11
139.0062499999999
 21
-57.00675000000007
  0
ARC
  5
3F3
100
AcDbEntity
  8
0
  6
ByLayer
 62
  256
370
   -1
100
AcDbCircle
 10
139.0062499999999
 20
-56.2567499999999
 40
0.7500000000001705
100
AcDbArc
 50
180
 51
270
  0
LINE
  5
3F4
100
AcDbEntity
  8
0
  6
ByLayer
 62
  256
370
   -1
100
AcDbLine
 10
138.2562499999998
 20
-56.2567499999999
 11
138.2562499999999
 21
-43.75675000000022
  0
ARC
  5
3F5
100
AcDbEntity
  8
0
  6
ByLayer
 62
  256
370
   -1
100
AcDbCircle
 10
139.0062499999999
 20
-43.75675000000022
 40
0.7500000000000284
100
AcDbArc
 50
90
 51
180
  0
LINE
  5
3F6
100
AcDbEntity
  8
0
  6
ByLayer
 62
  256
370
   -1
100
AcDbLine
 10
139.0062499999999
 20
-43.0067500000002
 11
151.5062499999999
 21
-43.0067500000002
  0
ARC
  5
3F7
100
AcDbEntity
  8
0
  6
ByLayer
 62
  256
370
   -1
100
AcDbCircle
 10
151.5062499999999
 20
-43.75675000000022
 40
0.7500000000000284
100
AcDbArc
 50
0
 51
90
  0
LINE
  5
3F8
100
AcDbEntity
  8
0
  6
ByLayer
 62
  256
370
   -1
100
AcDbLine
 10
152.25625
 20
-43.75675000000022
 11
152.2562500000001
 21
-56.2567499999999
  0
ARC
  5
3F9
100
AcDbEntity
  8
0
  6
ByLayer
 62
  256
370
   -1
100
AcDbCircle
 10
151.5062499999999
 20
-56.2567499999999
 40
0.7500000000000995
100
AcDbArc
 50
-90
 51
0
  0
LINE
  5
3FA
100
AcDbEntity
  8
0
  6
ByLayer
 62
  256
370
   -1
100
AcDbLine
 10
133.20625
 20
-43.75675000000022
 11
133.2062500000001
 21
-56.2567499999999
  0
ARC
  5
3FB
100
AcDbEntity
  8
0
  6
ByLayer
 62
  256
370
   -1
100
AcDbCircle
 10
132.45625
 20
-56.2567499999999
 40
0.7500000000000995
100
AcDbArc
 50
-90
 51
0
  0
LINE
  5
3FC
100
AcDbEntity
  8
0
  6
ByLayer
 62
  256
370
   -1
100
AcDbLine
 10
132.45625
 20
-57.00675
 11
119.95625
 21
-57.00674999999972
  0
ARC
  5
3FD
100
AcDbEntity
  8
0
  6
ByLayer
 62
  256
370
   -1
100
AcDbCircle
 10
119.95625
 20
-56.2567499999999
 40
0.7499999999998153
100
AcDbArc
 50
180
 51
270
  0
LINE
  5
3FE
100
AcDbEntity
  8
0
  6
ByLayer
 62
  256
370
   -1
100
AcDbLine
 10
119.2062500000002
 20
-56.2567499999999
 11
119.20625
 21
-43.75675000000022
  0
ARC
  5
3FF
100
AcDbEntity
  8
0
  6
ByLayer
 62
  256
370
   -1
100
AcDbCircle
 10
119.95625
 20
-43.75675000000022
 40
0.7500000000000284
100
AcDbArc
 50
90
 51
180
  0
LINE
  5
400
100
AcDbEntity
  8
0
  6
ByLayer
 62
  256
370
   -1
100
AcDbLine
 10
119.95625
 20
-43.0067500000002
 11
132.45625
 21
-43.00675000000023
  0
ARC
  5
401
100
AcDbEntity
  8
0
  6
ByLayer
 62
  256
370
   -1
100
AcDbCircle
 10
132.45625
 20
-43.75675000000022
 40
0.7499999999999929
100
AcDbArc
 50
0
 51
90
  0
LINE
  5
402
100
AcDbEntity
  8
0
  6
ByLayer
 62
  256
370
   -1
100
AcDbLine
 10
170.5562499999999
 20
-57.00675
 11
158.0562499999999
 21
-57.00674999999986
  0
ARC
  5
403
100
AcDbEntity
  8
0
  6
ByLayer
 62
  256
370
   -1
100
AcDbCircle
 10
158.0562499999999
 20
-56.2567499999999
 40
0.7499999999999574
100
AcDbArc
 50
180
 51
270
  0
LINE
  5
404
100
AcDbEntity
  8
0
  6
ByLayer
 62
  256
370
   -1
100
AcDbLine
 10
157.30625
 20
-56.2567499999999
 11
157.3062499999999
 21
-43.75675000000022
  0
ARC
  5
405
100
AcDbEntity
  8
0
  6
ByLayer
 62
  256
370
   -1
100
AcDbCircle
 10
158.0562499999999
 20
-43.75675000000022
 40
0.7500000000000284
100
AcDbArc
 50
90
 51
180
  0
LINE
  5
406
100
AcDbEntity
  8
0
  6
ByLayer
 62
  256
370
   -1
100
AcDbLine
 10
158.0562499999999
 20
-43.0067500000002
 11
170.5562499999999
 21
-43.00675000000034
  0
ARC
  5
407
100
AcDbEntity
  8
0
  6
ByLayer
 62
  256
370
   -1
100
AcDbCircle
 10
170.5562499999999
 20
-43.75675000000022
 40
0.7499999999998863
100
AcDbArc
 50
0
 51
90
  0
LINE
  5
408
100
AcDbEntity
  8
0
  6
ByLayer
 62
  256
370
   -1
100
AcDbLine
 10
171.3062499999998
 20
-43.75675000000022
 11
171.3062500000001
 21
-56.2567499999999
  0
ARC
  5
409
100
AcDbEntity
  8
0
  6
ByLayer
 62
  256
370
   -1
100
AcDbCircle
 10
170.5562499999999
 20
-56.2567499999999
 40
0.7500000000000995
100
AcDbArc
 50
-90
 51
0
  0
ARC
  5
40A
100
AcDbEntity
  8
0
  6
ByLayer
 62
  256
370
   -1
100
AcDbCircle
 10
108.98125
 20
-43.75675000000022
 40
0.7499999999999574
100
AcDbArc
 50
90
 51
180
  0
LINE
  5
40B
100
AcDbEntity
  8
0
  6
ByLayer
 62
  256
370
   -1
100
AcDbLine
 10
108.2312499999999
 20
-56.2567499999999
 11
108.23125
 21
-43.75675000000022
  0
ARC
  5
40C
100
AcDbEntity
  8
0
  6
ByLayer
 62
  256
370
   -1
100
AcDbCircle
 10
108.98125
 20
-56.2567499999999
 40
0.7500000000000995
100
AcDbArc
 50
180
 51
270
  0
LINE
  5
40D
100
AcDbEntity
  8
0
  6
ByLayer
 62
  256
370
   -1
100
AcDbLine
 10
109.48125
 20
-57.00674999999993
 11
108.98125
 21
-57.00675
  0
ARC
  5
40E
100
AcDbEntity
  8
0
  6
ByLayer
 62
  256
370
   -1
100
AcDbCircle
 10
109.48125
 20
-56.2567499999999
 40
0.7500000000000284
100
AcDbArc
 50
-90
 51
0
  0
LINE
  5
40F
100
AcDbEntity
  8
0
  6
ByLayer
 62
  256
370
   -1
100
AcDbLine
 10
110.23125
 20
-43.75675000000022
 11
110.23125
 21
-56.2567499999999
  0
ARC
  5
410
100
AcDbEntity
  8
0
  6
ByLayer
 62
  256
370
   -1
100
AcDbCircle
 10
109.48125
 20
-43.75675000000022
 40
0.7499999999999929
100
AcDbArc
 50
0
 51
90
  0
LINE
  5
411
100
AcDbEntity
  8
0
  6
ByLayer
 62
  256
370
   -1
100
AcDbLine
 10
108.98125
 20
-43.00675000000027
 11
109.48125
 21
-43.00675000000023
  0
ARC
  5
412
100
AcDbEntity
  8
0
  6
ByLayer
 62
  256
370
   -1
100
AcDbCircle
 10
91.38124999999995
 20
-43.75675000000022
 40
0.7499999999999574
100
AcDbArc
 50
90
 51
180
  0
LINE
  5
413
100
AcDbEntity
  8
0
  6
ByLayer
 62
  256
370
   -1
100
AcDbLine
 10
90.63124999999978
 20
-56.2567499999999
 11
90.63124999999999
 21
-43.75675000000022
  0
ARC
  5
414
100
AcDbEntity
  8
0
  6
ByLayer
 62
  256
370
   -1
100
AcDbCircle
 10
91.38124999999995
 20
-56.2567499999999
 40
0.7500000000001705
100
AcDbArc
 50
180
 51
270
  0
LINE
  5
415
100
AcDbEntity
  8
0
  6
ByLayer
 62
  256
370
   -1
100
AcDbLine
 10
103.88125
 20
-57.00674999999993
 11
91.38124999999995
 21
-57.00675000000007
  0
ARC
  5
416
100
AcDbEntity
  8
0
  6
ByLayer
 62
  256
370
   -1
100
AcDbCircle
 10
103.88125
 20
-56.2567499999999
 40
0.7500000000000284
100
AcDbArc
 50
-90
 51
0
  0
LINE
  5
417
100
AcDbEntity
  8
0
  6
ByLayer
 62
  256
370
   -1
100
AcDbLine
 10
104.6312499999999
 20
-43.75675000000022
 11
104.63125
 21
-56.2567499999999
  0
ARC
  5
418
100
AcDbEntity
  8
0
  6
ByLayer
 62
  256
370
   -1
100
AcDbCircle
 10
103.88125
 20
-43.75675000000022
 40
0.7499999999999929
100
AcDbArc
 50
0
 51
90
  0
LINE
  5
419
100
AcDbEntity
  8
0
  6
ByLayer
 62
  256
370
   -1
100
AcDbLine
 10
91.38124999999995
 20
-43.00675000000027
 11
103.88125
 21
-43.00675000000023
  0
LINE
  5
41A
100
AcDbEntity
  8
0
  6
ByLayer
 62
  256
370
   -1
100
AcDbLine
 10
85.78125
 20
-43.00675000000027
 11
86.28125
 21
-43.00675000000023
  0
ARC
  5
41B
100
AcDbEntity
  8
0
  6
ByLayer
 62
  256
370
   -1
100
AcDbCircle
 10
86.28125
 20
-43.75675000000022
 40
0.7499999999999929
100
AcDbArc
 50
0
 51
90
  0
LINE
  5
41C
100
AcDbEntity
  8
0
  6
ByLayer
 62
  256
370
   -1
100
AcDbLine
 10
87.03125
 20
-43.75675000000022
 11
87.03125000000003
 21
-56.2567499999999
  0
ARC
  5
41D
100
AcDbEntity
  8
0
  6
ByLayer
 62
  256
370
   -1
100
AcDbCircle
 10
86.28125
 20
-56.2567499999999
 40
0.7500000000000284
100
AcDbArc
 50
-90
 51
0
  0
LINE
  5
41E
100
AcDbEntity
  8
0
  6
ByLayer
 62
  256
370
   -1
100
AcDbLine
 10
86.28125
 20
-57.00674999999993
 11
85.78125
 21
-57.00675000000007
  0
ARC
  5
41F
100
AcDbEntity
  8
0
  6
ByLayer
 62
  256
370
   -1
100
AcDbCircle
 10
85.78125
 20
-56.2567499999999
 40
0.7500000000001705
100
AcDbArc
 50
180
 51
270
  0
LINE
  5
420
100
AcDbEntity
  8
0
  6
ByLayer
 62
  256
370
   -1
100
AcDbLine
 10
85.03124999999983
 20
-56.2567499999999
 11
85.03125000000004
 21
-43.75675000000022
  0
ARC
  5
421
100
AcDbEntity
  8
0
  6
ByLayer
 62
  256
370
   -1
100
AcDbCircle
 10
85.78125
 20
-43.75675000000022
 40
0.7499999999999574
100
AcDbArc
 50
90
 51
180
  0
ARC
  5
422
100
AcDbEntity
  8
0
  6
ByLayer
 62
  256
370
   -1
100
AcDbCircle
 10
67.56874999999997
 20
-43.75675000000022
 40
0.7499999999999929
100
AcDbArc
 50
90
 51
180
  0
LINE
  5
423
100
AcDbEntity
  8
0
  6
ByLayer
 62
  256
370
   -1
100
AcDbLine
 10
66.81874999999998
 20
-56.25674999999988
 11
66.81874999999998
 21
-43.75675000000022
  0
ARC
  5
424
100
AcDbEntity
  8
0
  6
ByLayer
 62
  256
370
   -1
100
AcDbCircle
 10
67.56874999999997
 20
-56.2567499999999
 40
0.7499999999999929
100
AcDbArc
 50
180
 51
270
  0
LINE
  5
425
100
AcDbEntity
  8
0
  6
ByLayer
 62
  256
370
   -1
100
AcDbLine
 10
80.06874999999997
 20
-57.0067499999999
 11
67.56874999999997
 21
-57.0067499999999
  0
ARC
  5
426
100
AcDbEntity
  8
0
  6
ByLayer
 62
  256
370
   -1
100
AcDbCircle
 10
80.06874999999997
 20
-56.2567499999999
 40
0.7499999999999929
100
AcDbArc
 50
-90
 51
0
  0
LINE
  5
427
100
AcDbEntity
  8
0
  6
ByLayer
 62
  256
370
   -1
100
AcDbLine
 10
80.81874999999997
 20
-43.75675000000022
 11
80.81874999999997
 21
-56.2567499999999
  0
ARC
  5
428
100
AcDbEntity
  8
0
  6
ByLayer
 62
  256
370
   -1
100
AcDbCircle
 10
80.06874999999997
 20
-43.75675000000022
 40
0.7499999999999929
100
AcDbArc
 50
0
 51
90
  0
LINE
  5
429
100
AcDbEntity
  8
0
  6
ByLayer
 62
  256
370
   -1
100
AcDbLine
 10
67.56874999999997
 20
-43.00675000000023
 11
80.06874999999997
 21
-43.00675000000023
  0
ARC
  5
42A
100
AcDbEntity
  8
0
  6
ByLayer
 62
  256
370
   -1
100
AcDbCircle
 10
61.35624999999997
 20
-56.2567499999999
 40
0.7500000000000284
100
AcDbArc
 50
180
 51
270
  0
LINE
  5
42B
100
AcDbEntity
  8
0
  6
ByLayer
 62
  256
370
   -1
100
AcDbLine
 10
61.85624999999998
 20
-57.00674999999993
 11
61.35624999999997
 21
-57.00674999999993
  0
ARC
  5
42C
100
AcDbEntity
  8
0
  6
ByLayer
 62
  256
370
   -1
100
AcDbCircle
 10
61.85624999999998
 20
-56.2567499999999
 40
0.7500000000000284
100
AcDbArc
 50
-90
 51
0
  0
LINE
  5
42D
100
AcDbEntity
  8
0
  6
ByLayer
 62
  256
370
   -1
100
AcDbLine
 10
62.60624999999997
 20
-43.75675000000022
 11
62.60625000000001
 21
-56.2567499999999
  0
ARC
  5
42E
100
AcDbEntity
  8
0
  6
ByLayer
 62
  256
370
   -1
100
AcDbCircle
 10
61.85624999999998
 20
-43.75675000000022
 40
0.7499999999999929
100
AcDbArc
 50
0
 51
90
  0
LINE
  5
42F
100
AcDbEntity
  8
0
  6
ByLayer
 62
  256
370
   -1
100
AcDbLine
 10
61.35624999999997
 20
-43.0067500000002
 11
61.85624999999998
 21
-43.00675000000023
  0
ARC
  5
430
100
AcDbEntity
  8
0
  6
ByLayer
 62
  256
370
   -1
100
AcDbCircle
 10
61.35624999999997
 20
-43.75675000000022
 40
0.7500000000000284
100
AcDbArc
 50
90
 51
180
  0
LINE
  5
431
100
AcDbEntity
  8
0
  6
ByLayer
 62
  256
370
   -1
100
AcDbLine
 10
60.60624999999995
 20
-56.2567499999999
 11
60.60624999999995
 21
-43.75675000000022
  0
ARC
  5
432
100
AcDbEntity
  8
0
  6
ByLayer
 62
  256
370
   -1
100
AcDbCircle
 10
43.75624999999999
 20
-43.75675000000022
 40
0.7499999999999574
100
AcDbArc
 50
90
 51
180
  0
LINE
  5
433
100
AcDbEntity
  8
0
  6
ByLayer
 62
  256
370
   -1
100
AcDbLine
 10
43.00624999999982
 20
-56.2567499999999
 11
43.00625000000004
 21
-43.75675000000022
  0
ARC
  5
434
100
AcDbEntity
  8
0
  6
ByLayer
 62
  256
370
   -1
100
AcDbCircle
 10
43.75624999999999
 20
-56.2567499999999
 40
0.7500000000001705
100
AcDbArc
 50
180
 51
270
  0
LINE
  5
435
100
AcDbEntity
  8
0
  6
ByLayer
 62
  256
370
   -1
100
AcDbLine
 10
56.25624999999999
 20
-57.00674999999993
 11
43.75624999999999
 21
-57.00675000000007
  0
ARC
  5
436
100
AcDbEntity
  8
0
  6
ByLayer
 62
  256
370
   -1
100
AcDbCircle
 10
56.25624999999999
 20
-56.2567499999999
 40
0.7500000000000284
100
AcDbArc
 50
-90
 51
0
  0
LINE
  5
437
100
AcDbEntity
  8
0
  6
ByLayer
 62
  256
370
   -1
100
AcDbLine
 10
57.00624999999999
 20
-43.75675000000022
 11
57.00625000000002
 21
-56.2567499999999
  0
ARC
  5
438
100
AcDbEntity
  8
0
  6
ByLayer
 62
  256
370
   -1
100
AcDbCircle
 10
56.25624999999999
 20
-43.75675000000022
 40
0.7499999999999929
100
AcDbArc
 50
0
 51
90
  0
LINE
  5
439
100
AcDbEntity
  8
0
  6
ByLayer
 62
  256
370
   -1
100
AcDbLine
 10
43.75624999999999
 20
-43.00675000000027
 11
56.25624999999999
 21
-43.00675000000023
  0
LINE
  5
43A
100
AcDbEntity
  8
0
  6
ByLayer
 62
  256
370
   -1
100
AcDbLine
 10
38.15625000000001
 20
-43.00675000000027
 11
38.65624999999998
 21
-43.0067500000002
  0
ARC
  5
43B
100
AcDbEntity
  8
0
  6
ByLayer
 62
  256
370
   -1
100
AcDbCircle
 10
38.65624999999998
 20
-43.75675000000022
 40
0.7500000000000284
100
AcDbArc
 50
0
 51
90
  0
LINE
  5
43C
100
AcDbEntity
  8
0
  6
ByLayer
 62
  256
370
   -1
100
AcDbLine
 10
39.40625000000001
 20
-43.75675000000022
 11
39.40625000000001
 21
-56.2567499999999
  0
ARC
  5
43D
100
AcDbEntity
  8
0
  6
ByLayer
 62
  256
370
   -1
100
AcDbCircle
 10
38.65624999999998
 20
-56.2567499999999
 40
0.7500000000000284
100
AcDbArc
 50
-90
 51
0
  0
LINE
  5
43E
100
AcDbEntity
  8
0
  6
ByLayer
 62
  256
370
   -1
100
AcDbLine
 10
38.65624999999998
 20
-57.00674999999993
 11
38.15625000000001
 21
-57.00675000000015
  0
ARC
  5
43F
100
AcDbEntity
  8
0
  6
ByLayer
 62
  256
370
   -1
100
AcDbCircle
 10
38.15625000000001
 20
-56.2567499999999
 40
0.7500000000002416
100
AcDbArc
 50
180
 51
270
  0
LINE
  5
440
100
AcDbEntity
  8
0
  6
ByLayer
 62
  256
370
   -1
100
AcDbLine
 10
37.40624999999977
 20
-56.2567499999999
 11
37.40625000000005
 21
-43.75675000000022
  0
ARC
  5
441
100
AcDbEntity
  8
0
  6
ByLayer
 62
  256
370
   -1
100
AcDbCircle
 10
38.15625000000001
 20
-43.75675000000022
 40
0.7499999999999574
100
AcDbArc
 50
90
 51
180
  0
ARC
  5
442
100
AcDbEntity
  8
0
  6
ByLayer
 62
  256
370
   -1
100
AcDbCircle
 10
-61.34375000000002
 20
-50.00674999999958
 40
3.500000000000006
100
AcDbArc
 50
221.8103148957752
 51
318.1896851042247
  0
ARC
  5
443
100
AcDbEntity
  8
0
  6
ByLayer
 62
  256
370
   -1
100
AcDbCircle
 10
-57.43063103937503
 20
-53.50674999999953
 40
1.750000000000007
100
AcDbArc
 50
90
 51
138.189685104224
  0
LINE
  5
444
100
AcDbEntity
  8
0
  6
ByLayer
 62
  256
370
   -1
100
AcDbLine
 10
-51.40000000000002
 20
-51.75674999999959
 11
-57.43063103937503
 21
-51.75674999999952
  0
ARC
  5
445
100
AcDbEntity
  8
0
  6
ByLayer
 62
  256
370
   -1
100
AcDbCircle
 10
-51.40000000000002
 20
-50.00674999999958
 40
1.750000000000007
100
AcDbArc
 50
-90
 51
90
  0
LINE
  5
446
100
AcDbEntity
  8
0
  6
ByLayer
 62
  256
370
   -1
100
AcDbLine
 10
-57.43063103937503
 20
-48.2567499999996
 11
-51.40000000000002
 21
-48.25674999999958
  0
ARC
  5
447
100
AcDbEntity
  8
0
  6
ByLayer
 62
  256
370
   -1
100
AcDbCircle
 10
-57.43063103937503
 20
-46.50674999999961
 40
1.75000000000026
100
AcDbArc
 50
221.8103148957758
 51
270
  0
ARC
  5
448
100
AcDbEntity
  8
0
  6
ByLayer
 62
  256
370
   -1
100
AcDbCircle
 10
-61.34375000000002
 20
-50.00674999999958
 40
3.499999999999992
100
AcDbArc
 50
41.8103148957758
 51
138.1896851042238
  0
ARC
  5
449
100
AcDbEntity
  8
0
  6
ByLayer
 62
  256
370
   -1
100
AcDbCircle
 10
-65.25686896062503
 20
-46.50674999999961
 40
1.750000000000007
100
AcDbArc
 50
270
 51
318.1896851042255
  0
LINE
  5
44A
100
AcDbEntity
  8
0
  6
ByLayer
 62
  256
370
   -1
100
AcDbLine
 10
-71.28750000000002
 20
-48.25674999999958
 11
-65.25686896062503
 21
-48.25674999999961
  0
ARC
  5
44B
100
AcDbEntity
  8
0
  6
ByLayer
 62
  256
370
   -1
100
AcDbCircle
 10
-71.28750000000002
 20
-50.00674999999958
 40
1.750000000000007
100
AcDbArc
 50
90
 51
270
  0
LINE
  5
44C
100
AcDbEntity
  8
0
  6
ByLayer
 62
  256
370
   -1
100
AcDbLine
 10
-65.25686896062503
 20
-51.75674999999952
 11
-71.28750000000002
 21
-51.75674999999959
  0
ARC
  5
44D
100
AcDbEntity
  8
0
  6
ByLayer
 62
  256
370
   -1
100
AcDbCircle
 10
-65.25686896062503
 20
-53.50674999999953
 40
1.750000000000235
100
AcDbArc
 50
41.81031489577575
 51
90
  0
LINE
  5
44E
100
AcDbEntity
  8
0
  6
ByLayer
 62
  256
370
   -1
100
AcDbLine
 10
-10.51250000000003
 20
-48.25674999999958
 11
-4.481868960624027
 21
-48.25674999999961
  0
ARC
  5
44F
100
AcDbEntity
  8
0
  6
ByLayer
 62
  256
370
   -1
100
AcDbCircle
 10
-10.51250000000003
 20
-50.00674999999958
 40
1.750000000000007
100
AcDbArc
 50
90
 51
270
  0
LINE
  5
450
100
AcDbEntity
  8
0
  6
ByLayer
 62
  256
370
   -1
100
AcDbLine
 10
-4.481868960624027
 20
-51.75674999999954
 11
-10.51250000000003
 21
-51.75674999999959
  0
ARC
  5
451
100
AcDbEntity
  8
0
  6
ByLayer
 62
  256
370
   -1
100
AcDbCircle
 10
-4.481868960624027
 20
-53.50674999999953
 40
1.749999999999493
100
AcDbArc
 50
41.81031489579745
 51
89.99999999999997
  0
ARC
  5
452
100
AcDbEntity
  8
0
  6
ByLayer
 62
  256
370
   -1
100
AcDbCircle
 10
-0.5687500000000512
 20
-50.00674999999958
 40
3.49999999999998
100
AcDbArc
 50
221.8103148957756
 51
318.1896851042252
  0
ARC
  5
453
100
AcDbEntity
  8
0
  6
ByLayer
 62
  256
370
   -1
100
AcDbCircle
 10
3.34436896062499
 20
-53.50674999999953
 40
1.750000000000007
100
AcDbArc
 50
89.99999999999999
 51
138.1896851042242
  0
LINE
  5
454
100
AcDbEntity
  8
0
  6
ByLayer
 62
  256
370
   -1
100
AcDbLine
 10
9.375
 20
-51.75674999999959
 11
3.34436896062499
 21
-51.75674999999952
  0
ARC
  5
455
100
AcDbEntity
  8
0
  6
ByLayer
 62
  256
370
   -1
100
AcDbCircle
 10
9.375
 20
-50.00674999999958
 40
1.750000000000007
100
AcDbArc
 50
-90
 51
90
  0
LINE
  5
456
100
AcDbEntity
  8
0
  6
ByLayer
 62
  256
370
   -1
100
AcDbLine
 10
3.34436896062499
 20
-48.2567499999996
 11
9.375
 21
-48.25674999999958
  0
ARC
  5
457
100
AcDbEntity
  8
0
  6
ByLayer
 62
  256
370
   -1
100
AcDbCircle
 10
3.34436896062499
 20
-46.50674999999961
 40
1.750000000000285
100
AcDbArc
 50
221.8103148957759
 51
270
  0
ARC
  5
458
100
AcDbEntity
  8
0
  6
ByLayer
 62
  256
370
   -1
100
AcDbCircle
 10
-0.5687500000000512
 20
-50.00674999999958
 40
3.500000000000006
100
AcDbArc
 50
41.81031489577524
 51
138.189685104224
  0
ARC
  5
459
100
AcDbEntity
  8
0
  6
ByLayer
 62
  256
370
   -1
100
AcDbCircle
 10
-4.481868960624027
 20
-46.50674999999961
 40
1.750000000000007
100
AcDbArc
 50
269.9999999999999
 51
318.1896851042024
  0
ARC
  5
45A
100
AcDbEntity
  8
0
  6
ByLayer
 62
  256
370
   -1
100
AcDbCircle
 10
-90.85624999999993
 20
-57.25675000000031
 40
0.7500000000000284
100
AcDbArc
 50
180
 51
270
  0
LINE
  5
45B
100
AcDbEntity
  8
0
  6
ByLayer
 62
  256
370
   -1
100
AcDbLine
 10
-85.35624999999993
 20
-58.00674999999984
 11
-90.85624999999993
 21
-58.00675000000034
  0
ARC
  5
45C
100
AcDbEntity
  8
0
  6
ByLayer
 62
  256
370
   -1
100
AcDbCircle
 10
-85.35624999999993
 20
-57.25675000000031
 40
0.749999999999531
100
AcDbArc
 50
-90
 51
0
  0
LINE
  5
45D
100
AcDbEntity
  8
0
  6
ByLayer
 62
  256
370
   -1
100
AcDbLine
 10
-84.60625000000005
 20
-42.7567499999998
 11
-84.60625000000039
 21
-57.25675000000031
  0
ARC
  5
45E
100
AcDbEntity
  8
0
  6
ByLayer
 62
  256
370
   -1
100
AcDbCircle
 10
-85.35625000000003
 20
-42.75674999999982
 40
0.7499999999999929
100
AcDbArc
 50
0
 51
90
  0
LINE
  5
45F
100
AcDbEntity
  8
0
  6
ByLayer
 62
  256
370
   -1
100
AcDbLine
 10
-90.85624999999993
 20
-42.00674999999979
 11
-85.35625000000003
 21
-42.00674999999983
  0
ARC
  5
460
100
AcDbEntity
  8
0
  6
ByLayer
 62
  256
370
   -1
100
AcDbCircle
 10
-90.85624999999993
 20
-42.75674999999982
 40
0.7500000000000284
100
AcDbArc
 50
90
 51
180
  0
LINE
  5
461
100
AcDbEntity
  8
0
  6
ByLayer
 62
  256
370
   -1
100
AcDbLine
 10
-91.60624999999996
 20
-57.25675000000031
 11
-91.60624999999996
 21
-42.75674999999982
  0
LINE
  5
462
100
AcDbEntity
  8
0
  6
ByLayer
 62
  256
370
   -1
100
AcDbLine
 10
-146.15
 20
-37.95674999999985
 11
-158.65
 21
-37.95674999999978
  0
ARC
  5
463
100
AcDbEntity
  8
0
  6
ByLayer
 62
  256
370
   -1
100
AcDbCircle
 10
-158.65
 20
-37.20674999999989
 40
0.7499999999999041
100
AcDbArc
 50
180
 51
270
  0
LINE
  5
464
100
AcDbEntity
  8
0
  6
ByLayer
 62
  256
370
   -1
100
AcDbLine
 10
-159.3999999999999
 20
-37.20674999999989
 11
-159.4
 21
-24.70675000000003
  0
ARC
  5
465
100
AcDbEntity
  8
0
  6
ByLayer
 62
  256
370
   -1
100
AcDbCircle
 10
-158.65
 20
-24.70675000000003
 40
0.7499999999999574
100
AcDbArc
 50
90
 51
180
  0
LINE
  5
466
100
AcDbEntity
  8
0
  6
ByLayer
 62
  256
370
   -1
100
AcDbLine
 10
-158.65
 20
-23.95675000000007
 11
-146.15
 21
-23.95675
  0
ARC
  5
467
100
AcDbEntity
  8
0
  6
ByLayer
 62
  256
370
   -1
100
AcDbCircle
 10
-146.15
 20
-24.70675000000003
 40
0.7500000000000284
100
AcDbArc
 50
0
 51
90
  0
LINE
  5
468
100
AcDbEntity
  8
0
  6
ByLayer
 62
  256
370
   -1
100
AcDbLine
 10
-145.4
 20
-24.70675000000003
 11
-145.4000000000001
 21
-37.20674999999989
  0
ARC
  5
469
100
AcDbEntity
  8
0
  6
ByLayer
 62
  256
370
   -1
100
AcDbCircle
 10
-146.15
 20
-37.20674999999989
 40
0.7499999999999574
100
AcDbArc
 50
-90
 51
0
  0
ARC
  5
46A
100
AcDbEntity
  8
0
  6
ByLayer
 62
  256
370
   -1
100
AcDbCircle
 10
64.34999999999997
 20
-37.20674999999957
 40
0.7500000000000284
100
AcDbArc
 50
180
 51
270
  0
LINE
  5
46B
100
AcDbEntity
  8
0
  6
ByLayer
 62
  256
370
   -1
100
AcDbLine
 10
64.84999999999997
 20
-37.95674999999959
 11
64.34999999999997
 21
-37.95674999999959
  0
ARC
  5
46C
100
AcDbEntity
  8
0
  6
ByLayer
 62
  256
370
   -1
100
AcDbCircle
 10
64.84999999999997
 20
-37.20674999999957
 40
0.7500000000000284
100
AcDbArc
 50
-90
 51
0
  0
LINE
  5
46D
100
AcDbEntity
  8
0
  6
ByLayer
 62
  256
370
   -1
100
AcDbLine
 10
65.59999999999997
 20
-24.70674999999989
 11
65.59999999999999
 21
-37.20674999999957
  0
ARC
  5
46E
100
AcDbEntity
  8
0
  6
ByLayer
 62
  256
370
   -1
100
AcDbCircle
 10
64.84999999999997
 20
-24.70674999999989
 40
0.7499999999999929
100
AcDbArc
 50
0
 51
90
  0
LINE
  5
46F
100
AcDbEntity
  8
0
  6
ByLayer
 62
  256
370
   -1
100
AcDbLine
 10
64.34999999999997
 20
-23.95674999999986
 11
64.84999999999997
 21
-23.95674999999989
  0
ARC
  5
470
100
AcDbEntity
  8
0
  6
ByLayer
 62
  256
370
   -1
100
AcDbCircle
 10
64.34999999999997
 20
-24.70674999999989
 40
0.7500000000000284
100
AcDbArc
 50
90
 51
180
  0
LINE
  5
471
100
AcDbEntity
  8
0
  6
ByLayer
 62
  256
370
   -1
100
AcDbLine
 10
63.59999999999993
 20
-37.20674999999957
 11
63.59999999999993
 21
-24.70674999999989
  0
ENDSEC
  0
SECTION
  2
OBJECTS
  0
DICTIONARY
  5
C
330
0
100
AcDbDictionary
281
    1
  3
ACAD_GROUP
350
D
  0
DICTIONARY
  5
D
330
C
100
AcDbDictionary
281
    1
  0
ENDSEC
  0
EOF
