0
SECTION
2
HEADER
9
$INSUNITS
70
4
9
$ACADVER
1
AC1014
9
$HANDSEED
5
FFFF
0
ENDSEC
0
SECTION
2
TABLES
0
TABLE
2
VPORT
5
8
100
AcDbSymbolTable
0
ENDTAB
0
TABLE
2
LTYPE
5
5
100
AcDbSymbolTable
0
LTYPE
5
14
100
AcDbSymbolTableRecord
100
AcDbLinetypeTableRecord
2
BYBLOCK
70
0
0
LTYPE
5
15
100
AcDbSymbolTableRecord
100
AcDbLinetypeTableRecord
2
BYLAYER
70
0
0
ENDTAB
0
TABLE
2
LAYER
5
2
100
AcDbSymbolTable
70
2
0
LAYER
5
50
100
AcDbSymbolTableRecord
100
AcDbLayerTableRecord
2
0
70
0
6
CONTINUOUS
0
ENDTAB
0
TABLE
2
STYLE
5
3
100
AcDbSymbolTable
70
1
0
STYLE
5
11
100
AcDbSymbolTableRecord
100
AcDbTextStyleTableRecord
2
STANDARD
70
0
0
ENDTAB
0
TABLE
2
VIEW
5
6
100
AcDbSymbolTable
70
0
0
ENDTAB
0
TABLE
2
UCS
5
7
100
AcDbSymbolTable
70
0
0
ENDTAB
0
TABLE
2
APPID
5
9
100
AcDbSymbolTable
70
2
0
APPID
5
12
100
AcDbSymbolTableRecord
100
AcDbRegAppTableRecord
2
ACAD
70
0
0
ENDTAB
0
TABLE
2
DIMSTYLE
5
A
100
AcDbSymbolTable
70
1
0
ENDTAB
0
TABLE
2
BLOCK_RECORD
5
1
100
AcDbSymbolTable
70
1
0
BLOCK_RECORD
5
1F
100
AcDbSymbolTableRecord
100
AcDbBlockTableRecord
2
*MODEL_SPACE
0
BLOCK_RECORD
5
1B
100
AcDbSymbolTableRecord
100
AcDbBlockTableRecord
2
*PAPER_SPACE
0
ENDTAB
0
ENDSEC
0
SECTION
2
BLOCKS
0
BLOCK
5
20
100
AcDbEntity
100
AcDbBlockBegin
2
*MODEL_SPACE
0
ENDBLK
5
21
100
AcDbEntity
100
AcDbBlockEnd
0
BLOCK
5
1C
100
AcDbEntity
100
AcDbBlockBegin
2
*PAPER_SPACE
0
ENDBLK
5
1D
100
AcDbEntity
100
AcDbBlockEnd
0
ENDSEC
0
SECTION
2
ENTITIES
0
LINE
5
100
100
AcDbEntity
8
0
100
AcDbLine
10
59.531249999999858
20
-22.181750000000335
30
0
11
59.53125
21
-39.731750000005484
31
0
0
ARC
5
101
100
AcDbEntity
8
0
100
AcDbCircle
10
58.781250000000007
20
-39.731750000005484
30
0
40
0.75000000000002842
210
0
220
0
230
1
100
AcDbArc
50
-90.000000000002757
51
0
0
LINE
5
102
100
AcDbEntity
8
0
100
AcDbLine
10
58.781249999999972
20
-40.481750000005512
30
0
11
-130.21874999999997
21
-40.481749999999352
31
0
0
ARC
5
103
100
AcDbEntity
8
0
100
AcDbCircle
10
-130.21874999999994
20
-39.731749999999323
30
0
40
0.75000000000002842
210
0
220
0
230
1
100
AcDbArc
50
180
51
269.99999999999784
0
LINE
5
104
100
AcDbEntity
8
0
100
AcDbLine
10
-130.96874999999997
20
-39.731749999999323
30
0
11
-130.96874999999997
21
-22.181749999999987
31
0
0
ARC
5
105
100
AcDbEntity
8
0
100
AcDbCircle
10
-131.71875
20
-22.181749999999987
30
0
40
0.75000000000002842
210
0
220
-0
230
1
100
AcDbArc
50
0
51
90
0
LINE
5
106
100
AcDbEntity
8
0
100
AcDbLine
10
-131.71875
20
-21.431749999999951
30
0
11
-139.74375000000003
21
-21.43174999999993
31
0
0
ARC
5
107
100
AcDbEntity
8
0
100
AcDbCircle
10
-139.74375000000003
20
-20.681749999999912
30
0
40
0.75000000000002842
210
0
220
0
230
1
100
AcDbArc
50
180
51
270.0000000000021
0
LINE
5
108
100
AcDbEntity
8
0
100
AcDbLine
10
-140.49375000000003
20
-20.681749999999901
30
0
11
-140.49374999999984
21
-3.131750000000153
31
0
0
ARC
5
109
100
AcDbEntity
8
0
100
AcDbCircle
10
-141.24374999999986
20
-3.1317500000001441
30
0
40
0.75000000000002842
210
-0
220
0
230
1
100
AcDbArc
50
0
51
90.000000000002174
0
LINE
5
110
100
AcDbEntity
8
0
100
AcDbLine
10
-141.24374999999986
20
-2.3817500000001157
30
0
11
-144.50624999999999
21
-2.3817500000001512
31
0
0
ARC
5
111
100
AcDbEntity
8
0
100
AcDbCircle
10
-144.50624999999999
20
-1.6317500000001139
30
0
40
0.75000000000002842
210
0
220
0
230
1
100
AcDbArc
50
180
51
270
0
LINE
5
112
100
AcDbEntity
8
0
100
AcDbLine
10
-145.25625000000002
20
-1.6317500000001139
30
0
11
-145.25624999999997
21
15.918249999999947
31
0
0
ARC
5
113
100
AcDbEntity
8
0
100
AcDbCircle
10
-146.00625000000002
20
15.918249999999951
30
0
40
0.75000000000002842
210
-0
220
0
230
1
100
AcDbArc
50
0
51
90
0
LINE
5
114
100
AcDbEntity
8
0
100
AcDbLine
10
-146.00625000000002
20
16.668249999999979
30
0
11
-154.03124999999994
21
16.668249999999986
31
0
0
ARC
5
115
100
AcDbEntity
8
0
100
AcDbCircle
10
-154.03124999999994
20
17.418250000000008
30
0
40
0.75000000000002842
210
0
220
0
230
1
100
AcDbArc
50
180
51
270
0
LINE
5
116
100
AcDbEntity
8
0
100
AcDbLine
10
-154.78125
20
17.418250000000008
30
0
11
-154.78124999999994
21
34.89650000000006
31
0
0
ARC
5
117
100
AcDbEntity
8
0
100
AcDbCircle
10
-155.53124999999997
20
34.89650000000006
30
0
40
0.75000000000002842
210
-0
220
0
230
1
100
AcDbArc
50
0
51
90
0
LINE
5
118
100
AcDbEntity
8
0
100
AcDbLine
10
-155.53124999999997
20
35.646500000000088
30
0
11
-168.55625000000003
21
35.646500000000081
31
0
0
ARC
5
119
100
AcDbEntity
8
0
100
AcDbCircle
10
-168.55625000000003
20
36.396500000000024
30
0
40
0.74999999999999289
210
0
220
0
230
1
100
AcDbArc
50
180
51
270
0
LINE
5
120
100
AcDbEntity
8
0
100
AcDbLine
10
-169.30625000000003
20
36.396500000000039
30
0
11
-169.30625000000003
21
39.80250000000008
31
0
0
ARC
5
121
100
AcDbEntity
8
0
100
AcDbCircle
10
-168.55625000000003
20
39.802500000000066
30
0
40
0.75000000000000622
210
0
220
-0
230
1
100
AcDbArc
50
90
51
180
0
LINE
5
122
100
AcDbEntity
8
0
100
AcDbLine
10
-168.55625000000003
20
40.552500000000073
30
0
11
110.64375000000001
21
40.552500000000038
31
0
0
ARC
5
123
100
AcDbEntity
8
0
100
AcDbCircle
10
110.64375000000001
20
39.802500000000066
30
0
40
0.74999999999999289
210
-0
220
0
230
1
100
AcDbArc
50
0
51
90
0
LINE
5
124
100
AcDbEntity
8
0
100
AcDbLine
10
111.39375000000001
20
39.802499999999981
30
0
11
111.39375000000001
21
36.396500000000039
31
0
0
ARC
5
125
100
AcDbEntity
8
0
100
AcDbCircle
10
110.64375000000001
20
36.396500000000024
30
0
40
0.74999999999999289
210
-0
220
0
230
1
100
AcDbArc
50
-90
51
0
0
LINE
5
126
100
AcDbEntity
8
0
100
AcDbLine
10
110.64375000000001
20
35.646500000000032
30
0
11
74.56875000000008
21
35.646500000000081
31
0
0
ARC
5
127
100
AcDbEntity
8
0
100
AcDbCircle
10
74.56875000000008
20
34.896500000000053
30
0
40
0.75000000000002398
210
0
220
-0
230
1
100
AcDbArc
50
90
51
180
0
LINE
5
128
100
AcDbEntity
8
0
100
AcDbLine
10
73.818750000000051
20
34.89650000000006
30
0
11
73.818749999999966
21
17.418250000000036
31
0
0
ARC
5
129
100
AcDbEntity
8
0
100
AcDbCircle
10
74.568749999999994
20
17.418250000000036
30
0
40
0.75000000000002842
210
0
220
0
230
1
100
AcDbArc
50
180
51
270.00000000000108
0
LINE
5
130
100
AcDbEntity
8
0
100
AcDbLine
10
74.568749999999994
20
16.668250000000008
30
0
11
82.593749999999943
21
16.668250000000029
31
0
0
ARC
5
131
100
AcDbEntity
8
0
100
AcDbCircle
10
82.593749999999943
20
15.918250000000004
30
0
40
0.75000000000002842
210
0
220
-0
230
1
100
AcDbArc
50
0
51
90
0
LINE
5
132
100
AcDbEntity
8
0
100
AcDbLine
10
83.343749999999972
20
15.918250000000004
30
0
11
83.343749999999943
21
-1.6317500000000251
31
0
0
ARC
5
133
100
AcDbEntity
8
0
100
AcDbCircle
10
82.593749999999943
20
-1.6317500000000251
30
0
40
0.75000000000002842
210
-0
220
0
230
1
100
AcDbArc
50
-90
51
0
0
LINE
5
134
100
AcDbEntity
8
0
100
AcDbLine
10
82.593749999999943
20
-2.3817500000000535
30
0
11
69.806250000000176
21
-2.3817500000000269
31
0
0
ARC
5
135
100
AcDbEntity
8
0
100
AcDbCircle
10
69.806250000000176
20
-3.1317500000000553
30
0
40
0.75000000000002842
210
0
220
-0
230
1
100
AcDbArc
50
90
51
180
0
LINE
5
136
100
AcDbEntity
8
0
100
AcDbLine
10
69.056250000000148
20
-3.1317500000000464
30
0
11
69.056249999999977
21
-20.681750000000491
31
0
0
ARC
5
137
100
AcDbEntity
8
0
100
AcDbCircle
10
68.306249999999949
20
-20.681750000000481
30
0
40
0.75000000000002842
210
0
220
0
230
1
100
AcDbArc
50
269.99999999999676
51
360
0
LINE
5
138
100
AcDbEntity
8
0
100
AcDbLine
10
68.306249999999906
20
-21.431750000000509
30
0
11
60.281249999999922
21
-21.431750000000296
31
0
0
ARC
5
139
100
AcDbEntity
8
0
100
AcDbCircle
10
60.281249999999886
20
-22.181750000000324
30
0
40
0.75000000000002842
210
0
220
-0
230
1
100
AcDbArc
50
89.999999999997286
51
180
0
LINE
5
140
100
AcDbEntity
8
0
100
AcDbLine
10
-55.99824955570103
20
-56.256750000000352
30
0
11
-38.706250000000026
21
-56.256749999999904
31
0
0
ARC
5
141
100
AcDbEntity
8
0
100
AcDbCircle
10
-38.706250000000026
20
-55.506750000000338
30
0
40
0.74999999999956657
210
-0
220
0
230
1
100
AcDbArc
50
-90
51
0
0
LINE
5
142
100
AcDbEntity
8
0
100
AcDbLine
10
-37.956250000000452
20
-55.506750000000324
30
0
11
-37.956250000000026
21
-43.756750000000224
31
0
0
ARC
5
143
100
AcDbEntity
8
0
100
AcDbCircle
10
-37.206250000000018
20
-43.756750000000224
30
0
40
0.74999999999995737
210
0
220
-0
230
1
100
AcDbArc
50
90
51
180
0
LINE
5
144
100
AcDbEntity
8
0
100
AcDbLine
10
-37.206250000000018
20
-43.006750000000267
30
0
11
-24.706250000000018
21
-43.006749999999698
31
0
0
ARC
5
145
100
AcDbEntity
8
0
100
AcDbCircle
10
-24.706250000000018
20
-43.756750000000224
30
0
40
0.75000000000002842
210
0
220
-0
230
1
100
AcDbArc
50
0
51
90
0
LINE
5
146
100
AcDbEntity
8
0
100
AcDbLine
10
-23.95624999999999
20
-43.756750000000224
30
0
11
-23.956250000000026
21
-55.506750000000338
31
0
0
ARC
5
147
100
AcDbEntity
8
0
100
AcDbCircle
10
-23.206250000000033
20
-55.506750000000338
30
0
40
0.74999999999999289
210
0
220
0
230
1
100
AcDbArc
50
180
51
270
0
LINE
5
148
100
AcDbEntity
8
0
100
AcDbLine
10
-23.206250000000033
20
-56.256750000000331
30
0
11
-5.9142504442990074
21
-56.256749999999904
31
0
0
ARC
5
149
100
AcDbEntity
8
0
100
AcDbCircle
10
-5.9142504442990074
20
-62.256750000000345
30
0
40
6.0000000000000044
210
0
220
-0
230
1
100
AcDbArc
50
46.642433642975803
51
90
0
ARC
5
150
100
AcDbEntity
8
0
100
AcDbCircle
10
2.3243401511849981
20
-53.531749999999612
30
0
40
6.0000000000004245
210
0
220
0
230
1
100
AcDbArc
50
226.64243364298196
51
270
0
LINE
5
151
100
AcDbEntity
8
0
100
AcDbLine
10
2.3243401511849981
20
-59.531750000000031
30
0
11
31.287500000000001
21
-59.531750000000088
31
0
0
ARC
5
152
100
AcDbEntity
8
0
100
AcDbCircle
10
31.287500000000001
20
-62.531750000000308
30
0
40
3.0000000000000071
210
0
220
-0
230
1
100
AcDbArc
50
0
51
90
0
LINE
5
153
100
AcDbEntity
8
0
100
AcDbLine
10
34.287500000000009
20
-62.531750000000287
30
0
11
34.287499999999973
21
-63.668750000000038
31
0
0
ARC
5
154
100
AcDbEntity
8
0
100
AcDbCircle
10
36.287500000000001
20
-63.668750000000038
30
0
40
2.0000000000000284
210
0
220
0
230
1
100
AcDbArc
50
180
51
270
0
LINE
5
155
100
AcDbEntity
8
0
100
AcDbLine
10
36.287500000000001
20
-65.668750000000074
30
0
11
154.78125000000003
21
-65.668749999999847
31
0
0
ARC
5
156
100
AcDbEntity
8
0
100
AcDbCircle
10
154.78125000000003
20
-63.668750000000038
30
0
40
1.9999999999998153
210
-0
220
0
230
1
100
AcDbArc
50
-90
51
0
0
LINE
5
157
100
AcDbEntity
8
0
100
AcDbLine
10
156.78124999999983
20
-63.668750000000017
30
0
11
156.78124999999997
21
-62.531750000000272
31
0
0
ARC
5
158
100
AcDbEntity
8
0
100
AcDbCircle
10
159.78125000000003
20
-62.531750000000308
30
0
40
3.0000000000000071
210
0
220
-0
230
1
100
AcDbArc
50
90
51
180
0
LINE
5
159
100
AcDbEntity
8
0
100
AcDbLine
10
159.78125000000003
20
-59.531750000000301
30
0
11
172.28125000000003
21
-59.531750000000088
31
0
0
ARC
5
160
100
AcDbEntity
8
0
100
AcDbCircle
10
172.28125000000003
20
-57.981749999999792
30
0
40
1.5500000000002956
210
-0
220
0
230
1
100
AcDbArc
50
-90
51
0
0
LINE
5
161
100
AcDbEntity
8
0
100
AcDbLine
10
173.83125000000032
20
-57.981749999999778
30
0
11
173.83125000000004
21
57.980750000000043
31
0
0
ARC
5
162
100
AcDbEntity
8
0
100
AcDbCircle
10
172.28125000000003
20
57.980750000000057
30
0
40
1.5500000000000114
210
-0
220
0
230
1
100
AcDbArc
50
0
51
90
0
LINE
5
163
100
AcDbEntity
8
0
100
AcDbLine
10
172.28125000000003
20
59.530750000000069
30
0
11
159.78125000000003
21
59.530750000000047
31
0
0
ARC
5
164
100
AcDbEntity
8
0
100
AcDbCircle
10
159.78125000000003
20
62.53075000000004
30
0
40
2.9999999999999716
210
0
220
0
230
1
100
AcDbArc
50
180
51
270
0
LINE
5
165
100
AcDbEntity
8
0
100
AcDbLine
10
156.78125000000006
20
62.530750000000026
30
0
11
156.78124999999997
21
63.668750000000038
31
0
0
ARC
5
166
100
AcDbEntity
8
0
100
AcDbCircle
10
154.78125000000003
20
63.668750000000031
30
0
40
1.9999999999999574
210
0
220
-0
230
1
100
AcDbArc
50
0
51
90
0
LINE
5
167
100
AcDbEntity
8
0
100
AcDbLine
10
154.78125000000003
20
65.668749999999989
30
0
11
30.956249999999983
21
65.668750000000003
31
0
0
ARC
5
168
100
AcDbEntity
8
0
100
AcDbCircle
10
30.956249999999983
20
63.66875000000001
30
0
40
2.0000000000000018
210
0
220
-0
230
1
100
AcDbArc
50
90
51
180
0
LINE
5
169
100
AcDbEntity
8
0
100
AcDbLine
10
28.95624999999999
20
63.668750000000038
30
0
11
28.95624999999999
21
62.530749999999991
31
0
0
ARC
5
170
100
AcDbEntity
8
0
100
AcDbCircle
10
25.956249999999983
20
62.530750000000026
30
0
40
2.9999999999999982
210
-0
220
0
230
1
100
AcDbArc
50
270
51
360
0
LINE
5
171
100
AcDbEntity
8
0
100
AcDbLine
10
25.956249999999983
20
59.530750000000026
30
0
11
-49.768750000000033
21
59.53075000000004
31
0
0
ARC
5
172
100
AcDbEntity
8
0
100
AcDbCircle
10
-49.768750000000033
20
62.530750000000019
30
0
40
3.0000000000000071
210
0
220
0
230
1
100
AcDbArc
50
180
51
270
0
LINE
5
173
100
AcDbEntity
8
0
100
AcDbLine
10
-52.76875000000004
20
62.530750000000012
30
0
11
-52.768750000000026
21
63.667750000000005
31
0
0
ARC
5
174
100
AcDbEntity
8
0
100
AcDbCircle
10
-54.768750000000033
20
63.667750000000005
30
0
40
2.0000000000000107
210
0
220
-0
230
1
100
AcDbArc
50
0
51
90
0
LINE
5
175
100
AcDbEntity
8
0
100
AcDbLine
10
-54.768750000000033
20
65.667750000000012
30
0
11
-155.20624999999993
21
65.667750000000041
31
0
0
ARC
5
176
100
AcDbEntity
8
0
100
AcDbCircle
10
-155.20624999999993
20
63.667750000000041
30
0
40
2.0000000000000018
210
0
220
-0
230
1
100
AcDbArc
50
90
51
180
0
LINE
5
177
100
AcDbEntity
8
0
100
AcDbLine
10
-157.20624999999993
20
63.667750000000026
30
0
11
-157.20624999999993
21
62.530749999999991
31
0
0
ARC
5
178
100
AcDbEntity
8
0
100
AcDbCircle
10
-160.20624999999993
20
62.530750000000012
30
0
40
2.9999999999999982
210
-0
220
0
230
1
100
AcDbArc
50
270
51
360
0
LINE
5
179
100
AcDbEntity
8
0
100
AcDbLine
10
-160.20624999999993
20
59.530750000000012
30
0
11
-172.28125000000003
21
59.530750000000047
31
0
0
ARC
5
180
100
AcDbEntity
8
0
100
AcDbCircle
10
-172.28125000000003
20
57.980749999999965
30
0
40
1.5500000000000824
210
0
220
-0
230
1
100
AcDbArc
50
90
51
180
0
LINE
5
181
100
AcDbEntity
8
0
100
AcDbLine
10
-173.8312500000001
20
57.98075000000005
30
0
11
-173.83125000000004
21
-57.981749999999785
31
0
0
ARC
5
182
100
AcDbEntity
8
0
100
AcDbCircle
10
-172.28125000000003
20
-57.981749999999792
30
0
40
1.5500000000000114
210
0
220
0
230
1
100
AcDbArc
50
180
51
270
0
LINE
5
183
100
AcDbEntity
8
0
100
AcDbLine
10
-172.28125000000003
20
-59.531749999999789
30
0
11
-160.20674999999994
21
-59.531750000000088
31
0
0
ARC
5
184
100
AcDbEntity
8
0
100
AcDbCircle
10
-160.20674999999994
20
-62.531750000000308
30
0
40
3.0000000000000071
210
0
220
-0
230
1
100
AcDbArc
50
0
51
90
0
LINE
5
185
100
AcDbEntity
8
0
100
AcDbLine
10
-157.20674999999994
20
-62.531750000000308
30
0
11
-157.20674999999994
21
-63.668750000000038
31
0
0
ARC
5
186
100
AcDbEntity
8
0
100
AcDbCircle
10
-155.20675000000003
20
-63.668750000000038
30
0
40
1.9999999999999041
210
0
220
0
230
1
100
AcDbArc
50
180
51
270
0
LINE
5
187
100
AcDbEntity
8
0
100
AcDbLine
10
-155.20675000000003
20
-65.668749999999946
30
0
11
-98.200249999999926
21
-65.668749999999847
31
0
0
ARC
5
188
100
AcDbEntity
8
0
100
AcDbCircle
10
-98.200249999999926
20
-63.668750000000038
30
0
40
1.9999999999998153
210
-0
220
0
230
1
100
AcDbArc
50
-90
51
0
0
LINE
5
189
100
AcDbEntity
8
0
100
AcDbLine
10
-96.200250000000111
20
-63.668750000000017
30
0
11
-96.200249999999926
21
-62.531750000000272
31
0
0
ARC
5
190
100
AcDbEntity
8
0
100
AcDbCircle
10
-93.200249999999926
20
-62.531750000000272
30
0
40
3.0000000000000071
210
0
220
-0
230
1
100
AcDbArc
50
90
51
180
0
LINE
5
191
100
AcDbEntity
8
0
100
AcDbLine
10
-93.200249999999926
20
-59.531750000000265
30
0
11
-64.236840151185021
21
-59.531750000000088
31
0
0
ARC
5
192
100
AcDbEntity
8
0
100
AcDbCircle
10
-64.236840151185021
20
-53.531749999999612
30
0
40
6.0000000000004761
210
-0
220
0
230
1
100
AcDbArc
50
270
51
313.35756635702415
0
ARC
5
193
100
AcDbEntity
8
0
100
AcDbCircle
10
-55.99824955570103
20
-62.256750000000345
30
0
40
5.9999999999999964
210
0
220
-0
230
1
100
AcDbArc
50
90
51
133.35756635701793
0
LINE
5
194
100
AcDbEntity
8
0
100
AcDbLine
10
85.868749999999991
20
19.943250000000052
30
0
11
85.868749999999991
21
32.443250000000006
31
0
0
ARC
5
195
100
AcDbEntity
8
0
100
AcDbCircle
10
86.618749999999977
20
32.443250000000006
30
0
40
0.75000000000000178
210
0
220
-0
230
1
100
AcDbArc
50
90
51
180
0
LINE
5
196
100
AcDbEntity
8
0
100
AcDbLine
10
86.618749999999977
20
33.193250000000006
30
0
11
99.118749999999977
21
33.193249999999999
31
0
0
ARC
5
197
100
AcDbEntity
8
0
100
AcDbCircle
10
99.118749999999977
20
32.443250000000006
30
0
40
0.74999999999999289
210
0
220
-0
230
1
100
AcDbArc
50
0
51
90
0
LINE
5
198
100
AcDbEntity
8
0
100
AcDbLine
10
99.868749999999977
20
32.443250000000006
30
0
11
99.868749999999949
21
19.943250000000052
31
0
0
ARC
5
199
100
AcDbEntity
8
0
100
AcDbCircle
10
99.118749999999977
20
19.943250000000052
30
0
40
0.74999999999997513
210
-0
220
0
230
1
100
AcDbArc
50
-90
51
0
0
LINE
5
200
100
AcDbEntity
8
0
100
AcDbLine
10
99.118749999999977
20
19.193250000000077
30
0
11
86.618749999999977
21
19.193250000000059
31
0
0
ARC
5
201
100
AcDbEntity
8
0
100
AcDbCircle
10
86.618749999999977
20
19.943250000000052
30
0
40
0.74999999999999289
210
0
220
0
230
1
100
AcDbArc
50
180
51
270
0
LINE
5
202
100
AcDbEntity
8
0
100
AcDbLine
10
108.30674999999997
20
33.443250000000013
30
0
11
108.30674999999997
21
18.943250000000027
31
0
0
ARC
5
203
100
AcDbEntity
8
0
100
AcDbCircle
10
107.55674999999997
20
18.943250000000027
30
0
40
0.74999999999999289
210
-0
220
0
230
1
100
AcDbArc
50
-90
51
0
0
LINE
5
204
100
AcDbEntity
8
0
100
AcDbLine
10
107.55674999999997
20
18.193250000000035
30
0
11
102.05674999999997
21
18.193250000000035
31
0
0
ARC
5
205
100
AcDbEntity
8
0
100
AcDbCircle
10
102.05674999999997
20
18.943250000000027
30
0
40
0.74999999999999289
210
0
220
0
230
1
100
AcDbArc
50
180
51
270
0
LINE
5
206
100
AcDbEntity
8
0
100
AcDbLine
10
101.30674999999997
20
18.943250000000027
30
0
11
101.30674999999997
21
33.443250000000013
31
0
0
ARC
5
207
100
AcDbEntity
8
0
100
AcDbCircle
10
102.05674999999997
20
33.443250000000013
30
0
40
0.75000000000000178
210
0
220
-0
230
1
100
AcDbArc
50
90
51
180
0
LINE
5
208
100
AcDbEntity
8
0
100
AcDbLine
10
102.05674999999997
20
34.193250000000013
30
0
11
107.55674999999997
21
34.193250000000006
31
0
0
ARC
5
209
100
AcDbEntity
8
0
100
AcDbCircle
10
107.55674999999997
20
33.443250000000013
30
0
40
0.74999999999999289
210
0
220
-0
230
1
100
AcDbArc
50
0
51
90
0
ARC
5
210
100
AcDbEntity
8
0
100
AcDbCircle
10
96.143749999999983
20
56.255750000000063
30
0
40
0.74999999999999289
210
0
220
-0
230
1
100
AcDbArc
50
90
51
180
0
LINE
5
211
100
AcDbEntity
8
0
100
AcDbLine
10
95.393749999999955
20
43.755750000000006
30
0
11
95.393749999999997
21
56.255750000000063
31
0
0
ARC
5
212
100
AcDbEntity
8
0
100
AcDbCircle
10
96.143749999999983
20
43.755750000000006
30
0
40
0.75000000000002842
210
0
220
0
230
1
100
AcDbArc
50
180
51
270
0
LINE
5
213
100
AcDbEntity
8
0
100
AcDbLine
10
108.64374999999998
20
43.005750000000049
30
0
11
96.143749999999983
21
43.005749999999978
31
0
0
ARC
5
214
100
AcDbEntity
8
0
100
AcDbCircle
10
108.64374999999998
20
43.755750000000013
30
0
40
0.74999999999996625
210
-0
220
0
230
1
100
AcDbArc
50
-90
51
0
0
LINE
5
215
100
AcDbEntity
8
0
100
AcDbLine
10
109.39375000000015
20
56.255749999999971
30
0
11
109.39374999999995
21
43.755750000000013
31
0
0
ARC
5
216
100
AcDbEntity
8
0
100
AcDbCircle
10
108.64374999999998
20
56.255750000000063
30
0
40
0.75000000000017053
210
-0
220
0
230
1
100
AcDbArc
50
0
51
90
0
LINE
5
217
100
AcDbEntity
8
0
100
AcDbLine
10
96.143749999999983
20
57.005750000000063
30
0
11
108.64374999999998
21
57.005750000000234
31
0
0
ARC
5
218
100
AcDbEntity
8
0
100
AcDbCircle
10
23.443749999999994
20
-42.756749999999819
30
0
40
0.75000000000002842
210
0
220
-0
230
1
100
AcDbArc
50
90
51
180
0
LINE
5
219
100
AcDbEntity
8
0
100
AcDbLine
10
22.693750000000037
20
-57.256750000000309
30
0
11
22.693749999999966
21
-42.756749999999819
31
0
0
ARC
5
220
100
AcDbEntity
8
0
100
AcDbCircle
10
23.443749999999994
20
-57.256750000000309
30
0
40
0.74999999999995737
210
0
220
0
230
1
100
AcDbArc
50
180
51
270
0
LINE
5
221
100
AcDbEntity
8
0
100
AcDbLine
10
28.943750000000001
20
-58.006750000000267
30
0
11
23.443749999999994
21
-58.006750000000267
31
0
0
ARC
5
222
100
AcDbEntity
8
0
100
AcDbCircle
10
28.943750000000001
20
-57.256750000000309
30
0
40
0.74999999999995737
210
-0
220
0
230
1
100
AcDbArc
50
-90
51
0
0
LINE
5
223
100
AcDbEntity
8
0
100
AcDbLine
10
29.693749999999994
20
-42.756749999999819
30
0
11
29.693749999999959
21
-57.256750000000309
31
0
0
ARC
5
224
100
AcDbEntity
8
0
100
AcDbCircle
10
28.943750000000001
20
-42.756749999999819
30
0
40
0.74999999999999289
210
-0
220
0
230
1
100
AcDbArc
50
0
51
90
0
LINE
5
225
100
AcDbEntity
8
0
100
AcDbLine
10
23.443749999999994
20
-42.006749999999791
30
0
11
28.943750000000001
21
-42.006749999999826
31
0
0
ARC
5
226
100
AcDbEntity
8
0
100
AcDbCircle
10
92.190999999999974
20
45.75575000000002
30
0
40
0.74999999999999289
210
-0
220
0
230
1
100
AcDbArc
50
-90
51
0
0
LINE
5
227
100
AcDbEntity
8
0
100
AcDbLine
10
92.940999999999974
20
56.255749999999971
30
0
11
92.940999999999974
21
45.755750000000042
31
0
0
ARC
5
228
100
AcDbEntity
8
0
100
AcDbCircle
10
92.190999999999974
20
56.255750000000063
30
0
40
0.74999999999999289
210
-0
220
0
230
1
100
AcDbArc
50
0
51
90
0
LINE
5
229
100
AcDbEntity
8
0
100
AcDbLine
10
88.78449999999998
20
57.00575000000002
30
0
11
92.190999999999974
21
57.005750000000063
31
0
0
ARC
5
230
100
AcDbEntity
8
0
100
AcDbCircle
10
88.78449999999998
20
56.255750000000063
30
0
40
0.74999999999995737
210
0
220
-0
230
1
100
AcDbArc
50
90
51
180
0
LINE
5
231
100
AcDbEntity
8
0
100
AcDbLine
10
88.03449999999998
20
45.755750000000042
30
0
11
88.034500000000008
21
56.255749999999978
31
0
0
ARC
5
232
100
AcDbEntity
8
0
100
AcDbCircle
10
88.78449999999998
20
45.75575000000002
30
0
40
0.74999999999999289
210
0
220
0
230
1
100
AcDbArc
50
180
51
270.00000000000108
0
LINE
5
233
100
AcDbEntity
8
0
100
AcDbLine
10
92.190999999999974
20
45.005750000000035
30
0
11
88.78449999999998
21
45.005750000000035
31
0
0
LINE
5
234
100
AcDbEntity
8
0
100
AcDbLine
10
107.26249999999996
20
6.0562500000002739
30
0
11
92.762499999999974
21
6.0562499999995811
31
0
0
ARC
5
235
100
AcDbEntity
8
0
100
AcDbCircle
10
92.762499999999974
20
6.806249999999574
30
0
40
0.74999999999999289
210
0
220
0
230
1
100
AcDbArc
50
180
51
270
0
LINE
5
236
100
AcDbEntity
8
0
100
AcDbLine
10
92.012499999999989
20
6.806249999999574
30
0
11
92.012499999999946
21
12.30625000000015
31
0
0
ARC
5
237
100
AcDbEntity
8
0
100
AcDbCircle
10
92.762499999999974
20
12.306250000000052
30
0
40
0.7500000000000373
210
0
220
-0
230
1
100
AcDbArc
50
90
51
180
0
LINE
5
238
100
AcDbEntity
8
0
100
AcDbLine
10
92.762499999999974
20
13.056250000000089
30
0
11
107.26249999999897
21
13.056250000000045
31
0
0
ARC
5
239
100
AcDbEntity
8
0
100
AcDbCircle
10
107.26249999999897
20
12.306250000000052
30
0
40
0.74999999999999289
210
0
220
-0
230
1
100
AcDbArc
50
0
51
90
0
LINE
5
240
100
AcDbEntity
8
0
100
AcDbLine
10
108.01249999999897
20
12.306250000000052
30
0
11
108.01249999999985
21
6.806250000000178
31
0
0
ARC
5
241
100
AcDbEntity
8
0
100
AcDbCircle
10
107.26249999999996
20
6.806250000000178
30
0
40
0.74999999999990408
210
-0
220
0
230
1
100
AcDbArc
50
-90
51
0
0
ARC
5
242
100
AcDbEntity
8
0
100
AcDbCircle
10
83.680749999999975
20
18.943250000000027
30
0
40
0.74999999999995737
210
-0
220
0
230
1
100
AcDbArc
50
-90
51
0
0
LINE
5
243
100
AcDbEntity
8
0
100
AcDbLine
10
84.430749999999961
20
33.443250000000013
30
0
11
84.430749999999932
21
18.943250000000027
31
0
0
ARC
5
244
100
AcDbEntity
8
0
100
AcDbCircle
10
83.680749999999975
20
33.443250000000013
30
0
40
0.74999999999999289
210
0
220
-0
230
1
100
AcDbArc
50
0
51
90
0
LINE
5
245
100
AcDbEntity
8
0
100
AcDbLine
10
78.180749999999961
20
34.193250000000013
30
0
11
83.680749999999975
21
34.193250000000006
31
0
0
ARC
5
246
100
AcDbEntity
8
0
100
AcDbCircle
10
78.180749999999961
20
33.443250000000013
30
0
40
0.75000000000000178
210
0
220
-0
230
1
100
AcDbArc
50
90
51
180
0
LINE
5
247
100
AcDbEntity
8
0
100
AcDbLine
10
77.43074999999979
20
18.943250000000234
30
0
11
77.430749999999975
21
33.443250000000013
31
0
0
ARC
5
248
100
AcDbEntity
8
0
100
AcDbCircle
10
78.180749999999961
20
18.943250000000234
30
0
40
0.75000000000017053
210
0
220
0
230
1
100
AcDbArc
50
180
51
270
0
LINE
5
249
100
AcDbEntity
8
0
100
AcDbLine
10
83.680749999999975
20
18.19325000000007
30
0
11
78.180749999999961
21
18.193250000000063
31
0
0
ARC
5
250
100
AcDbEntity
8
0
100
AcDbCircle
10
93.762499999999989
20
3.8682500000000974
30
0
40
0.75000000000001066
210
0
220
-0
230
1
100
AcDbArc
50
90
51
180
0
LINE
5
251
100
AcDbEntity
8
0
100
AcDbLine
10
93.012499999999989
20
-8.6317499999998848
30
0
11
93.012499999999989
21
3.8682500000000619
31
0
0
ARC
5
252
100
AcDbEntity
8
0
100
AcDbCircle
10
93.762499999999989
20
-8.6317499999999558
30
0
40
0.74999999999999289
210
0
220
0
230
1
100
AcDbArc
50
180
51
270
0
LINE
5
253
100
AcDbEntity
8
0
100
AcDbLine
10
106.26249999999999
20
-9.3817499999999665
30
0
11
93.762499999999989
21
-9.3817499999999487
31
0
0
ARC
5
254
100
AcDbEntity
8
0
100
AcDbCircle
10
106.26249999999999
20
-8.6317499999999558
30
0
40
0.75000000000001066
210
-0
220
0
230
1
100
AcDbArc
50
-90
51
0
0
LINE
5
255
100
AcDbEntity
8
0
100
AcDbLine
10
107.01249999999999
20
3.8682500000000708
30
0
11
107.01249999999999
21
-8.6317499999999026
31
0
0
ARC
5
256
100
AcDbEntity
8
0
100
AcDbCircle
10
106.26249999999999
20
3.8682500000000974
30
0
40
0.74999999999999289
210
-0
220
0
230
1
100
AcDbArc
50
0
51
89.99999999999892
0
LINE
5
257
100
AcDbEntity
8
0
100
AcDbLine
10
93.762499999999989
20
4.6182500000001081
30
0
11
106.26249999999999
21
4.6182500000000459
31
0
0
ARC
5
258
100
AcDbEntity
8
0
100
AcDbCircle
10
-85.356250000000031
20
-42.756749999999819
30
0
40
0.74999999999999289
210
0
220
-0
230
1
100
AcDbArc
50
0
51
90
0
LINE
5
259
100
AcDbEntity
8
0
100
AcDbLine
10
-90.856249999999932
20
-42.006749999999791
30
0
11
-85.356250000000031
21
-42.006749999999826
31
0
0
ARC
5
260
100
AcDbEntity
8
0
100
AcDbCircle
10
-90.856249999999932
20
-42.756749999999819
30
0
40
0.75000000000002842
210
0
220
-0
230
1
100
AcDbArc
50
90
51
180
0
LINE
5
261
100
AcDbEntity
8
0
100
AcDbLine
10
-91.60624999999996
20
-57.256750000000309
30
0
11
-91.60624999999996
21
-42.756749999999819
31
0
0
ARC
5
262
100
AcDbEntity
8
0
100
AcDbCircle
10
-90.856249999999932
20
-57.256750000000309
30
0
40
0.75000000000002842
210
0
220
0
230
1
100
AcDbArc
50
180
51
270
0
LINE
5
263
100
AcDbEntity
8
0
100
AcDbLine
10
-85.356249999999932
20
-58.00674999999984
30
0
11
-90.856249999999932
21
-58.006750000000338
31
0
0
ARC
5
264
100
AcDbEntity
8
0
100
AcDbCircle
10
-85.356249999999932
20
-57.256750000000309
30
0
40
0.74999999999953104
210
-0
220
0
230
1
100
AcDbArc
50
-90
51
0
0
LINE
5
265
100
AcDbEntity
8
0
100
AcDbLine
10
-84.606250000000045
20
-42.756749999999798
30
0
11
-84.606250000000387
21
-57.256750000000309
31
0
0
ARC
5
266
100
AcDbEntity
8
0
100
AcDbCircle
10
116.00374999999997
20
-58.256683207000641
30
0
40
0.74999999999999289
210
-0
220
0
230
1
100
AcDbArc
50
-90
51
0
0
LINE
5
267
100
AcDbEntity
8
0
100
AcDbLine
10
116.75374999999995
20
30.443250000000081
30
0
11
116.75374999999995
21
-58.256683207000641
31
0
0
ARC
5
268
100
AcDbEntity
8
0
100
AcDbCircle
10
116.00374999999997
20
30.443250000000074
30
0
40
0.74999999999999289
210
0
220
-0
230
1
100
AcDbArc
50
0
51
90
0
LINE
5
269
100
AcDbEntity
8
0
100
AcDbLine
10
112.59674999999999
20
31.193250000000074
30
0
11
116.00374999999997
21
31.193250000000067
31
0
0
ARC
5
270
100
AcDbEntity
8
0
100
AcDbCircle
10
112.59674999999999
20
30.443250000000074
30
0
40
0.75000000000000178
210
0
220
-0
230
1
100
AcDbArc
50
90
51
180
0
LINE
5
271
100
AcDbEntity
8
0
100
AcDbLine
10
111.84674999999395
20
-57.006689953566294
30
0
11
111.84674999999999
21
30.443250000000077
31
0
0
LINE
5
272
100
AcDbEntity
8
0
100
AcDbLine
10
111.84350887538514
20
-58.254735493410607
30
0
11
111.84674999999395
21
-57.006689953566294
31
0
0
ARC
5
273
100
AcDbEntity
8
0
100
AcDbCircle
10
112.59350634632199
20
-58.256683207000641
30
0
40
0.74999999999993061
210
0
220
0
230
1
100
AcDbArc
50
179.85120547487236
51
270
0
LINE
5
274
100
AcDbEntity
8
0
100
AcDbLine
10
116.00374999999997
20
-59.006683207000634
30
0
11
112.59350634632199
21
-59.006683207000577
31
0
0
LINE
5
275
100
AcDbEntity
8
0
100
AcDbLine
10
71.581249999999983
20
-18.15674999999996
30
0
11
71.581250000000011
21
-5.656749999999926
31
0
0
ARC
5
276
100
AcDbEntity
8
0
100
AcDbCircle
10
72.331250000000011
20
-5.6567499999999171
30
0
40
0.74999999999999289
210
0
220
-0
230
1
100
AcDbArc
50
90
51
180
0
LINE
5
277
100
AcDbEntity
8
0
100
AcDbLine
10
72.331250000000011
20
-4.9067499999999242
30
0
11
84.831250000000011
21
-4.9067499999999242
31
0
0
ARC
5
278
100
AcDbEntity
8
0
100
AcDbCircle
10
84.831250000000011
20
-5.6567499999999171
30
0
40
0.74999999999999289
210
-0
220
0
230
1
100
AcDbArc
50
0
51
90
0
LINE
5
279
100
AcDbEntity
8
0
100
AcDbLine
10
85.581250000000011
20
-5.6567499999999882
30
0
11
85.581250000000011
21
-18.156749999999924
31
0
0
ARC
5
280
100
AcDbEntity
8
0
100
AcDbCircle
10
84.831250000000011
20
-18.156749999999981
30
0
40
0.74999999999999289
210
-0
220
0
230
1
100
AcDbArc
50
-90
51
0
0
LINE
5
281
100
AcDbEntity
8
0
100
AcDbLine
10
84.831250000000011
20
-18.906749999999974
30
0
11
72.33125000000004
21
-18.906750000000009
31
0
0
ARC
5
282
100
AcDbEntity
8
0
100
AcDbCircle
10
72.331250000000011
20
-18.156749999999981
30
0
40
0.75000000000002842
210
0
220
0
230
1
100
AcDbArc
50
180
51
270.0000000000021
0
ARC
5
283
100
AcDbEntity
8
0
100
AcDbCircle
10
-168.17499999999993
20
-37.206749999999893
30
0
40
0.74999999999999289
210
0
220
0
230
1
100
AcDbArc
50
180
51
270
0
LINE
5
284
100
AcDbEntity
8
0
100
AcDbLine
10
-155.67499999999993
20
-37.956749999999886
30
0
11
-168.17499999999995
21
-37.956749999999886
31
0
0
ARC
5
285
100
AcDbEntity
8
0
100
AcDbCircle
10
-155.67499999999993
20
-37.206749999999893
30
0
40
0.74999999999999289
210
-0
220
0
230
1
100
AcDbArc
50
270
51
360
0
LINE
5
286
100
AcDbEntity
8
0
100
AcDbLine
10
-154.92499999999993
20
-24.706749999999992
30
0
11
-154.92499999999993
21
-37.206750000000497
31
0
0
ARC
5
287
100
AcDbEntity
8
0
100
AcDbCircle
10
-155.67499999999993
20
-24.706749999999921
30
0
40
0.75000000000001066
210
-0
220
0
230
1
100
AcDbArc
50
0
51
90
0
LINE
5
288
100
AcDbEntity
8
0
100
AcDbLine
10
-168.17499999999993
20
-23.956749999999928
30
0
11
-155.67499999999993
21
-23.956749999999918
31
0
0
ARC
5
289
100
AcDbEntity
8
0
100
AcDbCircle
10
-168.17499999999993
20
-24.706749999999921
30
0
40
0.74999999999999289
210
0
220
-0
230
1
100
AcDbArc
50
90
51
180
0
LINE
5
290
100
AcDbEntity
8
0
100
AcDbLine
10
-168.9249999999999
20
-37.206750000000177
30
0
11
-168.9249999999999
21
-24.706749999999936
31
0
0
LINE
5
291
100
AcDbEntity
8
0
100
AcDbLine
10
-147.49375000000003
20
-37.206749999999772
30
0
11
-147.49375000000003
21
-24.706750000000007
31
0
0
ARC
5
292
100
AcDbEntity
8
0
100
AcDbCircle
10
-146.74375000000003
20
-24.706749999999921
30
0
40
0.74999999999999289
210
0
220
-0
230
1
100
AcDbArc
50
89.999999999993491
51
180
0
LINE
5
293
100
AcDbEntity
8
0
100
AcDbLine
10
-146.74374999999995
20
-23.956749999999928
30
0
11
-134.24374999999995
21
-23.956750000000014
31
0
0
ARC
5
294
100
AcDbEntity
8
0
100
AcDbCircle
10
-134.24375000000003
20
-24.706750000000028
30
0
40
0.75000000000001066
210
0
220
-0
230
1
100
AcDbArc
50
0
51
89.999999999993491
0
LINE
5
295
100
AcDbEntity
8
0
100
AcDbLine
10
-133.49375000000003
20
-24.706749999999921
30
0
11
-133.49374999999961
21
-37.206749999999786
31
0
0
ARC
5
296
100
AcDbEntity
8
0
100
AcDbCircle
10
-134.24375000000003
20
-37.206749999999893
30
0
40
0.75000000000041922
210
-0
220
0
230
1
100
AcDbArc
50
-89.999999999993491
51
0
0
LINE
5
297
100
AcDbEntity
8
0
100
AcDbLine
10
-134.24374999999995
20
-37.956750000000312
30
0
11
-146.74374999999995
21
-37.956749999999886
31
0
0
ARC
5
298
100
AcDbEntity
8
0
100
AcDbCircle
10
-146.74375000000003
20
-37.206749999999893
30
0
40
0.74999999999999289
210
0
220
0
230
1
100
AcDbArc
50
180
51
270.00000000000864
0
LINE
5
299
100
AcDbEntity
8
0
100
AcDbLine
10
119.20625000000004
20
19.943250000000052
30
0
11
119.20624999999994
21
32.443250000000006
31
0
0
ARC
5
300
100
AcDbEntity
8
0
100
AcDbCircle
10
119.95625000000001
20
32.443250000000006
30
0
40
0.75000000000005951
210
0
220
-0
230
1
100
AcDbArc
50
90
51
180
0
LINE
5
301
100
AcDbEntity
8
0
100
AcDbLine
10
119.95625000000001
20
33.193250000000063
30
0
11
132.45625000000001
21
33.193250000000035
31
0
0
ARC
5
302
100
AcDbEntity
8
0
100
AcDbCircle
10
132.45625000000001
20
32.443250000000006
30
0
40
0.75000000000002842
210
0
220
-0
230
1
100
AcDbArc
50
0
51
90
0
LINE
5
303
100
AcDbEntity
8
0
100
AcDbLine
10
133.20625000000004
20
32.443250000000006
30
0
11
133.20625000000004
21
19.943250000000052
31
0
0
ARC
5
304
100
AcDbEntity
8
0
100
AcDbCircle
10
132.45625000000001
20
19.943250000000052
30
0
40
0.75000000000002842
210
-0
220
0
230
1
100
AcDbArc
50
-90
51
0
0
LINE
5
305
100
AcDbEntity
8
0
100
AcDbLine
10
132.45625000000001
20
19.193250000000024
30
0
11
119.95625000000001
21
19.193250000000095
31
0
0
ARC
5
306
100
AcDbEntity
8
0
100
AcDbCircle
10
119.95625000000001
20
19.943250000000052
30
0
40
0.74999999999995737
210
0
220
0
230
1
100
AcDbArc
50
180
51
270
0
LINE
5
307
100
AcDbEntity
8
0
100
AcDbLine
10
169.30625000000018
20
39.802499999999881
30
0
11
169.30625000000009
21
36.374500000000118
31
0
0
ARC
5
308
100
AcDbEntity
8
0
100
AcDbCircle
10
168.55625000000001
20
36.374500000000211
30
0
40
0.75000000000012168
210
-0
220
0
230
1
100
AcDbArc
50
270
51
360
0
LINE
5
309
100
AcDbEntity
8
0
100
AcDbLine
10
168.55625000000001
20
35.624500000000083
30
0
11
117.95625000000001
21
35.624500000000069
31
0
0
ARC
5
310
100
AcDbEntity
8
0
100
AcDbCircle
10
117.95625000000001
20
36.374500000000012
30
0
40
0.74999999999999289
210
0
220
0
230
1
100
AcDbArc
50
180
51
270.00000000000108
0
LINE
5
311
100
AcDbEntity
8
0
100
AcDbLine
10
117.20625000000001
20
36.374500000000019
30
0
11
117.20625000000001
21
39.802499999999981
31
0
0
ARC
5
312
100
AcDbEntity
8
0
100
AcDbCircle
10
117.95625000000001
20
39.802500000000066
30
0
40
0.74999999999998845
210
0
220
-0
230
1
100
AcDbArc
50
90
51
180
0
LINE
5
313
100
AcDbEntity
8
0
100
AcDbLine
10
117.95625000000001
20
40.552500000000052
30
0
11
168.55625000000001
21
40.552500000000038
31
0
0
ARC
5
314
100
AcDbEntity
8
0
100
AcDbCircle
10
168.55625000000001
20
39.802499999999867
30
0
40
0.75000000000017053
210
0
220
-0
230
1
100
AcDbArc
50
0
51
90
0
ARC
5
315
100
AcDbEntity
8
0
100
AcDbCircle
10
-129.48125000000002
20
-56.256749999999904
30
0
40
0.75000000000001066
210
-0
220
0
230
1
100
AcDbArc
50
-90
51
0
0
LINE
5
316
100
AcDbEntity
8
0
100
AcDbLine
10
-128.73125000000002
20
-43.756750000000238
30
0
11
-128.73125000000002
21
-56.256749999999904
31
0
0
ARC
5
317
100
AcDbEntity
8
0
100
AcDbCircle
10
-129.48125000000002
20
-43.75675000000026
30
0
40
0.75000000000001066
210
0
220
-0
230
1
100
AcDbArc
50
0
51
90
0
LINE
5
318
100
AcDbEntity
8
0
100
AcDbLine
10
-141.98125000000002
20
-43.006750000000252
30
0
11
-129.48125000000002
21
-43.006750000000252
31
0
0
ARC
5
319
100
AcDbEntity
8
0
100
AcDbCircle
10
-141.98124999999993
20
-43.75675000000026
30
0
40
0.75000000000001066
210
0
220
0
230
1
100
AcDbArc
50
90.000000000008683
51
180
0
LINE
5
320
100
AcDbEntity
8
0
100
AcDbLine
10
-142.73125000000005
20
-56.256749999999904
30
0
11
-142.73124999999996
21
-43.756750000000224
31
0
0
ARC
5
321
100
AcDbEntity
8
0
100
AcDbCircle
10
-141.98124999999993
20
-56.256749999999904
30
0
40
0.75000000000009948
210
0
220
0
230
1
100
AcDbArc
50
180
51
269.99999999999346
0
LINE
5
322
100
AcDbEntity
8
0
100
AcDbLine
10
-129.48125000000002
20
-57.006749999999911
30
0
11
-141.98125000000002
21
-57.006750000000004
31
0
0
ARC
5
323
100
AcDbEntity
8
0
100
AcDbCircle
10
-170.89375000000004
20
0.89325000000002319
30
0
40
0.75000000000002842
210
-0
220
0
230
1
100
AcDbArc
50
-90
51
0
0
LINE
5
324
100
AcDbEntity
8
0
100
AcDbLine
10
-170.14375000000004
20
13.393250000000005
30
0
11
-170.14374999999995
21
0.89325000000002319
31
0
0
ARC
5
325
100
AcDbEntity
8
0
100
AcDbCircle
10
-170.89375000000004
20
13.393250000000005
30
0
40
0.74999999999999289
210
-0
220
0
230
1
100
AcDbArc
50
0
51
90
0
LINE
5
326
100
AcDbEntity
8
0
100
AcDbLine
10
-171.39374999999995
20
14.143249999999998
30
0
11
-170.89375000000004
21
14.143249999999945
31
0
0
ARC
5
327
100
AcDbEntity
8
0
100
AcDbCircle
10
-171.39374999999995
20
13.393250000000005
30
0
40
0.74999999999999289
210
0
220
-0
230
1
100
AcDbArc
50
90
51
180
0
LINE
5
328
100
AcDbEntity
8
0
100
AcDbLine
10
-172.14374999999995
20
0.89325000000002319
30
0
11
-172.14374999999993
21
13.393250000000005
31
0
0
ARC
5
329
100
AcDbEntity
8
0
100
AcDbCircle
10
-171.39374999999995
20
0.89325000000002319
30
0
40
0.75000000000002842
210
0
220
0
230
1
100
AcDbArc
50
180
51
270
0
LINE
5
330
100
AcDbEntity
8
0
100
AcDbLine
10
-170.89375000000004
20
0.14324999999999477
30
0
11
-171.39374999999995
21
0.14324999999997701
31
0
0
LINE
5
331
100
AcDbEntity
8
0
100
AcDbLine
10
-152.54375000000002
20
-43.756750000000224
30
0
11
-152.54374999999993
21
-56.256749999999904
31
0
0
ARC
5
332
100
AcDbEntity
8
0
100
AcDbCircle
10
-153.29374999999993
20
-56.256749999999904
30
0
40
0.75000000000009948
210
-0
220
0
230
1
100
AcDbArc
50
-90
51
0
0
LINE
5
333
100
AcDbEntity
8
0
100
AcDbLine
10
-153.29374999999993
20
-57.006750000000004
30
0
11
-165.79375000000002
21
-57.00675000000043
31
0
0
ARC
5
334
100
AcDbEntity
8
0
100
AcDbCircle
10
-165.79375000000002
20
-56.256749999999904
30
0
40
0.75000000000002842
210
0
220
0
230
1
100
AcDbArc
50
180
51
270
0
LINE
5
335
100
AcDbEntity
8
0
100
AcDbLine
10
-166.54375000000005
20
-56.256749999999904
30
0
11
-166.54374999999999
21
-43.756750000000224
31
0
0
ARC
5
336
100
AcDbEntity
8
0
100
AcDbCircle
10
-165.79375000000002
20
-43.756750000000224
30
0
40
0.74999999999995737
210
0
220
-0
230
1
100
AcDbArc
50
90
51
180
0
LINE
5
337
100
AcDbEntity
8
0
100
AcDbLine
10
-165.79375000000002
20
-43.006750000000267
30
0
11
-153.29374999999993
21
-43.006749999999698
31
0
0
ARC
5
338
100
AcDbEntity
8
0
100
AcDbCircle
10
-153.29374999999993
20
-43.756750000000224
30
0
40
0.74999999999992184
210
0
220
-0
230
1
100
AcDbArc
50
0
51
90
0
LINE
5
339
100
AcDbEntity
8
0
100
AcDbLine
10
-171.30624999999995
20
43.755750000000013
30
0
11
-171.30625000000006
21
56.255749999999971
31
0
0
ARC
5
340
100
AcDbEntity
8
0
100
AcDbCircle
10
-170.55625000000003
20
56.255749999999971
30
0
40
0.75000000000002842
210
0
220
-0
230
1
100
AcDbArc
50
90
51
180
0
LINE
5
341
100
AcDbEntity
8
0
100
AcDbLine
10
-170.55625000000003
20
57.005749999999999
30
0
11
-158.05625000000003
21
57.00575000000002
31
0
0
ARC
5
342
100
AcDbEntity
8
0
100
AcDbCircle
10
-158.05625000000003
20
56.255749999999971
30
0
40
0.74999999999999289
210
0
220
-0
230
1
100
AcDbArc
50
0
51
90
0
LINE
5
343
100
AcDbEntity
8
0
100
AcDbLine
10
-157.30625000000003
20
56.255749999999971
30
0
11
-157.30625000000003
21
43.755750000000013
31
0
0
ARC
5
344
100
AcDbEntity
8
0
100
AcDbCircle
10
-158.05625000000003
20
43.755750000000013
30
0
40
0.74999999999995737
210
-0
220
0
230
1
100
AcDbArc
50
-90
51
0
0
LINE
5
345
100
AcDbEntity
8
0
100
AcDbLine
10
-158.05625000000003
20
43.005750000000056
30
0
11
-170.55625000000003
21
43.005750000000049
31
0
0
ARC
5
346
100
AcDbEntity
8
0
100
AcDbCircle
10
-170.55625000000003
20
43.755750000000013
30
0
40
0.74999999999992184
210
0
220
0
230
1
100
AcDbArc
50
180
51
270
0
ARC
5
347
100
AcDbEntity
8
0
100
AcDbCircle
10
132.45625000000001
20
13.393250000000005
30
0
40
0.75000000000002842
210
0
220
-0
230
1
100
AcDbArc
50
0
51
90
0
LINE
5
348
100
AcDbEntity
8
0
100
AcDbLine
10
119.95625000000001
20
14.143249999999998
30
0
11
132.45625000000001
21
14.143250000000043
31
0
0
ARC
5
349
100
AcDbEntity
8
0
100
AcDbCircle
10
119.95625000000001
20
13.393250000000005
30
0
40
0.74999999999999289
210
0
220
-0
230
1
100
AcDbArc
50
90
51
180
0
LINE
5
350
100
AcDbEntity
8
0
100
AcDbLine
10
119.20625000000018
20
0.89325000000002319
30
0
11
119.20625000000001
21
13.393250000000005
31
0
0
ARC
5
351
100
AcDbEntity
8
0
100
AcDbCircle
10
119.95625000000001
20
0.89325000000002319
30
0
40
0.74999999999981526
210
0
220
0
230
1
100
AcDbArc
50
180
51
270
0
LINE
5
352
100
AcDbEntity
8
0
100
AcDbLine
10
132.45625000000001
20
0.14324999999999477
30
0
11
119.95625000000001
21
0.14325000000018129
31
0
0
ARC
5
353
100
AcDbEntity
8
0
100
AcDbCircle
10
132.45625000000001
20
0.89325000000002319
30
0
40
0.75000000000002842
210
-0
220
0
230
1
100
AcDbArc
50
-90
51
0
0
LINE
5
354
100
AcDbEntity
8
0
100
AcDbLine
10
133.20625000000004
20
13.393250000000005
30
0
11
133.20625000000001
21
0.89325000000002319
31
0
0
LINE
5
355
100
AcDbEntity
8
0
100
AcDbLine
10
-9.3812500000001364
20
43.755750000000013
30
0
11
-9.3812500000000298
21
56.255749999999971
31
0
0
ARC
5
356
100
AcDbEntity
8
0
100
AcDbCircle
10
-8.6312500000000369
20
56.255749999999971
30
0
40
0.74999999999999289
210
0
220
-0
230
1
100
AcDbArc
50
90
51
180
0
LINE
5
357
100
AcDbEntity
8
0
100
AcDbLine
10
-8.6312500000000369
20
57.005749999999964
30
0
11
3.8687499999999631
21
57.005749999999928
31
0
0
ARC
5
358
100
AcDbEntity
8
0
100
AcDbCircle
10
3.8687499999999631
20
56.255749999999971
30
0
40
0.74999999999995737
210
0
220
0
230
1
100
AcDbArc
50
0
51
90
0
LINE
5
359
100
AcDbEntity
8
0
100
AcDbLine
10
4.6187499999999204
20
56.255749999999971
30
0
11
4.6187499999999559
21
43.755750000000013
31
0
0
ARC
5
360
100
AcDbEntity
8
0
100
AcDbCircle
10
3.8687499999999631
20
43.755750000000006
30
0
40
0.74999999999999289
210
-0
220
0
230
1
100
AcDbArc
50
-90
51
0
0
LINE
5
361
100
AcDbEntity
8
0
100
AcDbLine
10
3.8687499999999631
20
43.005750000000013
30
0
11
-8.6312500000000369
21
43.005749999999949
31
0
0
ARC
5
362
100
AcDbEntity
8
0
100
AcDbCircle
10
-8.6312500000000369
20
43.755750000000013
30
0
40
0.75000000000009948
210
0
220
0
230
1
100
AcDbArc
50
180
51
270
0
LINE
5
363
100
AcDbEntity
8
0
100
AcDbLine
10
-122.51874999999995
20
-43.756750000000224
30
0
11
-122.51874999999984
21
-56.256749999999904
31
0
0
ARC
5
364
100
AcDbEntity
8
0
100
AcDbCircle
10
-123.26874999999994
20
-56.256749999999904
30
0
40
0.75000000000009948
210
-0
220
0
230
1
100
AcDbArc
50
-90
51
0
0
LINE
5
365
100
AcDbEntity
8
0
100
AcDbLine
10
-123.26874999999994
20
-57.006750000000004
30
0
11
-123.76875000000004
21
-57.006749999999812
31
0
0
ARC
5
366
100
AcDbEntity
8
0
100
AcDbCircle
10
-123.76875000000001
20
-56.256749999999904
30
0
40
0.74999999999990408
210
0
220
0
230
1
100
AcDbArc
50
180
51
270
0
LINE
5
367
100
AcDbEntity
8
0
100
AcDbLine
10
-124.51874999999994
20
-56.256749999999904
30
0
11
-124.51875
21
-43.756750000000224
31
0
0
ARC
5
368
100
AcDbEntity
8
0
100
AcDbCircle
10
-123.76875000000001
20
-43.756750000000224
30
0
40
0.74999999999995737
210
0
220
-0
230
1
100
AcDbArc
50
90
51
180
0
LINE
5
369
100
AcDbEntity
8
0
100
AcDbLine
10
-123.76875000000001
20
-43.006750000000267
30
0
11
-123.26874999999993
21
-43.006750000000231
31
0
0
ARC
5
370
100
AcDbEntity
8
0
100
AcDbCircle
10
-123.26874999999994
20
-43.756750000000224
30
0
40
0.74999999999999289
210
0
220
-0
230
1
100
AcDbArc
50
0
51
90
0
LINE
5
371
100
AcDbEntity
8
0
100
AcDbLine
10
152.25625000000011
20
13.393250000000005
30
0
11
152.25624999999997
21
0.89325000000002319
31
0
0
ARC
5
372
100
AcDbEntity
8
0
100
AcDbCircle
10
151.50624999999994
20
0.89325000000002319
30
0
40
0.75000000000002842
210
-0
220
0
230
1
100
AcDbArc
50
-90
51
0
0
LINE
5
373
100
AcDbEntity
8
0
100
AcDbLine
10
151.50624999999994
20
0.14324999999999477
30
0
11
139.00624999999994
21
0.14324999999997701
31
0
0
ARC
5
374
100
AcDbEntity
8
0
100
AcDbCircle
10
139.00624999999994
20
0.89325000000002319
30
0
40
0.75000000000002842
210
0
220
0
230
1
100
AcDbArc
50
180
51
270
0
LINE
5
375
100
AcDbEntity
8
0
100
AcDbLine
10
138.25624999999991
20
0.89325000000002319
30
0
11
138.25624999999991
21
13.393250000000005
31
0
0
ARC
5
376
100
AcDbEntity
8
0
100
AcDbCircle
10
139.00624999999994
20
13.393250000000005
30
0
40
0.74999999999999289
210
0
220
-0
230
1
100
AcDbArc
50
90
51
180
0
LINE
5
377
100
AcDbEntity
8
0
100
AcDbLine
10
139.00624999999994
20
14.143249999999998
30
0
11
151.50624999999994
21
14.143250000000043
31
0
0
ARC
5
378
100
AcDbEntity
8
0
100
AcDbCircle
10
151.50624999999994
20
13.393250000000005
30
0
40
0.75000000000017053
210
-0
220
0
230
1
100
AcDbArc
50
0
51
90
0
LINE
5
379
100
AcDbEntity
8
0
100
AcDbLine
10
-46.731250000000024
20
57.005749999999964
30
0
11
-34.231250000000024
21
57.00575000000002
31
0
0
ARC
5
380
100
AcDbEntity
8
0
100
AcDbCircle
10
-34.231250000000024
20
56.255749999999971
30
0
40
0.74999999999999289
210
-0
220
0
230
1
100
AcDbArc
50
0
51
90
0
LINE
5
381
100
AcDbEntity
8
0
100
AcDbLine
10
-33.481250000000031
20
56.255749999999971
30
0
11
-33.481250000000031
21
43.755750000000013
31
0
0
ARC
5
382
100
AcDbEntity
8
0
100
AcDbCircle
10
-34.231250000000024
20
43.755750000000013
30
0
40
0.74999999999999289
210
-0
220
0
230
1
100
AcDbArc
50
-90
51
0
0
LINE
5
383
100
AcDbEntity
8
0
100
AcDbLine
10
-34.231250000000024
20
43.00575000000002
30
0
11
-46.731250000000024
21
43.005750000000049
31
0
0
ARC
5
384
100
AcDbEntity
8
0
100
AcDbCircle
10
-46.731250000000024
20
43.755750000000013
30
0
40
0.74999999999995737
210
0
220
0
230
1
100
AcDbArc
50
180
51
270
0
LINE
5
385
100
AcDbEntity
8
0
100
AcDbLine
10
-47.481249999999982
20
43.755750000000013
30
0
11
-47.481250000000017
21
56.255749999999971
31
0
0
ARC
5
386
100
AcDbEntity
8
0
100
AcDbCircle
10
-46.731250000000024
20
56.255749999999971
30
0
40
0.74999999999999289
210
0
220
-0
230
1
100
AcDbArc
50
90
51
180
0
ARC
5
387
100
AcDbEntity
8
0
100
AcDbCircle
10
-147.69374999999994
20
-56.256749999999904
30
0
40
0.75000000000009948
210
-0
220
0
230
1
100
AcDbArc
50
-90
51
0
0
LINE
5
388
100
AcDbEntity
8
0
100
AcDbLine
10
-146.94374999999997
20
-43.756750000000224
30
0
11
-146.94374999999982
21
-56.256749999999904
31
0
0
ARC
5
389
100
AcDbEntity
8
0
100
AcDbCircle
10
-147.69374999999994
20
-43.756750000000224
30
0
40
0.74999999999995737
210
0
220
-0
230
1
100
AcDbArc
50
0
51
90
0
LINE
5
390
100
AcDbEntity
8
0
100
AcDbLine
10
-148.19374999999994
20
-43.006750000000267
30
0
11
-147.69374999999994
21
-43.006749999999698
31
0
0
ARC
5
391
100
AcDbEntity
8
0
100
AcDbCircle
10
-148.19374999999994
20
-43.756750000000224
30
0
40
0.74999999999995737
210
0
220
-0
230
1
100
AcDbArc
50
90
51
180
0
LINE
5
392
100
AcDbEntity
8
0
100
AcDbLine
10
-148.94374999999997
20
-56.256749999999904
30
0
11
-148.94374999999991
21
-43.756750000000224
31
0
0
ARC
5
393
100
AcDbEntity
8
0
100
AcDbCircle
10
-148.19374999999994
20
-56.256749999999904
30
0
40
0.75000000000002842
210
0
220
0
230
1
100
AcDbArc
50
180
51
270
0
LINE
5
394
100
AcDbEntity
8
0
100
AcDbLine
10
-147.69374999999994
20
-57.006750000000004
30
0
11
-148.19374999999994
21
-57.00675000000043
31
0
0
LINE
5
395
100
AcDbEntity
8
0
100
AcDbLine
10
-145.81250000000006
20
-4.9067500000000575
30
0
11
-145.31250000000003
21
-4.9067500000000486
31
0
0
ARC
5
396
100
AcDbEntity
8
0
100
AcDbCircle
10
-145.31250000000003
20
-5.6567500000000148
30
0
40
0.75000000000002842
210
0
220
-0
230
1
100
AcDbArc
50
0
51
90
0
LINE
5
397
100
AcDbEntity
8
0
100
AcDbLine
10
-144.5625
20
-5.6567500000000148
30
0
11
-144.56249999999994
21
-18.156749999999981
31
0
0
ARC
5
398
100
AcDbEntity
8
0
100
AcDbCircle
10
-145.31250000000003
20
-18.156749999999981
30
0
40
0.75000000000002842
210
-0
220
0
230
1
100
AcDbArc
50
-90
51
0
0
LINE
5
399
100
AcDbEntity
8
0
100
AcDbLine
10
-145.31250000000003
20
-18.906750000000009
30
0
11
-145.81250000000006
21
-18.906749999999917
31
0
0
ARC
5
400
100
AcDbEntity
8
0
100
AcDbCircle
10
-145.81250000000006
20
-18.156749999999981
30
0
40
0.74999999999995737
210
0
220
0
230
1
100
AcDbArc
50
180
51
270
0
LINE
5
401
100
AcDbEntity
8
0
100
AcDbLine
10
-146.5625
20
-18.156749999999981
30
0
11
-146.5625
21
-5.6567500000000148
31
0
0
ARC
5
402
100
AcDbEntity
8
0
100
AcDbCircle
10
-145.81250000000006
20
-5.6567500000000148
30
0
40
0.74999999999995737
210
0
220
-0
230
1
100
AcDbArc
50
90
51
180
0
ARC
5
403
100
AcDbEntity
8
0
100
AcDbCircle
10
151.50624999999994
20
-24.706750000000028
30
0
40
0.75000000000002842
210
0
220
-0
230
1
100
AcDbArc
50
0
51
90
0
LINE
5
404
100
AcDbEntity
8
0
100
AcDbLine
10
139.00624999999994
20
-23.95675
30
0
11
151.50624999999994
21
-23.956749999999978
31
0
0
ARC
5
405
100
AcDbEntity
8
0
100
AcDbCircle
10
139.00624999999994
20
-24.706750000000028
30
0
40
0.75000000000002842
210
0
220
-0
230
1
100
AcDbArc
50
90
51
180
0
LINE
5
406
100
AcDbEntity
8
0
100
AcDbLine
10
138.25624999999991
20
-37.206749999999893
30
0
11
138.25624999999991
21
-24.706750000000028
31
0
0
ARC
5
407
100
AcDbEntity
8
0
100
AcDbCircle
10
139.00624999999994
20
-37.206749999999893
30
0
40
0.75000000000002842
210
0
220
0
230
1
100
AcDbArc
50
180
51
270
0
LINE
5
408
100
AcDbEntity
8
0
100
AcDbLine
10
151.50624999999994
20
-37.95674999999985
30
0
11
139.00624999999994
21
-37.956749999999424
31
0
0
ARC
5
409
100
AcDbEntity
8
0
100
AcDbCircle
10
151.50624999999994
20
-37.206749999999893
30
0
40
0.74999999999995737
210
-0
220
0
230
1
100
AcDbArc
50
-90
51
0
0
LINE
5
410
100
AcDbEntity
8
0
100
AcDbLine
10
152.25624999999997
20
-24.706750000000028
30
0
11
152.25624999999997
21
-37.206749999999893
31
0
0
ARC
5
411
100
AcDbEntity
8
0
100
AcDbCircle
10
151.50624999999994
20
43.755750000000006
30
0
40
0.74999999999999289
210
-0
220
0
230
1
100
AcDbArc
50
-90
51
0
0
LINE
5
412
100
AcDbEntity
8
0
100
AcDbLine
10
152.25625000000011
20
56.255750000000063
30
0
11
152.25624999999997
21
43.755750000000013
31
0
0
ARC
5
413
100
AcDbEntity
8
0
100
AcDbCircle
10
151.50624999999994
20
56.255750000000063
30
0
40
0.75000000000017053
210
0
220
0
230
1
100
AcDbArc
50
0
51
90
0
LINE
5
414
100
AcDbEntity
8
0
100
AcDbLine
10
139.00624999999994
20
57.005749999999999
30
0
11
151.50624999999994
21
57.005750000000234
31
0
0
ARC
5
415
100
AcDbEntity
8
0
100
AcDbCircle
10
139.00624999999994
20
56.255749999999971
30
0
40
0.75000000000002842
210
0
220
-0
230
1
100
AcDbArc
50
90
51
180
0
LINE
5
416
100
AcDbEntity
8
0
100
AcDbLine
10
138.25624999999999
20
43.755750000000006
30
0
11
138.25624999999991
21
56.255750000000063
31
0
0
ARC
5
417
100
AcDbEntity
8
0
100
AcDbCircle
10
139.00624999999994
20
43.755750000000006
30
0
40
0.74999999999995737
210
0
220
0
230
1
100
AcDbArc
50
180
51
270
0
LINE
5
418
100
AcDbEntity
8
0
100
AcDbLine
10
151.50624999999994
20
43.005750000000013
30
0
11
139.00624999999994
21
43.005750000000049
31
0
0
LINE
5
419
100
AcDbEntity
8
0
100
AcDbLine
10
-148.19374999999994
20
14.143249999999963
30
0
11
-147.69374999999994
21
14.143249999999963
31
0
0
ARC
5
420
100
AcDbEntity
8
0
100
AcDbCircle
10
-147.69374999999994
20
13.393250000000005
30
0
40
0.74999999999995737
210
0
220
-0
230
1
100
AcDbArc
50
0
51
90
0
LINE
5
421
100
AcDbEntity
8
0
100
AcDbLine
10
-146.94374999999997
20
13.393250000000005
30
0
11
-146.94375000000002
21
0.89325000000002319
31
0
0
ARC
5
422
100
AcDbEntity
8
0
100
AcDbCircle
10
-147.69374999999994
20
0.89325000000002319
30
0
40
0.75000000000002842
210
-0
220
0
230
1
100
AcDbArc
50
-90
51
0
0
LINE
5
423
100
AcDbEntity
8
0
100
AcDbLine
10
-147.69374999999994
20
0.14324999999999477
30
0
11
-148.19374999999994
21
0.14324999999997701
31
0
0
ARC
5
424
100
AcDbEntity
8
0
100
AcDbCircle
10
-148.19374999999994
20
0.89325000000002319
30
0
40
0.75000000000002842
210
0
220
0
230
1
100
AcDbArc
50
180
51
270
0
LINE
5
425
100
AcDbEntity
8
0
100
AcDbLine
10
-148.94374999999997
20
0.89325000000002319
30
0
11
-148.94374999999994
21
13.393250000000005
31
0
0
ARC
5
426
100
AcDbEntity
8
0
100
AcDbCircle
10
-148.19374999999994
20
13.393250000000005
30
0
40
0.74999999999995737
210
0
220
-0
230
1
100
AcDbArc
50
90
51
180
0
ARC
5
427
100
AcDbEntity
8
0
100
AcDbCircle
10
-27.681250000000013
20
56.255749999999971
30
0
40
0.74999999999999289
210
0
220
-0
230
1
100
AcDbArc
50
90
51
180
0
LINE
5
428
100
AcDbEntity
8
0
100
AcDbLine
10
-28.43124999999997
20
43.755750000000013
30
0
11
-28.431250000000006
21
56.255749999999971
31
0
0
ARC
5
429
100
AcDbEntity
8
0
100
AcDbCircle
10
-27.681250000000013
20
43.755750000000013
30
0
40
0.74999999999995737
210
0
220
0
230
1
100
AcDbArc
50
180
51
270
0
LINE
5
430
100
AcDbEntity
8
0
100
AcDbLine
10
-15.181250000000013
20
43.00575000000002
30
0
11
-27.681250000000013
21
43.005750000000049
31
0
0
ARC
5
431
100
AcDbEntity
8
0
100
AcDbCircle
10
-15.181250000000013
20
43.755750000000013
30
0
40
0.74999999999999289
210
-0
220
0
230
1
100
AcDbArc
50
-90
51
0
0
LINE
5
432
100
AcDbEntity
8
0
100
AcDbLine
10
-14.431249999999984
20
56.255749999999971
30
0
11
-14.43125000000002
21
43.755750000000013
31
0
0
ARC
5
433
100
AcDbEntity
8
0
100
AcDbCircle
10
-15.181250000000013
20
56.255749999999971
30
0
40
0.75000000000002842
210
0
220
-0
230
1
100
AcDbArc
50
0
51
90
0
LINE
5
434
100
AcDbEntity
8
0
100
AcDbLine
10
-27.681250000000013
20
57.005749999999964
30
0
11
-15.181250000000013
21
57.00575000000002
31
0
0
LINE
5
435
100
AcDbEntity
8
0
100
AcDbLine
10
139.00624999999994
20
33.193250000000035
30
0
11
151.50624999999994
21
33.193250000000063
31
0
0
ARC
5
436
100
AcDbEntity
8
0
100
AcDbCircle
10
151.50624999999994
20
32.443250000000006
30
0
40
0.75000000000002842
210
0
220
-0
230
1
100
AcDbArc
50
0
51
90
0
LINE
5
437
100
AcDbEntity
8
0
100
AcDbLine
10
152.25624999999997
20
32.443250000000006
30
0
11
152.25624999999997
21
19.943250000000052
31
0
0
ARC
5
438
100
AcDbEntity
8
0
100
AcDbCircle
10
151.50624999999994
20
19.943250000000052
30
0
40
0.75000000000002842
210
-0
220
0
230
1
100
AcDbArc
50
-90
51
0
0
LINE
5
439
100
AcDbEntity
8
0
100
AcDbLine
10
151.50624999999994
20
19.193250000000024
30
0
11
139.00624999999994
21
19.193249999999882
31
0
0
ARC
5
440
100
AcDbEntity
8
0
100
AcDbCircle
10
139.00624999999994
20
19.943250000000052
30
0
40
0.75000000000017053
210
0
220
0
230
1
100
AcDbArc
50
180
51
270
0
LINE
5
441
100
AcDbEntity
8
0
100
AcDbLine
10
138.25624999999977
20
19.943250000000042
30
0
11
138.25624999999991
21
32.443250000000006
31
0
0
ARC
5
442
100
AcDbEntity
8
0
100
AcDbCircle
10
139.00624999999994
20
32.443250000000006
30
0
40
0.75000000000002842
210
0
220
-0
230
1
100
AcDbArc
50
90
51
180
0
ARC
5
443
100
AcDbEntity
8
0
100
AcDbCircle
10
-170.89375000000004
20
-56.256749999999904
30
0
40
0.75000000000009948
210
-0
220
0
230
1
100
AcDbArc
50
-90
51
0
0
LINE
5
444
100
AcDbEntity
8
0
100
AcDbLine
10
-170.14375000000004
20
-43.756750000000224
30
0
11
-170.14374999999995
21
-56.256749999999904
31
0
0
ARC
5
445
100
AcDbEntity
8
0
100
AcDbCircle
10
-170.89375000000004
20
-43.756750000000224
30
0
40
0.74999999999999289
210
0
220
-0
230
1
100
AcDbArc
50
0
51
90
0
LINE
5
446
100
AcDbEntity
8
0
100
AcDbLine
10
-171.39374999999995
20
-43.006750000000267
30
0
11
-170.89375000000004
21
-43.006750000000231
31
0
0
ARC
5
447
100
AcDbEntity
8
0
100
AcDbCircle
10
-171.39374999999995
20
-43.756750000000224
30
0
40
0.74999999999995737
210
0
220
-0
230
1
100
AcDbArc
50
90
51
180
0
LINE
5
448
100
AcDbEntity
8
0
100
AcDbLine
10
-172.14375000000004
20
-56.256749999999904
30
0
11
-172.1437499999999
21
-43.756750000000224
31
0
0
ARC
5
449
100
AcDbEntity
8
0
100
AcDbCircle
10
-171.39374999999995
20
-56.256749999999904
30
0
40
0.75000000000009948
210
0
220
0
230
1
100
AcDbArc
50
180
51
270
0
LINE
5
450
100
AcDbEntity
8
0
100
AcDbLine
10
-170.89375000000004
20
-57.006750000000004
30
0
11
-171.39374999999995
21
-57.006750000000004
31
0
0
LINE
5
451
100
AcDbEntity
8
0
100
AcDbLine
10
-118.16875000000003
20
-43.006750000000267
30
0
11
-105.66875000000003
21
-43.006749999999698
31
0
0
ARC
5
452
100
AcDbEntity
8
0
100
AcDbCircle
10
-105.66875000000003
20
-43.756750000000224
30
0
40
0.75000000000002842
210
0
220
-0
230
1
100
AcDbArc
50
0
51
90
0
LINE
5
453
100
AcDbEntity
8
0
100
AcDbLine
10
-104.91875
20
-43.756750000000224
30
0
11
-104.91874999999993
21
-56.256749999999904
31
0
0
ARC
5
454
100
AcDbEntity
8
0
100
AcDbCircle
10
-105.66875000000003
20
-56.256749999999904
30
0
40
0.75000000000009948
210
-0
220
0
230
1
100
AcDbArc
50
-90
51
0
0
LINE
5
455
100
AcDbEntity
8
0
100
AcDbLine
10
-105.66875000000003
20
-57.006750000000004
30
0
11
-118.16875000000003
21
-57.00675000000043
31
0
0
ARC
5
456
100
AcDbEntity
8
0
100
AcDbCircle
10
-118.16875000000003
20
-56.256749999999904
30
0
40
0.74999999999995737
210
0
220
0
230
1
100
AcDbArc
50
180
51
270
0
LINE
5
457
100
AcDbEntity
8
0
100
AcDbLine
10
-118.91874999999999
20
-56.256749999999904
30
0
11
-118.91874999999999
21
-43.756750000000224
31
0
0
ARC
5
458
100
AcDbEntity
8
0
100
AcDbCircle
10
-118.16875000000003
20
-43.756750000000224
30
0
40
0.74999999999995737
210
0
220
-0
230
1
100
AcDbArc
50
90
51
180
0
ARC
5
459
100
AcDbEntity
8
0
100
AcDbCircle
10
-100.06874999999992
20
-56.256749999999904
30
0
40
0.75000000000009948
210
-0
220
0
230
1
100
AcDbArc
50
-90
51
0
0
LINE
5
460
100
AcDbEntity
8
0
100
AcDbLine
10
-99.318749999999895
20
-43.756750000000224
30
0
11
-99.318749999999824
21
-56.256749999999904
31
0
0
ARC
5
461
100
AcDbEntity
8
0
100
AcDbCircle
10
-100.06874999999992
20
-43.756750000000224
30
0
40
0.75000000000002842
210
-0
220
0
230
1
100
AcDbArc
50
0
51
90
0
LINE
5
462
100
AcDbEntity
8
0
100
AcDbLine
10
-100.56874999999992
20
-43.006750000000267
30
0
11
-100.06874999999992
21
-43.006750000000196
31
0
0
ARC
5
463
100
AcDbEntity
8
0
100
AcDbCircle
10
-100.56874999999992
20
-43.756750000000224
30
0
40
0.74999999999995737
210
0
220
-0
230
1
100
AcDbArc
50
90
51
180
0
LINE
5
464
100
AcDbEntity
8
0
100
AcDbLine
10
-101.31874999999992
20
-56.256749999999904
30
0
11
-101.31874999999992
21
-43.756750000000224
31
0
0
ARC
5
465
100
AcDbEntity
8
0
100
AcDbCircle
10
-100.56874999999992
20
-56.256749999999904
30
0
40
0.74999999999999289
210
0
220
0
230
1
100
AcDbArc
50
180
51
270
0
LINE
5
466
100
AcDbEntity
8
0
100
AcDbLine
10
-100.06874999999992
20
-57.006750000000004
30
0
11
-100.56874999999992
21
-57.00675000000043
31
0
0
LINE
5
467
100
AcDbEntity
8
0
100
AcDbLine
10
-165.79375000000002
20
14.143249999999963
30
0
11
-153.29374999999993
21
14.143249999999945
31
0
0
ARC
5
468
100
AcDbEntity
8
0
100
AcDbCircle
10
-153.29374999999993
20
13.393250000000005
30
0
40
0.74999999999995737
210
0
220
-0
230
1
100
AcDbArc
50
0
51
90
0
LINE
5
469
100
AcDbEntity
8
0
100
AcDbLine
10
-152.54374999999999
20
13.393250000000005
30
0
11
-152.54374999999993
21
0.89325000000002319
31
0
0
ARC
5
470
100
AcDbEntity
8
0
100
AcDbCircle
10
-153.29374999999993
20
0.89325000000002319
30
0
40
0.75000000000002842
210
-0
220
0
230
1
100
AcDbArc
50
-90
51
0
0
LINE
5
471
100
AcDbEntity
8
0
100
AcDbLine
10
-153.29374999999993
20
0.14324999999999477
30
0
11
-165.79375000000002
21
0.14324999999997701
31
0
0
ARC
5
472
100
AcDbEntity
8
0
100
AcDbCircle
10
-165.79375000000002
20
0.89325000000002319
30
0
40
0.74999999999999289
210
0
220
0
230
1
100
AcDbArc
50
180
51
270
0
LINE
5
473
100
AcDbEntity
8
0
100
AcDbLine
10
-166.54375000000002
20
0.89325000000002319
30
0
11
-166.54374999999999
21
13.393250000000005
31
0
0
ARC
5
474
100
AcDbEntity
8
0
100
AcDbCircle
10
-165.79375000000002
20
13.393250000000005
30
0
40
0.74999999999995737
210
0
220
-0
230
1
100
AcDbArc
50
90
51
180
0
ARC
5
475
100
AcDbEntity
8
0
100
AcDbCircle
10
108.64374999999998
20
-24.706749999999921
30
0
40
0.74999999999999289
210
-0
220
0
230
1
100
AcDbArc
50
0
51
90
0
LINE
5
476
100
AcDbEntity
8
0
100
AcDbLine
10
96.143749999999983
20
-23.956749999999928
30
0
11
108.64374999999998
21
-23.956749999999928
31
0
0
ARC
5
477
100
AcDbEntity
8
0
100
AcDbCircle
10
96.143749999999983
20
-24.706749999999921
30
0
40
0.74999999999999289
210
0
220
-0
230
1
100
AcDbArc
50
90
51
180
0
LINE
5
478
100
AcDbEntity
8
0
100
AcDbLine
10
95.393749999999997
20
-24.956750000000014
30
0
11
95.393749999999997
21
-24.706749999999971
31
0
0
LINE
5
479
100
AcDbEntity
8
0
100
AcDbLine
10
95.038000000000011
20
-24.956749999999943
30
0
11
95.393749999999997
21
-24.956750000000014
31
0
0
ARC
5
480
100
AcDbEntity
8
0
100
AcDbCircle
10
95.038000000000011
20
-25.706750000000042
30
0
40
0.75000000000009948
210
0
220
-0
230
1
100
AcDbArc
50
90
51
180
0
LINE
5
481
100
AcDbEntity
8
0
100
AcDbLine
10
94.287999999999784
20
-38.206750000000312
30
0
11
94.287999999999926
21
-25.706750000000042
31
0
0
ARC
5
482
100
AcDbEntity
8
0
100
AcDbCircle
10
95.038000000000011
20
-38.206750000000298
30
0
40
0.75000000000024158
210
0
220
0
230
1
100
AcDbArc
50
180
51
270
0
LINE
5
483
100
AcDbEntity
8
0
100
AcDbLine
10
100.28800000000001
20
-38.956750000000184
30
0
11
95.038000000000011
21
-38.95675000000054
31
0
0
ARC
5
484
100
AcDbEntity
8
0
100
AcDbCircle
10
100.28800000000001
20
-38.206750000000298
30
0
40
0.74999999999988631
210
-0
220
0
230
1
100
AcDbArc
50
-90
51
0
0
LINE
5
485
100
AcDbEntity
8
0
100
AcDbLine
10
101.038
20
-37.956750000000419
30
0
11
101.0379999999999
21
-38.206750000000298
31
0
0
LINE
5
486
100
AcDbEntity
8
0
100
AcDbLine
10
108.64374999999998
20
-37.956749999999886
30
0
11
101.038
21
-37.956750000000419
31
0
0
ARC
5
487
100
AcDbEntity
8
0
100
AcDbCircle
10
108.64374999999998
20
-37.206749999999893
30
0
40
0.74999999999999289
210
-0
220
0
230
1
100
AcDbArc
50
270
51
360
0
LINE
5
488
100
AcDbEntity
8
0
100
AcDbLine
10
109.39374999999998
20
-24.706749999999992
30
0
11
109.39374999999998
21
-37.206750000000177
31
0
0
LINE
5
489
100
AcDbEntity
8
0
100
AcDbLine
10
133.20625000000004
20
56.255750000000063
30
0
11
133.20625000000001
21
43.755750000000013
31
0
0
ARC
5
490
100
AcDbEntity
8
0
100
AcDbCircle
10
132.45625000000001
20
43.755750000000013
30
0
40
0.74999999999999289
210
-0
220
0
230
1
100
AcDbArc
50
-90
51
0
0
LINE
5
491
100
AcDbEntity
8
0
100
AcDbLine
10
132.45625000000001
20
43.00575000000002
30
0
11
119.95625000000001
21
43.005750000000262
31
0
0
ARC
5
492
100
AcDbEntity
8
0
100
AcDbCircle
10
119.95625000000001
20
43.755750000000013
30
0
40
0.74999999999981526
210
0
220
0
230
1
100
AcDbArc
50
180
51
270
0
LINE
5
493
100
AcDbEntity
8
0
100
AcDbLine
10
119.20625000000018
20
43.755750000000013
30
0
11
119.20624999999998
21
56.255749999999971
31
0
0
ARC
5
494
100
AcDbEntity
8
0
100
AcDbCircle
10
119.95625000000001
20
56.255749999999971
30
0
40
0.75000000000002842
210
0
220
-0
230
1
100
AcDbArc
50
90
51
180
0
LINE
5
495
100
AcDbEntity
8
0
100
AcDbLine
10
119.95625000000001
20
57.005749999999999
30
0
11
132.45625000000001
21
57.00575000000002
31
0
0
ARC
5
496
100
AcDbEntity
8
0
100
AcDbCircle
10
132.45625000000001
20
56.255749999999971
30
0
40
0.75000000000002842
210
0
220
-0
230
1
100
AcDbArc
50
0
51
90
0
LINE
5
497
100
AcDbEntity
8
0
100
AcDbLine
10
-157.30625000000001
20
32.443250000000006
30
0
11
-157.30625000000003
21
19.943249999999956
31
0
0
ARC
5
498
100
AcDbEntity
8
0
100
AcDbCircle
10
-158.05625000000003
20
19.943249999999956
30
0
40
0.74999999999999289
210
-0
220
0
230
1
100
AcDbArc
50
-90
51
0
0
LINE
5
499
100
AcDbEntity
8
0
100
AcDbLine
10
-158.05625000000003
20
19.193249999999964
30
0
11
-170.55625000000003
21
19.193249999999978
31
0
0
ARC
5
500
100
AcDbEntity
8
0
100
AcDbCircle
10
-170.55625000000003
20
19.943249999999956
30
0
40
0.74999999999995737
210
0
220
0
230
1
100
AcDbArc
50
180
51
270
0
LINE
5
501
100
AcDbEntity
8
0
100
AcDbLine
10
-171.30624999999998
20
19.943249999999956
30
0
11
-171.30625000000006
21
32.443250000000006
31
0
0
ARC
5
502
100
AcDbEntity
8
0
100
AcDbCircle
10
-170.55625000000003
20
32.443250000000006
30
0
40
0.75000000000002842
210
0
220
-0
230
1
100
AcDbArc
50
90
51
180
0
LINE
5
503
100
AcDbEntity
8
0
100
AcDbLine
10
-170.55625000000003
20
33.193250000000035
30
0
11
-158.05625000000003
21
33.193249999999956
31
0
0
ARC
5
504
100
AcDbEntity
8
0
100
AcDbCircle
10
-158.05625000000003
20
32.443250000000006
30
0
40
0.75000000000002842
210
0
220
-0
230
1
100
AcDbArc
50
0
51
90
0
LINE
5
505
100
AcDbEntity
8
0
100
AcDbLine
10
171.30624999999984
20
13.393250000000005
30
0
11
171.30624999999998
21
0.89325000000002319
31
0
0
ARC
5
506
100
AcDbEntity
8
0
100
AcDbCircle
10
170.55624999999995
20
0.89325000000002319
30
0
40
0.75000000000002842
210
-0
220
0
230
1
100
AcDbArc
50
-90
51
0
0
LINE
5
507
100
AcDbEntity
8
0
100
AcDbLine
10
170.55624999999995
20
0.14324999999999477
30
0
11
158.05624999999995
21
0.14324999999997701
31
0
0
ARC
5
508
100
AcDbEntity
8
0
100
AcDbCircle
10
158.05624999999995
20
0.89325000000002319
30
0
40
0.74999999999988631
210
0
220
0
230
1
100
AcDbArc
50
180
51
270
0
LINE
5
509
100
AcDbEntity
8
0
100
AcDbLine
10
157.30625000000006
20
0.89325000000002319
30
0
11
157.30624999999992
21
13.393250000000103
31
0
0
ARC
5
510
100
AcDbEntity
8
0
100
AcDbCircle
10
158.05624999999995
20
13.393250000000103
30
0
40
0.74999999999999289
210
0
220
-0
230
1
100
AcDbArc
50
90
51
180
0
LINE
5
511
100
AcDbEntity
8
0
100
AcDbLine
10
158.05624999999995
20
14.143250000000096
30
0
11
170.55624999999995
21
14.143249999999945
31
0
0
ARC
5
512
100
AcDbEntity
8
0
100
AcDbCircle
10
170.55624999999995
20
13.393250000000005
30
0
40
0.74999999999988631
210
-0
220
0
230
1
100
AcDbArc
50
0
51
90
0
LINE
5
513
100
AcDbEntity
8
0
100
AcDbLine
10
158.05624999999995
20
33.193250000000035
30
0
11
170.55624999999995
21
33.193249999999857
31
0
0
ARC
5
514
100
AcDbEntity
8
0
100
AcDbCircle
10
170.55624999999995
20
32.443250000000006
30
0
40
0.74999999999988631
210
-0
220
0
230
1
100
AcDbArc
50
0
51
90
0
LINE
5
515
100
AcDbEntity
8
0
100
AcDbLine
10
171.30624999999984
20
32.443250000000006
30
0
11
171.30624999999998
21
19.943250000000052
31
0
0
ARC
5
516
100
AcDbEntity
8
0
100
AcDbCircle
10
170.55624999999995
20
19.943250000000052
30
0
40
0.74999999999999289
210
-0
220
0
230
1
100
AcDbArc
50
-90
51
0
0
LINE
5
517
100
AcDbEntity
8
0
100
AcDbLine
10
170.55624999999995
20
19.193250000000059
30
0
11
158.05624999999995
21
19.193249999999978
31
0
0
ARC
5
518
100
AcDbEntity
8
0
100
AcDbCircle
10
158.05624999999995
20
19.943250000000052
30
0
40
0.75000000000002842
210
0
220
0
230
1
100
AcDbArc
50
180
51
270
0
LINE
5
519
100
AcDbEntity
8
0
100
AcDbLine
10
157.30624999999992
20
19.943250000000052
30
0
11
157.30624999999992
21
32.443250000000006
31
0
0
ARC
5
520
100
AcDbEntity
8
0
100
AcDbCircle
10
158.05624999999995
20
32.443250000000006
30
0
40
0.75000000000002842
210
0
220
-0
230
1
100
AcDbArc
50
90
51
180
0
LINE
5
521
100
AcDbEntity
8
0
100
AcDbLine
10
157.30625000000006
20
43.755750000000013
30
0
11
157.30624999999992
21
56.255750000000063
31
0
0
ARC
5
522
100
AcDbEntity
8
0
100
AcDbCircle
10
158.05624999999995
20
56.255749999999971
30
0
40
0.75000000000002842
210
0
220
-0
230
1
100
AcDbArc
50
90
51
180
0
LINE
5
523
100
AcDbEntity
8
0
100
AcDbLine
10
158.05624999999995
20
57.005749999999999
30
0
11
170.55624999999995
21
57.00575000000002
31
0
0
ARC
5
524
100
AcDbEntity
8
0
100
AcDbCircle
10
170.55624999999995
20
56.255750000000063
30
0
40
0.74999999999988631
210
-0
220
0
230
1
100
AcDbArc
50
0
51
90
0
LINE
5
525
100
AcDbEntity
8
0
100
AcDbLine
10
171.30624999999984
20
56.255749999999971
30
0
11
171.30624999999998
21
43.755750000000013
31
0
0
ARC
5
526
100
AcDbEntity
8
0
100
AcDbCircle
10
170.55624999999995
20
43.755750000000013
30
0
40
0.74999999999999289
210
-0
220
0
230
1
100
AcDbArc
50
-90
51
0
0
LINE
5
527
100
AcDbEntity
8
0
100
AcDbLine
10
170.55624999999995
20
43.00575000000002
30
0
11
158.05624999999995
21
43.005750000000148
31
0
0
ARC
5
528
100
AcDbEntity
8
0
100
AcDbCircle
10
158.05624999999995
20
43.755750000000006
30
0
40
0.74999999999988631
210
0
220
0
230
1
100
AcDbArc
50
180
51
270
0
ARC
5
529
100
AcDbEntity
8
0
100
AcDbCircle
10
132.45625000000001
20
-24.706749999999921
30
0
40
0.74999999999999289
210
0
220
-0
230
1
100
AcDbArc
50
0
51
90
0
LINE
5
530
100
AcDbEntity
8
0
100
AcDbLine
10
121.95625
20
-23.956749999999943
30
0
11
132.45625000000001
21
-23.956749999999928
31
0
0
ARC
5
531
100
AcDbEntity
8
0
100
AcDbCircle
10
121.95625
20
-24.706749999999921
30
0
40
0.74999999999997513
210
0
220
-0
230
1
100
AcDbArc
50
90
51
180
0
LINE
5
532
100
AcDbEntity
8
0
100
AcDbLine
10
121.20625000000004
20
-37.206749999999872
30
0
11
121.20625000000001
21
-24.7067499999999
31
0
0
ARC
5
533
100
AcDbEntity
8
0
100
AcDbCircle
10
121.95625
20
-37.206749999999893
30
0
40
0.74999999999995737
210
0
220
0
230
1
100
AcDbArc
50
180
51
270.00000000000324
0
LINE
5
534
100
AcDbEntity
8
0
100
AcDbLine
10
132.45625000000001
20
-37.956750000000454
30
0
11
121.95625000000004
21
-37.95674999999985
31
0
0
ARC
5
535
100
AcDbEntity
8
0
100
AcDbCircle
10
132.45625000000001
20
-37.206749999999893
30
0
40
0.75000000000056133
210
-0
220
0
230
1
100
AcDbArc
50
-90
51
0
0
LINE
5
536
100
AcDbEntity
8
0
100
AcDbLine
10
133.20625000000001
20
-24.706749999999921
30
0
11
133.20625000000058
21
-37.206749999999893
31
0
0
ARC
5
537
100
AcDbEntity
8
0
100
AcDbCircle
10
158.05624999999995
20
-24.706750000000028
30
0
40
0.75000000000004619
210
0
220
-0
230
1
100
AcDbArc
50
90
51
180
0
LINE
5
538
100
AcDbEntity
8
0
100
AcDbLine
10
157.30624999999986
20
-37.206749999999872
30
0
11
157.30624999999992
21
-24.706750000000028
31
0
0
ARC
5
539
100
AcDbEntity
8
0
100
AcDbCircle
10
158.05624999999995
20
-37.206749999999893
30
0
40
0.75000000000009948
210
0
220
0
230
1
100
AcDbArc
50
180
51
270
0
LINE
5
540
100
AcDbEntity
8
0
100
AcDbLine
10
168.55625000000001
20
-37.956749999999992
30
0
11
158.05624999999995
21
-37.956749999999992
31
0
0
ARC
5
541
100
AcDbEntity
8
0
100
AcDbCircle
10
168.55625000000001
20
-37.206749999999893
30
0
40
0.75000000000009948
210
-0
220
0
230
1
100
AcDbArc
50
-90
51
0
0
LINE
5
542
100
AcDbEntity
8
0
100
AcDbLine
10
169.30625000000009
20
-24.706750000000099
30
0
11
169.30625000000009
21
-37.206749999999893
31
0
0
ARC
5
543
100
AcDbEntity
8
0
100
AcDbCircle
10
168.55625000000001
20
-24.706750000000028
30
0
40
0.75000000000009948
210
-0
220
0
230
1
100
AcDbArc
50
0
51
90
0
LINE
5
544
100
AcDbEntity
8
0
100
AcDbLine
10
158.05624999999995
20
-23.956749999999978
30
0
11
168.55625000000001
21
-23.956749999999928
31
0
0
LINE
5
545
100
AcDbEntity
8
0
100
AcDbLine
10
116.00324999999998
20
45.005750000000035
30
0
11
112.59674999999999
21
45.005750000000035
31
0
0
ARC
5
546
100
AcDbEntity
8
0
100
AcDbCircle
10
112.59674999999999
20
45.75575000000002
30
0
40
0.74999999999999289
210
0
220
0
230
1
100
AcDbArc
50
180
51
270.00000000000108
0
LINE
5
547
100
AcDbEntity
8
0
100
AcDbLine
10
111.84674999999999
20
45.755750000000042
30
0
11
111.84674999999999
21
56.255749999999978
31
0
0
ARC
5
548
100
AcDbEntity
8
0
100
AcDbCircle
10
112.59674999999999
20
56.255750000000063
30
0
40
0.74999999999999289
210
0
220
-0
230
1
100
AcDbArc
50
90
51
180
0
LINE
5
549
100
AcDbEntity
8
0
100
AcDbLine
10
112.59674999999999
20
57.005750000000063
30
0
11
116.00324999999998
21
57.005750000000063
31
0
0
ARC
5
550
100
AcDbEntity
8
0
100
AcDbCircle
10
116.00324999999998
20
56.255750000000063
30
0
40
0.74999999999999289
210
-0
220
0
230
1
100
AcDbArc
50
0
51
90
0
LINE
5
551
100
AcDbEntity
8
0
100
AcDbLine
10
116.75324999999998
20
56.255749999999971
30
0
11
116.75324999999998
21
45.755750000000042
31
0
0
ARC
5
552
100
AcDbEntity
8
0
100
AcDbCircle
10
116.00324999999998
20
45.75575000000002
30
0
40
0.74999999999999289
210
-0
220
0
230
1
100
AcDbArc
50
-90
51
0
0
ARC
5
553
100
AcDbEntity
8
0
100
AcDbCircle
10
121.95625
20
-5.6567500000000148
30
0
40
0.75000000000000178
210
0
220
-0
230
1
100
AcDbArc
50
90
51
180
0
LINE
5
554
100
AcDbEntity
8
0
100
AcDbLine
10
121.20625000000001
20
-18.156749999999981
30
0
11
121.20625000000001
21
-5.6567499999999882
31
0
0
ARC
5
555
100
AcDbEntity
8
0
100
AcDbCircle
10
121.95625
20
-18.156749999999981
30
0
40
0.74999999999999289
210
0
220
0
230
1
100
AcDbArc
50
180
51
270
0
LINE
5
556
100
AcDbEntity
8
0
100
AcDbLine
10
168.55625000000001
20
-18.906749999999974
30
0
11
121.95625
21
-18.906749999999974
31
0
0
ARC
5
557
100
AcDbEntity
8
0
100
AcDbCircle
10
168.55625000000001
20
-18.156749999999874
30
0
40
0.75000000000009948
210
-0
220
0
230
1
100
AcDbArc
50
-90
51
0
0
LINE
5
558
100
AcDbEntity
8
0
100
AcDbLine
10
169.30625000000009
20
-5.6567500000001036
30
0
11
169.30625000000009
21
-18.156749999999874
31
0
0
ARC
5
559
100
AcDbEntity
8
0
100
AcDbCircle
10
168.55625000000001
20
-5.6567500000001125
30
0
40
0.75000000000009948
210
0
220
-0
230
1
100
AcDbArc
50
0
51
90
0
LINE
5
560
100
AcDbEntity
8
0
100
AcDbLine
10
121.95625
20
-4.906750000000013
30
0
11
168.55625000000001
21
-4.906750000000013
31
0
0
ARC
5
561
100
AcDbEntity
8
0
100
AcDbCircle
10
-146.74375000000023
20
56.255749999999964
30
0
40
0.75000000000000178
210
0
220
-0
230
1
100
AcDbArc
50
90
51
180
0
LINE
5
562
100
AcDbEntity
8
0
100
AcDbLine
10
-147.49375000000023
20
43.755750000000013
30
0
11
-147.49375000000023
21
56.255749999999971
31
0
0
ARC
5
563
100
AcDbEntity
8
0
100
AcDbCircle
10
-146.74375000000023
20
43.755750000000006
30
0
40
0.74999999999999289
210
0
220
0
230
1
100
AcDbArc
50
180
51
270.0000000000021
0
LINE
5
564
100
AcDbEntity
8
0
100
AcDbLine
10
-134.24375000000023
20
43.005750000000006
30
0
11
-146.74375000000023
21
43.005750000000006
31
0
0
ARC
5
565
100
AcDbEntity
8
0
100
AcDbCircle
10
-134.24375000000023
20
43.755750000000006
30
0
40
0.75000000000000178
210
-0
220
0
230
1
100
AcDbArc
50
-90
51
0
0
LINE
5
566
100
AcDbEntity
8
0
100
AcDbLine
10
-133.49375000000023
20
56.255749999999971
30
0
11
-133.49375000000023
21
43.755750000000013
31
0
0
ARC
5
567
100
AcDbEntity
8
0
100
AcDbCircle
10
-134.24375000000023
20
56.255749999999964
30
0
40
0.74999999999999289
210
0
220
-0
230
1
100
AcDbArc
50
0
51
90
0
LINE
5
568
100
AcDbEntity
8
0
100
AcDbLine
10
-146.74375000000023
20
57.005749999999949
30
0
11
-134.24375000000023
21
57.005749999999942
31
0
0
LINE
5
569
100
AcDbEntity
8
0
100
AcDbLine
10
72.331250000000011
20
57.005750000000049
30
0
11
84.831250000000011
21
57.005750000000042
31
0
0
ARC
5
570
100
AcDbEntity
8
0
100
AcDbCircle
10
84.831250000000011
20
56.255750000000049
30
0
40
0.74999999999999289
210
0
220
-0
230
1
100
AcDbArc
50
0
51
90
0
LINE
5
571
100
AcDbEntity
8
0
100
AcDbLine
10
85.581250000000011
20
56.255750000000063
30
0
11
85.581250000000011
21
43.755750000000113
31
0
0
ARC
5
572
100
AcDbEntity
8
0
100
AcDbCircle
10
84.831250000000011
20
43.755750000000106
30
0
40
0.75000000000000178
210
-0
220
0
230
1
100
AcDbArc
50
-90
51
0
0
LINE
5
573
100
AcDbEntity
8
0
100
AcDbLine
10
84.831250000000011
20
43.005750000000099
30
0
11
72.331250000000011
21
43.005750000000106
31
0
0
ARC
5
574
100
AcDbEntity
8
0
100
AcDbCircle
10
72.331250000000011
20
43.755750000000106
30
0
40
0.74999999999999289
210
0
220
0
230
1
100
AcDbArc
50
180
51
270
0
LINE
5
575
100
AcDbEntity
8
0
100
AcDbLine
10
71.581250000000011
20
43.755750000000113
30
0
11
71.581250000000011
21
56.255750000000063
31
0
0
ARC
5
576
100
AcDbEntity
8
0
100
AcDbCircle
10
72.331250000000011
20
56.255750000000049
30
0
40
0.75000000000000178
210
0
220
-0
230
1
100
AcDbArc
50
90
51
180
0
LINE
5
577
100
AcDbEntity
8
0
100
AcDbLine
10
-66.531250000000028
20
43.755750000000013
30
0
11
-66.531250000000028
21
56.255750000000063
31
0
0
ARC
5
578
100
AcDbEntity
8
0
100
AcDbCircle
10
-65.781250000000028
20
56.255750000000049
30
0
40
0.75000000000000178
210
0
220
-0
230
1
100
AcDbArc
50
90
51
180
0
LINE
5
579
100
AcDbEntity
8
0
100
AcDbLine
10
-65.781250000000028
20
57.005750000000049
30
0
11
-53.281250000000014
21
57.005750000000063
31
0
0
ARC
5
580
100
AcDbEntity
8
0
100
AcDbCircle
10
-53.281250000000014
20
56.255750000000049
30
0
40
0.75000000000001066
210
0
220
-0
230
1
100
AcDbArc
50
0
51
90
0
LINE
5
581
100
AcDbEntity
8
0
100
AcDbLine
10
-52.531250000000007
20
56.255750000000063
30
0
11
-52.531250000000028
21
43.755750000000013
31
0
0
ARC
5
582
100
AcDbEntity
8
0
100
AcDbCircle
10
-53.281250000000014
20
43.755750000000006
30
0
40
0.75000000000000178
210
-0
220
0
230
1
100
AcDbArc
50
-90
51
0
0
LINE
5
583
100
AcDbEntity
8
0
100
AcDbLine
10
-53.281250000000014
20
43.005750000000006
30
0
11
-65.781250000000028
21
43.005750000000013
31
0
0
ARC
5
584
100
AcDbEntity
8
0
100
AcDbCircle
10
-65.781250000000028
20
43.755750000000006
30
0
40
0.74999999999999289
210
0
220
0
230
1
100
AcDbArc
50
180
51
270
0
ARC
5
585
100
AcDbEntity
8
0
100
AcDbCircle
10
65.78125
20
56.255750000000049
30
0
40
0.74999999999999289
210
0
220
-0
230
1
100
AcDbArc
50
0
51
90.000000000001094
0
LINE
5
586
100
AcDbEntity
8
0
100
AcDbLine
10
53.28125
20
57.005750000000049
30
0
11
65.78125
21
57.005750000000042
31
0
0
ARC
5
587
100
AcDbEntity
8
0
100
AcDbCircle
10
53.28125
20
56.255750000000049
30
0
40
0.75000000000000178
210
0
220
-0
230
1
100
AcDbArc
50
90
51
180
0
LINE
5
588
100
AcDbEntity
8
0
100
AcDbLine
10
52.531250000000007
20
43.755750000000113
30
0
11
52.531250000000007
21
56.255750000000063
31
0
0
ARC
5
589
100
AcDbEntity
8
0
100
AcDbCircle
10
53.28125
20
43.755750000000106
30
0
40
0.74999999999999289
210
0
220
0
230
1
100
AcDbArc
50
180
51
270
0
LINE
5
590
100
AcDbEntity
8
0
100
AcDbLine
10
65.78125
20
43.005750000000099
30
0
11
53.28125
21
43.005750000000106
31
0
0
ARC
5
591
100
AcDbEntity
8
0
100
AcDbCircle
10
65.78125
20
43.755750000000106
30
0
40
0.75000000000000178
210
-0
220
0
230
1
100
AcDbArc
50
-90
51
0
0
LINE
5
592
100
AcDbEntity
8
0
100
AcDbLine
10
66.53125
20
56.255750000000063
30
0
11
66.53125
21
43.755750000000113
31
0
0
ARC
5
593
100
AcDbEntity
8
0
100
AcDbCircle
10
-115.19375000000022
20
56.255750000000049
30
0
40
0.74999999999999289
210
-0
220
0
230
1
100
AcDbArc
50
0
51
90
0
LINE
5
594
100
AcDbEntity
8
0
100
AcDbLine
10
-127.69375000000024
20
57.005750000000049
30
0
11
-115.19375000000024
21
57.005750000000049
31
0
0
ARC
5
595
100
AcDbEntity
8
0
100
AcDbCircle
10
-127.69375000000024
20
56.255750000000049
30
0
40
0.75000000000000178
210
0
220
-0
230
1
100
AcDbArc
50
90
51
180
0
LINE
5
596
100
AcDbEntity
8
0
100
AcDbLine
10
-128.44375000000025
20
43.755750000000013
30
0
11
-128.44375000000025
21
56.255749999999971
31
0
0
ARC
5
597
100
AcDbEntity
8
0
100
AcDbCircle
10
-127.69375000000024
20
43.755750000000006
30
0
40
0.75000000000001066
210
0
220
0
230
1
100
AcDbArc
50
180
51
270
0
LINE
5
598
100
AcDbEntity
8
0
100
AcDbLine
10
-115.19375000000022
20
43.005750000000006
30
0
11
-127.69375000000022
21
43.005750000000006
31
0
0
ARC
5
599
100
AcDbEntity
8
0
100
AcDbCircle
10
-115.19375000000022
20
43.755750000000006
30
0
40
0.75000000000000178
210
-0
220
0
230
1
100
AcDbArc
50
-90
51
0
0
LINE
5
600
100
AcDbEntity
8
0
100
AcDbLine
10
-114.44375000000022
20
56.255749999999971
30
0
11
-114.44375000000022
21
43.755750000000013
31
0
0
LINE
5
601
100
AcDbEntity
8
0
100
AcDbLine
10
-89.593750000000227
20
57.005750000000049
30
0
11
-77.093750000000028
21
57.005750000000063
31
0
0
ARC
5
602
100
AcDbEntity
8
0
100
AcDbCircle
10
-77.093750000000028
20
56.255750000000049
30
0
40
0.75000000000001066
210
0
220
-0
230
1
100
AcDbArc
50
0
51
90
0
LINE
5
603
100
AcDbEntity
8
0
100
AcDbLine
10
-76.343750000000028
20
56.255750000000063
30
0
11
-76.343750000000043
21
43.755750000000013
31
0
0
ARC
5
604
100
AcDbEntity
8
0
100
AcDbCircle
10
-77.093750000000028
20
43.755750000000006
30
0
40
0.75000000000000178
210
-0
220
0
230
1
100
AcDbArc
50
-90
51
0
0
LINE
5
605
100
AcDbEntity
8
0
100
AcDbLine
10
-77.093750000000028
20
43.005750000000006
30
0
11
-89.593750000000227
21
43.005750000000013
31
0
0
ARC
5
606
100
AcDbEntity
8
0
100
AcDbCircle
10
-89.593750000000227
20
43.755750000000006
30
0
40
0.74999999999999289
210
0
220
0
230
1
100
AcDbArc
50
180
51
270.00000000000108
0
LINE
5
607
100
AcDbEntity
8
0
100
AcDbLine
10
-90.343750000000227
20
43.755750000000013
30
0
11
-90.343750000000227
21
56.255750000000063
31
0
0
ARC
5
608
100
AcDbEntity
8
0
100
AcDbCircle
10
-89.593750000000227
20
56.255750000000049
30
0
40
0.75000000000000178
210
0
220
-0
230
1
100
AcDbArc
50
90
51
180
0
LINE
5
609
100
AcDbEntity
8
0
100
AcDbLine
10
15.181249999999977
20
57.005750000000049
30
0
11
27.681249999999977
21
57.005750000000042
31
0
0
ARC
5
610
100
AcDbEntity
8
0
100
AcDbCircle
10
27.681249999999977
20
56.255750000000049
30
0
40
0.74999999999999289
210
0
220
-0
230
1
100
AcDbArc
50
0
51
90
0
LINE
5
611
100
AcDbEntity
8
0
100
AcDbLine
10
28.43124999999997
20
56.255750000000063
30
0
11
28.43124999999997
21
43.755750000000113
31
0
0
ARC
5
612
100
AcDbEntity
8
0
100
AcDbCircle
10
27.681249999999977
20
43.755750000000106
30
0
40
0.75000000000000178
210
-0
220
0
230
1
100
AcDbArc
50
-90
51
0
0
LINE
5
613
100
AcDbEntity
8
0
100
AcDbLine
10
27.681249999999977
20
43.005750000000099
30
0
11
15.181249999999977
21
43.005750000000106
31
0
0
ARC
5
614
100
AcDbEntity
8
0
100
AcDbCircle
10
15.181249999999977
20
43.755750000000106
30
0
40
0.74999999999999289
210
0
220
0
230
1
100
AcDbArc
50
180
51
270
0
LINE
5
615
100
AcDbEntity
8
0
100
AcDbLine
10
14.431249999999984
20
43.755750000000113
30
0
11
14.431249999999984
21
56.255750000000063
31
0
0
ARC
5
616
100
AcDbEntity
8
0
100
AcDbCircle
10
15.181249999999977
20
56.255750000000049
30
0
40
0.75000000000000178
210
0
220
-0
230
1
100
AcDbArc
50
90
51
180
0
ARC
5
617
100
AcDbEntity
8
0
100
AcDbCircle
10
46.731249999999989
20
43.755750000000106
30
0
40
0.75000000000000178
210
-0
220
0
230
1
100
AcDbArc
50
-90
51
0
0
LINE
5
618
100
AcDbEntity
8
0
100
AcDbLine
10
47.481249999999982
20
56.255750000000063
30
0
11
47.481249999999982
21
43.755750000000113
31
0
0
ARC
5
619
100
AcDbEntity
8
0
100
AcDbCircle
10
46.731249999999989
20
56.255750000000049
30
0
40
0.74999999999999289
210
0
220
-0
230
1
100
AcDbArc
50
0
51
90.00000000000054
0
LINE
5
620
100
AcDbEntity
8
0
100
AcDbLine
10
34.231249999999989
20
57.005750000000049
30
0
11
46.731249999999989
21
57.005750000000042
31
0
0
ARC
5
621
100
AcDbEntity
8
0
100
AcDbCircle
10
34.231249999999989
20
56.255750000000049
30
0
40
0.75000000000000178
210
0
220
-0
230
1
100
AcDbArc
50
90
51
180
0
LINE
5
622
100
AcDbEntity
8
0
100
AcDbLine
10
33.481249999999996
20
43.755750000000113
30
0
11
33.481249999999996
21
56.255750000000063
31
0
0
ARC
5
623
100
AcDbEntity
8
0
100
AcDbCircle
10
34.231249999999989
20
43.755750000000106
30
0
40
0.74999999999999289
210
0
220
0
230
1
100
AcDbArc
50
180
51
270
0
LINE
5
624
100
AcDbEntity
8
0
100
AcDbLine
10
46.731249999999989
20
43.005750000000099
30
0
11
34.231249999999989
21
43.005750000000106
31
0
0
ARC
5
625
100
AcDbEntity
8
0
100
AcDbCircle
10
-108.64375000000024
20
43.755750000000006
30
0
40
0.74999999999999289
210
0
220
0
230
1
100
AcDbArc
50
180
51
270.00000000000108
0
LINE
5
626
100
AcDbEntity
8
0
100
AcDbLine
10
-96.143750000000225
20
43.005750000000006
30
0
11
-108.64375000000024
21
43.005750000000006
31
0
0
ARC
5
627
100
AcDbEntity
8
0
100
AcDbCircle
10
-96.143750000000225
20
43.755750000000006
30
0
40
0.75000000000000178
210
-0
220
0
230
1
100
AcDbArc
50
-90
51
0
0
LINE
5
628
100
AcDbEntity
8
0
100
AcDbLine
10
-95.393750000000225
20
56.255749999999971
30
0
11
-95.393750000000225
21
43.755750000000013
31
0
0
ARC
5
629
100
AcDbEntity
8
0
100
AcDbCircle
10
-96.143750000000225
20
56.255750000000049
30
0
40
0.74999999999999289
210
-0
220
0
230
1
100
AcDbArc
50
0
51
90
0
LINE
5
630
100
AcDbEntity
8
0
100
AcDbLine
10
-108.64375000000024
20
57.005750000000049
30
0
11
-96.143750000000239
21
57.005750000000042
31
0
0
ARC
5
631
100
AcDbEntity
8
0
100
AcDbCircle
10
-108.64375000000024
20
56.255750000000049
30
0
40
0.75000000000000178
210
0
220
-0
230
1
100
AcDbArc
50
90
51
180
0
LINE
5
632
100
AcDbEntity
8
0
100
AcDbLine
10
-109.39375000000024
20
43.755750000000013
30
0
11
-109.39375000000024
21
56.255750000000063
31
0
0
ARC
5
633
100
AcDbEntity
8
0
100
AcDbCircle
10
-154.10300000000004
20
45.75575000000002
30
0
40
0.74999999999999289
210
0
220
0
230
1
100
AcDbArc
50
180
51
270.0000000000021
0
LINE
5
634
100
AcDbEntity
8
0
100
AcDbLine
10
-150.69650000000001
20
45.005750000000077
30
0
11
-154.10300000000004
21
45.005750000000042
31
0
0
ARC
5
635
100
AcDbEntity
8
0
100
AcDbCircle
10
-150.69650000000001
20
45.75575000000002
30
0
40
0.74999999999995737
210
-0
220
0
230
1
100
AcDbArc
50
-90
51
0
0
LINE
5
636
100
AcDbEntity
8
0
100
AcDbLine
10
-149.94650000000004
20
56.255750000000063
30
0
11
-149.94650000000007
21
45.755750000000042
31
0
0
ARC
5
637
100
AcDbEntity
8
0
100
AcDbCircle
10
-150.69650000000001
20
56.255750000000049
30
0
40
0.74999999999999289
210
0
220
-0
230
1
100
AcDbArc
50
0
51
90.000000000002174
0
LINE
5
638
100
AcDbEntity
8
0
100
AcDbLine
10
-154.10300000000004
20
57.005750000000049
30
0
11
-150.69650000000001
21
57.005750000000049
31
0
0
ARC
5
639
100
AcDbEntity
8
0
100
AcDbCircle
10
-154.10300000000004
20
56.255750000000049
30
0
40
0.74999999999999289
210
0
220
-0
230
1
100
AcDbArc
50
90
51
180
0
LINE
5
640
100
AcDbEntity
8
0
100
AcDbLine
10
-154.85300000000001
20
45.755750000000042
30
0
11
-154.85300000000001
21
56.255750000000063
31
0
0
LINE
5
641
100
AcDbEntity
8
0
100
AcDbLine
10
-69.734000000000009
20
45.005750000000035
30
0
11
-73.140500000000017
21
45.005750000000035
31
0
0
ARC
5
642
100
AcDbEntity
8
0
100
AcDbCircle
10
-73.140500000000031
20
45.75575000000002
30
0
40
0.74999999999999289
210
0
220
0
230
1
100
AcDbArc
50
180
51
270.00000000000108
0
LINE
5
643
100
AcDbEntity
8
0
100
AcDbLine
10
-73.890500000000031
20
45.755750000000042
30
0
11
-73.890500000000031
21
56.255750000000063
31
0
0
ARC
5
644
100
AcDbEntity
8
0
100
AcDbCircle
10
-73.140500000000031
20
56.255750000000063
30
0
40
0.74999999999999289
210
0
220
-0
230
1
100
AcDbArc
50
90
51
180
0
LINE
5
645
100
AcDbEntity
8
0
100
AcDbLine
10
-73.140500000000031
20
57.005750000000063
30
0
11
-69.734000000000009
21
57.005750000000063
31
0
0
ARC
5
646
100
AcDbEntity
8
0
100
AcDbCircle
10
-69.734000000000009
20
56.255750000000063
30
0
40
0.74999999999999289
210
0
220
-0
230
1
100
AcDbArc
50
0
51
90
0
LINE
5
647
100
AcDbEntity
8
0
100
AcDbLine
10
-68.984000000000023
20
56.255750000000063
30
0
11
-68.984000000000023
21
45.755750000000042
31
0
0
ARC
5
648
100
AcDbEntity
8
0
100
AcDbCircle
10
-69.734000000000009
20
45.75575000000002
30
0
40
0.74999999999999289
210
-0
220
0
230
1
100
AcDbArc
50
-90
51
0
0
LINE
5
649
100
AcDbEntity
8
0
100
AcDbLine
10
11.978249999999981
20
56.255750000000063
30
0
11
11.978250000000052
21
45.755750000000042
31
0
0
ARC
5
650
100
AcDbEntity
8
0
100
AcDbCircle
10
11.228249999999989
20
45.75575000000002
30
0
40
0.75000000000004619
210
-0
220
0
230
1
100
AcDbArc
50
-90
51
0
0
LINE
5
651
100
AcDbEntity
8
0
100
AcDbLine
10
11.228249999999989
20
45.005749999999978
30
0
11
7.8217499999999518
21
45.005750000000042
31
0
0
ARC
5
652
100
AcDbEntity
8
0
100
AcDbCircle
10
7.8217499999999518
20
45.75575000000002
30
0
40
0.74999999999999289
210
0
220
0
230
1
100
AcDbArc
50
180
51
270
0
LINE
5
653
100
AcDbEntity
8
0
100
AcDbLine
10
7.0717499999999589
20
45.755750000000042
30
0
11
7.0717499999999589
21
56.255750000000063
31
0
0
ARC
5
654
100
AcDbEntity
8
0
100
AcDbCircle
10
7.8217499999999518
20
56.255750000000049
30
0
40
0.74999999999999289
210
0
220
-0
230
1
100
AcDbArc
50
90
51
180
0
LINE
5
655
100
AcDbEntity
8
0
100
AcDbLine
10
7.8217499999999518
20
57.005750000000049
30
0
11
11.228249999999989
21
57.005750000000049
31
0
0
ARC
5
656
100
AcDbEntity
8
0
100
AcDbCircle
10
11.228249999999989
20
56.255750000000049
30
0
40
0.74999999999999289
210
0
220
-0
230
1
100
AcDbArc
50
0
51
90
0
LINE
5
657
100
AcDbEntity
8
0
100
AcDbLine
10
64.349999999999994
20
-23.956749999999928
30
0
11
64.849999999999994
21
-23.956749999999928
31
0
0
ARC
5
658
100
AcDbEntity
8
0
100
AcDbCircle
10
64.849999999999994
20
-24.706749999999921
30
0
40
0.74999999999999289
210
0
220
-0
230
1
100
AcDbArc
50
0
51
90
0
LINE
5
659
100
AcDbEntity
8
0
100
AcDbLine
10
65.599999999999994
20
-24.706749999999921
30
0
11
65.600000000000051
21
-37.206750000000248
31
0
0
ARC
5
660
100
AcDbEntity
8
0
100
AcDbCircle
10
64.850000000000065
20
-37.206750000000248
30
0
40
0.75000000000001066
210
-0
220
0
230
1
100
AcDbArc
50
-90
51
0
0
LINE
5
661
100
AcDbEntity
8
0
100
AcDbLine
10
64.850000000000065
20
-37.956750000000255
30
0
11
64.350000000000051
21
-37.956750000000277
31
0
0
ARC
5
662
100
AcDbEntity
8
0
100
AcDbCircle
10
64.350000000000051
20
-37.206750000000248
30
0
40
0.75000000000002842
210
0
220
0
230
1
100
AcDbArc
50
180
51
270
0
LINE
5
663
100
AcDbEntity
8
0
100
AcDbLine
10
63.60000000000003
20
-37.206750000000142
30
0
11
63.599999999999994
21
-24.706749999999936
31
0
0
ARC
5
664
100
AcDbEntity
8
0
100
AcDbCircle
10
64.349999999999994
20
-24.706749999999921
30
0
40
0.74999999999999289
210
0
220
-0
230
1
100
AcDbArc
50
90
51
180
0
ARC
5
665
100
AcDbEntity
8
0
100
AcDbCircle
10
-150.91249999999994
20
-18.156749999999981
30
0
40
0.75000000000002842
210
0
220
0
230
1
100
AcDbArc
50
-90.000000000006523
51
0
0
LINE
5
666
100
AcDbEntity
8
0
100
AcDbLine
10
-150.16249999999997
20
-5.6567500000000148
30
0
11
-150.16249999999991
21
-18.156749999999981
31
0
0
ARC
5
667
100
AcDbEntity
8
0
100
AcDbCircle
10
-150.91249999999994
20
-5.6567500000000148
30
0
40
0.74999999999995737
210
-0
220
0
230
1
100
AcDbArc
50
0
51
90.000000000008683
0
LINE
5
668
100
AcDbEntity
8
0
100
AcDbLine
10
-169.01250000000005
20
-4.9067500000000486
30
0
11
-150.91250000000005
21
-4.9067500000000575
31
0
0
ARC
5
669
100
AcDbEntity
8
0
100
AcDbCircle
10
-169.01250000000005
20
-5.6567500000000148
30
0
40
0.74999999999996625
210
0
220
-0
230
1
100
AcDbArc
50
90
51
180
0
LINE
5
670
100
AcDbEntity
8
0
100
AcDbLine
10
-169.76249999999999
20
-18.156749999999981
30
0
11
-169.76249999999999
21
-5.6567500000000148
31
0
0
ARC
5
671
100
AcDbEntity
8
0
100
AcDbCircle
10
-169.01250000000005
20
-18.156749999999981
30
0
40
0.74999999999995737
210
0
220
0
230
1
100
AcDbArc
50
180
51
270
0
LINE
5
672
100
AcDbEntity
8
0
100
AcDbLine
10
-150.91250000000002
20
-18.906750000000009
30
0
11
-169.01250000000005
21
-18.906749999999938
31
0
0
ARC
5
673
100
AcDbEntity
8
0
100
AcDbCircle
10
69.949999999999974
20
-37.206749999999893
30
0
40
0.74999999999999289
210
0
220
0
230
1
100
AcDbArc
50
180
51
270
0
LINE
5
674
100
AcDbEntity
8
0
100
AcDbLine
10
70.411999999999964
20
-37.956750000000312
30
0
11
69.949999999999974
21
-37.956750000000312
31
0
0
LINE
5
675
100
AcDbEntity
8
0
100
AcDbLine
10
70.411999999999864
20
-38.206750000000298
30
0
11
70.411999999999964
21
-37.956750000000312
31
0
0
ARC
5
676
100
AcDbEntity
8
0
100
AcDbCircle
10
71.161999999999949
20
-38.206750000000298
30
0
40
0.75000000000009948
210
0
220
0
230
1
100
AcDbArc
50
180
51
270
0
LINE
5
677
100
AcDbEntity
8
0
100
AcDbLine
10
76.411999999999978
20
-38.956750000000184
30
0
11
71.161999999999949
21
-38.956749999999865
31
0
0
ARC
5
678
100
AcDbEntity
8
0
100
AcDbCircle
10
76.411999999999978
20
-38.206750000000298
30
0
40
0.74999999999988631
210
-0
220
0
230
1
100
AcDbArc
50
-90
51
0
0
LINE
5
679
100
AcDbEntity
8
0
100
AcDbLine
10
77.161999999999978
20
-37.956749999999495
30
0
11
77.161999999999978
21
-38.206750000000298
31
0
0
LINE
5
680
100
AcDbEntity
8
0
100
AcDbLine
10
91.974999999999937
20
-37.956750000000454
30
0
11
77.161999999999978
21
-37.956749999999495
31
0
0
ARC
5
681
100
AcDbEntity
8
0
100
AcDbCircle
10
91.974999999999937
20
-37.206749999999893
30
0
40
0.75000000000056133
210
-0
220
0
230
1
100
AcDbArc
50
-90
51
0
0
LINE
5
682
100
AcDbEntity
8
0
100
AcDbLine
10
92.724999999999909
20
-24.706750000000028
30
0
11
92.724999999999966
21
-37.206749999999893
31
0
0
ARC
5
683
100
AcDbEntity
8
0
100
AcDbCircle
10
91.974999999999937
20
-24.706750000000028
30
0
40
0.74999999999995737
210
0
220
-0
230
1
100
AcDbArc
50
0
51
90
0
LINE
5
684
100
AcDbEntity
8
0
100
AcDbLine
10
69.949999999999974
20
-23.956749999999928
30
0
11
91.974999999999937
21
-23.956749999999978
31
0
0
ARC
5
685
100
AcDbEntity
8
0
100
AcDbCircle
10
69.949999999999974
20
-24.706749999999921
30
0
40
0.74999999999999289
210
0
220
-0
230
1
100
AcDbArc
50
90
51
180
0
LINE
5
686
100
AcDbEntity
8
0
100
AcDbLine
10
69.199999999999989
20
-37.20674999999973
30
0
11
69.199999999999989
21
-24.706749999999957
31
0
0
ARC
5
687
100
AcDbEntity
8
0
100
AcDbCircle
10
139.00624999999994
20
-56.256749999999904
30
0
40
0.75000000000017053
210
0
220
0
230
1
100
AcDbArc
50
180
51
270
0
LINE
5
688
100
AcDbEntity
8
0
100
AcDbLine
10
151.50624999999994
20
-57.006750000000004
30
0
11
139.00624999999994
21
-57.006750000000075
31
0
0
ARC
5
689
100
AcDbEntity
8
0
100
AcDbCircle
10
151.50624999999994
20
-56.256749999999904
30
0
40
0.75000000000009948
210
-0
220
0
230
1
100
AcDbArc
50
-90
51
0
0
LINE
5
690
100
AcDbEntity
8
0
100
AcDbLine
10
152.25624999999997
20
-43.756750000000224
30
0
11
152.25625000000005
21
-56.256749999999904
31
0
0
ARC
5
691
100
AcDbEntity
8
0
100
AcDbCircle
10
151.50624999999994
20
-43.756750000000224
30
0
40
0.75000000000002842
210
0
220
-0
230
1
100
AcDbArc
50
0
51
90
0
LINE
5
692
100
AcDbEntity
8
0
100
AcDbLine
10
139.00624999999994
20
-43.006750000000196
30
0
11
151.50624999999994
21
-43.006750000000196
31
0
0
ARC
5
693
100
AcDbEntity
8
0
100
AcDbCircle
10
139.00624999999994
20
-43.756750000000224
30
0
40
0.75000000000002842
210
0
220
-0
230
1
100
AcDbArc
50
90
51
180
0
LINE
5
694
100
AcDbEntity
8
0
100
AcDbLine
10
138.25624999999977
20
-56.256749999999904
30
0
11
138.25624999999991
21
-43.756750000000224
31
0
0
ARC
5
695
100
AcDbEntity
8
0
100
AcDbCircle
10
132.45625000000001
20
-56.256749999999904
30
0
40
0.75000000000009948
210
-0
220
0
230
1
100
AcDbArc
50
-90
51
0
0
LINE
5
696
100
AcDbEntity
8
0
100
AcDbLine
10
133.20625000000001
20
-43.756750000000224
30
0
11
133.2062500000001
21
-56.256749999999904
31
0
0
ARC
5
697
100
AcDbEntity
8
0
100
AcDbCircle
10
132.45625000000001
20
-43.756750000000224
30
0
40
0.74999999999999289
210
0
220
-0
230
1
100
AcDbArc
50
0
51
90
0
LINE
5
698
100
AcDbEntity
8
0
100
AcDbLine
10
119.95625000000001
20
-43.006750000000196
30
0
11
132.45625000000001
21
-43.006750000000231
31
0
0
ARC
5
699
100
AcDbEntity
8
0
100
AcDbCircle
10
119.95625000000001
20
-43.756750000000224
30
0
40
0.75000000000002842
210
0
220
-0
230
1
100
AcDbArc
50
90
51
180
0
LINE
5
700
100
AcDbEntity
8
0
100
AcDbLine
10
119.20625000000018
20
-56.256749999999904
30
0
11
119.20624999999998
21
-43.756750000000224
31
0
0
ARC
5
701
100
AcDbEntity
8
0
100
AcDbCircle
10
119.95625000000001
20
-56.256749999999904
30
0
40
0.74999999999981526
210
0
220
0
230
1
100
AcDbArc
50
180
51
270
0
LINE
5
702
100
AcDbEntity
8
0
100
AcDbLine
10
132.45625000000001
20
-57.006750000000004
30
0
11
119.95625000000001
21
-57.00674999999972
31
0
0
ARC
5
703
100
AcDbEntity
8
0
100
AcDbCircle
10
170.55624999999995
20
-56.256749999999904
30
0
40
0.75000000000009948
210
-0
220
0
230
1
100
AcDbArc
50
-90
51
0
0
LINE
5
704
100
AcDbEntity
8
0
100
AcDbLine
10
171.30624999999984
20
-43.756750000000224
30
0
11
171.30625000000006
21
-56.256749999999904
31
0
0
ARC
5
705
100
AcDbEntity
8
0
100
AcDbCircle
10
170.55624999999995
20
-43.756750000000224
30
0
40
0.74999999999988631
210
0
220
-0
230
1
100
AcDbArc
50
0
51
90
0
LINE
5
706
100
AcDbEntity
8
0
100
AcDbLine
10
158.05624999999995
20
-43.006750000000196
30
0
11
170.55624999999995
21
-43.006750000000338
31
0
0
ARC
5
707
100
AcDbEntity
8
0
100
AcDbCircle
10
158.05624999999995
20
-43.756750000000224
30
0
40
0.75000000000002842
210
0
220
-0
230
1
100
AcDbArc
50
90
51
180
0
LINE
5
708
100
AcDbEntity
8
0
100
AcDbLine
10
157.30625000000001
20
-56.256749999999904
30
0
11
157.30624999999992
21
-43.756750000000224
31
0
0
ARC
5
709
100
AcDbEntity
8
0
100
AcDbCircle
10
158.05624999999995
20
-56.256749999999904
30
0
40
0.74999999999995737
210
0
220
0
230
1
100
AcDbArc
50
180
51
270
0
LINE
5
710
100
AcDbEntity
8
0
100
AcDbLine
10
170.55624999999995
20
-57.006750000000004
30
0
11
158.05624999999995
21
-57.006749999999862
31
0
0
LINE
5
711
100
AcDbEntity
8
0
100
AcDbLine
10
108.98124999999996
20
-43.006750000000267
30
0
11
109.48124999999997
21
-43.006750000000231
31
0
0
ARC
5
712
100
AcDbEntity
8
0
100
AcDbCircle
10
109.48124999999997
20
-43.756750000000224
30
0
40
0.74999999999999289
210
0
220
-0
230
1
100
AcDbArc
50
0
51
90
0
LINE
5
713
100
AcDbEntity
8
0
100
AcDbLine
10
110.23124999999996
20
-43.756750000000224
30
0
11
110.23125
21
-56.256749999999904
31
0
0
ARC
5
714
100
AcDbEntity
8
0
100
AcDbCircle
10
109.48124999999997
20
-56.256749999999904
30
0
40
0.75000000000002842
210
-0
220
0
230
1
100
AcDbArc
50
-90
51
0
0
LINE
5
715
100
AcDbEntity
8
0
100
AcDbLine
10
109.48124999999997
20
-57.006749999999933
30
0
11
108.98124999999996
21
-57.006750000000004
31
0
0
ARC
5
716
100
AcDbEntity
8
0
100
AcDbCircle
10
108.98124999999996
20
-56.256749999999904
30
0
40
0.75000000000009948
210
0
220
0
230
1
100
AcDbArc
50
180
51
270
0
LINE
5
717
100
AcDbEntity
8
0
100
AcDbLine
10
108.23124999999987
20
-56.256749999999904
30
0
11
108.23125000000002
21
-43.756750000000224
31
0
0
ARC
5
718
100
AcDbEntity
8
0
100
AcDbCircle
10
108.98124999999996
20
-43.756750000000224
30
0
40
0.74999999999995737
210
0
220
-0
230
1
100
AcDbArc
50
90
51
180
0
ARC
5
719
100
AcDbEntity
8
0
100
AcDbCircle
10
91.381249999999952
20
-43.756750000000224
30
0
40
0.74999999999995737
210
0
220
-0
230
1
100
AcDbArc
50
90
51
180
0
LINE
5
720
100
AcDbEntity
8
0
100
AcDbLine
10
90.631249999999781
20
-56.256749999999904
30
0
11
90.631249999999994
21
-43.756750000000224
31
0
0
ARC
5
721
100
AcDbEntity
8
0
100
AcDbCircle
10
91.381249999999952
20
-56.256749999999904
30
0
40
0.75000000000017053
210
0
220
0
230
1
100
AcDbArc
50
180
51
270
0
LINE
5
722
100
AcDbEntity
8
0
100
AcDbLine
10
103.88124999999995
20
-57.006749999999933
30
0
11
91.381249999999952
21
-57.006750000000075
31
0
0
ARC
5
723
100
AcDbEntity
8
0
100
AcDbCircle
10
103.88124999999995
20
-56.256749999999904
30
0
40
0.75000000000002842
210
-0
220
0
230
1
100
AcDbArc
50
-90
51
0
0
LINE
5
724
100
AcDbEntity
8
0
100
AcDbLine
10
104.63124999999994
20
-43.756750000000224
30
0
11
104.63124999999998
21
-56.256749999999904
31
0
0
ARC
5
725
100
AcDbEntity
8
0
100
AcDbCircle
10
103.88124999999995
20
-43.756750000000224
30
0
40
0.74999999999999289
210
0
220
-0
230
1
100
AcDbArc
50
0
51
90
0
LINE
5
726
100
AcDbEntity
8
0
100
AcDbLine
10
91.381249999999952
20
-43.006750000000267
30
0
11
103.88124999999995
21
-43.006750000000231
31
0
0
LINE
5
727
100
AcDbEntity
8
0
100
AcDbLine
10
85.78125
20
-43.006750000000267
30
0
11
86.28125
21
-43.006750000000231
31
0
0
ARC
5
728
100
AcDbEntity
8
0
100
AcDbCircle
10
86.28125
20
-43.756750000000224
30
0
40
0.74999999999999289
210
0
220
-0
230
1
100
AcDbArc
50
0
51
90
0
LINE
5
729
100
AcDbEntity
8
0
100
AcDbLine
10
87.03125
20
-43.756750000000224
30
0
11
87.031250000000028
21
-56.256749999999904
31
0
0
ARC
5
730
100
AcDbEntity
8
0
100
AcDbCircle
10
86.28125
20
-56.256749999999904
30
0
40
0.75000000000002842
210
-0
220
0
230
1
100
AcDbArc
50
-90
51
0
0
LINE
5
731
100
AcDbEntity
8
0
100
AcDbLine
10
86.28125
20
-57.006749999999933
30
0
11
85.78125
21
-57.006750000000075
31
0
0
ARC
5
732
100
AcDbEntity
8
0
100
AcDbCircle
10
85.78125
20
-56.256749999999904
30
0
40
0.75000000000017053
210
0
220
0
230
1
100
AcDbArc
50
180
51
270
0
LINE
5
733
100
AcDbEntity
8
0
100
AcDbLine
10
85.031249999999829
20
-56.256749999999904
30
0
11
85.031250000000043
21
-43.756750000000224
31
0
0
ARC
5
734
100
AcDbEntity
8
0
100
AcDbCircle
10
85.78125
20
-43.756750000000224
30
0
40
0.74999999999995737
210
0
220
-0
230
1
100
AcDbArc
50
90
51
180
0
ARC
5
735
100
AcDbEntity
8
0
100
AcDbCircle
10
80.068749999999966
20
-56.256749999999904
30
0
40
0.74999999999999289
210
-0
220
0
230
1
100
AcDbArc
50
-90
51
0
0
LINE
5
736
100
AcDbEntity
8
0
100
AcDbLine
10
80.818749999999966
20
-43.756750000000224
30
0
11
80.818749999999966
21
-56.256749999999904
31
0
0
ARC
5
737
100
AcDbEntity
8
0
100
AcDbCircle
10
80.068749999999966
20
-43.756750000000224
30
0
40
0.74999999999999289
210
-0
220
0
230
1
100
AcDbArc
50
0
51
90
0
LINE
5
738
100
AcDbEntity
8
0
100
AcDbLine
10
67.568749999999966
20
-43.006750000000231
30
0
11
80.068749999999966
21
-43.006750000000231
31
0
0
ARC
5
739
100
AcDbEntity
8
0
100
AcDbCircle
10
67.568749999999966
20
-43.756750000000224
30
0
40
0.74999999999999289
210
0
220
-0
230
1
100
AcDbArc
50
90
51
180
0
LINE
5
740
100
AcDbEntity
8
0
100
AcDbLine
10
66.81874999999998
20
-56.256749999999883
30
0
11
66.81874999999998
21
-43.756750000000224
31
0
0
ARC
5
741
100
AcDbEntity
8
0
100
AcDbCircle
10
67.568749999999966
20
-56.256749999999904
30
0
40
0.74999999999999289
210
0
220
0
230
1
100
AcDbArc
50
180
51
270
0
LINE
5
742
100
AcDbEntity
8
0
100
AcDbLine
10
80.068749999999966
20
-57.006749999999897
30
0
11
67.568749999999966
21
-57.006749999999897
31
0
0
LINE
5
743
100
AcDbEntity
8
0
100
AcDbLine
10
61.856249999999982
20
-57.006749999999933
30
0
11
61.356249999999974
21
-57.006749999999933
31
0
0
ARC
5
744
100
AcDbEntity
8
0
100
AcDbCircle
10
61.356249999999974
20
-56.256749999999904
30
0
40
0.75000000000002842
210
0
220
0
230
1
100
AcDbArc
50
180
51
270
0
LINE
5
745
100
AcDbEntity
8
0
100
AcDbLine
10
60.606249999999946
20
-56.256749999999904
30
0
11
60.606249999999946
21
-43.756750000000224
31
0
0
ARC
5
746
100
AcDbEntity
8
0
100
AcDbCircle
10
61.356249999999974
20
-43.756750000000224
30
0
40
0.75000000000002842
210
0
220
-0
230
1
100
AcDbArc
50
90
51
180
0
LINE
5
747
100
AcDbEntity
8
0
100
AcDbLine
10
61.356249999999974
20
-43.006750000000196
30
0
11
61.856249999999982
21
-43.006750000000231
31
0
0
ARC
5
748
100
AcDbEntity
8
0
100
AcDbCircle
10
61.856249999999982
20
-43.756750000000224
30
0
40
0.74999999999999289
210
0
220
-0
230
1
100
AcDbArc
50
0
51
90
0
LINE
5
749
100
AcDbEntity
8
0
100
AcDbLine
10
62.606249999999974
20
-43.756750000000224
30
0
11
62.60625000000001
21
-56.256749999999904
31
0
0
ARC
5
750
100
AcDbEntity
8
0
100
AcDbCircle
10
61.856249999999982
20
-56.256749999999904
30
0
40
0.75000000000002842
210
-0
220
0
230
1
100
AcDbArc
50
-90
51
0
0
ARC
5
751
100
AcDbEntity
8
0
100
AcDbCircle
10
43.756249999999994
20
-56.256749999999904
30
0
40
0.75000000000017053
210
0
220
0
230
1
100
AcDbArc
50
180
51
270
0
LINE
5
752
100
AcDbEntity
8
0
100
AcDbLine
10
56.256249999999994
20
-57.006749999999933
30
0
11
43.756249999999994
21
-57.006750000000075
31
0
0
ARC
5
753
100
AcDbEntity
8
0
100
AcDbCircle
10
56.256249999999994
20
-56.256749999999904
30
0
40
0.75000000000002842
210
-0
220
0
230
1
100
AcDbArc
50
-90
51
0
0
LINE
5
754
100
AcDbEntity
8
0
100
AcDbLine
10
57.006249999999987
20
-43.756750000000224
30
0
11
57.006250000000023
21
-56.256749999999904
31
0
0
ARC
5
755
100
AcDbEntity
8
0
100
AcDbCircle
10
56.256249999999994
20
-43.756750000000224
30
0
40
0.74999999999999289
210
0
220
-0
230
1
100
AcDbArc
50
0
51
90
0
LINE
5
756
100
AcDbEntity
8
0
100
AcDbLine
10
43.756249999999994
20
-43.006750000000267
30
0
11
56.256249999999994
21
-43.006750000000231
31
0
0
ARC
5
757
100
AcDbEntity
8
0
100
AcDbCircle
10
43.756249999999994
20
-43.756750000000224
30
0
40
0.74999999999995737
210
0
220
-0
230
1
100
AcDbArc
50
90
51
180
0
LINE
5
758
100
AcDbEntity
8
0
100
AcDbLine
10
43.006249999999824
20
-56.256749999999904
30
0
11
43.006250000000037
21
-43.756750000000224
31
0
0
ARC
5
759
100
AcDbEntity
8
0
100
AcDbCircle
10
38.656249999999979
20
-43.756750000000224
30
0
40
0.75000000000002842
210
0
220
-0
230
1
100
AcDbArc
50
0
51
90
0
LINE
5
760
100
AcDbEntity
8
0
100
AcDbLine
10
38.156250000000007
20
-43.006750000000267
30
0
11
38.656249999999979
21
-43.006750000000196
31
0
0
ARC
5
761
100
AcDbEntity
8
0
100
AcDbCircle
10
38.156250000000007
20
-43.756750000000224
30
0
40
0.74999999999995737
210
0
220
-0
230
1
100
AcDbArc
50
90
51
180
0
LINE
5
762
100
AcDbEntity
8
0
100
AcDbLine
10
37.406249999999766
20
-56.256749999999904
30
0
11
37.40625000000005
21
-43.756750000000224
31
0
0
ARC
5
763
100
AcDbEntity
8
0
100
AcDbCircle
10
38.156250000000007
20
-56.256749999999904
30
0
40
0.75000000000024158
210
0
220
0
230
1
100
AcDbArc
50
180
51
270
0
LINE
5
764
100
AcDbEntity
8
0
100
AcDbLine
10
38.656249999999979
20
-57.006749999999933
30
0
11
38.156250000000007
21
-57.006750000000146
31
0
0
ARC
5
765
100
AcDbEntity
8
0
100
AcDbCircle
10
38.656249999999979
20
-56.256749999999904
30
0
40
0.75000000000002842
210
-0
220
0
230
1
100
AcDbArc
50
-90
51
0
0
LINE
5
766
100
AcDbEntity
8
0
100
AcDbLine
10
39.406250000000007
20
-43.756750000000224
30
0
11
39.406250000000007
21
-56.256749999999904
31
0
0
ARC
5
767
100
AcDbEntity
8
0
100
AcDbCircle
10
107.26249999999996
20
-11.56974999999977
30
0
40
0.74999999999995737
210
0
220
-0
230
1
100
AcDbArc
50
0
51
90
0
LINE
5
768
100
AcDbEntity
8
0
100
AcDbLine
10
92.762499999999974
20
-10.819749999999777
30
0
11
107.26249999999996
21
-10.819749999999813
31
0
0
ARC
5
769
100
AcDbEntity
8
0
100
AcDbCircle
10
92.762499999999974
20
-11.56974999999977
30
0
40
0.74999999999999289
210
0
220
-0
230
1
100
AcDbArc
50
90
51
180
0
LINE
5
770
100
AcDbEntity
8
0
100
AcDbLine
10
92.012499999999989
20
-16.944749999999907
30
0
11
92.012499999999989
21
-11.56974999999977
31
0
0
ARC
5
771
100
AcDbEntity
8
0
100
AcDbCircle
10
92.762499999999974
20
-16.944749999999893
30
0
40
0.74999999999999289
210
0
220
0
230
1
100
AcDbArc
50
180
51
270.00000000000324
0
LINE
5
772
100
AcDbEntity
8
0
100
AcDbLine
10
107.26249999999996
20
-17.694749999999885
30
0
11
92.762500000000017
21
-17.694749999999885
31
0
0
ARC
5
773
100
AcDbEntity
8
0
100
AcDbCircle
10
107.26249999999996
20
-16.944749999999694
30
0
40
0.75000000000018829
210
-0
220
0
230
1
100
AcDbArc
50
270
51
360
0
LINE
5
774
100
AcDbEntity
8
0
100
AcDbLine
10
108.01249999999993
20
-11.569749999999663
30
0
11
108.01250000000013
21
-16.944749999999715
31
0
0
ARC
5
775
100
AcDbEntity
8
0
100
AcDbCircle
10
-61.343750000000021
20
-50.006749999999585
30
0
40
3.4999999999999916
210
0
220
-0
230
1
100
AcDbArc
50
41.810314895775804
51
138.18968510422377
0
ARC
5
776
100
AcDbEntity
8
0
100
AcDbCircle
10
-65.256868960625027
20
-46.506749999999606
30
0
40
1.7500000000000071
210
-0
220
0
230
1
100
AcDbArc
50
270
51
318.18968510422548
0
LINE
5
777
100
AcDbEntity
8
0
100
AcDbLine
10
-71.287500000000023
20
-48.256749999999577
30
0
11
-65.256868960625027
21
-48.256749999999613
31
0
0
ARC
5
778
100
AcDbEntity
8
0
100
AcDbCircle
10
-71.287500000000023
20
-50.006749999999585
30
0
40
1.7500000000000071
210
0
220
-0
230
1
100
AcDbArc
50
90
51
270
0
LINE
5
779
100
AcDbEntity
8
0
100
AcDbLine
10
-65.256868960625027
20
-51.756749999999521
30
0
11
-71.287500000000023
21
-51.756749999999592
31
0
0
ARC
5
780
100
AcDbEntity
8
0
100
AcDbCircle
10
-65.256868960625027
20
-53.506749999999528
30
0
40
1.7500000000002347
210
0
220
-0
230
1
100
AcDbArc
50
41.810314895775747
51
90
0
ARC
5
781
100
AcDbEntity
8
0
100
AcDbCircle
10
-61.343750000000021
20
-50.006749999999585
30
0
40
3.5000000000000058
210
0
220
0
230
1
100
AcDbArc
50
221.81031489577524
51
318.18968510422474
0
ARC
5
782
100
AcDbEntity
8
0
100
AcDbCircle
10
-57.430631039375029
20
-53.506749999999528
30
0
40
1.7500000000000071
210
0
220
-0
230
1
100
AcDbArc
50
90
51
138.18968510422403
0
LINE
5
783
100
AcDbEntity
8
0
100
AcDbLine
10
-51.40000000000002
20
-51.756749999999592
30
0
11
-57.430631039375029
21
-51.756749999999521
31
0
0
ARC
5
784
100
AcDbEntity
8
0
100
AcDbCircle
10
-51.40000000000002
20
-50.006749999999585
30
0
40
1.7500000000000071
210
-0
220
0
230
1
100
AcDbArc
50
-90
51
90
0
LINE
5
785
100
AcDbEntity
8
0
100
AcDbLine
10
-57.430631039375029
20
-48.256749999999599
30
0
11
-51.40000000000002
21
-48.256749999999577
31
0
0
ARC
5
786
100
AcDbEntity
8
0
100
AcDbCircle
10
-57.430631039375029
20
-46.506749999999606
30
0
40
1.75000000000026
210
0
220
0
230
1
100
AcDbArc
50
221.81031489577578
51
270
0
LINE
5
787
100
AcDbEntity
8
0
100
AcDbLine
10
9.375
20
-51.756749999999592
30
0
11
3.3443689606249905
21
-51.756749999999521
31
0
0
ARC
5
788
100
AcDbEntity
8
0
100
AcDbCircle
10
3.3443689606249905
20
-53.506749999999528
30
0
40
1.7500000000000071
210
0
220
-0
230
1
100
AcDbArc
50
89.999999999999986
51
138.18968510422417
0
ARC
5
789
100
AcDbEntity
8
0
100
AcDbCircle
10
-0.56875000000005116
20
-50.006749999999585
30
0
40
3.4999999999999805
210
0
220
0
230
1
100
AcDbArc
50
221.8103148957756
51
318.18968510422525
0
ARC
5
790
100
AcDbEntity
8
0
100
AcDbCircle
10
-4.481868960624027
20
-53.506749999999528
30
0
40
1.7499999999994933
210
0
220
-0
230
1
100
AcDbArc
50
41.810314895797454
51
89.999999999999972
0
LINE
5
791
100
AcDbEntity
8
0
100
AcDbLine
10
-4.481868960624027
20
-51.756749999999542
30
0
11
-10.512500000000031
21
-51.756749999999592
31
0
0
ARC
5
792
100
AcDbEntity
8
0
100
AcDbCircle
10
-10.512500000000031
20
-50.006749999999585
30
0
40
1.7500000000000071
210
0
220
-0
230
1
100
AcDbArc
50
90
51
270
0
LINE
5
793
100
AcDbEntity
8
0
100
AcDbLine
10
-10.512500000000031
20
-48.256749999999577
30
0
11
-4.481868960624027
21
-48.256749999999613
31
0
0
ARC
5
794
100
AcDbEntity
8
0
100
AcDbCircle
10
-4.481868960624027
20
-46.506749999999606
30
0
40
1.7500000000000071
210
0
220
0
230
1
100
AcDbArc
50
269.99999999999994
51
318.1896851042024
0
ARC
5
795
100
AcDbEntity
8
0
100
AcDbCircle
10
-0.56875000000005116
20
-50.006749999999585
30
0
40
3.5000000000000062
210
0
220
-0
230
1
100
AcDbArc
50
41.810314895775242
51
138.18968510422403
0
ARC
5
796
100
AcDbEntity
8
0
100
AcDbCircle
10
3.3443689606249905
20
-46.506749999999606
30
0
40
1.7500000000002849
210
0
220
0
230
1
100
AcDbArc
50
221.81031489577586
51
270
0
LINE
5
797
100
AcDbEntity
8
0
100
AcDbLine
10
3.3443689606249905
20
-48.256749999999599
30
0
11
9.375
21
-48.256749999999577
31
0
0
ARC
5
798
100
AcDbEntity
8
0
100
AcDbCircle
10
9.375
20
-50.006749999999585
30
0
40
1.7500000000000071
210
-0
220
0
230
1
100
AcDbArc
50
-90
51
90
0
ENDSEC
0
SECTION
2
OBJECTS
0
DICTIONARY
5
C
100
AcDbDictionary
3
ACAD_GROUP
350
D
3
ACAD_MLINESTYLE
350
17
0
DICTIONARY
5
D
100
AcDbDictionary
0
DICTIONARY
5
1A
330
C
100
AcDbDictionary
0
DICTIONARY
5
17
100
AcDbDictionary
0
ENDSEC
0
EOF
