0
SECTION
2
HEADER
9
$INSUNITS
70
4
9
$ACADVER
1
AC1014
9
$HANDSEED
5
FFFF
0
ENDSEC
0
SECTION
2
TABLES
0
TABLE
2
VPORT
5
8
100
AcDbSymbolTable
0
ENDTAB
0
TABLE
2
LTYPE
5
5
100
AcDbSymbolTable
0
LTYPE
5
14
100
AcDbSymbolTableRecord
100
AcDbLinetypeTableRecord
2
BYBLOCK
70
0
0
LTYPE
5
15
100
AcDbSymbolTableRecord
100
AcDbLinetypeTableRecord
2
BYLAYER
70
0
0
ENDTAB
0
TABLE
2
LAYER
5
2
100
AcDbSymbolTable
70
2
0
LAYER
5
50
100
AcDbSymbolTableRecord
100
AcDbLayerTableRecord
2
0
70
0
6
CONTINUOUS
0
ENDTAB
0
TABLE
2
STYLE
5
3
100
AcDbSymbolTable
70
1
0
STYLE
5
11
100
AcDbSymbolTableRecord
100
AcDbTextStyleTableRecord
2
STANDARD
70
0
0
ENDTAB
0
TABLE
2
VIEW
5
6
100
AcDbSymbolTable
70
0
0
ENDTAB
0
TABLE
2
UCS
5
7
100
AcDbSymbolTable
70
0
0
ENDTAB
0
TABLE
2
APPID
5
9
100
AcDbSymbolTable
70
2
0
APPID
5
12
100
AcDbSymbolTableRecord
100
AcDbRegAppTableRecord
2
ACAD
70
0
0
ENDTAB
0
TABLE
2
DIMSTYLE
5
A
100
AcDbSymbolTable
70
1
0
ENDTAB
0
TABLE
2
BLOCK_RECORD
5
1
100
AcDbSymbolTable
70
1
0
BLOCK_RECORD
5
1F
100
AcDbSymbolTableRecord
100
AcDbBlockTableRecord
2
*MODEL_SPACE
0
BLOCK_RECORD
5
1B
100
AcDbSymbolTableRecord
100
AcDbBlockTableRecord
2
*PAPER_SPACE
0
ENDTAB
0
ENDSEC
0
SECTION
2
BLOCKS
0
BLOCK
5
20
100
AcDbEntity
100
AcDbBlockBegin
2
*MODEL_SPACE
0
ENDBLK
5
21
100
AcDbEntity
100
AcDbBlockEnd
0
BLOCK
5
1C
100
AcDbEntity
100
AcDbBlockBegin
2
*PAPER_SPACE
0
ENDBLK
5
1D
100
AcDbEntity
100
AcDbBlockEnd
0
ENDSEC
0
SECTION
2
ENTITIES
0
LWPOLYLINE
5
100
100
AcDbEntity
8
0
100
AcDbPolyline
90
8
70
1
43
0.0
10
-311.75000000000006
20
1.619269256744138
42
-0.41421356237309548
10
-315.75
20
5.6192692567441327
10
-315.75000000000006
20
107.81888074492792
42
-0.4142135623730937
10
-311.75000000000006
20
111.81888074492792
10
-4.0000000000000027
20
111.81888074492791
42
-0.41421356237309559
10
0
20
107.81888074492792
10
-1.3322676295501878e-14
20
5.619269256744122
42
-0.41421356237309431
10
-3.9999999999999858
20
1.61926925674413
0
LWPOLYLINE
5
101
100
AcDbEntity
8
0
100
AcDbPolyline
90
8
70
1
43
0.0
10
-52.013116838907926
20
83.069152417836278
10
-52.013116838907926
20
96.569152417836335
42
0.41421356237307771
10
-52.763116838907926
20
97.319152417836307
10
-58.263116838907287
20
97.319152417836307
42
0.41421356237309503
10
-59.01311683890728
20
96.569152417836349
10
-59.013116838907926
20
83.069152417836264
42
0.41421356237309159
10
-58.263116838907933
20
82.319152417836278
10
-52.763116838907933
20
82.31915241783625
42
0.41421356237311241
0
LWPOLYLINE
5
102
100
AcDbEntity
8
0
100
AcDbPolyline
90
8
70
1
43
0.0
10
-49.825116838906105
20
84.319152417826729
42
-0.4142135623730846
10
-50.575116838906105
20
85.069152417826714
10
-50.575116838906105
20
97.569152417826714
42
-0.41421356237309159
10
-49.825116838906105
20
98.319152417826729
10
-37.325116838906105
20
98.3191524178267
42
-0.41421356237309681
10
-36.575116838906105
20
97.569152417826714
10
-36.575116838906105
20
85.069152417826714
42
-0.41421356237309681
10
-37.325116838906105
20
84.319152417826729
0
LWPOLYLINE
5
103
100
AcDbEntity
8
0
100
AcDbPolyline
90
8
70
1
43
0.0
10
-35.137116838907943
20
96.569152417836335
10
-35.137116838907943
20
83.069152417836264
42
0.41421356237307944
10
-34.387116838907943
20
82.319152417836278
10
-28.887116838907939
20
82.319152417836264
42
0.41421356237309331
10
-28.137116838907936
20
83.069152417836264
10
-28.137116838907946
20
96.569152417836335
42
0.41421356237309503
10
-28.887116838907939
20
97.319152417836321
10
-34.387116838907943
20
97.319152417836321
42
0.41421356237309681
0
LWPOLYLINE
5
104
100
AcDbEntity
8
0
100
AcDbPolyline
90
8
70
1
43
0.0
10
-64.862616838907897
20
59.469152417836284
10
-64.862616838907897
20
46.969152417836277
42
0.41421356237307771
10
-64.112616838907883
20
46.219152417836284
10
-51.61261683890789
20
46.21915241783627
42
0.4142135623730846
10
-50.86261683890789
20
46.96915241783627
10
-50.86261683890789
20
59.46915241783627
42
0.41421356237308116
10
-51.61261683890789
20
60.219152417836284
10
-64.112616838907883
20
60.219152417836277
42
0.4142135623730846
0
LWPOLYLINE
5
105
100
AcDbEntity
8
0
100
AcDbPolyline
90
8
70
1
43
0.0
10
-30.431366838907895
20
71.894152417836295
10
-30.431366838907895
20
77.394152417836295
42
0.41421356237309681
10
-31.181366838907895
20
78.144152417836295
10
-44.681366838907898
20
78.144152417836295
42
0.41421356237309853
10
-45.431366838907898
20
77.394152417836295
10
-45.431366838907898
20
71.894152417836295
42
0.41421356237309503
10
-44.681366838907898
20
71.14415241783631
10
-31.181366838907895
20
71.14415241783631
42
0.41421356237308293
0
LWPOLYLINE
5
106
100
AcDbEntity
8
0
100
AcDbPolyline
90
8
70
1
43
0.0
10
-292.11886683890793
20
41.169152417836273
10
-304.61886683890793
20
41.169152417836273
42
0.41421356237309853
10
-305.36886683890793
20
40.41915241783628
10
-305.36886683890793
20
27.919152417836276
42
0.41421356237309503
10
-304.61886683890793
20
27.169152417836273
10
-292.11886683890793
20
27.169152417836273
42
0.41421356237309853
10
-291.36886683890799
20
27.91915241783628
10
-291.36886683890799
20
40.41915241783628
42
0.41421356237309853
0
LWPOLYLINE
5
107
100
AcDbEntity
8
0
100
AcDbPolyline
90
8
70
1
43
0.0
10
-31.181366838907895
20
54.344152417836312
42
-0.41421356237308293
10
-30.431366838907895
20
53.594152417836305
10
-30.431366838907898
20
48.094152417836312
42
-0.41421356237309681
10
-31.181366838907895
20
47.344152417836298
10
-44.681366838907898
20
47.344152417836298
42
-0.41421356237309503
10
-45.431366838907898
20
48.094152417836298
10
-45.431366838907891
20
53.594152417836298
42
-0.41421356237309159
10
-44.681366838907906
20
54.344152417836312
0
LWPOLYLINE
5
108
100
AcDbEntity
8
0
100
AcDbPolyline
90
8
70
1
43
0.0
10
-30.181366838907895
20
69.74415241783629
10
-42.681366838907891
20
69.74415241783629
42
0.41421356237308116
10
-43.431366838907898
20
68.99415241783629
10
-43.431366838907898
20
56.494152417836283
42
0.41421356237308815
10
-42.681366838907891
20
55.744152417836276
10
-30.181366838907891
20
55.74415241783629
42
0.4142135623730846
10
-29.431366838907891
20
56.494152417836283
10
-29.431366838907891
20
68.99415241783629
42
0.41421356237307771
0
LWPOLYLINE
5
109
100
AcDbEntity
8
0
100
AcDbPolyline
90
8
70
1
43
0.0
10
-269.93761683890796
20
27.91915241783628
10
-269.93761683890796
20
40.41915241783628
42
0.41421356237301177
10
-270.6876168389079
20
41.169152417836294
10
-283.18761683890796
20
41.169152417836294
42
0.41421356237301177
10
-283.93761683890796
20
40.41915241783628
10
-283.93761683890796
20
27.919152417836276
42
0.41421356237308815
10
-283.18761683890796
20
27.169152417836287
10
-270.68761683890796
20
27.16915241783628
42
0.41421356237307422
0
LWPOLYLINE
5
110
100
AcDbEntity
8
0
100
AcDbPolyline
90
12
70
1
43
0.0
10
-288.37211683890797
20
8.1192692567441362
10
-288.37211683890797
20
4.8192692567441444
42
0.41421356237309503
10
-286.8221168389079
20
3.2692692567441446
10
-283.72211683890788
20
3.2692692567441437
42
0.41421356237309515
10
-282.17211683890793
20
4.8192692567441453
10
-282.17211683890793
20
8.1192692567441345
42
0.2334523350794217
10
-283.38761683890795
20
10.580703747036349
10
-283.38761683890795
20
21.369152417836261
42
0.41421356237308637
10
-284.13761683890795
20
22.119152417836254
10
-284.63761683890789
20
22.119152417836251
42
0.41421356237308637
10
-285.38761683890789
20
21.369152417836268
10
-285.38761683890789
20
11.217116856288056
42
0.40334004887834651
0
LWPOLYLINE
5
111
100
AcDbEntity
8
0
100
AcDbPolyline
90
13
70
1
43
0.0
10
-159.32500000000002
20
3.269269256744145
10
-156.32499999999999
20
3.269269256744145
42
0.41421356237309515
10
-154.77500000000001
20
4.8192692567441462
10
-154.77500000000001
20
8.1192692567441469
42
0.73017051681303646
10
-160.40011683890455
20
9.9175420252378448
10
-160.40011683890788
20
21.369152417836276
42
0.41421356237308637
10
-161.15011683890788
20
22.119152417836261
10
-185.55636683890793
20
22.11915241783629
42
0.41421356237309853
10
-186.30636683890793
20
21.369152417836268
10
-186.30636683890793
20
8.8691524178362684
42
0.41421356237308854
10
-185.55636683890793
20
8.1191524178362666
10
-160.97500000000002
20
8.1191524178362666
10
-160.97499999999999
20
4.9192692567441458
42
0.41421356237309515
0
LWPOLYLINE
5
112
100
AcDbEntity
8
0
100
AcDbPolyline
90
8
70
1
43
0.0
10
-77.806366838907906
20
22.119152417836261
10
-92.6876168389079
20
22.119152417836276
42
0.41421356237308293
10
-93.4376168389079
20
21.369152417836276
10
-93.4376168389079
20
8.8691524178362702
42
0.41421356237309204
10
-92.6876168389079
20
8.1191524178362755
10
-77.806366838907906
20
8.1191524178362684
42
0.41421356237308943
10
-77.056366838907906
20
8.869152417836272
10
-77.056366838907906
20
21.369152417836268
42
0.41421356237309681
0
LWPOLYLINE
5
113
100
AcDbEntity
8
0
100
AcDbPolyline
90
8
70
1
43
0.0
10
-232.05636683890793
20
9.1191524178362684
10
-221.80011683890791
20
9.1191524178362684
42
0.4142135623730942
10
-221.05011683890791
20
9.8691524178362666
10
-221.05011683890791
20
23.369152417836272
42
0.41421356237309681
10
-221.80011683890791
20
24.119152417836265
10
-232.05636683890793
20
24.11915241783629
42
0.41421356237309331
10
-232.80636683890793
20
23.369152417836293
10
-232.80636683890793
20
9.8691524178362613
42
0.41421356237309465
0
LWPOLYLINE
5
114
100
AcDbEntity
8
0
100
AcDbPolyline
90
8
70
1
43
0.0
10
-99.037616838907894
20
21.369152417836268
10
-99.037616838907894
20
8.8691524178362791
42
0.41421356237309076
10
-98.287616838907894
20
8.1191524178362791
10
-97.787616838907923
20
8.1191524178362844
42
0.41421356237309159
10
-97.037616838907923
20
8.869152417836272
10
-97.037616838907923
20
21.369152417836261
42
0.41421356237308293
10
-97.787616838907923
20
22.119152417836254
10
-98.287616838907894
20
22.119152417836251
42
0.41421356237308982
0
LWPOLYLINE
5
115
100
AcDbEntity
8
0
100
AcDbPolyline
90
8
70
1
43
0.0
10
-308.58761683890793
20
21.369152417836268
10
-308.58761683890793
20
8.8691524178362791
42
0.41421356237308721
10
-307.83761683890793
20
8.1191524178362791
10
-307.33761683890793
20
8.1191524178362844
42
0.41421356237308815
10
-306.58761683890793
20
8.869152417836272
10
-306.58761683890793
20
21.369152417836265
42
0.41421356237308815
10
-307.33761683890793
20
22.119152417836258
10
-307.83761683890793
20
22.119152417836251
42
0.41421356237308815
0
LWPOLYLINE
5
116
100
AcDbEntity
8
0
100
AcDbPolyline
90
8
70
1
43
0.0
10
-260.96261683890788
20
21.369152417836276
10
-260.96261683890788
20
8.8691524178362808
42
0.41421356237308771
10
-260.21261683890788
20
8.1191524178362791
10
-259.71261683890793
20
8.1191524178362862
42
0.41421356237308815
10
-258.96261683890793
20
8.8691524178362755
10
-258.96261683890793
20
21.369152417836265
42
0.41421356237308815
10
-259.71261683890793
20
22.119152417836258
10
-260.21261683890788
20
22.119152417836254
42
0.4142135623730846
0
LWPOLYLINE
5
117
100
AcDbEntity
8
0
100
AcDbPolyline
90
8
70
1
43
0.0
10
-214.50970017224125
20
11.619152417836284
10
-192.84703350557461
20
11.619152417836272
42
0.41421356237312457
10
-192.09703350557461
20
12.369152417836274
10
-192.09703350557461
20
17.869152417836276
42
0.41421356237308637
10
-192.84703350557461
20
18.619152417836261
10
-214.50970017224125
20
18.619152417836276
42
0.41421356237312457
10
-215.25970017224125
20
17.869152417836276
10
-215.25970017224125
20
12.369152417836272
42
0.41421356237308721
0
LWPOLYLINE
5
118
100
AcDbEntity
8
0
100
AcDbPolyline
90
8
70
1
43
0.0
10
-237.76261683890789
20
21.369152417836268
10
-237.76261683890789
20
8.8691524178362773
42
0.41421356237308854
10
-237.01261683890789
20
8.1191524178362755
10
-236.51261683890792
20
8.1191524178362826
42
0.41421356237308815
10
-235.76261683890792
20
8.8691524178362702
10
-235.76261683890792
20
21.369152417836261
42
0.41421356237308637
10
-236.51261683890792
20
22.119152417836254
10
-237.01261683890789
20
22.119152417836251
42
0.41421356237308637
0
LWPOLYLINE
5
119
100
AcDbEntity
8
0
100
AcDbPolyline
90
8
70
1
43
0.0
10
-155.80111683890789
20
17.869152417836268
10
-155.80111683890789
20
12.369152417836267
42
0.41421356237309243
10
-155.05111683890792
20
11.619152417836274
10
-138.15511683890787
20
11.619152417836274
42
0.41421356237308554
10
-137.4051168389079
20
12.369152417836268
10
-137.4051168389079
20
17.869152417836272
42
0.4142135623730846
10
-138.15511683890787
20
18.619152417836265
10
-155.05111683890792
20
18.619152417836268
42
0.41421356237308554
0
LWPOLYLINE
5
120
100
AcDbEntity
8
0
100
AcDbPolyline
90
8
70
1
43
0.0
10
-75.837616838907849
20
21.369152417836276
10
-75.837616838907849
20
8.8691524178362808
42
0.41421356237308771
10
-75.087616838907849
20
8.1191524178362791
10
-74.587616838907877
20
8.1191524178362862
42
0.41421356237309159
10
-73.837616838907891
20
8.8691524178362755
10
-73.837616838907891
20
21.369152417836265
42
0.41421356237309853
10
-74.587616838907877
20
22.119152417836258
10
-75.087616838907849
20
22.119152417836254
42
0.41421356237310025
0
LWPOLYLINE
5
121
100
AcDbEntity
8
0
100
AcDbPolyline
90
8
70
1
43
0.0
10
-125.80636683890795
20
9.8691524178362862
10
-125.80636683890791
20
23.369152417836268
42
0.41421356237309331
10
-126.55636683890793
20
24.119152417836286
10
-132.05636683890791
20
24.11915241783629
42
0.41421356237309331
10
-132.80636683890791
20
23.369152417836293
10
-132.80636683890791
20
9.8691524178362826
42
0.41421356237309503
10
-132.05636683890791
20
9.1191524178362879
10
-126.55636683890793
20
9.1191524178362879
42
0.41421356237309465
0
LWPOLYLINE
5
122
100
AcDbEntity
8
0
100
AcDbPolyline
90
14
70
1
43
0.0
10
-113.77095628736198
20
22.369152417836276
10
-113.770956287362
20
22.119152417836293
10
-114.11886683890792
20
22.11915241783629
42
0.41421356237307944
10
-114.86886683890791
20
21.369152417836268
10
-114.86886683890791
20
8.8691524178362684
42
0.41421356237309204
10
-114.11886683890792
20
8.1191524178362666
10
-101.61886683890792
20
8.1191524178362844
42
0.41421356237310025
10
-100.86886683890793
20
8.8691524178362648
10
-100.86886683890793
20
21.369152417836268
42
0.41421356237308293
10
-101.61886683890792
20
22.119152417836261
10
-106.77113267737079
20
22.119152417836276
10
-106.77113267737079
20
22.369152417836276
42
0.41421356237310197
10
-107.52113267737076
20
23.119152417836268
10
-113.02095628736198
20
23.119152417836261
42
0.41421356237309159
0
LWPOLYLINE
5
123
100
AcDbEntity
8
0
100
AcDbPolyline
90
8
70
1
43
0.0
10
-93.4376168389079
20
40.419152417836266
10
-93.4376168389079
20
27.919152417836276
42
0.4142135623730846
10
-92.6876168389079
20
27.169152417836283
10
-80.1876168389079
20
27.169152417836276
42
0.41421356237309331
10
-79.4376168389079
20
27.919152417836273
10
-79.437616838907914
20
40.419152417836273
42
0.41421356237310542
10
-80.1876168389079
20
41.169152417836258
10
-92.6876168389079
20
41.169152417836273
42
0.41421356237310197
0
LWPOLYLINE
5
124
100
AcDbEntity
8
0
100
AcDbPolyline
90
8
70
1
43
0.0
10
-126.02511683890793
20
65.269152417836295
42
-0.41421356237309503
10
-126.77511683890792
20
66.019152417836281
10
-126.77511683890792
20
78.519152417836281
42
-0.41421356237309853
10
-126.02511683890793
20
79.269152417836281
10
-113.52511683890793
20
79.269152417836267
42
-0.41421356237309159
10
-112.77511683890793
20
78.519152417836281
10
-112.77511683890793
20
66.019152417836267
42
-0.41421356237309159
10
-113.52511683890793
20
65.269152417836281
0
LWPOLYLINE
5
125
100
AcDbEntity
8
0
100
AcDbPolyline
90
8
70
1
43
0.0
10
-60.100116838907923
20
21.369152417836268
10
-60.100116838907915
20
8.8691524178362737
42
0.41421356237309809
10
-59.350116838907923
20
8.119152417836272
10
-46.850116838907923
20
8.1191524178362684
42
0.41421356237308815
10
-46.100116838907923
20
8.8691524178362648
10
-46.100116838907923
20
21.369152417836268
42
0.41421356237309503
10
-46.850116838907923
20
22.119152417836272
10
-59.350116838907923
20
22.11915241783629
42
0.41421356237309853
0
LWPOLYLINE
5
126
100
AcDbEntity
8
0
100
AcDbPolyline
90
8
70
1
43
0.0
10
-22.000116838907935
20
40.419152417836266
10
-22.000116838907928
20
27.919152417836269
42
0.41421356237309159
10
-21.250116838907935
20
27.169152417836283
10
-8.7501168389079371
20
27.169152417836276
42
0.41421356237309764
10
-8.0001168389079353
20
27.91915241783628
10
-8.0001168389079353
20
40.419152417836273
42
0.41421356237308982
10
-8.7501168389079353
20
41.169152417836273
10
-21.250116838907939
20
41.169152417836273
42
0.41421356237309331
0
LWPOLYLINE
5
127
100
AcDbEntity
8
0
100
AcDbPolyline
90
8
70
1
43
0.0
10
-98.200116838907917
20
97.569152417836278
10
-98.200116838907945
20
85.069152417836278
42
0.41421356237308116
10
-97.450116838907945
20
84.319152417836278
10
-84.950116838907945
20
84.319152417836278
42
0.41421356237308116
10
-84.200116838907945
20
85.069152417836278
10
-84.200116838907917
20
97.569152417836278
42
0.41421356237310897
10
-84.950116838907945
20
98.319152417836307
10
-97.45011683890796
20
98.31915241783625
42
0.41421356237308815
0
LWPOLYLINE
5
128
100
AcDbEntity
8
0
100
AcDbPolyline
90
8
70
1
43
0.0
10
-145.82511683890795
20
78.519152417836281
10
-145.82511683890795
20
66.019152417836267
42
0.4142135623730846
10
-145.07511683890795
20
65.269152417836267
10
-132.57511683890795
20
65.269152417836281
42
0.41421356237310197
10
-131.82511683890795
20
66.019152417836281
10
-131.82511683890795
20
78.519152417836281
42
0.41421356237309159
10
-132.57511683890795
20
79.269152417836253
10
-145.07511683890795
20
79.269152417836267
42
0.41421356237309159
0
LWPOLYLINE
5
129
100
AcDbEntity
8
0
100
AcDbPolyline
90
8
70
1
43
0.0
10
-164.8751168389079
20
78.519152417836281
10
-164.87511683890796
20
66.019152417836267
42
0.41421356237310897
10
-164.1251168389079
20
65.269152417836267
10
-151.6251168389079
20
65.269152417836281
42
0.41421356237310197
10
-150.87511683890793
20
66.019152417836281
10
-150.87511683890793
20
78.519152417836281
42
0.41421356237309159
10
-151.6251168389079
20
79.269152417836253
10
-164.1251168389079
20
79.269152417836267
42
0.41421356237309503
0
LWPOLYLINE
5
130
100
AcDbEntity
8
0
100
AcDbPolyline
90
8
70
1
43
0.0
10
-179.16261683890792
20
59.469152417836277
10
-179.16261683890792
20
46.969152417836284
42
0.41421356237309503
10
-178.41261683890792
20
46.219152417836284
10
-165.91261683890792
20
46.219152417836284
42
0.41421356237309159
10
-165.16261683890792
20
46.969152417836277
10
-165.16261683890792
20
59.46915241783627
42
0.41421356237309503
10
-165.91261683890792
20
60.219152417836277
10
-178.41261683890792
20
60.21915241783627
42
0.41421356237309159
0
LWPOLYLINE
5
131
100
AcDbEntity
8
0
100
AcDbPolyline
90
8
70
1
43
0.0
10
-187.93761683890793
20
27.169152417836276
42
-0.41421356237309503
10
-188.68761683890793
20
27.919152417836269
10
-188.68761683890793
20
40.419152417836266
42
-0.41421356237309853
10
-187.93761683890793
20
41.169152417836273
10
-175.43761683890793
20
41.169152417836266
42
-0.41421356237309503
10
-174.68761683890793
20
40.419152417836273
10
-174.68761683890793
20
27.919152417836273
42
-0.41421356237309681
10
-175.43761683890793
20
27.169152417836276
0
LWPOLYLINE
5
132
100
AcDbEntity
8
0
100
AcDbPolyline
90
8
70
1
43
0.0
10
-208.77511683890793
20
79.269152417836267
10
-221.27511683890793
20
79.269152417836253
42
0.41421356237309503
10
-222.02511683890793
20
78.519152417836281
10
-222.02511683890791
20
66.019152417836267
42
0.41421356237306034
10
-221.27511683890793
20
65.269152417836324
10
-208.77511683890793
20
65.269152417836295
42
0.41421356237308815
10
-208.02511683890796
20
66.019152417836267
10
-208.02511683890796
20
78.519152417836281
42
0.41421356237309503
0
LWPOLYLINE
5
133
100
AcDbEntity
8
0
100
AcDbPolyline
90
8
70
1
43
0.0
10
-274.41261683890792
20
59.469152417836277
10
-274.41261683890792
20
46.969152417836284
42
0.41421356237308815
10
-273.66261683890792
20
46.219152417836284
10
-261.16261683890792
20
46.219152417836284
42
0.41421356237307078
10
-260.41261683890798
20
46.969152417836277
10
-260.41261683890798
20
59.46915241783627
42
0.41421356237308815
10
-261.16261683890792
20
60.219152417836277
10
-273.66261683890792
20
60.21915241783627
42
0.41421356237307078
0
LWPOLYLINE
5
134
100
AcDbEntity
8
0
100
AcDbPolyline
90
8
70
1
43
0.0
10
-289.73761683890791
20
22.119152417836268
10
-304.61886683890793
20
22.119152417836272
42
0.41421356237307422
10
-305.36886683890793
20
21.369152417836268
10
-305.36886683890793
20
8.8691524178362755
42
0.41421356237308898
10
-304.61886683890793
20
8.119152417836272
10
-289.73761683890791
20
8.1191524178362702
42
0.41421356237309725
10
-288.98761683890791
20
8.869152417836272
10
-288.98761683890791
20
21.369152417836268
42
0.41421356237309681
0
LWPOLYLINE
5
135
100
AcDbEntity
8
0
100
AcDbPolyline
90
8
70
1
43
0.0
10
-241.07511683890792
20
78.519152417836281
10
-241.07511683890792
20
66.019152417836267
42
0.41421356237308116
10
-240.32511683890792
20
65.269152417836267
10
-227.82511683890792
20
65.269152417836281
42
0.41421356237308815
10
-227.07511683890795
20
66.019152417836267
10
-227.07511683890795
20
78.519152417836281
42
0.41421356237308815
10
-227.82511683890792
20
79.269152417836253
10
-240.32511683890792
20
79.269152417836267
42
0.41421356237308815
0
LWPOLYLINE
5
136
100
AcDbEntity
8
0
100
AcDbPolyline
90
8
70
1
43
0.0
10
-285.38761683890795
20
78.519152417836281
10
-285.38761683890795
20
66.019152417836267
42
0.41421356237308815
10
-284.63761683890795
20
65.269152417836267
10
-284.13761683890795
20
65.269152417836281
42
0.41421356237308815
10
-283.38761683890795
20
66.019152417836267
10
-283.38761683890795
20
78.519152417836281
42
0.41421356237308815
10
-284.13761683890795
20
79.269152417836267
10
-284.63761683890795
20
79.269152417836267
42
0.41421356237309503
0
LWPOLYLINE
5
137
100
AcDbEntity
8
0
100
AcDbPolyline
90
8
70
1
43
0.0
10
-300.60636683890789
20
59.469152417836277
10
-300.60636683890789
20
46.969152417836284
42
0.41421356237308815
10
-299.85636683890795
20
46.219152417836284
10
-287.35636683890795
20
46.21915241783627
42
0.41421356237306384
10
-286.60636683890795
20
46.969152417836277
10
-286.60636683890795
20
59.46915241783627
42
0.41421356237308815
10
-287.35636683890795
20
60.219152417836277
10
-299.85636683890795
20
60.21915241783627
42
0.41421356237307078
0
LWPOLYLINE
5
138
100
AcDbEntity
8
0
100
AcDbPolyline
90
8
70
1
43
0.0
10
-307.7501168389079
20
97.569152417836278
10
-307.7501168389079
20
85.069152417836278
42
0.41421356237309503
10
-307.00011683890796
20
84.319152417836278
10
-294.50011683890796
20
84.319152417836278
42
0.41421356237309503
10
-293.75011683890796
20
85.069152417836278
10
-293.75011683890796
20
97.569152417836278
42
0.41421356237309503
10
-294.50011683890796
20
98.319152417836264
10
-307.00011683890796
20
98.319152417836264
42
0.41421356237309503
0
LWPOLYLINE
5
139
100
AcDbEntity
8
0
100
AcDbPolyline
90
8
70
1
43
0.0
10
-306.20636683890791
20
59.469152417836277
10
-306.20636683890791
20
46.969152417836284
42
0.41421356237308815
10
-305.45636683890797
20
46.219152417836284
10
-304.95636683890791
20
46.219152417836284
42
0.41421356237309159
10
-304.20636683890797
20
46.969152417836277
10
-304.20636683890797
20
59.46915241783627
42
0.41421356237309503
10
-304.95636683890791
20
60.219152417836277
10
-305.45636683890797
20
60.21915241783627
42
0.41421356237307078
0
LWPOLYLINE
5
140
100
AcDbEntity
8
0
100
AcDbPolyline
90
8
70
1
43
0.0
10
-260.12511683890796
20
78.519152417836281
10
-260.12511683890796
20
66.019152417836267
42
0.41421356237308116
10
-259.37511683890796
20
65.269152417836281
10
-246.87511683890793
20
65.269152417836295
42
0.41421356237308116
10
-246.12511683890796
20
66.019152417836267
10
-246.12511683890796
20
78.519152417836281
42
0.41421356237308815
10
-246.87511683890793
20
79.269152417836267
10
-259.37511683890796
20
79.269152417836267
42
0.41421356237308815
0
LWPOLYLINE
5
141
100
AcDbEntity
8
0
100
AcDbPolyline
90
8
70
1
43
0.0
10
-264.88761683890795
20
40.419152417836266
10
-264.88761683890795
20
27.919152417836276
42
0.41421356237308815
10
-264.13761683890795
20
27.169152417836276
10
-251.63761683890795
20
27.169152417836276
42
0.41421356237307599
10
-250.88761683890795
20
27.91915241783628
10
-250.88761683890795
20
40.419152417836273
42
0.41421356237308815
10
-251.63761683890795
20
41.169152417836258
10
-264.13761683890795
20
41.169152417836273
42
0.41421356237307771
0
LWPOLYLINE
5
142
100
AcDbEntity
8
0
100
AcDbPolyline
90
8
70
1
43
0.0
10
-242.11261683890791
20
22.119152417836268
10
-256.99386683890793
20
22.119152417836272
42
0.41421356237309503
10
-257.74386683890793
20
21.369152417836268
10
-257.74386683890793
20
8.8691524178362755
42
0.41421356237309592
10
-256.99386683890793
20
8.1191524178362666
10
-242.11261683890791
20
8.1191524178362666
42
0.41421356237309764
10
-241.36261683890791
20
8.869152417836272
10
-241.36261683890791
20
21.369152417836268
42
0.41421356237309681
0
LWPOLYLINE
5
143
100
AcDbEntity
8
0
100
AcDbPolyline
90
8
70
1
43
0.0
10
-217.26261683890795
20
59.469152417836277
10
-217.26261683890795
20
46.969152417836284
42
0.41421356237309503
10
-216.51261683890795
20
46.219152417836284
10
-204.01261683890795
20
46.219152417836284
42
0.41421356237309159
10
-203.26261683890795
20
46.969152417836277
10
-203.26261683890792
20
59.46915241783627
42
0.41421356237311241
10
-204.01261683890795
20
60.219152417836312
10
-216.51261683890795
20
60.21915241783627
42
0.41421356237309159
0
LWPOLYLINE
5
144
100
AcDbEntity
8
0
100
AcDbPolyline
90
8
70
1
43
0.0
10
-197.46261683890793
20
46.219152417836291
42
-0.41421356237309503
10
-198.21261683890793
20
46.969152417836284
10
-198.21261683890793
20
59.469152417836277
42
-0.41421356237309159
10
-197.46261683890793
20
60.21915241783627
10
-184.96261683890793
20
60.219152417836256
42
-0.41421356237309503
10
-184.21261683890793
20
59.46915241783627
10
-184.21261683890793
20
46.969152417836277
42
-0.41421356237309159
10
-184.96261683890793
20
46.219152417836284
0
LWPOLYLINE
5
145
100
AcDbEntity
8
0
100
AcDbPolyline
90
8
70
1
43
0.0
10
-169.63761683890792
20
40.419152417836266
10
-169.63761683890795
20
27.919152417836269
42
0.41421356237311063
10
-168.88761683890792
20
27.169152417836248
10
-156.38761683890795
20
27.169152417836276
42
0.41421356237307944
10
-155.63761683890792
20
27.919152417836273
10
-155.63761683890795
20
40.419152417836273
42
0.41421356237310197
10
-156.38761683890792
20
41.169152417836258
10
-168.88761683890792
20
41.169152417836273
42
0.41421356237309853
0
LWPOLYLINE
5
146
100
AcDbEntity
8
0
100
AcDbPolyline
90
8
70
1
43
0.0
10
-141.06261683890793
20
59.469152417836277
10
-141.06261683890793
20
46.969152417836284
42
0.41421356237309159
10
-140.31261683890793
20
46.219152417836284
10
-127.81261683890793
20
46.21915241783627
42
0.4142135623730846
10
-127.06261683890794
20
46.969152417836277
10
-127.06261683890794
20
59.46915241783627
42
0.41421356237309159
10
-127.81261683890793
20
60.219152417836277
10
-140.31261683890793
20
60.21915241783627
42
0.41421356237309503
0
LWPOLYLINE
5
147
100
AcDbEntity
8
0
100
AcDbPolyline
90
8
70
1
43
0.0
10
-117.25011683890791
20
97.569152417836278
10
-117.25011683890791
20
85.069152417836278
42
0.41421356237308116
10
-116.50011683890793
20
84.319152417836278
10
-104.00011683890793
20
84.319152417836278
42
0.41421356237308116
10
-103.25011683890793
20
85.069152417836278
10
-103.25011683890793
20
97.569152417836278
42
0.41421356237308116
10
-104.00011683890793
20
98.319152417836264
10
-116.50011683890794
20
98.319152417836264
42
0.41421356237310197
0
LWPOLYLINE
5
148
100
AcDbEntity
8
0
100
AcDbPolyline
90
8
70
1
43
0.0
10
-22.000116838907935
20
59.469152417836277
10
-22.000116838907935
20
46.969152417836284
42
0.41421356237309503
10
-21.250116838907935
20
46.219152417836284
10
-8.7501168389079371
20
46.219152417836284
42
0.41421356237308637
10
-8.0001168389079353
20
46.969152417836277
10
-8.0001168389079425
20
59.46915241783627
42
0.41421356237309809
10
-8.7501168389079353
20
60.219152417836277
10
-21.250116838907935
20
60.21915241783627
42
0.41421356237309159
0
LWPOLYLINE
5
149
100
AcDbEntity
8
0
100
AcDbPolyline
90
8
70
1
43
0.0
10
-40.300116838907911
20
27.169152417836273
42
-0.41421356237308982
10
-41.050116838907911
20
27.919152417836276
10
-41.050116838907911
20
40.419152417836266
42
-0.4142135623730846
10
-40.300116838907911
20
41.169152417836273
10
-27.800116838907911
20
41.169152417836273
42
-0.41421356237309503
10
-27.050116838907911
20
40.419152417836273
10
-27.050116838907911
20
27.919152417836273
42
-0.41421356237309853
10
-27.800116838907915
20
27.169152417836276
0
LWPOLYLINE
5
150
100
AcDbEntity
8
0
100
AcDbPolyline
90
8
70
1
43
0.0
10
-107.72511683890791
20
78.519152417836281
10
-107.72511683890791
20
66.019152417836281
42
0.41421356237309503
10
-106.97511683890792
20
65.269152417836267
10
-94.475116838907923
20
65.269152417836281
42
0.41421356237309159
10
-93.725116838907923
20
66.019152417836267
10
-93.725116838907923
20
78.519152417836281
42
0.41421356237309159
10
-94.475116838907923
20
79.269152417836253
10
-106.97511683890792
20
79.269152417836267
42
0.41421356237309159
0
LWPOLYLINE
5
151
100
AcDbEntity
8
0
100
AcDbPolyline
90
8
70
1
43
0.0
10
-83.162616838907894
20
46.219152417836298
42
-0.41421356237309159
10
-83.912616838907894
20
46.969152417836284
10
-83.912616838907894
20
59.469152417836277
42
-0.41421356237309503
10
-83.162616838907894
20
60.21915241783627
10
-70.662616838907894
20
60.219152417836256
42
-0.41421356237310197
10
-69.912616838907908
20
59.46915241783627
10
-69.912616838907894
20
46.969152417836277
42
-0.41421356237309503
10
-70.662616838907908
20
46.21915241783627
0
LWPOLYLINE
5
152
100
AcDbEntity
8
0
100
AcDbPolyline
90
8
70
1
43
0.0
10
-49.643866838907911
20
40.419152417836266
10
-49.643866838907904
20
27.919152417836269
42
0.41421356237309159
10
-48.893866838907911
20
27.169152417836283
10
-48.393866838907904
20
27.169152417836276
42
0.41421356237308982
10
-47.643866838907904
20
27.919152417836273
10
-47.643866838907911
20
40.419152417836273
42
0.41421356237310197
10
-48.393866838907904
20
41.169152417836258
10
-48.893866838907911
20
41.169152417836273
42
0.4142135623730846
0
LWPOLYLINE
5
153
100
AcDbEntity
8
0
100
AcDbPolyline
90
8
70
1
43
0.0
10
-112.48761683890791
20
40.419152417836266
10
-112.48761683890791
20
27.919152417836269
42
0.41421356237309159
10
-111.73761683890791
20
27.169152417836276
10
-99.237616838907911
20
27.169152417836276
42
0.41421356237310197
10
-98.487616838907925
20
27.91915241783628
10
-98.487616838907925
20
40.419152417836273
42
0.41421356237309159
10
-99.237616838907911
20
41.169152417836258
10
-111.73761683890791
20
41.169152417836273
42
0.41421356237310197
0
LWPOLYLINE
5
154
100
AcDbEntity
8
0
100
AcDbPolyline
90
8
70
1
43
0.0
10
-122.01261683890792
20
59.469152417836277
10
-122.01261683890795
20
46.969152417836284
42
0.41421356237309853
10
-121.26261683890792
20
46.219152417836284
10
-108.76261683890792
20
46.219152417836284
42
0.41421356237309503
10
-108.01261683890793
20
46.969152417836277
10
-108.01261683890793
20
59.46915241783627
42
0.41421356237309159
10
-108.76261683890792
20
60.219152417836277
10
-121.26261683890792
20
60.21915241783627
42
0.41421356237309503
0
LWPOLYLINE
5
155
100
AcDbEntity
8
0
100
AcDbPolyline
90
8
70
1
43
0.0
10
-68.875116838907928
20
65.269152417836295
42
-0.41421356237308116
10
-69.625116838907928
20
66.019152417836267
10
-69.625116838907942
20
78.519152417836281
42
-0.41421356237309503
10
-68.875116838907942
20
79.269152417836281
10
-56.375116838907928
20
79.269152417836281
42
-0.41421356237308116
10
-55.625116838907928
20
78.519152417836281
10
-55.625116838907928
20
66.019152417836267
42
-0.41421356237309159
10
-56.375116838907935
20
65.269152417836281
0
LWPOLYLINE
5
156
100
AcDbEntity
8
0
100
AcDbPolyline
90
8
70
1
43
0.0
10
-67.243866838907934
20
40.419152417836266
10
-67.24386683890792
20
27.919152417836269
42
0.41421356237309159
10
-66.493866838907934
20
27.169152417836283
10
-53.993866838907927
20
27.169152417836276
42
0.41421356237309159
10
-53.243866838907927
20
27.91915241783628
10
-53.243866838907934
20
40.419152417836273
42
0.41421356237310197
10
-53.993866838907927
20
41.169152417836258
10
-66.493866838907934
20
41.169152417836273
42
0.4142135623730846
0
LWPOLYLINE
5
157
100
AcDbEntity
8
0
100
AcDbPolyline
90
8
70
1
43
0.0
10
-65.900116838907934
20
98.319152417836307
10
-78.400116838907934
20
98.31915241783625
42
0.41421356237310897
10
-79.150116838907906
20
97.569152417836278
10
-79.150116838907934
20
85.069152417836278
42
0.41421356237309159
10
-78.400116838907934
20
84.319152417836278
10
-65.900116838907948
20
84.319152417836278
42
0.41421356237308815
10
-65.150116838907934
20
85.069152417836278
10
-65.150116838907906
20
97.569152417836278
42
0.41421356237309853
0
LWPOLYLINE
5
158
100
AcDbEntity
8
0
100
AcDbPolyline
90
8
70
1
43
0.0
10
-160.11261683890794
20
59.469152417836277
10
-160.11261683890794
20
46.969152417836284
42
0.41421356237309503
10
-159.36261683890794
20
46.219152417836263
10
-146.86261683890794
20
46.21915241783627
42
0.4142135623730846
10
-146.11261683890794
20
46.969152417836277
10
-146.11261683890791
20
59.46915241783627
42
0.41421356237309853
10
-146.86261683890794
20
60.219152417836312
10
-159.36261683890794
20
60.21915241783627
42
0.41421356237307771
0
LWPOLYLINE
5
159
100
AcDbEntity
8
0
100
AcDbPolyline
90
8
70
1
43
0.0
10
-183.92511683890791
20
78.519152417836281
10
-183.92511683890797
20
66.019152417836267
42
0.41421356237310897
10
-183.17511683890791
20
65.269152417836253
10
-170.67511683890791
20
65.269152417836281
42
0.41421356237309853
10
-169.92511683890794
20
66.019152417836281
10
-169.92511683890794
20
78.519152417836281
42
0.41421356237309503
10
-170.67511683890791
20
79.269152417836267
10
-183.17511683890791
20
79.269152417836267
42
0.41421356237309503
0
LWPOLYLINE
5
160
100
AcDbEntity
8
0
100
AcDbPolyline
90
8
70
1
43
0.0
10
-212.50011683890793
20
97.569152417836278
10
-212.50011683890793
20
85.069152417836278
42
0.41421356237309503
10
-211.75011683890796
20
84.319152417836278
10
-199.25011683890796
20
84.319152417836278
42
0.41421356237309503
10
-198.50011683890796
20
85.069152417836278
10
-198.5001168389079
20
97.569152417836278
42
0.41421356237311585
10
-199.25011683890796
20
98.319152417836307
10
-211.75011683890796
20
98.319152417836264
42
0.41421356237309503
0
LWPOLYLINE
5
161
100
AcDbEntity
8
0
100
AcDbPolyline
90
8
70
1
43
0.0
10
-226.78761683890795
20
40.419152417836266
10
-226.78761683890792
20
27.919152417836269
42
0.41421356237306212
10
-226.03761683890795
20
27.169152417836319
10
-213.53761683890795
20
27.169152417836276
42
0.41421356237309681
10
-212.78761683890795
20
27.91915241783628
10
-212.78761683890792
20
40.419152417836273
42
0.41421356237311241
10
-213.53761683890795
20
41.169152417836294
10
-226.03761683890795
20
41.169152417836273
42
0.41421356237309853
0
LWPOLYLINE
5
162
100
AcDbEntity
8
0
100
AcDbPolyline
90
8
70
1
43
0.0
10
-255.36261683890791
20
59.469152417836277
10
-255.36261683890791
20
46.969152417836284
42
0.41421356237308815
10
-254.61261683890794
20
46.219152417836284
10
-242.11261683890794
20
46.21915241783627
42
0.41421356237306384
10
-241.36261683890794
20
46.969152417836277
10
-241.36261683890794
20
59.46915241783627
42
0.41421356237308815
10
-242.11261683890794
20
60.219152417836277
10
-254.61261683890794
20
60.21915241783627
42
0.41421356237307078
0
LWPOLYLINE
5
163
100
AcDbEntity
8
0
100
AcDbPolyline
90
8
70
1
43
0.0
10
-265.92511683890791
20
22.119152417836283
10
-280.80636683890793
20
22.11915241783629
42
0.41421356237311241
10
-281.55636683890799
20
21.369152417836268
10
-281.55636683890793
20
8.8691524178362755
42
0.41421356237309592
10
-280.80636683890793
20
8.1191524178362737
10
-265.92511683890791
20
8.1191524178362684
42
0.41421356237309631
10
-265.17511683890791
20
8.8691524178362684
10
-265.17511683890791
20
21.369152417836276
42
0.41421356237309681
0
LWPOLYLINE
5
164
100
AcDbEntity
8
0
100
AcDbPolyline
90
8
70
1
43
0.0
10
-231.55011683890791
20
97.569152417836278
10
-231.55011683890794
20
85.069152417836278
42
0.41421356237309503
10
-230.80011683890797
20
84.319152417836278
10
-218.30011683890797
20
84.319152417836278
42
0.41421356237309503
10
-217.55011683890797
20
85.069152417836278
10
-217.55011683890797
20
97.569152417836278
42
0.41421356237309503
10
-218.30011683890797
20
98.319152417836264
10
-230.80011683890797
20
98.31915241783625
42
0.41421356237310897
0
LWPOLYLINE
5
165
100
AcDbEntity
8
0
100
AcDbPolyline
90
8
70
1
43
0.0
10
-283.00636683890792
20
59.469152417836277
10
-283.00636683890792
20
46.969152417836284
42
0.41421356237308815
10
-282.25636683890792
20
46.219152417836284
10
-281.75636683890792
20
46.219152417836284
42
0.41421356237309159
10
-281.00636683890792
20
46.969152417836277
10
-281.00636683890792
20
59.46915241783627
42
0.41421356237309503
10
-281.75636683890792
20
60.219152417836277
10
-282.25636683890792
20
60.21915241783627
42
0.41421356237307078
0
LWPOLYLINE
5
166
100
AcDbEntity
8
0
100
AcDbPolyline
90
8
70
1
43
0.0
10
-302.98761683890791
20
78.519152417836281
10
-302.98761683890791
20
66.019152417836267
42
0.41421356237308815
10
-302.23761683890791
20
65.269152417836267
10
-289.73761683890791
20
65.269152417836295
42
0.41421356237308815
10
-288.98761683890791
20
66.019152417836267
10
-288.98761683890791
20
78.519152417836281
42
0.41421356237309503
10
-289.73761683890791
20
79.269152417836267
10
-302.23761683890791
20
79.269152417836267
42
0.41421356237309503
0
LWPOLYLINE
5
167
100
AcDbEntity
8
0
100
AcDbPolyline
90
8
70
1
43
0.0
10
-308.58761683890793
20
78.519152417836281
10
-308.58761683890793
20
66.019152417836281
42
0.41421356237309853
10
-307.83761683890793
20
65.269152417836267
10
-307.33761683890793
20
65.269152417836281
42
0.41421356237307771
10
-306.58761683890793
20
66.019152417836281
10
-306.58761683890793
20
78.519152417836281
42
0.41421356237308815
10
-307.33761683890793
20
79.269152417836253
10
-307.83761683890793
20
79.269152417836281
42
0.41421356237309503
0
LWPOLYLINE
5
168
100
AcDbEntity
8
0
100
AcDbPolyline
90
8
70
1
43
0.0
10
-279.17511683890791
20
78.519152417836281
10
-279.17511683890791
20
66.019152417836267
42
0.41421356237310897
10
-278.42511683890791
20
65.269152417836267
10
-265.92511683890791
20
65.269152417836281
42
0.41421356237309503
10
-265.17511683890791
20
66.019152417836267
10
-265.17511683890791
20
78.519152417836281
42
0.41421356237309503
10
-265.92511683890791
20
79.269152417836253
10
-278.42511683890791
20
79.269152417836281
42
0.41421356237309503
0
LWPOLYLINE
5
169
100
AcDbEntity
8
0
100
AcDbPolyline
90
8
70
1
43
0.0
10
-250.60011683890792
20
97.569152417836278
10
-250.60011683890792
20
85.069152417836278
42
0.41421356237307422
10
-249.85011683890792
20
84.319152417836278
10
-237.35011683890792
20
84.319152417836278
42
0.41421356237307422
10
-236.60011683890792
20
85.069152417836278
10
-236.60011683890792
20
97.569152417836278
42
0.41421356237307422
10
-237.35011683890792
20
98.319152417836264
10
-249.85011683890792
20
98.319152417836264
42
0.41421356237307422
0
LWPOLYLINE
5
170
100
AcDbEntity
8
0
100
AcDbPolyline
90
8
70
1
43
0.0
10
-245.83761683890793
20
40.419152417836266
10
-245.83761683890793
20
27.919152417836269
42
0.41421356237308815
10
-245.08761683890793
20
27.169152417836283
10
-232.58761683890793
20
27.169152417836276
42
0.41421356237308982
10
-231.83761683890793
20
27.919152417836273
10
-231.83761683890793
20
40.419152417836273
42
0.41421356237308815
10
-232.58761683890793
20
41.169152417836258
10
-245.08761683890793
20
41.169152417836273
42
0.41421356237307771
0
LWPOLYLINE
5
171
100
AcDbEntity
8
0
100
AcDbPolyline
90
8
70
1
43
0.0
10
-236.3126168389079
20
59.469152417836277
10
-236.3126168389079
20
46.969152417836284
42
0.41421356237308815
10
-235.56261683890793
20
46.219152417836284
10
-223.06261683890793
20
46.219152417836284
42
0.41421356237307078
10
-222.31261683890793
20
46.969152417836277
10
-222.31261683890793
20
59.46915241783627
42
0.41421356237308815
10
-223.06261683890793
20
60.219152417836277
10
-235.56261683890793
20
60.21915241783627
42
0.41421356237307078
0
LWPOLYLINE
5
172
100
AcDbEntity
8
0
100
AcDbPolyline
90
8
70
1
43
0.0
10
-202.97511683890792
20
78.519152417836281
10
-202.97511683890792
20
66.019152417836281
42
0.41421356237309853
10
-202.22511683890792
20
65.269152417836267
10
-189.72511683890792
20
65.269152417836281
42
0.41421356237309853
10
-188.97511683890795
20
66.019152417836281
10
-188.97511683890795
20
78.519152417836281
42
0.41421356237309503
10
-189.72511683890792
20
79.269152417836267
10
-202.22511683890792
20
79.269152417836281
42
0.41421356237309503
0
LWPOLYLINE
5
173
100
AcDbEntity
8
0
100
AcDbPolyline
90
8
70
1
43
0.0
10
-207.73761683890794
20
40.419152417836266
10
-207.73761683890794
20
27.919152417836269
42
0.41421356237309503
10
-206.98761683890794
20
27.169152417836283
10
-194.48761683890794
20
27.169152417836276
42
0.41421356237309681
10
-193.73761683890794
20
27.91915241783628
10
-193.73761683890791
20
40.419152417836273
42
0.41421356237311241
10
-194.48761683890794
20
41.169152417836294
10
-206.98761683890794
20
41.169152417836273
42
0.41421356237309853
0
LWPOLYLINE
5
174
100
AcDbEntity
8
0
100
AcDbPolyline
90
8
70
1
43
0.0
10
-192.70011683890795
20
84.319152417836278
42
-0.41421356237309503
10
-193.45011683890792
20
85.069152417836278
10
-193.45011683890792
20
97.569152417836278
42
-0.41421356237309503
10
-192.70011683890795
20
98.319152417836264
10
-180.20011683890795
20
98.319152417836264
42
-0.41421356237309503
10
-179.45011683890795
20
97.569152417836278
10
-179.45011683890795
20
85.069152417836278
42
-0.41421356237309503
10
-180.20011683890795
20
84.319152417836278
0
LWPOLYLINE
5
175
100
AcDbEntity
8
0
100
AcDbPolyline
90
8
70
1
43
0.0
10
-150.58761683890793
20
40.419152417836266
10
-150.58761683890793
20
27.919152417836269
42
0.41421356237309159
10
-149.83761683890793
20
27.169152417836283
10
-137.33761683890793
20
27.169152417836276
42
0.41421356237310197
10
-136.58761683890793
20
27.91915241783628
10
-136.58761683890793
20
40.419152417836273
42
0.41421356237309159
10
-137.33761683890793
20
41.169152417836273
10
-149.83761683890793
20
41.169152417836273
42
0.41421356237310197
0
LWPOLYLINE
5
176
100
AcDbEntity
8
0
100
AcDbPolyline
90
8
70
1
43
0.0
10
-136.30011683890791
20
97.569152417836278
10
-136.30011683890791
20
85.069152417836278
42
0.41421356237308116
10
-135.55011683890794
20
84.319152417836278
10
-123.05011683890794
20
84.319152417836278
42
0.41421356237308116
10
-122.30011683890794
20
85.069152417836278
10
-122.30011683890794
20
97.569152417836278
42
0.41421356237308116
10
-123.05011683890794
20
98.319152417836264
10
-135.55011683890794
20
98.319152417836264
42
0.41421356237310197
0
LWPOLYLINE
5
177
100
AcDbEntity
8
0
100
AcDbPolyline
90
8
70
1
43
0.0
10
-22.000116838907935
20
78.519152417836281
10
-22.000116838907935
20
66.019152417836281
42
0.41421356237310025
10
-21.250116838907935
20
65.269152417836267
10
-8.7501168389079371
20
65.269152417836295
42
0.41421356237310153
10
-8.0001168389079353
20
66.019152417836281
10
-8.0001168389079353
20
78.519152417836281
42
0.41421356237308982
10
-8.7501168389079353
20
79.269152417836267
10
-21.250116838907939
20
79.269152417836281
42
0.41421356237308982
0
LWPOLYLINE
5
178
100
AcDbEntity
8
0
100
AcDbPolyline
90
8
70
1
43
0.0
10
-88.67511683890794
20
78.519152417836281
10
-88.67511683890794
20
66.019152417836267
42
0.4142135623730846
10
-87.92511683890794
20
65.269152417836281
10
-75.425116838907954
20
65.269152417836295
42
0.41421356237310197
10
-74.67511683890794
20
66.019152417836281
10
-74.67511683890794
20
78.519152417836281
42
0.41421356237308116
10
-75.42511683890794
20
79.269152417836267
10
-87.92511683890794
20
79.269152417836267
42
0.41421356237309159
0
LWPOLYLINE
5
179
100
AcDbEntity
8
0
100
AcDbPolyline
90
8
70
1
43
0.0
10
-102.21261683890791
20
46.219152417836298
42
-0.41421356237309159
10
-102.96261683890791
20
46.969152417836284
10
-102.96261683890791
20
59.469152417836277
42
-0.41421356237309503
10
-102.21261683890791
20
60.21915241783627
10
-89.712616838907906
20
60.219152417836249
42
-0.41421356237309159
10
-88.96261683890792
20
59.46915241783627
10
-88.96261683890792
20
46.969152417836277
42
-0.4142135623730846
10
-89.712616838907906
20
46.21915241783627
0
LWPOLYLINE
5
180
100
AcDbEntity
8
0
100
AcDbPolyline
90
8
70
1
43
0.0
10
-118.28761683890792
20
41.169152417836273
10
-130.78761683890792
20
41.169152417836273
42
0.41421356237310197
10
-131.53761683890792
20
40.419152417836266
10
-131.53761683890792
20
27.919152417836276
42
0.4142135623730846
10
-130.78761683890792
20
27.169152417836283
10
-118.28761683890792
20
27.169152417836276
42
0.41421356237310197
10
-117.53761683890794
20
27.91915241783628
10
-117.53761683890794
20
40.419152417836273
42
0.41421356237309159
0
LWPOLYLINE
5
181
100
AcDbEntity
8
0
100
AcDbPolyline
90
8
70
1
43
0.0
10
-72.843866838907914
20
40.419152417836266
10
-72.843866838907914
20
27.919152417836276
42
0.41421356237308982
10
-72.093866838907914
20
27.169152417836276
10
-71.5938668389079
20
27.169152417836276
42
0.41421356237308982
10
-70.8438668389079
20
27.919152417836273
10
-70.8438668389079
20
40.419152417836273
42
0.41421356237308116
10
-71.5938668389079
20
41.169152417836273
10
-72.093866838907914
20
41.169152417836273
42
0.4142135623730846
0
LWPOLYLINE
5
182
100
AcDbEntity
8
0
100
AcDbPolyline
90
18
70
1
43
0.0
10
-142.10011683890792
20
98.319152417836264
10
-154.77500000000003
20
98.31915241783625
10
-154.77500000000001
20
101.31926925674415
42
0.99999999999999989
10
-160.97500000000002
20
101.31926925674419
10
-160.97500000000002
20
98.319152417836278
10
-173.65011683890793
20
98.31915241783625
42
0.41421356237310897
10
-174.40011683890788
20
97.569152417836278
10
-174.40011683890793
20
85.069152417836278
42
0.41421356237311585
10
-173.65011683890793
20
84.31915241783625
10
-161.15011683890793
20
84.319152417836278
42
0.41421356237309503
10
-160.40011683890793
20
85.069152417836278
10
-160.40011683890128
20
96.52099648825299
42
0.51547056771740951
10
-155.35011683891125
20
96.520668405283459
10
-155.35011683890792
20
85.069152417836278
42
0.41421356237308116
10
-154.60011683890792
20
84.319152417836278
10
-142.10011683890792
20
84.319152417836278
42
0.41421356237308116
10
-141.35011683890792
20
85.069152417836278
10
-141.35011683890792
20
97.569152417836278
42
0.41421356237308116
0
LWPOLYLINE
5
183
100
AcDbEntity
8
0
100
AcDbPolyline
90
19
70
1
43
0.0
10
-275.27511683670605
20
98.31915241783625
10
-287.95011683890789
20
98.31915241783625
42
0.41421356237310897
10
-288.70011683890789
20
97.569152417836278
10
-288.70011683890789
20
85.069152417836278
42
0.41421356237309503
10
-287.95011683890789
20
84.319152417836278
10
-275.45011683890789
20
84.319152417836278
42
0.41421356237308815
10
-274.70011683890795
20
85.06915241783625
10
-274.70011683890129
20
96.520832435492778
42
0.51547056584230766
10
-269.65011683891129
20
96.520832435490362
10
-269.65011683890793
20
85.069152417836278
42
0.41421356237307422
10
-268.90011683890793
20
84.319152417836278
10
-256.40011683890793
20
84.319152417836278
42
0.41421356237307422
10
-255.65011683890793
20
85.069152417836278
10
-255.65011683890793
20
97.569152417836278
42
0.41421356237307422
10
-256.40011683890793
20
98.319152417836264
10
-269.07511683890789
20
98.319152417836278
10
-269.07511683890789
20
101.31926925674419
42
0.99999999999999989
10
-275.27511683890793
20
101.31926925674419
10
-275.27511683890793
20
98.319269256744363
42
9.422522203336822e-06
0
LWPOLYLINE
5
184
100
AcDbEntity
8
0
100
AcDbPolyline
90
12
70
1
43
0.0
10
-22.000116838914604
20
96.520832435492693
42
-0.73014561497930774
10
-27.625116838907928
20
98.319269256744349
10
-27.625116838907935
20
101.31926925674426
42
-0.99999999999999989
10
-21.425116838907925
20
101.31926925674429
10
-21.425116838907933
20
98.319269256729967
42
-9.422521466907665e-06
10
-21.425116841109755
20
98.319152417836264
10
-8.7501168389079353
20
98.319152417836264
42
-0.4142135623731007
10
-8.0001168389079353
20
97.569152417836278
10
-8.0001168389079353
20
85.069152417836278
42
-0.4142135623730851
10
-8.7501168389079389
20
84.319152417836278
10
-21.250116838907935
20
84.319152417836278
42
-0.41421356237308293
10
-22.000116838907928
20
85.069152417836278
0
CIRCLE
5
185
100
AcDbEntity
8
0
100
AcDbCircle
10
-310.95000000000005
20
3.3692692567441327
30
2.2204460492503131e-15
40
1.0000000000000144
210
0
220
0
230
1
0
CIRCLE
5
186
100
AcDbEntity
8
0
100
AcDbCircle
10
-311.71113712481764
20
106.55055110137451
30
4.4408920985006262e-15
40
1.2500000000000002
210
0
220
0
230
1
0
CIRCLE
5
187
100
AcDbEntity
8
0
100
AcDbCircle
10
-4.0239999999999938
20
3.5030960511861284
30
2.2204460492503131e-15
40
1.2500000000000002
210
0
220
0
230
1
0
CIRCLE
5
188
100
AcDbEntity
8
0
100
AcDbCircle
10
-4.0091371248176415
20
106.55055110137452
30
2.2204460492503131e-15
40
1.2499999999999991
210
0
220
-1.3877787807814454e-17
230
1
0
LWPOLYLINE
5
189
100
AcDbEntity
8
0
100
AcDbPolyline
90
20
70
1
43
0.0
10
-21.425126727758055
20
4.8192692567441506
10
-21.425126727758055
20
8.1191524178362648
10
-8.7501168389079353
20
8.1191524178362684
42
0.4142135623730937
10
-8.0001168389079353
20
8.8691524178362648
10
-8.0001168389079425
20
21.369152417836268
42
0.41421356237309503
10
-8.7501168389079353
20
22.119152417836261
10
-21.250116838907935
20
22.11915241783629
42
0.41421356237308815
10
-22.000116838907935
20
21.369152417836268
10
-22.00011683891459
20
9.9176921939985228
42
0.51547056585573103
10
-27.050116838904579
20
9.9177199618338303
10
-27.050116838907883
20
21.369152417836268
42
0.41421356237309853
10
-27.800116838907911
20
22.119152417836297
10
-40.300116838907911
20
22.11915241783629
42
0.41421356237309853
10
-41.050116838907933
20
21.369152417836268
10
-41.050116838907904
20
8.8691524178362755
42
0.41421356237309853
10
-40.300116838907911
20
8.1191524178362737
10
-27.625126727758058
20
8.1191524178362844
10
-27.625126727758058
20
4.8192692567441506
42
0.41421356237309503
10
-26.075126727758054
20
3.2692692567441499
10
-22.97512672775806
20
3.2692692567441495
42
0.41421356237309515
0
ENDSEC
0
SECTION
2
OBJECTS
0
DICTIONARY
5
C
100
AcDbDictionary
3
ACAD_GROUP
350
D
3
ACAD_MLINESTYLE
350
17
0
DICTIONARY
5
D
100
AcDbDictionary
0
DICTIONARY
5
1A
330
C
100
AcDbDictionary
0
DICTIONARY
5
17
100
AcDbDictionary
0
ENDSEC
0
EOF
