0
SECTION
2
HEADER
9
$INSUNITS
70
4
9
$ACADVER
1
AC1014
9
$HANDSEED
5
FFFF
0
ENDSEC
0
SECTION
2
TABLES
0
TABLE
2
VPORT
5
8
100
AcDbSymbolTable
0
ENDTAB
0
TABLE
2
LTYPE
5
5
100
AcDbSymbolTable
0
LTYPE
5
14
100
AcDbSymbolTableRecord
100
AcDbLinetypeTableRecord
2
BYBLOCK
70
0
0
LTYPE
5
15
100
AcDbSymbolTableRecord
100
AcDbLinetypeTableRecord
2
BYLAYER
70
0
0
ENDTAB
0
TABLE
2
LAYER
5
2
100
AcDbSymbolTable
70
2
0
LAYER
5
50
100
AcDbSymbolTableRecord
100
AcDbLayerTableRecord
2
0
70
0
6
CONTINUOUS
0
ENDTAB
0
TABLE
2
STYLE
5
3
100
AcDbSymbolTable
70
1
0
STYLE
5
11
100
AcDbSymbolTableRecord
100
AcDbTextStyleTableRecord
2
STANDARD
70
0
0
ENDTAB
0
TABLE
2
VIEW
5
6
100
AcDbSymbolTable
70
0
0
ENDTAB
0
TABLE
2
UCS
5
7
100
AcDbSymbolTable
70
0
0
ENDTAB
0
TABLE
2
APPID
5
9
100
AcDbSymbolTable
70
2
0
APPID
5
12
100
AcDbSymbolTableRecord
100
AcDbRegAppTableRecord
2
ACAD
70
0
0
ENDTAB
0
TABLE
2
DIMSTYLE
5
A
100
AcDbSymbolTable
70
1
0
ENDTAB
0
TABLE
2
BLOCK_RECORD
5
1
100
AcDbSymbolTable
70
1
0
BLOCK_RECORD
5
1F
100
AcDbSymbolTableRecord
100
AcDbBlockTableRecord
2
*MODEL_SPACE
0
BLOCK_RECORD
5
1B
100
AcDbSymbolTableRecord
100
AcDbBlockTableRecord
2
*PAPER_SPACE
0
ENDTAB
0
ENDSEC
0
SECTION
2
BLOCKS
0
BLOCK
5
20
100
AcDbEntity
100
AcDbBlockBegin
2
*MODEL_SPACE
0
ENDBLK
5
21
100
AcDbEntity
100
AcDbBlockEnd
0
BLOCK
5
1C
100
AcDbEntity
100
AcDbBlockBegin
2
*PAPER_SPACE
0
ENDBLK
5
1D
100
AcDbEntity
100
AcDbBlockEnd
0
ENDSEC
0
SECTION
2
ENTITIES
0
LWPOLYLINE
5
100
100
AcDbEntity
8
0
100
AcDbPolyline
90
16
70
1
43
0.0
10
59.783394355250479
20
-139.51685419056423
10
59.783394355250472
20
-137.5168541905642
42
0.41421356237313323
10
59.033394355250479
20
-136.76685419056417
10
54.022326126467362
20
-136.76685419056423
42
-0.23993164795345245
10
53.415808755076142
20
-136.45803066115246
42
0.50917507721731547
10
47.754979955424808
20
-136.45803066115243
42
-0.23993164795345751
10
47.148462584033588
20
-136.7668541905642
10
42.137394355250507
20
-136.76685419056415
42
0.41421356237314361
10
41.387394355250521
20
-137.51685419056417
10
41.387394355250507
20
-139.5168541905642
42
0.41421356237312279
10
42.137394355250507
20
-140.26685419056417
10
47.148462584033609
20
-140.26685419056423
42
-0.23993164795346408
10
47.754979955424794
20
-140.575677719976
42
0.50917507721731825
10
53.415808755076213
20
-140.575677719976
42
-0.23993164795346408
10
54.022326126467362
20
-140.26685419056423
10
59.033394355250486
20
-140.2668541905642
42
0.41421356237311241
0
LWPOLYLINE
5
101
100
AcDbEntity
8
0
100
AcDbPolyline
90
16
70
1
43
0.0
10
116.85851935525015
20
-139.51685419056395
10
116.85851935525019
20
-137.51685419056392
42
0.41421356237310197
10
116.10851935525021
20
-136.76685419056395
10
111.09745112646713
20
-136.76685419056392
42
-0.23993164795347702
10
110.49093375507587
20
-136.45803066115212
42
0.50917507721731126
10
104.83010495542453
20
-136.45803066115212
42
-0.2399316479534595
10
104.22358758403333
20
-136.76685419056392
10
99.212519355250194
20
-136.76685419056392
42
0.41421356237312978
10
98.462519355250208
20
-137.51685419056392
10
98.462519355250166
20
-139.51685419056395
42
0.41421356237308815
10
99.21251935525018
20
-140.26685419056392
10
104.22358758403327
20
-140.26685419056383
42
-0.2399316479534857
10
104.83010495542456
20
-140.57567771997572
42
0.50917507721731325
10
110.4909337550759
20
-140.57567771997572
42
-0.23993164795346092
10
111.09745112646705
20
-140.26685419056395
10
116.10851935525012
20
-140.26685419056395
42
0.41421356237314361
0
LWPOLYLINE
5
102
100
AcDbEntity
8
0
100
AcDbPolyline
90
20
70
1
43
0.0
10
219.12651935525008
20
-69.316854190564555
10
219.12651935525008
20
-70.517475163995286
42
0.41421356237309853
10
219.87651935525011
20
-71.267475163995314
10
225.64415764023377
20
-71.2674751639953
42
0.31095354124068786
10
226.12651935525011
20
-70.566854190564584
10
226.12651935525014
20
-69.31685419056457
10
226.46351935525018
20
-69.316854190564584
42
0.41421356237308116
10
227.21351935525013
20
-68.566854190564555
10
227.21351935525013
20
-56.066854190564612
42
0.41421356237307078
10
226.46351935525016
20
-55.316854190564591
10
194.9135193552502
20
-55.316854190564584
42
0.41421356237308116
10
194.16351935525017
20
-56.066854190564598
10
194.16351935525017
20
-68.566854190564555
42
0.41421356237311585
10
194.91351935525023
20
-69.316854190564555
10
195.25051935525016
20
-69.316854190564584
10
195.25051935525022
20
-70.517475163995286
42
0.41421356237309853
10
196.00051935525019
20
-71.267475163995286
10
201.76815764023385
20
-71.2674751639953
42
0.31095354124069113
10
202.25051935525019
20
-70.566854190564584
10
202.25051935525019
20
-69.31685419056457
0
LWPOLYLINE
5
103
100
AcDbEntity
8
0
100
AcDbPolyline
90
8
70
1
43
0.0
10
221.70101935525003
20
-74.366854190564567
10
209.20101935525008
20
-74.366854190564567
42
0.41421356237306034
10
208.45101935525011
20
-75.116854190564524
10
208.45101935525011
20
-87.616854190564538
42
0.41421356237310897
10
209.20101935525014
20
-88.366854190564538
10
221.70101935525011
20
-88.36685419056451
42
0.41421356237315055
10
222.45101935525014
20
-87.61685419056451
10
222.45101935525008
20
-75.116854190564538
42
0.41421356237310197
0
LWPOLYLINE
5
104
100
AcDbEntity
8
0
100
AcDbPolyline
90
24
70
1
43
0.0
10
200.41351935524972
20
-71.841852840757369
10
-26.686480644749722
20
-71.841852840757298
42
0.41421356237307771
10
-27.436480644749718
20
-72.591852840757255
10
-27.436480644749661
20
-90.141852840757238
42
0.41421356237309159
10
-26.686480644749672
20
-90.891852840757252
10
-23.423980644749193
20
-90.891852840757224
42
-0.41421356237312978
10
-22.673980644749193
20
-91.641852840757252
10
-22.673980644749221
20
-109.19285284075728
42
0.41421356237309331
10
-21.923980644749228
20
-109.94285284075727
10
-13.898980644749239
20
-109.94285284075731
42
-0.41421356237312101
10
-13.148980644749244
20
-110.69285284075731
10
-13.148980644749281
20
-128.24285284075728
42
0.41421356237312196
10
-12.398980644749216
20
-128.99285284075728
10
176.60101935524995
20
-128.99285284075728
42
0.41421356237310897
10
177.35101935524992
20
-128.24285284075725
10
177.3510193552498
20
-110.69185284075735
42
-0.41421356237310897
10
178.10101935524983
20
-109.94185284075733
10
186.12601935524981
20
-109.94185284075732
42
0.41421356237310897
10
186.87601935524987
20
-109.19185284075729
10
186.87601935524987
20
-91.641852840757338
42
-0.41421356237306034
10
187.62601935524984
20
-90.891852840757309
10
200.41351935524975
20
-90.891852840757323
42
0.41421356237309503
10
201.16351935524975
20
-90.141852840757338
10
201.16351935524972
20
-72.591852840757383
42
0.41421356237309853
0
LWPOLYLINE
5
105
100
AcDbEntity
8
0
100
AcDbPolyline
90
8
70
1
43
0.0
10
33.213519355250639
20
-143.7668541905644
10
33.213519355250618
20
-130.74285419056443
42
0.41421356237310719
10
32.463519355250597
20
-129.99285419056443
10
22.207269355250624
20
-129.99285419056449
42
0.41421356237309503
10
21.45726935525062
20
-130.74285419056449
10
21.457269355250624
20
-143.7668541905644
42
0.41421356237308116
10
22.207269355250627
20
-144.5168541905644
10
32.463519355250618
20
-144.5168541905644
42
0.41421356237308637
0
LWPOLYLINE
5
106
100
AcDbEntity
8
0
100
AcDbPolyline
90
8
70
1
43
0.0
10
127.97517961648239
20
-129.56633717297916
10
122.20726935525035
20
-129.56633717297916
42
0.41421356237308815
10
121.45726935525036
20
-130.3163371729791
10
121.45726935525039
20
-143.7668541905644
42
0.41421356237306034
10
122.20726935525038
20
-144.51685419056443
10
127.70726935525036
20
-144.5168541905644
42
0.41421356237307422
10
128.45726935525039
20
-143.7668541905644
10
128.45726935525033
20
-130.26685419056446
42
0.31084710447222291
0
LWPOLYLINE
5
107
100
AcDbEntity
8
0
100
AcDbPolyline
90
14
70
1
43
0.0
10
147.03142961648217
20
-129.56633717297908
10
141.26351935525034
20
-129.56633717297908
42
0.41421356237309503
10
140.51351935525037
20
-130.31633717297908
10
140.51351935525031
20
-131.5168541905644
10
140.1447693552503
20
-131.5168541905644
42
0.41421356237308815
10
139.39476935525033
20
-132.26685419056443
10
139.3947693552503
20
-144.7668541905644
42
0.41421356237308116
10
140.1447693552503
20
-145.51685419056437
10
152.64476935525028
20
-145.51685419056437
42
0.41421356237308815
10
153.3947693552503
20
-144.76685419056437
10
153.3947693552503
20
-132.2668541905644
42
0.41421356237308116
10
152.64476935525028
20
-131.51685419056443
10
147.51351935525034
20
-131.51685419056443
10
147.51351935525034
20
-130.2668541905644
42
0.31084710447229008
0
LWPOLYLINE
5
108
100
AcDbEntity
8
0
100
AcDbPolyline
90
20
70
1
43
0.0
10
-43.018230644749202
20
-126.46685419056445
10
-26.142230644749255
20
-126.46685419056445
10
-26.142230644749247
20
-127.71685419056445
42
0.41421356237311935
10
-25.392230644749255
20
-128.46685419056445
10
-19.892230644749272
20
-128.46685419056442
42
0.41421356237308554
10
-19.142230644749272
20
-127.71685419056445
10
-19.142230644749265
20
-126.46685419056442
10
-16.423980644749271
20
-126.46685419056442
42
0.41421356237309159
10
-15.673980644749291
20
-125.71685419056443
10
-15.673980644749275
20
-113.21685419056448
42
0.41421356237309159
10
-16.423980644749271
20
-112.46685419056446
10
-50.35523064474917
20
-112.46685419056448
42
0.41421356237307422
10
-51.105230644749177
20
-113.21685419056445
10
-51.105230644749192
20
-125.71685419056442
42
0.41421356237311585
10
-50.355230644749184
20
-126.4668541905644
10
-50.018230644749188
20
-126.4668541905644
10
-50.018230644749188
20
-127.7168541905644
42
0.41421356237311241
10
-49.268230644749181
20
-128.46685419056442
10
-43.768230644749188
20
-128.46685419056445
42
0.41421356237308116
10
-43.018230644749202
20
-127.71685419056445
0
LWPOLYLINE
5
109
100
AcDbEntity
8
0
100
AcDbPolyline
90
8
70
1
43
0.0
10
-51.192730644749176
20
-107.41685419056449
10
-33.092730644749238
20
-107.41685419056451
42
0.41421356237311241
10
-32.342730644749246
20
-106.66685419056448
10
-32.342730644749238
20
-94.166854190564507
42
0.41421356237308116
10
-33.092730644749238
20
-93.41685419056455
10
-51.192730644749183
20
-93.416854190564493
42
0.41421356237311241
10
-51.94273064474919
20
-94.166854190564521
10
-51.942730644749176
20
-106.66685419056452
42
0.41421356237309503
0
LWPOLYLINE
5
110
100
AcDbEntity
8
0
100
AcDbPolyline
90
8
70
1
43
0.0
10
-3.4802306447493159
20
-132.2668541905644
10
-3.4802306447493114
20
-144.76685419056437
42
0.41421356237310458
10
-2.7302306447493119
20
-145.51685419056437
10
12.151019355250646
20
-145.51685419056437
42
0.41421356237310025
10
12.901019355250634
20
-144.76685419056437
10
12.901019355250636
20
-132.2668541905644
42
0.4142135623730942
10
12.151019355250639
20
-131.5168541905644
10
-2.7302306447493256
20
-131.5168541905644
42
0.41421356237309853
0
LWPOLYLINE
5
111
100
AcDbEntity
8
0
100
AcDbPolyline
90
8
70
1
43
0.0
10
-51.105230644749156
20
-132.2668541905644
10
-51.105230644749192
20
-144.76685419056435
42
0.41421356237310197
10
-50.35523064474917
20
-145.51685419056435
10
-35.473980644749219
20
-145.5168541905644
42
0.41421356237310375
10
-34.723980644749226
20
-144.76685419056437
10
-34.723980644749226
20
-132.26685419056443
42
0.41421356237311063
10
-35.473980644749219
20
-131.5168541905644
10
-50.355230644749192
20
-131.5168541905644
42
0.41421356237309159
0
LWPOLYLINE
5
112
100
AcDbEntity
8
0
100
AcDbPolyline
90
8
70
1
43
0.0
10
67.957269355250531
20
-132.26685419056443
10
67.957269355250517
20
-144.7668541905644
42
0.41421356237310197
10
68.707269355250517
20
-145.51685419056437
10
93.11351935525046
20
-145.51685419056437
42
0.41421356237308116
10
93.863519355250446
20
-144.7668541905644
10
93.863519355250446
20
-132.26685419056443
42
0.41421356237312279
10
93.11351935525046
20
-131.5168541905644
10
68.707269355250531
20
-131.5168541905644
42
0.41421356237309853
0
LWPOLYLINE
5
113
100
AcDbEntity
8
0
100
AcDbPolyline
90
8
70
1
43
0.0
10
160.82601935525042
20
-132.2668541905644
42
-0.41421356237310897
10
161.57601935525037
20
-131.5168541905644
10
176.4572693552503
20
-131.5168541905644
42
-0.41421356237308116
10
177.20726935525025
20
-132.2668541905644
10
177.20726935525028
20
-144.76685419056437
42
-0.41421356237308116
10
176.4572693552503
20
-145.51685419056437
10
161.57601935525037
20
-145.51685419056437
42
-0.41421356237308815
10
160.82601935525034
20
-144.7668541905644
0
LWPOLYLINE
5
114
100
AcDbEntity
8
0
100
AcDbPolyline
90
8
70
1
43
0.0
10
194.16351935525023
20
-132.26685419056443
10
194.16351935525026
20
-144.7668541905644
42
0.41421356237304652
10
194.91351935525014
20
-145.51685419056437
10
207.41351935525014
20
-145.5168541905644
42
0.41421356237308815
10
208.16351935525023
20
-144.76685419056437
10
208.1635193552502
20
-132.2668541905644
42
0.41421356237312978
10
207.41351935525014
20
-131.5168541905644
10
194.91351935525017
20
-131.51685419056443
42
0.41421356237309503
0
LWPOLYLINE
5
115
100
AcDbEntity
8
0
100
AcDbPolyline
90
8
70
1
43
0.0
10
213.96351935525018
20
-126.46685419056442
42
-0.41421356237309503
10
213.21351935525018
20
-125.71685419056443
10
213.21351935525016
20
-113.21685419056445
42
-0.41421356237306034
10
213.96351935525016
20
-112.46685419056449
10
226.46351935525013
20
-112.46685419056445
42
-0.41421356237308815
10
227.2135193552501
20
-113.21685419056449
10
227.2135193552501
20
-125.71685419056443
42
-0.41421356237310197
10
226.46351935525013
20
-126.46685419056445
0
LWPOLYLINE
5
116
100
AcDbEntity
8
0
100
AcDbPolyline
90
8
70
1
43
0.0
10
202.05726935525021
20
-107.41685419056451
42
-0.41421356237311585
10
201.30726935525018
20
-106.66685419056449
10
201.30726935525024
20
-94.166854190564507
42
-0.41421356237307422
10
202.05726935525024
20
-93.416854190564521
10
214.55726935525021
20
-93.416854190564493
42
-0.41421356237306034
10
215.30726935525018
20
-94.166854190564507
10
215.30726935525021
20
-106.66685419056449
42
-0.41421356237309503
10
214.55726935525021
20
-107.41685419056449
0
LWPOLYLINE
5
117
100
AcDbEntity
8
0
100
AcDbPolyline
90
8
70
1
43
0.0
10
117.96351935525036
20
-56.066854190564605
10
117.96351935525033
20
-68.566854190564584
42
0.41421356237308815
10
118.71351935525034
20
-69.316854190564555
10
131.2135193552503
20
-69.31685419056457
42
0.41421356237311585
10
131.96351935525027
20
-68.566854190564555
10
131.9635193552503
20
-56.066854190564598
42
0.41421356237308815
10
131.2135193552503
20
-55.316854190564598
10
118.71351935525033
20
-55.316854190564598
42
0.41421356237312279
0
LWPOLYLINE
5
118
100
AcDbEntity
8
0
100
AcDbPolyline
90
8
70
1
43
0.0
10
41.76351935525058
20
-56.066854190564612
10
41.763519355250565
20
-68.566854190564584
42
0.4142135623730846
10
42.513519355250573
20
-69.316854190564555
10
55.013519355250537
20
-69.316854190564584
42
0.41421356237310197
10
55.763519355250544
20
-68.566854190564555
10
55.763519355250551
20
-56.066854190564584
42
0.41421356237309503
10
55.013519355250544
20
-55.316854190564577
10
42.51351935525058
20
-55.316854190564612
42
0.4142135623730846
0
LWPOLYLINE
5
119
100
AcDbEntity
8
0
100
AcDbPolyline
90
8
70
1
43
0.0
10
-34.436480644749246
20
-56.066854190564598
10
-34.436480644749238
20
-68.566854190564555
42
0.41421356237310375
10
-33.686480644749246
20
-69.316854190564555
10
-21.18648064474927
20
-69.316854190564584
42
0.41421356237308982
10
-20.436480644749263
20
-68.566854190564584
10
-20.436480644749267
20
-56.066854190564598
42
0.41421356237308637
10
-21.18648064474927
20
-55.316854190564612
10
-33.686480644749246
20
-55.316854190564598
42
0.41421356237308982
0
LWPOLYLINE
5
120
100
AcDbEntity
8
0
100
AcDbPolyline
90
8
70
1
43
0.0
10
-15.386480644749287
20
-56.066854190564605
10
-15.386480644749284
20
-68.566854190564584
42
0.41421356237308116
10
-14.636480644749287
20
-69.31685419056457
10
-2.1364806447493261
20
-69.316854190564555
42
0.41421356237309015
10
-1.3864806447493196
20
-68.566854190564555
10
-1.3864806447493176
20
-56.066854190564598
42
0.41421356237309076
10
-2.1364806447493256
20
-55.316854190564584
10
-14.636480644749293
20
-55.316854190564591
42
0.4142135623730942
0
LWPOLYLINE
5
121
100
AcDbEntity
8
0
100
AcDbPolyline
90
8
70
1
43
0.0
10
61.563519355250527
20
-69.31685419056457
42
-0.41421356237309503
10
60.813519355250534
20
-68.566854190564584
10
60.813519355250548
20
-56.066854190564598
42
-0.41421356237308116
10
61.563519355250527
20
-55.316854190564591
10
74.063519355250492
20
-55.316854190564591
42
-0.41421356237310197
10
74.813519355250506
20
-56.066854190564584
10
74.813519355250492
20
-68.56685419056457
42
-0.41421356237309503
10
74.063519355250492
20
-69.316854190564584
0
LWPOLYLINE
5
122
100
AcDbEntity
8
0
100
AcDbPolyline
90
8
70
1
43
0.0
10
137.01351935525031
20
-56.066854190564598
10
137.01351935525031
20
-68.566854190564584
42
0.41421356237309159
10
137.76351935525031
20
-69.316854190564584
10
150.26351935525028
20
-69.316854190564584
42
0.41421356237310897
10
151.01351935525025
20
-68.566854190564584
10
151.01351935525028
20
-56.066854190564584
42
0.41421356237308116
10
150.26351935525028
20
-55.316854190564598
10
137.76351935525031
20
-55.316854190564598
42
0.41421356237309853
0
LWPOLYLINE
5
123
100
AcDbEntity
8
0
100
AcDbPolyline
90
8
70
1
43
0.0
10
232.26351935525005
20
-56.066854190564598
10
232.26351935525003
20
-68.566854190564555
42
0.41421356237312279
10
233.01351935525014
20
-69.31685419056457
10
245.51351935525008
20
-69.316854190564598
42
0.41421356237311241
10
246.26351935525005
20
-68.566854190564584
10
246.26351935525005
20
-56.066854190564584
42
0.41421356237311935
10
245.51351935524997
20
-55.316854190564598
10
233.01351935525003
20
-55.316854190564598
42
0.41421356237307078
0
LWPOLYLINE
5
124
100
AcDbEntity
8
0
100
AcDbPolyline
90
8
70
1
43
0.0
10
192.86926935525017
20
-95.166854190564464
10
192.8692693552502
20
-108.66685419056446
42
0.41421356237307422
10
193.61926935525017
20
-109.41685419056448
10
199.11926935525014
20
-109.41685419056449
42
0.41421356237312279
10
199.86926935525022
20
-108.66685419056449
10
199.86926935525017
20
-95.166854190564507
42
0.41421356237307422
10
199.11926935525025
20
-94.416854190564521
10
193.61926935525025
20
-94.416854190564493
42
0.41421356237311585
0
LWPOLYLINE
5
125
100
AcDbEntity
8
0
100
AcDbPolyline
90
8
70
1
43
0.0
10
226.05101935525011
20
-75.116854190564553
10
226.05101935525013
20
-87.61685419056451
42
0.41421356237309503
10
226.80101935525016
20
-88.366854190564524
10
227.30101935525013
20
-88.36685419056451
42
0.41421356237315055
10
228.05101935525016
20
-87.61685419056451
10
228.05101935525011
20
-75.116854190564538
42
0.41421356237307078
10
227.30101935525011
20
-74.366854190564538
10
226.80101935525013
20
-74.366854190564553
42
0.41421356237307422
0
LWPOLYLINE
5
126
100
AcDbEntity
8
0
100
AcDbPolyline
90
8
70
1
43
0.0
10
232.26351935525005
20
-113.21685419056448
10
232.26351935525008
20
-125.71685419056443
42
0.41421356237308815
10
233.01351935525014
20
-126.46685419056445
10
245.51351935525008
20
-126.46685419056442
42
0.41421356237306733
10
246.26351935525005
20
-125.71685419056445
10
246.26351935525005
20
-113.21685419056449
42
0.41421356237309503
10
245.51351935525005
20
-112.46685419056446
10
233.01351935525008
20
-112.46685419056449
42
0.41421356237306733
0
LWPOLYLINE
5
127
100
AcDbEntity
8
0
100
AcDbPolyline
90
8
70
1
43
0.0
10
205.86976935525018
20
-112.46685419056448
10
205.36976935525016
20
-112.46685419056448
42
0.41421356237306034
10
204.61976935525018
20
-113.21685419056445
10
204.61976935525018
20
-125.71685419056443
42
0.41421356237309503
10
205.36976935525018
20
-126.46685419056445
10
205.86976935525024
20
-126.46685419056442
42
0.41421356237308815
10
206.61976935525018
20
-125.71685419056445
10
206.61976935525018
20
-113.21685419056449
42
0.41421356237307422
0
LWPOLYLINE
5
128
100
AcDbEntity
8
0
100
AcDbPolyline
90
8
70
1
43
0.0
10
155.22601935525032
20
-132.2668541905644
10
155.22601935525026
20
-144.76685419056437
42
0.41421356237309503
10
155.97601935525029
20
-145.5168541905644
10
156.47601935525026
20
-145.51685419056437
42
0.41421356237308116
10
157.22601935525032
20
-144.76685419056437
10
157.22601935525029
20
-132.2668541905644
42
0.41421356237308815
10
156.47601935525026
20
-131.5168541905644
10
155.97601935525029
20
-131.5168541905644
42
0.41421356237307422
0
LWPOLYLINE
5
129
100
AcDbEntity
8
0
100
AcDbPolyline
90
8
70
1
43
0.0
10
-48.72398064474919
20
-75.116854190564538
10
-48.723980644749204
20
-87.616854190564496
42
0.41421356237311241
10
-47.973980644749204
20
-88.366854190564524
10
-35.473980644749226
20
-88.366854190564524
42
0.41421356237308637
10
-34.723980644749219
20
-87.616854190564538
10
-34.72398064474924
20
-75.116854190564538
42
0.4142135623730846
10
-35.473980644749204
20
-74.366854190564538
10
-47.973980644749183
20
-74.366854190564553
42
0.41421356237307771
0
LWPOLYLINE
5
130
100
AcDbEntity
8
0
100
AcDbPolyline
90
8
70
1
43
0.0
10
-28.742730644749251
20
-94.166854190564507
10
-28.742730644749241
20
-106.66685419056449
42
0.41421356237309853
10
-27.992730644749248
20
-107.41685419056451
10
-27.492730644749244
20
-107.41685419056449
42
0.41421356237308293
10
-26.742730644749251
20
-106.66685419056449
10
-26.742730644749248
20
-94.166854190564507
42
0.41421356237311063
10
-27.492730644749251
20
-93.416854190564479
10
-27.992730644749258
20
-93.416854190564493
42
0.41421356237310025
0
LWPOLYLINE
5
131
100
AcDbEntity
8
0
100
AcDbPolyline
90
8
70
1
43
0.0
10
-31.123980644749246
20
-132.26685419056443
10
-31.123980644749242
20
-144.7668541905644
42
0.41421356237311063
10
-30.373980644749246
20
-145.51685419056437
10
-29.873980644749246
20
-145.51685419056437
42
0.41421356237308982
10
-29.123980644749249
20
-144.76685419056437
10
-29.123980644749246
20
-132.2668541905644
42
0.41421356237310025
10
-29.873980644749246
20
-131.51685419056443
10
-30.373980644749246
20
-131.51685419056437
42
0.41421356237311757
0
LWPOLYLINE
5
132
100
AcDbEntity
8
0
100
AcDbPolyline
90
8
70
1
43
0.0
10
16.501019355250634
20
-132.2668541905644
10
16.501019355250641
20
-144.76685419056437
42
0.41421356237310114
10
17.251019355250644
20
-145.51685419056437
10
17.751019355250637
20
-145.51685419056437
42
0.41421356237309243
10
18.501019355250634
20
-144.7668541905644
10
18.501019355250634
20
-132.26685419056443
42
0.41421356237312196
10
17.751019355250634
20
-131.5168541905644
10
17.251019355250644
20
-131.5168541905644
42
0.41421356237308637
0
LWPOLYLINE
5
133
100
AcDbEntity
8
0
100
AcDbPolyline
90
8
70
1
43
0.0
10
-6.6989806447493025
20
-132.26685419056443
10
-6.6989806447492981
20
-144.7668541905644
42
0.41421356237309204
10
-5.9489806447493043
20
-145.5168541905644
10
-5.448980644749307
20
-145.5168541905644
42
0.41421356237309892
10
-4.6989806447493061
20
-144.7668541905644
10
-4.6989806447493052
20
-132.26685419056443
42
0.41421356237311546
10
-5.4489806447493123
20
-131.5168541905644
10
-5.9489806447493043
20
-131.5168541905644
42
0.41421356237310375
0
LWPOLYLINE
5
134
100
AcDbEntity
8
0
100
AcDbPolyline
90
8
70
1
43
0.0
10
-53.073980644749163
20
-131.5168541905644
10
-53.573980644749156
20
-131.5168541905644
42
0.41421356237308815
10
-54.323980644749177
20
-132.2668541905644
10
-54.323980644749184
20
-144.7668541905644
42
0.41421356237311585
10
-53.57398064474917
20
-145.51685419056437
10
-53.07398064474917
20
-145.51685419056437
42
0.41421356237309159
10
-52.323980644749199
20
-144.7668541905644
10
-52.32398064474917
20
-132.2668541905644
42
0.41421356237309503
0
LWPOLYLINE
5
135
100
AcDbEntity
8
0
100
AcDbPolyline
90
8
70
1
43
0.0
10
-54.323980644749163
20
-75.116854190564538
10
-54.32398064474917
20
-87.616854190564496
42
0.41421356237308116
10
-53.573980644749184
20
-88.36685419056451
10
-53.073980644749177
20
-88.36685419056451
42
0.41421356237308815
10
-52.32398064474917
20
-87.616854190564538
10
-52.32398064474917
20
-75.116854190564538
42
0.41421356237309503
10
-53.073980644749177
20
-74.366854190564538
10
-53.573980644749177
20
-74.366854190564553
42
0.41421356237308116
0
LWPOLYLINE
5
136
100
AcDbEntity
8
0
100
AcDbPolyline
90
8
70
1
43
0.0
10
178.42601935525016
20
-132.26685419056443
10
178.42601935525022
20
-144.76685419056437
42
0.41421356237307422
10
179.17601935525022
20
-145.51685419056437
10
179.67601935525022
20
-145.5168541905644
42
0.41421356237308815
10
180.4260193552503
20
-144.76685419056437
10
180.42601935525025
20
-132.2668541905644
42
0.41421356237309503
10
179.67601935525025
20
-131.51685419056443
10
179.17601935525028
20
-131.5168541905644
42
0.41421356237315748
0
LWPOLYLINE
5
137
100
AcDbEntity
8
0
100
AcDbPolyline
90
8
70
1
43
0.0
10
213.21351935525016
20
-132.26685419056443
10
213.21351935525018
20
-144.76685419056437
42
0.41421356237307422
10
213.96351935525016
20
-145.51685419056437
10
226.46351935525016
20
-145.5168541905644
42
0.41421356237308116
10
227.21351935525018
20
-144.7668541905644
10
227.21351935525013
20
-132.26685419056443
42
0.41421356237310197
10
226.46351935525016
20
-131.5168541905644
10
213.96351935525018
20
-131.5168541905644
42
0.41421356237310197
0
LWPOLYLINE
5
138
100
AcDbEntity
8
0
100
AcDbPolyline
90
8
70
1
43
0.0
10
187.01976935525022
20
-113.21685419056448
10
187.01976935525025
20
-125.71685419056443
42
0.41421356237308116
10
187.76976935525025
20
-126.46685419056442
10
200.26976935525022
20
-126.4668541905644
42
0.41421356237308116
10
201.01976935525016
20
-125.71685419056443
10
201.01976935525016
20
-113.21685419056448
42
0.41421356237307422
10
200.26976935525022
20
-112.46685419056448
10
187.76976935525025
20
-112.46685419056446
42
0.41421356237312279
0
LWPOLYLINE
5
139
100
AcDbEntity
8
0
100
AcDbPolyline
90
8
70
1
43
0.0
10
202.85101935525023
20
-75.116854190564538
10
202.85101935525029
20
-87.616854190564496
42
0.41421356237309503
10
203.60101935525017
20
-88.366854190564524
10
204.1010193552502
20
-88.366854190564524
42
0.41421356237313667
10
204.85101935525023
20
-87.616854190564538
10
204.85101935525017
20
-75.116854190564538
42
0.41421356237307078
10
204.10101935525017
20
-74.366854190564538
10
203.60101935525012
20
-74.366854190564553
42
0.41421356237306733
0
LWPOLYLINE
5
140
100
AcDbEntity
8
0
100
AcDbPolyline
90
8
70
1
43
0.0
10
232.26351935525005
20
-94.166854190564507
10
232.26351935525008
20
-106.66685419056449
42
0.41421356237310197
10
233.01351935525005
20
-107.41685419056449
10
245.51351935525003
20
-107.41685419056449
42
0.41421356237307422
10
246.26351935525011
20
-106.66685419056449
10
246.26351935525011
20
-94.166854190564507
42
0.41421356237312279
10
245.51351935525005
20
-93.416854190564536
10
233.01351935525008
20
-93.416854190564493
42
0.41421356237313667
0
LWPOLYLINE
5
141
100
AcDbEntity
8
0
100
AcDbPolyline
90
8
70
1
43
0.0
10
175.11351935525025
20
-56.066854190564612
10
175.11351935525028
20
-68.566854190564584
42
0.41421356237309853
10
175.86351935525028
20
-69.31685419056457
10
188.36351935525022
20
-69.316854190564584
42
0.41421356237307078
10
189.11351935525019
20
-68.566854190564584
10
189.11351935525022
20
-56.066854190564605
42
0.41421356237308116
10
188.36351935525022
20
-55.316854190564577
10
175.8635193552503
20
-55.316854190564591
42
0.41421356237311585
0
LWPOLYLINE
5
142
100
AcDbEntity
8
0
100
AcDbPolyline
90
8
70
1
43
0.0
10
98.913519355250429
20
-56.066854190564598
10
98.913519355250443
20
-68.566854190564555
42
0.41421356237309503
10
99.663519355250415
20
-69.316854190564527
10
112.16351935525039
20
-69.31685419056457
42
0.41421356237308116
10
112.9135193552504
20
-68.566854190564584
10
112.91351935525037
20
-56.066854190564598
42
0.41421356237308116
10
112.16351935525039
20
-55.316854190564598
10
99.663519355250415
20
-55.316854190564598
42
0.41421356237308116
0
LWPOLYLINE
5
143
100
AcDbEntity
8
0
100
AcDbPolyline
90
8
70
1
43
0.0
10
22.713519355250611
20
-56.066854190564612
10
22.713519355250597
20
-68.566854190564598
42
0.41421356237308293
10
23.463519355250611
20
-69.316854190564555
10
35.963519355250575
20
-69.31685419056457
42
0.41421356237309681
10
36.713519355250583
20
-68.566854190564555
10
36.713519355250583
20
-56.066854190564605
42
0.41421356237309503
10
35.963519355250575
20
-55.316854190564591
10
23.463519355250611
20
-55.316854190564591
42
0.41421356237310542
0
LWPOLYLINE
5
144
100
AcDbEntity
8
0
100
AcDbPolyline
90
8
70
1
43
0.0
10
-53.486480644749179
20
-56.066854190564612
10
-53.486480644749179
20
-68.566854190564584
42
0.4142135623730846
10
-52.736480644749186
20
-69.31685419056457
10
-40.236480644749221
20
-69.316854190564584
42
0.41421356237308116
10
-39.486480644749228
20
-68.566854190564598
10
-39.486480644749207
20
-56.066854190564598
42
0.41421356237309159
10
-40.236480644749221
20
-55.316854190564612
10
-52.736480644749186
20
-55.316854190564612
42
0.4142135623730846
0
LWPOLYLINE
5
145
100
AcDbEntity
8
0
100
AcDbPolyline
90
8
70
1
43
0.0
10
3.6635193552506671
20
-56.066854190564598
10
3.6635193552506715
20
-68.566854190564555
42
0.41421356237311158
10
4.4135193552506653
20
-69.31685419056457
10
16.913519355250624
20
-69.316854190564584
42
0.41421356237310025
10
17.663519355250624
20
-68.566854190564584
10
17.663519355250628
20
-56.066854190564584
42
0.41421356237308293
10
16.913519355250628
20
-55.316854190564619
10
4.4135193552506609
20
-55.316854190564598
42
0.41421356237309309
0
LWPOLYLINE
5
146
100
AcDbEntity
8
0
100
AcDbPolyline
90
8
70
1
43
0.0
10
79.863519355250503
20
-56.066854190564626
10
79.863519355250475
20
-68.566854190564584
42
0.41421356237307771
10
80.613519355250475
20
-69.316854190564584
10
93.113519355250446
20
-69.316854190564555
42
0.41421356237310542
10
93.863519355250418
20
-68.566854190564541
10
93.863519355250418
20
-56.066854190564584
42
0.41421356237308116
10
93.113519355250418
20
-55.316854190564591
10
80.613519355250475
20
-55.316854190564619
42
0.41421356237308815
0
LWPOLYLINE
5
147
100
AcDbEntity
8
0
100
AcDbPolyline
90
8
70
1
43
0.0
10
156.06351935525024
20
-56.066854190564598
10
156.06351935525026
20
-68.566854190564584
42
0.41421356237310542
10
156.81351935525026
20
-69.316854190564555
10
169.31351935525021
20
-69.31685419056457
42
0.41421356237309503
10
170.06351935525026
20
-68.566854190564584
10
170.06351935525026
20
-56.066854190564605
42
0.4142135623730846
10
169.31351935525021
20
-55.316854190564591
10
156.81351935525021
20
-55.316854190564591
42
0.41421356237308815
0
LWPOLYLINE
5
148
100
AcDbEntity
8
0
100
AcDbPolyline
90
8
70
1
43
0.0
10
232.26351935525005
20
-75.116854190564538
10
232.26351935525008
20
-87.616854190564496
42
0.41421356237312978
10
233.01351935525014
20
-88.36685419056451
10
245.51351935525008
20
-88.366854190564524
42
0.41421356237311585
10
246.26351935525011
20
-87.616854190564538
10
246.26351935525005
20
-75.116854190564538
42
0.41421356237311935
10
245.51351935524997
20
-74.366854190564538
10
233.01351935525003
20
-74.366854190564553
42
0.41421356237306733
0
LWPOLYLINE
5
149
100
AcDbEntity
8
0
100
AcDbPolyline
90
8
70
1
43
0.0
10
217.49526935525006
20
-109.41685419056449
42
-0.41421356237306034
10
216.74526935525009
20
-108.66685419056449
10
216.74526935525017
20
-95.166854190564493
42
-0.41421356237312279
10
217.49526935525017
20
-94.416854190564521
10
222.99526935525017
20
-94.416854190564521
42
-0.41421356237309503
10
223.74526935525014
20
-95.166854190564507
10
223.74526935525012
20
-108.66685419056451
42
-0.41421356237306733
10
222.99526935525012
20
-109.41685419056448
0
LWPOLYLINE
5
150
100
AcDbEntity
8
0
100
AcDbPolyline
90
8
70
1
43
0.0
10
232.26351935525003
20
-132.26685419056443
10
232.26351935525005
20
-144.7668541905644
42
0.41421356237308815
10
233.01351935525014
20
-145.51685419056437
10
245.51351935525014
20
-145.5168541905644
42
0.41421356237317136
10
246.26351935525008
20
-144.76685419056435
10
246.26351935525008
20
-132.2668541905644
42
0.41421356237307422
10
245.51351935525008
20
-131.51685419056443
10
233.01351935525014
20
-131.51685419056443
42
0.41421356237309503
0
LWPOLYLINE
5
151
100
AcDbEntity
8
0
100
AcDbPolyline
90
8
70
1
43
0.0
10
182.66976935525025
20
-112.46685419056446
10
182.16976935525022
20
-112.46685419056449
42
0.41421356237306733
10
181.41976935525025
20
-113.21685419056449
10
181.41976935525025
20
-125.71685419056445
42
0.41421356237309503
10
182.16976935525025
20
-126.46685419056445
10
182.66976935525031
20
-126.4668541905644
42
0.41421356237309503
10
183.41976935525025
20
-125.71685419056442
10
183.41976935525025
20
-113.21685419056449
42
0.41421356237307422
0
LWPOLYLINE
5
152
100
AcDbEntity
8
0
100
AcDbPolyline
90
8
70
1
43
0.0
10
-29.873980644749246
20
-74.366854190564567
10
-30.373980644749242
20
-74.366854190564567
42
0.41421356237310025
10
-31.123980644749242
20
-75.116854190564553
10
-31.123980644749246
20
-87.61685419056451
42
0.41421356237310025
10
-30.373980644749246
20
-88.36685419056451
10
-29.873980644749242
20
-88.366854190564524
42
0.41421356237308293
10
-29.123980644749246
20
-87.616854190564553
10
-29.123980644749249
20
-75.116854190564553
42
0.41421356237308637
0
LWPOLYLINE
5
153
100
AcDbEntity
8
0
100
AcDbPolyline
90
8
70
1
43
0.0
10
-27.292730644749241
20
-132.2668541905644
10
-27.292730644749245
20
-144.76685419056437
42
0.41421356237311063
10
-26.542730644749248
20
-145.51685419056437
10
-11.66148064474929
20
-145.51685419056437
42
0.41421356237309243
10
-10.911480644749297
20
-144.76685419056437
10
-10.911480644749297
20
-132.2668541905644
42
0.41421356237312196
10
-11.661480644749297
20
-131.51685419056443
10
-26.542730644749252
20
-131.5168541905644
42
0.41421356237309159
0
LINE
5
154
100
AcDbEntity
8
0
100
AcDbLine
10
-58.386480644750876
20
-52.416854190572934
30
0
11
-58.38648064474198
21
-148.41885161137742
31
1.1102230246251565e-15
0
ELLIPSE
5
155
100
AcDbEntity
8
0
100
AcDbEllipse
10
-56.386480644741972
20
-148.41885140526804
30
4.4408920985006262e-15
11
-4.2616136247271405e-09
21
-2.0000000814057657
31
0.0
40
0.99999995929711616
41
4.7123890855701678
42
6.2831853114414855
0
LINE
5
156
100
AcDbEntity
8
0
100
AcDbLine
10
-56.386480640479782
20
-150.41885148667382
30
4.4408920985006262e-15
11
-41.490410013461826
21
-150.41885148667313
31
1.4546595092275458e-26
0
LINE
5
157
100
AcDbEntity
8
0
100
AcDbLine
10
-41.490410013461826
20
-150.41885148667313
30
1.4546595092275458e-26
11
-41.020158167001838
21
-150.33109671772112
31
2.1684043449710089e-18
0
ARC
5
158
100
AcDbEntity
8
0
100
AcDbCircle
10
-41.432910426652001
20
-148.11927946212447
30
4.4408920985006246e-15
40
2.2500000000003166
210
3.7191999232985719e-16
220
-1.9374172373731969e-15
230
1
100
AcDbArc
50
280.57051215220224
51
327.86507199583644
0
ARC
5
159
100
AcDbEntity
8
0
100
AcDbCircle
10
-37.452960678231811
20
-150.61927946212342
30
2.8503763176931091e-31
40
2.4500000000000277
210
7.3818020254421548e-18
220
1.1751680445617151e-17
230
1
100
AcDbArc
50
90.000000000005642
51
147.86507199580851
0
LINE
5
160
100
AcDbEntity
8
0
100
AcDbLine
10
-37.452960678232053
20
-148.16927946212337
30
-2.8791617091760254e-17
11
-32.553079542972071
21
-148.16927946212385
31
-4.4408920985006341e-15
0
ARC
5
161
100
AcDbEntity
8
0
100
AcDbCircle
10
-32.553079542971872
20
-150.61927946212302
30
5.3096074624807522e-44
40
2.4500000000000597
210
1.5777218104420275e-30
220
1.4923828645059302e-43
230
1
100
AcDbArc
50
32.134928004204362
51
90.000000000004647
0
ARC
5
162
100
AcDbEntity
8
0
100
AcDbCircle
10
-28.573129794542076
20
-148.11927946212319
30
4.4408920985006262e-15
40
2.2500000000026619
210
-1.6659255891161299e-15
220
-1.0584920128006266e-15
230
1
100
AcDbArc
50
212.13492800403841
51
259.42948784780771
0
LINE
5
163
100
AcDbEntity
8
0
100
AcDbLine
10
-28.985882054191798
20
-150.33109671771962
30
4.4096670759330436e-15
11
-28.515630207741868
21
-150.41885148667194
31
4.4387236941556552e-15
0
LINE
5
164
100
AcDbEntity
8
0
100
AcDbLine
10
-28.515630207741868
20
-150.41885148667194
30
4.4387236941556552e-15
11
80.092668918257857
21
-150.41885148666185
31
-1.2621774483536189e-28
0
LINE
5
165
100
AcDbEntity
8
0
100
AcDbLine
10
80.092668918257857
20
-150.41885148666185
30
-1.2621774483536189e-28
11
80.562920764757848
21
-150.33109671770987
31
-4.4387236941556552e-15
0
ARC
5
166
100
AcDbEntity
8
0
100
AcDbCircle
10
80.150168505057565
20
-148.11927946211298
30
4.4408920985006214e-15
40
2.2500000000097393
210
7.1907248617993743e-16
220
-3.8804367663643312e-15
230
1
100
AcDbArc
50
280.57051215345581
51
326.41967853628694
0
ARC
5
167
100
AcDbEntity
8
0
100
AcDbCircle
10
84.065763093757923
20
-150.71885625503162
30
-4.4408920985006262e-15
40
2.4500000000000459
210
0
220
0
230
1
100
AcDbArc
50
90.000000567022539
51
146.41967853631158
0
LINE
5
168
100
AcDbEntity
8
0
100
AcDbLine
10
84.065763069511718
20
-148.26885625503158
30
-4.4408920985006262e-15
11
89.09435457015762
21
-148.26885625983249
31
4.4408920985006262e-15
0
ARC
5
169
100
AcDbEntity
8
0
100
AcDbCircle
10
89.094354548457829
20
-150.71885625503111
30
0
40
2.4500000000000042
210
0
220
-0
230
1
100
AcDbArc
50
33.580321463664653
51
89.999999492528005
0
ARC
5
170
100
AcDbEntity
8
0
100
AcDbCircle
10
93.009949137157577
20
-148.11927946211199
30
4.4408920985006277e-15
40
2.249999999999948
210
-8.6475304879850635e-19
220
1.4278734494195469e-17
230
1
100
AcDbArc
50
213.5803214637574
51
259.42948784906042
0
LINE
5
171
100
AcDbEntity
8
0
100
AcDbLine
10
92.597196877556229
20
-150.33109671771737
30
4.4721171210682087e-15
11
93.067448723957824
21
-150.41885148666066
31
-2.1684043449710089e-18
0
LINE
5
172
100
AcDbEntity
8
0
100
AcDbLine
10
93.067448723957824
20
-150.41885148666066
30
-2.1684043449710089e-18
11
221.2926689182575
21
-150.41885148664872
31
-2.5243548967072378e-28
0
LINE
5
173
100
AcDbEntity
8
0
100
AcDbLine
10
221.2926689182575
20
-150.41885148664872
30
-2.5243548967072378e-28
11
221.76292076475744
21
-150.33109671769674
31
2.1684043449710089e-18
0
ARC
5
174
100
AcDbEntity
8
0
100
AcDbCircle
10
221.35016850505718
20
-148.11927946209991
30
4.4408920985006293e-15
40
2.2500000000096807
210
3.7191999237046139e-16
220
-1.9374172373570426e-15
230
1
100
AcDbArc
50
280.57051215345541
51
327.86507199544974
0
ARC
5
175
100
AcDbEntity
8
0
100
AcDbCircle
10
225.33011825345756
20
-150.61927946209909
30
4.4408920985006277e-15
40
2.4500000000000632
210
-1.325764224823665e-17
220
-8.0607794329195791e-18
230
1
100
AcDbArc
50
90.000000000005315
51
147.86507199591259
0
LINE
5
176
100
AcDbEntity
8
0
100
AcDbLine
10
225.33011825345733
20
-148.16927946209901
30
4.4606410081112781e-15
11
230.22999938875728
21
-148.16927946209941
31
-7.8886090522101181e-30
0
ARC
5
177
100
AcDbEntity
8
0
100
AcDbCircle
10
230.22999938875751
20
-150.61927946209863
30
1.8315408834495461e-43
40
2.4500000000000459
210
1.5777218104420604e-30
220
2.0467715694544359e-43
230
1
100
AcDbArc
50
32.134928004099592
51
90.000000000005315
0
ARC
5
178
100
AcDbEntity
8
0
100
AcDbCircle
10
234.20994913715714
20
-148.11927946209894
30
4.4408920985006277e-15
40
2.2499999999770663
210
-1.6700984689569793e-15
220
-1.0518488720136506e-15
230
1
100
AcDbArc
50
212.13492800455799
51
259.42948784906156
0
LINE
5
179
100
AcDbEntity
8
0
100
AcDbLine
10
233.79719687755585
20
-150.33109671770424
30
4.4408920985006262e-15
11
234.26744872395741
21
-150.41885148664755
31
-4.4430605028455972e-15
0
LINE
5
180
100
AcDbEntity
8
0
100
AcDbLine
10
234.26744872395741
20
-150.41885148664755
30
-4.4430605028455972e-15
11
249.16351935235369
21
-150.41885148664574
31
5.9637884434708492e-26
0
ELLIPSE
5
181
100
AcDbEntity
8
0
100
AcDbEllipse
10
249.16351935525728
20
-148.41885140523965
30
4.4408920985006262e-15
11
2.0796535200093543e-13
21
-2.0000000814057657
31
0.0
40
0.99999995929711616
41
6.2831853057276916
42
7.8539815301080562
0
LINE
5
182
100
AcDbEntity
8
0
100
AcDbLine
10
251.16351935525728
20
-148.41885161297233
30
4.4408920985006293e-15
11
251.16351935524835
21
-52.416854190544186
31
2.2204460492503131e-15
0
ARC
5
183
100
AcDbEntity
8
0
100
AcDbCircle
10
249.16351935524835
20
-52.416854190544385
30
4.4408920985006262e-15
40
1.9999999999999929
210
1.1102230246251605e-15
220
1.1339875512552125e-28
230
1
100
AcDbArc
50
0
51
90.000000000004889
0
LINE
5
184
100
AcDbEntity
8
0
100
AcDbLine
10
249.16351935524818
20
-50.416854190544392
30
4.4408920985006262e-15
11
218.61865055074821
21
-50.416854190583066
31
4.4408920985007524e-15
0
LINE
5
185
100
AcDbEntity
8
0
100
AcDbLine
10
218.61865055074821
20
-50.416854190583066
30
4.4408920985007524e-15
11
218.14368432954822
21
-50.50285419058136
31
4.4398078963281407e-15
0
ARC
5
186
100
AcDbEntity
8
0
100
AcDbCircle
10
218.54456336364851
20
-52.716854190536949
30
4.4408920985006254e-15
40
2.2499999999521121
210
-4.940736707638716e-18
220
-4.0489412223804807e-19
230
1
100
AcDbArc
50
100.26309589823579
51
145.5826112900624
0
ARC
5
187
100
AcDbEntity
8
0
100
AcDbCircle
10
214.74983017144814
20
-50.116854190494408
30
0
40
2.3500000000000121
210
0
220
0
230
1
100
AcDbArc
50
270.0000000000062
51
325.58261128819703
0
LINE
5
188
100
AcDbEntity
8
0
100
AcDbLine
10
214.74983017144839
20
-52.466854190494416
30
0
11
211.01053187184846
21
-52.466854190578964
31
4.4408920985006341e-15
0
ARC
5
189
100
AcDbEntity
8
0
100
AcDbCircle
10
211.0105318718482
20
-50.116854190494706
30
-4.4567859752080705e-43
40
2.3500000000000565
210
1.5777218104421126e-30
220
3.2361236410501244e-43
230
1
100
AcDbArc
50
214.41738871181505
51
270.0000000000062
0
ARC
5
190
100
AcDbEntity
8
0
100
AcDbCircle
10
207.21579867964846
20
-52.716854190537987
30
4.4408920985006301e-15
40
2.25000000002251
210
1.6337899896813427e-15
220
1.1074461831286044e-15
230
1
100
AcDbArc
50
34.417388709949513
51
79.73690410177592
0
LINE
5
191
100
AcDbEntity
8
0
100
AcDbLine
10
207.61667771375684
20
-50.502854190535082
30
4.4721171210682087e-15
11
207.14171149254824
21
-50.416854190584147
31
4.4419763006731117e-15
0
LINE
5
192
100
AcDbEntity
8
0
100
AcDbLine
10
207.14171149254824
20
-50.416854190584147
30
4.4419763006731117e-15
11
92.43719831064854
21
-50.416854190594819
31
4.4408920985008786e-15
0
LINE
5
193
100
AcDbEntity
8
0
100
AcDbLine
10
92.43719831064854
20
-50.416854190594819
30
4.4408920985008786e-15
11
91.969142214648542
21
-50.511383719244293
31
-2.1684043449710089e-18
0
ARC
5
194
100
AcDbEntity
8
0
100
AcDbCircle
10
92.414563363648767
20
-52.716854190548588
30
-4.440892098500623e-15
40
2.2499999999493085
210
3.7604166216538748e-16
220
-1.9366510866935426e-15
230
1
100
AcDbArc
50
101.41798031453635
51
145.5826112900634
0
ARC
5
195
100
AcDbEntity
8
0
100
AcDbCircle
10
88.619830171448569
20
-50.116854190506224
30
4.4408920985006277e-15
40
2.3499999999999588
210
-1.3568152025100929e-17
220
-7.5263864950026631e-18
230
1
100
AcDbArc
50
270.00000000000421
51
325.58261128819731
0
LINE
5
196
100
AcDbEntity
8
0
100
AcDbLine
10
88.61983017144874
20
-52.466854190506183
30
4.423205090237375e-15
11
84.88053187184876
21
-52.466854190590723
31
-4.4408920985006262e-15
0
ARC
5
197
100
AcDbEntity
8
0
100
AcDbCircle
10
84.880531871848532
20
-50.116854190506501
30
4.4408920985006238e-15
40
2.3500000000000068
210
2.0994934897737609e-30
220
1.0188600149641573e-30
230
1
100
AcDbArc
50
214.41738871181389
51
270.00000000000557
0
ARC
5
198
100
AcDbEntity
8
0
100
AcDbCircle
10
81.085798679648775
20
-52.716854190549554
30
3.8518598887744717e-33
40
2.2500000000224345
210
-1.6226352565214355e-15
220
-1.1237266585798153e-15
230
1
100
AcDbArc
50
34.417388709945726
51
79.736904101775963
0
LINE
5
199
100
AcDbEntity
8
0
100
AcDbLine
10
81.486677713757132
20
-50.502854190546799
30
3.1225022567582478e-17
11
81.011711492548599
21
-50.41685419059587
31
1.0842021724855044e-18
0
LINE
5
200
100
AcDbEntity
8
0
100
AcDbLine
10
81.011711492548599
20
-50.41685419059587
30
1.0842021724855044e-18
11
-14.364672782051198
21
-50.416854190604703
31
2.5243548967072378e-28
0
LINE
5
201
100
AcDbEntity
8
0
100
AcDbLine
10
-14.364672782051198
20
-50.416854190604703
30
2.5243548967072378e-28
11
-14.839639003261171
21
-50.50285419060301
31
-1.0842021724855044e-18
0
ARC
5
202
100
AcDbEntity
8
0
100
AcDbCircle
10
-14.438759969140946
20
-52.716854190558458
30
4.4408920985006246e-15
40
2.249999999955532
210
-3.3728530175827586e-16
220
1.9452419578897766e-15
230
1
100
AcDbArc
50
100.26309589873608
51
145.58261128977622
0
ARC
5
203
100
AcDbEntity
8
0
100
AcDbCircle
10
-18.233493161341194
20
-50.116854190516094
30
0
40
2.3499999999999766
210
0
220
0
230
1
100
AcDbArc
50
270.00000000000512
51
325.58261128847289
0
LINE
5
204
100
AcDbEntity
8
0
100
AcDbLine
10
-18.233493161340984
20
-52.466854190516074
30
0
11
-21.972791460940972
21
-52.466854190600607
31
7.8886090522101181e-30
0
ARC
5
205
100
AcDbEntity
8
0
100
AcDbCircle
10
-21.972791460941185
20
-50.116854190516435
30
2.7040681303767954e-44
40
2.3499999999999837
210
1.5777218104420222e-30
220
1.3583836988548691e-43
230
1
100
AcDbArc
50
214.41738871153746
51
270.00000000000517
0
ARC
5
206
100
AcDbEntity
8
0
100
AcDbCircle
10
-25.767524653140956
20
-52.716854190559495
30
4.4408920985006214e-15
40
2.2500000000224731
210
1.6324111133064372e-15
220
1.1094586708009862e-15
230
1
100
AcDbArc
50
34.417388710234384
51
79.736904101274718
0
LINE
5
207
100
AcDbEntity
8
0
100
AcDbLine
10
-25.366645619013223
20
-50.5028541905602
30
4.4721171210682087e-15
11
-25.841611840231145
21
-50.416854190605783
31
1.0842021724855044e-18
0
LINE
5
208
100
AcDbEntity
8
0
100
AcDbLine
10
-25.841611840231145
20
-50.416854190605783
30
1.0842021724855044e-18
11
-56.386480644748076
21
-50.416854190608611
31
-4.4408920985004999e-15
0
ARC
5
209
100
AcDbEntity
8
0
100
AcDbCircle
10
-56.386480644750883
20
-52.416854190572749
30
-4.4408920985006262e-15
40
1.9999999999641371
210
2.524354896698381e-29
220
-6.3108872418848002e-29
230
1
100
AcDbArc
50
89.999999999919595
51
180
0
CIRCLE
5
210
100
AcDbEntity
8
0
100
AcDbCircle
10
249.57773291765727
20
-148.8334930244705
30
4.4408920985006262e-15
40
0.92999999999999794
210
1.5777218104420233e-30
220
1.4632054618928528e-43
230
1
0
CIRCLE
5
211
100
AcDbEntity
8
0
100
AcDbCircle
10
249.57773291764835
20
-52.002640628209527
30
4.4408920985006262e-15
40
0.92999999999999794
210
1.5777218104420233e-30
220
1.4632054618928528e-43
230
1
0
CIRCLE
5
212
100
AcDbEntity
8
0
100
AcDbCircle
10
-56.800694207123918
20
-52.002640628237955
30
4.4408920985006262e-15
40
0.97999999999999765
210
4.7331654313260694e-30
220
4.3896163856785587e-43
230
1
0
CIRCLE
5
213
100
AcDbEntity
8
0
100
AcDbCircle
10
-56.800694207114937
20
-148.83349302449892
30
-4.4408920985006262e-15
40
0.92999999999999794
210
1.5777218104420233e-30
220
1.4632054618928528e-43
230
1
0
ENDSEC
0
SECTION
2
OBJECTS
0
DICTIONARY
5
C
100
AcDbDictionary
3
ACAD_GROUP
350
D
3
ACAD_MLINESTYLE
350
17
0
DICTIONARY
5
D
100
AcDbDictionary
0
DICTIONARY
5
1A
330
C
100
AcDbDictionary
0
DICTIONARY
5
17
100
AcDbDictionary
0
ENDSEC
0
EOF
