0
SECTION
2
HEADER
9
$INSUNITS
70
4
9
$ACADVER
1
AC1014
9
$HANDSEED
5
FFFF
0
ENDSEC
0
SECTION
2
TABLES
0
TABLE
2
VPORT
5
8
100
AcDbSymbolTable
0
ENDTAB
0
TABLE
2
LTYPE
5
5
100
AcDbSymbolTable
0
LTYPE
5
14
100
AcDbSymbolTableRecord
100
AcDbLinetypeTableRecord
2
BYBLOCK
70
0
0
LTYPE
5
15
100
AcDbSymbolTableRecord
100
AcDbLinetypeTableRecord
2
BYLAYER
70
0
0
ENDTAB
0
TABLE
2
LAYER
5
2
100
AcDbSymbolTable
70
2
0
LAYER
5
50
100
AcDbSymbolTableRecord
100
AcDbLayerTableRecord
2
0
70
0
6
CONTINUOUS
0
ENDTAB
0
TABLE
2
STYLE
5
3
100
AcDbSymbolTable
70
1
0
STYLE
5
11
100
AcDbSymbolTableRecord
100
AcDbTextStyleTableRecord
2
STANDARD
70
0
0
ENDTAB
0
TABLE
2
VIEW
5
6
100
AcDbSymbolTable
70
0
0
ENDTAB
0
TABLE
2
UCS
5
7
100
AcDbSymbolTable
70
0
0
ENDTAB
0
TABLE
2
APPID
5
9
100
AcDbSymbolTable
70
2
0
APPID
5
12
100
AcDbSymbolTableRecord
100
AcDbRegAppTableRecord
2
ACAD
70
0
0
ENDTAB
0
TABLE
2
DIMSTYLE
5
A
100
AcDbSymbolTable
70
1
0
ENDTAB
0
TABLE
2
BLOCK_RECORD
5
1
100
AcDbSymbolTable
70
1
0
BLOCK_RECORD
5
1F
100
AcDbSymbolTableRecord
100
AcDbBlockTableRecord
2
*MODEL_SPACE
0
BLOCK_RECORD
5
1B
100
AcDbSymbolTableRecord
100
AcDbBlockTableRecord
2
*PAPER_SPACE
0
ENDTAB
0
ENDSEC
0
SECTION
2
BLOCKS
0
BLOCK
5
20
100
AcDbEntity
100
AcDbBlockBegin
2
*MODEL_SPACE
0
ENDBLK
5
21
100
AcDbEntity
100
AcDbBlockEnd
0
BLOCK
5
1C
100
AcDbEntity
100
AcDbBlockBegin
2
*PAPER_SPACE
0
ENDBLK
5
1D
100
AcDbEntity
100
AcDbBlockEnd
0
ENDSEC
0
SECTION
2
ENTITIES
0
CIRCLE
5
100
100
AcDbEntity
8
0
100
AcDbCircle
10
-56.800694207123712
20
-52.002640628237813
30
0
40
0.89999999999999636
210
2.0356227671641462e-30
220
1.3877787807814457e-17
230
1
0
CIRCLE
5
101
100
AcDbEntity
8
0
100
AcDbCircle
10
249.57773291764855
20
-52.002640628209477
30
4.4408920985006262e-15
40
0.89999999999999636
210
2.0356227671641462e-30
220
1.3877787807814457e-17
230
1
0
CIRCLE
5
102
100
AcDbEntity
8
0
100
AcDbCircle
10
-56.800694207114731
20
-148.83349302449881
30
-4.4408920985006262e-15
40
0.89999999999999636
210
1.8611104128437489e-30
220
1.3877787807814457e-17
230
1
0
CIRCLE
5
103
100
AcDbEntity
8
0
100
AcDbCircle
10
249.57773291765756
20
-148.83349302447047
30
0
40
0.89999999999999636
210
1.8611104128437489e-30
220
1.3877787807814457e-17
230
1
0
ELLIPSE
5
104
100
AcDbEntity
8
0
100
AcDbEllipse
10
-56.476480644741969
20
-148.50885140893217
30
4.4408920985006262e-15
11
-2.231192535781829e-09
21
-1.9100000777425064
31
0.0
40
0.99999995929711571
41
4.7123889815529498
42
6.2831853083478499
0
LINE
5
105
100
AcDbEntity
8
0
100
AcDbLine
10
-56.476480644741791
20
-150.41885148667467
30
4.4143855227088067e-15
11
-41.601476084840883
21
-150.4188514866733
31
4.4408920985006104e-15
0
SPLINE
5
106
100
AcDbEntity
8
0
100
AcDbSpline
70
0
71
3
72
12
73
8
74
0
42
0.000000001
43
0.0000000001
44
0.0000000001
40
0
40
0
40
0
40
0
40
0.097661131658605183
40
0.097661131658605183
40
0.17334746025951825
40
0.17334746025951825
40
0.24903379000713924
40
0.24903379000713924
40
0.24903379000713924
40
0.24903379000713924
10
-39.506265823753012
20
-149.28270420574972
30
4.4408920985006262e-15
10
-39.683859703617543
20
-149.55553166204888
30
0
10
-39.913044959739416
20
-149.79106270532569
30
0
10
-40.388522837004892
20
-150.11939541094637
30
4.4408920985006262e-15
10
-40.616633386079002
20
-150.2305032741948
30
0
10
-41.098347839942178
20
-150.38066201647072
30
0
10
-41.349188319293987
20
-150.4188514866733
30
4.4408920985006262e-15
10
-41.601476084840876
20
-150.4188514866733
30
4.4408920985006262e-15
0
ARC
5
107
100
AcDbEntity
8
0
100
AcDbCircle
10
-37.452960678231847
20
-150.61927946212339
30
3.2355623065705562e-31
40
2.4499999999999922
210
-1.9201656650624647e-17
220
-4.0598486115828427e-18
230
1
100
AcDbArc
50
90.000000000004817
51
146.93834979205144
0
LINE
5
108
100
AcDbEntity
8
0
100
AcDbLine
10
-37.452960678232053
20
-148.1692794621234
30
9.9466290983742494e-18
11
-32.553079542972071
21
-148.16927946212385
31
-4.4408920985006341e-15
0
ARC
5
109
100
AcDbEntity
8
0
100
AcDbCircle
10
-32.553079542971815
20
-150.6192794621229
30
-4.4009529895201286e-44
40
2.4499999999999429
210
1.577721810442024e-30
220
1.4389583605535459e-43
230
1
100
AcDbArc
50
33.061650207609098
51
90.000000000005969
0
SPLINE
5
110
100
AcDbEntity
8
0
100
AcDbSpline
70
0
71
3
72
12
73
8
74
0
42
0.000000001
43
0.0000000001
44
0.0000000001
40
0
40
0
40
0
40
0
40
0.097661080807787556
40
0.097661080807787556
40
0.17334738993837112
40
0.17334738993837112
40
0.2490336969215968
40
0.2490336969215968
40
0.2490336969215968
40
0.2490336969215968
10
-28.404564136358378
20
-150.41885055535434
30
4.4408920985006262e-15
10
-28.730101072384336
20
-150.41885055535542
30
4.4408920985006262e-15
10
-29.052525697691056
20
-150.35526595330882
30
4.4408920985006262e-15
10
-29.587088629004565
20
-150.13589462507437
30
0
10
-29.804649988736706
20
-150.00533275513402
30
0
10
-30.193290573159732
20
-149.68353341091111
30
4.4408920985006262e-15
10
-30.362140305709051
20
-149.49414198728434
30
4.4408920985006262e-15
10
-30.499773616924944
20
-149.28270369769243
30
4.4408920985006262e-15
0
LINE
5
111
100
AcDbEntity
8
0
100
AcDbLine
10
-28.404564136358378
20
-150.41885055535434
30
4.4408920985006262e-15
11
42.430186021917677
21
-150.41885148666537
31
-1.2621774483536189e-28
0
ELLIPSE
5
112
100
AcDbEntity
8
0
100
AcDbEllipse
10
42.430186021917294
20
-146.418851323854
30
0
11
4.2622992769388876e-09
21
-4.0000001628115296
31
0.0
40
0.99999995929711583
41
6.2831853061141061
42
7.4563342548323241
0
SPLINE
5
113
100
AcDbEntity
8
0
100
AcDbSpline
70
0
71
3
72
12
73
8
74
0
42
0.000000001
43
0.0000000001
44
0.0000000001
40
0
40
0
40
0
40
0
40
0.15625779059501735
40
0.15625779059501735
40
0.31251558085793851
40
0.31251558085793851
40
0.47074962565500694
40
0.47074962565500694
40
0.47074962565500694
40
0.47074962565500694
10
49.805982861524924
20
-145.51685419056298
30
0
10
49.285123559541532
20
-145.51685419056295
30
4.4408920985006262e-15
10
48.769243956123482
20
-145.61858959377534
30
4.4408920985006262e-15
10
47.805518779604583
20
-146.01407844519031
30
0
10
47.366886943990693
20
-146.30405080414744
30
4.4408920985006262e-15
10
46.620774779323462
20
-147.04043545368171
30
4.4408920985006262e-15
10
46.322338376616202
20
-147.48156025110126
30
4.4408920985006262e-15
10
46.118084415239124
20
-147.96785282025729
30
4.4408920985006262e-15
0
LINE
5
114
100
AcDbEntity
8
0
100
AcDbLine
10
49.805982861524924
20
-145.51685419056298
30
0
11
79.113519355250631
21
-145.51685419056369
31
4.4408920985005157e-15
0
ARC
5
115
100
AcDbEntity
8
0
100
AcDbCircle
10
79.113519355250645
20
-144.76685419056363
30
1.6640419263857203e-44
40
0.75000000000004619
210
7.1144023339426988e-29
220
5.9211894646669906e-15
230
1
100
AcDbArc
50
269.99999999999886
51
360
0
LINE
5
116
100
AcDbEntity
8
0
100
AcDbLine
10
79.863519355250659
20
-144.76685419056366
30
-7.6729048984387485e-31
11
79.863519355250645
21
-132.2668541905642
31
0
0
ARC
5
117
100
AcDbEntity
8
0
100
AcDbCircle
10
80.613519355250645
20
-132.26685419056426
30
-4.4408920985006262e-15
40
0.74999999999999289
210
2.3234864569970916e-30
220
-1.3877787807814457e-17
230
1
100
AcDbArc
50
90
51
180
0
LINE
5
118
100
AcDbEntity
8
0
100
AcDbLine
10
80.613519355250645
20
-131.51685419056426
30
-4.4304837576447653e-15
11
93.113519355250446
21
-131.51685419056443
31
-1.5777218104420236e-28
0
ARC
5
119
100
AcDbEntity
8
0
100
AcDbCircle
10
93.113519355250503
20
-132.2668541905644
30
-8.988015931333397e-44
40
0.74999999999995737
210
3.1554436208840689e-30
220
5.4034566960153546e-44
230
1
100
AcDbArc
50
0
51
90.000000000004349
0
LINE
5
120
100
AcDbEntity
8
0
100
AcDbLine
10
93.863519355250446
20
-132.26685419056443
30
-2.3665827156630067e-30
11
93.863519355250432
21
-144.76685419056406
31
-4.4408920985006262e-15
0
ARC
5
121
100
AcDbEntity
8
0
100
AcDbCircle
10
94.613519355250475
20
-144.766854190564
30
8.0889057664263906e-31
40
0.75000000000004619
210
-5.9211894646671389e-15
220
-1.3877787808095522e-17
230
1
100
AcDbArc
50
180
51
269.99999999999676
0
LINE
5
122
100
AcDbEntity
8
0
100
AcDbLine
10
94.613519355250432
20
-145.51685419056406
30
-1.0408340855860866e-17
11
123.29685268858397
21
-145.51685419056474
31
-4.4408920985006893e-15
0
ARC
5
123
100
AcDbEntity
8
0
100
AcDbCircle
10
123.29685268858387
20
-149.51685419056471
30
0
40
3.9999999999999876
210
-1.2794967839817797e-17
220
-5.3741783015408132e-18
230
1
100
AcDbArc
50
22.783516498308995
51
89.999999999998579
0
SPLINE
5
124
100
AcDbEntity
8
0
100
AcDbSpline
70
0
71
3
72
12
73
8
74
0
42
0.000000001
43
0.0000000001
44
0.0000000001
40
0
40
0
40
0
40
0
40
0.15625778489808381
40
0.15625778489808381
40
0.31251557660673512
40
0.31251557660673512
40
0.4707496375196818
40
0.4707496375196818
40
0.4707496375196818
40
0.4707496375196818
10
130.6726496119928
20
-150.4188514866573
30
0
10
130.15179032899917
20
-150.41885148665733
30
0
10
129.63591074537632
20
-150.31711608681468
30
4.4408920985006262e-15
10
128.67218557804418
20
-149.92162724828822
30
4.4408920985006262e-15
10
128.23355373529199
20
-149.63165489023905
30
4.4408920985006262e-15
10
127.48744151259265
20
-148.89527021384825
30
4.4408920985006262e-15
10
127.18900507155308
20
-148.45414537387757
30
4.4408920985006262e-15
10
126.98475108190358
20
-147.96785275720524
30
4.4408920985006262e-15
0
LINE
5
125
100
AcDbEntity
8
0
100
AcDbLine
10
130.6726496119928
20
-150.4188514866573
30
0
11
221.18160284684842
21
-150.41885148664892
31
-1.2621774483536189e-28
0
SPLINE
5
126
100
AcDbEntity
8
0
100
AcDbSpline
70
0
71
3
72
12
73
8
74
0
42
0.000000001
43
0.0000000001
44
0.0000000001
40
0
40
0
40
0
40
0
40
0.097661131658630371
40
0.097661131658630371
40
0.17334746025956349
40
0.17334746025956349
40
0.24903379000719386
40
0.24903379000719386
40
0.24903379000719386
40
0.24903379000719386
10
223.27681310793628
20
-149.28270420572534
30
-4.4408920985006262e-15
10
223.09921922807175
20
-149.55553166202455
30
0
10
222.87003397194985
20
-149.7910627053013
30
4.4408920985006262e-15
10
222.39455609468448
20
-150.11939541092192
30
4.4408920985006262e-15
10
222.16644554561032
20
-150.23050327417039
30
4.4408920985006262e-15
10
221.6847310917471
20
-150.38066201644634
30
4.4408920985006262e-15
10
221.43389061239529
20
-150.41885148664889
30
4.4408920985006262e-15
10
221.18160284684836
20
-150.41885148664892
30
4.4408920985006262e-15
0
ARC
5
127
100
AcDbEntity
8
0
100
AcDbCircle
10
225.33011825345761
20
-150.61927946209914
30
4.4408920985006301e-15
40
2.4500000000001165
210
-1.1630752631104443e-17
220
7.5709040195215078e-18
230
1
100
AcDbArc
50
90.000000000007987
51
146.93834979205087
0
LINE
5
128
100
AcDbEntity
8
0
100
AcDbLine
10
225.33011825345727
20
-148.16927946209901
30
4.4223433836527977e-15
11
230.22999938875728
21
-148.16927946209941
31
-7.8886090522101181e-30
0
ARC
5
129
100
AcDbEntity
8
0
100
AcDbCircle
10
230.22999938875742
20
-150.61927946209875
30
5.0381058850178189e-43
40
2.4500000000001863
210
1.5777218104420881e-30
220
2.9979029021149047e-43
230
1
100
AcDbArc
50
33.061650207612509
51
90.000000000003325
0
SPLINE
5
130
100
AcDbEntity
8
0
100
AcDbSpline
70
0
71
3
72
12
73
8
74
0
42
0.000000001
43
0.0000000001
44
0.0000000001
40
0
40
0
40
0
40
0
40
0.09766111718525064
40
0.09766111718525064
40
0.17334745450304215
40
0.17334745450304215
40
0.24903378967642606
40
0.24903378967642606
40
0.24903378967642606
40
0.24903378967642606
10
234.37851479536644
20
-150.41885148664767
30
4.4408920985006262e-15
10
234.05297773808226
20
-150.41885148664772
30
4.4408920985006262e-15
10
233.73055299267608
20
-150.35526686092868
30
4.4408920985006262e-15
10
233.19598986219918
20
-150.13589545095948
30
4.4408920985006262e-15
10
232.97842842141898
20
-150.00533353237864
30
4.4408920985006262e-15
10
232.58978769221176
20
-149.68353406826782
30
0
10
232.42093789675818
20
-149.49414257407309
30
0
10
232.28330453427839
20
-149.28270420572451
30
-4.4408920985006262e-15
0
LINE
5
131
100
AcDbEntity
8
0
100
AcDbLine
10
234.37851479536644
20
-150.41885148664767
30
4.4408920985006262e-15
11
249.25351935525742
21
-150.41885148664613
31
4.4408920985006577e-15
0
ELLIPSE
5
132
100
AcDbEntity
8
0
100
AcDbEllipse
10
249.25351935525728
20
-148.50885140890381
30
4.4408920985006262e-15
11
-2.2311818498852174e-09
21
-1.9100000777425064
31
0.0
40
0.99999995929711616
41
1.1682459444274591e-09
42
1.5707963279631709
0
LINE
5
133
100
AcDbEntity
8
0
100
AcDbLine
10
251.16351935525728
20
-148.50885140890364
30
4.4408920984822205e-15
11
251.16351935524833
21
-52.326854190582367
31
-1.1102230246251565e-15
0
ARC
5
134
100
AcDbEntity
8
0
100
AcDbCircle
10
249.25351935524839
20
-52.326854190582551
30
-4.4408920985006262e-15
40
1.909999999999954
210
-1.7438057978406023e-15
220
-1.623303406126502e-28
230
1
100
AcDbArc
50
0
51
90.000000000005969
0
LINE
5
135
100
AcDbEntity
8
0
100
AcDbLine
10
249.25351935524819
20
-50.416854190582555
30
-4.4408920985006254e-15
11
218.70994380616594
21
-50.416854190583052
31
6.3108872417680944e-29
0
ARC
5
136
100
AcDbEntity
8
0
100
AcDbCircle
10
218.70994380616622
20
-52.91685419058544
30
0
40
2.5000000000023803
210
2.8698592549317604e-42
220
-2.5243548967048343e-29
230
1
100
AcDbArc
50
90.000000000006523
51
144.73776329666018
0
ARC
5
137
100
AcDbEntity
8
0
100
AcDbCircle
10
214.74983017144822
20
-50.116854190494486
30
2.9755617640782794e-31
40
2.3499999999999321
210
8.0119187347431645e-18
220
1.1331467364229431e-17
230
1
100
AcDbArc
50
270.00000000000421
51
324.73776329528107
0
LINE
5
138
100
AcDbEntity
8
0
100
AcDbLine
10
214.74983017144839
20
-52.466854190494416
30
2.6628948305937266e-17
11
211.01053187184846
21
-52.466854190578964
31
4.4408920985006341e-15
0
ARC
5
139
100
AcDbEntity
8
0
100
AcDbCircle
10
211.0105318718482
20
-50.116854190494884
30
3.5251414493171179e-43
40
2.3499999999999108
210
1.5777218104419676e-30
220
1.4012984643248164e-45
230
1
100
AcDbArc
50
215.26223670472896
51
270.0000000000062
0
ARC
5
140
100
AcDbEntity
8
0
100
AcDbCircle
10
207.05041823713083
20
-52.916854190586406
30
-4.4408920985006262e-15
40
2.5000000000399996
210
-1.4504278226226878e-15
220
-1.0255255979960163e-15
230
1
100
AcDbArc
50
35.262236703349323
51
90.000000000006523
0
LINE
5
141
100
AcDbEntity
8
0
100
AcDbLine
10
207.05041823713054
20
-50.416854190586463
30
-4.4408920985006262e-15
11
92.579943806166241
21
-50.41685419059479
31
2.5243548967072378e-28
0
ARC
5
142
100
AcDbEntity
8
0
100
AcDbCircle
10
92.579943806166483
20
-52.916854190597107
30
4.4408920985006214e-15
40
2.5000000000023181
210
-2.3461850524232937e-18
220
1.7763568393985004e-15
230
1
100
AcDbArc
50
90.000000000005542
51
144.73776329666089
0
ARC
5
143
100
AcDbEntity
8
0
100
AcDbCircle
10
88.619830171448541
20
-50.116854190506217
30
4.4408920985006277e-15
40
2.3499999999999677
210
5.6657336821151841e-18
220
-4.0059593673724874e-18
230
1
100
AcDbArc
50
270.00000000000483
51
324.73776329528073
0
LINE
5
144
100
AcDbEntity
8
0
100
AcDbLine
10
88.61983017144874
20
-52.466854190506183
30
4.4314780939873017e-15
11
84.88053187184876
21
-52.466854190590723
31
-4.4408920985006262e-15
0
ARC
5
145
100
AcDbEntity
8
0
100
AcDbCircle
10
84.880531871848518
20
-50.116854190506565
30
4.4408920985006238e-15
40
2.3499999999999464
210
2.0888819072150675e-30
220
1.0431440671163186e-30
230
1
100
AcDbArc
50
215.26223670473007
51
270.00000000000591
0
ARC
5
146
100
AcDbEntity
8
0
100
AcDbCircle
10
80.920418237131102
20
-52.916854190598201
30
6.9627017446139348e-44
40
2.5000000000400444
210
-1.4504278226226469e-15
220
-1.0255255979960187e-15
230
1
100
AcDbArc
50
35.262236703349821
51
90.000000000004889
0
LINE
5
147
100
AcDbEntity
8
0
100
AcDbLine
10
80.920418237130889
20
-50.416854190598201
30
3.7221990458627953e-45
11
-14.273379526623486
21
-50.416854190604695
31
1.2621774483536189e-28
0
ARC
5
148
100
AcDbEntity
8
0
100
AcDbCircle
10
-14.273379526623241
20
-52.916854190607026
30
4.4408920985006262e-15
40
2.5000000000023359
210
-1.7354939914829339e-28
220
1.7763568393985402e-15
230
1
100
AcDbArc
50
90.000000000005627
51
144.73776329666066
0
ARC
5
149
100
AcDbEntity
8
0
100
AcDbCircle
10
-18.233493161341205
20
-50.116854190516051
30
2.9081542160247261e-31
40
2.350000000000021
210
5.6657336821146764e-18
220
-4.0059593673716824e-18
230
1
100
AcDbArc
50
270.00000000000546
51
324.73776329527965
0
LINE
5
150
100
AcDbEntity
8
0
100
AcDbLine
10
-18.233493161340981
20
-52.466854190516074
30
-9.4140045133245289e-18
11
-21.972791460940972
21
-52.466854190600607
31
7.8886090522101181e-30
0
ARC
5
151
100
AcDbEntity
8
0
100
AcDbCircle
10
-21.972791460941185
20
-50.116854190516413
30
-4.6636964515810318e-44
40
2.3500000000000005
210
1.5777218104420331e-30
220
1.6701726071671409e-43
230
1
100
AcDbArc
50
215.26223670473101
51
270.00000000000517
0
ARC
5
152
100
AcDbEntity
8
0
100
AcDbCircle
10
-25.932905095658615
20
-52.916854190608106
30
0
40
2.5000000000400364
210
-9.8875820825885394e-31
220
-6.991019042675495e-31
230
1
100
AcDbArc
50
35.262236703349828
51
90.000000000005286
0
LINE
5
153
100
AcDbEntity
8
0
100
AcDbLine
10
-25.932905095658846
20
-50.416854190608106
30
0
11
-56.476480644751071
21
-50.416854190608618
31
-4.4408920985006262e-15
0
ARC
5
154
100
AcDbEntity
8
0
100
AcDbCircle
10
-56.476480644750879
20
-52.326854190610945
30
0
40
1.9100000000023254
210
-2.3786272189386263e-28
220
2.3250743971179161e-15
230
1
100
AcDbArc
50
90.000000000005755
51
180
0
LINE
5
155
100
AcDbEntity
8
0
100
AcDbLine
10
-58.386480644750883
20
-52.326854190611101
30
0
11
-58.386480644741965
21
-148.50885140893234
31
4.4408920984696602e-15
0
LWPOLYLINE
5
156
100
AcDbEntity
8
0
100
AcDbPolyline
90
8
70
1
43
0.0
10
-29.873980644749246
20
-74.366854190564567
10
-30.373980644749242
20
-74.366854190564567
42
0.41421356237310025
10
-31.123980644749242
20
-75.116854190564553
10
-31.123980644749246
20
-87.61685419056451
42
0.41421356237310025
10
-30.373980644749246
20
-88.36685419056451
10
-29.873980644749242
20
-88.366854190564524
42
0.41421356237308293
10
-29.123980644749246
20
-87.616854190564553
10
-29.123980644749249
20
-75.116854190564553
42
0.41421356237308637
0
LWPOLYLINE
5
157
100
AcDbEntity
8
0
100
AcDbPolyline
90
8
70
1
43
0.0
10
182.66976935525025
20
-112.46685419056446
10
182.16976935525022
20
-112.46685419056449
42
0.41421356237306733
10
181.41976935525025
20
-113.21685419056449
10
181.41976935525025
20
-125.71685419056445
42
0.41421356237309503
10
182.16976935525025
20
-126.46685419056445
10
182.66976935525031
20
-126.4668541905644
42
0.41421356237309503
10
183.41976935525025
20
-125.71685419056442
10
183.41976935525025
20
-113.21685419056449
42
0.41421356237307422
0
LWPOLYLINE
5
158
100
AcDbEntity
8
0
100
AcDbPolyline
90
8
70
1
43
0.0
10
232.26351935525003
20
-132.26685419056443
10
232.26351935525005
20
-144.7668541905644
42
0.41421356237308815
10
233.01351935525014
20
-145.51685419056437
10
245.51351935525014
20
-145.5168541905644
42
0.41421356237317136
10
246.26351935525008
20
-144.76685419056435
10
246.26351935525008
20
-132.2668541905644
42
0.41421356237307422
10
245.51351935525008
20
-131.51685419056443
10
233.01351935525014
20
-131.51685419056443
42
0.41421356237309503
0
LWPOLYLINE
5
159
100
AcDbEntity
8
0
100
AcDbPolyline
90
8
70
1
43
0.0
10
217.49526935525006
20
-109.41685419056449
42
-0.41421356237306034
10
216.74526935525009
20
-108.66685419056449
10
216.74526935525017
20
-95.166854190564493
42
-0.41421356237312279
10
217.49526935525017
20
-94.416854190564521
10
222.99526935525017
20
-94.416854190564521
42
-0.41421356237309503
10
223.74526935525014
20
-95.166854190564507
10
223.74526935525012
20
-108.66685419056451
42
-0.41421356237306733
10
222.99526935525012
20
-109.41685419056448
0
LWPOLYLINE
5
160
100
AcDbEntity
8
0
100
AcDbPolyline
90
8
70
1
43
0.0
10
232.26351935525005
20
-75.116854190564538
10
232.26351935525008
20
-87.616854190564496
42
0.41421356237312978
10
233.01351935525014
20
-88.36685419056451
10
245.51351935525008
20
-88.366854190564524
42
0.41421356237311585
10
246.26351935525011
20
-87.616854190564538
10
246.26351935525005
20
-75.116854190564538
42
0.41421356237311935
10
245.51351935524997
20
-74.366854190564538
10
233.01351935525003
20
-74.366854190564553
42
0.41421356237306733
0
LWPOLYLINE
5
161
100
AcDbEntity
8
0
100
AcDbPolyline
90
8
70
1
43
0.0
10
156.06351935525024
20
-56.066854190564598
10
156.06351935525026
20
-68.566854190564584
42
0.41421356237310542
10
156.81351935525026
20
-69.316854190564555
10
169.31351935525021
20
-69.31685419056457
42
0.41421356237309503
10
170.06351935525026
20
-68.566854190564584
10
170.06351935525026
20
-56.066854190564605
42
0.4142135623730846
10
169.31351935525021
20
-55.316854190564591
10
156.81351935525021
20
-55.316854190564591
42
0.41421356237308815
0
LWPOLYLINE
5
162
100
AcDbEntity
8
0
100
AcDbPolyline
90
8
70
1
43
0.0
10
79.863519355250503
20
-56.066854190564626
10
79.863519355250475
20
-68.566854190564584
42
0.41421356237307771
10
80.613519355250475
20
-69.316854190564584
10
93.113519355250446
20
-69.316854190564555
42
0.41421356237310542
10
93.863519355250418
20
-68.566854190564541
10
93.863519355250418
20
-56.066854190564584
42
0.41421356237308116
10
93.113519355250418
20
-55.316854190564591
10
80.613519355250475
20
-55.316854190564619
42
0.41421356237308815
0
LWPOLYLINE
5
163
100
AcDbEntity
8
0
100
AcDbPolyline
90
8
70
1
43
0.0
10
3.6635193552506671
20
-56.066854190564598
10
3.6635193552506715
20
-68.566854190564555
42
0.41421356237311158
10
4.4135193552506653
20
-69.31685419056457
10
16.913519355250624
20
-69.316854190564584
42
0.41421356237310025
10
17.663519355250624
20
-68.566854190564584
10
17.663519355250628
20
-56.066854190564584
42
0.41421356237308293
10
16.913519355250628
20
-55.316854190564619
10
4.4135193552506609
20
-55.316854190564598
42
0.41421356237309309
0
LWPOLYLINE
5
164
100
AcDbEntity
8
0
100
AcDbPolyline
90
8
70
1
43
0.0
10
-53.486480644749179
20
-56.066854190564612
10
-53.486480644749179
20
-68.566854190564584
42
0.4142135623730846
10
-52.736480644749186
20
-69.31685419056457
10
-40.236480644749221
20
-69.316854190564584
42
0.41421356237308116
10
-39.486480644749228
20
-68.566854190564598
10
-39.486480644749207
20
-56.066854190564598
42
0.41421356237309159
10
-40.236480644749221
20
-55.316854190564612
10
-52.736480644749186
20
-55.316854190564612
42
0.4142135623730846
0
LWPOLYLINE
5
165
100
AcDbEntity
8
0
100
AcDbPolyline
90
8
70
1
43
0.0
10
22.713519355250611
20
-56.066854190564612
10
22.713519355250597
20
-68.566854190564598
42
0.41421356237308293
10
23.463519355250611
20
-69.316854190564555
10
35.963519355250575
20
-69.31685419056457
42
0.41421356237309681
10
36.713519355250583
20
-68.566854190564555
10
36.713519355250583
20
-56.066854190564605
42
0.41421356237309503
10
35.963519355250575
20
-55.316854190564591
10
23.463519355250611
20
-55.316854190564591
42
0.41421356237310542
0
LWPOLYLINE
5
166
100
AcDbEntity
8
0
100
AcDbPolyline
90
8
70
1
43
0.0
10
98.913519355250429
20
-56.066854190564598
10
98.913519355250443
20
-68.566854190564555
42
0.41421356237309503
10
99.663519355250415
20
-69.316854190564527
10
112.16351935525039
20
-69.31685419056457
42
0.41421356237308116
10
112.9135193552504
20
-68.566854190564584
10
112.91351935525037
20
-56.066854190564598
42
0.41421356237308116
10
112.16351935525039
20
-55.316854190564598
10
99.663519355250415
20
-55.316854190564598
42
0.41421356237308116
0
LWPOLYLINE
5
167
100
AcDbEntity
8
0
100
AcDbPolyline
90
8
70
1
43
0.0
10
175.11351935525025
20
-56.066854190564612
10
175.11351935525028
20
-68.566854190564584
42
0.41421356237309853
10
175.86351935525028
20
-69.31685419056457
10
188.36351935525022
20
-69.316854190564584
42
0.41421356237307078
10
189.11351935525019
20
-68.566854190564584
10
189.11351935525022
20
-56.066854190564605
42
0.41421356237308116
10
188.36351935525022
20
-55.316854190564577
10
175.8635193552503
20
-55.316854190564591
42
0.41421356237311585
0
LWPOLYLINE
5
168
100
AcDbEntity
8
0
100
AcDbPolyline
90
8
70
1
43
0.0
10
232.26351935525005
20
-94.166854190564507
10
232.26351935525008
20
-106.66685419056449
42
0.41421356237310197
10
233.01351935525005
20
-107.41685419056449
10
245.51351935525003
20
-107.41685419056449
42
0.41421356237307422
10
246.26351935525011
20
-106.66685419056449
10
246.26351935525011
20
-94.166854190564507
42
0.41421356237312279
10
245.51351935525005
20
-93.416854190564536
10
233.01351935525008
20
-93.416854190564493
42
0.41421356237313667
0
LWPOLYLINE
5
169
100
AcDbEntity
8
0
100
AcDbPolyline
90
8
70
1
43
0.0
10
202.85101935525023
20
-75.116854190564538
10
202.85101935525029
20
-87.616854190564496
42
0.41421356237309503
10
203.60101935525017
20
-88.366854190564524
10
204.1010193552502
20
-88.366854190564524
42
0.41421356237313667
10
204.85101935525023
20
-87.616854190564538
10
204.85101935525017
20
-75.116854190564538
42
0.41421356237307078
10
204.10101935525017
20
-74.366854190564538
10
203.60101935525012
20
-74.366854190564553
42
0.41421356237306733
0
LWPOLYLINE
5
170
100
AcDbEntity
8
0
100
AcDbPolyline
90
8
70
1
43
0.0
10
187.01976935525022
20
-113.21685419056448
10
187.01976935525025
20
-125.71685419056443
42
0.41421356237308116
10
187.76976935525025
20
-126.46685419056442
10
200.26976935525022
20
-126.4668541905644
42
0.41421356237308116
10
201.01976935525016
20
-125.71685419056443
10
201.01976935525016
20
-113.21685419056448
42
0.41421356237307422
10
200.26976935525022
20
-112.46685419056448
10
187.76976935525025
20
-112.46685419056446
42
0.41421356237312279
0
LWPOLYLINE
5
171
100
AcDbEntity
8
0
100
AcDbPolyline
90
8
70
1
43
0.0
10
213.21351935525016
20
-132.26685419056443
10
213.21351935525018
20
-144.76685419056437
42
0.41421356237307422
10
213.96351935525016
20
-145.51685419056437
10
226.46351935525016
20
-145.5168541905644
42
0.41421356237308116
10
227.21351935525018
20
-144.7668541905644
10
227.21351935525013
20
-132.26685419056443
42
0.41421356237310197
10
226.46351935525016
20
-131.5168541905644
10
213.96351935525018
20
-131.5168541905644
42
0.41421356237310197
0
LWPOLYLINE
5
172
100
AcDbEntity
8
0
100
AcDbPolyline
90
8
70
1
43
0.0
10
178.42601935525016
20
-132.26685419056443
10
178.42601935525022
20
-144.76685419056437
42
0.41421356237307422
10
179.17601935525022
20
-145.51685419056437
10
179.67601935525022
20
-145.5168541905644
42
0.41421356237308815
10
180.4260193552503
20
-144.76685419056437
10
180.42601935525025
20
-132.2668541905644
42
0.41421356237309503
10
179.67601935525025
20
-131.51685419056443
10
179.17601935525028
20
-131.5168541905644
42
0.41421356237315748
0
LWPOLYLINE
5
173
100
AcDbEntity
8
0
100
AcDbPolyline
90
8
70
1
43
0.0
10
-54.323980644749163
20
-75.116854190564538
10
-54.32398064474917
20
-87.616854190564496
42
0.41421356237308116
10
-53.573980644749184
20
-88.36685419056451
10
-53.073980644749177
20
-88.36685419056451
42
0.41421356237308815
10
-52.32398064474917
20
-87.616854190564538
10
-52.32398064474917
20
-75.116854190564538
42
0.41421356237309503
10
-53.073980644749177
20
-74.366854190564538
10
-53.573980644749177
20
-74.366854190564553
42
0.41421356237308116
0
LWPOLYLINE
5
174
100
AcDbEntity
8
0
100
AcDbPolyline
90
8
70
1
43
0.0
10
-53.073980644749163
20
-131.5168541905644
10
-53.573980644749156
20
-131.5168541905644
42
0.41421356237308815
10
-54.323980644749177
20
-132.2668541905644
10
-54.323980644749184
20
-144.7668541905644
42
0.41421356237311585
10
-53.57398064474917
20
-145.51685419056437
10
-53.07398064474917
20
-145.51685419056437
42
0.41421356237309159
10
-52.323980644749199
20
-144.7668541905644
10
-52.32398064474917
20
-132.2668541905644
42
0.41421356237309503
0
LWPOLYLINE
5
175
100
AcDbEntity
8
0
100
AcDbPolyline
90
8
70
1
43
0.0
10
-6.6989806447493025
20
-132.26685419056443
10
-6.6989806447492981
20
-144.7668541905644
42
0.41421356237309204
10
-5.9489806447493043
20
-145.5168541905644
10
-5.448980644749307
20
-145.5168541905644
42
0.41421356237309892
10
-4.6989806447493061
20
-144.7668541905644
10
-4.6989806447493052
20
-132.26685419056443
42
0.41421356237311546
10
-5.4489806447493123
20
-131.5168541905644
10
-5.9489806447493043
20
-131.5168541905644
42
0.41421356237310375
0
LWPOLYLINE
5
176
100
AcDbEntity
8
0
100
AcDbPolyline
90
8
70
1
43
0.0
10
16.501019355250634
20
-132.2668541905644
10
16.501019355250641
20
-144.76685419056437
42
0.41421356237310114
10
17.251019355250644
20
-145.51685419056437
10
17.751019355250637
20
-145.51685419056437
42
0.41421356237309243
10
18.501019355250634
20
-144.7668541905644
10
18.501019355250634
20
-132.26685419056443
42
0.41421356237312196
10
17.751019355250634
20
-131.5168541905644
10
17.251019355250644
20
-131.5168541905644
42
0.41421356237308637
0
LWPOLYLINE
5
177
100
AcDbEntity
8
0
100
AcDbPolyline
90
8
70
1
43
0.0
10
-31.123980644749246
20
-132.26685419056443
10
-31.123980644749242
20
-144.7668541905644
42
0.41421356237311063
10
-30.373980644749246
20
-145.51685419056437
10
-29.873980644749246
20
-145.51685419056437
42
0.41421356237308982
10
-29.123980644749249
20
-144.76685419056437
10
-29.123980644749246
20
-132.2668541905644
42
0.41421356237310025
10
-29.873980644749246
20
-131.51685419056443
10
-30.373980644749246
20
-131.51685419056437
42
0.41421356237311757
0
LWPOLYLINE
5
178
100
AcDbEntity
8
0
100
AcDbPolyline
90
8
70
1
43
0.0
10
-28.742730644749251
20
-94.166854190564507
10
-28.742730644749241
20
-106.66685419056449
42
0.41421356237309853
10
-27.992730644749248
20
-107.41685419056451
10
-27.492730644749244
20
-107.41685419056449
42
0.41421356237308293
10
-26.742730644749251
20
-106.66685419056449
10
-26.742730644749248
20
-94.166854190564507
42
0.41421356237311063
10
-27.492730644749251
20
-93.416854190564479
10
-27.992730644749258
20
-93.416854190564493
42
0.41421356237310025
0
LWPOLYLINE
5
179
100
AcDbEntity
8
0
100
AcDbPolyline
90
8
70
1
43
0.0
10
-48.72398064474919
20
-75.116854190564538
10
-48.723980644749204
20
-87.616854190564496
42
0.41421356237311241
10
-47.973980644749204
20
-88.366854190564524
10
-35.473980644749226
20
-88.366854190564524
42
0.41421356237308637
10
-34.723980644749219
20
-87.616854190564538
10
-34.72398064474924
20
-75.116854190564538
42
0.4142135623730846
10
-35.473980644749204
20
-74.366854190564538
10
-47.973980644749183
20
-74.366854190564553
42
0.41421356237307771
0
LWPOLYLINE
5
180
100
AcDbEntity
8
0
100
AcDbPolyline
90
8
70
1
43
0.0
10
155.22601935525032
20
-132.2668541905644
10
155.22601935525026
20
-144.76685419056437
42
0.41421356237309503
10
155.97601935525029
20
-145.5168541905644
10
156.47601935525026
20
-145.51685419056437
42
0.41421356237308116
10
157.22601935525032
20
-144.76685419056437
10
157.22601935525029
20
-132.2668541905644
42
0.41421356237308815
10
156.47601935525026
20
-131.5168541905644
10
155.97601935525029
20
-131.5168541905644
42
0.41421356237307422
0
LWPOLYLINE
5
181
100
AcDbEntity
8
0
100
AcDbPolyline
90
8
70
1
43
0.0
10
205.86976935525018
20
-112.46685419056448
10
205.36976935525016
20
-112.46685419056448
42
0.41421356237306034
10
204.61976935525018
20
-113.21685419056445
10
204.61976935525018
20
-125.71685419056443
42
0.41421356237309503
10
205.36976935525018
20
-126.46685419056445
10
205.86976935525024
20
-126.46685419056442
42
0.41421356237308815
10
206.61976935525018
20
-125.71685419056445
10
206.61976935525018
20
-113.21685419056449
42
0.41421356237307422
0
LWPOLYLINE
5
182
100
AcDbEntity
8
0
100
AcDbPolyline
90
8
70
1
43
0.0
10
232.26351935525005
20
-113.21685419056448
10
232.26351935525008
20
-125.71685419056443
42
0.41421356237308815
10
233.01351935525014
20
-126.46685419056445
10
245.51351935525008
20
-126.46685419056442
42
0.41421356237306733
10
246.26351935525005
20
-125.71685419056445
10
246.26351935525005
20
-113.21685419056449
42
0.41421356237309503
10
245.51351935525005
20
-112.46685419056446
10
233.01351935525008
20
-112.46685419056449
42
0.41421356237306733
0
LWPOLYLINE
5
183
100
AcDbEntity
8
0
100
AcDbPolyline
90
8
70
1
43
0.0
10
226.05101935525011
20
-75.116854190564553
10
226.05101935525013
20
-87.61685419056451
42
0.41421356237309503
10
226.80101935525016
20
-88.366854190564524
10
227.30101935525013
20
-88.36685419056451
42
0.41421356237315055
10
228.05101935525016
20
-87.61685419056451
10
228.05101935525011
20
-75.116854190564538
42
0.41421356237307078
10
227.30101935525011
20
-74.366854190564538
10
226.80101935525013
20
-74.366854190564553
42
0.41421356237307422
0
LWPOLYLINE
5
184
100
AcDbEntity
8
0
100
AcDbPolyline
90
8
70
1
43
0.0
10
192.86926935525017
20
-95.166854190564464
10
192.8692693552502
20
-108.66685419056446
42
0.41421356237307422
10
193.61926935525017
20
-109.41685419056448
10
199.11926935525014
20
-109.41685419056449
42
0.41421356237312279
10
199.86926935525022
20
-108.66685419056449
10
199.86926935525017
20
-95.166854190564507
42
0.41421356237307422
10
199.11926935525025
20
-94.416854190564521
10
193.61926935525025
20
-94.416854190564493
42
0.41421356237311585
0
LWPOLYLINE
5
185
100
AcDbEntity
8
0
100
AcDbPolyline
90
8
70
1
43
0.0
10
232.26351935525005
20
-56.066854190564598
10
232.26351935525003
20
-68.566854190564555
42
0.41421356237312279
10
233.01351935525014
20
-69.31685419056457
10
245.51351935525008
20
-69.316854190564598
42
0.41421356237311241
10
246.26351935525005
20
-68.566854190564584
10
246.26351935525005
20
-56.066854190564584
42
0.41421356237311935
10
245.51351935524997
20
-55.316854190564598
10
233.01351935525003
20
-55.316854190564598
42
0.41421356237307078
0
LWPOLYLINE
5
186
100
AcDbEntity
8
0
100
AcDbPolyline
90
8
70
1
43
0.0
10
137.01351935525031
20
-56.066854190564598
10
137.01351935525031
20
-68.566854190564584
42
0.41421356237309159
10
137.76351935525031
20
-69.316854190564584
10
150.26351935525028
20
-69.316854190564584
42
0.41421356237310897
10
151.01351935525025
20
-68.566854190564584
10
151.01351935525028
20
-56.066854190564584
42
0.41421356237308116
10
150.26351935525028
20
-55.316854190564598
10
137.76351935525031
20
-55.316854190564598
42
0.41421356237309853
0
LWPOLYLINE
5
187
100
AcDbEntity
8
0
100
AcDbPolyline
90
8
70
1
43
0.0
10
61.563519355250527
20
-69.31685419056457
42
-0.41421356237309503
10
60.813519355250534
20
-68.566854190564584
10
60.813519355250548
20
-56.066854190564598
42
-0.41421356237308116
10
61.563519355250527
20
-55.316854190564591
10
74.063519355250492
20
-55.316854190564591
42
-0.41421356237310197
10
74.813519355250506
20
-56.066854190564584
10
74.813519355250492
20
-68.56685419056457
42
-0.41421356237309503
10
74.063519355250492
20
-69.316854190564584
0
LWPOLYLINE
5
188
100
AcDbEntity
8
0
100
AcDbPolyline
90
8
70
1
43
0.0
10
-15.386480644749287
20
-56.066854190564605
10
-15.386480644749284
20
-68.566854190564584
42
0.41421356237308116
10
-14.636480644749287
20
-69.31685419056457
10
-2.1364806447493261
20
-69.316854190564555
42
0.41421356237309015
10
-1.3864806447493196
20
-68.566854190564555
10
-1.3864806447493176
20
-56.066854190564598
42
0.41421356237309076
10
-2.1364806447493256
20
-55.316854190564584
10
-14.636480644749293
20
-55.316854190564591
42
0.4142135623730942
0
LWPOLYLINE
5
189
100
AcDbEntity
8
0
100
AcDbPolyline
90
8
70
1
43
0.0
10
-34.436480644749246
20
-56.066854190564598
10
-34.436480644749238
20
-68.566854190564555
42
0.41421356237310375
10
-33.686480644749246
20
-69.316854190564555
10
-21.18648064474927
20
-69.316854190564584
42
0.41421356237308982
10
-20.436480644749263
20
-68.566854190564584
10
-20.436480644749267
20
-56.066854190564598
42
0.41421356237308637
10
-21.18648064474927
20
-55.316854190564612
10
-33.686480644749246
20
-55.316854190564598
42
0.41421356237308982
0
LWPOLYLINE
5
190
100
AcDbEntity
8
0
100
AcDbPolyline
90
8
70
1
43
0.0
10
41.76351935525058
20
-56.066854190564612
10
41.763519355250565
20
-68.566854190564584
42
0.4142135623730846
10
42.513519355250573
20
-69.316854190564555
10
55.013519355250537
20
-69.316854190564584
42
0.41421356237310197
10
55.763519355250544
20
-68.566854190564555
10
55.763519355250551
20
-56.066854190564584
42
0.41421356237309503
10
55.013519355250544
20
-55.316854190564577
10
42.51351935525058
20
-55.316854190564612
42
0.4142135623730846
0
LWPOLYLINE
5
191
100
AcDbEntity
8
0
100
AcDbPolyline
90
8
70
1
43
0.0
10
117.96351935525036
20
-56.066854190564605
10
117.96351935525033
20
-68.566854190564584
42
0.41421356237308815
10
118.71351935525034
20
-69.316854190564555
10
131.2135193552503
20
-69.31685419056457
42
0.41421356237311585
10
131.96351935525027
20
-68.566854190564555
10
131.9635193552503
20
-56.066854190564598
42
0.41421356237308815
10
131.2135193552503
20
-55.316854190564598
10
118.71351935525033
20
-55.316854190564598
42
0.41421356237312279
0
LWPOLYLINE
5
192
100
AcDbEntity
8
0
100
AcDbPolyline
90
8
70
1
43
0.0
10
202.05726935525021
20
-107.41685419056451
42
-0.41421356237311585
10
201.30726935525018
20
-106.66685419056449
10
201.30726935525024
20
-94.166854190564507
42
-0.41421356237307422
10
202.05726935525024
20
-93.416854190564521
10
214.55726935525021
20
-93.416854190564493
42
-0.41421356237306034
10
215.30726935525018
20
-94.166854190564507
10
215.30726935525021
20
-106.66685419056449
42
-0.41421356237309503
10
214.55726935525021
20
-107.41685419056449
0
LWPOLYLINE
5
193
100
AcDbEntity
8
0
100
AcDbPolyline
90
8
70
1
43
0.0
10
213.96351935525018
20
-126.46685419056442
42
-0.41421356237309503
10
213.21351935525018
20
-125.71685419056443
10
213.21351935525016
20
-113.21685419056445
42
-0.41421356237306034
10
213.96351935525016
20
-112.46685419056449
10
226.46351935525013
20
-112.46685419056445
42
-0.41421356237308815
10
227.2135193552501
20
-113.21685419056449
10
227.2135193552501
20
-125.71685419056443
42
-0.41421356237310197
10
226.46351935525013
20
-126.46685419056445
0
LWPOLYLINE
5
194
100
AcDbEntity
8
0
100
AcDbPolyline
90
8
70
1
43
0.0
10
194.16351935525023
20
-132.26685419056443
10
194.16351935525026
20
-144.7668541905644
42
0.41421356237304652
10
194.91351935525014
20
-145.51685419056437
10
207.41351935525014
20
-145.5168541905644
42
0.41421356237308815
10
208.16351935525023
20
-144.76685419056437
10
208.1635193552502
20
-132.2668541905644
42
0.41421356237312978
10
207.41351935525014
20
-131.5168541905644
10
194.91351935525017
20
-131.51685419056443
42
0.41421356237309503
0
LWPOLYLINE
5
195
100
AcDbEntity
8
0
100
AcDbPolyline
90
8
70
1
43
0.0
10
160.82601935525042
20
-132.2668541905644
42
-0.41421356237310897
10
161.57601935525037
20
-131.5168541905644
10
174.07601935525048
20
-131.51685419056423
42
-0.41421356237308116
10
174.82601935525042
20
-132.26685419056423
10
174.82601935525048
20
-144.7668541905642
42
-0.41421356237310897
10
174.07601935525048
20
-145.51685419056423
10
161.57601935525037
20
-145.51685419056437
42
-0.41421356237308815
10
160.82601935525034
20
-144.7668541905644
0
LWPOLYLINE
5
196
100
AcDbEntity
8
0
100
AcDbPolyline
90
8
70
1
43
0.0
10
-47.973980644749048
20
-145.51685419056423
42
-0.41421356237308815
10
-48.723980644749048
20
-144.76685419056423
10
-48.723980644749062
20
-132.26685419056426
42
-0.41421356237309503
10
-47.973980644749048
20
-131.51685419056426
10
-35.473980644749219
20
-131.51685419056443
42
-0.41421356237310897
10
-34.723980644749226
20
-132.26685419056443
10
-34.72398064474924
20
-144.76685419056437
42
-0.41421356237310375
10
-35.473980644749219
20
-145.5168541905644
0
LWPOLYLINE
5
197
100
AcDbEntity
8
0
100
AcDbPolyline
90
8
70
1
43
0.0
10
-0.34898064474916646
20
-145.5168541905642
42
-0.41421356237309465
10
-1.0989806447491637
20
-144.7668541905642
10
-1.098980644749155
20
-132.26685419056426
42
-0.41421356237309492
10
-0.34898064474916168
20
-131.51685419056426
10
12.151019355250645
20
-131.5168541905644
42
-0.41421356237309159
10
12.901019355250636
20
-132.2668541905644
10
12.901019355250636
20
-144.76685419056437
42
-0.41421356237310025
10
12.151019355250646
20
-145.51685419056437
0
LWPOLYLINE
5
198
100
AcDbEntity
8
0
100
AcDbPolyline
90
8
70
1
43
0.0
10
-51.192730644749176
20
-107.41685419056449
10
-33.092730644749238
20
-107.41685419056451
42
0.41421356237311241
10
-32.342730644749246
20
-106.66685419056448
10
-32.342730644749238
20
-94.166854190564507
42
0.41421356237308116
10
-33.092730644749238
20
-93.41685419056455
10
-51.192730644749183
20
-93.416854190564493
42
0.41421356237311241
10
-51.94273064474919
20
-94.166854190564521
10
-51.942730644749176
20
-106.66685419056452
42
0.41421356237309503
0
LWPOLYLINE
5
199
100
AcDbEntity
8
0
100
AcDbPolyline
90
20
70
1
43
0.0
10
-43.018230644749202
20
-126.46685419056445
10
-26.142230644749255
20
-126.46685419056445
10
-26.142230644749247
20
-127.71685419056445
42
0.41421356237311935
10
-25.392230644749255
20
-128.46685419056445
10
-19.892230644749272
20
-128.46685419056442
42
0.41421356237308554
10
-19.142230644749272
20
-127.71685419056445
10
-19.142230644749265
20
-126.46685419056442
10
-16.423980644749271
20
-126.46685419056442
42
0.41421356237309159
10
-15.673980644749291
20
-125.71685419056443
10
-15.673980644749275
20
-113.21685419056448
42
0.41421356237309159
10
-16.423980644749271
20
-112.46685419056446
10
-50.35523064474917
20
-112.46685419056448
42
0.41421356237307422
10
-51.105230644749177
20
-113.21685419056445
10
-51.105230644749192
20
-125.71685419056442
42
0.41421356237311585
10
-50.355230644749184
20
-126.4668541905644
10
-50.018230644749188
20
-126.4668541905644
10
-50.018230644749188
20
-127.7168541905644
42
0.41421356237311241
10
-49.268230644749181
20
-128.46685419056442
10
-43.768230644749188
20
-128.46685419056445
42
0.41421356237308116
10
-43.018230644749202
20
-127.71685419056445
0
LWPOLYLINE
5
200
100
AcDbEntity
8
0
100
AcDbPolyline
90
8
70
1
43
0.0
10
33.213519355250639
20
-143.7668541905644
10
33.213519355250618
20
-130.74285419056443
42
0.41421356237310897
10
32.46351935525059
20
-129.99285419056443
10
26.963519355250721
20
-129.99285419056446
42
0.41421356237310197
10
26.213519355250735
20
-130.74285419056446
10
26.213519355250714
20
-143.7668541905644
42
0.41421356237310197
10
26.963519355250728
20
-144.5168541905644
10
32.463519355250618
20
-144.5168541905644
42
0.41421356237308637
0
LWPOLYLINE
5
201
100
AcDbEntity
8
0
100
AcDbPolyline
90
8
70
1
43
0.0
10
221.70101935525003
20
-74.366854190564567
10
209.20101935525008
20
-74.366854190564567
42
0.41421356237306034
10
208.45101935525011
20
-75.116854190564524
10
208.45101935525011
20
-87.616854190564538
42
0.41421356237310897
10
209.20101935525014
20
-88.366854190564538
10
221.70101935525011
20
-88.36685419056451
42
0.41421356237315055
10
222.45101935525014
20
-87.61685419056451
10
222.45101935525008
20
-75.116854190564538
42
0.41421356237310197
0
LWPOLYLINE
5
202
100
AcDbEntity
8
0
100
AcDbPolyline
90
8
70
1
43
0.0
10
147.51351935525
20
-143.76733717297878
10
147.51351935525
20
-130.74333717297907
42
0.41421356237310897
10
146.76351935525025
20
-129.99333717297907
10
141.26351935525034
20
-129.99333717297907
42
0.41421356237310897
10
140.51351935525037
20
-130.7433371729791
10
140.51351935525037
20
-143.76733717297878
42
0.41421356237308116
10
141.26351935525034
20
-144.51733717297876
10
146.76351935525034
20
-144.51733717297878
42
0.41421356237309503
0
LWPOLYLINE
5
203
100
AcDbEntity
8
0
100
AcDbPolyline
90
16
70
1
43
0.0
10
70.826019355250452
20
-139.51685419056355
10
70.826019355250452
20
-137.51685419056352
42
0.41421356237307771
10
70.076019355250438
20
-136.76685419056352
10
61.725451126467341
20
-136.76685419056355
42
-0.23993164795343414
10
61.118933755076128
20
-136.45803066115181
42
0.50917507721731103
10
55.45810495542483
20
-136.45803066115178
42
-0.23993164795343908
10
54.851587584033595
20
-136.76685419056352
10
46.501019355250506
20
-136.76685419056352
42
0.41421356237307422
10
45.751019355250513
20
-137.51685419056352
10
45.751019355250506
20
-139.51685419056355
42
0.41421356237307771
10
46.501019355250513
20
-140.26685419056352
10
54.851587584033595
20
-140.26685419056355
42
-0.23993164795344871
10
55.458104955424822
20
-140.57567771997532
42
0.50917507721732047
10
61.118933755076142
20
-140.57567771997529
42
-0.23993164795342639
10
61.725451126467362
20
-140.26685419056355
10
70.076019355250452
20
-140.26685419056352
42
0.41421356237306733
0
LWPOLYLINE
5
204
100
AcDbEntity
8
0
100
AcDbPolyline
90
16
70
1
43
0.0
10
112.60810495542452
20
-136.45803066115178
42
-0.23993164795343169
10
112.00158758403333
20
-136.76685419056355
10
103.65101935525018
20
-136.76685419056358
42
0.41421356237307422
10
102.90101935525018
20
-137.51685419056355
10
102.90101935525016
20
-139.51685419056358
42
0.41421356237310897
10
103.65101935525017
20
-140.26685419056355
10
112.0015875840333
20
-140.26685419056355
42
-0.23993164795343169
10
112.60810495542449
20
-140.57567771997532
42
0.50917507721731881
10
118.26893375507578
20
-140.57567771997529
42
-0.23993164795341643
10
118.87545112646698
20
-140.26685419056355
10
127.22601935525012
20
-140.26685419056355
42
0.41421356237308116
10
127.9760193552501
20
-139.51685419056358
10
127.97601935525017
20
-137.51685419056355
42
0.41421356237308116
10
127.22601935525014
20
-136.76685419056358
10
118.87545112646703
20
-136.76685419056355
42
-0.23993164795342653
10
118.26893375507582
20
-136.45803066115181
42
0.50917507721731103
0
LWPOLYLINE
5
205
100
AcDbEntity
8
0
100
AcDbPolyline
90
24
70
1
43
0.0
10
200.41351935524972
20
-71.841852840757369
10
-26.686480644749722
20
-71.841852840757298
42
0.41421356237307771
10
-27.436480644749718
20
-72.591852840757255
10
-27.436480644749661
20
-90.141852840757238
42
0.41421356237309159
10
-26.686480644749672
20
-90.891852840757252
10
-23.423980644749193
20
-90.891852840757224
42
-0.41421356237312978
10
-22.673980644749193
20
-91.641852840757252
10
-22.673980644749221
20
-109.19285284075728
42
0.41421356237309331
10
-21.923980644749228
20
-109.94285284075727
10
-13.898980644749239
20
-109.94285284075731
42
-0.41421356237312101
10
-13.148980644749244
20
-110.69285284075731
10
-13.148980644749281
20
-128.24285284075728
42
0.41421356237312196
10
-12.398980644749216
20
-128.99285284075728
10
176.60101935524995
20
-128.99285284075728
42
0.41421356237310897
10
177.35101935524992
20
-128.24285284075725
10
177.3510193552498
20
-110.69185284075735
42
-0.41421356237310897
10
178.10101935524983
20
-109.94185284075733
10
186.12601935524981
20
-109.94185284075732
42
0.41421356237310897
10
186.87601935524987
20
-109.19185284075729
10
186.87601935524987
20
-91.641852840757338
42
-0.41421356237306034
10
187.62601935524984
20
-90.891852840757309
10
200.41351935524975
20
-90.891852840757323
42
0.41421356237309503
10
201.16351935524975
20
-90.141852840757338
10
201.16351935524972
20
-72.591852840757383
42
0.41421356237309853
0
LWPOLYLINE
5
206
100
AcDbEntity
8
0
100
AcDbPolyline
90
20
70
1
43
0.0
10
219.87651935525011
20
-70.841475163995312
10
225.37651935525014
20
-70.841475163995298
42
0.41421356237309503
10
226.12651935525014
20
-70.091475163995284
10
226.12651935525014
20
-69.31685419056457
10
226.46351935525018
20
-69.316854190564584
42
0.41421356237308116
10
227.21351935525013
20
-68.566854190564555
10
227.21351935525013
20
-56.066854190564612
42
0.41421356237307078
10
226.46351935525016
20
-55.316854190564591
10
194.9135193552502
20
-55.316854190564584
42
0.41421356237308116
10
194.16351935525017
20
-56.066854190564598
10
194.16351935525017
20
-68.566854190564555
42
0.41421356237311585
10
194.91351935525023
20
-69.316854190564555
10
195.25051935525022
20
-69.31685419056457
10
195.25051935525025
20
-70.091475163995284
42
0.4142135623730846
10
196.00051935525019
20
-70.841475163995284
10
201.50051935525022
20
-70.841475163995284
42
0.41421356237309853
10
202.25051935525022
20
-70.091475163995284
10
202.25051935525019
20
-69.31685419056457
10
219.12651935525014
20
-69.316854190564541
10
219.12651935525017
20
-70.091475163995284
42
0.4142135623730846
0
ENDSEC
0
SECTION
2
OBJECTS
0
DICTIONARY
5
C
100
AcDbDictionary
3
ACAD_GROUP
350
D
3
ACAD_MLINESTYLE
350
17
0
DICTIONARY
5
D
100
AcDbDictionary
0
DICTIONARY
5
1A
330
C
100
AcDbDictionary
0
DICTIONARY
5
17
100
AcDbDictionary
0
ENDSEC
0
EOF
