0
SECTION
2
HEADER
9
$INSUNITS
70
4
9
$ACADVER
1
AC1014
9
$HANDSEED
5
FFFF
0
ENDSEC
0
SECTION
2
TABLES
0
TABLE
2
VPORT
5
8
100
AcDbSymbolTable
0
ENDTAB
0
TABLE
2
LTYPE
5
5
100
AcDbSymbolTable
0
LTYPE
5
14
100
AcDbSymbolTableRecord
100
AcDbLinetypeTableRecord
2
BYBLOCK
70
0
0
LTYPE
5
15
100
AcDbSymbolTableRecord
100
AcDbLinetypeTableRecord
2
BYLAYER
70
0
0
ENDTAB
0
TABLE
2
LAYER
5
2
100
AcDbSymbolTable
70
2
0
LAYER
5
50
100
AcDbSymbolTableRecord
100
AcDbLayerTableRecord
2
0
70
0
6
CONTINUOUS
0
ENDTAB
0
TABLE
2
STYLE
5
3
100
AcDbSymbolTable
70
1
0
STYLE
5
11
100
AcDbSymbolTableRecord
100
AcDbTextStyleTableRecord
2
STANDARD
70
0
0
ENDTAB
0
TABLE
2
VIEW
5
6
100
AcDbSymbolTable
70
0
0
ENDTAB
0
TABLE
2
UCS
5
7
100
AcDbSymbolTable
70
0
0
ENDTAB
0
TABLE
2
APPID
5
9
100
AcDbSymbolTable
70
2
0
APPID
5
12
100
AcDbSymbolTableRecord
100
AcDbRegAppTableRecord
2
ACAD
70
0
0
ENDTAB
0
TABLE
2
DIMSTYLE
5
A
100
AcDbSymbolTable
70
1
0
ENDTAB
0
TABLE
2
BLOCK_RECORD
5
1
100
AcDbSymbolTable
70
1
0
BLOCK_RECORD
5
1F
100
AcDbSymbolTableRecord
100
AcDbBlockTableRecord
2
*MODEL_SPACE
0
BLOCK_RECORD
5
1B
100
AcDbSymbolTableRecord
100
AcDbBlockTableRecord
2
*PAPER_SPACE
0
ENDTAB
0
ENDSEC
0
SECTION
2
BLOCKS
0
BLOCK
5
20
100
AcDbEntity
100
AcDbBlockBegin
2
*MODEL_SPACE
0
ENDBLK
5
21
100
AcDbEntity
100
AcDbBlockEnd
0
BLOCK
5
1C
100
AcDbEntity
100
AcDbBlockBegin
2
*PAPER_SPACE
0
ENDBLK
5
1D
100
AcDbEntity
100
AcDbBlockEnd
0
ENDSEC
0
SECTION
2
ENTITIES
0
LWPOLYLINE
5
100
100
AcDbEntity
8
0
100
AcDbPolyline
90
24
70
1
43
0.0
10
-23.423980644749264
20
-90.891854190564516
42
-0.41421356237312101
10
-22.673980644749268
20
-91.64185419056453
10
-22.673980644749253
20
-109.19185419056426
42
-0.41421356237309503
10
-23.423980644749264
20
-109.94185419056427
10
-31.448980644756766
20
-109.94185419056427
42
0.41421356237309503
10
-32.198980644756773
20
-110.69185419056426
10
-32.198980644756723
20
-128.24185419056428
42
0.41421356237309503
10
-31.448980644756723
20
-128.99185419056425
10
176.60101935524335
20
-128.99185419056465
42
0.41421356237310197
10
177.35101935524335
20
-128.24185419056465
10
177.35101935524341
20
-110.69285419056463
42
-0.41421356237307422
10
178.10101935524341
20
-109.94285419056462
10
205.1760193552434
20
-109.94285419056453
42
0.41421356237308116
10
205.9260193552434
20
-109.19285419056457
10
205.92601935524343
20
-91.642854190564563
42
0.41421356237309503
10
205.17601935524343
20
-90.892854190564549
10
201.91351935525029
20
-90.892854190564591
42
-0.41421356237310197
10
201.16351935525017
20
-90.142854190564549
10
201.1635193552502
20
-72.591854190564533
42
0.41421356237309503
10
200.41351935525023
20
-71.841854190564547
10
-26.686480644749242
20
-71.841854190564533
42
0.41421356237309503
10
-27.436480644749246
20
-72.591854190564533
10
-27.436480644749238
20
-90.141854190564572
42
0.41421356237309159
10
-26.686480644749246
20
-90.891854190564544
0
LWPOLYLINE
5
101
100
AcDbEntity
8
0
100
AcDbPolyline
90
8
70
1
43
0.0
10
127.97517961648236
20
-129.56633717297922
42
-0.31084710447222053
10
128.45726935525033
20
-130.26685419056452
10
128.45726935525036
20
-143.76685419056446
42
-0.41421356237308815
10
127.70726935525035
20
-144.51685419056446
10
122.20726935525036
20
-144.51685419056449
42
-0.41421356237306733
10
121.45726935525039
20
-143.76685419056446
10
121.45726935525039
20
-130.31633717297919
42
-0.41421356237308815
10
122.20726935525038
20
-129.56633717297922
0
LWPOLYLINE
5
102
100
AcDbEntity
8
0
100
AcDbPolyline
90
14
70
1
43
0.0
10
147.0314296164822
20
-129.56633717297905
10
141.26351935525031
20
-129.56633717297908
42
0.41421356237310197
10
140.51351935525031
20
-130.3163371729791
10
140.51351935525028
20
-131.51685419056446
10
140.14476935525028
20
-131.51685419056449
42
0.41421356237308116
10
139.3947693552503
20
-132.26685419056449
10
139.39476935525033
20
-144.76685419056446
42
0.41421356237307422
10
140.14476935525028
20
-145.5168541905644
10
152.64476935525025
20
-145.51685419056443
42
0.41421356237307422
10
153.39476935525025
20
-144.76685419056446
10
153.39476935525028
20
-132.26685419056449
42
0.41421356237312279
10
152.64476935525025
20
-131.51685419056449
10
147.51351935525031
20
-131.51685419056449
10
147.51351935525037
20
-130.26685419056443
42
0.3108471044723049
0
ARC
5
103
100
AcDbEntity
8
0
100
AcDbCircle
10
93.009949137157676
20
-148.11927946211313
30
0
40
2.3999999999999013
210
1.345671542264839e-17
220
-7.7238625753091671e-18
230
1
100
AcDbArc
50
213.58006030646843
51
253.36642741117331
0
LINE
5
104
100
AcDbEntity
8
0
100
AcDbLine
10
92.32294949820789
20
-150.41885148666083
30
-8.516819662822476e-18
11
221.18160284684842
21
-150.41885148664892
31
-7.5730646901217133e-28
0
SPLINE
5
105
100
AcDbEntity
8
0
100
AcDbSpline
70
0
71
3
72
8
73
4
74
0
42
0.000000001
43
0.0000000001
44
0.0000000001
40
0.23612896199383931
40
0.23612896199383931
40
0.23612896199383931
40
0.23612896199383931
40
0.24903379000719386
40
0.24903379000719386
40
0.24903379000719386
40
0.24903379000719386
10
221.31048259053048
20
-150.41552723666197
30
0
10
221.26759295852398
20
-150.41774125607139
30
0
10
221.22461894017871
20
-150.41885148664892
30
0
10
221.18160284684836
20
-150.41885148664892
30
0
0
LINE
5
106
100
AcDbEntity
8
0
100
AcDbLine
10
221.31048259053048
20
-150.41552723666197
30
0
11
221.76292076475744
21
-150.33109671769677
31
1.0842021724855044e-18
0
ARC
5
107
100
AcDbEntity
8
0
100
AcDbCircle
10
221.35016850505718
20
-148.11927946209994
30
0
40
2.2500000000096807
210
3.3221736362684677e-18
220
1.1101445391831705e-18
230
1
100
AcDbArc
50
280.57051215345541
51
291.76722570468928
0
SPLINE
5
108
100
AcDbEntity
8
0
100
AcDbSpline
70
0
71
3
72
10
73
6
74
0
42
0.000000001
43
0.0000000001
44
0.0000000001
40
0
40
0
40
0
40
0
40
0.097661131658630371
40
0.097661131658630371
40
0.14564577119576264
40
0.14564577119576264
40
0.14564577119576264
40
0.14564577119576264
10
223.27681310793628
20
-149.28270420572537
30
-4.4408920985006262e-15
10
223.09921922807175
20
-149.55553166202455
30
0
10
222.87003397194991
20
-149.7910627053013
30
0
10
222.4705395575688
20
-150.06692639576036
30
0
10
222.33067801623449
20
-150.14485096472532
30
0
10
222.18455099670024
20
-150.20885019736679
30
0
0
ARC
5
109
100
AcDbEntity
8
0
100
AcDbCircle
10
225.33011825345761
20
-150.61927946209914
30
0
40
2.4500000000001165
210
2.3343843113674437e-31
220
-1.3877787807814463e-17
230
1
100
AcDbArc
50
90.000000000007987
51
146.93834979205144
0
LINE
5
110
100
AcDbEntity
8
0
100
AcDbLine
10
225.33011825345727
20
-148.16927946209901
30
3.4000580129147042e-17
11
230.22999938875728
21
-148.16927946209856
31
0
0
ARC
5
111
100
AcDbEntity
8
0
100
AcDbCircle
10
230.22999938875742
20
-150.61927946209875
30
0
40
2.4500000000001743
210
-1.3386280335121118e-17
220
7.8453006212607786e-18
230
1
100
AcDbArc
50
33.061650207953029
51
90.000000000003325
0
SPLINE
5
112
100
AcDbEntity
8
0
100
AcDbSpline
70
0
71
3
72
10
73
6
74
0
42
0.000000001
43
0.0000000001
44
0.0000000001
40
0.10351053286176086
40
0.10351053286176086
40
0.10351053286176086
40
0.10351053286176086
40
0.17334745450304215
40
0.17334745450304215
40
0.24903378967642606
40
0.24903378967642606
40
0.24903378967642606
40
0.24903378967642606
10
233.3755613839713
20
-150.20884809634606
30
0
10
233.16250022511358
20
-150.11553329849966
30
0
10
232.96341037928218
20
-149.99289840258223
30
0
10
232.5897876922125
20
-149.68353406826782
30
0
10
232.42093789675897
20
-149.49414257407309
30
0
10
232.28330453427915
20
-149.28270420572454
30
0
0
ARC
5
113
100
AcDbEntity
8
0
100
AcDbCircle
10
234.20994913715714
20
-148.11927946209894
30
0
40
2.2499999999768621
210
-4.0064767466854057e-32
220
1.5998302597333057e-32
230
1
100
AcDbArc
50
248.23263002402979
51
259.42948784906076
0
LINE
5
114
100
AcDbEntity
8
0
100
AcDbLine
10
233.79719687756
20
-150.33109671768185
30
3.0630679428133245e-17
11
234.2496353645779
21
-150.41552729505017
31
0
0
SPLINE
5
115
100
AcDbEntity
8
0
100
AcDbSpline
70
0
71
3
72
8
73
4
74
0
42
0.000000001
43
0.0000000001
44
0.0000000001
40
0
40
0
40
0
40
0
40
0.012908445372531782
40
0.012908445372531782
40
0.012908445372531782
40
0.012908445372531782
10
234.37851479536715
20
-150.41885148664772
30
0
10
234.33548664412538
20
-150.41885148664772
30
0
10
234.29251286642457
20
-150.41774063356254
30
0
10
234.2496353645779
20
-150.4155272950502
30
0
0
LINE
5
116
100
AcDbEntity
8
0
100
AcDbLine
10
234.37851479536715
20
-150.41885148664772
30
0
11
249.16351935235369
21
-150.41885148664616
31
3.1554436208840472e-29
0
ELLIPSE
5
117
100
AcDbEntity
8
0
100
AcDbEllipse
10
249.16351935525728
20
-148.41885140523968
30
0
11
2.0796535200093537e-13
21
-2.0000000814057661
31
0.0
40
0.99999995929711605
41
6.2831853057277058
42
7.8539815301080704
0
LINE
5
118
100
AcDbEntity
8
0
100
AcDbLine
10
251.16351935525728
20
-148.4188516129723
30
0
11
251.16351935524833
21
-52.416854190544186
31
0
0
ARC
5
119
100
AcDbEntity
8
0
100
AcDbCircle
10
249.16351935524835
20
-52.416854190544377
30
-4.4408920985006262e-15
40
1.9999999999999574
210
-2.2204460492503592e-15
220
-1.3877787808031394e-17
230
1
100
AcDbArc
50
0
51
90.000000000004889
0
LINE
5
120
100
AcDbEntity
8
0
100
AcDbLine
10
249.16351935524818
20
-50.416854190544385
30
-4.4131365228849972e-15
11
218.70994380616594
21
-50.416854190583066
31
-7.8886090522101181e-30
0
ARC
5
121
100
AcDbEntity
8
0
100
AcDbCircle
10
218.70994380616625
20
-52.91685419058544
30
0
40
2.5000000000023714
210
-1.774937036747499e-30
220
3.155443620880827e-30
230
1
100
AcDbArc
50
90.000000000007162
51
92.361748805210468
0
LINE
5
122
100
AcDbEntity
8
0
100
AcDbLine
10
218.60692225426217
20
-50.418977780541255
30
3.4664998788738394e-17
11
218.14368432954822
21
-50.502854190581353
31
1.0842021724855044e-18
0
ARC
5
123
100
AcDbEntity
8
0
100
AcDbCircle
10
218.54456336364851
20
-52.716854190536935
30
0
40
2.2499999999521121
210
8.5853613766702294e-20
220
-4.7415775011099815e-19
230
1
100
AcDbArc
50
100.26309589823583
51
113.15679207714972
0
ARC
5
124
100
AcDbEntity
8
0
100
AcDbCircle
10
218.70994380616625
20
-52.91685419058544
30
0
40
2.5000000000023732
210
1.1411429213644827e-17
220
-8.1338904437608907e-18
230
1
100
AcDbArc
50
114.83938388157209
51
144.73776329666029
0
ARC
5
125
100
AcDbEntity
8
0
100
AcDbCircle
10
214.74983017144822
20
-50.116854190494486
30
0
40
2.3499999999999321
210
2.6267389716402082e-30
220
-1.3877787807814463e-17
230
1
100
AcDbArc
50
270.00000000000421
51
324.73776329528135
0
LINE
5
126
100
AcDbEntity
8
0
100
AcDbLine
10
214.74983017144839
20
-52.466854190494416
30
-3.2612801348363038e-17
11
211.01053187184849
21
-52.466854190494772
31
7.8886090522101181e-30
0
ARC
5
127
100
AcDbEntity
8
0
100
AcDbCircle
10
211.0105318718482
20
-50.116854190494877
30
0
40
2.3499999999999059
210
8.0119187347449626e-18
220
-1.1331467364228088e-17
230
1
100
AcDbArc
50
215.26223670472871
51
270.00000000000693
0
ARC
5
128
100
AcDbEntity
8
0
100
AcDbCircle
10
207.05041823713086
20
-52.916854190586406
30
0
40
2.5000000000399809
210
1.6023837468944415e-17
220
-2.2662934728841882e-17
230
1
100
AcDbArc
50
35.262236703350105
51
65.160616143870342
0
ARC
5
129
100
AcDbEntity
8
0
100
AcDbCircle
10
207.21579867964846
20
-52.716854190537973
30
0
40
2.250000000022419
210
6.7145202486853923e-18
220
-1.9591273367084809e-17
230
1
100
AcDbArc
50
66.843207951076707
51
79.736904101775465
0
LINE
5
130
100
AcDbEntity
8
0
100
AcDbLine
10
207.61667771376085
20
-50.502854190513034
30
6.9676411073167837e-18
11
207.15343978877269
21
-50.418977780493776
31
0
0
ARC
5
131
100
AcDbEntity
8
0
100
AcDbCircle
10
207.05041823713086
20
-52.916854190586406
30
0
40
2.5000000000399867
210
8.6662496972138289e-19
220
-3.5742780832355415e-20
230
1
100
AcDbArc
50
87.638251200840429
51
90.000000000005869
0
LINE
5
132
100
AcDbEntity
8
0
100
AcDbLine
10
207.0504182371306
20
-50.416854190546402
30
3.4754355741493434e-17
11
92.579943806166256
21
-50.416854190594776
31
4.4408920985006262e-15
0
ARC
5
133
100
AcDbEntity
8
0
100
AcDbCircle
10
92.579943806166483
20
-52.9168541905971
30
-4.4408920985006262e-15
40
2.5000000000023181
210
3.0292258760430676e-28
220
-3.5527136787972066e-15
230
1
100
AcDbArc
50
90.000000000005215
51
93.947747535597003
0
LINE
5
134
100
AcDbEntity
8
0
100
AcDbLine
10
92.407827084048193
20
-50.422786061219149
30
-4.4408920985006262e-15
11
91.969142214648542
21
-50.511383719244293
31
0
0
ARC
5
135
100
AcDbEntity
8
0
100
AcDbCircle
10
92.414563363648767
20
-52.716854190548588
30
0
40
2.2499999999493085
210
3.4007834686501322e-18
220
6.8682891011968868e-19
230
1
100
AcDbArc
50
101.41798031453635
51
113.1567920792385
0
ARC
5
136
100
AcDbEntity
8
0
100
AcDbCircle
10
92.579943806166483
20
-52.9168541905971
30
-4.4408920985006262e-15
40
2.5000000000019917
210
7.4647168602375249e-16
220
-1.6126006933179887e-15
230
1
100
AcDbArc
50
114.8393838834524
51
144.73776329666083
0
ARC
5
137
100
AcDbEntity
8
0
100
AcDbCircle
10
88.619830171448569
20
-50.11685419050621
30
-4.4408920985006262e-15
40
2.3499999999999677
210
1.153918877317998e-30
220
-1.3877787807814614e-17
230
1
100
AcDbArc
50
270.00000000000483
51
324.73776329528044
0
LINE
5
138
100
AcDbEntity
8
0
100
AcDbLine
10
88.619830171448768
20
-52.466854190506176
30
-4.4735048998489905e-15
11
84.880531871848774
21
-52.46685419050651
31
3.944304526105059e-30
0
ARC
5
139
100
AcDbEntity
8
0
100
AcDbCircle
10
84.880531871848532
20
-50.116854190506565
30
0
40
2.3499999999999464
210
8.0119187347451906e-18
220
-1.1331467364227923e-17
230
1
100
AcDbArc
50
215.26223670473007
51
270.00000000000591
0
ARC
5
140
100
AcDbEntity
8
0
100
AcDbCircle
10
80.920418237131102
20
-52.916854190598201
30
0
40
2.5000000000400591
210
8.0119187344721985e-18
220
-1.133146736442098e-17
230
1
100
AcDbArc
50
35.262236703349629
51
65.160616143983958
0
ARC
5
141
100
AcDbEntity
8
0
100
AcDbCircle
10
81.085798679648775
20
-52.716854190549554
30
0
40
2.250000000022395
210
7.1087146272566527e-18
220
-1.8669630075202679e-17
230
1
100
AcDbArc
50
66.843207951202402
51
79.736904101775792
0
LINE
5
142
100
AcDbEntity
8
0
100
AcDbLine
10
81.486677713761139
20
-50.502854190524701
30
-2.3470065964177651e-17
11
81.023439788774212
21
-50.418977780505557
31
0
0
ARC
5
143
100
AcDbEntity
8
0
100
AcDbCircle
10
80.920418237131102
20
-52.916854190598201
30
0
40
2.5000000000400484
210
2.0310923066556094e-31
220
-8.3769669354571357e-33
230
1
100
AcDbArc
50
87.638251200811155
51
90.000000000004889
0
LINE
5
144
100
AcDbEntity
8
0
100
AcDbLine
10
80.920418237130889
20
-50.416854190558155
30
3.4664998789410824e-17
11
-14.273379526623469
21
-50.416854190604681
31
0
0
ARC
5
145
100
AcDbEntity
8
0
100
AcDbCircle
10
-14.273379526623229
20
-52.916854190607019
30
0
40
2.5000000000023359
210
2.4651903288133322e-32
220
2.3646911585436846e-45
230
1
100
AcDbArc
50
90.0000000000055
51
92.361748805528961
0
LINE
5
146
100
AcDbEntity
8
0
100
AcDbLine
10
-14.376401078541189
20
-50.418977780563459
30
3.4664998788729982e-17
11
-14.839639003261155
21
-50.502854190603003
31
-1.0842021724855044e-18
0
ARC
5
147
100
AcDbEntity
8
0
100
AcDbCircle
10
-14.438759969140932
20
-52.716854190558458
30
0
40
2.2499999999555405
210
-8.5853613770708722e-20
220
4.7415775010952664e-19
230
1
100
AcDbArc
50
100.263095898736
51
113.15679207411168
0
ARC
5
148
100
AcDbEntity
8
0
100
AcDbCircle
10
-14.273379526623229
20
-52.916854190607019
30
0
40
2.5000000000023439
210
0
220
0
230
1
100
AcDbArc
50
114.83938387883531
51
144.73776329666018
0
ARC
5
149
100
AcDbEntity
8
0
100
AcDbCircle
10
-18.233493161341194
20
-50.116854190516051
30
0
40
2.350000000000021
210
2.915218690969658e-30
220
-1.387778780781446e-17
230
1
100
AcDbArc
50
270.00000000000557
51
324.73776329528027
0
LINE
5
150
100
AcDbEntity
8
0
100
AcDbLine
10
-18.233493161340967
20
-52.466854190516074
30
-3.261280134836427e-17
11
-21.972791460940961
21
-52.466854190516408
31
0
0
ARC
5
151
100
AcDbEntity
8
0
100
AcDbCircle
10
-21.972791460941174
20
-50.116854190516406
30
0
40
2.3500000000000005
210
8.0119187347453816e-18
220
-1.1331467364227786e-17
230
1
100
AcDbArc
50
215.26223670473107
51
270.00000000000517
0
ARC
5
152
100
AcDbEntity
8
0
100
AcDbCircle
10
-25.932905095658604
20
-52.916854190608092
30
0
40
2.5000000000400364
210
8.0119187344722e-18
220
-1.1331467364420949e-17
230
1
100
AcDbArc
50
35.262236703349643
51
65.160616143998766
0
ARC
5
153
100
AcDbEntity
8
0
100
AcDbCircle
10
-25.767524653140942
20
-52.716854190559488
30
0
40
2.2500000000224434
210
7.2887243284152358e-19
220
-1.5940919356936467e-17
230
1
100
AcDbArc
50
66.843207951219028
51
79.736904101274774
0
LINE
5
154
100
AcDbEntity
8
0
100
AcDbLine
10
-25.366645619009208
20
-50.502854190538088
30
3.3921527624978876e-17
11
-25.82988354400333
21
-50.418977780515974
31
0
0
ARC
5
155
100
AcDbEntity
8
0
100
AcDbCircle
10
-25.932905095658604
20
-52.916854190608092
30
0
40
2.5000000000400346
210
2.3572601379939576e-32
220
-9.7222022711005608e-34
230
1
100
AcDbArc
50
87.63825120053211
51
90.000000000005215
0
LINE
5
156
100
AcDbEntity
8
0
100
AcDbLine
10
-25.932905095658832
20
-50.416854190568053
30
3.46649987894037e-17
11
-56.386480644748062
21
-50.416854190608611
31
-7.8886090522101181e-30
0
ARC
5
157
100
AcDbEntity
8
0
100
AcDbCircle
10
-56.386480644750876
20
-52.416854190572749
30
0
40
1.9999999999641371
210
2.5305178725299428e-29
220
3.9443045261401623e-30
230
1
100
AcDbArc
50
89.999999999919396
51
180
0
LINE
5
158
100
AcDbEntity
8
0
100
AcDbLine
10
-58.386480644715007
20
-52.416854190572934
30
8.9486408934403928e-30
11
-58.386480644741965
21
-148.41885161137748
31
-4.4408920985006262e-15
0
ELLIPSE
5
159
100
AcDbEntity
8
0
100
AcDbEllipse
10
-56.386480644741958
20
-148.41885140526804
30
0
11
-4.2616136247271396e-09
21
-2.0000000814057661
31
0.0
40
0.99999995929711605
41
4.7123890855702104
42
6.2831853071795862
0
LINE
5
160
100
AcDbEntity
8
0
100
AcDbLine
10
-56.386480649003573
20
-150.41885148667382
30
0
11
-41.601476084840854
21
-150.41885148667333
31
0
0
SPLINE
5
161
100
AcDbEntity
8
0
100
AcDbSpline
70
0
71
3
72
8
73
4
74
0
42
0.000000001
43
0.0000000001
44
0.0000000001
40
0.23612896199809397
40
0.23612896199809397
40
0.23612896199809397
40
0.23612896199809397
40
0.24903379000713924
40
0.24903379000713924
40
0.24903379000713924
40
0.24903379000713924
10
-41.472596341201744
20
-150.4155272366886
30
0
10
-41.515485973193897
20
-150.41774125609658
30
0
10
-41.558459991524863
20
-150.41885148667333
30
0
10
-41.601476084840854
20
-150.41885148667333
30
0
0
LINE
5
162
100
AcDbEntity
8
0
100
AcDbLine
10
-41.472596341201744
20
-150.4155272366886
30
0
11
-41.020158167001817
21
-150.33109671772115
31
-4.4408920985006262e-15
0
ARC
5
163
100
AcDbEntity
8
0
100
AcDbCircle
10
-41.432910426651986
20
-148.1192794621245
30
0
40
2.2500000000003184
210
3.6207175279371931e-16
220
-1.9402354120896269e-15
230
1
100
AcDbArc
50
280.57051215220241
51
291.76722571820818
0
SPLINE
5
164
100
AcDbEntity
8
0
100
AcDbSpline
70
0
71
3
72
10
73
6
74
0
42
0.000000001
43
0.0000000001
44
0.0000000001
40
0
40
0
40
0
40
0
40
0.097661131658605183
40
0.097661131658605183
40
0.14564577114432417
40
0.14564577114432417
40
0.14564577114432417
40
0.14564577114432417
10
-39.506265823753004
20
-149.28270420574975
30
0
10
-39.683859703617529
20
-149.55553166204891
30
0
10
-39.913044959739409
20
-149.79106270532569
30
0
10
-40.312539373979568
20
-150.06692639568743
30
0
10
-40.452400915155238
20
-150.14485096458284
30
0
10
-40.598527934519453
20
-150.20885019718557
30
0
0
ARC
5
165
100
AcDbEntity
8
0
100
AcDbCircle
10
-37.452960678231833
20
-150.61927946212342
30
0
40
2.4499999999999922
210
1.1822851576973111e-30
220
-1.3877787807814463e-17
230
1
100
AcDbArc
50
90.000000000004817
51
146.93834979205155
0
LINE
5
166
100
AcDbEntity
8
0
100
AcDbLine
10
-37.452960678232039
20
-148.16927946212343
30
3.4000580129145323e-17
11
-32.553079542972057
21
-148.16927946212297
31
-4.4408920985006262e-15
0
ARC
5
167
100
AcDbEntity
8
0
100
AcDbCircle
10
-32.553079542971808
20
-150.6192794621229
30
0
40
2.4499999999999464
210
-4.0598486115797181e-18
220
-1.9201656650625242e-17
230
1
100
AcDbArc
50
33.06165020760897
51
90.000000000005812
0
SPLINE
5
168
100
AcDbEntity
8
0
100
AcDbSpline
70
0
71
3
72
10
73
6
74
0
42
0.000000001
43
0.0000000001
44
0.0000000001
40
0.10350766174291197
40
0.10350766174291197
40
0.10350766174291197
40
0.10350766174291197
40
0.17334738993837112
40
0.17334738993837112
40
0.2490336969215968
40
0.2490336969215968
40
0.2490336969215968
40
0.2490336969215968
10
-29.40749124898289
20
-150.20885859758465
30
0
10
-29.620562103543033
20
-150.11554242822137
30
0
10
-29.819660752835407
20
-149.99290365164643
30
0
10
-30.193290573159629
20
-149.68353341091114
30
0
10
-30.362140305708948
20
-149.49414198728437
30
0
10
-30.499773616924838
20
-149.28270369769248
30
0
0
ARC
5
169
100
AcDbEntity
8
0
100
AcDbCircle
10
-28.573129794542066
20
-148.11927946212319
30
0
40
2.2500000000027804
210
6.44416352211874e-18
220
-2.5731313821632662e-18
230
1
100
AcDbArc
50
248.23335113164762
51
259.42948784780765
0
LINE
5
170
100
AcDbEntity
8
0
100
AcDbLine
10
-28.985882054192274
20
-150.3310967177222
30
5.8230058137274245e-17
11
-28.533450475480826
21
-150.41552600588989
31
0
0
SPLINE
5
171
100
AcDbEntity
8
0
100
AcDbSpline
70
0
71
3
72
8
73
4
74
0
42
0.000000001
43
0.0000000001
44
0.0000000001
40
0
40
0
40
0
40
0
40
0.012909138642433215
40
0.012909138642433215
40
0.012909138642433215
40
0.012909138642433215
10
-28.404564136358271
20
-150.41885055534752
30
0
10
-28.447594598499713
20
-150.41885055534857
30
0
10
-28.490570681239319
20
-150.41773958252659
30
0
10
-28.533450475480826
20
-150.41552600588989
30
0
0
LINE
5
172
100
AcDbEntity
8
0
100
AcDbLine
10
-28.404564136358271
20
-150.41885055534752
30
0
11
80.837162758639778
21
-150.41885148666188
31
1.2621774483536189e-28
0
ARC
5
173
100
AcDbEntity
8
0
100
AcDbCircle
10
80.150168505057792
20
-148.11927946211429
30
0
40
2.3999984584446286
210
-1.505398902663409e-29
220
5.0390133313338918e-29
230
1
100
AcDbArc
50
286.63344940241325
51
326.41993969121688
0
SPLINE
5
174
100
AcDbEntity
8
0
100
AcDbSpline
70
0
71
3
72
12
73
8
74
0
42
0.000000001
43
0.0000000001
44
0.0000000001
40
0
40
0
40
0
40
0
40
0.089566241140083158
40
0.089566241140083158
40
0.15829188871629374
40
0.15829188871629374
40
0.22701753725536261
40
0.22701753725536261
40
0.22701753725536261
40
0.22701753725536261
10
84.065802095650014
20
-148.41885626583468
30
0
10
83.767247958516407
20
-148.41885626583473
30
0
10
83.471530602708398
20
-148.47698750916786
30
0
10
82.983153485885524
20
-148.67671231453375
30
0
10
82.785254637383275
20
-148.79462178141824
30
0
10
82.430861615837827
20
-149.08501115595664
30
0
10
82.276347846323802
20
-149.25586829196743
30
0
10
82.149640287646122
20
-149.44672256491364
30
0
0
LINE
5
175
100
AcDbEntity
8
0
100
AcDbLine
10
84.065802095650014
20
-148.41885626583468
30
0
11
89.094315546534588
21
-148.4188578074243
31
0
0
SPLINE
5
176
100
AcDbEntity
8
0
100
AcDbSpline
70
0
71
3
72
12
73
8
74
0
42
0.000000001
43
0.0000000001
44
0.0000000001
40
0
40
0
40
0
40
0
40
0.089566191502171155
40
0.089566191502171155
40
0.15829178784852449
40
0.15829178784852449
40
0.22701738515602457
40
0.22701738515602457
40
0.22701738515602457
40
0.22701738515602457
10
91.010476070224669
20
-149.44672341746849
30
-4.4408920985006262e-15
10
90.845345376455541
20
-149.19799399022358
30
0
10
90.633353796716207
20
-148.98378039101024
30
0
10
90.196838394890449
20
-148.68737500080996
30
0
10
89.98914836932758
20
-148.58771873841997
30
-4.4408920985006262e-15
10
89.551205943483893
20
-148.45308397007517
30
0
10
89.323400859434926
20
-148.4188578074189
30
0
10
89.094315546534588
20
-148.4188578074243
30
0
0
LWPOLYLINE
5
177
100
AcDbEntity
8
0
100
AcDbPolyline
90
16
70
1
43
0.0
10
116.85851935525045
20
-139.51685419056432
10
116.85851935525045
20
-137.51685419056429
42
0.41421356237312978
10
116.10851935525046
20
-136.76685419056429
10
111.09745112646735
20
-136.76685419056429
42
-0.2399316479534695
10
110.49093375507611
20
-136.45803066115249
42
0.50917507721731647
10
104.83010495542479
20
-136.45803066115252
42
-0.23993164795346081
10
104.22358758403355
20
-136.76685419056429
10
99.212519355250421
20
-136.76685419056429
42
0.41421356237315748
10
98.462519355250436
20
-137.51685419056429
10
98.462519355250436
20
-139.51685419056432
42
0.41421356237310897
10
99.212519355250421
20
-140.26685419056432
10
104.22358758403354
20
-140.26685419056429
42
-0.23993164795346444
10
104.83010495542476
20
-140.57567771997606
42
0.50917507721731248
10
110.49093375507616
20
-140.57567771997608
42
-0.23993164795346081
10
111.09745112646733
20
-140.26685419056432
10
116.10851935525045
20
-140.26685419056432
42
0.41421356237310897
0
LWPOLYLINE
5
178
100
AcDbEntity
8
0
100
AcDbPolyline
90
16
70
1
43
0.0
10
59.783394355250593
20
-139.51685419056457
10
59.783394355250593
20
-137.51685419056454
42
0.41421356237314361
10
59.033394355250607
20
-136.76685419056457
10
54.02232612646749
20
-136.76685419056457
42
-0.23993164795345751
10
53.41580875507627
20
-136.4580306611528
42
0.50917507721731814
10
47.754979955424886
20
-136.4580306611528
42
-0.2399316479534607
10
47.148462584033695
20
-136.76685419056454
10
42.137394355250578
20
-136.76685419056454
42
0.41421356237313667
10
41.387394355250592
20
-137.51685419056454
10
41.387394355250592
20
-139.51685419056457
42
0.41421356237313667
10
42.137394355250578
20
-140.2668541905646
10
47.148462584033702
20
-140.26685419056457
42
-0.23993164795345587
10
47.754979955424901
20
-140.57567771997634
42
0.50917507721731214
10
53.41580875507627
20
-140.57567771997637
42
-0.23993164795346761
10
54.02232612646749
20
-140.26685419056457
10
59.033394355250614
20
-140.26685419056457
42
0.41421356237315404
0
LWPOLYLINE
5
179
100
AcDbEntity
8
0
100
AcDbPolyline
90
8
70
1
43
0.0
10
161.57601935525037
20
-145.5168541905644
10
176.45726935525028
20
-145.51685419056443
42
0.41421356237309503
10
177.20726935525028
20
-144.76685419056446
10
177.20726935525025
20
-132.26685419056449
42
0.41421356237307422
10
176.4572693552503
20
-131.51685419056446
10
161.57601935525039
20
-131.5168541905644
42
0.41421356237311585
10
160.82601935525045
20
-132.26685419056443
10
160.82601935525037
20
-144.7668541905644
42
0.41421356237309503
0
LWPOLYLINE
5
180
100
AcDbEntity
8
0
100
AcDbPolyline
90
8
70
1
43
0.0
10
93.11351935525046
20
-131.51685419056446
10
68.707269355250531
20
-131.51685419056452
42
0.41421356237309159
10
67.957269355250531
20
-132.26685419056449
10
67.957269355250517
20
-144.76685419056446
42
0.41421356237309503
10
68.707269355250531
20
-145.51685419056443
10
93.113519355250446
20
-145.51685419056409
42
0.41421356237310197
10
93.863519355250446
20
-144.76685419056412
10
93.863519355250475
20
-132.26685419056446
42
0.41421356237312978
0
CIRCLE
5
181
100
AcDbEntity
8
0
100
AcDbCircle
10
-56.800694207123911
20
-52.002640628237955
30
0
40
0.97999999999999865
210
2.4520351490702064e-30
220
-1.3877787807814457e-17
230
1
0
LWPOLYLINE
5
182
100
AcDbEntity
8
0
100
AcDbPolyline
90
8
70
1
43
0.0
10
98.913519355250443
20
-56.066854190564584
42
-0.41421356237308116
10
99.663519355250429
20
-55.316854190564591
10
112.1635193552504
20
-55.316854190564612
42
-0.41421356237308116
10
112.9135193552504
20
-56.066854190564605
10
112.9135193552504
20
-68.566854190564598
42
-0.41421356237307771
10
112.1635193552504
20
-69.316854190564584
10
99.663519355250429
20
-69.316854190564513
42
-0.41421356237310897
10
98.913519355250457
20
-68.566854190564541
0
CIRCLE
5
183
100
AcDbEntity
8
0
100
AcDbCircle
10
-56.800694207114915
20
-148.83349302449892
30
0
40
0.92999999999999972
210
1.0508624140881692e-30
220
-1.3877787807814457e-17
230
1
0
LWPOLYLINE
5
184
100
AcDbEntity
8
0
100
AcDbPolyline
90
8
70
1
43
0.0
10
-50.355230644749149
20
-145.51685419056443
10
-35.473980644749204
20
-145.51685419056443
42
0.41421356237310025
10
-34.723980644749226
20
-144.7668541905644
10
-34.723980644749219
20
-132.26685419056446
42
0.41421356237309331
10
-35.473980644749197
20
-131.51685419056446
10
-50.35523064474917
20
-131.51685419056452
42
0.41421356237308116
10
-51.105230644749142
20
-132.26685419056446
10
-51.105230644749177
20
-144.7668541905644
42
0.41421356237311241
0
LWPOLYLINE
5
185
100
AcDbEntity
8
0
100
AcDbPolyline
90
8
70
1
43
0.0
10
232.26351935525003
20
-75.116854190564524
42
-0.41421356237306733
10
233.01351935525003
20
-74.366854190564538
10
245.51351935524997
20
-74.366854190564567
42
-0.41421356237311585
10
246.26351935525005
20
-75.116854190564538
10
246.26351935525011
20
-87.616854190564538
42
-0.41421356237308116
10
245.51351935525008
20
-88.366854190564524
10
233.01351935525014
20
-88.366854190564453
42
-0.41421356237315055
10
232.26351935525008
20
-87.616854190564496
0
CIRCLE
5
186
100
AcDbEntity
8
0
100
AcDbCircle
10
249.57773291764835
20
-52.002640628209527
30
0
40
0.92999999999999972
210
1.0565916318758533e-30
220
-1.3877787807814457e-17
230
1
0
LWPOLYLINE
5
187
100
AcDbEntity
8
0
100
AcDbPolyline
90
8
70
1
43
0.0
10
-2.7302306447492986
20
-145.51685419056446
10
12.151019355250661
20
-145.5168541905644
42
0.4142135623730942
10
12.901019355250652
20
-144.7668541905644
10
12.90101935525065
20
-132.26685419056443
42
0.41421356237312018
10
12.151019355250659
20
-131.51685419056443
10
-2.7302306447493181
20
-131.51685419056446
42
0.41421356237308965
10
-3.4802306447492959
20
-132.26685419056446
10
-3.4802306447492977
20
-144.76685419056446
42
0.41421356237308621
0
LWPOLYLINE
5
188
100
AcDbEntity
8
0
100
AcDbPolyline
90
8
70
1
43
0.0
10
22.713519355250639
20
-56.066854190564612
42
-0.41421356237311063
10
23.463519355250625
20
-55.316854190564591
10
35.96351935525059
20
-55.316854190564591
42
-0.41421356237309331
10
36.713519355250597
20
-56.066854190564605
10
36.713519355250583
20
-68.566854190564555
42
-0.41421356237310375
10
35.963519355250583
20
-69.31685419056457
10
23.463519355250625
20
-69.316854190564584
42
-0.41421356237308637
10
22.713519355250611
20
-68.566854190564598
0
LWPOLYLINE
5
189
100
AcDbEntity
8
0
100
AcDbPolyline
90
8
70
1
43
0.0
10
3.6635193552506831
20
-56.066854190564605
42
-0.41421356237308771
10
4.4135193552506742
20
-55.316854190564612
10
16.913519355250642
20
-55.316854190564641
42
-0.41421356237307771
10
17.663519355250642
20
-56.066854190564584
10
17.663519355250639
20
-68.566854190564584
42
-0.4142135623730942
10
16.913519355250639
20
-69.316854190564584
10
4.4135193552506795
20
-69.31685419056457
42
-0.41421356237311452
10
3.6635193552506844
20
-68.56685419056457
0
LWPOLYLINE
5
190
100
AcDbEntity
8
0
100
AcDbPolyline
90
8
70
1
43
0.0
10
-29.873980644749235
20
-74.366854190564567
42
-0.41421356237309159
10
-29.123980644749238
20
-75.116854190564567
10
-29.123980644749253
20
-87.616854190564553
42
-0.41421356237308116
10
-29.873980644749231
20
-88.366854190564524
10
-30.373980644749231
20
-88.36685419056451
42
-0.41421356237308637
10
-31.123980644749235
20
-87.61685419056451
10
-31.123980644749238
20
-75.116854190564553
42
-0.41421356237309503
10
-30.373980644749228
20
-74.366854190564567
0
LWPOLYLINE
5
191
100
AcDbEntity
8
0
100
AcDbPolyline
90
8
70
1
43
0.0
10
232.26351935525017
20
-132.26685419056446
42
-0.41421356237307422
10
233.01351935525017
20
-131.51685419056446
10
245.51351935525014
20
-131.51685419056446
42
-0.41421356237307422
10
246.26351935525011
20
-132.26685419056443
10
246.26351935525014
20
-144.76685419056437
42
-0.41421356237312978
10
245.51351935525017
20
-145.5168541905644
10
233.01351935525014
20
-145.51685419056446
42
-0.4142135623730257
10
232.26351935525008
20
-144.7668541905644
0
LWPOLYLINE
5
192
100
AcDbEntity
8
0
100
AcDbPolyline
90
8
70
1
43
0.0
10
232.26351935525008
20
-94.16685419056455
42
-0.41421356237310197
10
233.01351935525008
20
-93.416854190564536
10
245.51351935525005
20
-93.416854190564536
42
-0.41421356237312279
10
246.26351935525011
20
-94.166854190564521
10
246.26351935525003
20
-106.66685419056451
42
-0.4142135623730534
10
245.51351935524997
20
-107.41685419056449
10
233.01351935525005
20
-107.41685419056449
42
-0.41421356237312978
10
232.26351935525008
20
-106.66685419056451
0
LWPOLYLINE
5
193
100
AcDbEntity
8
0
100
AcDbPolyline
90
8
70
1
43
0.0
10
79.863519355250503
20
-56.066854190564626
42
-0.41421356237307422
10
80.613519355250503
20
-55.316854190564619
10
93.113519355250446
20
-55.316854190564591
42
-0.41421356237308116
10
93.863519355250432
20
-56.066854190564584
10
93.863519355250446
20
-68.566854190564541
42
-0.41421356237311935
10
93.113519355250446
20
-69.316854190564555
10
80.613519355250531
20
-69.316854190564598
42
-0.41421356237309159
10
79.863519355250489
20
-68.566854190564584
0
LWPOLYLINE
5
194
100
AcDbEntity
8
0
100
AcDbPolyline
90
8
70
1
43
0.0
10
-53.486480644749157
20
-56.066854190564612
42
-0.4142135623730846
10
-52.736480644749165
20
-55.316854190564612
10
-40.236480644749207
20
-55.316854190564591
42
-0.41421356237308815
10
-39.486480644749193
20
-56.066854190564598
10
-39.486480644749207
20
-68.566854190564598
42
-0.4142135623730846
10
-40.2364806447492
20
-69.316854190564584
10
-52.736480644749179
20
-69.316854190564584
42
-0.41421356237308116
10
-53.486480644749157
20
-68.566854190564584
0
LWPOLYLINE
5
195
100
AcDbEntity
8
0
100
AcDbPolyline
90
8
70
1
43
0.0
10
175.11351935525028
20
-56.066854190564612
42
-0.41421356237313323
10
175.86351935525033
20
-55.316854190564591
10
188.36351935525022
20
-55.316854190564577
42
-0.41421356237308116
10
189.11351935525022
20
-56.066854190564605
10
189.11351935525011
20
-68.566854190564598
42
-0.41421356237304996
10
188.36351935525022
20
-69.316854190564584
10
175.8635193552503
20
-69.316854190564499
42
-0.41421356237310897
10
175.11351935525028
20
-68.566854190564584
0
LWPOLYLINE
5
196
100
AcDbEntity
8
0
100
AcDbPolyline
90
8
70
1
43
0.0
10
74.063519355250506
20
-55.316854190564591
42
-0.41421356237310197
10
74.81351935525052
20
-56.066854190564584
10
74.81351935525052
20
-68.566854190564584
42
-0.41421356237309159
10
74.063519355250506
20
-69.316854190564584
10
61.563519355250534
20
-69.316854190564555
42
-0.41421356237310197
10
60.813519355250556
20
-68.566854190564584
10
60.813519355250563
20
-56.066854190564598
42
-0.41421356237307771
10
61.563519355250548
20
-55.316854190564598
0
LWPOLYLINE
5
197
100
AcDbEntity
8
0
100
AcDbPolyline
90
8
70
1
43
0.0
10
16.501019355250659
20
-132.26685419056443
42
-0.41421356237308377
10
17.251019355250659
20
-131.51685419056443
10
17.751019355250644
20
-131.51685419056446
42
-0.41421356237311757
10
18.501019355250648
20
-132.26685419056446
10
18.50101935525063
20
-144.76685419056443
42
-0.41421356237308293
10
17.751019355250651
20
-145.5168541905644
10
17.251019355250655
20
-145.51685419056437
42
-0.41421356237308721
10
16.501019355250651
20
-144.76685419056437
0
LWPOLYLINE
5
198
100
AcDbEntity
8
0
100
AcDbPolyline
90
8
70
1
43
0.0
10
-54.323980644749142
20
-75.116854190564538
42
-0.41421356237308116
10
-53.573980644749156
20
-74.366854190564553
10
-53.073980644749163
20
-74.366854190564538
42
-0.41421356237309503
10
-52.323980644749149
20
-75.116854190564538
10
-52.323980644749177
20
-87.616854190564538
42
-0.41421356237309503
10
-53.07398064474917
20
-88.366854190564496
10
-53.573980644749177
20
-88.366854190564482
42
-0.41421356237307422
10
-54.323980644749163
20
-87.616854190564482
0
LWPOLYLINE
5
199
100
AcDbEntity
8
0
100
AcDbPolyline
90
8
70
1
43
0.0
10
-53.073980644749156
20
-131.5168541905644
42
-0.41421356237309159
10
-52.323980644749156
20
-132.26685419056443
10
-52.323980644749156
20
-144.7668541905644
42
-0.41421356237309159
10
-53.073980644749163
20
-145.51685419056437
10
-53.573980644749149
20
-145.5168541905644
42
-0.41421356237311585
10
-54.323980644749177
20
-144.7668541905644
10
-54.323980644749163
20
-132.2668541905644
42
-0.41421356237308815
10
-53.573980644749149
20
-131.5168541905644
0
LWPOLYLINE
5
200
100
AcDbEntity
8
0
100
AcDbPolyline
90
8
70
1
43
0.0
10
32.463519355250618
20
-129.51685419056446
42
-0.41421356237311063
10
33.213519355250625
20
-130.26685419056443
10
33.213519355250646
20
-143.7668541905644
42
-0.41421356237309681
10
32.463519355250632
20
-144.51685419056443
10
22.207269355250641
20
-144.51685419056443
42
-0.4142135623730846
10
21.457269355250634
20
-143.7668541905644
10
21.457269355250659
20
-130.26685419056446
42
-0.41421356237307771
10
22.207269355250627
20
-129.51685419056449
0
LWPOLYLINE
5
201
100
AcDbEntity
8
0
100
AcDbPolyline
90
8
70
1
43
0.0
10
155.22601935525032
20
-132.26685419056446
42
-0.41421356237308116
10
155.97601935525032
20
-131.51685419056446
10
156.47601935525026
20
-131.51685419056443
42
-0.41421356237308815
10
157.22601935525032
20
-132.26685419056443
10
157.22601935525029
20
-144.7668541905644
42
-0.41421356237307422
10
156.47601935525029
20
-145.51685419056437
10
155.97601935525032
20
-145.51685419056443
42
-0.41421356237310897
10
155.22601935525029
20
-144.7668541905644
0
LWPOLYLINE
5
202
100
AcDbEntity
8
0
100
AcDbPolyline
90
8
70
1
43
0.0
10
205.86976935525024
20
-112.46685419056448
42
-0.41421356237303258
10
206.61976935525018
20
-113.21685419056449
10
206.61976935525024
20
-125.71685419056448
42
-0.41421356237310897
10
205.86976935525024
20
-126.46685419056445
10
205.36976935525018
20
-126.46685419056445
42
-0.41421356237309503
10
204.61976935525018
20
-125.71685419056445
10
204.61976935525016
20
-113.21685419056445
42
-0.41421356237306034
10
205.36976935525016
20
-112.46685419056448
0
LWPOLYLINE
5
203
100
AcDbEntity
8
0
100
AcDbPolyline
90
8
70
1
43
0.0
10
-6.6989806447493017
20
-132.26685419056446
42
-0.41421356237309503
10
-5.948980644749291
20
-131.51685419056443
10
-5.4489806447492999
20
-131.51685419056446
42
-0.41421356237311324
10
-4.6989806447492919
20
-132.26685419056446
10
-4.698980644749307
20
-144.7668541905644
42
-0.41421356237310025
10
-5.4489806447492946
20
-145.51685419056443
10
-5.948980644749291
20
-145.51685419056443
42
-0.41421356237307383
10
-6.6989806447492857
20
-144.7668541905644
0
LWPOLYLINE
5
204
100
AcDbEntity
8
0
100
AcDbPolyline
90
8
70
1
43
0.0
10
117.96351935525033
20
-56.066854190564605
42
-0.41421356237310542
10
118.71351935525034
20
-55.316854190564598
10
131.2135193552503
20
-55.316854190564591
42
-0.41421356237309159
10
131.96351935525033
20
-56.066854190564598
10
131.96351935525036
20
-68.566854190564555
42
-0.41421356237311241
10
131.21351935525033
20
-69.316854190564555
10
118.71351935525036
20
-69.316854190564598
42
-0.41421356237309503
10
117.96351935525036
20
-68.566854190564584
0
LWPOLYLINE
5
205
100
AcDbEntity
8
0
100
AcDbPolyline
90
8
70
1
43
0.0
10
-48.723980644749147
20
-75.116854190564538
42
-0.41421356237308116
10
-47.973980644749162
20
-74.366854190564553
10
-35.47398064474919
20
-74.366854190564567
42
-0.41421356237307771
10
-34.723980644749226
20
-75.116854190564538
10
-34.723980644749219
20
-87.616854190564538
42
-0.41421356237308293
10
-35.473980644749211
20
-88.366854190564524
10
-47.973980644749197
20
-88.366854190564496
42
-0.41421356237309503
10
-48.72398064474919
20
-87.616854190564496
0
LWPOLYLINE
5
206
100
AcDbEntity
8
0
100
AcDbPolyline
90
8
70
1
43
0.0
10
-31.123980644749235
20
-132.26685419056446
42
-0.41421356237310542
10
-30.373980644749231
20
-131.5168541905644
10
-29.873980644749235
20
-131.51685419056443
42
-0.41421356237308637
10
-29.123980644749231
20
-132.26685419056443
10
-29.123980644749231
20
-144.76685419056437
42
-0.4142135623730846
10
-29.873980644749235
20
-145.51685419056437
10
-30.373980644749231
20
-145.51685419056437
42
-0.41421356237312457
10
-31.123980644749231
20
-144.7668541905644
0
LWPOLYLINE
5
207
100
AcDbEntity
8
0
100
AcDbPolyline
90
8
70
1
43
0.0
10
156.06351935525026
20
-56.066854190564605
42
-0.41421356237308815
10
156.81351935525024
20
-55.316854190564598
10
169.31351935525021
20
-55.316854190564612
42
-0.41421356237310897
10
170.06351935525026
20
-56.066854190564605
10
170.06351935525021
20
-68.566854190564584
42
-0.41421356237309159
10
169.31351935525021
20
-69.31685419056457
10
156.81351935525029
20
-69.31685419056457
42
-0.41421356237310542
10
156.06351935525029
20
-68.566854190564584
0
LWPOLYLINE
5
208
100
AcDbEntity
8
0
100
AcDbPolyline
90
8
70
1
43
0.0
10
232.26351935525008
20
-113.21685419056448
42
-0.4142135623730534
10
233.01351935525008
20
-112.46685419056449
10
245.51351935525005
20
-112.46685419056449
42
-0.41421356237309503
10
246.26351935525005
20
-113.21685419056449
10
246.26351935525008
20
-125.71685419056448
42
-0.4142135623730534
10
245.51351935525008
20
-126.46685419056445
10
233.01351935525014
20
-126.46685419056446
42
-0.41421356237311585
10
232.26351935525008
20
-125.71685419056445
0
LWPOLYLINE
5
209
100
AcDbEntity
8
0
100
AcDbPolyline
90
8
70
1
43
0.0
10
178.42601935525036
20
-132.26685419056446
42
-0.41421356237314361
10
179.1760193552503
20
-131.51685419056446
10
179.67601935525025
20
-131.5168541905644
42
-0.41421356237307422
10
180.42601935525028
20
-132.26685419056443
10
180.42601935525028
20
-144.7668541905644
42
-0.41421356237306733
10
179.67601935525025
20
-145.5168541905644
10
179.17601935525022
20
-145.51685419056446
42
-0.4142135623730257
10
178.42601935525025
20
-144.7668541905644
0
LWPOLYLINE
5
210
100
AcDbEntity
8
0
100
AcDbPolyline
90
8
70
1
43
0.0
10
137.01351935525031
20
-56.066854190564598
42
-0.41421356237309159
10
137.76351935525034
20
-55.316854190564598
10
150.26351935525031
20
-55.316854190564591
42
-0.41421356237308116
10
151.01351935525028
20
-56.066854190564584
10
151.01351935525034
20
-68.566854190564584
42
-0.41421356237312279
10
150.26351935525031
20
-69.316854190564584
10
137.76351935525034
20
-69.316854190564584
42
-0.41421356237311585
10
137.01351935525034
20
-68.566854190564584
0
LWPOLYLINE
5
211
100
AcDbEntity
8
0
100
AcDbPolyline
90
8
70
1
43
0.0
10
232.26351935525003
20
-56.066854190564598
42
-0.41421356237307078
10
233.01351935525003
20
-55.316854190564598
10
245.51351935524997
20
-55.316854190564612
42
-0.41421356237311585
10
246.26351935525005
20
-56.066854190564584
10
246.26351935525008
20
-68.566854190564584
42
-0.41421356237308116
10
245.51351935525008
20
-69.316854190564598
10
233.01351935525017
20
-69.31685419056457
42
-0.41421356237313323
10
232.26351935525003
20
-68.566854190564555
0
LWPOLYLINE
5
212
100
AcDbEntity
8
0
100
AcDbPolyline
90
8
70
1
43
0.0
10
-34.436480644749231
20
-56.066854190564598
42
-0.4142135623730846
10
-33.686480644749231
20
-55.316854190564598
10
-21.186480644749256
20
-55.316854190564598
42
-0.4142135623730846
10
-20.436480644749256
20
-56.066854190564598
10
-20.436480644749246
20
-68.566854190564584
42
-0.4142135623730846
10
-21.186480644749256
20
-69.316854190564584
10
-33.686480644749231
20
-69.31685419056457
42
-0.41421356237310719
10
-34.436480644749224
20
-68.566854190564555
0
LWPOLYLINE
5
213
100
AcDbEntity
8
0
100
AcDbPolyline
90
8
70
1
43
0.0
10
41.763519355250608
20
-56.066854190564612
42
-0.4142135623730846
10
42.513519355250594
20
-55.316854190564612
10
55.013519355250551
20
-55.316854190564584
42
-0.41421356237309853
10
55.763519355250573
20
-56.066854190564598
10
55.763519355250551
20
-68.566854190564555
42
-0.41421356237310897
10
55.013519355250551
20
-69.316854190564598
10
42.51351935525058
20
-69.316854190564584
42
-0.41421356237307771
10
41.763519355250587
20
-68.566854190564584
0
LWPOLYLINE
5
214
100
AcDbEntity
8
0
100
AcDbPolyline
90
8
70
1
43
0.0
10
213.21351935525024
20
-132.26685419056446
42
-0.41421356237307422
10
213.96351935525021
20
-131.51685419056443
10
226.46351935525016
20
-131.51685419056443
42
-0.41421356237312279
10
227.21351935525018
20
-132.26685419056446
10
227.21351935525021
20
-144.76685419056443
42
-0.41421356237308815
10
226.46351935525018
20
-145.51685419056443
10
213.96351935525013
20
-145.51685419056435
42
-0.41421356237306733
10
213.21351935525024
20
-144.76685419056437
0
LWPOLYLINE
5
215
100
AcDbEntity
8
0
100
AcDbPolyline
90
8
70
1
43
0.0
10
226.46351935525013
20
-112.46685419056446
42
-0.41421356237308815
10
227.2135193552501
20
-113.2168541905645
10
227.2135193552501
20
-125.71685419056448
42
-0.41421356237309503
10
226.46351935525013
20
-126.46685419056446
10
213.96351935525018
20
-126.46685419056442
42
-0.41421356237309503
10
213.21351935525018
20
-125.71685419056443
10
213.21351935525016
20
-113.21685419056445
42
-0.41421356237304652
10
213.96351935525016
20
-112.46685419056449
0
LWPOLYLINE
5
216
100
AcDbEntity
8
0
100
AcDbPolyline
90
8
70
1
43
0.0
10
187.01976935525025
20
-113.21685419056448
42
-0.41421356237312279
10
187.76976935525025
20
-112.46685419056446
10
200.26976935525022
20
-112.46685419056449
42
-0.41421356237303958
10
201.01976935525016
20
-113.21685419056445
10
201.01976935525022
20
-125.71685419056445
42
-0.41421356237306034
10
200.26976935525022
20
-126.4668541905644
10
187.76976935525025
20
-126.46685419056442
42
-0.41421356237306733
10
187.01976935525025
20
-125.71685419056443
0
LWPOLYLINE
5
217
100
AcDbEntity
8
0
100
AcDbPolyline
90
8
70
1
43
0.0
10
194.16351935525023
20
-132.26685419056446
42
-0.41421356237307422
10
194.9135193552502
20
-131.51685419056446
10
207.41351935525012
20
-131.5168541905644
42
-0.41421356237311585
10
208.16351935525023
20
-132.26685419056443
10
208.16351935525017
20
-144.7668541905644
42
-0.41421356237308116
10
207.41351935525017
20
-145.51685419056443
10
194.91351935525017
20
-145.51685419056437
42
-0.41421356237306733
10
194.16351935525029
20
-144.7668541905644
0
LWPOLYLINE
5
218
100
AcDbEntity
8
0
100
AcDbPolyline
90
8
70
1
43
0.0
10
-51.192730644749162
20
-107.41685419056452
42
-0.41421356237306733
10
-51.942730644749162
20
-106.66685419056455
10
-51.942730644749176
20
-94.166854190564564
42
-0.41421356237311935
10
-51.192730644749176
20
-93.416854190564536
10
-33.092730644749231
20
-93.416854190564536
42
-0.41421356237307771
10
-32.342730644749224
20
-94.166854190564521
10
-32.342730644749231
20
-106.66685419056448
42
-0.41421356237310897
10
-33.092730644749224
20
-107.41685419056451
0
LWPOLYLINE
5
219
100
AcDbEntity
8
0
100
AcDbPolyline
90
8
70
1
43
0.0
10
-15.386480644749266
20
-56.066854190564605
42
-0.41421356237309243
10
-14.636480644749279
20
-55.316854190564591
10
-2.1364806447493128
20
-55.316854190564584
42
-0.41421356237309009
10
-1.3864806447493048
20
-56.066854190564584
10
-1.3864806447493061
20
-68.566854190564555
42
-0.4142135623730866
10
-2.1364806447493123
20
-69.316854190564555
10
-14.636480644749275
20
-69.316854190564584
42
-0.41421356237308116
10
-15.38648064474927
20
-68.566854190564584
0
LWPOLYLINE
5
220
100
AcDbEntity
8
0
100
AcDbPolyline
90
8
70
1
43
0.0
10
182.66976935525031
20
-112.46685419056448
42
-0.41421356237303258
10
183.41976935525025
20
-113.21685419056449
10
183.41976935525028
20
-125.71685419056443
42
-0.41421356237308815
10
182.66976935525031
20
-126.4668541905644
10
182.16976935525025
20
-126.46685419056446
42
-0.41421356237309503
10
181.41976935525025
20
-125.71685419056448
10
181.41976935525022
20
-113.21685419056449
42
-0.41421356237306733
10
182.16976935525022
20
-112.4668541905645
0
LWPOLYLINE
5
221
100
AcDbEntity
8
0
100
AcDbPolyline
90
8
70
1
43
0.0
10
-28.742730644749233
20
-94.166854190564521
42
-0.41421356237310025
10
-27.992730644749244
20
-93.416854190564521
10
-27.492730644749237
20
-93.416854190564536
42
-0.41421356237311063
10
-26.742730644749237
20
-94.166854190564521
10
-26.74273064474923
20
-106.66685419056449
42
-0.4142135623730846
10
-27.492730644749251
20
-107.41685419056449
10
-27.992730644749237
20
-107.41685419056451
42
-0.41421356237309503
10
-28.74273064474923
20
-106.66685419056451
0
CIRCLE
5
222
100
AcDbEntity
8
0
100
AcDbCircle
10
249.57773291765727
20
-148.8334930244705
30
0
40
0.92999999999999972
210
1.0565916318758533e-30
220
-1.3877787807814457e-17
230
1
0
LWPOLYLINE
5
223
100
AcDbEntity
8
0
100
AcDbPolyline
90
8
70
1
43
0.0
10
219.83851935524331
20
-70.816854190564499
10
225.33851935524336
20
-70.816854190564499
42
0.41421356237309853
10
226.08851935524336
20
-70.066854190564499
10
226.08851935524336
20
-56.566854190564506
42
0.41421356237309503
10
225.33851935524336
20
-55.81685419056452
10
219.83851935524314
20
-55.816854190564428
42
0.41421356237310197
10
219.08851935524314
20
-56.566854190564449
10
219.08851935524331
20
-70.066854190564541
42
0.41421356237309159
0
LWPOLYLINE
5
224
100
AcDbEntity
8
0
100
AcDbPolyline
90
8
70
1
43
0.0
10
208.33226935524345
20
-76.241854190564538
10
208.33226935524345
20
-81.741854190564538
42
0.41421356237308815
10
209.0822693552434
20
-82.491854190564524
10
222.5822693552434
20
-82.491854190564538
42
0.41421356237310197
10
223.33226935524334
20
-81.741854190564538
10
223.33226935524337
20
-76.241854190564524
42
0.41421356237309503
10
222.58226935524337
20
-75.491854190564524
10
209.08226935524337
20
-75.491854190564538
42
0.41421356237309503
0
LWPOLYLINE
5
225
100
AcDbEntity
8
0
100
AcDbPolyline
90
8
70
1
43
0.0
10
224.8322693552434
20
-97.141854190564544
10
224.8322693552434
20
-84.641854190564572
42
0.41421356237309503
10
224.0822693552434
20
-83.891854190564572
10
211.58226935524337
20
-83.891854190564572
42
0.41421356237310197
10
210.83226935524334
20
-84.641854190564572
10
210.83226935524337
20
-97.141854190564544
42
0.41421356237309503
10
211.58226935524337
20
-97.89185419056453
10
224.08226935524337
20
-97.891854190564516
42
0.41421356237308815
0
LWPOLYLINE
5
226
100
AcDbEntity
8
0
100
AcDbPolyline
90
8
70
1
43
0.0
10
201.53851935524335
20
-55.816854190564513
10
196.03851935524335
20
-55.816854190564499
42
0.41421356237309159
10
195.28851935524335
20
-56.566854190564499
10
195.28851935524335
20
-70.066854190564527
42
0.41421356237309503
10
196.03851935524335
20
-70.816854190564527
10
201.53851935524361
20
-70.816854190564655
42
0.41421356237310197
10
202.28851935524361
20
-70.066854190564641
10
202.28851935524335
20
-56.566854190564506
42
0.41421356237308815
0
LWPOLYLINE
5
227
100
AcDbEntity
8
0
100
AcDbPolyline
90
8
70
1
43
0.0
10
223.3322693552434
20
-105.54185419056454
10
223.33226935524345
20
-100.04185419056452
42
0.41421356237309503
10
222.5822693552434
20
-99.291854190564521
10
209.08226935524337
20
-99.291854190564536
42
0.41421356237309503
10
208.3322693552434
20
-100.04185419056454
10
208.33226935524334
20
-105.54185419056452
42
0.41421356237309503
10
209.08226935524334
20
-106.29185419056452
10
222.5822693552434
20
-106.29185419056454
42
0.41421356237309503
0
LWPOLYLINE
5
228
100
AcDbEntity
8
0
100
AcDbPolyline
90
8
70
1
43
0.0
10
204.43851935524333
20
-69.316854190564513
10
216.93851935524333
20
-69.316854190564527
42
0.41421356237308815
10
217.68851935524327
20
-68.566854190564555
10
217.68851935524333
20
-56.066854190564555
42
0.41421356237309503
10
216.93851935524333
20
-55.316854190564541
10
204.43851935524336
20
-55.31685419056452
42
0.41421356237308815
10
203.68851935524336
20
-56.066854190564506
10
203.68851935524333
20
-68.566854190564527
42
0.41421356237309503
0
LWPOLYLINE
5
229
100
AcDbEntity
8
0
100
AcDbPolyline
90
8
70
1
43
0.0
10
-37.105230644749305
20
-125.71685419056449
10
-37.105230644749305
20
-113.21685419056445
42
0.41421356237309331
10
-37.855230644749291
20
-112.46685419056446
10
-50.355230644749298
20
-112.46685419056448
42
0.41421356237307771
10
-51.105230644749312
20
-113.21685419056443
10
-51.105230644749298
20
-125.7168541905645
42
0.41421356237309503
10
-50.355230644749298
20
-126.46685419056448
10
-37.855230644749305
20
-126.46685419056448
42
0.41421356237309681
0
LWPOLYLINE
5
230
100
AcDbEntity
8
0
100
AcDbPolyline
90
8
70
1
43
0.0
10
-11.661480644749281
20
-131.51685419056446
10
-26.542730644749234
20
-131.51685419056446
42
0.41421356237307255
10
-27.292730644749238
20
-132.26685419056446
10
-27.292730644749227
20
-144.7668541905644
42
0.41421356237307599
10
-26.542730644749231
20
-145.51685419056443
10
-11.661480644749274
20
-145.5168541905644
42
0.41421356237309764
10
-10.911480644749286
20
-144.76685419056443
10
-10.911480644749281
20
-132.26685419056446
42
0.41421356237311846
0
ENDSEC
0
SECTION
2
OBJECTS
0
DICTIONARY
5
C
100
AcDbDictionary
3
ACAD_GROUP
350
D
3
ACAD_MLINESTYLE
350
17
0
DICTIONARY
5
D
100
AcDbDictionary
0
DICTIONARY
5
1A
330
C
100
AcDbDictionary
0
DICTIONARY
5
17
100
AcDbDictionary
0
ENDSEC
0
EOF
