0
SECTION
2
HEADER
9
$INSUNITS
70
4
9
$ACADVER
1
AC1014
9
$HANDSEED
5
FFFF
0
ENDSEC
0
SECTION
2
TABLES
0
TABLE
2
VPORT
5
8
100
AcDbSymbolTable
0
ENDTAB
0
TABLE
2
LTYPE
5
5
100
AcDbSymbolTable
0
LTYPE
5
14
100
AcDbSymbolTableRecord
100
AcDbLinetypeTableRecord
2
BYBLOCK
70
0
0
LTYPE
5
15
100
AcDbSymbolTableRecord
100
AcDbLinetypeTableRecord
2
BYLAYER
70
0
0
ENDTAB
0
TABLE
2
LAYER
5
2
100
AcDbSymbolTable
70
2
0
LAYER
5
50
100
AcDbSymbolTableRecord
100
AcDbLayerTableRecord
2
0
70
0
6
CONTINUOUS
0
ENDTAB
0
TABLE
2
STYLE
5
3
100
AcDbSymbolTable
70
1
0
STYLE
5
11
100
AcDbSymbolTableRecord
100
AcDbTextStyleTableRecord
2
STANDARD
70
0
0
ENDTAB
0
TABLE
2
VIEW
5
6
100
AcDbSymbolTable
70
0
0
ENDTAB
0
TABLE
2
UCS
5
7
100
AcDbSymbolTable
70
0
0
ENDTAB
0
TABLE
2
APPID
5
9
100
AcDbSymbolTable
70
2
0
APPID
5
12
100
AcDbSymbolTableRecord
100
AcDbRegAppTableRecord
2
ACAD
70
0
0
ENDTAB
0
TABLE
2
DIMSTYLE
5
A
100
AcDbSymbolTable
70
1
0
ENDTAB
0
TABLE
2
BLOCK_RECORD
5
1
100
AcDbSymbolTable
70
1
0
BLOCK_RECORD
5
1F
100
AcDbSymbolTableRecord
100
AcDbBlockTableRecord
2
*MODEL_SPACE
0
BLOCK_RECORD
5
1B
100
AcDbSymbolTableRecord
100
AcDbBlockTableRecord
2
*PAPER_SPACE
0
ENDTAB
0
ENDSEC
0
SECTION
2
BLOCKS
0
BLOCK
5
20
100
AcDbEntity
100
AcDbBlockBegin
2
*MODEL_SPACE
0
ENDBLK
5
21
100
AcDbEntity
100
AcDbBlockEnd
0
BLOCK
5
1C
100
AcDbEntity
100
AcDbBlockBegin
2
*PAPER_SPACE
0
ENDBLK
5
1D
100
AcDbEntity
100
AcDbBlockEnd
0
ENDSEC
0
SECTION
2
ENTITIES
0
LWPOLYLINE
5
100
100
AcDbEntity
8
0
100
AcDbPolyline
90
8
70
1
43
0.0
10
-37.105230644749305
20
-125.71685419056449
10
-37.105230644749305
20
-113.21685419056445
42
0.41421356237309331
10
-37.855230644749291
20
-112.46685419056446
10
-50.355230644749298
20
-112.46685419056448
42
0.41421356237307771
10
-51.105230644749312
20
-113.21685419056443
10
-51.105230644749298
20
-125.7168541905645
42
0.41421356237309503
10
-50.355230644749298
20
-126.46685419056448
10
-37.855230644749305
20
-126.46685419056448
42
0.41421356237309681
0
LWPOLYLINE
5
101
100
AcDbEntity
8
0
100
AcDbPolyline
90
8
70
1
43
0.0
10
-15.673980644749296
20
-125.71685419056452
10
-15.673980644749296
20
-113.21685419056449
42
0.41421356237309936
10
-16.423980644749289
20
-112.46685419056445
10
-28.923980644749289
20
-112.46685419056448
42
0.41421356237308982
10
-29.6739806447493
20
-113.21685419056445
10
-29.673980644749296
20
-125.7168541905645
42
0.41421356237309159
10
-28.923980644749303
20
-126.4668541905645
10
-16.423980644749289
20
-126.46685419056448
42
0.41421356237308032
0
LWPOLYLINE
5
102
100
AcDbEntity
8
0
100
AcDbPolyline
90
8
70
1
43
0.0
10
204.43851935524333
20
-69.316854190564513
10
216.93851935524333
20
-69.316854190564527
42
0.41421356237308815
10
217.68851935524327
20
-68.566854190564555
10
217.68851935524333
20
-56.066854190564555
42
0.41421356237309503
10
216.93851935524333
20
-55.316854190564541
10
204.43851935524336
20
-55.31685419056452
42
0.41421356237308815
10
203.68851935524336
20
-56.066854190564506
10
203.68851935524333
20
-68.566854190564527
42
0.41421356237309503
0
LWPOLYLINE
5
103
100
AcDbEntity
8
0
100
AcDbPolyline
90
8
70
1
43
0.0
10
203.40101935524333
20
-106.66785283860946
10
203.40101935524333
20
-94.167852838609477
42
0.41421356237309503
10
202.65101935524339
20
-93.417852838609491
10
190.15101935524336
20
-93.417852838609463
42
0.41421356237309503
10
189.40101935524336
20
-94.167852838609463
10
189.40101935524336
20
-106.66785283860946
42
0.41421356237309503
10
190.15101935524336
20
-107.41785283860943
10
202.65101935524336
20
-107.41785283860943
42
0.41421356237308815
0
LWPOLYLINE
5
104
100
AcDbEntity
8
0
100
AcDbPolyline
90
8
70
1
43
0.0
10
223.3322693552434
20
-105.54185419056454
10
223.33226935524345
20
-100.04185419056452
42
0.41421356237309503
10
222.5822693552434
20
-99.291854190564521
10
209.08226935524337
20
-99.291854190564536
42
0.41421356237309503
10
208.3322693552434
20
-100.04185419056454
10
208.33226935524334
20
-105.54185419056452
42
0.41421356237309503
10
209.08226935524334
20
-106.29185419056452
10
222.5822693552434
20
-106.29185419056454
42
0.41421356237309503
0
LWPOLYLINE
5
105
100
AcDbEntity
8
0
100
AcDbPolyline
90
8
70
1
43
0.0
10
201.53851935524335
20
-55.816854190564513
10
196.03851935524335
20
-55.816854190564499
42
0.41421356237309159
10
195.28851935524335
20
-56.566854190564499
10
195.28851935524335
20
-70.066854190564527
42
0.41421356237309503
10
196.03851935524335
20
-70.816854190564527
10
201.53851935524361
20
-70.816854190564655
42
0.41421356237310197
10
202.28851935524361
20
-70.066854190564641
10
202.28851935524335
20
-56.566854190564506
42
0.41421356237308815
0
LWPOLYLINE
5
106
100
AcDbEntity
8
0
100
AcDbPolyline
90
8
70
1
43
0.0
10
224.8322693552434
20
-97.141854190564544
10
224.8322693552434
20
-84.641854190564572
42
0.41421356237309503
10
224.0822693552434
20
-83.891854190564572
10
211.58226935524337
20
-83.891854190564572
42
0.41421356237310197
10
210.83226935524334
20
-84.641854190564572
10
210.83226935524337
20
-97.141854190564544
42
0.41421356237309503
10
211.58226935524337
20
-97.89185419056453
10
224.08226935524337
20
-97.891854190564516
42
0.41421356237308815
0
LWPOLYLINE
5
107
100
AcDbEntity
8
0
100
AcDbPolyline
90
8
70
1
43
0.0
10
208.33226935524345
20
-76.241854190564538
10
208.33226935524345
20
-81.741854190564538
42
0.41421356237308815
10
209.0822693552434
20
-82.491854190564524
10
222.5822693552434
20
-82.491854190564538
42
0.41421356237310197
10
223.33226935524334
20
-81.741854190564538
10
223.33226935524337
20
-76.241854190564524
42
0.41421356237309503
10
222.58226935524337
20
-75.491854190564524
10
209.08226935524337
20
-75.491854190564538
42
0.41421356237309503
0
LWPOLYLINE
5
108
100
AcDbEntity
8
0
100
AcDbPolyline
90
8
70
1
43
0.0
10
219.83851935524331
20
-70.816854190564499
10
225.33851935524336
20
-70.816854190564499
42
0.41421356237309853
10
226.08851935524336
20
-70.066854190564499
10
226.08851935524336
20
-56.566854190564506
42
0.41421356237309503
10
225.33851935524336
20
-55.81685419056452
10
219.83851935524314
20
-55.816854190564428
42
0.41421356237310197
10
219.08851935524314
20
-56.566854190564449
10
219.08851935524331
20
-70.066854190564541
42
0.41421356237309159
0
LWPOLYLINE
5
109
100
AcDbEntity
8
0
100
AcDbPolyline
90
8
70
1
43
0.0
10
-5.8614806447492924
20
-75.116854190564538
42
-0.41421356237308682
10
-5.1114806447493031
20
-74.366854190564567
10
7.3885193552506649
20
-74.366854190564524
42
-0.41421356237309853
10
8.1385193552506703
20
-75.116854190564538
10
8.1385193552506685
20
-87.616854190564496
42
-0.41421356237310025
10
7.3885193552506623
20
-88.366854190564524
10
-5.1114806447493057
20
-88.36685419056451
42
-0.41421356237309115
10
-5.8614806447492898
20
-87.61685419056451
0
LWPOLYLINE
5
110
100
AcDbEntity
8
0
100
AcDbPolyline
90
8
70
1
43
0.0
10
107.40101935525036
20
-93.416854190564536
42
-0.41421356237310197
10
108.15101935525037
20
-94.166854190564521
10
108.15101935525034
20
-106.66685419056452
42
-0.41421356237310897
10
107.40101935525036
20
-107.41685419056451
10
94.901019355250398
20
-107.41685419056446
42
-0.41421356237308116
10
94.151019355250412
20
-106.66685419056448
10
94.151019355250384
20
-94.166854190564507
42
-0.41421356237307422
10
94.901019355250412
20
-93.416854190564493
0
LWPOLYLINE
5
111
100
AcDbEntity
8
0
100
AcDbPolyline
90
8
70
1
43
0.0
10
132.25101935525035
20
-94.166854190564564
42
-0.41421356237312978
10
133.00101935525035
20
-93.416854190564536
10
145.50101935525032
20
-93.416854190564536
42
-0.41421356237308116
10
146.25101935525032
20
-94.166854190564521
10
146.25101935525026
20
-106.66685419056451
42
-0.41421356237307422
10
145.50101935525026
20
-107.41685419056446
10
133.00101935525032
20
-107.41685419056455
42
-0.41421356237310897
10
132.25101935525029
20
-106.66685419056452
0
LWPOLYLINE
5
112
100
AcDbEntity
8
0
100
AcDbPolyline
90
8
70
1
43
0.0
10
-11.661480644749284
20
-74.366854190564553
42
-0.41421356237308982
10
-10.911480644749281
20
-75.116854190564553
10
-10.911480644749288
20
-87.61685419056451
42
-0.41421356237308116
10
-11.661480644749281
20
-88.366854190564482
10
-24.161480644749243
20
-88.36685419056451
42
-0.41421356237308637
10
-24.911480644749243
20
-87.61685419056451
10
-24.91148064474924
20
-75.116854190564524
42
-0.41421356237310542
10
-24.16148064474924
20
-74.366854190564538
0
LWPOLYLINE
5
113
100
AcDbEntity
8
0
100
AcDbPolyline
90
8
70
1
43
0.0
10
113.20101935525034
20
-94.166854190564507
42
-0.41421356237306733
10
113.95101935525035
20
-93.416854190564536
10
126.45101935525032
20
-93.416854190564536
42
-0.41421356237310197
10
127.20101935525037
20
-94.166854190564521
10
127.20101935525028
20
-106.66685419056448
42
-0.41421356237312978
10
126.45101935525031
20
-107.41685419056451
10
113.95101935525034
20
-107.41685419056446
42
-0.41421356237311585
10
113.20101935525037
20
-106.66685419056448
0
LWPOLYLINE
5
114
100
AcDbEntity
8
0
100
AcDbPolyline
90
8
70
1
43
0.0
10
3.6635193552506831
20
-56.066854190564605
42
-0.41421356237308771
10
4.4135193552506742
20
-55.316854190564612
10
16.913519355250642
20
-55.316854190564641
42
-0.41421356237307771
10
17.663519355250642
20
-56.066854190564584
10
17.663519355250639
20
-68.566854190564584
42
-0.4142135623730942
10
16.913519355250639
20
-69.316854190564584
10
4.4135193552506795
20
-69.31685419056457
42
-0.41421356237311452
10
3.6635193552506844
20
-68.56685419056457
0
LWPOLYLINE
5
115
100
AcDbEntity
8
0
100
AcDbPolyline
90
8
70
1
43
0.0
10
22.713519355250639
20
-56.066854190564612
42
-0.41421356237311063
10
23.463519355250625
20
-55.316854190564591
10
35.96351935525059
20
-55.316854190564591
42
-0.41421356237309331
10
36.713519355250597
20
-56.066854190564605
10
36.713519355250583
20
-68.566854190564555
42
-0.41421356237310375
10
35.963519355250583
20
-69.31685419056457
10
23.463519355250625
20
-69.316854190564584
42
-0.41421356237308637
10
22.713519355250611
20
-68.566854190564598
0
LWPOLYLINE
5
116
100
AcDbEntity
8
0
100
AcDbPolyline
90
8
70
1
43
0.0
10
46.52601935525059
20
-113.21685419056448
42
-0.41421356237308116
10
47.276019355250583
20
-112.46685419056448
10
59.776019355250547
20
-112.46685419056446
42
-0.41421356237310897
10
60.526019355250554
20
-113.2168541905645
10
60.526019355250504
20
-125.71685419056443
42
-0.41421356237307078
10
59.77601935525054
20
-126.4668541905644
10
47.276019355250568
20
-126.46685419056442
42
-0.41421356237310542
10
46.526019355250554
20
-125.71685419056443
0
LWPOLYLINE
5
117
100
AcDbEntity
8
0
100
AcDbPolyline
90
8
70
1
43
0.0
10
2.6260193552506896
20
-112.46685419056448
42
-0.41421356237311868
10
3.3760193552506985
20
-113.21685419056449
10
3.3760193552506945
20
-125.71685419056448
42
-0.4142135623730836
10
2.626019355250695
20
-126.46685419056446
10
-9.8739806447492739
20
-126.46685419056442
42
-0.4142135623730846
10
-10.623980644749278
20
-125.71685419056443
10
-10.623980644749276
20
-113.21685419056448
42
-0.41421356237307599
10
-9.8739806447492775
20
-112.46685419056449
0
LWPOLYLINE
5
118
100
AcDbEntity
8
0
100
AcDbPolyline
90
8
70
1
43
0.0
10
56.051019355250531
20
-94.166854190564521
42
-0.4142135623730846
10
56.801019355250531
20
-93.416854190564536
10
69.301019355250503
20
-93.416854190564578
42
-0.41421356237311935
10
70.051019355250503
20
-94.16685419056455
10
70.051019355250517
20
-106.66685419056451
42
-0.41421356237308815
10
69.30101935525056
20
-107.41685419056449
10
56.801019355250588
20
-107.41685419056449
42
-0.41421356237310197
10
56.051019355250567
20
-106.66685419056449
0
LWPOLYLINE
5
119
100
AcDbEntity
8
0
100
AcDbPolyline
90
8
70
1
43
0.0
10
-51.192730644749162
20
-107.41685419056452
42
-0.41421356237306733
10
-51.942730644749162
20
-106.66685419056455
10
-51.942730644749176
20
-94.166854190564564
42
-0.41421356237311935
10
-51.192730644749176
20
-93.416854190564536
10
-33.092730644749231
20
-93.416854190564536
42
-0.41421356237307771
10
-32.342730644749224
20
-94.166854190564521
10
-32.342730644749231
20
-106.66685419056448
42
-0.41421356237310897
10
-33.092730644749224
20
-107.41685419056451
0
LWPOLYLINE
5
120
100
AcDbEntity
8
0
100
AcDbPolyline
90
8
70
1
43
0.0
10
32.463519355250618
20
-129.51685419056446
42
-0.41421356237311063
10
33.213519355250625
20
-130.26685419056443
10
33.213519355250646
20
-143.7668541905644
42
-0.41421356237309681
10
32.463519355250632
20
-144.51685419056443
10
22.207269355250641
20
-144.51685419056443
42
-0.4142135623730846
10
21.457269355250634
20
-143.7668541905644
10
21.457269355250659
20
-130.26685419056446
42
-0.41421356237307771
10
22.207269355250627
20
-129.51685419056449
0
LWPOLYLINE
5
121
100
AcDbEntity
8
0
100
AcDbPolyline
90
8
70
1
43
0.0
10
-1.0989806447493071
20
-94.166854190564507
42
-0.41421356237308588
10
-0.34898064474930157
20
-93.416854190564521
10
12.151019355250664
20
-93.416854190564536
42
-0.41421356237310719
10
12.901019355250662
20
-94.166854190564521
10
12.901019355250643
20
-106.66685419056451
42
-0.41421356237308377
10
12.151019355250661
20
-107.41685419056449
10
-0.34898064474930601
20
-107.41685419056449
42
-0.41421356237309648
10
-1.0989806447493076
20
-106.66685419056449
0
LWPOLYLINE
5
122
100
AcDbEntity
8
0
100
AcDbPolyline
90
8
70
1
43
0.0
10
122.72601935525039
20
-113.2168541905645
42
-0.41421356237308116
10
123.47601935525037
20
-112.4668541905645
10
135.97601935525037
20
-112.46685419056445
42
-0.41421356237306733
10
136.72601935525037
20
-113.21685419056448
10
136.72601935525034
20
-125.71685419056445
42
-0.41421356237306733
10
135.97601935525034
20
-126.46685419056442
10
123.47601935525037
20
-126.46685419056442
42
-0.41421356237310897
10
122.72601935525043
20
-125.71685419056448
0
LWPOLYLINE
5
123
100
AcDbEntity
8
0
100
AcDbPolyline
90
8
70
1
43
0.0
10
155.0260193552503
20
-112.4668541905645
42
-0.41421356237308116
10
155.77601935525027
20
-113.2168541905645
10
155.77601935525027
20
-125.71685419056448
42
-0.41421356237307422
10
155.0260193552503
20
-126.46685419056445
10
142.52601935525033
20
-126.46685419056448
42
-0.41421356237308116
10
141.77601935525033
20
-125.71685419056449
10
141.7760193552503
20
-113.21685419056448
42
-0.41421356237306733
10
142.52601935525036
20
-112.4668541905645
0
LWPOLYLINE
5
124
100
AcDbEntity
8
0
100
AcDbPolyline
90
8
70
1
43
0.0
10
98.913519355250443
20
-56.066854190564584
42
-0.41421356237308116
10
99.663519355250429
20
-55.316854190564591
10
112.1635193552504
20
-55.316854190564612
42
-0.41421356237308116
10
112.9135193552504
20
-56.066854190564605
10
112.9135193552504
20
-68.566854190564598
42
-0.41421356237307771
10
112.1635193552504
20
-69.316854190564584
10
99.663519355250429
20
-69.316854190564513
42
-0.41421356237310897
10
98.913519355250457
20
-68.566854190564541
0
LWPOLYLINE
5
125
100
AcDbEntity
8
0
100
AcDbPolyline
90
8
70
1
43
0.0
10
12.151019355250659
20
-131.51685419056443
42
-0.41421356237312018
10
12.90101935525065
20
-132.26685419056443
10
12.901019355250652
20
-144.7668541905644
42
-0.4142135623730942
10
12.151019355250661
20
-145.51685419056437
10
-0.3489806447491528
20
-145.51685419056423
42
-0.41421356237310014
10
-1.0989806447491504
20
-144.76685419056423
10
-1.0989806447491339
20
-132.26685419056426
42
-0.41421356237309204
10
-0.34898064474914836
20
-131.51685419056429
0
LWPOLYLINE
5
126
100
AcDbEntity
8
0
100
AcDbPolyline
90
8
70
1
43
0.0
10
232.26351935525003
20
-75.116854190564524
42
-0.41421356237306733
10
233.01351935525003
20
-74.366854190564538
10
245.51351935524997
20
-74.366854190564567
42
-0.41421356237311585
10
246.26351935525005
20
-75.116854190564538
10
246.26351935525011
20
-87.616854190564538
42
-0.41421356237308116
10
245.51351935525008
20
-88.366854190564524
10
233.01351935525014
20
-88.366854190564453
42
-0.41421356237315055
10
232.26351935525008
20
-87.616854190564496
0
LWPOLYLINE
5
127
100
AcDbEntity
8
0
100
AcDbPolyline
90
8
70
1
43
0.0
10
-35.473980644749204
20
-131.51685419056446
42
-0.41421356237309503
10
-34.723980644749219
20
-132.26685419056446
10
-34.72398064474924
20
-144.7668541905644
42
-0.41421356237310025
10
-35.473980644749204
20
-145.51685419056443
10
-47.973980644749034
20
-145.51685419056423
42
-0.41421356237309159
10
-48.723980644749041
20
-144.76685419056426
10
-48.723980644749069
20
-132.26685419056429
42
-0.41421356237308116
10
-47.973980644749041
20
-131.51685419056429
0
LWPOLYLINE
5
128
100
AcDbEntity
8
0
100
AcDbPolyline
90
8
70
1
43
0.0
10
-20.148980644749269
20
-94.166854190564507
42
-0.41421356237308554
10
-19.398980644749265
20
-93.416854190564521
10
-6.8989806447492974
20
-93.416854190564521
42
-0.41421356237308771
10
-6.1489806447492903
20
-94.166854190564507
10
-6.1489806447492938
20
-106.66685419056448
42
-0.41421356237308943
10
-6.8989806447493063
20
-107.41685419056446
10
-19.398980644749265
20
-107.41685419056446
42
-0.41421356237310025
10
-20.148980644749258
20
-106.66685419056446
0
LWPOLYLINE
5
129
100
AcDbEntity
8
0
100
AcDbPolyline
90
8
70
1
43
0.0
10
102.63851935525039
20
-74.366854190564567
42
-0.41421356237307078
10
103.38851935525037
20
-75.116854190564553
10
103.38851935525044
20
-87.616854190564496
42
-0.41421356237308815
10
102.63851935525042
20
-88.366854190564524
10
90.13851935525048
20
-88.366854190564482
42
-0.41421356237308116
10
89.388519355250494
20
-87.616854190564482
10
89.388519355250438
20
-75.116854190564553
42
-0.41421356237307422
10
90.138519355250423
20
-74.366854190564581
0
CIRCLE
5
130
100
AcDbEntity
8
0
100
AcDbCircle
10
-56.800694207123911
20
-52.002640628237955
30
0
40
0.97999999999999865
210
2.4520351490702064e-30
220
-1.3877787807814457e-17
230
1
0
LWPOLYLINE
5
131
100
AcDbEntity
8
0
100
AcDbPolyline
90
8
70
1
43
0.0
10
178.83851935525024
20
-74.366854190564567
42
-0.41421356237303258
10
179.58851935525018
20
-75.116854190564567
10
179.5885193552503
20
-87.616854190564538
42
-0.41421356237315055
10
178.83851935525024
20
-88.366854190564524
10
166.33851935525027
20
-88.36685419056451
42
-0.41421356237310897
10
165.5885193552503
20
-87.61685419056451
10
165.58851935525027
20
-75.116854190564553
42
-0.41421356237307771
10
166.33851935525027
20
-74.366854190564538
0
LWPOLYLINE
5
132
100
AcDbEntity
8
0
100
AcDbPolyline
90
8
70
1
43
0.0
10
13.188519355250673
20
-75.116854190564553
42
-0.41421356237308898
10
13.93851935525065
20
-74.366854190564567
10
26.438519355250641
20
-74.366854190564567
42
-0.41421356237309331
10
27.188519355250619
20
-75.116854190564553
10
27.188519355250659
20
-87.61685419056451
42
-0.41421356237308293
10
26.438519355250662
20
-88.36685419056451
10
13.938519355250671
20
-88.366854190564524
42
-0.41421356237307771
10
13.188519355250655
20
-87.616854190564538
0
LWPOLYLINE
5
133
100
AcDbEntity
8
0
100
AcDbPolyline
90
8
70
1
43
0.0
10
108.43851935525038
20
-75.116854190564538
42
-0.41421356237309159
10
109.18851935525035
20
-74.366854190564567
10
121.68851935525032
20
-74.366854190564581
42
-0.41421356237310897
10
122.43851935525032
20
-75.116854190564553
10
122.43851935525038
20
-87.61685419056451
42
-0.41421356237309503
10
121.68851935525041
20
-88.366854190564496
10
109.18851935525042
20
-88.366854190564482
42
-0.41421356237309503
10
108.43851935525041
20
-87.616854190564496
0
CIRCLE
5
134
100
AcDbEntity
8
0
100
AcDbCircle
10
-56.800694207114915
20
-148.83349302449892
30
0
40
0.92999999999999972
210
1.0508624140881692e-30
220
-1.3877787807814457e-17
230
1
0
LWPOLYLINE
5
135
100
AcDbEntity
8
0
100
AcDbPolyline
90
16
70
1
43
0.0
10
103.65101935525017
20
-140.26685419056355
42
-0.41421356237310897
10
102.90101935525016
20
-139.51685419056358
10
102.90101935525018
20
-137.51685419056355
42
-0.41421356237306733
10
103.6510193552502
20
-136.76685419056358
10
112.00158758403335
20
-136.76685419056355
42
0.23993164795342659
10
112.60810495542455
20
-136.45803066115181
42
-0.50917507721731226
10
118.26893375507584
20
-136.45803066115178
42
0.23993164795344296
10
118.87545112646706
20
-136.76685419056358
10
127.22601935525017
20
-136.76685419056358
42
-0.41421356237306733
10
127.9760193552502
20
-137.51685419056355
10
127.97601935525014
20
-139.51685419056361
42
-0.41421356237309503
10
127.22601935525012
20
-140.26685419056355
10
118.87545112646698
20
-140.26685419056355
42
0.23993164795342015
10
118.26893375507588
20
-140.57567771997537
42
-0.50917507721731681
10
112.60810495542451
20
-140.57567771997532
42
0.23993164795343028
10
112.0015875840333
20
-140.26685419056355
0
CIRCLE
5
136
100
AcDbEntity
8
0
100
AcDbCircle
10
249.57773291764835
20
-52.002640628209527
30
0
40
0.92999999999999972
210
1.0565916318758533e-30
220
-1.3877787807814457e-17
230
1
0
LWPOLYLINE
5
137
100
AcDbEntity
8
0
100
AcDbPolyline
90
8
70
1
43
0.0
10
116.92601935525039
20
-112.46685419056446
42
-0.41421356237308815
10
117.67601935525035
20
-113.21685419056448
10
117.67601935525035
20
-125.71685419056443
42
-0.41421356237307422
10
116.92601935525035
20
-126.4668541905644
10
104.42601935525039
20
-126.46685419056445
42
-0.41421356237308116
10
103.67601935525039
20
-125.71685419056445
10
103.67601935525038
20
-113.21685419056448
42
-0.41421356237310197
10
104.42601935525042
20
-112.46685419056448
0
LWPOLYLINE
5
138
100
AcDbEntity
8
0
100
AcDbPolyline
90
8
70
1
43
0.0
10
147.51351935525034
20
-143.76733717297878
42
-0.41421356237308116
10
146.76351935525037
20
-144.51733717297878
10
141.26351935525037
20
-144.51733717297878
42
-0.41421356237308116
10
140.51351935525039
20
-143.76733717297881
10
140.51351935525034
20
-130.26685419056443
42
-0.52573095151718408
10
141.53142961648231
20
-129.5663371729791
10
147.0314296164822
20
-129.56633717297908
42
-0.31084710447230263
10
147.51351935525037
20
-130.26685419056443
0
LWPOLYLINE
5
139
100
AcDbEntity
8
0
100
AcDbPolyline
90
8
70
1
43
0.0
10
32.238519355250624
20
-75.116854190564538
42
-0.4142135623730846
10
32.988519355250602
20
-74.366854190564567
10
45.488519355250574
20
-74.366854190564538
42
-0.41421356237310197
10
46.238519355250595
20
-75.116854190564538
10
46.23851935525061
20
-87.61685419056451
42
-0.41421356237308815
10
45.488519355250602
20
-88.36685419056451
10
32.988519355250638
20
-88.36685419056451
42
-0.41421356237309331
10
32.238519355250645
20
-87.61685419056451
0
LWPOLYLINE
5
140
100
AcDbEntity
8
0
100
AcDbPolyline
90
8
70
1
43
0.0
10
174.82601935525054
20
-144.7668541905642
42
-0.41421356237315748
10
174.07601935525051
20
-145.51685419056423
10
161.57601935525037
20
-145.5168541905644
42
-0.41421356237309503
10
160.82601935525037
20
-144.7668541905644
10
160.82601935525045
20
-132.26685419056443
42
-0.41421356237311585
10
161.57601935525039
20
-131.5168541905644
10
174.07601935525051
20
-131.51685419056426
42
-0.41421356237310897
10
174.82601935525048
20
-132.26685419056426
0
LWPOLYLINE
5
141
100
AcDbEntity
8
0
100
AcDbPolyline
90
8
70
1
43
0.0
10
65.576019355250537
20
-113.21685419056448
42
-0.41421356237308815
10
66.326019355250551
20
-112.46685419056448
10
78.826019355250509
20
-112.4668541905645
42
-0.41421356237310897
10
79.576019355250509
20
-113.21685419056448
10
79.576019355250466
20
-125.71685419056443
42
-0.41421356237309159
10
78.826019355250509
20
-126.46685419056442
10
66.326019355250537
20
-126.46685419056445
42
-0.41421356237308116
10
65.576019355250537
20
-125.71685419056445
0
LWPOLYLINE
5
142
100
AcDbEntity
8
0
100
AcDbPolyline
90
8
70
1
43
0.0
10
79.863519355250503
20
-56.066854190564626
42
-0.41421356237307422
10
80.613519355250503
20
-55.316854190564619
10
93.113519355250446
20
-55.316854190564591
42
-0.41421356237308116
10
93.863519355250432
20
-56.066854190564584
10
93.863519355250446
20
-68.566854190564541
42
-0.41421356237311935
10
93.113519355250446
20
-69.316854190564555
10
80.613519355250531
20
-69.316854190564598
42
-0.41421356237309159
10
79.863519355250489
20
-68.566854190564584
0
LWPOLYLINE
5
143
100
AcDbEntity
8
0
100
AcDbPolyline
90
8
70
1
43
0.0
10
232.26351935525008
20
-94.16685419056455
42
-0.41421356237310197
10
233.01351935525008
20
-93.416854190564536
10
245.51351935525005
20
-93.416854190564536
42
-0.41421356237312279
10
246.26351935525011
20
-94.166854190564521
10
246.26351935525003
20
-106.66685419056451
42
-0.4142135623730534
10
245.51351935524997
20
-107.41685419056449
10
233.01351935525005
20
-107.41685419056449
42
-0.41421356237312978
10
232.26351935525008
20
-106.66685419056451
0
LWPOLYLINE
5
144
100
AcDbEntity
8
0
100
AcDbPolyline
90
8
70
1
43
0.0
10
232.26351935525017
20
-132.26685419056446
42
-0.41421356237307422
10
233.01351935525017
20
-131.51685419056446
10
245.51351935525014
20
-131.51685419056446
42
-0.41421356237307422
10
246.26351935525011
20
-132.26685419056443
10
246.26351935525014
20
-144.76685419056437
42
-0.41421356237312978
10
245.51351935525017
20
-145.5168541905644
10
233.01351935525014
20
-145.51685419056446
42
-0.4142135623730257
10
232.26351935525008
20
-144.7668541905644
0
LWPOLYLINE
5
145
100
AcDbEntity
8
0
100
AcDbPolyline
90
8
70
1
43
0.0
10
75.101019355250486
20
-94.166854190564564
42
-0.4142135623730846
10
75.8510193552505
20
-93.41685419056455
10
88.351019355250457
20
-93.416854190564578
42
-0.41421356237310197
10
89.101019355250457
20
-94.16685419056455
10
89.101019355250429
20
-106.66685419056455
42
-0.41421356237313667
10
88.351019355250443
20
-107.41685419056454
10
75.851019355250514
20
-107.41685419056455
42
-0.41421356237311585
10
75.101019355250514
20
-106.66685419056455
0
LWPOLYLINE
5
146
100
AcDbEntity
8
0
100
AcDbPolyline
90
8
70
1
43
0.0
10
-29.873980644749235
20
-74.366854190564567
42
-0.41421356237309159
10
-29.123980644749238
20
-75.116854190564567
10
-29.123980644749253
20
-87.616854190564553
42
-0.41421356237308116
10
-29.873980644749231
20
-88.366854190564524
10
-30.373980644749231
20
-88.36685419056451
42
-0.41421356237308637
10
-31.123980644749235
20
-87.61685419056451
10
-31.123980644749238
20
-75.116854190564553
42
-0.41421356237309503
10
-30.373980644749228
20
-74.366854190564567
0
LWPOLYLINE
5
147
100
AcDbEntity
8
0
100
AcDbPolyline
90
8
70
1
43
0.0
10
8.4260193552506912
20
-113.21685419056449
42
-0.41421356237308071
10
9.1760193552506841
20
-112.46685419056453
10
21.676019355250652
20
-112.4668541905645
42
-0.41421356237307255
10
22.426019355250627
20
-113.2168541905645
10
22.426019355250641
20
-125.71685419056448
42
-0.41421356237307422
10
21.676019355250649
20
-126.46685419056445
10
9.1760193552506752
20
-126.46685419056448
42
-0.41421356237312623
10
8.4260193552506806
20
-125.71685419056445
0
LWPOLYLINE
5
148
100
AcDbEntity
8
0
100
AcDbPolyline
90
8
70
1
43
0.0
10
170.35101935525034
20
-94.166854190564521
42
-0.39913243318701885
10
171.06221419798172
20
-93.417858756820522
10
183.63982451250502
20
-93.417858756819811
42
-0.39913243319239428
10
184.35101935525023
20
-94.166854190564521
10
184.35101935525017
20
-106.66685419056451
42
-0.41421356237308116
10
183.60101935525023
20
-107.41685419056445
10
171.10101935525026
20
-107.41685419056446
42
-0.41421356237310897
10
170.35101935525029
20
-106.66685419056451
0
LWPOLYLINE
5
149
100
AcDbEntity
8
0
100
AcDbPolyline
90
8
70
1
43
0.0
10
17.951019355250651
20
-94.166854190564521
42
-0.4142135623730942
10
18.701019355250661
20
-93.41685419056455
10
31.201019355250629
20
-93.416854190564536
42
-0.41421356237309853
10
31.951019355250622
20
-94.166854190564521
10
31.951019355250601
20
-106.66685419056452
42
-0.41421356237307771
10
31.201019355250654
20
-107.41685419056452
10
18.701019355250665
20
-107.41685419056454
42
-0.41421356237316009
10
17.951019355250665
20
-106.66685419056449
0
LWPOLYLINE
5
150
100
AcDbEntity
8
0
100
AcDbPolyline
90
8
70
1
43
0.0
10
146.53851935525029
20
-75.116854190564538
42
-0.41421356237308116
10
147.28851935525029
20
-74.366854190564553
10
159.78851935525026
20
-74.366854190564496
42
-0.41421356237311935
10
160.53851935525023
20
-75.116854190564553
10
160.53851935525032
20
-87.616854190564538
42
-0.41421356237312279
10
159.78851935525032
20
-88.366854190564524
10
147.28851935525034
20
-88.366854190564496
42
-0.41421356237308116
10
146.53851935525034
20
-87.616854190564496
0
LWPOLYLINE
5
151
100
AcDbEntity
8
0
100
AcDbPolyline
90
8
70
1
43
0.0
10
51.288519355250585
20
-75.116854190564538
42
-0.41421356237307771
10
52.038519355250578
20
-74.366854190564567
10
64.538519355250543
20
-74.366854190564538
42
-0.41421356237309159
10
65.288519355250557
20
-75.116854190564538
10
65.288519355250557
20
-87.61685419056451
42
-0.41421356237308815
10
64.538519355250529
20
-88.366854190564524
10
52.038519355250571
20
-88.366854190564496
42
-0.4142135623730846
10
51.288519355250564
20
-87.616854190564538
0
LWPOLYLINE
5
152
100
AcDbEntity
8
0
100
AcDbPolyline
90
8
70
1
43
0.0
10
-53.486480644749157
20
-56.066854190564612
42
-0.4142135623730846
10
-52.736480644749165
20
-55.316854190564612
10
-40.236480644749207
20
-55.316854190564591
42
-0.41421356237308815
10
-39.486480644749193
20
-56.066854190564598
10
-39.486480644749207
20
-68.566854190564598
42
-0.4142135623730846
10
-40.2364806447492
20
-69.316854190564584
10
-52.736480644749179
20
-69.316854190564584
42
-0.41421356237308116
10
-53.486480644749157
20
-68.566854190564584
0
LWPOLYLINE
5
153
100
AcDbEntity
8
0
100
AcDbPolyline
90
8
70
1
43
0.0
10
27.476019355250607
20
-113.21685419056442
42
-0.41421356237307255
10
28.22601935525061
20
-112.46685419056446
10
40.726019355250578
20
-112.46685419056455
42
-0.41421356237311935
10
41.476019355250592
20
-113.21685419056452
10
41.476019355250543
20
-125.71685419056449
42
-0.41421356237307771
10
40.726019355250578
20
-126.46685419056448
10
28.226019355250607
20
-126.46685419056439
42
-0.41421356237308982
10
27.476019355250632
20
-125.71685419056439
0
LWPOLYLINE
5
154
100
AcDbEntity
8
0
100
AcDbPolyline
90
8
70
1
43
0.0
10
160.82601935525037
20
-113.21685419056448
42
-0.39913243315461749
10
161.53721419789807
20
-112.46785875682482
10
174.11482451260767
20
-112.46785875682511
42
-0.39913243315259123
10
174.82601935525025
20
-113.21685419056448
10
174.82601935525025
20
-125.71685419056445
42
-0.41421356237309503
10
174.07601935525031
20
-126.46685419056442
10
161.57601935525037
20
-126.46685419056445
42
-0.41421356237307422
10
160.82601935525034
20
-125.71685419056443
0
LWPOLYLINE
5
155
100
AcDbEntity
8
0
100
AcDbPolyline
90
8
70
1
43
0.0
10
175.11351935525028
20
-56.066854190564612
42
-0.41421356237313323
10
175.86351935525033
20
-55.316854190564591
10
188.36351935525022
20
-55.316854190564577
42
-0.41421356237308116
10
189.11351935525022
20
-56.066854190564605
10
189.11351935525011
20
-68.566854190564598
42
-0.41421356237304996
10
188.36351935525022
20
-69.316854190564584
10
175.8635193552503
20
-69.316854190564499
42
-0.41421356237310897
10
175.11351935525028
20
-68.566854190564584
0
LWPOLYLINE
5
156
100
AcDbEntity
8
0
100
AcDbPolyline
90
8
70
1
43
0.0
10
70.338519355250554
20
-75.116854190564553
42
-0.41421356237308116
10
71.08851935525054
20
-74.366854190564567
10
83.588519355250455
20
-74.366854190564567
42
-0.41421356237307078
10
84.338519355250426
20
-75.116854190564553
10
84.338519355250483
20
-87.616854190564538
42
-0.41421356237308116
10
83.588519355250497
20
-88.366854190564524
10
71.088519355250511
20
-88.366854190564482
42
-0.41421356237313667
10
70.338519355250526
20
-87.616854190564496
0
LWPOLYLINE
5
157
100
AcDbEntity
8
0
100
AcDbPolyline
90
8
70
1
43
0.0
10
184.6385193552502
20
-75.11685419056451
42
-0.41421356237304996
10
185.3885193552502
20
-74.366854190564553
10
197.88851935525017
20
-74.366854190564553
42
-0.41421356237312978
10
198.6385193552502
20
-75.116854190564524
10
198.63851935525031
20
-87.616854190564538
42
-0.41421356237315055
10
197.88851935525025
20
-88.366854190564524
10
185.38851935525031
20
-88.366854190564567
42
-0.41421356237306034
10
184.6385193552502
20
-87.61685419056451
0
LWPOLYLINE
5
158
100
AcDbEntity
8
0
100
AcDbPolyline
90
8
70
1
43
0.0
10
151.30101935525028
20
-94.166854190564507
42
-0.41421356237311585
10
152.05101935525028
20
-93.416854190564521
10
164.55101935525036
20
-93.416854190564521
42
-0.41421356237303258
10
165.30101935525033
20
-94.166854190564521
10
165.30101935525025
20
-106.66685419056451
42
-0.41421356237315055
10
164.55101935525022
20
-107.41685419056452
10
152.05101935525025
20
-107.41685419056441
42
-0.41421356237309503
10
151.3010193552503
20
-106.66685419056446
0
LWPOLYLINE
5
159
100
AcDbEntity
8
0
100
AcDbPolyline
90
8
70
1
43
0.0
10
156.06351935525026
20
-56.066854190564605
42
-0.41421356237308815
10
156.81351935525024
20
-55.316854190564598
10
169.31351935525021
20
-55.316854190564612
42
-0.41421356237310897
10
170.06351935525026
20
-56.066854190564605
10
170.06351935525021
20
-68.566854190564584
42
-0.41421356237309159
10
169.31351935525021
20
-69.31685419056457
10
156.81351935525029
20
-69.31685419056457
42
-0.41421356237310542
10
156.06351935525029
20
-68.566854190564584
0
LWPOLYLINE
5
160
100
AcDbEntity
8
0
100
AcDbPolyline
90
8
70
1
43
0.0
10
84.626019355250435
20
-113.21685419056448
42
-0.41421356237308116
10
85.376019355250435
20
-112.46685419056448
10
97.876019355250392
20
-112.4668541905645
42
-0.41421356237310197
10
98.626019355250378
20
-113.21685419056449
10
98.626019355250378
20
-125.71685419056445
42
-0.41421356237310197
10
97.876019355250406
20
-126.46685419056445
10
85.376019355250449
20
-126.46685419056442
42
-0.41421356237308116
10
84.626019355250449
20
-125.71685419056443
0
LWPOLYLINE
5
161
100
AcDbEntity
8
0
100
AcDbPolyline
90
8
70
1
43
0.0
10
127.48851935525032
20
-75.116854190564538
42
-0.41421356237308116
10
128.2385193552503
20
-74.366854190564553
10
140.73851935525028
20
-74.366854190564567
42
-0.41421356237308116
10
141.48851935525028
20
-75.116854190564553
10
141.48851935525033
20
-87.616854190564538
42
-0.41421356237306733
10
140.73851935525033
20
-88.366854190564524
10
128.23851935525036
20
-88.36685419056451
42
-0.41421356237308116
10
127.48851935525038
20
-87.61685419056451
0
CIRCLE
5
162
100
AcDbEntity
8
0
100
AcDbCircle
10
249.57773291765727
20
-148.8334930244705
30
0
40
0.92999999999999972
210
1.0565916318758533e-30
220
-1.3877787807814457e-17
230
1
0
LWPOLYLINE
5
163
100
AcDbEntity
8
0
100
AcDbPolyline
90
8
70
1
43
0.0
10
37.001019355250584
20
-94.166854190564521
42
-0.41421356237309503
10
37.751019355250591
20
-93.416854190564521
10
50.251019355250563
20
-93.416854190564536
42
-0.41421356237311241
10
51.001019355250563
20
-94.166854190564521
10
51.001019355250577
20
-106.66685419056449
42
-0.4142135623730846
10
50.251019355250591
20
-107.41685419056449
10
37.751019355250619
20
-107.41685419056451
42
-0.41421356237311757
10
37.001019355250605
20
-106.66685419056451
0
LWPOLYLINE
5
164
100
AcDbEntity
8
0
100
AcDbPolyline
90
8
70
1
43
0.0
10
182.66976935525031
20
-112.46685419056448
42
-0.41421356237303258
10
183.41976935525025
20
-113.21685419056449
10
183.41976935525028
20
-125.71685419056443
42
-0.41421356237308815
10
182.66976935525031
20
-126.4668541905644
10
182.16976935525025
20
-126.46685419056446
42
-0.41421356237309503
10
181.41976935525025
20
-125.71685419056448
10
181.41976935525022
20
-113.21685419056449
42
-0.41421356237306733
10
182.16976935525022
20
-112.4668541905645
0
LWPOLYLINE
5
165
100
AcDbEntity
8
0
100
AcDbPolyline
90
8
70
1
43
0.0
10
187.01976935525025
20
-113.21685419056448
42
-0.41421356237312279
10
187.76976935525025
20
-112.46685419056446
10
200.26976935525022
20
-112.46685419056449
42
-0.41421356237303958
10
201.01976935525016
20
-113.21685419056445
10
201.01976935525022
20
-125.71685419056445
42
-0.41421356237306034
10
200.26976935525022
20
-126.4668541905644
10
187.76976935525025
20
-126.46685419056442
42
-0.41421356237306733
10
187.01976935525025
20
-125.71685419056443
0
LWPOLYLINE
5
166
100
AcDbEntity
8
0
100
AcDbPolyline
90
8
70
1
43
0.0
10
213.21351935525024
20
-132.26685419056446
42
-0.41421356237307422
10
213.96351935525021
20
-131.51685419056443
10
226.46351935525016
20
-131.51685419056443
42
-0.41421356237312279
10
227.21351935525018
20
-132.26685419056446
10
227.21351935525021
20
-144.76685419056443
42
-0.41421356237308815
10
226.46351935525018
20
-145.51685419056443
10
213.96351935525013
20
-145.51685419056435
42
-0.41421356237306733
10
213.21351935525024
20
-144.76685419056437
0
LWPOLYLINE
5
167
100
AcDbEntity
8
0
100
AcDbPolyline
90
8
70
1
43
0.0
10
178.42601935525036
20
-132.26685419056446
42
-0.41421356237314361
10
179.1760193552503
20
-131.51685419056446
10
179.67601935525025
20
-131.5168541905644
42
-0.41421356237307422
10
180.42601935525028
20
-132.26685419056443
10
180.42601935525028
20
-144.7668541905644
42
-0.41421356237306733
10
179.67601935525025
20
-145.5168541905644
10
179.17601935525022
20
-145.51685419056446
42
-0.4142135623730257
10
178.42601935525025
20
-144.7668541905644
0
LWPOLYLINE
5
168
100
AcDbEntity
8
0
100
AcDbPolyline
90
8
70
1
43
0.0
10
-54.323980644749142
20
-75.116854190564538
42
-0.41421356237308116
10
-53.573980644749156
20
-74.366854190564553
10
-53.073980644749163
20
-74.366854190564538
42
-0.41421356237309503
10
-52.323980644749149
20
-75.116854190564538
10
-52.323980644749177
20
-87.616854190564538
42
-0.41421356237309503
10
-53.07398064474917
20
-88.366854190564496
10
-53.573980644749177
20
-88.366854190564482
42
-0.41421356237307422
10
-54.323980644749163
20
-87.616854190564482
0
LWPOLYLINE
5
169
100
AcDbEntity
8
0
100
AcDbPolyline
90
8
70
1
43
0.0
10
-53.073980644749156
20
-131.5168541905644
42
-0.41421356237309159
10
-52.323980644749156
20
-132.26685419056443
10
-52.323980644749156
20
-144.7668541905644
42
-0.41421356237309159
10
-53.073980644749163
20
-145.51685419056437
10
-53.573980644749149
20
-145.5168541905644
42
-0.41421356237311585
10
-54.323980644749177
20
-144.7668541905644
10
-54.323980644749163
20
-132.2668541905644
42
-0.41421356237308815
10
-53.573980644749149
20
-131.5168541905644
0
LWPOLYLINE
5
170
100
AcDbEntity
8
0
100
AcDbPolyline
90
8
70
1
43
0.0
10
-6.6989806447493017
20
-132.26685419056446
42
-0.41421356237309503
10
-5.948980644749291
20
-131.51685419056443
10
-5.4489806447492999
20
-131.51685419056446
42
-0.41421356237311324
10
-4.6989806447492919
20
-132.26685419056446
10
-4.698980644749307
20
-144.7668541905644
42
-0.41421356237310025
10
-5.4489806447492946
20
-145.51685419056443
10
-5.948980644749291
20
-145.51685419056443
42
-0.41421356237307383
10
-6.6989806447492857
20
-144.7668541905644
0
LWPOLYLINE
5
171
100
AcDbEntity
8
0
100
AcDbPolyline
90
8
70
1
43
0.0
10
16.501019355250659
20
-132.26685419056443
42
-0.41421356237308377
10
17.251019355250659
20
-131.51685419056443
10
17.751019355250644
20
-131.51685419056446
42
-0.41421356237311757
10
18.501019355250648
20
-132.26685419056446
10
18.50101935525063
20
-144.76685419056443
42
-0.41421356237308293
10
17.751019355250651
20
-145.5168541905644
10
17.251019355250655
20
-145.51685419056437
42
-0.41421356237308721
10
16.501019355250651
20
-144.76685419056437
0
LWPOLYLINE
5
172
100
AcDbEntity
8
0
100
AcDbPolyline
90
8
70
1
43
0.0
10
-31.123980644749235
20
-132.26685419056446
42
-0.41421356237310542
10
-30.373980644749231
20
-131.5168541905644
10
-29.873980644749235
20
-131.51685419056443
42
-0.41421356237308637
10
-29.123980644749231
20
-132.26685419056443
10
-29.123980644749231
20
-144.76685419056437
42
-0.4142135623730846
10
-29.873980644749235
20
-145.51685419056437
10
-30.373980644749231
20
-145.51685419056437
42
-0.41421356237312457
10
-31.123980644749231
20
-144.7668541905644
0
LWPOLYLINE
5
173
100
AcDbEntity
8
0
100
AcDbPolyline
90
8
70
1
43
0.0
10
-28.742730644749233
20
-94.166854190564521
42
-0.41421356237310025
10
-27.992730644749244
20
-93.416854190564521
10
-27.492730644749237
20
-93.416854190564536
42
-0.41421356237311063
10
-26.742730644749237
20
-94.166854190564521
10
-26.74273064474923
20
-106.66685419056449
42
-0.4142135623730846
10
-27.492730644749251
20
-107.41685419056449
10
-27.992730644749237
20
-107.41685419056451
42
-0.41421356237309503
10
-28.74273064474923
20
-106.66685419056451
0
LWPOLYLINE
5
174
100
AcDbEntity
8
0
100
AcDbPolyline
90
8
70
1
43
0.0
10
-48.723980644749147
20
-75.116854190564538
42
-0.41421356237308116
10
-47.973980644749162
20
-74.366854190564553
10
-35.47398064474919
20
-74.366854190564567
42
-0.41421356237307771
10
-34.723980644749226
20
-75.116854190564538
10
-34.723980644749219
20
-87.616854190564538
42
-0.41421356237308293
10
-35.473980644749211
20
-88.366854190564524
10
-47.973980644749197
20
-88.366854190564496
42
-0.41421356237309503
10
-48.72398064474919
20
-87.616854190564496
0
LWPOLYLINE
5
175
100
AcDbEntity
8
0
100
AcDbPolyline
90
8
70
1
43
0.0
10
155.22601935525032
20
-132.26685419056446
42
-0.41421356237308116
10
155.97601935525032
20
-131.51685419056446
10
156.47601935525026
20
-131.51685419056443
42
-0.41421356237308815
10
157.22601935525032
20
-132.26685419056443
10
157.22601935525029
20
-144.7668541905644
42
-0.41421356237307422
10
156.47601935525029
20
-145.51685419056437
10
155.97601935525032
20
-145.51685419056443
42
-0.41421356237310897
10
155.22601935525029
20
-144.7668541905644
0
LWPOLYLINE
5
176
100
AcDbEntity
8
0
100
AcDbPolyline
90
8
70
1
43
0.0
10
205.86976935525024
20
-112.46685419056448
42
-0.41421356237303258
10
206.61976935525018
20
-113.21685419056449
10
206.61976935525024
20
-125.71685419056448
42
-0.41421356237310897
10
205.86976935525024
20
-126.46685419056445
10
205.36976935525018
20
-126.46685419056445
42
-0.41421356237309503
10
204.61976935525018
20
-125.71685419056445
10
204.61976935525016
20
-113.21685419056445
42
-0.41421356237306034
10
205.36976935525016
20
-112.46685419056448
0
LWPOLYLINE
5
177
100
AcDbEntity
8
0
100
AcDbPolyline
90
8
70
1
43
0.0
10
232.26351935525008
20
-113.21685419056448
42
-0.4142135623730534
10
233.01351935525008
20
-112.46685419056449
10
245.51351935525005
20
-112.46685419056449
42
-0.41421356237309503
10
246.26351935525005
20
-113.21685419056449
10
246.26351935525008
20
-125.71685419056448
42
-0.4142135623730534
10
245.51351935525008
20
-126.46685419056445
10
233.01351935525014
20
-126.46685419056446
42
-0.41421356237311585
10
232.26351935525008
20
-125.71685419056445
0
LWPOLYLINE
5
178
100
AcDbEntity
8
0
100
AcDbPolyline
90
8
70
1
43
0.0
10
232.26351935525003
20
-56.066854190564598
42
-0.41421356237307078
10
233.01351935525003
20
-55.316854190564598
10
245.51351935524997
20
-55.316854190564612
42
-0.41421356237311585
10
246.26351935525005
20
-56.066854190564584
10
246.26351935525008
20
-68.566854190564584
42
-0.41421356237308116
10
245.51351935525008
20
-69.316854190564598
10
233.01351935525017
20
-69.31685419056457
42
-0.41421356237313323
10
232.26351935525003
20
-68.566854190564555
0
LWPOLYLINE
5
179
100
AcDbEntity
8
0
100
AcDbPolyline
90
8
70
1
43
0.0
10
137.01351935525031
20
-56.066854190564598
42
-0.41421356237309159
10
137.76351935525034
20
-55.316854190564598
10
150.26351935525031
20
-55.316854190564591
42
-0.41421356237308116
10
151.01351935525028
20
-56.066854190564584
10
151.01351935525034
20
-68.566854190564584
42
-0.41421356237312279
10
150.26351935525031
20
-69.316854190564584
10
137.76351935525034
20
-69.316854190564584
42
-0.41421356237311585
10
137.01351935525034
20
-68.566854190564584
0
LWPOLYLINE
5
180
100
AcDbEntity
8
0
100
AcDbPolyline
90
8
70
1
43
0.0
10
74.063519355250506
20
-55.316854190564591
42
-0.41421356237310197
10
74.81351935525052
20
-56.066854190564584
10
74.81351935525052
20
-68.566854190564584
42
-0.41421356237309159
10
74.063519355250506
20
-69.316854190564584
10
61.563519355250534
20
-69.316854190564555
42
-0.41421356237310197
10
60.813519355250556
20
-68.566854190564584
10
60.813519355250563
20
-56.066854190564598
42
-0.41421356237307771
10
61.563519355250548
20
-55.316854190564598
0
LWPOLYLINE
5
181
100
AcDbEntity
8
0
100
AcDbPolyline
90
8
70
1
43
0.0
10
-15.386480644749266
20
-56.066854190564605
42
-0.41421356237309243
10
-14.636480644749279
20
-55.316854190564591
10
-2.1364806447493128
20
-55.316854190564584
42
-0.41421356237309009
10
-1.3864806447493048
20
-56.066854190564584
10
-1.3864806447493061
20
-68.566854190564555
42
-0.4142135623730866
10
-2.1364806447493123
20
-69.316854190564555
10
-14.636480644749275
20
-69.316854190564584
42
-0.41421356237308116
10
-15.38648064474927
20
-68.566854190564584
0
LWPOLYLINE
5
182
100
AcDbEntity
8
0
100
AcDbPolyline
90
8
70
1
43
0.0
10
-34.436480644749231
20
-56.066854190564598
42
-0.4142135623730846
10
-33.686480644749231
20
-55.316854190564598
10
-21.186480644749256
20
-55.316854190564598
42
-0.4142135623730846
10
-20.436480644749256
20
-56.066854190564598
10
-20.436480644749246
20
-68.566854190564584
42
-0.4142135623730846
10
-21.186480644749256
20
-69.316854190564584
10
-33.686480644749231
20
-69.31685419056457
42
-0.41421356237310719
10
-34.436480644749224
20
-68.566854190564555
0
LWPOLYLINE
5
183
100
AcDbEntity
8
0
100
AcDbPolyline
90
8
70
1
43
0.0
10
41.763519355250608
20
-56.066854190564612
42
-0.4142135623730846
10
42.513519355250594
20
-55.316854190564612
10
55.013519355250551
20
-55.316854190564584
42
-0.41421356237309853
10
55.763519355250573
20
-56.066854190564598
10
55.763519355250551
20
-68.566854190564555
42
-0.41421356237310897
10
55.013519355250551
20
-69.316854190564598
10
42.51351935525058
20
-69.316854190564584
42
-0.41421356237307771
10
41.763519355250587
20
-68.566854190564584
0
LWPOLYLINE
5
184
100
AcDbEntity
8
0
100
AcDbPolyline
90
8
70
1
43
0.0
10
194.16351935525023
20
-132.26685419056446
42
-0.41421356237307422
10
194.9135193552502
20
-131.51685419056446
10
207.41351935525012
20
-131.5168541905644
42
-0.41421356237311585
10
208.16351935525023
20
-132.26685419056443
10
208.16351935525017
20
-144.7668541905644
42
-0.41421356237308116
10
207.41351935525017
20
-145.51685419056443
10
194.91351935525017
20
-145.51685419056437
42
-0.41421356237306733
10
194.16351935525029
20
-144.7668541905644
0
LWPOLYLINE
5
185
100
AcDbEntity
8
0
100
AcDbPolyline
90
8
70
1
43
0.0
10
117.96351935525033
20
-56.066854190564605
42
-0.41421356237310542
10
118.71351935525034
20
-55.316854190564598
10
131.2135193552503
20
-55.316854190564591
42
-0.41421356237309159
10
131.96351935525033
20
-56.066854190564598
10
131.96351935525036
20
-68.566854190564555
42
-0.41421356237311241
10
131.21351935525033
20
-69.316854190564555
10
118.71351935525036
20
-69.316854190564598
42
-0.41421356237309503
10
117.96351935525036
20
-68.566854190564584
0
LWPOLYLINE
5
186
100
AcDbEntity
8
0
100
AcDbPolyline
90
8
70
1
43
0.0
10
226.46351935525013
20
-112.46685419056446
42
-0.41421356237308815
10
227.2135193552501
20
-113.2168541905645
10
227.2135193552501
20
-125.71685419056448
42
-0.41421356237309503
10
226.46351935525013
20
-126.46685419056446
10
213.96351935525018
20
-126.46685419056442
42
-0.41421356237309503
10
213.21351935525018
20
-125.71685419056443
10
213.21351935525016
20
-113.21685419056445
42
-0.41421356237304652
10
213.96351935525016
20
-112.46685419056449
0
LWPOLYLINE
5
187
100
AcDbEntity
8
0
100
AcDbPolyline
90
16
70
1
43
0.0
10
70.826019355250466
20
-139.51685419056358
42
-0.4142135623730569
10
70.076019355250466
20
-140.26685419056355
10
61.725451126467377
20
-140.26685419056355
42
0.23993164795342778
10
61.118933755076171
20
-140.57567771997532
42
-0.50917507721732791
10
55.458104955424837
20
-140.57567771997532
42
0.23993164795345373
10
54.851587584033616
20
-140.26685419056355
10
46.501019355250534
20
-140.26685419056352
42
-0.41421356237307771
10
45.75101935525052
20
-139.51685419056355
10
45.751019355250513
20
-137.51685419056352
42
-0.41421356237307422
10
46.50101935525052
20
-136.76685419056352
10
54.851587584033616
20
-136.76685419056352
42
0.2399316479534391
10
55.458104955424872
20
-136.45803066115181
42
-0.50917507721730271
10
61.118933755076135
20
-136.45803066115181
42
0.23993164795344102
10
61.725451126467362
20
-136.76685419056358
10
70.076019355250466
20
-136.76685419056355
42
-0.41421356237307771
10
70.826019355250466
20
-137.51685419056352
0
ARC
5
188
100
AcDbEntity
8
0
100
AcDbCircle
10
-25.932905095658604
20
-52.916854190608092
30
0
40
2.5000000000400364
210
2.3461850522617348e-18
220
-1.5337426731657041e-17
230
1
100
AcDbArc
50
35.262236703349643
51
65.160616143997601
0
ARC
5
189
100
AcDbEntity
8
0
100
AcDbCircle
10
-25.767524653140942
20
-52.716854190559488
30
0
40
2.250000000022446
210
7.2887243284119598e-19
220
-1.5940919356936254e-17
230
1
100
AcDbArc
50
66.843207951217721
51
79.736904101274874
0
LINE
5
190
100
AcDbEntity
8
0
100
AcDbLine
10
-25.366645619009212
20
-50.502854190538088
30
3.4838205534881019e-18
11
-25.82988354400333
21
-50.418977780515974
31
0
0
ARC
5
191
100
AcDbEntity
8
0
100
AcDbCircle
10
-25.932905095658604
20
-52.916854190608092
30
0
40
2.5000000000400346
210
2.3572601379939576e-32
220
-9.7222022711005608e-34
230
1
100
AcDbArc
50
87.63825120053211
51
90.000000000005215
0
LINE
5
192
100
AcDbEntity
8
0
100
AcDbLine
10
-25.932905095658832
20
-50.416854190568053
30
3.46649987894037e-17
11
-56.386480644748062
21
-50.416854190608611
31
-7.8886090522101181e-30
0
ARC
5
193
100
AcDbEntity
8
0
100
AcDbCircle
10
-56.386480644750876
20
-52.416854190572749
30
0
40
1.9999999999641371
210
2.5305178725299428e-29
220
3.9443045261401623e-30
230
1
100
AcDbArc
50
89.999999999919396
51
180
0
LINE
5
194
100
AcDbEntity
8
0
100
AcDbLine
10
-58.386480644715007
20
-52.416854190572934
30
8.9486408934403928e-30
11
-58.386480644741965
21
-148.41885161137748
31
-4.4408920985006262e-15
0
ELLIPSE
5
195
100
AcDbEntity
8
0
100
AcDbEllipse
10
-56.386480644741958
20
-148.41885140526804
30
0
11
-4.2616136247271396e-09
21
-2.0000000814057661
31
0.0
40
0.99999995929711605
41
4.7123890855702104
42
6.2831853071795862
0
LINE
5
196
100
AcDbEntity
8
0
100
AcDbLine
10
-56.386480649003573
20
-150.41885148667382
30
0
11
-41.601476084840854
21
-150.41885148667333
31
0
0
SPLINE
5
197
100
AcDbEntity
8
0
100
AcDbSpline
70
0
71
3
72
8
73
4
74
0
42
0.000000001
43
0.0000000001
44
0.0000000001
40
0.23612896199809397
40
0.23612896199809397
40
0.23612896199809397
40
0.23612896199809397
40
0.24903379000713924
40
0.24903379000713924
40
0.24903379000713924
40
0.24903379000713924
10
-41.472596341201744
20
-150.4155272366886
30
0
10
-41.515485973193897
20
-150.41774125609658
30
0
10
-41.558459991524863
20
-150.41885148667333
30
0
10
-41.601476084840854
20
-150.41885148667333
30
0
0
LINE
5
198
100
AcDbEntity
8
0
100
AcDbLine
10
-41.472596341201744
20
-150.4155272366886
30
0
11
-41.020158167001817
21
-150.33109671772115
31
-4.4408920985006262e-15
0
ARC
5
199
100
AcDbEntity
8
0
100
AcDbCircle
10
-41.432910426651986
20
-148.1192794621245
30
0
40
2.2500000000003184
210
3.6207175279371931e-16
220
-1.9402354120896269e-15
230
1
100
AcDbArc
50
280.57051215220241
51
291.76722571820818
0
SPLINE
5
200
100
AcDbEntity
8
0
100
AcDbSpline
70
0
71
3
72
10
73
6
74
0
42
0.000000001
43
0.0000000001
44
0.0000000001
40
0
40
0
40
0
40
0
40
0.097661131658605183
40
0.097661131658605183
40
0.14564577114432417
40
0.14564577114432417
40
0.14564577114432417
40
0.14564577114432417
10
-39.506265823753004
20
-149.28270420574975
30
0
10
-39.683859703617529
20
-149.55553166204891
30
0
10
-39.913044959739409
20
-149.79106270532569
30
0
10
-40.312539373979568
20
-150.06692639568743
30
0
10
-40.452400915155238
20
-150.14485096458284
30
0
10
-40.598527934519453
20
-150.20885019718557
30
0
0
ARC
5
201
100
AcDbEntity
8
0
100
AcDbCircle
10
-37.452960678231833
20
-150.61927946212342
30
0
40
2.4499999999999922
210
1.1822851576973111e-30
220
-1.3877787807814463e-17
230
1
100
AcDbArc
50
90.000000000004817
51
146.93834979205155
0
LINE
5
202
100
AcDbEntity
8
0
100
AcDbLine
10
-37.452960678232039
20
-148.16927946212343
30
3.4000580129145323e-17
11
-32.553079542972057
21
-148.16927946212297
31
-4.4408920985006262e-15
0
ARC
5
203
100
AcDbEntity
8
0
100
AcDbCircle
10
-32.553079542971808
20
-150.6192794621229
30
0
40
2.4499999999999464
210
-4.0598486115797181e-18
220
-1.9201656650625242e-17
230
1
100
AcDbArc
50
33.06165020760897
51
90.000000000005812
0
SPLINE
5
204
100
AcDbEntity
8
0
100
AcDbSpline
70
0
71
3
72
10
73
6
74
0
42
0.000000001
43
0.0000000001
44
0.0000000001
40
0.10350766174291197
40
0.10350766174291197
40
0.10350766174291197
40
0.10350766174291197
40
0.17334738993837112
40
0.17334738993837112
40
0.2490336969215968
40
0.2490336969215968
40
0.2490336969215968
40
0.2490336969215968
10
-29.40749124898289
20
-150.20885859758465
30
0
10
-29.620562103543033
20
-150.11554242822137
30
0
10
-29.819660752835407
20
-149.99290365164643
30
0
10
-30.193290573159629
20
-149.68353341091114
30
0
10
-30.362140305708948
20
-149.49414198728437
30
0
10
-30.499773616924834
20
-149.28270369769248
30
0
0
ARC
5
205
100
AcDbEntity
8
0
100
AcDbCircle
10
-28.573129794542066
20
-148.11927946212319
30
0
40
2.2500000000027804
210
6.44416352211874e-18
220
-2.5731313821632662e-18
230
1
100
AcDbArc
50
248.23335113164762
51
259.42948784780765
0
LINE
5
206
100
AcDbEntity
8
0
100
AcDbLine
10
-28.985882054192274
20
-150.3310967177222
30
5.8230058137274245e-17
11
-28.533450475480826
21
-150.41552600588989
31
0
0
SPLINE
5
207
100
AcDbEntity
8
0
100
AcDbSpline
70
0
71
3
72
8
73
4
74
0
42
0.000000001
43
0.0000000001
44
0.0000000001
40
0
40
0
40
0
40
0
40
0.012909138642433215
40
0.012909138642433215
40
0.012909138642433215
40
0.012909138642433215
10
-28.404564136358267
20
-150.41885055534752
30
0
10
-28.447594598499709
20
-150.41885055534857
30
0
10
-28.490570681239316
20
-150.41773958252659
30
0
10
-28.533450475480823
20
-150.41552600588989
30
0
0
LINE
5
208
100
AcDbEntity
8
0
100
AcDbLine
10
-28.404564136358267
20
-150.41885055534752
30
0
11
42.430186026179598
21
-150.41885148666555
31
0
0
ELLIPSE
5
209
100
AcDbEntity
8
0
100
AcDbEllipse
10
42.430186021917308
20
-146.41885132385403
30
0
11
4.2622992769388884e-09
21
-4.0000001628115314
31
0.0
40
0.9999999592971156
41
1.7763568394002631e-15
42
1.1731489476527386
0
SPLINE
5
210
100
AcDbEntity
8
0
100
AcDbSpline
70
0
71
3
72
12
73
8
74
0
42
0.000000001
43
0.0000000001
44
0.0000000001
40
0
40
0
40
0
40
0
40
0.15625779059501735
40
0.15625779059501735
40
0.31251558085793851
40
0.31251558085793851
40
0.47074962565500694
40
0.47074962565500694
40
0.47074962565500694
40
0.47074962565500694
10
49.805982861525237
20
-145.51685419056301
30
0
10
49.285123559541837
20
-145.51685419056295
30
0
10
48.76924395612378
20
-145.61858959377534
30
0
10
47.805518779604881
20
-146.01407844519031
30
0
10
47.366886943990991
20
-146.30405080414747
30
0
10
46.620774779323767
20
-147.04043545368177
30
0
10
46.322338376616514
20
-147.48156025110126
30
0
10
46.118084415239437
20
-147.96785282025735
30
0
0
LINE
5
211
100
AcDbEntity
8
0
100
AcDbLine
10
49.805982861525237
20
-145.51685419056301
30
0
11
79.113519355250645
21
-145.51685419056372
31
1.5777218104420236e-29
0
ARC
5
212
100
AcDbEntity
8
0
100
AcDbCircle
10
79.113519355250645
20
-144.76685419056366
30
0
40
0.75000000000004619
210
-5.9164567891575894e-31
220
2.1036290805892357e-29
230
1
100
AcDbArc
50
270
51
360
0
LINE
5
213
100
AcDbEntity
8
0
100
AcDbLine
10
79.863519355250702
20
-144.76685419056369
30
4.4373425918684647e-31
11
79.863519355250659
21
-132.26685419056423
31
-4.163336342344337e-15
0
ARC
5
214
100
AcDbEntity
8
0
100
AcDbCircle
10
80.613519355250659
20
-132.26685419056429
30
0
40
0.74999999999999289
210
1.5258174313915402e-30
220
1.3551981149642426e-45
230
1
100
AcDbArc
50
90
51
180
0
LINE
5
215
100
AcDbEntity
8
0
100
AcDbLine
10
80.613519355250659
20
-131.51685419056429
30
-1.0163985862231723e-45
11
93.113519355250446
21
-131.51685419056446
31
3.944304526105059e-30
0
ARC
5
216
100
AcDbEntity
8
0
100
AcDbCircle
10
93.113519355250517
20
-132.2668541905644
30
0
40
0.74999999999995737
210
-1.5777218104420236e-30
220
7.4735918097327872e-44
230
1
100
AcDbArc
50
0
51
90.000000000005429
0
LINE
5
217
100
AcDbEntity
8
0
100
AcDbLine
10
93.863519355250475
20
-132.26685419056446
30
1.1832913578314504e-30
11
93.863519355250446
21
-144.76685419056406
31
0
0
ARC
5
218
100
AcDbEntity
8
0
100
AcDbCircle
10
94.613519355250503
20
-144.76685419056403
30
-4.4408920985006262e-15
40
0.75000000000004619
210
5.9211894646671374e-15
220
1.387778780809494e-17
230
1
100
AcDbArc
50
180
51
269.99999999999562
0
LINE
5
219
100
AcDbEntity
8
0
100
AcDbLine
10
94.613519355250446
20
-145.51685419056409
30
-4.4304837576447645e-15
11
123.29685268858398
21
-145.51685419056474
31
-4.4408920985006656e-15
0
ARC
5
220
100
AcDbEntity
8
0
100
AcDbCircle
10
123.2968526885839
20
-149.51685419056471
30
0
40
3.9999999999999876
210
1.07483566030816e-17
220
-2.5589935679635591e-17
230
1
100
AcDbArc
50
22.783516498308632
51
89.999999999998778
0
SPLINE
5
221
100
AcDbEntity
8
0
100
AcDbSpline
70
0
71
3
72
12
73
8
74
0
42
0.000000001
43
0.0000000001
44
0.0000000001
40
0
40
0
40
0
40
0
40
0.15625778489808381
40
0.15625778489808381
40
0.31251557660673512
40
0.31251557660673512
40
0.4707496375196818
40
0.4707496375196818
40
0.4707496375196818
40
0.4707496375196818
10
130.67264961199331
20
-150.41885148665736
30
0
10
130.15179032899968
20
-150.41885148665742
30
0
10
129.6359107453768
20
-150.31711608681468
30
0
10
128.67218557804469
20
-149.92162724828825
30
0
10
128.2335537352925
20
-149.63165489023905
30
0
10
127.48744151259316
20
-148.89527021384825
30
0
10
127.18900507155357
20
-148.45414537387757
30
0
10
126.98475108190409
20
-147.96785275720521
30
0
0
LINE
5
222
100
AcDbEntity
8
0
100
AcDbLine
10
130.67264961199331
20
-150.41885148665736
30
0
11
221.18160284684842
21
-150.41885148664892
31
1.2621774483536189e-28
0
SPLINE
5
223
100
AcDbEntity
8
0
100
AcDbSpline
70
0
71
3
72
8
73
4
74
0
42
0.000000001
43
0.0000000001
44
0.0000000001
40
0.23612896199383931
40
0.23612896199383931
40
0.23612896199383931
40
0.23612896199383931
40
0.24903379000719386
40
0.24903379000719386
40
0.24903379000719386
40
0.24903379000719386
10
221.31048259053048
20
-150.41552723666197
30
0
10
221.26759295852398
20
-150.41774125607139
30
0
10
221.22461894017871
20
-150.41885148664892
30
0
10
221.18160284684836
20
-150.41885148664892
30
0
0
LINE
5
224
100
AcDbEntity
8
0
100
AcDbLine
10
221.31048259053048
20
-150.41552723666197
30
0
11
221.76292076475744
21
-150.33109671769677
31
1.0842021724855044e-18
0
ARC
5
225
100
AcDbEntity
8
0
100
AcDbCircle
10
221.35016850505718
20
-148.11927946209994
30
0
40
2.2500000000096807
210
3.3221736362684677e-18
220
1.1101445391831705e-18
230
1
100
AcDbArc
50
280.57051215345541
51
291.76722570468928
0
SPLINE
5
226
100
AcDbEntity
8
0
100
AcDbSpline
70
0
71
3
72
10
73
6
74
0
42
0.000000001
43
0.0000000001
44
0.0000000001
40
0
40
0
40
0
40
0
40
0.097661131658630371
40
0.097661131658630371
40
0.14564577119576264
40
0.14564577119576264
40
0.14564577119576264
40
0.14564577119576264
10
223.27681310793628
20
-149.28270420572537
30
-4.4408920985006262e-15
10
223.09921922807175
20
-149.55553166202455
30
0
10
222.87003397194991
20
-149.7910627053013
30
0
10
222.4705395575688
20
-150.06692639576036
30
0
10
222.33067801623449
20
-150.14485096472532
30
0
10
222.18455099670024
20
-150.20885019736679
30
0
0
ARC
5
227
100
AcDbEntity
8
0
100
AcDbCircle
10
225.33011825345761
20
-150.61927946209914
30
0
40
2.4500000000001165
210
2.3343843113674437e-31
220
-1.3877787807814463e-17
230
1
100
AcDbArc
50
90.000000000007987
51
146.93834979205144
0
LINE
5
228
100
AcDbEntity
8
0
100
AcDbLine
10
225.33011825345727
20
-148.16927946209901
30
3.4000580129147042e-17
11
230.22999938875728
21
-148.16927946209856
31
0
0
ARC
5
229
100
AcDbEntity
8
0
100
AcDbCircle
10
230.22999938875742
20
-150.61927946209875
30
0
40
2.4500000000001743
210
-1.3386280335121118e-17
220
7.8453006212607786e-18
230
1
100
AcDbArc
50
33.061650207953029
51
90.000000000003325
0
SPLINE
5
230
100
AcDbEntity
8
0
100
AcDbSpline
70
0
71
3
72
10
73
6
74
0
42
0.000000001
43
0.0000000001
44
0.0000000001
40
0.10351053286176086
40
0.10351053286176086
40
0.10351053286176086
40
0.10351053286176086
40
0.17334745450304215
40
0.17334745450304215
40
0.24903378967642606
40
0.24903378967642606
40
0.24903378967642606
40
0.24903378967642606
10
233.3755613839713
20
-150.20884809634606
30
0
10
233.16250022511358
20
-150.11553329849966
30
0
10
232.96341037928218
20
-149.99289840258223
30
0
10
232.5897876922125
20
-149.68353406826782
30
0
10
232.42093789675897
20
-149.49414257407309
30
0
10
232.28330453427915
20
-149.28270420572454
30
0
0
ARC
5
231
100
AcDbEntity
8
0
100
AcDbCircle
10
234.20994913715714
20
-148.11927946209894
30
0
40
2.2499999999768452
210
-7.8698650381320364e-32
220
3.142523724476159e-32
230
1
100
AcDbArc
50
248.23263002402979
51
259.42948784906076
0
LINE
5
232
100
AcDbEntity
8
0
100
AcDbLine
10
233.79719687756
20
-150.33109671768185
30
3.0630679428133245e-17
11
234.2496353645779
21
-150.41552729505017
31
0
0
SPLINE
5
233
100
AcDbEntity
8
0
100
AcDbSpline
70
0
71
3
72
8
73
4
74
0
42
0.000000001
43
0.0000000001
44
0.0000000001
40
0
40
0
40
0
40
0
40
0.012908445372531782
40
0.012908445372531782
40
0.012908445372531782
40
0.012908445372531782
10
234.37851479536715
20
-150.41885148664772
30
0
10
234.33548664412538
20
-150.41885148664772
30
0
10
234.29251286642457
20
-150.41774063356254
30
0
10
234.2496353645779
20
-150.41552729505017
30
0
0
LINE
5
234
100
AcDbEntity
8
0
100
AcDbLine
10
234.37851479536715
20
-150.41885148664772
30
0
11
249.16351935235369
21
-150.41885148664616
31
3.1554436208840472e-29
0
ELLIPSE
5
235
100
AcDbEntity
8
0
100
AcDbEllipse
10
249.16351935525728
20
-148.41885140523968
30
0
11
2.0796535200093537e-13
21
-2.0000000814057661
31
0.0
40
0.99999995929711605
41
6.2831853057277058
42
7.8539815301080704
0
LINE
5
236
100
AcDbEntity
8
0
100
AcDbLine
10
251.16351935525728
20
-148.4188516129723
30
0
11
251.16351935524833
21
-52.416854190544186
31
0
0
ARC
5
237
100
AcDbEntity
8
0
100
AcDbCircle
10
249.16351935524835
20
-52.416854190544377
30
-4.4408920985006262e-15
40
1.9999999999999574
210
-2.2204460492503592e-15
220
-1.3877787808031394e-17
230
1
100
AcDbArc
50
0
51
90.000000000004889
0
LINE
5
238
100
AcDbEntity
8
0
100
AcDbLine
10
249.16351935524818
20
-50.416854190544385
30
-4.4131365228849972e-15
11
218.70994380616594
21
-50.416854190583066
31
-7.8886090522101181e-30
0
ARC
5
239
100
AcDbEntity
8
0
100
AcDbCircle
10
218.70994380616625
20
-52.91685419058544
30
0
40
2.5000000000023714
210
-1.774937036747499e-30
220
3.155443620880827e-30
230
1
100
AcDbArc
50
90.000000000007162
51
92.361748805210468
0
LINE
5
240
100
AcDbEntity
8
0
100
AcDbLine
10
218.60692225426217
20
-50.418977780541255
30
3.4664998788738394e-17
11
218.14368432954822
21
-50.502854190581353
31
1.0842021724855044e-18
0
ARC
5
241
100
AcDbEntity
8
0
100
AcDbCircle
10
218.54456336364851
20
-52.716854190536935
30
0
40
2.2499999999521121
210
8.5853613766702294e-20
220
-4.7415775011099815e-19
230
1
100
AcDbArc
50
100.26309589823583
51
113.15679207714972
0
ARC
5
242
100
AcDbEntity
8
0
100
AcDbCircle
10
218.70994380616625
20
-52.91685419058544
30
0
40
2.5000000000023732
210
1.1411429213644827e-17
220
-8.1338904437608907e-18
230
1
100
AcDbArc
50
114.83938388157209
51
144.73776329666029
0
ARC
5
243
100
AcDbEntity
8
0
100
AcDbCircle
10
214.74983017144822
20
-50.116854190494486
30
0
40
2.3499999999999321
210
2.6267389716402082e-30
220
-1.3877787807814463e-17
230
1
100
AcDbArc
50
270.00000000000421
51
324.73776329528135
0
LINE
5
244
100
AcDbEntity
8
0
100
AcDbLine
10
214.74983017144839
20
-52.466854190494416
30
-3.2612801348363038e-17
11
211.01053187184849
21
-52.466854190494772
31
7.8886090522101181e-30
0
ARC
5
245
100
AcDbEntity
8
0
100
AcDbCircle
10
211.0105318718482
20
-50.116854190494877
30
0
40
2.3499999999999059
210
8.0119187347449626e-18
220
-1.1331467364228088e-17
230
1
100
AcDbArc
50
215.26223670472871
51
270.00000000000693
0
ARC
5
246
100
AcDbEntity
8
0
100
AcDbCircle
10
207.05041823713086
20
-52.916854190586406
30
0
40
2.5000000000399809
210
1.6023837468944415e-17
220
-2.2662934728841882e-17
230
1
100
AcDbArc
50
35.262236703350105
51
65.160616143870342
0
ARC
5
247
100
AcDbEntity
8
0
100
AcDbCircle
10
207.21579867964846
20
-52.716854190537973
30
0
40
2.250000000022419
210
6.7145202486853923e-18
220
-1.9591273367084809e-17
230
1
100
AcDbArc
50
66.843207951076707
51
79.736904101775465
0
LINE
5
248
100
AcDbEntity
8
0
100
AcDbLine
10
207.61667771376085
20
-50.502854190513034
30
6.9676411073167837e-18
11
207.15343978877269
21
-50.418977780493776
31
0
0
ARC
5
249
100
AcDbEntity
8
0
100
AcDbCircle
10
207.05041823713086
20
-52.916854190586406
30
0
40
2.5000000000399867
210
8.6662496972138289e-19
220
-3.5742780832355415e-20
230
1
100
AcDbArc
50
87.638251200840429
51
90.000000000005869
0
LINE
5
250
100
AcDbEntity
8
0
100
AcDbLine
10
207.0504182371306
20
-50.416854190546402
30
3.4754355741493434e-17
11
92.579943806166256
21
-50.416854190594776
31
4.4408920985006262e-15
0
ARC
5
251
100
AcDbEntity
8
0
100
AcDbCircle
10
92.579943806166483
20
-52.9168541905971
30
-4.4408920985006262e-15
40
2.5000000000023181
210
3.0292258760430676e-28
220
-3.5527136787972066e-15
230
1
100
AcDbArc
50
90.000000000005215
51
93.947747535597003
0
LINE
5
252
100
AcDbEntity
8
0
100
AcDbLine
10
92.407827084048193
20
-50.422786061219149
30
-4.4408920985006262e-15
11
91.969142214648542
21
-50.511383719244293
31
0
0
ARC
5
253
100
AcDbEntity
8
0
100
AcDbCircle
10
92.414563363648767
20
-52.716854190548588
30
0
40
2.2499999999493085
210
3.4007834686501322e-18
220
6.8682891011968868e-19
230
1
100
AcDbArc
50
101.41798031453635
51
113.1567920792385
0
ARC
5
254
100
AcDbEntity
8
0
100
AcDbCircle
10
92.579943806166483
20
-52.9168541905971
30
-4.4408920985006262e-15
40
2.5000000000019917
210
7.4647168602375249e-16
220
-1.6126006933179887e-15
230
1
100
AcDbArc
50
114.8393838834524
51
144.73776329666083
0
ARC
5
255
100
AcDbEntity
8
0
100
AcDbCircle
10
88.619830171448569
20
-50.11685419050621
30
-4.4408920985006262e-15
40
2.3499999999999677
210
1.153918877317998e-30
220
-1.3877787807814614e-17
230
1
100
AcDbArc
50
270.00000000000483
51
324.73776329528044
0
LINE
5
256
100
AcDbEntity
8
0
100
AcDbLine
10
88.619830171448768
20
-52.466854190506176
30
-4.4735048998489905e-15
11
84.880531871848774
21
-52.46685419050651
31
3.944304526105059e-30
0
ARC
5
257
100
AcDbEntity
8
0
100
AcDbCircle
10
84.880531871848532
20
-50.116854190506565
30
0
40
2.3499999999999464
210
8.0119187347451906e-18
220
-1.1331467364227923e-17
230
1
100
AcDbArc
50
215.26223670473007
51
270.00000000000591
0
ARC
5
258
100
AcDbEntity
8
0
100
AcDbCircle
10
80.920418237131102
20
-52.916854190598201
30
0
40
2.5000000000400591
210
8.0119187344721985e-18
220
-1.133146736442098e-17
230
1
100
AcDbArc
50
35.262236703349629
51
65.160616143983958
0
ARC
5
259
100
AcDbEntity
8
0
100
AcDbCircle
10
81.085798679648775
20
-52.716854190549554
30
0
40
2.250000000022395
210
7.1087146272566527e-18
220
-1.8669630075202679e-17
230
1
100
AcDbArc
50
66.843207951202402
51
79.736904101775792
0
LINE
5
260
100
AcDbEntity
8
0
100
AcDbLine
10
81.486677713761139
20
-50.502854190524701
30
-2.3470065964177651e-17
11
81.023439788774212
21
-50.418977780505557
31
0
0
ARC
5
261
100
AcDbEntity
8
0
100
AcDbCircle
10
80.920418237131102
20
-52.916854190598201
30
0
40
2.5000000000400484
210
2.0310923066556094e-31
220
-8.3769669354571357e-33
230
1
100
AcDbArc
50
87.638251200811155
51
90.000000000004889
0
LINE
5
262
100
AcDbEntity
8
0
100
AcDbLine
10
80.920418237130889
20
-50.416854190558155
30
3.4664998789410824e-17
11
-14.273379526623469
21
-50.416854190604681
31
0
0
ARC
5
263
100
AcDbEntity
8
0
100
AcDbCircle
10
-14.273379526623229
20
-52.916854190607019
30
0
40
2.5000000000023359
210
2.4651903288133322e-32
220
2.3646911585436846e-45
230
1
100
AcDbArc
50
90.0000000000055
51
92.361748805528961
0
LINE
5
264
100
AcDbEntity
8
0
100
AcDbLine
10
-14.376401078541189
20
-50.418977780563459
30
3.4664998788729982e-17
11
-14.839639003261155
21
-50.502854190603003
31
-1.0842021724855044e-18
0
ARC
5
265
100
AcDbEntity
8
0
100
AcDbCircle
10
-14.438759969140932
20
-52.716854190558458
30
0
40
2.2499999999555405
210
-8.5853613770708722e-20
220
4.7415775010952664e-19
230
1
100
AcDbArc
50
100.263095898736
51
113.15679207411168
0
ARC
5
266
100
AcDbEntity
8
0
100
AcDbCircle
10
-14.273379526623229
20
-52.916854190607019
30
0
40
2.5000000000023439
210
0
220
0
230
1
100
AcDbArc
50
114.83938387883531
51
144.73776329666018
0
ARC
5
267
100
AcDbEntity
8
0
100
AcDbCircle
10
-18.233493161341194
20
-50.116854190516051
30
0
40
2.350000000000021
210
2.915218690969658e-30
220
-1.387778780781446e-17
230
1
100
AcDbArc
50
270.00000000000557
51
324.73776329528027
0
LINE
5
268
100
AcDbEntity
8
0
100
AcDbLine
10
-18.233493161340967
20
-52.466854190516074
30
-3.261280134836427e-17
11
-21.972791460940961
21
-52.466854190516408
31
0
0
ARC
5
269
100
AcDbEntity
8
0
100
AcDbCircle
10
-21.972791460941174
20
-50.116854190516406
30
0
40
2.3500000000000005
210
1.4039294992409867e-17
220
-7.0698084626992333e-18
230
1
100
AcDbArc
50
215.26223670473107
51
270.00000000000517
0
ENDSEC
0
SECTION
2
OBJECTS
0
DICTIONARY
5
C
100
AcDbDictionary
3
ACAD_GROUP
350
D
3
ACAD_MLINESTYLE
350
17
0
DICTIONARY
5
D
100
AcDbDictionary
0
DICTIONARY
5
1A
330
C
100
AcDbDictionary
0
DICTIONARY
5
17
100
AcDbDictionary
0
ENDSEC
0
EOF
